<svg width="336" height="329" viewBox="0 0 336 329" fill="none" xmlns="http://www.w3.org/2000/svg">
<g style="mix-blend-mode:multiply">
<path d="M69.272 287.319C66.3629 287.319 63.3877 286.668 60.4787 285.366C37.2724 274.949 23.5868 250.796 17.5703 237.384C10.0994 220.848 5.00845 202.489 2.0994 181.135C-1.33856 156.265 -0.545185 134.13 4.41342 113.427C9.23979 93.5055 18.1653 74.8208 30.1981 59.4563C36.2146 51.7741 42.9584 45.0034 50.1649 39.3394C54.5285 35.8889 59.0903 32.3082 64.5117 29.704C69.272 27.4254 74.2966 25.1468 79.4536 23.0635C81.3709 22.2822 83.4206 21.8916 85.5363 21.8916C93.0072 21.8916 100.941 27.2301 103.982 34.3915C107.883 43.5711 104.114 54.7689 95.5195 59.3262C93.2055 60.5631 91.2882 61.6047 89.5031 62.7766C89.437 62.8417 89.3047 62.9068 89.2386 62.9719C89.0402 63.1673 88.7097 63.3626 88.4452 63.5579L88.3791 63.623C87.9824 63.8834 87.6518 64.2089 87.2551 64.5345C85.6023 65.8365 83.8834 67.2037 81.5694 68.8964C81.4371 69.0266 81.0404 69.287 81.0404 69.287C79.4537 70.589 77.9992 71.7609 76.6108 72.9979C73.4373 75.7974 70.3959 78.8572 67.5529 82.1124C66.2306 83.6098 64.9745 85.1723 63.6522 86.7998L63.52 86.9952C63.3878 87.1254 63.3217 87.2556 63.1895 87.3858C62.925 87.7764 62.5944 88.1671 62.1977 88.6228C61.9333 89.0134 61.6689 89.3389 61.4044 89.7295C56.9086 95.9143 52.9416 102.62 49.702 109.651C49.5697 109.912 49.3054 110.498 49.3054 110.498C49.1731 110.888 49.0409 111.214 48.8426 111.604C48.7104 111.93 48.5781 112.19 48.4459 112.516C47.7186 114.339 47.0574 116.227 46.3962 118.18C44.9417 122.477 43.6856 126.904 42.6939 131.461C42.165 133.87 41.6361 136.279 41.2394 138.753C41.1072 139.534 40.9749 140.25 40.8427 141.031L40.7105 141.943V142.138L40.6443 142.398C40.6443 142.529 40.5783 142.724 40.5783 142.854C39.9171 147.802 39.5203 152.359 39.322 156.721C38.9253 165.38 39.3882 174.755 40.5783 184.585L40.7105 185.822C40.9088 187.124 41.1072 188.296 41.3716 189.403C41.7683 191.356 42.165 193.309 42.5617 195.067C43.4212 198.908 44.479 202.684 45.5369 206.265C46.7269 210.041 47.983 213.752 49.3714 217.267C49.4375 217.398 49.5037 217.528 49.5698 217.658C49.7681 218.114 50.0988 218.7 50.2971 219.416C50.4954 219.807 50.6938 220.262 50.826 220.653C51.5533 222.28 52.3467 223.843 53.1401 225.405C54.9913 228.986 57.0407 232.371 59.1564 235.496C59.7514 236.343 60.2804 237.189 60.8754 237.97C60.9416 238.101 61.1399 238.361 61.3382 238.621C61.5366 238.882 61.7348 239.142 61.9332 239.403L62.4621 239.989C63.1233 240.77 63.7845 241.486 64.3796 242.202C66.5613 244.611 68.9414 246.824 71.4538 249.168L72.4455 250.08C73.3711 250.926 74.3628 251.772 75.4207 252.684C75.8835 253.074 76.2802 253.4 76.743 253.791L76.809 253.856C77.6024 254.442 78.3296 255.028 79.123 255.613C79.4536 255.874 79.7842 256.134 80.0487 256.395C80.4454 256.72 80.7759 256.981 81.1726 257.306C84.7428 260.04 86.7263 264.272 86.8586 269.155C86.9247 273.387 85.6022 277.618 83.0899 280.743C79.6519 284.975 74.7595 287.319 69.272 287.319Z" fill="#6DDFA6"/>
</g>
<g style="mix-blend-mode:multiply">
<path d="M82.557 62.9364C75.1999 62.9364 68.3026 59.1886 64.1642 52.8562C61.2082 48.3977 60.3543 42.9053 61.7338 37.3483C63.1789 31.5974 66.7918 26.6866 71.7184 23.9081C83.8051 17.0587 96.8115 11.5663 110.343 7.49548C127.028 2.52002 144.633 0 162.763 0C169.135 0 175.506 0.323082 181.747 0.969246C195.476 2.39081 207.628 4.65236 218.795 8.01241C225.692 10.0801 232.13 12.6648 237.845 15.7664C241.392 17.6402 245.465 19.8372 248.749 22.8096C251.574 25.3942 253.741 28.4958 255.581 31.2097C258.865 36.0559 259.128 42.1298 256.303 47.4284C253.282 53.1792 247.238 56.927 240.867 57.0562C240.604 57.0562 240.275 57.0562 240.013 57.0562C230.356 57.0562 221.291 54.1485 212.555 51.3054C209.139 50.2069 205.92 49.173 202.701 48.333C197.775 47.0407 192.717 45.8776 187.659 45.0376C186.739 44.9083 185.754 44.7145 184.834 44.5853L183.652 44.3914L182.995 44.3268C180.564 44.0683 178.134 43.8099 175.769 43.6806C171.762 43.4222 167.689 43.2283 163.617 43.2283C157.376 43.2283 151.136 43.5514 144.961 44.2622C144.567 44.3268 144.107 44.3914 143.713 44.3914L142.991 44.5207C142.137 44.6499 141.283 44.7791 140.363 44.9084C138.195 45.2315 135.896 45.6838 133.269 46.2653C127.619 47.4284 122.758 48.6561 118.292 49.9484C115.533 50.7885 112.839 51.7577 110.015 52.7915C108.044 53.5023 106.008 54.2778 103.972 54.9239C103.577 55.0531 103.249 55.247 102.855 55.4408C101.804 55.8932 100.818 56.3455 99.8332 56.8624C97.6654 57.8963 95.3662 58.9947 93.0014 60.287C89.7827 62.0317 86.1699 62.9364 82.557 62.9364Z" fill="#FFADC7"/>
</g>
<g style="mix-blend-mode:multiply">
<path d="M295.768 114.927C288.925 114.927 282.799 111.302 280.193 105.7C278.042 101.087 275.761 96.2764 273.154 91.7291C271.916 89.6203 270.613 87.5114 269.179 85.6002C268.853 85.1389 268.527 84.6776 268.202 84.2163C267.224 83.0301 266.442 82.1075 265.66 81.1189C259.469 73.9356 259.469 64.0503 265.725 57.1306C268.723 53.8355 273.024 51.9902 277.716 51.9902C282.409 51.9902 286.84 53.8355 289.968 56.9988C300.46 67.609 308.215 79.2737 312.842 91.795C314.407 96.0128 314.016 100.758 311.735 105.041C309.714 108.864 306.391 111.961 302.676 113.543C300.656 114.465 298.245 114.927 295.768 114.927Z" fill="#FFADC7"/>
</g>
<g style="mix-blend-mode:multiply">
<path d="M181.984 328.189C162.939 329.027 144.159 326.835 126.172 321.678C115.591 318.648 109.508 309.236 111.425 298.792C112.946 290.347 120.882 283.964 130.272 283.513C131.925 283.449 133.578 283.578 135.165 283.9C139.067 284.674 142.836 285.318 146.539 285.834C146.87 285.898 147.465 285.898 147.994 285.898C149.449 285.963 151.102 286.027 152.689 286.479C153.416 286.543 154.078 286.543 154.805 286.608C160.161 286.866 165.716 286.866 171.403 286.608C173.255 286.543 175.106 286.414 176.958 286.285C180.463 286.027 184.033 285.641 187.472 285.189C188.662 284.996 189.853 284.803 191.109 284.674L192.299 284.48H192.366L192.696 284.416L193.027 284.351C193.225 284.287 193.358 284.287 193.556 284.222C199.838 282.933 206.12 281.321 212.204 279.387C215.51 278.356 218.883 277.195 222.189 275.906C223.379 275.455 224.57 274.939 225.826 274.359C226.884 273.908 227.942 273.392 229.066 272.941L229.331 272.812L229.595 272.747C229.86 272.683 230.323 272.489 230.521 272.425L230.72 272.36C231.513 271.974 232.307 271.587 233.1 271.2C234.555 270.491 235.944 269.717 237.332 268.944C240.11 267.396 242.887 265.785 245.532 264.109C250.558 260.885 255.65 257.275 261.072 253.02L261.204 252.891C261.667 252.504 262.13 252.053 262.593 251.666C263.783 250.635 264.908 249.604 265.966 248.572C268.214 246.445 270.33 244.253 272.314 241.996C273.504 240.643 274.694 239.224 275.819 237.87C275.951 237.677 276.083 237.484 276.215 237.355L277.538 235.227C278.133 234.196 278.86 233.229 279.456 232.326C280.183 231.295 280.844 230.328 281.373 229.361C282.431 227.491 283.423 225.493 284.547 222.979L284.415 222.85L285.738 219.755C285.804 219.626 285.87 219.497 285.87 219.368C286.267 218.143 286.663 216.79 287.06 215.178C289.309 206.346 297.045 200.157 306.502 199.77C308.155 199.706 309.808 199.835 311.461 200.093C316.487 200.931 320.851 203.832 323.893 208.151C327.134 212.857 328.39 218.659 327.266 224.075C323.761 240.965 315.363 257.275 302.137 272.554C282.696 295.117 254.195 312.588 222.057 321.742C209.096 325.417 195.606 327.544 181.984 328.189ZM295.26 223.365C295.26 223.301 295.26 223.365 295.26 223.365H295.062H295.26Z" fill="#FF975E"/>
</g>
<g style="mix-blend-mode:multiply">
<path d="M283.24 249.008C283.076 249.008 282.26 249.692 280.463 251.745V251.647C281.443 250.767 282.26 249.888 283.24 249.008Z" fill="#FF975E"/>
</g>
<g style="mix-blend-mode:multiply">
<path d="M301.781 248.991C298.799 249.121 295.751 248.536 292.963 247.238C285.766 243.862 281.551 234.512 283.885 227.175C284.21 226.202 284.469 225.228 284.793 224.189C285.053 223.345 285.247 222.566 285.506 221.722C285.895 220.423 286.349 219.254 286.803 218.086C287.062 217.501 287.322 216.852 287.516 216.203L287.97 215.034C288.424 213.801 288.878 212.632 289.332 211.528L289.397 211.333C289.591 210.879 289.851 210.36 290.175 209.775C290.564 208.931 290.888 207.827 291.147 206.789C291.407 205.945 291.666 205.101 291.926 204.257L292.314 203.088C292.509 202.439 292.768 201.789 292.963 201.14C293.417 199.647 293.871 198.089 294.325 196.53C295.232 193.154 296.01 189.648 296.594 186.272C296.918 184.519 297.177 182.766 297.372 181.078C297.372 180.948 297.437 180.493 297.437 180.104C297.502 179.649 297.502 179.26 297.567 179V178.74C297.761 175.17 297.826 171.664 297.696 168.222C297.567 164.716 297.307 161.21 296.789 157.769C296.659 156.99 296.594 156.211 296.464 155.432L296.399 154.848V154.783C296.075 153.159 295.751 151.666 295.362 150.173C292.833 139.915 297.631 130.565 307.292 126.929C308.913 126.345 310.599 125.955 312.35 125.89C320.844 125.501 329.143 131.344 331.283 139.135C335.952 156.341 337.184 174.52 334.849 193.219C332.191 214.839 325.188 231.785 313.971 243.602C310.664 246.783 306.385 248.731 301.781 248.991Z" fill="#BCFFDA"/>
</g>
<g style="mix-blend-mode:multiply">
<path d="M83.3626 309.209C81.5969 309.209 79.8311 309.015 78 308.692C70.9374 307.272 65.4443 302.367 60.605 297.977C60.0165 297.396 59.3625 296.88 58.7739 296.364C55.3734 293.394 52.2345 290.425 49.3571 287.456C41.5096 279.387 35.0354 270.028 30.7847 263.702C25.2261 255.376 27.5805 243.305 35.951 236.915C39.5478 234.204 44.3216 232.59 49.1608 232.59C54.981 232.59 60.2125 234.849 63.6131 238.851C69.1063 245.242 75.0574 250.986 80.7468 256.279C83.9511 259.249 86.9592 261.895 89.9674 264.348C90.556 264.864 91.21 265.381 91.864 265.832L92.06 266.026L92.387 266.22C96.1799 268.931 100.038 271.706 102.719 276.676C107.036 284.616 106.316 293.911 100.888 300.753C96.7031 306.239 90.4907 309.209 83.3626 309.209Z" fill="#FF6B70"/>
</g>
<path d="M258.416 143.831C249.78 107.911 213.602 76.0777 175.907 74.0054C137.045 71.8179 95.3238 98.9306 83.0701 135.599C74.2007 162.136 76.0097 191.321 91.6478 214.98C146.381 297.584 281.406 239.387 258.416 143.831ZM173.631 120.46C174.507 118.157 176.141 116.43 178.3 115.221C180.517 114.012 183.201 114.07 185.535 114.818C188.511 115.739 190.553 118.387 191.487 121.208C192.421 124.086 193.179 127.597 192.245 130.533C191.662 132.433 190.203 134.045 188.569 135.081C186.76 136.29 184.777 136.75 182.618 136.693C180.108 136.578 178.008 135.196 176.257 133.527C176.082 133.354 175.907 133.181 175.79 133.009C175.207 132.318 174.565 131.397 174.157 130.591C173.631 129.555 173.223 128.403 173.048 127.31C172.639 125.122 172.815 122.589 173.631 120.46ZM124.85 136.232C124.908 136.117 124.966 136.059 125.025 135.944C125.2 135.254 125.492 134.62 125.842 133.987C126.308 132.893 127.009 131.915 127.942 131.167L129.985 129.843C130.802 129.555 131.56 129.324 132.377 129.037C133.661 128.749 134.886 128.806 136.112 129.152C136.928 129.209 137.687 129.497 138.387 129.958C139.496 130.418 140.488 131.109 141.246 132.088C141.305 132.145 141.363 132.203 141.363 132.318C141.947 132.836 142.413 133.469 142.822 134.16C143.697 135.196 144.222 136.405 144.397 137.786C144.514 139.168 144.572 140.549 144.631 141.989C144.514 143.715 143.931 145.27 142.939 146.709C142.355 147.342 141.83 147.975 141.246 148.608C139.321 150.45 136.52 151.084 133.953 151.026C132.61 150.969 131.385 150.623 130.335 149.932C129.168 149.472 128.117 148.724 127.3 147.745C126.659 147.112 126.25 146.421 125.9 145.615C125.9 145.558 125.842 145.5 125.842 145.442C125.783 145.27 125.725 145.155 125.667 144.982C125.258 143.888 124.85 142.794 124.5 141.643C124.149 139.686 124.266 137.901 124.85 136.232ZM229.357 167.892C228.307 173.994 226.031 179.923 222.238 186.486C217.628 194.545 210.743 202.546 202.282 209.684C194.346 216.419 186.177 220.621 178.008 222.175C174.798 222.808 171.472 222.981 168.205 222.808C158.11 222.233 147.023 217.973 136.17 210.547C125.55 203.294 117.264 194.372 112.187 184.759C110.32 181.19 111.662 176.412 115.222 174.052C116.155 173.419 117.264 173.016 118.373 172.785C121.349 172.21 124.441 173.246 126.484 175.491C127.242 176.297 127.942 177.103 128.701 177.909C130.043 179.405 131.443 180.959 132.844 182.456C133.952 183.665 135.12 184.816 136.287 185.91C136.403 186.025 136.928 186.486 137.454 187.004C138.095 187.579 138.737 188.212 139.438 188.788C140.196 189.421 140.955 190.112 141.713 190.745L141.772 190.688C141.888 190.745 142.122 190.976 142.122 190.976L142.18 191.033C142.588 191.321 142.939 191.666 143.347 191.954C143.872 192.415 144.456 192.818 145.039 193.278C147.723 195.293 150.408 197.077 153.092 198.632C153.208 198.689 153.734 198.977 154.259 199.265C155.192 199.783 156.126 200.301 157.118 200.761C158.052 201.164 158.985 201.567 159.977 201.913C161.144 202.373 162.311 202.719 163.42 203.064C164.12 203.294 164.879 203.467 165.696 203.697H165.754L166.279 203.755H166.338C167.855 203.985 169.372 204.158 171.006 204.215C171.472 204.215 171.998 204.215 172.464 204.215C173.69 204.158 175.615 203.87 178.183 203.179C179.233 202.891 180.283 202.373 181.275 201.913C182.617 201.279 183.96 200.531 185.243 199.725L185.36 199.668L185.944 199.265C186.702 198.747 187.344 198.229 188.044 197.71C190.728 195.638 193.004 193.681 194.988 191.666C195.105 191.551 195.513 191.148 195.922 190.688C196.155 190.4 196.447 190.112 196.68 189.882L196.739 189.939C197.38 189.191 198.139 188.328 198.839 187.407C200.531 185.277 202.107 182.974 203.799 180.038L204.091 179.463L204.149 179.405C204.382 178.887 204.616 178.369 204.849 177.851C205.433 176.527 206.016 175.145 206.483 173.821C206.833 172.785 207.183 171.749 207.475 170.713C207.592 170.31 207.709 169.907 207.767 169.504L207.825 169.216C207.942 168.468 208.059 167.72 208.117 166.971C208.35 164.784 208.584 162.654 208.759 160.467V159.776L208.701 159.373C208.642 159.085 208.642 158.74 208.584 158.452L208.525 157.761C208.292 155.919 208.117 154.192 208.292 152.523C208.817 147.054 212.785 144.406 216.345 143.715C219.846 143.025 224.922 144.003 227.665 148.896C231.107 155.056 229.999 164.208 229.357 167.892Z" fill="#FFCE00"/>
</svg>
