<svg width="312" height="296" viewBox="0 0 312 296" fill="none" xmlns="http://www.w3.org/2000/svg">
<path d="M87.3033 239.591L88.9099 291.173C89.0479 295.603 94.4952 297.652 97.5452 294.424L157.395 231.083C161.026 227.24 160.838 221.197 156.975 217.585L93.2974 158.051C93.2103 157.97 93.1196 157.91 93.0328 157.837C92.6531 157.457 92.2651 157.086 91.8688 156.716C69.9244 136.199 35.4199 137.267 14.7945 159.095C-5.83095 180.924 -4.75766 215.246 17.1824 235.758C36.8139 254.112 66.5007 255.191 87.3033 239.591Z" fill="#FFE7FB"/>
<path d="M211.298 5.93179L182.805 71.9905C180.658 76.9681 182.955 82.7384 187.938 84.8831L216.867 97.334L198.532 139.841C196.385 144.819 198.683 150.589 203.666 152.734L269.796 181.196C274.779 183.341 280.555 181.046 282.702 176.068L311.195 110.009C313.342 105.032 311.045 99.2616 306.062 97.117L277.133 84.666L295.468 42.1586C297.615 37.181 295.317 31.4107 290.334 29.266L224.204 0.803706C219.221 -1.34095 213.445 0.95423 211.298 5.93179Z" fill="#FFF6CC"/>
</svg>
