<svg width="520" height="208" viewBox="0 0 520 208" fill="none" xmlns="http://www.w3.org/2000/svg">
<g clip-path="url(#clip0_565_1854)">
<rect width="520" height="208" rx="8" fill="#00472B"/>
<path d="M94.9268 73.8218C95.6889 50.0152 88.5194 30.2405 73.0255 19.6367C40.2312 -2.80712 -17.3942 24.359 -55.6757 80.2948C-93.9572 136.231 -98.4174 199.782 -65.6131 222.233C-50.1192 232.837 -29.0904 232.36 -7.17466 223.031C-12.4052 233.494 -9.27458 246.467 0.649995 253.259L144.471 351.688C155.309 359.105 170.099 356.334 177.516 345.496L275.953 201.662C283.371 190.824 280.599 176.034 269.762 168.617L125.931 70.1816C116.006 63.3894 102.78 65.168 94.92 73.8318L94.9268 73.8218Z" fill="#025F39"/>
<path d="M435.017 72.4665L422.214 87.1279C418.921 90.8988 419.527 96.7073 423.591 99.6064C461.932 126.902 515.577 121.089 547.306 84.7546C579.035 48.4199 577.562 -5.51114 545.335 -39.8254C541.923 -43.455 536.078 -43.2797 532.785 -39.5088L519.989 -24.8551C518.817 -49.1211 508.179 -72.8809 488.46 -90.1012C449.908 -123.767 391.273 -119.685 357.492 -81.0001C323.711 -42.3153 327.572 16.3409 366.117 49.9997C385.837 67.22 410.805 74.553 435.016 72.4522L435.017 72.4665Z" fill="#025F39"/>
</g>
<defs>
<clipPath id="clip0_565_1854">
<rect width="520" height="208" rx="8" fill="white"/>
</clipPath>
</defs>
</svg>
