<svg width="347" height="310" viewBox="0 0 347 310" fill="none" xmlns="http://www.w3.org/2000/svg">
<path d="M356.899 370.864L276.996 148.853C270.976 132.124 252.544 123.449 235.816 129.469L138.697 164.423L87.2808 21.5636C81.2601 4.83495 62.8289 -3.84044 46.1003 2.18027L-175.911 82.083C-192.639 88.1037 -201.315 106.535 -195.294 123.264L-115.391 345.274C-109.37 362.003 -90.9392 370.678 -74.2106 364.658L22.9085 329.704L74.3243 472.564C80.345 489.292 98.7762 497.968 115.505 491.947L337.516 412.044C354.244 406.023 362.92 387.592 356.899 370.864Z" fill="#FFF1E6"/>
<path fill-rule="evenodd" clip-rule="evenodd" d="M155.609 180.541C155.089 180.728 154.516 180.458 154.329 179.938L102.913 37.079C97.0795 20.87 79.2212 12.4643 63.0122 18.2979L-158.999 98.2007C-175.208 104.034 -183.613 121.893 -177.78 138.102L-97.8769 360.112C-92.0432 376.321 -74.1849 384.727 -57.976 378.893L39.1431 343.94C39.6628 343.753 40.2356 344.022 40.4227 344.542L91.8385 487.402C97.6722 503.611 115.53 512.016 131.739 506.183L353.75 426.28C369.959 420.446 378.365 402.588 372.531 386.379L292.629 164.368C286.795 148.159 268.937 139.753 252.728 145.587L155.609 180.541ZM293.569 164.03L373.472 386.04C379.493 402.769 370.818 421.2 354.089 427.221L132.078 507.124C115.349 513.144 96.9183 504.469 90.8976 487.74L39.4818 344.881L-57.6373 379.834C-74.366 385.855 -92.7971 377.18 -98.8178 360.451L-178.721 138.44C-184.741 121.712 -176.066 103.28 -159.337 97.2597L62.6735 17.357C79.4022 11.3363 97.8334 20.0117 103.854 36.7404L155.27 179.6L252.389 144.646C269.118 138.626 287.549 147.301 293.569 164.03Z" fill="#FF8FA9"/>
</svg>
