<svg width="99" height="136" viewBox="0 0 99 136" fill="none" xmlns="http://www.w3.org/2000/svg">
<path d="M81.6958 109.25C80.1846 112.484 39.8302 119.375 32.6005 118.54C28.4038 118.055 16.9212 42.1586 19.0257 39.9129C22.184 36.5428 63.4765 26.744 67.648 29.5812C71.5074 32.2062 83.9519 104.422 81.6958 109.25Z" fill="#E5E2DC"/>
<path fill-rule="evenodd" clip-rule="evenodd" d="M3.70058 17.5189C5.30526 17.236 6.83549 18.3075 7.11844 19.9121L24.2813 117.248C24.5643 118.852 23.4928 120.382 21.8881 120.665C20.2834 120.948 18.7532 119.877 18.4702 118.272L1.30737 20.9368C1.02442 19.3321 2.0959 17.8019 3.70058 17.5189Z" fill="#D2CEC6"/>
<path fill-rule="evenodd" clip-rule="evenodd" d="M20.5048 112.824C22.1095 112.541 23.6397 113.612 23.9226 115.217C24.369 117.748 24.8918 120.188 25.5545 122.639C25.9995 124.285 26.4001 125.393 27.1376 126.342C27.3365 126.597 27.8095 126.939 28.8126 127.19C29.7865 127.433 30.9415 127.511 32.0741 127.508C34.7863 127.499 37.4564 127.026 40.3933 126.505C41.0628 126.386 41.7462 126.265 42.4471 126.146C44.5592 125.789 46.6482 125.447 48.728 125.106C51.8402 124.596 54.9318 124.09 58.0498 123.54C59.6756 123.253 61.2988 122.977 62.9167 122.701C71.3128 121.271 79.5667 119.865 87.3119 117.19C88.8521 116.658 90.5318 117.476 91.0636 119.016C91.5955 120.556 90.778 122.236 89.2378 122.768C80.9918 125.615 72.1773 127.114 63.7861 128.54C62.1981 128.81 60.6253 129.078 59.0744 129.351C55.9389 129.904 52.7658 130.424 49.6135 130.94C47.5385 131.28 45.4725 131.619 43.4322 131.964C42.8403 132.064 42.2308 132.173 41.6069 132.285C38.649 132.812 35.3666 133.398 32.0932 133.408C30.7514 133.413 29.0396 133.329 27.3799 132.914C25.7494 132.506 23.822 131.69 22.4794 129.964C20.9758 128.03 20.3349 125.942 19.8582 124.179C19.1414 121.528 18.5825 118.912 18.1116 116.241C17.8286 114.637 18.9001 113.107 20.5048 112.824Z" fill="#D2CEC6"/>
<path fill-rule="evenodd" clip-rule="evenodd" d="M94.1926 116.152C92.5879 116.435 91.0577 115.364 90.7747 113.759L74.6109 22.0893C74.328 20.4846 75.3994 18.9544 77.0041 18.6715C78.6088 18.3885 80.139 19.46 80.422 21.0647L96.5858 112.734C96.8688 114.339 95.7973 115.869 94.1926 116.152Z" fill="#D2CEC6"/>
<path fill-rule="evenodd" clip-rule="evenodd" d="M78.0279 24.4845C76.4233 24.7674 74.893 23.696 74.6101 22.0913C74.1263 19.3478 73.573 16.6971 72.8877 14.0278C72.4258 12.2284 72.0005 10.9353 71.2343 9.81525C70.9893 9.45708 70.5281 9.10615 69.6803 8.83868C68.8267 8.56934 67.8065 8.45864 66.784 8.43343C64.3325 8.37298 61.9394 8.79727 59.2329 9.27714C58.6093 9.38769 57.9692 9.50119 57.3078 9.6124C55.3483 9.94188 53.4159 10.2543 51.4942 10.5651C48.6242 11.0291 45.778 11.4894 42.901 11.9967C41.3905 12.263 39.8853 12.518 38.3875 12.7718C30.6331 14.0855 23.0772 15.3657 16.0182 18.009C14.4922 18.5804 12.792 17.8066 12.2205 16.2806C11.6491 14.7547 12.423 13.0544 13.9489 12.483C21.5856 9.62336 29.7942 8.23689 37.5434 6.92802C39.0064 6.68091 40.453 6.43657 41.8763 6.1856C44.7739 5.67467 47.7151 5.19887 50.6319 4.72701C52.548 4.41704 54.4536 4.10877 56.3294 3.79337C56.8639 3.70349 57.4182 3.60432 57.9887 3.50223C60.7201 3.01352 63.8252 2.45796 66.9295 2.5345C68.2033 2.56591 69.8479 2.7041 71.4558 3.21142C73.0697 3.7206 74.8666 4.67411 76.1045 6.48368C77.4943 8.51528 78.1197 10.6777 78.6031 12.5606C79.3326 15.4024 79.9164 18.2038 80.4211 21.0666C80.7041 22.6713 79.6326 24.2015 78.0279 24.4845Z" fill="#D2CEC6"/>
<path fill-rule="evenodd" clip-rule="evenodd" d="M45.5353 20.0103C45.9765 21.5789 45.0626 23.2082 43.494 23.6494C40.3339 24.5383 37.0634 25.0883 33.9799 25.6068C33.1775 25.7418 32.3877 25.8746 31.6159 26.0107C31.4857 26.0336 31.3213 26.0587 31.124 26.0889C30.7236 26.1501 30.188 26.232 29.5293 26.3582C29.3375 26.395 29.1727 26.429 29.0364 26.4592C27.9921 27.1641 26.5699 27.1425 25.5368 26.3115C25.2806 26.1054 24.9024 25.7331 24.6507 25.148C24.3741 24.5051 24.3363 23.8004 24.5186 23.1519C24.8183 22.0858 25.5911 21.5592 25.7515 21.45C25.7532 21.4488 25.7547 21.4478 25.7563 21.4467C26.2127 21.1355 26.6991 20.9829 26.8664 20.9304L26.8704 20.9291C27.3487 20.779 27.9384 20.655 28.419 20.5629C29.3125 20.3917 30.6607 20.1873 30.5912 20.1996C31.4662 20.0453 32.3245 19.9007 33.169 19.7583C36.2097 19.2459 39.0724 18.7634 41.8963 17.9691C43.4648 17.5279 45.0941 18.4418 45.5353 20.0103ZM28.6372 26.5591C28.6383 26.5588 28.6395 26.5584 28.6406 26.558C28.5883 26.5782 28.5798 26.5771 28.6372 26.5591Z" fill="#E5E2DC"/>
<path fill-rule="evenodd" clip-rule="evenodd" d="M51.7138 15.8576C53.3032 15.2701 55.2858 15.8731 56.244 17.5338C56.67 18.2722 57.0336 19.4445 56.533 20.7063C56.034 21.9642 54.9604 22.586 54.0725 22.7851C52.3521 23.171 50.3113 22.2551 49.6871 20.1758C49.6039 19.8985 49.5634 19.6185 49.5618 19.3429C49.5425 19.1749 49.5351 18.9994 49.5425 18.8166C49.6083 17.1894 50.7481 16.2145 51.7138 15.8576Z" fill="#E5E2DC"/>
<path d="M44.0586 90.7358C43.0781 90.9087 42.1771 90.7076 41.3558 90.1324C40.5344 89.5573 40.0372 88.7795 39.8643 87.7989L35.7777 64.6226C35.2726 64.7117 34.8191 64.6155 34.4171 64.3341C34.0152 64.0526 33.7697 63.6593 33.6806 63.1542C33.5915 62.6491 33.6877 62.1955 33.9692 61.7936C34.2506 61.3916 34.6439 61.1461 35.149 61.0571L42.2802 59.7996C42.1911 59.2945 42.2873 58.841 42.5688 58.439C42.8502 58.0371 43.2435 57.7916 43.7486 57.7025L50.8798 56.4451C51.3849 56.356 51.8385 56.4522 52.2404 56.7337C52.6424 57.0151 52.8879 57.4084 52.9769 57.9135L60.1081 56.6561C60.6132 56.567 61.0668 56.6632 61.4687 56.9447C61.8707 57.2261 62.1162 57.6194 62.2052 58.1245C62.2943 58.6297 62.1981 59.0832 61.9167 59.4852C61.6352 59.8871 61.2419 60.1326 60.7368 60.2217L64.8234 83.398C64.9963 84.3785 64.7952 85.2795 64.2201 86.1008C63.6449 86.9222 62.8671 87.4194 61.8865 87.5923L44.0586 90.7358ZM39.3433 63.9939L43.4299 87.1702L61.2578 84.0267L57.1712 60.8504L39.3433 63.9939ZM50.7407 76.5062L54.7252 79.2962C55.1394 79.5602 55.5917 79.649 56.0819 79.5625C56.5722 79.4761 56.9519 79.2406 57.2212 78.8561C57.5148 78.4367 57.6185 77.9819 57.532 77.4916C57.4456 77.0013 57.1952 76.6242 56.7811 76.3602L52.7965 73.5702L55.5865 69.5856C55.8802 69.1662 55.9838 68.7114 55.8974 68.2211C55.8109 67.7308 55.5606 67.3537 55.1464 67.0897C54.7567 66.7908 54.3167 66.6846 53.8264 66.771C53.3362 66.8575 52.9442 67.1104 52.6505 67.5298L49.8605 71.5144L45.8759 68.7244C45.4862 68.4254 45.0462 68.3192 44.5559 68.4056C44.0657 68.4921 43.6737 68.745 43.38 69.1645C43.1108 69.5489 43.0194 69.9863 43.1058 70.4766C43.1923 70.9668 43.4304 71.3614 43.8201 71.6604L47.8047 74.4504L45.0146 78.435C44.7454 78.8195 44.654 79.2568 44.7405 79.7471C44.8269 80.2374 45.065 80.632 45.4547 80.9309C45.8689 81.1949 46.3212 81.2836 46.8114 81.1972C47.3017 81.1107 47.6814 80.8753 47.9506 80.4908L50.7407 76.5062Z" fill="white"/>
</svg>
