<svg width="99" height="136" viewBox="0 0 99 136" fill="none" xmlns="http://www.w3.org/2000/svg">
<path d="M81.7102 109.25C80.1991 112.484 39.8447 119.375 32.615 118.54C28.4183 118.055 16.9357 42.1586 19.0402 39.9129C22.1985 36.5428 63.491 26.744 67.6624 29.5812C71.5218 32.2062 83.9664 104.422 81.7102 109.25Z" fill="#E5E2DC"/>
<path fill-rule="evenodd" clip-rule="evenodd" d="M3.71505 17.5189C5.31973 17.236 6.84996 18.3075 7.13291 19.9121L24.2958 117.248C24.5787 118.852 23.5072 120.382 21.9026 120.665C20.2979 120.948 18.7677 119.877 18.4847 118.272L1.32183 20.9368C1.03888 19.3321 2.11036 17.8019 3.71505 17.5189Z" fill="#D2CEC6"/>
<path fill-rule="evenodd" clip-rule="evenodd" d="M20.5191 112.823C22.1238 112.54 23.654 113.612 23.937 115.217C24.3834 117.748 24.9061 120.188 25.5688 122.639C26.0138 124.285 26.4145 125.393 27.152 126.341C27.3509 126.597 27.8238 126.938 28.8269 127.189C29.8008 127.433 30.9558 127.511 32.0884 127.508C34.8007 127.499 37.4707 127.025 40.4076 126.505C41.0772 126.386 41.7605 126.265 42.4615 126.146C44.5736 125.788 46.6625 125.446 48.7423 125.106C51.8545 124.596 54.9462 124.09 58.0641 123.54C59.69 123.253 61.3132 122.977 62.9311 122.701C71.3272 121.27 79.581 119.864 87.3262 117.19C88.8665 116.658 90.5462 117.476 91.078 119.016C91.6098 120.556 90.7923 122.236 89.2521 122.768C81.0061 125.615 72.1916 127.113 63.8005 128.54C62.2125 128.81 60.6397 129.077 59.0888 129.351C55.9532 129.904 52.7801 130.424 49.6278 130.94C47.5528 131.28 45.4869 131.619 43.4465 131.964C42.8546 132.064 42.2452 132.173 41.6213 132.284C38.6634 132.812 35.3809 133.398 32.1076 133.408C30.7657 133.413 29.0539 133.329 27.3942 132.914C25.7637 132.506 23.8363 131.69 22.4937 129.963C20.9901 128.03 20.3493 125.942 19.8726 124.179C19.1558 121.527 18.5969 118.912 18.1259 116.241C17.843 114.637 18.9144 113.106 20.5191 112.823Z" fill="#D2CEC6"/>
<path fill-rule="evenodd" clip-rule="evenodd" d="M94.207 116.152C92.6023 116.435 91.0721 115.364 90.7892 113.759L74.6253 22.0893C74.3424 20.4846 75.4138 18.9544 77.0185 18.6715C78.6232 18.3885 80.1534 19.46 80.4364 21.0647L96.6002 112.734C96.8832 114.339 95.8117 115.869 94.207 116.152Z" fill="#D2CEC6"/>
<path fill-rule="evenodd" clip-rule="evenodd" d="M78.0423 24.4845C76.4377 24.7674 74.9074 23.696 74.6245 22.0913C74.1407 19.3478 73.5874 16.6971 72.9021 14.0278C72.4402 12.2284 72.0149 10.9353 71.2487 9.81525C71.0037 9.45709 70.5425 9.10615 69.6947 8.83868C68.8411 8.56934 67.8209 8.45864 66.7984 8.43343C64.3469 8.37298 61.9538 8.79727 59.2473 9.27714C58.6237 9.38769 57.9836 9.5012 57.3222 9.6124C55.3627 9.94188 53.4303 10.2543 51.5086 10.5651C48.6386 11.0292 45.7924 11.4894 42.9154 11.9967C41.4049 12.263 39.8997 12.518 38.4019 12.7718C30.6475 14.0855 23.0916 15.3657 16.0326 18.009C14.5066 18.5804 12.8064 17.8066 12.235 16.2806C11.6635 14.7547 12.4374 13.0544 13.9633 12.483C21.6 9.62337 29.8086 8.23689 37.5578 6.92802C39.0208 6.68092 40.4674 6.43657 41.8907 6.1856C44.7883 5.67467 47.7295 5.19887 50.6463 4.72701C52.5624 4.41704 54.468 4.10878 56.3438 3.79337C56.8783 3.70349 57.4326 3.60432 58.0031 3.50223C60.7345 3.01352 63.8396 2.45796 66.9439 2.53451C68.2177 2.56592 69.8623 2.7041 71.4702 3.21142C73.0841 3.7206 74.881 4.67411 76.1189 6.48368C77.5087 8.51528 78.1341 10.6777 78.6175 12.5606C79.347 15.4024 79.9308 18.2038 80.4356 21.0666C80.7185 22.6713 79.647 24.2015 78.0423 24.4845Z" fill="#D2CEC6"/>
<path fill-rule="evenodd" clip-rule="evenodd" d="M45.5497 20.0103C45.9909 21.5789 45.077 23.2082 43.5084 23.6494C40.3483 24.5383 37.0778 25.0883 33.9943 25.6068C33.1919 25.7418 32.4021 25.8746 31.6303 26.0107C31.5001 26.0336 31.3357 26.0587 31.1384 26.0889C30.738 26.1501 30.2024 26.232 29.5437 26.3582C29.3519 26.395 29.1871 26.429 29.0508 26.4592C28.0065 27.1641 26.5843 27.1425 25.5512 26.3115C25.295 26.1054 24.9168 25.7331 24.6651 25.148C24.3885 24.5051 24.3507 23.8004 24.533 23.1519C24.8327 22.0858 25.6056 21.5592 25.7659 21.45C25.7676 21.4488 25.7691 21.4478 25.7707 21.4467C26.2271 21.1355 26.7135 20.9829 26.8808 20.9304L26.8848 20.9291C27.3631 20.779 27.9528 20.655 28.4334 20.5629C29.327 20.3917 30.6751 20.1873 30.6056 20.1996C31.4806 20.0453 32.3389 19.9007 33.1834 19.7583C36.2242 19.2459 39.0868 18.7634 41.9107 17.9691C43.4792 17.5279 45.1085 18.4418 45.5497 20.0103ZM28.6516 26.5591C28.6527 26.5588 28.6539 26.5584 28.655 26.558C28.6027 26.5782 28.5942 26.5771 28.6516 26.5591Z" fill="#E5E2DC"/>
<path fill-rule="evenodd" clip-rule="evenodd" d="M51.7281 15.8576C53.3175 15.2701 55.3001 15.8731 56.2583 17.5338C56.6843 18.2722 57.0479 19.4445 56.5474 20.7063C56.0483 21.9642 54.9747 22.586 54.0869 22.7851C52.3664 23.171 50.3257 22.2551 49.7015 20.1758C49.6182 19.8985 49.5777 19.6185 49.5762 19.3429C49.5568 19.1749 49.5495 18.9994 49.5569 18.8166C49.6226 17.1894 50.7625 16.2145 51.7281 15.8576Z" fill="#E5E2DC"/>
<path d="M44.073 90.7356C43.0924 90.9084 42.1915 90.7073 41.3701 90.1322C40.5487 89.5571 40.0516 88.7792 39.8787 87.7987L35.7921 64.6224C35.287 64.7115 34.8334 64.6153 34.4315 64.3338C34.0295 64.0524 33.784 63.6591 33.6949 63.154C33.6059 62.6488 33.7021 62.1953 33.9835 61.7933C34.265 61.3914 34.6582 61.1459 35.1634 61.0568L42.2945 59.7994C42.2055 59.2943 42.3017 58.8407 42.5831 58.4388C42.8646 58.0368 43.2578 57.7913 43.763 57.7023L50.8941 56.4448C51.3993 56.3558 51.8528 56.452 52.2548 56.7334C52.6567 57.0149 52.9022 57.4081 52.9913 57.9133L60.1224 56.6559C60.6276 56.5668 61.0811 56.663 61.4831 56.9444C61.885 57.2259 62.1305 57.6192 62.2196 58.1243C62.3087 58.6294 62.2125 59.083 61.931 59.4849C61.6496 59.8869 61.2563 60.1324 60.7512 60.2214L64.8378 83.3977C65.0107 84.3783 64.8095 85.2792 64.2344 86.1006C63.6593 86.922 62.8814 87.4191 61.9009 87.592L44.073 90.7356ZM39.3577 63.9937L43.4443 87.17L61.2722 84.0264L57.1856 60.8501L39.3577 63.9937ZM50.755 76.506L54.7396 79.296C55.1538 79.56 55.606 79.6487 56.0963 79.5623C56.5865 79.4758 56.9663 79.2404 57.2355 78.8559C57.5292 78.4365 57.6328 77.9816 57.5464 77.4914C57.4599 77.0011 57.2096 76.624 56.7954 76.36L52.8108 73.57L55.6009 69.5854C55.8945 69.166 55.9982 68.7111 55.9117 68.2208C55.8253 67.7306 55.575 67.3535 55.1608 67.0895C54.771 66.7906 54.3311 66.6843 53.8408 66.7708C53.3505 66.8572 52.9585 67.1101 52.6649 67.5296L49.8748 71.5142L45.8902 68.7241C45.5005 68.4252 45.0605 68.319 44.5703 68.4054C44.08 68.4919 43.688 68.7448 43.3943 69.1642C43.1251 69.5487 43.0337 69.9861 43.1202 70.4763C43.2066 70.9666 43.4447 71.3612 43.8344 71.6601L47.819 74.4502L45.029 78.4347C44.7598 78.8192 44.6684 79.2566 44.7548 79.7468C44.8413 80.2371 45.0794 80.6317 45.4691 80.9306C45.8833 81.1946 46.3355 81.2834 46.8258 81.1969C47.316 81.1105 47.6958 80.875 47.965 80.4905L50.755 76.506Z" fill="white"/>
</svg>
