<svg width="472" height="231" viewBox="0 0 472 231" fill="none" xmlns="http://www.w3.org/2000/svg">
<mask id="mask0_3634_16943" style="mask-type:alpha" maskUnits="userSpaceOnUse" x="0" y="0" width="209" height="231">
<rect width="208.659" height="230.244" fill="#FF9661"/>
</mask>
<g mask="url(#mask0_3634_16943)">
<path d="M-145.158 279.844L-65.1658 246.966C-64.9211 247.409 -64.6709 247.867 -64.4019 248.332C-70.8954 264.443 -71.84 280.39 -66.0083 294.578C-48.1245 338.088 26.5143 348.623 100.716 318.124C174.918 287.625 220.574 227.645 202.69 184.136C186.371 144.433 122.763 132.195 55.3718 153.562L54.7351 154.057L54.5326 153.829C54.8097 153.746 55.0947 153.645 55.3718 153.562L-17.9684 -24.8691C-22.0441 -34.7849 -36.0635 -34.8258 -40.1947 -24.9285L-160.83 264.085C-164.967 273.969 -155.073 283.92 -145.158 279.844Z" fill="#FFD5BF"/>
</g>
<mask id="mask1_3634_16943" style="mask-type:alpha" maskUnits="userSpaceOnUse" x="309" y="0" width="163" height="231">
<rect width="162.61" height="230.244" transform="matrix(-1 0 0 1 472 0)" fill="#FF9661"/>
</mask>
<g mask="url(#mask1_3634_16943)">
<path d="M607.796 -125.652L422.09 -35.904C408.097 -29.1414 402.239 -12.3255 409.001 1.66749L448.262 82.9048L328.764 140.656C314.771 147.418 308.913 164.234 315.675 178.227L405.423 363.933C412.185 377.926 429.001 383.784 442.994 377.021L628.7 287.274C642.693 280.511 648.551 263.695 641.789 249.702L602.528 168.465L722.026 110.714C736.019 103.951 741.877 87.1356 735.115 73.1426L645.367 -112.563C638.604 -126.556 621.789 -132.414 607.796 -125.652Z" fill="#FFD5BF"/>
</g>
</svg>
