<svg width="232" height="209" viewBox="0 0 232 209" fill="none" xmlns="http://www.w3.org/2000/svg">
<path d="M145.372 207.974L200.785 179.017C204.961 176.835 206.579 171.678 204.401 167.495L191.758 143.209L227.415 124.576C231.591 122.394 233.209 117.237 231.031 113.054L202.129 57.5373C199.951 53.354 194.804 51.7326 190.628 53.9144L135.215 82.8709C131.039 85.0528 129.421 90.2097 131.599 94.3929L144.242 118.679L108.585 137.312C104.409 139.494 102.791 144.651 104.969 148.834L133.871 204.351C136.049 208.534 141.196 210.156 145.372 207.974Z" fill="#FFF1E6"/>
<path d="M149.176 95.8963L117.236 85.3744C112.496 83.8106 112.496 77.0106 117.236 75.4468L149.176 64.9249C151.312 64.2244 152.485 61.8964 151.787 59.7311L149.302 51.9759C148.611 49.8106 146.315 48.6219 144.179 49.3295L112.238 59.8514C107.499 61.4152 103.555 55.9101 106.487 51.8202L126.226 24.2735C127.545 22.4338 127.141 19.851 125.326 18.5137L118.813 13.7162C116.999 12.3788 114.451 12.7892 113.132 14.629L93.3921 42.1757C90.5023 46.209 84.2762 44.2136 84.0947 39.3241V5.06937C84.0947 2.79092 82.2729 0.944092 80.0253 0.944092H71.9634C69.7158 0.944092 67.894 2.79092 67.894 5.06937V39.3241C67.7125 44.2206 61.4863 46.209 58.5966 42.1757L38.8571 14.6361C37.5379 12.7963 34.9971 12.3859 33.1753 13.7233L26.663 18.5208C24.8482 19.8581 24.4433 22.4338 25.7625 24.2806L45.5021 51.8273C48.4337 55.9172 44.49 61.4223 39.7505 59.8585L7.8099 49.3365C5.67402 48.636 3.37758 49.8177 2.68656 51.983L0.20167 59.7382C-0.489353 61.9034 0.676312 64.2314 2.8122 64.9319L34.7528 75.4539C39.4923 77.0177 39.4923 83.8177 34.7528 85.3815L2.8122 95.9034C0.676312 96.6039 -0.496333 98.9319 0.20167 101.097L2.68656 108.859C3.37758 111.025 5.67402 112.213 7.8099 111.506L39.7505 100.984C44.49 99.4202 48.4337 104.925 45.5091 109.015L25.7695 136.562C24.4503 138.402 24.8551 140.984 26.67 142.322L33.1823 147.119C34.9971 148.457 37.5448 148.046 38.8641 146.206L58.6036 118.66C61.4933 114.626 67.7195 116.622 67.901 121.518V155.773C67.901 158.052 69.7228 159.898 71.9704 159.898H80.0323C82.2799 159.898 84.1017 158.052 84.1017 155.773V121.518C84.2831 116.622 90.5093 114.633 93.399 118.66L113.139 146.206C114.458 148.046 116.999 148.457 118.82 147.119L125.333 142.322C127.148 140.984 127.552 138.402 126.233 136.562L106.494 109.015C103.562 104.925 107.506 99.4202 112.252 100.984L144.193 111.506C146.329 112.206 148.625 111.025 149.316 108.859L151.801 101.097C152.492 98.9319 151.326 96.6039 149.19 95.9034L149.176 95.8963Z" fill="#E5FBED"/>
</svg>
