<svg width="235" height="240" viewBox="0 0 235 240" fill="none" xmlns="http://www.w3.org/2000/svg">
<path fill-rule="evenodd" clip-rule="evenodd" d="M167.302 54.4994C168.006 56.4977 166.946 58.6847 164.935 59.3842C158.885 61.4888 152.522 63.3937 146.258 65.2688C141.707 66.6313 137.208 67.978 132.92 69.3743C115.56 75.0269 98.3958 81.3427 81.2355 87.7877C76.7431 89.4749 72.2067 91.2641 67.631 93.0687C57.2349 97.1689 46.6359 101.349 35.8884 104.596C35.6013 104.683 35.3119 104.735 35.0247 104.754C36.1201 105.295 36.9396 106.342 37.1299 107.636C37.9172 112.988 36.0007 118.508 31.0354 121.737C30.7909 121.896 30.5357 122.107 30.063 122.513C30.0439 122.529 30.0242 122.546 30.0041 122.563C29.7566 122.776 29.4352 123.053 29.0638 123.339C29.0314 123.468 29.0019 123.608 28.9776 123.744C28.9421 123.944 28.9286 124.077 28.9262 124.111C28.918 124.226 28.9126 124.348 28.9121 124.469L28.912 124.477C28.9879 124.534 29.0827 124.604 29.2056 124.695C29.23 124.713 29.2571 124.733 29.2866 124.754C29.8052 125.133 31.0682 126.056 31.7954 127.562C32.8954 129.839 32.3568 131.935 31.9191 133.152C31.7588 133.597 31.5505 134.081 31.409 134.41C31.3724 134.495 31.3403 134.57 31.3146 134.631C31.1477 135.027 31.0953 135.193 31.0776 135.271C30.9955 135.631 30.9427 136.007 30.9203 136.387C30.9592 136.408 31.0002 136.43 31.0439 136.454L31.058 136.461C32.0439 136.992 33.7464 137.921 34.7321 139.631C35.8919 141.643 35.583 143.731 35.073 145.353C34.8444 146.08 34.8317 146.223 34.8281 146.269C34.8258 146.297 34.8132 146.45 34.9349 147.135C35.0126 147.573 35.0604 148.038 35.0937 148.362L35.0979 148.403C35.1371 148.783 35.1658 149.057 35.2053 149.307C35.2172 149.382 35.2286 149.445 35.2393 149.498C36.9485 151.342 38.843 153.464 39.7576 156.968C40.634 160.327 41.6437 163.604 42.9741 166.593C43.2112 167.126 43.5238 167.582 43.6704 167.729C44.7831 168.847 45.3087 170.118 45.6066 171.034C45.7041 171.334 45.7871 171.629 45.8562 171.887C46.4577 171.895 47.4143 171.93 48.4135 172.202C50.3218 172.721 53.4018 173.661 55.6231 175.657C57.2033 177.077 57.3258 179.502 55.8967 181.072C54.4677 182.642 52.0281 182.764 50.4479 181.344C49.7267 180.696 48.3022 180.121 46.3754 179.596C46.3187 179.581 46.1869 179.558 45.5165 179.551C45.4818 179.55 45.4444 179.55 45.4045 179.55C44.8541 179.545 43.8344 179.537 42.7838 179.273C41.3861 178.921 40.473 178.021 40.0217 177.491C39.5181 176.9 39.0684 176.153 38.8103 175.344C38.6798 174.935 38.5733 174.524 38.4953 174.222L38.4804 174.165C38.3911 173.82 38.3306 173.593 38.2652 173.392C38.2059 173.21 38.1627 173.117 38.1433 173.079C37.1204 172.035 36.3617 170.691 35.918 169.695C34.3438 166.158 33.2113 162.427 32.2892 158.893C31.8615 157.254 31.1005 156.348 29.2924 154.4C28.0274 153.037 27.7108 151.304 27.5831 150.495C27.5094 150.028 27.4619 149.567 27.4275 149.232L27.4226 149.184C27.382 148.791 27.3597 148.597 27.3366 148.467C27.1801 147.585 27.0572 146.678 27.1358 145.674C27.2038 144.806 27.4114 144.032 27.625 143.335C27.5514 143.294 27.4714 143.25 27.3843 143.203L27.3703 143.196C27.3331 143.176 27.292 143.154 27.2476 143.13C26.7138 142.846 25.6843 142.299 24.8791 141.465C23.7485 140.293 23.2583 138.864 23.2024 137.345C23.1565 136.097 23.2698 134.819 23.5524 133.578C23.7274 132.81 24.0052 132.127 24.1981 131.669C24.2726 131.492 24.3347 131.348 24.3882 131.223C24.4567 131.064 24.5113 130.937 24.5599 130.816C24.5508 130.81 24.5415 130.803 24.532 130.796C24.2883 130.617 23.8879 130.322 23.5131 129.991C23.075 129.604 22.5318 129.05 22.0854 128.291C21.4686 127.243 21.3022 126.136 21.2411 125.483C21.1723 124.748 21.1952 124.059 21.2298 123.571C21.2766 122.913 21.43 121.97 21.6866 121.078C21.8162 120.628 22.0058 120.071 22.2841 119.524C22.5139 119.072 23.0393 118.143 24.0599 117.479C24.2928 117.327 24.5398 117.123 25.0181 116.712C25.0344 116.698 25.0509 116.684 25.0678 116.669C25.481 116.314 26.0952 115.786 26.8108 115.321C28.9018 113.961 29.9143 111.592 29.4955 108.744C29.1874 106.65 30.6466 104.703 32.7548 104.397C32.8556 104.382 32.9561 104.372 33.056 104.365C32.1354 103.912 31.3977 103.097 31.0753 102.044C30.4555 100.018 31.6056 97.8767 33.644 97.2608C44.0788 94.1081 54.1817 90.1225 64.4297 86.0797C69.0777 84.246 73.7556 82.4006 78.5078 80.6157C95.687 74.1636 112.985 67.7971 130.518 62.0884C135.259 60.5444 139.854 59.1729 144.395 57.8171C150.411 56.0211 156.335 54.2528 162.386 52.1477C164.397 51.4482 166.598 52.5011 167.302 54.4994ZM171.299 52.0943C173.383 51.6562 175.43 52.9803 175.871 55.0517C176.291 57.0258 177.257 58.9651 178.543 60.3106C179.783 61.608 181.169 62.2275 182.694 62.1474C182.694 62.1474 182.726 62.1443 182.787 62.1343C182.878 62.1194 182.977 62.0997 183.162 62.0627L183.21 62.0531C183.523 61.9903 184.122 61.8699 184.778 61.8425C185.521 61.8115 186.417 61.8726 187.299 62.0657C188.085 62.2378 189.39 62.6254 190.464 63.6106C191.764 64.8021 192.064 66.4223 192.159 66.9406C192.229 67.3267 192.271 67.6887 192.298 67.9473C192.312 68.0839 192.322 68.1783 192.329 68.2501C192.339 68.35 192.344 68.4063 192.353 68.4717C192.536 69.8588 192.16 71.07 191.989 71.6137C191.943 71.7592 191.895 71.9024 191.858 72.0157L191.849 72.0441C191.806 72.1721 191.776 72.2652 191.749 72.3504C191.712 72.4717 191.699 72.526 191.697 72.5355C191.67 72.7152 191.653 72.8965 191.647 73.068C191.644 73.1656 191.645 73.2521 191.648 73.3272C191.73 73.3708 191.827 73.4207 191.95 73.4835L192.023 73.5206C192.19 73.6054 192.41 73.7174 192.625 73.8337C193.594 74.3586 195.568 75.5376 196.215 78.1241C196.617 79.7359 196.401 81.0915 196.084 82.147C196.012 82.3836 195.933 82.6138 195.858 82.8199C196.523 83.3282 196.974 83.9255 197.264 84.3894C197.685 85.0644 197.968 85.7799 198.153 86.4238C198.475 87.5435 198.725 89.2514 198.211 90.8167C198.127 91.0743 198.078 91.7131 198.423 92.8336C198.75 93.8936 199.312 95.0011 199.885 95.918C200.115 96.2869 200.342 96.6105 200.626 97.0171C200.735 97.1721 200.852 97.3392 200.981 97.5254C201.408 98.1414 201.917 98.905 202.367 99.7987C202.793 100.646 203.18 101.637 203.472 102.384C203.571 102.637 203.659 102.862 203.734 103.044C204.05 103.812 204.39 104.537 204.774 105.355C204.895 105.612 205.02 105.879 205.15 106.159C205.666 107.27 206.227 108.529 206.677 109.901C206.891 110.554 207.162 111.306 207.455 112.118C208.068 113.817 208.775 115.777 209.25 117.636C209.482 118.024 209.649 118.459 209.732 118.929C209.763 119.103 209.795 119.3 209.816 119.495C209.826 119.59 209.84 119.733 209.844 119.9L209.844 119.904C209.847 120.01 209.857 120.401 209.752 120.875C209.704 121.091 209.561 121.672 209.125 122.282C208.604 123.01 207.541 123.9 205.971 123.899C205.908 123.899 205.845 123.897 205.784 123.895C205.687 123.918 205.588 123.938 205.487 123.955C203.629 124.259 201.681 126.301 200.53 129.506C200.414 129.829 200.341 130.196 200.329 130.509C200.322 130.711 200.343 130.815 200.348 130.841C201.247 132.736 200.447 135.002 198.546 135.921C196.63 136.847 194.321 136.055 193.389 134.151C192.133 131.586 192.633 128.687 193.264 126.929C194.438 123.66 196.924 119.371 201.131 117.362C200.908 116.699 200.665 116.029 200.407 115.32C200.071 114.395 199.711 113.405 199.341 112.278C199.037 111.35 198.633 110.425 198.144 109.37C198.044 109.156 197.939 108.932 197.83 108.701C197.432 107.853 196.986 106.901 196.592 105.945C196.404 105.488 196.258 105.113 196.13 104.783C195.898 104.189 195.724 103.741 195.465 103.227C195.262 102.822 194.999 102.412 194.625 101.871C194.552 101.766 194.47 101.649 194.382 101.524C194.068 101.077 193.676 100.518 193.327 99.9584C192.531 98.6817 191.626 96.9617 191.046 95.0787C190.523 93.3816 190.144 91.1667 190.73 88.9335C189.9 88.6031 188.306 87.7462 187.783 85.6879C187.362 84.0274 187.842 82.4335 187.997 81.9155C188.002 81.9005 188.006 81.8864 188.01 81.8732C188.159 81.3745 188.33 80.9297 188.447 80.622L188.451 80.6128C188.487 80.5177 188.519 80.4362 188.545 80.3649C188.537 80.3607 188.529 80.3564 188.52 80.352L188.431 80.3069C188.232 80.2052 187.967 80.0696 187.694 79.915C187.16 79.6117 186.397 79.1286 185.714 78.3704C184.563 77.0916 184.154 75.586 184.009 74.4653C183.861 73.3183 183.943 72.2264 184.067 71.396C184.145 70.874 184.276 70.4144 184.375 70.0958C184.426 69.9318 184.478 69.7741 184.519 69.6502L184.524 69.6344C184.527 69.6261 184.53 69.6178 184.532 69.6097C184.212 69.6735 183.68 69.773 183.11 69.8033C178.866 70.0293 175.396 68.1506 172.949 65.5905C170.547 63.0775 168.995 59.7981 168.323 56.6381C167.882 54.5667 169.214 52.5324 171.299 52.0943ZM194.804 139.8C195.404 141.832 194.232 143.962 192.188 144.557C174.788 149.626 157.419 154.696 140.166 160.086C120.762 166.149 101.694 173.038 82.8429 180.673C80.6077 181.578 78.2966 182.575 75.9357 183.593C71.1062 185.676 66.0687 187.849 61.0474 189.511C59.0261 190.18 56.8415 189.095 56.1681 187.086C55.4946 185.077 56.5873 182.907 58.6086 182.237C63.3245 180.676 67.7928 178.746 72.4203 176.747C74.8598 175.693 77.3435 174.621 79.931 173.573C98.9638 165.864 118.232 158.903 137.852 152.772C155.187 147.356 172.626 142.267 190.017 137.2C192.062 136.604 194.205 137.768 194.804 139.8Z" fill="#FFEDA5"/>
<g style="mix-blend-mode:multiply">
<path fill-rule="evenodd" clip-rule="evenodd" d="M68.6679 87.0462C70.8172 86.4814 73.0439 87.671 73.6413 89.7032C74.6566 93.1573 76.1125 96.258 77.7336 99.7106C78.1962 100.696 78.6724 101.71 79.1556 102.769C80.0392 104.706 79.0949 106.954 77.0465 107.789C74.9982 108.624 72.6213 107.732 71.7377 105.795C71.3333 104.908 70.9093 104.007 70.4777 103.089C68.8183 99.5616 67.0482 95.7986 65.8578 91.7487C65.2604 89.7164 66.5185 87.6111 68.6679 87.0462Z" fill="#F9CDF1"/>
</g>
<g style="mix-blend-mode:multiply">
<path fill-rule="evenodd" clip-rule="evenodd" d="M79.2306 113.492C81.2309 113.026 83.2032 114.395 83.6359 116.55C84.0961 118.843 84.8357 120.893 85.6956 123.277C86.0088 124.145 86.338 125.058 86.6755 126.043C87.3843 128.111 86.4026 130.407 84.4827 131.17C82.5629 131.934 80.4319 130.876 79.723 128.808C79.4853 128.114 79.2208 127.383 78.945 126.619C78.0288 124.085 76.9879 121.205 76.3922 118.238C75.9595 116.083 77.2303 113.959 79.2306 113.492Z" fill="#F9CDF1"/>
</g>
<g style="mix-blend-mode:multiply">
<path fill-rule="evenodd" clip-rule="evenodd" d="M87.7091 135.749C89.7094 135.283 91.6817 136.652 92.1144 138.807C92.5746 141.099 93.3142 143.149 94.1741 145.533C94.4873 146.402 94.8166 147.314 95.154 148.299C95.8629 150.367 94.8811 152.663 92.9613 153.427C91.0414 154.19 88.9104 153.133 88.2015 151.064C87.9639 150.371 87.6993 149.639 87.4235 148.876C86.5073 146.341 85.4664 143.462 84.8707 140.495C84.438 138.34 85.7088 136.215 87.7091 135.749Z" fill="#F9CDF1"/>
</g>
<g style="mix-blend-mode:multiply">
<path fill-rule="evenodd" clip-rule="evenodd" d="M94.4292 155.867C96.6374 155.463 98.7825 156.786 99.2204 158.822C99.7147 161.12 100.567 163.088 101.607 165.487C101.901 166.165 102.209 166.877 102.529 167.641C103.339 169.577 102.293 171.752 100.193 172.499C98.0923 173.246 95.7328 172.282 94.9227 170.345C94.6859 169.779 94.4318 169.196 94.1702 168.595C93.0893 166.111 91.8794 163.332 91.2236 160.283C90.7858 158.248 92.2209 156.271 94.4292 155.867Z" fill="#F9CDF1"/>
</g>
<rect x="55.8555" y="5.61597" width="9.27181" height="53.5704" rx="4.6359" transform="rotate(-30 55.8555 5.61597)" fill="#6DDFA6"/>
<rect x="82.6624" y="12.5728" width="9.27181" height="35.5857" rx="4.6359" transform="rotate(-18.6424 82.6624 12.5728)" fill="#FFCE00"/>
<rect x="51.176" y="39.9441" width="9.27181" height="30.548" rx="4.6359" transform="rotate(-45 51.176 39.9441)" fill="#FFF1E6"/>
<rect x="52.7651" y="62.1455" width="9.27181" height="15.7676" rx="4.6359" transform="rotate(-55 52.7651 62.1455)" fill="#FFE7FB"/>
<rect x="121.749" y="30.8557" width="9.27181" height="15.7676" rx="4.6359" transform="rotate(15 121.749 30.8557)" fill="#FFA86D"/>
<rect x="107.153" y="20.8135" width="9.27181" height="24.3541" rx="4.6359" transform="rotate(2.39165 107.153 20.8135)" fill="#FFE7FB"/>
<g style="mix-blend-mode:multiply">
<rect x="50.7046" y="6.646" width="9.27181" height="24.3541" rx="4.6359" transform="rotate(-30 50.7046 6.646)" fill="#FFEDA5"/>
</g>
<rect x="177.939" y="235.364" width="9.27181" height="53.5704" rx="4.6359" transform="rotate(150 177.939 235.364)" fill="#6DDFA6"/>
<rect x="151.133" y="228.407" width="9.27181" height="35.5857" rx="4.6359" transform="rotate(161.358 151.133 228.407)" fill="#FFCE00"/>
<rect x="182.619" y="201.036" width="9.27181" height="30.548" rx="4.6359" transform="rotate(135 182.619 201.036)" fill="#FFF1E6"/>
<rect x="181.03" y="178.834" width="9.27181" height="15.7676" rx="4.6359" transform="rotate(125 181.03 178.834)" fill="#FFE7FB"/>
<rect x="112.046" y="210.124" width="9.27181" height="15.7676" rx="4.6359" transform="rotate(-165 112.046 210.124)" fill="#FFA86D"/>
<rect x="126.643" y="220.166" width="9.27181" height="24.3541" rx="4.6359" transform="rotate(-177.608 126.643 220.166)" fill="#FFE7FB"/>
<g style="mix-blend-mode:multiply">
<rect x="183.09" y="234.334" width="9.27181" height="24.3541" rx="4.6359" transform="rotate(150 183.09 234.334)" fill="#FFEDA5"/>
</g>
<path fill-rule="evenodd" clip-rule="evenodd" d="M137.509 94.6777C136.211 92.8904 133.709 92.494 131.922 93.7923C130.135 95.0907 129.738 97.5922 131.037 99.3795C131.991 100.694 133.193 102.89 134.416 105.573C130.645 107.056 127.127 108.737 124.854 110.291C123.03 111.537 122.563 114.027 123.81 115.85C125.057 117.674 127.546 118.141 129.369 116.895C130.95 115.814 133.858 114.388 137.366 113.01C138.46 116.208 139.3 119.321 139.677 121.815C140.007 123.999 142.045 125.503 144.23 125.172C146.414 124.842 147.917 122.804 147.587 120.619C147.121 117.54 146.144 113.957 144.944 110.444C147.316 109.771 149.569 109.264 151.466 109.009C153.655 108.715 155.192 106.701 154.897 104.512C154.603 102.322 152.59 100.786 150.4 101.08C147.845 101.424 144.937 102.104 142.014 102.964C140.556 99.6809 138.974 96.6944 137.509 94.6777Z" fill="#6DDFA6"/>
<path fill-rule="evenodd" clip-rule="evenodd" d="M169.401 115.201C167.46 114.965 166.078 113.2 166.314 111.259C166.644 108.537 166.208 102.986 163.455 97.4644C160.767 92.0713 155.895 86.7418 147.277 84.0574C130.336 78.7808 117.048 90.2283 113.96 102.77C112.447 108.917 113.404 116.186 116.249 122.338C119.114 128.534 123.587 132.985 128.548 134.351C134.081 135.874 140.104 135.458 145.52 133.806C150.97 132.143 155.473 129.329 158.047 126.439C159.348 124.979 161.586 124.85 163.046 126.15C164.506 127.451 164.635 129.689 163.334 131.149C159.705 135.222 153.973 138.629 147.586 140.578C141.164 142.538 133.748 143.126 126.669 141.178C119.018 139.072 113.214 132.646 109.822 125.31C106.41 117.931 105.13 109.016 107.085 101.077C110.933 85.4486 127.738 70.5554 149.383 77.2971C160.057 80.6218 166.348 87.3964 169.792 94.3054C173.172 101.086 173.838 108.035 173.342 112.113C173.107 114.054 171.342 115.437 169.401 115.201Z" fill="#E5FBED"/>
<path d="M17.9895 68.7557L16.2446 67.0347C15.8825 66.6776 15.6997 66.2429 15.6961 65.7306C15.6926 65.2184 15.8694 64.7812 16.2266 64.4191L17.9475 62.6742L17.9464 60.1402C17.9555 59.8894 18.0057 59.652 18.0968 59.428C18.1878 59.2039 18.3146 59.0096 18.4769 58.8449C18.6393 58.6803 18.8318 58.5509 19.0546 58.4568C19.2774 58.3626 19.5141 58.3092 19.7647 58.2965L22.2985 58.2627L24.0194 56.5179C24.3766 56.1557 24.8113 55.9729 25.3235 55.9693C25.8358 55.9658 26.273 56.1426 26.6351 56.4998L28.3799 58.2207L30.914 58.2196C31.1647 58.2287 31.4021 58.2789 31.6262 58.37C31.8503 58.4611 32.0446 58.5878 32.2092 58.7501C32.3738 58.9125 32.5032 59.105 32.5974 59.3278C32.6916 59.5506 32.745 59.7873 32.7576 60.0379L32.7915 62.5717L34.5363 64.2926C34.8984 64.6498 35.0813 65.0845 35.0848 65.5967C35.0884 66.109 34.9115 66.5462 34.5544 66.9083L32.8334 68.6532L32.8346 71.1872C32.8254 71.4379 32.7753 71.6753 32.6842 71.8994C32.5931 72.1235 32.4664 72.3178 32.304 72.4824C32.1417 72.647 31.9491 72.7764 31.7263 72.8706C31.5035 72.9648 31.2669 73.0182 31.0163 73.0308L28.4824 73.0647L26.7615 74.8095C26.4044 75.1716 25.9696 75.3545 25.4574 75.358C24.9452 75.3616 24.508 75.1847 24.1459 74.8276L22.401 73.1067L19.867 73.1078C19.6162 73.0986 19.3788 73.0485 19.1547 72.9574C18.9307 72.8663 18.7364 72.7396 18.5717 72.5772C18.4071 72.4149 18.2777 72.2223 18.1836 71.9995C18.0894 71.7768 18.036 71.5401 18.0233 71.2895L17.9895 68.7557ZM19.848 67.9908L19.8705 71.2604L23.1401 71.2378L25.4447 73.5107L27.7176 71.2062L30.9872 71.1836L30.9646 67.914L33.2375 65.6095L30.933 63.3366L30.9104 60.067L27.6408 60.0896L25.3363 57.8167L23.0634 60.1212L19.7938 60.1438L19.8164 63.4133L17.5435 65.7179L19.848 67.9908Z" fill="#6DDFA6"/>
<path d="M20.6793 213.05H17.3358C16.6419 213.05 16.0479 212.803 15.5537 212.309C15.0595 211.815 14.8124 211.221 14.8124 210.527L14.8124 207.184L12.3837 204.723C12.1524 204.471 11.9736 204.192 11.8475 203.887C11.7213 203.582 11.6582 203.272 11.6582 202.957C11.6582 202.641 11.7213 202.331 11.8475 202.026C11.9736 201.721 12.1524 201.443 12.3837 201.19L14.8124 198.73V195.387C14.8124 194.693 15.0595 194.099 15.5537 193.604C16.0479 193.11 16.6419 192.863 17.3358 192.863H20.6793L23.1397 190.434C23.392 190.203 23.6706 190.024 23.9755 189.898C24.2804 189.772 24.5906 189.709 24.906 189.709C25.2215 189.709 25.5316 189.772 25.8365 189.898C26.1414 190.024 26.4201 190.203 26.6724 190.434L29.1327 192.863H32.4762C33.1702 192.863 33.7642 193.11 34.2584 193.604C34.7525 194.099 34.9996 194.693 34.9996 195.387V198.73L37.4284 201.19C37.6597 201.443 37.8384 201.721 37.9646 202.026C38.0908 202.331 38.1539 202.641 38.1539 202.957C38.1539 203.272 38.0908 203.582 37.9646 203.887C37.8384 204.192 37.6597 204.471 37.4284 204.723L34.9996 207.184V210.527C34.9996 211.221 34.7525 211.815 34.2584 212.309C33.7642 212.803 33.1702 213.05 32.4762 213.05H29.1327L26.6724 215.479C26.4201 215.71 26.1414 215.889 25.8365 216.015C25.5316 216.142 25.2215 216.205 24.906 216.205C24.5906 216.205 24.2804 216.142 23.9755 216.015C23.6706 215.889 23.392 215.71 23.1397 215.479L20.6793 213.05ZM21.7518 210.527L24.906 213.681L28.0603 210.527H32.4762V206.111L35.6305 202.957L32.4762 199.803V195.387H28.0603L24.906 192.232L21.7518 195.387H17.3358V199.803L14.1816 202.957L17.3358 206.111V210.527H21.7518Z" fill="#FFEDA5"/>
<path d="M193.92 52.8584L192.176 51.1375C191.813 50.7803 191.631 50.3456 191.627 49.8334C191.624 49.3212 191.8 48.884 192.157 48.5218L193.878 46.777L193.877 44.2429C193.886 43.9922 193.937 43.7548 194.028 43.5307C194.119 43.3067 194.245 43.1123 194.408 42.9477C194.57 42.7831 194.763 42.6537 194.986 42.5595C195.208 42.4654 195.445 42.412 195.696 42.3993L198.229 42.3655L199.95 40.6206C200.308 40.2585 200.742 40.0757 201.254 40.0721C201.767 40.0686 202.204 40.2454 202.566 40.6026L204.311 42.3235L206.845 42.3223C207.096 42.3315 207.333 42.3816 207.557 42.4727C207.781 42.5638 207.976 42.6906 208.14 42.8529C208.305 43.0153 208.434 43.2078 208.528 43.4306C208.622 43.6534 208.676 43.8901 208.689 44.1407L208.722 46.6745L210.467 48.3954C210.829 48.7526 211.012 49.1873 211.016 49.6995C211.019 50.2118 210.842 50.649 210.485 51.0111L208.764 52.7559L208.766 55.29C208.756 55.5407 208.706 55.7781 208.615 56.0022C208.524 56.2263 208.397 56.4206 208.235 56.5852C208.073 56.7498 207.88 56.8792 207.657 56.9734C207.434 57.0676 207.198 57.121 206.947 57.1336L204.413 57.1674L202.692 58.9123C202.335 59.2744 201.901 59.4573 201.388 59.4608C200.876 59.4643 200.439 59.2875 200.077 58.9304L198.332 57.2094L195.798 57.2106C195.547 57.2014 195.31 57.1513 195.086 57.0602C194.862 56.9691 194.667 56.8424 194.503 56.68C194.338 56.5177 194.209 56.3251 194.114 56.1023C194.02 55.8795 193.967 55.6428 193.954 55.3923L193.92 52.8584ZM195.779 52.0936L195.801 55.3632L199.071 55.3406L201.376 57.6135L203.648 55.309L206.918 55.2864L206.895 52.0168L209.168 49.7123L206.864 47.4394L206.841 44.1698L203.572 44.1924L201.267 41.9194L198.994 44.224L195.725 44.2465L195.747 47.5161L193.474 49.8206L195.779 52.0936Z" fill="#FFE7FB"/>
<path d="M192.861 198.055L191.116 196.334C190.754 195.977 190.571 195.542 190.567 195.03C190.564 194.517 190.741 194.08 191.098 193.718L192.819 191.973L192.818 189.439C192.827 189.188 192.877 188.951 192.968 188.727C193.059 188.503 193.186 188.309 193.348 188.144C193.511 187.979 193.703 187.85 193.926 187.756C194.149 187.662 194.385 187.608 194.636 187.596L197.17 187.562L198.891 185.817C199.248 185.455 199.683 185.272 200.195 185.268C200.707 185.265 201.144 185.442 201.506 185.799L203.251 187.52L205.785 187.519C206.036 187.528 206.273 187.578 206.498 187.669C206.722 187.76 206.916 187.887 207.081 188.049C207.245 188.212 207.375 188.404 207.469 188.627C207.563 188.85 207.616 189.086 207.629 189.337L207.663 191.871L209.408 193.592C209.77 193.949 209.953 194.384 209.956 194.896C209.96 195.408 209.783 195.845 209.426 196.207L207.705 197.952L207.706 200.486C207.697 200.737 207.647 200.974 207.556 201.198C207.464 201.423 207.338 201.617 207.175 201.781C207.013 201.946 206.82 202.075 206.598 202.17C206.375 202.264 206.138 202.317 205.888 202.33L203.354 202.364L201.633 204.109C201.276 204.471 200.841 204.654 200.329 204.657C199.817 204.661 199.379 204.484 199.017 204.127L197.272 202.406L194.738 202.407C194.488 202.398 194.25 202.348 194.026 202.256C193.802 202.165 193.608 202.039 193.443 201.876C193.278 201.714 193.149 201.521 193.055 201.299C192.961 201.076 192.907 200.839 192.895 200.589L192.861 198.055ZM194.719 197.29L194.742 200.559L198.011 200.537L200.316 202.81L202.589 200.505L205.858 200.483L205.836 197.213L208.109 194.909L205.804 192.636L205.782 189.366L202.512 189.389L200.208 187.116L197.935 189.42L194.665 189.443L194.688 192.712L192.415 195.017L194.719 197.29Z" fill="#FFF1E6"/>
<path d="M20.0069 26.5558L21.8253 21.655C21.9525 21.2966 22.1447 21.0025 22.4018 20.7729C22.6589 20.5432 22.9509 20.3774 23.2777 20.2755C23.6045 20.1735 23.939 20.1439 24.281 20.1866C24.6231 20.2293 24.9484 20.3619 25.2569 20.5845L29.5393 23.582L34.6536 23.69C35.171 23.688 35.6268 23.8397 36.0209 24.1451C36.415 24.4505 36.6857 24.8392 36.833 25.3113C36.901 25.5292 36.9372 25.757 36.9416 25.9947C36.946 26.2324 36.9068 26.4738 36.8238 26.7188L35.1534 31.9022L36.6558 36.3348C36.8722 36.9646 36.8305 37.5654 36.5306 38.1371C36.2308 38.7088 35.7904 39.0853 35.2094 39.2666C35.1731 39.2779 34.9648 39.313 34.5847 39.3718L29.2847 39.5309L24.8344 42.4135C24.755 42.4782 24.6622 42.532 24.5561 42.5751C24.45 42.6181 24.3515 42.6538 24.2607 42.6822C23.6797 42.8634 23.1034 42.8041 22.5316 42.5043C21.9599 42.2045 21.584 41.734 21.4039 41.0929L20.111 36.565L15.8253 33.2697C15.6178 33.1152 15.4482 32.939 15.3167 32.741C15.1852 32.5429 15.0854 32.3349 15.0175 32.117C14.8759 31.6631 14.8758 31.1999 15.0173 30.7274C15.1588 30.2549 15.4401 29.8633 15.8612 29.5526L20.0069 26.5558ZM21.9277 28.0187L17.1878 31.4101L22.0859 35.2317L23.5998 40.4676L28.5795 37.2703L34.5024 37.0962L32.7621 31.901L34.6355 26.0268L28.791 25.8776L23.9574 22.4543L21.9277 28.0187Z" fill="#FFE7FB"/>
<path d="M215.717 154.428L220.842 151.682C221.212 151.477 221.589 151.373 221.973 151.371C222.356 151.369 222.722 151.446 223.069 151.602C223.417 151.758 223.717 151.979 223.971 152.267C224.225 152.555 224.398 152.905 224.491 153.317L225.853 158.97L230.037 162.827C230.469 163.207 230.738 163.669 230.841 164.214C230.945 164.759 230.884 165.282 230.659 165.784C230.555 166.016 230.418 166.232 230.246 166.434C230.075 166.635 229.864 166.807 229.615 166.951L224.404 170.041L222.392 174.842C222.108 175.527 221.631 175.997 220.96 176.253C220.289 176.508 219.645 176.498 219.027 176.221C218.988 176.204 218.789 176.079 218.429 175.848L213.893 172.077L208.061 171.202C207.947 171.198 207.83 171.174 207.71 171.132C207.589 171.09 207.481 171.047 207.385 171.004C206.767 170.727 206.33 170.253 206.074 169.582C205.818 168.911 205.852 168.242 206.174 167.574L208.431 162.848L207.286 156.944C207.227 156.663 207.215 156.391 207.251 156.129C207.288 155.867 207.358 155.62 207.462 155.388C207.678 154.906 208.019 154.52 208.485 154.23C208.951 153.94 209.474 153.821 210.054 153.872L215.717 154.428ZM216.24 157.062L209.791 156.398L211.059 163.191L208.465 168.671L214.971 169.674L220.036 173.891L222.412 168.279L228.3 164.762L223.539 160.333L222.031 153.919L216.24 157.062Z" fill="#6DDFA6"/>
<path d="M38.7657 223.672L40.7611 219.869C40.9024 219.59 41.0898 219.371 41.3234 219.21C41.557 219.05 41.8123 218.946 42.0894 218.897C42.3664 218.848 42.6421 218.859 42.9164 218.93C43.1907 219 43.4419 219.142 43.67 219.356L46.846 222.248L51.0027 222.872C51.4246 222.924 51.7802 223.096 52.0694 223.386C52.3586 223.676 52.5385 224.021 52.609 224.421C52.6416 224.606 52.6472 224.795 52.6259 224.99C52.6046 225.184 52.5473 225.376 52.4541 225.567L50.5496 229.617L51.3095 233.387C51.4199 233.923 51.323 234.408 51.0187 234.842C50.7145 235.277 50.3161 235.538 49.8236 235.624C49.7928 235.63 49.6194 235.637 49.3035 235.645L44.9674 235.219L41.0385 237.102C40.9669 237.146 40.8857 237.181 40.7947 237.205C40.7037 237.229 40.6197 237.247 40.5428 237.261C40.0503 237.348 39.5867 237.239 39.1522 236.935C38.7177 236.631 38.4606 236.208 38.3811 235.666L37.8017 231.841L34.6543 228.706C34.5013 228.558 34.3816 228.397 34.2952 228.222C34.2087 228.047 34.1492 227.867 34.1167 227.682C34.0488 227.297 34.0973 226.92 34.2621 226.549C34.427 226.179 34.6973 225.89 35.073 225.68L38.7657 223.672ZM40.1778 225.066L35.9595 227.333L39.5509 230.961L40.2361 235.387L44.6295 233.303L49.4748 233.782L48.6009 229.365L50.7431 224.774L45.9956 224.04L42.415 220.744L40.1778 225.066Z" fill="#FFE7FB"/>
<path d="M204.321 7.15408L208.887 3.55472C209.216 3.28809 209.569 3.12026 209.946 3.05122C210.323 2.98219 210.696 2.99397 211.066 3.08656C211.435 3.17916 211.77 3.34486 212.07 3.58366C212.37 3.82245 212.602 4.1369 212.766 4.52699L215.095 9.85483L219.888 12.9213C220.381 13.2192 220.725 13.6274 220.923 14.1458C221.12 14.6642 221.152 15.1901 221.018 15.7237C220.956 15.97 220.859 16.2073 220.725 16.4355C220.591 16.6638 220.414 16.8702 220.193 17.0548L215.604 21.0082L214.461 26.0876C214.302 26.811 213.914 27.3572 213.298 27.7263C212.682 28.0954 212.046 28.1976 211.389 28.033C211.348 28.0227 211.13 27.9353 210.735 27.7709L205.61 24.8505L199.714 25.0084C199.601 25.0237 199.482 25.0211 199.356 25.0005C199.231 24.9799 199.116 24.9567 199.014 24.931C198.357 24.7664 197.844 24.3761 197.475 23.7601C197.106 23.1441 197.022 22.4795 197.222 21.7664L198.619 16.718L196.459 11.1054C196.352 10.8385 196.293 10.573 196.283 10.3087C196.273 10.0444 196.299 9.78914 196.36 9.54287C196.489 9.02981 196.757 8.58997 197.166 8.22333C197.574 7.85669 198.068 7.6479 198.648 7.59695L204.321 7.15408ZM205.297 9.65624L198.831 10.1294L201.267 16.5965L199.67 22.4453L206.251 22.2954L211.975 25.5626L213.334 19.6213L218.517 15.1295L213.054 11.6008L210.449 5.54924L205.297 9.65624Z" fill="#FFF1E6"/>
<path d="M6.35896 50.8717H1.05983C0.759542 50.8717 0.507834 50.7701 0.3047 50.567C0.101567 50.3638 0 50.1121 0 49.8119C0 49.5116 0.101567 49.2599 0.3047 49.0567C0.507834 48.8536 0.759542 48.752 1.05983 48.752H6.35896V43.4529C6.35896 43.1526 6.46053 42.9009 6.66366 42.6978C6.86679 42.4946 7.1185 42.3931 7.41879 42.3931C7.71907 42.3931 7.97078 42.4946 8.17391 42.6978C8.37705 42.9009 8.47861 43.1526 8.47861 43.4529V48.752H13.7777C14.078 48.752 14.3297 48.8536 14.5329 49.0567C14.736 49.2599 14.8376 49.5116 14.8376 49.8119C14.8376 50.1121 14.736 50.3638 14.5329 50.567C14.3297 50.7701 14.078 50.8717 13.7777 50.8717H8.47861V56.1708C8.47861 56.4711 8.37705 56.7228 8.17391 56.9259C7.97078 57.1291 7.71907 57.2306 7.41879 57.2306C7.1185 57.2306 6.86679 57.1291 6.66366 56.9259C6.46053 56.7228 6.35896 56.4711 6.35896 56.1708V50.8717Z" fill="#FFA86D"/>
<path d="M137.777 15.8973H132.478C132.178 15.8973 131.926 15.7957 131.723 15.5926C131.52 15.3895 131.418 15.1378 131.418 14.8375C131.418 14.5372 131.52 14.2855 131.723 14.0824C131.926 13.8792 132.178 13.7777 132.478 13.7777H137.777V8.47853C137.777 8.17824 137.879 7.92653 138.082 7.7234C138.285 7.52027 138.537 7.4187 138.837 7.4187C139.138 7.4187 139.389 7.52027 139.592 7.7234C139.796 7.92653 139.897 8.17824 139.897 8.47853V13.7777H145.196C145.496 13.7777 145.748 13.8792 145.951 14.0824C146.154 14.2855 146.256 14.5372 146.256 14.8375C146.256 15.1378 146.154 15.3895 145.951 15.5926C145.748 15.7957 145.496 15.8973 145.196 15.8973H139.897V21.1964C139.897 21.4967 139.796 21.7484 139.592 21.9516C139.389 22.1547 139.138 22.2563 138.837 22.2563C138.537 22.2563 138.285 22.1547 138.082 21.9516C137.879 21.7484 137.777 21.4967 137.777 21.1964V15.8973Z" fill="#FFEDA5"/>
<path d="M178.808 32.0976H171.994C171.608 32.0976 171.285 31.967 171.024 31.7058C170.762 31.4447 170.632 31.1211 170.632 30.735C170.632 30.3489 170.762 30.0253 171.024 29.7641C171.285 29.5029 171.608 29.3723 171.994 29.3723H178.808V22.5592C178.808 22.1731 178.938 21.8495 179.199 21.5883C179.461 21.3271 179.784 21.1965 180.17 21.1965C180.556 21.1965 180.88 21.3271 181.141 21.5883C181.402 21.8495 181.533 22.1731 181.533 22.5592V29.3723H188.346C188.732 29.3723 189.056 29.5029 189.317 29.7641C189.578 30.0253 189.709 30.3489 189.709 30.735C189.709 31.1211 189.578 31.4447 189.317 31.7058C189.056 31.967 188.732 32.0976 188.346 32.0976H181.533V38.9108C181.533 39.2969 181.402 39.6205 181.141 39.8817C180.88 40.1428 180.556 40.2734 180.17 40.2734C179.784 40.2734 179.461 40.1428 179.199 39.8817C178.938 39.6205 178.808 39.2969 178.808 38.9108V32.0976Z" fill="#6DDFA6"/>
<path d="M66.4663 211.208H59.6532C59.2671 211.208 58.9435 211.078 58.6823 210.816C58.4211 210.555 58.2905 210.232 58.2905 209.846C58.2905 209.459 58.4211 209.136 58.6823 208.875C58.9435 208.614 59.2671 208.483 59.6532 208.483H66.4663V201.67C66.4663 201.284 66.5969 200.96 66.8581 200.699C67.1193 200.438 67.4429 200.307 67.829 200.307C68.215 200.307 68.5387 200.438 68.7998 200.699C69.061 200.96 69.1916 201.284 69.1916 201.67V208.483H76.0048C76.3909 208.483 76.7145 208.614 76.9756 208.875C77.2368 209.136 77.3674 209.459 77.3674 209.846C77.3674 210.232 77.2368 210.555 76.9756 210.816C76.7145 211.078 76.3909 211.208 76.0048 211.208H69.1916V218.021C69.1916 218.407 69.061 218.731 68.7998 218.992C68.5387 219.253 68.215 219.384 67.829 219.384C67.4429 219.384 67.1193 219.253 66.8581 218.992C66.5969 218.731 66.4663 218.407 66.4663 218.021V211.208Z" fill="#6DDFA6"/>
<path d="M221.504 91.1451H216.205C215.905 91.1451 215.653 91.0436 215.45 90.8404C215.247 90.6373 215.145 90.3856 215.145 90.0853C215.145 89.785 215.247 89.5333 215.45 89.3302C215.653 89.127 215.905 89.0255 216.205 89.0255H221.504V83.7263C221.504 83.426 221.606 83.1743 221.809 82.9712C222.012 82.7681 222.264 82.6665 222.564 82.6665C222.864 82.6665 223.116 82.7681 223.319 82.9712C223.522 83.1743 223.624 83.426 223.624 83.7263V89.0255H228.923C229.223 89.0255 229.475 89.127 229.678 89.3302C229.881 89.5333 229.983 89.785 229.983 90.0853C229.983 90.3856 229.881 90.6373 229.678 90.8404C229.475 91.0436 229.223 91.1451 228.923 91.1451H223.624V96.4443C223.624 96.7445 223.522 96.9962 223.319 97.1994C223.116 97.4025 222.864 97.5041 222.564 97.5041C222.264 97.5041 222.012 97.4025 221.809 97.1994C221.606 96.9962 221.504 96.7445 221.504 96.4443V91.1451Z" fill="#FFE7FB"/>
<path d="M199.248 223.623H193.948C193.648 223.623 193.397 223.522 193.193 223.319C192.99 223.116 192.889 222.864 192.889 222.564C192.889 222.263 192.99 222.012 193.193 221.808C193.397 221.605 193.648 221.504 193.948 221.504H199.248V216.205C199.248 215.904 199.349 215.653 199.552 215.449C199.755 215.246 200.007 215.145 200.307 215.145C200.608 215.145 200.859 215.246 201.063 215.449C201.266 215.653 201.367 215.904 201.367 216.205V221.504H206.666C206.967 221.504 207.218 221.605 207.422 221.808C207.625 222.012 207.726 222.263 207.726 222.564C207.726 222.864 207.625 223.116 207.422 223.319C207.218 223.522 206.967 223.623 206.666 223.623H201.367V228.923C201.367 229.223 201.266 229.475 201.063 229.678C200.859 229.881 200.608 229.982 200.307 229.982C200.007 229.982 199.755 229.881 199.552 229.678C199.349 229.475 199.248 229.223 199.248 228.923V223.623Z" fill="#FFE7FB"/>
<path d="M224.683 193.948H219.384C219.084 193.948 218.832 193.847 218.629 193.644C218.426 193.441 218.324 193.189 218.324 192.889C218.324 192.588 218.426 192.337 218.629 192.133C218.832 191.93 219.084 191.829 219.384 191.829H224.683V186.53C224.683 186.229 224.785 185.978 224.988 185.774C225.191 185.571 225.443 185.47 225.743 185.47C226.043 185.47 226.295 185.571 226.498 185.774C226.701 185.978 226.803 186.229 226.803 186.53V191.829H232.102C232.402 191.829 232.654 191.93 232.857 192.133C233.06 192.337 233.162 192.588 233.162 192.889C233.162 193.189 233.06 193.441 232.857 193.644C232.654 193.847 232.402 193.948 232.102 193.948H226.803V199.247C226.803 199.548 226.701 199.799 226.498 200.003C226.295 200.206 226.043 200.307 225.743 200.307C225.443 200.307 225.191 200.206 224.988 200.003C224.785 199.799 224.683 199.548 224.683 199.247V193.948Z" fill="#FFA86D"/>
<path d="M13.7777 164.273H8.47853C8.17824 164.273 7.92653 164.171 7.7234 163.968C7.52027 163.765 7.4187 163.514 7.4187 163.213C7.4187 162.913 7.52027 162.661 7.7234 162.458C7.92653 162.255 8.17824 162.153 8.47853 162.153H13.7777V156.854C13.7777 156.554 13.8792 156.302 14.0824 156.099C14.2855 155.896 14.5372 155.794 14.8375 155.794C15.1378 155.794 15.3895 155.896 15.5926 156.099C15.7957 156.302 15.8973 156.554 15.8973 156.854V162.153H21.1964C21.4967 162.153 21.7484 162.255 21.9516 162.458C22.1547 162.661 22.2563 162.913 22.2563 163.213C22.2563 163.514 22.1547 163.765 21.9516 163.968C21.7484 164.171 21.4967 164.273 21.1964 164.273H15.8973V169.572C15.8973 169.872 15.7957 170.124 15.5926 170.327C15.3895 170.53 15.1378 170.632 14.8375 170.632C14.5372 170.632 14.2855 170.53 14.0824 170.327C13.8792 170.124 13.7777 169.872 13.7777 169.572V164.273Z" fill="#FFEDA5"/>
</svg>
