<svg width="446" height="232" viewBox="0 0 446 232" fill="none" xmlns="http://www.w3.org/2000/svg">
<path d="M437.73 277.173L344.006 246.459C330.099 241.894 330.099 222.044 344.006 217.479L437.73 186.765C443.997 184.72 447.438 177.924 445.39 171.604L438.099 148.966C436.071 142.645 429.333 139.175 423.065 141.241L329.342 171.955C315.435 176.52 303.863 160.45 312.465 148.511L370.387 68.1004C374.258 62.7301 373.07 55.1909 367.745 51.287L348.635 37.2828C343.31 33.3789 335.834 34.5769 331.963 39.9473L274.041 120.358C265.562 132.132 247.292 126.307 246.76 112.034V12.042C246.76 5.39103 241.414 0 234.819 0H211.163C204.568 0 199.222 5.39103 199.222 12.042V112.034C198.69 126.328 180.42 132.132 171.941 120.358L114.019 39.9679C110.148 34.5976 102.692 33.3996 97.3467 37.3034L78.2374 51.3077C72.9122 55.2115 71.7243 62.7301 75.5953 68.1211L133.517 148.532C142.119 160.471 130.547 176.541 116.64 171.976L22.9167 141.261C16.6493 139.217 9.91088 142.666 7.8832 148.986L0.591762 171.625C-1.43591 177.945 1.98451 184.741 8.25187 186.786L101.976 217.5C115.883 222.065 115.883 241.915 101.976 246.479L8.25187 277.194C1.98451 279.239 -1.4564 286.034 0.591762 292.355L7.8832 315.014C9.91088 321.334 16.6493 324.804 22.9167 322.739L116.64 292.024C130.547 287.459 142.119 303.529 133.538 315.468L75.6158 395.879C71.7448 401.249 72.9327 408.788 78.2579 412.692L97.3672 426.697C102.692 430.6 110.168 429.402 114.039 424.032L171.961 343.621C180.441 331.848 198.71 337.672 199.243 351.966V451.958C199.243 458.609 204.588 464 211.183 464H234.84C241.435 464 246.78 458.609 246.78 451.958V351.966C247.313 337.672 265.582 331.868 274.062 343.621L331.984 424.032C335.855 429.402 343.31 430.6 348.656 426.697L367.765 412.692C373.09 408.788 374.278 401.249 370.407 395.879L312.485 315.468C303.883 303.529 315.455 287.459 329.383 292.024L423.106 322.739C429.374 324.783 436.112 321.334 438.14 315.014L445.431 292.355C447.459 286.034 444.038 279.239 437.771 277.194L437.73 277.173Z" fill="#F6FEF9"/>
</svg>
