<svg width="312" height="312" viewBox="0 0 312 312" fill="none" xmlns="http://www.w3.org/2000/svg">
<path d="M186.375 5.79564L165.722 71.358C162.653 81.0863 149.306 81.0863 146.236 71.358L125.583 5.79564C124.208 1.41145 119.639 -0.995566 115.389 0.437177L100.167 5.53776C95.9167 6.95618 93.5833 11.6699 94.9722 16.0541L115.625 81.6164C118.694 91.3447 107.889 99.4398 99.8611 93.4222L45.7917 52.9043C42.1805 50.1964 37.1111 51.0274 34.4861 54.7525L25.0694 68.12C22.4444 71.8451 23.25 77.0746 26.8611 79.7825L80.9305 120.3C88.8472 126.232 84.9305 139.012 75.3333 139.385L8.09721 139.385C3.62499 139.385 -7.3818e-06 143.124 -7.18014e-06 147.738L-6.4568e-06 164.286C-6.25514e-06 168.899 3.62499 172.639 8.09722 172.639L75.3333 172.639C84.9444 173.011 88.8472 185.791 80.9305 191.723L26.875 232.241C23.2639 234.949 22.4583 240.164 25.0833 243.903L34.5 257.271C37.125 260.996 42.1806 261.827 45.8056 259.119L99.875 218.601C107.903 212.583 118.708 220.678 115.639 230.407L94.9861 295.969C93.6111 300.353 95.9305 305.067 100.181 306.485L115.403 311.586C119.653 313.004 124.222 310.612 125.597 306.228L146.25 240.665C149.319 230.937 162.667 230.937 165.736 240.665L186.389 306.228C187.764 310.612 192.333 313.019 196.583 311.586L211.819 306.485C216.069 305.067 218.403 300.353 217.014 295.969L196.361 230.407C193.292 220.678 204.097 212.583 212.125 218.587L266.194 259.105C269.806 261.813 274.875 260.982 277.5 257.256L286.917 243.889C289.542 240.164 288.736 234.934 285.125 232.226L231.056 191.708C223.139 185.777 227.056 172.997 236.667 172.624L303.903 172.624C308.375 172.624 312 168.885 312 164.271L312 147.723C312 143.11 308.375 139.37 303.903 139.37L236.667 139.37C227.056 138.998 223.153 126.218 231.056 120.286L285.125 79.7682C288.736 77.0603 289.542 71.8451 286.917 68.1057L277.5 54.7382C274.875 51.013 269.806 50.182 266.194 52.8899L212.125 93.4079C204.097 99.4254 193.292 91.3304 196.361 81.5878L217.014 16.0254C218.389 11.6412 216.069 6.92751 211.819 5.5091L196.583 0.408534C192.333 -1.00988 187.764 1.38279 186.389 5.76698L186.375 5.79564Z" fill="#E5FBED"/>
</svg>
