<svg width="94" height="130" viewBox="0 0 94 130" fill="none" xmlns="http://www.w3.org/2000/svg">
<path d="M78.0721 104.308C76.6293 107.396 38.1003 113.975 31.1976 113.178C27.1908 112.715 16.2275 40.2516 18.2369 38.1074C21.2523 34.8897 60.677 25.5342 64.6597 28.243C68.3446 30.7493 80.2262 99.6982 78.0721 104.308Z" fill="#E5E2DC"/>
<path fill-rule="evenodd" clip-rule="evenodd" d="M3.60494 16.7264C5.13703 16.4563 6.59804 17.4793 6.86819 19.0114L23.2547 111.944C23.5249 113.476 22.5019 114.937 20.9698 115.207C19.4377 115.477 17.9767 114.454 17.7065 112.922L1.31998 19.9897C1.04983 18.4576 2.07284 16.9966 3.60494 16.7264Z" fill="#D2CEC6"/>
<path fill-rule="evenodd" clip-rule="evenodd" d="M19.649 107.72C21.1811 107.45 22.6421 108.473 22.9122 110.005C23.3384 112.422 23.8375 114.751 24.4702 117.092C24.8951 118.663 25.2776 119.721 25.9818 120.627C26.1717 120.871 26.6232 121.197 27.5809 121.436C28.5108 121.669 29.6136 121.744 30.6949 121.74C33.2845 121.732 35.8338 121.28 38.6378 120.782C39.2771 120.669 39.9296 120.553 40.5988 120.44C42.6153 120.099 44.6098 119.772 46.5955 119.447C49.5669 118.96 52.5187 118.477 55.4957 117.952C57.048 117.678 58.5977 117.414 60.1424 117.151C68.1588 115.785 76.0393 114.443 83.4342 111.889C84.9047 111.381 86.5084 112.162 87.0162 113.632C87.524 115.103 86.7435 116.707 85.2729 117.214C77.3999 119.933 68.9841 121.364 60.9725 122.726C59.4564 122.984 57.9547 123.239 56.474 123.5C53.4802 124.028 50.4507 124.524 47.441 125.017C45.4598 125.342 43.4873 125.665 41.5393 125.995C40.9742 126.091 40.3923 126.194 39.7966 126.301C36.9725 126.805 33.8385 127.364 30.7132 127.374C29.432 127.378 27.7977 127.298 26.2131 126.902C24.6563 126.512 22.8161 125.733 21.5342 124.085C20.0986 122.238 19.4868 120.245 19.0317 118.562C18.3473 116.03 17.8137 113.534 17.364 110.983C17.0938 109.451 18.1169 107.99 19.649 107.72Z" fill="#D2CEC6"/>
<path fill-rule="evenodd" clip-rule="evenodd" d="M90.0036 110.898C88.4715 111.168 87.0105 110.145 86.7404 108.613L71.3077 21.0902C71.0375 19.5581 72.0605 18.0971 73.5926 17.827C75.1247 17.5568 76.5857 18.5798 76.8559 20.1119L92.2886 107.635C92.5587 109.167 91.5357 110.628 90.0036 110.898Z" fill="#D2CEC6"/>
<path fill-rule="evenodd" clip-rule="evenodd" d="M74.5702 23.3771C73.0381 23.6472 71.5771 22.6242 71.307 21.0921C70.8451 18.4728 70.3168 15.942 69.6625 13.3934C69.2215 11.6754 68.8154 10.4408 68.0839 9.37139C67.8499 9.02942 67.4096 8.69436 66.6002 8.43899C65.7852 8.18183 64.8111 8.07614 63.8349 8.05207C61.4943 7.99436 59.2095 8.39945 56.6253 8.85762C56.03 8.96317 55.4188 9.07154 54.7873 9.17771C52.9165 9.49229 51.0715 9.79062 49.2367 10.0873C46.4965 10.5304 43.7791 10.9698 41.0322 11.4541C39.59 11.7084 38.1529 11.9519 36.7229 12.1942C29.3192 13.4485 22.1051 14.6707 15.3654 17.1945C13.9084 17.7401 12.2851 17.0012 11.7395 15.5443C11.194 14.0874 11.9328 12.464 13.3897 11.9185C20.681 9.18818 28.5183 7.86443 35.9169 6.61476C37.3137 6.37883 38.6949 6.14554 40.0539 5.90592C42.8204 5.4181 45.6286 4.96382 48.4134 4.51331C50.2429 4.21736 52.0622 3.92304 53.8532 3.6219C54.3635 3.53608 54.8927 3.4414 55.4375 3.34393C58.0453 2.87732 61.0099 2.34689 63.9738 2.41998C65.19 2.44997 66.7602 2.5819 68.2954 3.06627C69.8362 3.55242 71.5519 4.4628 72.7338 6.19052C74.0607 8.13022 74.6578 10.1948 75.1194 11.9926C75.8159 14.7058 76.3732 17.3805 76.8552 20.1138C77.1253 21.6459 76.1023 23.1069 74.5702 23.3771Z" fill="#D2CEC6"/>
<path fill-rule="evenodd" clip-rule="evenodd" d="M43.5472 19.1054C43.9685 20.603 43.0959 22.1585 41.5983 22.5798C38.5811 23.4285 35.4585 23.9536 32.5145 24.4487C31.7484 24.5775 30.9944 24.7043 30.2574 24.8343C30.1332 24.8562 29.9762 24.8802 29.7878 24.909C29.4055 24.9674 28.8941 25.0456 28.2653 25.1661C28.0821 25.2012 27.9248 25.2337 27.7946 25.2625C26.7976 25.9355 25.4397 25.9149 24.4533 25.1214C24.2087 24.9247 23.8477 24.5693 23.6073 24.0107C23.3432 23.3968 23.3071 22.724 23.4812 22.1048C23.7673 21.0869 24.5052 20.5842 24.6583 20.4799C24.6599 20.4788 24.6614 20.4778 24.6629 20.4768C25.0986 20.1796 25.563 20.0339 25.7228 19.9838L25.7266 19.9826C26.1832 19.8393 26.7463 19.7208 27.2051 19.6329C28.0583 19.4695 29.3455 19.2743 29.2791 19.286C30.1145 19.1387 30.934 19.0006 31.7403 18.8647C34.6435 18.3755 37.3767 17.9148 40.0728 17.1565C41.5704 16.7352 43.126 17.6078 43.5472 19.1054ZM27.4135 25.3579C27.4146 25.3576 27.4156 25.3572 27.4167 25.3569C27.3668 25.3761 27.3587 25.3751 27.4135 25.3579Z" fill="#E5E2DC"/>
<path fill-rule="evenodd" clip-rule="evenodd" d="M49.4463 15.1402C50.9638 14.5793 52.8567 15.1551 53.7716 16.7407C54.1783 17.4457 54.5254 18.5649 54.0475 19.7696C53.5711 20.9706 52.546 21.5643 51.6983 21.7544C50.0557 22.1228 48.1073 21.2484 47.5113 19.2632C47.4318 18.9984 47.3931 18.731 47.3917 18.4679C47.3732 18.3075 47.3662 18.1399 47.3732 17.9654C47.436 16.4118 48.5243 15.481 49.4463 15.1402Z" fill="#E5E2DC"/>
<path d="M42.1374 86.6313C41.2012 86.7964 40.341 86.6044 39.5568 86.0553C38.7725 85.5062 38.2979 84.7635 38.1328 83.8273L34.2311 61.6994C33.7488 61.7844 33.3158 61.6926 32.932 61.4239C32.5482 61.1551 32.3138 60.7796 32.2288 60.2974C32.1437 59.8151 32.2356 59.3821 32.5043 58.9983C32.773 58.6145 33.1485 58.3801 33.6308 58.2951L40.4394 57.0945C40.3544 56.6123 40.4462 56.1792 40.7149 55.7955C40.9836 55.4117 41.3591 55.1773 41.8414 55.0923L48.65 53.8917C49.1323 53.8067 49.5653 53.8985 49.9491 54.1672C50.3328 54.436 50.5673 54.8115 50.6523 55.2937L57.4609 54.0932C57.9432 54.0082 58.3762 54.1 58.76 54.3687C59.1437 54.6374 59.3781 55.0129 59.4632 55.4952C59.5482 55.9775 59.4564 56.4105 59.1877 56.7943C58.9189 57.178 58.5434 57.4125 58.0612 57.4975L61.9629 79.6254C62.128 80.5616 61.936 81.4218 61.3868 82.206C60.8377 82.9903 60.0951 83.4649 59.1589 83.63L42.1374 86.6313ZM37.6354 61.0991L41.5371 83.227L58.5586 80.2257L54.6569 58.0978L37.6354 61.0991ZM48.5172 73.0454L52.3215 75.7092C52.717 75.9613 53.1487 76.046 53.6168 75.9635C54.0849 75.8809 54.4475 75.6561 54.7045 75.2891C54.9849 74.8886 55.0839 74.4543 55.0013 73.9862C54.9188 73.5181 54.6798 73.1581 54.2843 72.906L50.48 70.2422L53.1438 66.4379C53.4242 66.0374 53.5232 65.6031 53.4406 65.1351C53.3581 64.667 53.1191 64.3069 52.7236 64.0549C52.3515 63.7695 51.9315 63.668 51.4634 63.7506C50.9953 63.8331 50.621 64.0746 50.3406 64.4751L47.6768 68.2794L43.8725 65.6156C43.5004 65.3302 43.0803 65.2287 42.6122 65.3113C42.1441 65.3938 41.7699 65.6353 41.4894 66.0358C41.2324 66.4028 41.1452 66.8204 41.2277 67.2885C41.3102 67.7566 41.5375 68.1334 41.9096 68.4188L45.714 71.0826L43.0502 74.8869C42.7931 75.254 42.7059 75.6716 42.7884 76.1397C42.8709 76.6078 43.0983 76.9845 43.4703 77.2699C43.8658 77.522 44.2976 77.6067 44.7657 77.5242C45.2337 77.4416 45.5963 77.2168 45.8533 76.8498L48.5172 73.0454Z" fill="white"/>
</svg>
