<svg width="19" height="23" viewBox="0 0 19 23" fill="none" xmlns="http://www.w3.org/2000/svg">
<path d="M9.34817 4.04812C9.62487 5.97401 9.8653 8.38602 8.20249 9.78286C6.6972 11.0474 4.4156 11.4868 2.48986 11.5579C0.966996 11.6141 3.44573 11.4274 3.83308 11.4214C5.32014 11.3983 6.7387 11.8269 8.13928 12.2406C9.29315 12.5815 9.48016 14.4279 9.66422 15.3507C9.92181 16.6421 10.2332 17.8284 10.3516 19.1359C10.4047 19.722 10.6282 21.4689 10.6282 20.8806C10.6282 18.528 10.2474 15.8464 10.9126 13.5757C11.5102 11.5357 13.4741 10.2005 15.7482 10.8069C15.9568 10.8625 17.5644 10.9666 16.7912 10.8676C15.1998 10.6639 13.208 10.2665 12.161 8.96361C10.7458 7.20234 10.2015 4.14313 10.2015 2" stroke="#FFCE00" stroke-width="3" stroke-linecap="round"/>
</svg>
