<svg width="19" height="20" viewBox="0 0 19 20" fill="none" xmlns="http://www.w3.org/2000/svg">
<path d="M9.29537 2C9.29537 5.01012 8.26205 7.03382 5.66919 8.82562C4.69905 9.49604 3.71087 9.83919 2.61182 10.2255C2.19792 10.3709 1.65552 10.4866 2.29186 10.6419C4.66936 11.2222 6.22191 12.2547 7.20973 14.5406C7.52254 15.2645 7.64549 16.0083 7.80224 16.7734C7.82772 16.8978 8.06995 18.0201 8.1222 17.9997C8.36097 17.9065 8.57711 16.5632 8.65546 16.3222C9.09742 14.9631 10.1484 14.0521 11.227 13.1408C12.4572 12.1014 13.7204 10.953 15.1731 10.2139C15.7006 9.94555 17.4743 9.70486 16.8795 9.70486C14.8286 9.70486 13.2485 8.0255 12.1868 6.48872C11.3808 5.32188 9.93529 3.69474 9.93529 2.20824" stroke="#FFCE00" stroke-width="3" stroke-linecap="round"/>
</svg>
