<svg width="200" height="144" viewBox="0 0 200 144" fill="none" xmlns="http://www.w3.org/2000/svg">
<g style="mix-blend-mode:multiply">
<path fill-rule="evenodd" clip-rule="evenodd" d="M172.982 42.0568C173.286 43.9144 172.026 45.6667 170.169 45.9706C164.58 46.8851 158.75 47.5767 153.011 48.2574C148.841 48.7521 144.718 49.2411 140.772 49.8057C124.796 52.0915 108.887 54.988 92.9623 57.9982C88.7932 58.7862 84.5702 59.6567 80.3106 60.5348C70.6327 62.5297 60.7659 64.5636 50.9139 65.7578C50.6507 65.7897 50.3909 65.7907 50.1381 65.7637C51.0077 66.4047 51.559 67.4476 51.5248 68.6093C51.3834 73.4166 48.864 77.955 44.0455 80.02C43.8083 80.1217 43.5536 80.2677 43.0797 80.5506C43.0605 80.562 43.0408 80.5737 43.0207 80.5858C42.7725 80.7341 42.4502 80.9267 42.0828 81.1206C42.0346 81.2289 41.9875 81.3462 41.9452 81.4624C41.8835 81.6318 41.8513 81.7459 41.8439 81.7754C41.8191 81.8745 41.7955 81.981 41.7763 82.0868C41.7759 82.0891 41.7755 82.0914 41.7751 82.0938C41.8323 82.1551 41.904 82.231 41.9969 82.3293C42.0154 82.3489 42.0359 82.3703 42.0582 82.3937C42.4509 82.8052 43.4072 83.8071 43.8075 85.2368C44.413 87.3992 43.6208 89.1518 43.0521 90.15C42.8439 90.5156 42.5879 90.9074 42.414 91.1736C42.3691 91.2423 42.3296 91.3027 42.2979 91.3521C42.0915 91.6732 42.0203 91.8106 41.9929 91.8759C41.8658 92.1789 41.7619 92.4999 41.6837 92.8292C41.7143 92.8535 41.7466 92.8791 41.781 92.9064L41.7921 92.9152C42.5679 93.531 43.9057 94.6055 44.4993 96.2541C45.1977 98.1939 44.6066 99.9742 43.9125 101.316C43.6015 101.918 43.5682 102.041 43.558 102.081L43.5576 102.082C43.5514 102.106 43.5172 102.237 43.5172 102.856C43.5172 103.251 43.487 103.665 43.466 103.954L43.4633 103.991C43.4387 104.329 43.4215 104.573 43.4173 104.798C43.416 104.866 43.4162 104.923 43.4173 104.971C44.6197 106.847 45.9405 108.996 46.1951 112.205C46.4392 115.279 46.8116 118.304 47.5077 121.125C47.6318 121.628 47.8333 122.075 47.9382 122.226C48.7337 123.375 48.9947 124.569 49.1125 125.416C49.151 125.694 49.1778 125.965 49.198 126.202C49.7201 126.301 50.5469 126.478 51.3743 126.87C52.9544 127.617 55.489 128.913 57.1134 131.001C58.269 132.487 58.0014 134.628 56.5156 135.784C55.0298 136.939 52.8886 136.672 51.733 135.186C51.2055 134.508 50.0549 133.786 48.4595 133.031C48.4125 133.009 48.3015 132.968 47.7193 132.859C47.6891 132.854 47.6567 132.848 47.622 132.841C47.1438 132.753 46.2579 132.59 45.3847 132.197C44.223 131.674 43.5674 130.747 43.2566 130.213C42.9097 129.618 42.6338 128.895 42.5341 128.148C42.4837 127.77 42.4546 127.393 42.4332 127.117L42.4291 127.064C42.4047 126.749 42.387 126.541 42.3611 126.355C42.3377 126.186 42.3146 126.098 42.3036 126.062C41.5746 124.992 41.122 123.698 40.8899 122.758C40.0662 119.42 39.657 115.979 39.4002 112.744C39.2811 111.243 38.7589 110.333 37.4865 108.35C36.5964 106.963 36.5885 105.397 36.6022 104.669C36.6102 104.249 36.6401 103.838 36.6618 103.539L36.6649 103.497C36.6904 103.146 36.7009 102.973 36.7009 102.856C36.7009 102.059 36.7339 101.247 36.9574 100.38C37.1505 99.6301 37.4506 98.9843 37.7441 98.4069C37.6863 98.3596 37.6235 98.309 37.555 98.2546L37.5439 98.2458C37.5147 98.2226 37.4823 98.1972 37.4473 98.1697C37.0267 97.8393 36.2155 97.2019 35.6437 96.348C34.8409 95.1492 34.635 93.8226 34.8209 92.4842C34.9737 91.384 35.2695 90.2829 35.7069 89.2399C35.9779 88.5936 36.3251 88.0382 36.5636 87.6671C36.6556 87.5238 36.7319 87.4069 36.7977 87.3061C36.882 87.177 36.949 87.0742 37.0099 86.9763C37.0031 86.9691 36.996 86.9617 36.9888 86.9541C36.8044 86.7599 36.5015 86.4407 36.2266 86.0931C35.9052 85.6868 35.5181 85.1182 35.2468 84.3857C34.872 83.3736 34.8982 82.3789 34.9458 81.7976C34.9994 81.1435 35.1257 80.5438 35.2311 80.1222C35.3735 79.5526 35.6526 78.7506 36.0134 78.0095C36.1957 77.635 36.4467 77.1766 36.7733 76.7401C37.043 76.3797 37.6435 75.6467 38.6339 75.2223C38.86 75.1254 39.1064 74.9839 39.586 74.6977C39.6023 74.6879 39.6189 74.678 39.6359 74.6679C40.0502 74.4204 40.666 74.0525 41.3605 73.7549C43.3896 72.8853 44.6363 70.9661 44.7115 68.4089C44.7668 66.5275 46.3369 65.0471 48.2183 65.1024C48.3083 65.1051 48.3974 65.1112 48.4854 65.1206C47.7543 64.5831 47.2382 63.7565 47.1204 62.7845C46.8939 60.916 48.2251 59.2176 50.0937 58.9911C59.659 57.8316 69.0642 55.892 78.6044 53.9245C82.9314 53.0322 87.2862 52.1341 91.6963 51.3005C107.639 48.287 123.672 45.3666 139.807 43.0581C144.171 42.4338 148.379 41.9378 152.54 41.4475C158.051 40.798 163.478 40.1585 169.068 39.2438C170.926 38.9398 172.678 40.1993 172.982 42.0568ZM176.83 40.5643C178.712 40.5005 180.288 41.9738 180.352 43.855C180.413 45.6479 180.954 47.494 181.865 48.8693C182.744 50.1954 183.854 50.9504 185.193 51.1142C185.197 51.1145 185.221 51.1164 185.275 51.117C185.357 51.1179 185.447 51.1159 185.613 51.1119L185.657 51.1109C185.938 51.1038 186.478 51.0903 187.053 51.1669C187.704 51.2538 188.475 51.4448 189.212 51.7492C189.869 52.0204 190.944 52.5599 191.727 53.5873C192.674 54.8299 192.685 56.2945 192.687 56.7628C192.689 57.1116 192.669 57.4349 192.653 57.6655C192.645 57.7873 192.638 57.8713 192.633 57.9353C192.626 58.0243 192.623 58.0745 192.62 58.1331C192.565 59.3755 192.051 60.3783 191.818 60.8281C191.756 60.9485 191.692 61.0665 191.642 61.16L191.63 61.1835C191.573 61.289 191.532 61.3658 191.496 61.4364C191.445 61.5368 191.425 61.5824 191.422 61.5904C191.371 61.7437 191.328 61.8997 191.296 62.049C191.279 62.134 191.266 62.2098 191.257 62.2761C191.322 62.3268 191.398 62.3853 191.496 62.4592L191.554 62.5029C191.686 62.6027 191.86 62.7346 192.029 62.8694C192.791 63.4776 194.327 64.8127 194.49 67.1764C194.591 68.6494 194.194 69.8031 193.755 70.6784C193.656 70.8746 193.552 71.064 193.454 71.233C193.955 71.78 194.255 72.3722 194.435 72.8228C194.698 73.4784 194.833 74.1482 194.895 74.7404C195.002 75.7701 194.956 77.3038 194.267 78.5954C194.154 78.8079 194.013 79.3598 194.14 80.3938C194.261 81.372 194.579 82.4279 194.936 83.3184C195.079 83.6768 195.226 83.9948 195.411 84.3945C195.482 84.5469 195.558 84.7111 195.642 84.894C195.918 85.4987 196.243 86.2455 196.496 87.0968C196.736 87.9037 196.92 88.8313 197.059 89.5301C197.106 89.767 197.148 89.9776 197.185 90.1483C197.341 90.8684 197.525 91.5561 197.733 92.3306C197.798 92.5746 197.866 92.8272 197.936 93.0922C198.213 94.1444 198.507 95.3327 198.687 96.603C198.772 97.2075 198.892 97.9075 199.021 98.6631C199.292 100.245 199.605 102.069 199.731 103.77C199.873 104.145 199.951 104.551 199.951 104.976C199.951 105.133 199.948 105.31 199.937 105.484C199.931 105.569 199.92 105.697 199.898 105.843L199.898 105.847C199.884 105.94 199.832 106.284 199.668 106.683C199.593 106.865 199.379 107.351 198.905 107.818C198.34 108.376 197.277 108.992 195.912 108.75C195.856 108.741 195.802 108.73 195.749 108.718C195.661 108.724 195.572 108.726 195.482 108.725C193.818 108.706 191.808 110.195 190.312 112.825C190.161 113.09 190.041 113.4 189.983 113.672C189.945 113.848 189.947 113.942 189.948 113.965C190.437 115.762 189.391 117.624 187.595 118.137C185.785 118.654 183.899 117.606 183.382 115.796C182.685 113.357 183.567 110.896 184.388 109.454C185.914 106.771 188.739 103.398 192.71 102.284C192.618 101.67 192.51 101.046 192.395 100.386C192.245 99.5246 192.085 98.602 191.937 97.5584C191.816 96.6995 191.607 95.8275 191.344 94.8292C191.291 94.6266 191.234 94.4145 191.175 94.195C190.96 93.3917 190.718 92.4899 190.523 91.5924C190.43 91.1634 190.361 90.8125 190.3 90.5039C190.191 89.9484 190.108 89.5298 189.962 89.0393C189.848 88.654 189.682 88.2542 189.44 87.7238C189.393 87.6203 189.34 87.5057 189.283 87.3824C189.079 86.9427 188.824 86.3934 188.607 85.8499C188.111 84.61 187.589 82.9653 187.375 81.2277C187.182 79.6616 187.195 77.6642 188.049 75.799C187.378 75.3823 186.123 74.3876 185.986 72.5053C185.876 70.9868 186.54 69.6649 186.755 69.2353C186.761 69.2229 186.767 69.2112 186.773 69.2002C186.98 68.7865 187.196 68.4232 187.346 68.1719L187.351 68.1643C187.397 68.0866 187.437 68.02 187.471 67.9618C187.465 67.9568 187.458 67.9517 187.451 67.9466L187.381 67.8935C187.223 67.7739 187.014 67.6145 186.8 67.4373C186.382 67.0898 185.793 66.5497 185.316 65.7812C184.511 64.4849 184.388 63.104 184.435 62.1006C184.484 61.0737 184.724 60.1303 184.96 59.4222C185.108 58.9771 185.293 58.5949 185.428 58.3311C185.498 58.1953 185.567 58.0652 185.622 57.9631L185.629 57.95C185.633 57.9431 185.636 57.9363 185.64 57.9297C185.352 57.9365 184.874 57.9419 184.373 57.8811C180.645 57.4277 177.916 55.2505 176.183 52.6337C174.481 50.0651 173.637 46.9557 173.54 44.0859C173.476 42.2047 174.949 40.6281 176.83 40.5643ZM183.741 120.959C183.949 122.83 182.601 124.515 180.73 124.723C164.81 126.492 148.915 128.265 133.073 130.338C115.254 132.669 97.6006 135.776 80.0213 139.568C77.9368 140.018 75.7722 140.536 73.561 141.065C69.0376 142.148 64.3193 143.277 59.694 143.963C57.8321 144.239 56.0991 142.953 55.8232 141.091C55.5474 139.229 56.8332 137.496 58.6951 137.22C63.0391 136.576 67.2247 135.572 71.5593 134.532C73.8444 133.984 76.1709 133.426 78.5839 132.905C96.3331 129.076 114.171 125.937 132.188 123.579C148.106 121.497 164.065 119.716 179.978 117.948C181.848 117.74 183.533 119.088 183.741 120.959Z" fill="#8CE0BE"/>
</g>
<g style="mix-blend-mode:multiply">
<path fill-rule="evenodd" clip-rule="evenodd" d="M38.2556 39.3842C40.0102 38.7028 41.985 39.5728 42.6664 41.3273C43.3247 43.0223 44.2363 44.4626 45.3421 46.2098C45.7572 46.8656 46.1996 47.5645 46.6662 48.3364C47.64 49.9472 47.1236 52.0424 45.5128 53.0162C43.902 53.99 41.8068 53.4736 40.833 51.8628C40.5363 51.372 40.203 50.8467 39.8511 50.2921C38.6507 48.4002 37.2336 46.1668 36.3125 43.795C35.6311 42.0404 36.501 40.0657 38.2556 39.3842Z" fill="#FFCE00"/>
</g>
<g style="mix-blend-mode:multiply">
<path fill-rule="evenodd" clip-rule="evenodd" d="M47.6497 54.3489C49.4089 53.6794 51.3777 54.5629 52.0472 56.322C52.0955 56.4491 52.1338 56.5117 52.2509 56.7035C52.3363 56.8432 52.4635 57.0514 52.667 57.4029C53.61 59.032 53.0538 61.117 51.4247 62.0599C49.7957 63.0029 47.7107 62.4467 46.7677 60.8177C46.7487 60.7847 46.7173 60.7336 46.6767 60.6673C46.4573 60.3095 45.9672 59.51 45.6765 58.7463C45.0071 56.9871 45.8905 55.0183 47.6497 54.3489Z" fill="#FFCE00"/>
</g>
<g style="mix-blend-mode:multiply">
<path fill-rule="evenodd" clip-rule="evenodd" d="M82.344 55.4934C84.2175 55.312 85.8834 56.6836 86.0649 58.5571C86.3733 61.7413 87.1025 64.6796 87.9145 67.9513C88.1463 68.8851 88.3848 69.8461 88.6222 70.8477C89.0563 72.6792 87.9234 74.5159 86.0919 74.9499C84.2604 75.384 82.4237 74.2512 81.9896 72.4196C81.791 71.5813 81.5783 70.727 81.3619 69.8575C80.5297 66.5141 79.642 62.9478 79.2803 59.2143C79.0989 57.3408 80.4705 55.6749 82.344 55.4934Z" fill="#F2A9C3"/>
</g>
<g style="mix-blend-mode:multiply">
<path fill-rule="evenodd" clip-rule="evenodd" d="M87.1288 80.3642C89.0097 80.2917 90.5932 81.7578 90.6656 83.6386C90.7427 85.6394 91.1086 87.4814 91.534 89.6229C91.689 90.4031 91.8519 91.2229 92.0116 92.1047C92.347 93.9568 91.1175 95.7302 89.2653 96.0656C87.4132 96.401 85.6398 95.1715 85.3044 93.3194C85.1919 92.6983 85.0608 92.0408 84.9241 91.3551C84.47 89.0779 83.9541 86.4907 83.8544 83.9009C83.7819 82.0201 85.248 80.4366 87.1288 80.3642Z" fill="#F2A9C3"/>
</g>
<g style="mix-blend-mode:multiply">
<path fill-rule="evenodd" clip-rule="evenodd" d="M90.8428 100.955C92.7237 100.883 94.3072 102.349 94.3796 104.23C94.4566 106.231 94.8226 108.073 95.248 110.214C95.403 110.994 95.5659 111.814 95.7256 112.696C96.061 114.548 94.8314 116.322 92.9793 116.657C91.1272 116.992 89.3538 115.763 89.0184 113.911C88.9059 113.29 88.7748 112.632 88.6381 111.946C88.184 109.669 87.6681 107.082 87.5684 104.492C87.4959 102.611 88.962 101.028 90.8428 100.955Z" fill="#F2A9C3"/>
</g>
<g style="mix-blend-mode:multiply">
<path fill-rule="evenodd" clip-rule="evenodd" d="M94.0182 119.136C95.9 119.096 97.4579 120.59 97.4978 122.471C97.5429 124.596 97.9351 126.478 98.413 128.772C98.5481 129.42 98.69 130.101 98.8329 130.83C99.1951 132.677 97.9912 134.468 96.1441 134.83C94.297 135.193 92.5061 133.989 92.144 132.142C92.0381 131.602 91.9209 131.043 91.8001 130.468C91.3013 128.093 90.7429 125.434 90.6831 122.616C90.6432 120.734 92.1363 119.176 94.0182 119.136Z" fill="#F2A9C3"/>
</g>
<g style="mix-blend-mode:multiply">
<path fill-rule="evenodd" clip-rule="evenodd" d="M123.791 8.09223C121.333 9.45224 118.783 10.5953 116.389 11.6684C115.898 11.8883 115.414 12.1053 114.939 12.3206C111.665 13.8034 108.294 14.8681 105.112 15.8487C104.877 15.9212 104.642 15.9933 104.409 16.0651C101.431 16.9811 98.634 17.8414 95.9378 18.9562C93.3812 20.0132 90.8522 21.1614 88.2652 22.3389L88.0517 22.4361C85.5499 23.5749 82.9913 24.7396 80.3906 25.8251C78.7843 26.4956 77.2135 27.2874 75.5165 28.1454L75.4475 28.1803C73.8065 29.0099 72.0423 29.9019 70.1993 30.6737C67.4712 31.8163 64.8266 33.1012 62.1155 34.4812C60.4521 35.3278 58.7625 36.0857 57.1503 36.8043C57.0579 36.8455 56.9658 36.8866 56.8739 36.9275C55.3388 37.6116 53.8778 38.2626 52.4518 38.9685C50.4717 39.9488 48.4041 40.8774 46.4069 41.7745C45.3947 42.2291 44.4006 42.6757 43.445 43.1167C38.9522 45.1903 34.5105 47.3179 30.1933 49.6064C27.1564 51.2162 24.7055 52.6472 22.2141 54.1018L21.9684 54.2452C19.3939 55.7482 16.7613 57.2792 13.4693 58.9994L13.2616 59.1079L13.0457 59.1853L13.0444 59.1858C13.042 59.1866 13.037 59.1885 13.0295 59.1912C13.0126 59.1975 12.9835 59.2084 12.9439 59.2235C12.8643 59.2539 12.7445 59.3008 12.5983 59.3613C12.4098 59.4394 12.1911 59.5345 11.9663 59.6407C11.9761 59.6653 11.9862 59.6906 11.9965 59.7166C12.4286 60.8054 12.9911 62.4132 12.9911 64.4194C12.9911 67.333 11.4806 70.34 9.82185 72.0614C9.31399 72.5884 8.76551 72.9528 8.34625 73.2002C8.19799 73.2877 8.04585 73.3718 7.89942 73.4498C8.00656 73.5851 8.11124 73.7305 8.21206 73.8871C8.62684 74.5311 8.90302 75.2486 9.07591 76.0171C9.2689 76.8748 9.26522 77.6266 9.23402 78.1755C9.22439 78.3448 9.21084 78.5109 9.19872 78.6491C10.192 79.5066 10.8791 80.4958 11.2787 81.6857C11.4075 82.0692 11.5006 82.4736 11.5701 82.8625C11.5799 82.8642 11.5897 82.8659 11.5994 82.8676C11.8161 82.9054 12.0997 82.9594 12.3946 83.0389C12.6721 83.1137 13.0996 83.2471 13.5461 83.4951C15.1291 84.3746 16.2162 85.7528 16.5418 87.5118C16.7867 88.8348 16.5356 90.073 16.2751 90.9633C16.3214 91.0176 16.3735 91.0777 16.4328 91.1454C18.141 93.0941 19.4905 95.3192 20.6658 97.2569C21.0053 97.8167 21.3303 98.3525 21.6452 98.8508C23.5912 101.93 25.345 105.187 26.9148 108.398C27.2409 109.065 27.5916 109.763 27.9521 110.48C28.7299 112.027 29.5529 113.664 30.2705 115.276C30.4089 115.587 30.5664 115.894 30.7658 116.275C30.7811 116.305 30.7968 116.335 30.8129 116.366C30.9905 116.705 31.211 117.127 31.4101 117.562C31.5049 117.769 31.5992 117.988 31.6891 118.219C32.3035 118.238 32.933 118.291 33.5265 118.359C35.0353 118.533 36.7317 118.857 37.7416 119.209C40.8358 120.288 42.8294 122.458 44.1965 124.693C44.8711 125.028 45.4396 125.587 45.7778 126.325C46.5621 128.036 45.8107 130.059 44.0996 130.844C43.7345 131.011 43.0236 131.297 42.1323 131.264C41.0185 131.224 40.1181 130.715 39.5125 130.066C39.0802 129.602 38.8363 129.098 38.7713 128.963C38.768 128.956 38.7651 128.95 38.7627 128.946C38.7021 128.822 38.6784 128.771 38.6659 128.744C38.6544 128.72 38.6525 128.716 38.6402 128.694C37.7123 127.023 36.7347 126.077 35.4965 125.645C35.1809 125.535 34.0578 125.282 32.7478 125.131C32.1276 125.06 31.5711 125.024 31.1451 125.028C30.9615 125.029 30.8448 125.038 30.7826 125.044C30.6401 125.101 30.4448 125.176 30.2523 125.234C30.2475 125.236 30.2415 125.238 30.2344 125.24C30.0356 125.302 28.9516 125.638 27.7415 125.14C26.1312 124.478 25.7081 123.032 25.6034 122.555C25.498 122.074 25.4981 121.619 25.4982 121.443V121.433C25.4982 121.172 25.4413 120.899 25.2121 120.399C25.0905 120.133 24.9496 119.863 24.7509 119.483L24.7236 119.43C24.5251 119.05 24.2778 118.574 24.0437 118.049C23.3896 116.58 22.6932 115.196 21.9579 113.734C21.5792 112.981 21.1901 112.208 20.7911 111.392C19.2981 108.338 17.6632 105.309 15.8832 102.492C15.4227 101.764 15.0083 101.082 14.6164 100.437C13.5124 98.6214 12.5863 97.0979 11.3069 95.6384L11.2887 95.6176C10.8518 95.1193 10.0946 94.2557 9.67804 93.1249C9.20514 91.8412 9.27801 90.5986 9.61061 89.4485C9.46428 89.4231 9.32068 89.3968 9.20054 89.3722C8.73903 89.2774 7.9175 89.0854 7.13615 88.6172C6.23886 88.0794 5.19866 87.0376 5.01397 85.3754C4.99513 85.2058 4.97735 85.0339 4.96185 84.8839C4.95596 84.827 4.95039 84.7732 4.94522 84.7238C4.9249 84.53 4.90803 84.3794 4.89025 84.2472C4.86206 84.0375 4.83859 83.9325 4.82542 83.8839C4.79583 83.8531 4.73266 83.7933 4.61597 83.7058C3.81367 83.1041 3.1475 82.3319 2.74467 81.3515C2.35709 80.4082 2.32596 79.5386 2.34385 78.9624C2.35261 78.68 2.3761 78.4145 2.39218 78.2351L2.39776 78.173C2.41298 78.0037 2.42252 77.8976 2.42872 77.7886C2.43028 77.7611 2.43141 77.7362 2.4322 77.7137C2.11401 77.5119 1.51372 77.0817 1.05685 76.3392L1.04731 76.3237C0.852954 76.0081 0.302915 75.115 0.11541 73.9496C-0.109498 72.5517 0.212699 70.9557 1.44707 69.609C2.3639 68.6087 3.51597 68.0301 4.10335 67.735C4.1258 67.7238 4.14742 67.7129 4.16818 67.7025L4.24317 67.6647C4.55781 67.5063 4.73014 67.4195 4.88195 67.3299C4.91827 67.3085 4.94416 67.2921 4.96129 67.2808C5.59058 66.5927 6.17486 65.2635 6.17486 64.4194C6.17486 63.6991 5.9831 63.0428 5.66093 62.2311C5.62491 62.1403 5.57412 62.0165 5.51642 61.8759C5.38431 61.554 5.21599 61.1437 5.10575 60.8394C4.93151 60.3584 4.66624 59.55 4.66624 58.619C4.66624 56.683 5.99681 55.4735 6.45078 55.0838C7.09333 54.5322 7.83031 54.1026 8.39814 53.8044C8.99673 53.4901 9.57496 53.2357 9.99089 53.0635C10.1957 52.9787 10.3694 52.9104 10.4974 52.8614C13.5503 51.2605 16.0152 49.8278 18.5319 48.3586L18.8026 48.2006C21.2825 46.7526 23.8385 45.2603 27.0009 43.5839C31.4758 41.2118 36.0443 39.0252 40.5886 36.9278C41.6833 36.4225 42.7441 35.9464 43.7854 35.479C45.7023 34.6185 47.5531 33.7878 49.4277 32.8598C50.9823 32.0902 52.5621 31.3863 54.0686 30.7152C54.1711 30.6695 54.2733 30.624 54.3751 30.5786C55.9973 29.8555 57.5368 29.1633 59.0234 28.4065C61.7986 26.9939 64.6134 25.6232 67.5662 24.3865C69.1721 23.714 70.7424 22.9211 72.4411 22.0623L72.4707 22.0474C74.1245 21.2113 75.9038 20.3117 77.7651 19.5348C80.2641 18.4917 82.7364 17.3664 85.2667 16.2146L85.4414 16.1351C88.0154 14.9635 90.6496 13.7667 93.3333 12.6571C96.3396 11.4141 99.4342 10.463 102.353 9.566C102.605 9.48854 102.856 9.41148 103.105 9.33467C106.301 8.34965 109.292 7.39532 112.127 6.11153C112.647 5.87568 113.161 5.64506 113.668 5.41741C116.493 4.14945 119.112 2.97362 121.586 1.49978C122.472 0.971786 123.121 0.706613 123.707 0.467575C123.86 0.405036 124.009 0.344286 124.156 0.281086L125.499 3.41366L125.256 4.07853M44.8807 125.94C44.9086 125.991 44.9108 126.002 44.8861 125.951L44.885 125.949C44.8841 125.947 44.8827 125.944 44.8807 125.94ZM123.791 8.09223C124.744 10.2445 126.042 12.7288 129.041 14.5752C131.659 16.1866 134.128 16.3127 136.403 16.4288C136.474 16.4325 136.545 16.4361 136.616 16.4398C137.664 16.4939 138.707 16.2146 139.33 16.0246C139.713 16.8742 140.219 17.5162 140.63 17.9768C140.864 18.2395 141.102 18.4788 141.271 18.6493L141.292 18.6708C141.311 18.6896 141.328 18.7075 141.345 18.7247C141.269 18.8435 141.186 18.976 141.108 19.1092C140.932 19.4089 140.654 19.917 140.48 20.5336C140.313 21.1257 140.11 22.2843 140.716 23.5144C141.122 24.3386 141.719 24.8532 142.156 25.1516C142.501 25.387 142.839 25.5504 143.095 25.6598C142.963 26.2099 142.931 26.7925 143.024 27.3907C143.168 28.3097 143.57 28.9963 143.859 29.413C144.101 29.7615 144.386 30.085 144.523 30.2405C144.539 30.2581 144.552 30.2735 144.564 30.2866C144.708 30.4512 144.743 30.4984 144.743 30.4984C145.732 32.0395 146.501 33.3543 146.998 34.7349C147.154 35.1696 147.375 35.7192 147.564 36.1902C147.662 36.4347 147.751 36.658 147.819 36.833C148.072 37.4879 148.222 37.954 148.288 38.3011C148.381 38.7877 148.541 39.1935 148.685 39.4962C148.829 39.7996 148.985 40.0579 149.107 40.2489C149.146 40.3102 149.186 40.3705 149.224 40.428C149.155 41.5159 149.607 42.6182 150.532 43.3385C152.017 44.4949 154.158 44.2285 155.315 42.7434C156.127 41.7001 156.37 40.4716 156.175 39.3351C156.013 38.3972 155.578 37.6771 155.363 37.3383C155.243 37.1488 155.12 36.971 155.038 36.8528L155.031 36.8437C154.978 36.7673 154.94 36.7113 154.909 36.6659C154.716 35.8196 154.426 35.0195 154.177 34.3742C154.031 33.9974 153.91 33.6989 153.802 33.4326C153.659 33.0775 153.538 32.7794 153.412 32.4287C152.638 30.2765 151.506 28.4163 150.476 26.8113C150.344 26.6052 150.204 26.4163 150.076 26.254C150.295 25.2678 150.262 24.2272 149.921 23.218C149.554 22.1321 148.884 21.2396 148.049 20.568C148.407 19.5164 148.523 18.4 148.254 17.2624C147.955 15.9963 147.268 15.1045 146.788 14.5615C146.559 14.3014 146.32 14.0611 146.152 13.8917L146.133 13.8719C145.941 13.6785 145.821 13.5562 145.715 13.4379C145.685 13.4044 145.66 13.375 145.639 13.3496C145.645 13.2293 145.653 13.0585 145.655 12.9326C145.659 12.6963 145.658 12.2371 145.539 11.7163C145.41 11.1536 145.115 10.4022 144.446 9.74756C143.777 9.0924 142.998 8.79364 142.353 8.66944C141.25 8.45694 140.123 8.68006 139.288 8.88875C138.931 8.978 138.559 9.10184 138.294 9.19092C138.218 9.21676 138.145 9.24133 138.075 9.26491C137.863 9.33679 137.678 9.39946 137.482 9.46103C137.229 9.54058 137.045 9.59011 136.913 9.6173C136.893 9.62148 136.876 9.62467 136.862 9.62708C134.451 9.50062 133.622 9.391 132.614 8.77059C131.226 7.91629 130.704 6.91022 129.683 4.55036C129.477 4.07307 129.477 3.94287 129.477 3.92487C129.477 3.07933 129.16 2.46035 129.088 2.32179L129.084 2.31341C128.963 2.07603 128.835 1.89058 128.751 1.77459C128.575 1.53489 128.383 1.32327 128.203 1.14969C128.037 0.989541 127.761 0.744183 127.396 0.526032C127.218 0.42003 126.893 0.243216 126.459 0.124953C126.066 0.0180014 125.17 -0.153229 124.156 0.281086L125.499 3.41366M154.809 36.5086C154.809 36.5086 154.815 36.5191 154.825 36.5378C154.813 36.5175 154.809 36.5086 154.809 36.5086Z" fill="#FF9661"/>
</g>
<path d="M150.054 87.2695C146.056 86.6489 144.074 86.4091 140.095 86.0552C138.649 85.9337 138.26 83.9601 139.553 83.1727C143.058 81.0829 144.804 80.101 148.329 78.2779C148.921 77.9714 149.147 77.2615 148.824 76.6377C148.341 75.7805 148.132 75.375 147.68 74.5016C147.373 73.909 146.616 73.6681 146.024 73.9746C142.484 75.845 140.755 76.8582 137.265 78.9792C135.973 79.7665 134.51 78.4673 135.166 77.0604C136.858 73.2992 137.712 71.4342 139.436 67.7354C139.71 67.1191 139.449 66.3845 138.849 66.1414C137.98 65.7607 137.553 65.5466 136.684 65.1659C136.067 64.8916 135.349 65.1842 135.091 65.8317C133.399 69.5929 132.545 71.4579 130.854 75.2976C130.245 76.7194 128.265 76.6367 127.978 75.1643C127.249 71.2321 126.861 69.2584 126.115 65.295C126.012 64.6367 125.378 64.2528 124.721 64.4345C123.798 64.7142 123.313 64.8465 122.407 65.1573C121.766 65.3703 121.335 66.0672 121.47 66.7093C124.214 81.2626 126.941 95.7847 129.685 110.338C129.788 110.996 130.453 111.364 131.063 111.167C131.986 110.888 132.455 110.724 133.394 110.476C134.051 110.294 134.481 109.597 134.347 108.955C133.617 105.023 133.229 103.049 132.484 99.0855C132.196 97.6131 133.94 96.4741 135.021 97.4174C137.883 99.9697 139.346 101.269 142.256 103.915C142.734 104.379 143.486 104.306 143.966 103.781C144.616 103.05 144.941 102.684 145.606 101.984C146.055 101.475 146.06 100.721 145.552 100.273C142.656 97.5798 141.177 96.2493 138.283 93.6346C137.217 92.644 138.071 90.779 139.518 90.9006C143.48 91.2232 145.446 91.4319 149.459 92.0052C150.136 92.0901 150.742 91.6577 150.827 90.9812C150.971 90.0369 151.012 89.5808 151.14 88.6053C151.179 87.9922 150.73 87.3545 150.054 87.2695Z" fill="#00DA93"/>
</svg>
