<svg width="328" height="131" viewBox="0 0 328 131" fill="none" xmlns="http://www.w3.org/2000/svg">
<rect x="0.5" y="0.5" width="327" height="129.917" rx="7.5" fill="white"/>
<path d="M131.299 69.2621L123.334 66.6765C122.152 66.2922 122.152 64.6212 123.334 64.2369L131.299 61.6513C131.831 61.4792 132.124 60.9071 131.95 60.375L131.33 58.4693C131.158 57.9372 130.585 57.6451 130.053 57.819L122.088 60.4046C120.906 60.7889 119.923 59.4361 120.652 58.431L125.574 51.6619C125.903 51.2098 125.802 50.5751 125.35 50.2465L123.726 49.0676C123.273 48.7389 122.638 48.8398 122.309 49.2919L117.387 56.061C116.656 57.0661 115.065 56.5496 115.065 55.3081V46.9427C115.065 46.3828 114.611 45.929 114.05 45.929H112.044C111.483 45.929 111.029 46.3828 111.029 46.9427V83.9741C111.029 84.534 111.483 84.9878 112.044 84.9878H114.05C114.611 84.9878 115.065 84.534 115.065 83.9741V75.6087C115.065 74.3672 116.656 73.8508 117.387 74.8558L122.309 81.625C122.638 82.0771 123.272 82.1779 123.726 81.8493L125.35 80.6704C125.802 80.3417 125.903 79.7071 125.574 79.255L120.652 72.4858C119.921 71.4808 120.904 70.128 122.088 70.5123L130.053 73.0979C130.585 73.27 131.158 72.9796 131.33 72.4476L131.95 70.5401C132.122 70.008 131.831 69.4359 131.299 69.2638V69.2621Z" fill="#00DA93"/>
<path d="M44.1848 55.009C42.7402 55.009 41.4871 53.9501 41.4871 52.3469C41.4871 50.7437 42.7402 49.6848 44.1848 49.6848C45.6295 49.6848 46.8826 50.7437 46.8826 52.3469C46.8826 53.9501 45.6295 55.009 44.1848 55.009ZM45.1108 73.423H43.2902C42.9996 73.423 42.7211 73.3082 42.5157 73.1031C42.3103 72.8979 42.1954 72.6197 42.1954 72.3293V58.4797C42.1954 58.1893 42.3103 57.9111 42.5157 57.7059C42.7211 57.5008 42.9996 57.3843 43.2902 57.3843H45.1108C45.4015 57.3843 45.6799 57.499 45.8853 57.7042C46.0907 57.9094 46.2056 58.1876 46.2056 58.478V72.3276C46.2056 72.6179 46.0907 72.8961 45.8853 73.1013C45.6799 73.3065 45.4015 73.423 45.1108 73.423Z" fill="#00472B"/>
<path d="M38.671 57.7042C38.4656 57.499 38.1872 57.3825 37.8965 57.3825H29.0948C28.8041 57.3825 28.5256 57.4973 28.3203 57.7024C28.1149 57.9076 28 58.1876 28 58.478V72.3276C28 72.6179 28.1149 72.8961 28.3203 73.1013C28.5256 73.3065 28.8041 73.423 29.0948 73.423H30.9153C31.206 73.423 31.4845 73.3082 31.6899 73.1031C31.8952 72.8979 32.0101 72.6197 32.0101 72.3293V61.3939H37.8948C38.1854 61.3939 38.4639 61.2792 38.6693 61.074C38.8747 60.8688 38.9895 60.5889 38.9895 60.2985V58.4797C38.9895 58.1893 38.8747 57.9111 38.6693 57.7059L38.671 57.7042Z" fill="#00472B"/>
<path d="M54.5634 73.423H51.7421C51.4514 73.423 51.1729 73.3082 50.9676 73.103C50.7622 72.8979 50.6473 72.6197 50.6473 72.3293V69.961C49.9093 68.6778 49.5229 67.1059 49.5229 65.4054C49.5229 63.7048 49.9076 62.1329 50.6473 60.8497V51.4219C50.6473 51.1315 50.7622 50.8533 50.9676 50.6481C51.1729 50.4429 51.4514 50.3264 51.7421 50.3264H53.5627C53.8533 50.3264 54.1318 50.4412 54.3372 50.6464C54.5426 50.8515 54.6574 51.1297 54.6574 51.4201V57.3512C55.653 56.9669 56.8087 56.7409 58.0288 56.7409C63.1337 56.7409 66.5381 60.3976 66.5381 65.4019C66.5381 70.4062 63.1337 74.0629 58.0288 74.0629C56.7756 74.0629 55.5886 73.8386 54.56 73.4213L54.5634 73.423ZM62.5263 65.4036C62.5263 62.6441 60.6639 60.5923 58.0305 60.5923C55.3971 60.5923 53.5348 62.6459 53.5348 65.4036C53.5348 68.1614 55.3971 70.2149 58.0305 70.2149C60.6639 70.2149 62.5263 68.1614 62.5263 65.4036Z" fill="#00472B"/>
<path d="M85.7516 65.4036C85.7516 70.4079 82.3471 74.0646 77.2422 74.0646C72.1373 74.0646 68.7329 70.4079 68.7329 65.4036C68.7329 60.3993 72.1373 56.7426 77.2422 56.7426C82.3471 56.7426 85.7516 60.3993 85.7516 65.4036ZM72.7465 65.4036C72.7465 68.1614 74.6088 70.2149 77.2422 70.2149C79.8756 70.2149 81.738 68.1614 81.738 65.4036C81.738 62.6459 79.8756 60.5923 77.2422 60.5923C74.6088 60.5923 72.7465 62.6459 72.7465 65.4036Z" fill="#00472B"/>
<path d="M89.7843 57.3842H91.5788C91.7842 57.3842 91.9809 57.4659 92.1271 57.6102C92.3812 57.8641 92.7711 57.9041 93.0791 57.7198C94.1252 57.0938 95.4062 56.7408 96.7812 56.7408C100.699 56.7408 103.588 59.5647 103.588 63.317V72.3275C103.588 72.6179 103.473 72.8961 103.268 73.1013C103.063 73.3065 102.784 73.423 102.494 73.423H100.673C100.382 73.423 100.104 73.3082 99.8984 73.1013C99.693 72.8961 99.5782 72.6179 99.5782 72.3275V63.7987C99.5782 61.8425 98.0361 60.4306 96.1424 60.4306C94.2487 60.4306 92.7067 61.7138 92.7067 63.477V72.3258C92.7067 72.6162 92.5918 72.8944 92.3864 73.0995C92.181 73.3047 91.9025 73.4212 91.6119 73.4212H89.7913C89.5006 73.4212 89.2222 73.3065 89.0168 73.0995C88.8114 72.8944 88.6965 72.6162 88.6965 72.3258V58.4779C88.6965 58.1875 88.8114 57.9093 89.0168 57.7041C89.2222 57.499 89.5006 57.3825 89.7913 57.3825L89.7843 57.3842Z" fill="#00472B"/>
<path d="M161.712 77.0394V58.9371H166.288V77.0394H161.712ZM154.949 70.2766V65.6999H173.051V70.2766H154.949Z" fill="#6DDFA6"/>
<g style="mix-blend-mode:multiply">
<path fill-rule="evenodd" clip-rule="evenodd" d="M285.969 49.8805C286.127 50.8469 285.472 51.7586 284.506 51.9167C281.598 52.3925 278.565 52.7523 275.579 53.1064C273.41 53.3638 271.265 53.6182 269.212 53.9119C260.9 55.1011 252.624 56.608 244.339 58.1741C242.17 58.5841 239.973 59.037 237.757 59.4938C232.722 60.5317 227.588 61.5898 222.463 62.2111C222.326 62.2277 222.191 62.2282 222.059 62.2141C222.512 62.5476 222.799 63.0902 222.781 63.6946C222.707 66.1956 221.396 68.5567 218.89 69.6311C218.766 69.684 218.634 69.7599 218.387 69.9071C218.377 69.913 218.367 69.9191 218.356 69.9254C218.227 70.0026 218.06 70.1028 217.868 70.2036C217.843 70.26 217.819 70.321 217.797 70.3814C217.765 70.4696 217.748 70.5289 217.744 70.5443C217.731 70.5958 217.719 70.6513 217.709 70.7063C217.709 70.7075 217.709 70.7087 217.708 70.7099C217.738 70.7419 217.775 70.7813 217.824 70.8325C217.833 70.8426 217.844 70.8538 217.856 70.866C218.06 71.08 218.558 71.6013 218.766 72.3451C219.081 73.4701 218.669 74.3819 218.373 74.9012C218.264 75.0914 218.131 75.2952 218.041 75.4337C218.017 75.4695 217.997 75.5009 217.98 75.5267C217.873 75.6937 217.836 75.7651 217.822 75.7991C217.756 75.9568 217.702 76.1238 217.661 76.2951C217.677 76.3077 217.694 76.3211 217.711 76.3353C217.711 76.3353 217.712 76.3353 217.711 76.3353L217.717 76.3398L217.717 76.3399C218.121 76.6603 218.817 77.2192 219.126 78.0769C219.489 79.0861 219.182 80.0123 218.82 80.7105C218.659 81.0233 218.641 81.0876 218.636 81.1082L218.636 81.1089C218.633 81.1213 218.615 81.1894 218.615 81.5114C218.615 81.7171 218.599 81.9327 218.588 82.0829L218.587 82.102C218.574 82.2782 218.565 82.4049 218.563 82.522C218.562 82.557 218.562 82.5868 218.563 82.612C219.188 83.5881 219.875 84.7058 220.008 86.3752C220.135 87.9749 220.329 89.5484 220.691 91.016C220.755 91.2776 220.86 91.5101 220.915 91.5889C221.329 92.1868 221.464 92.808 221.526 93.2488C221.546 93.3931 221.56 93.5341 221.57 93.6572C221.842 93.709 222.272 93.8011 222.702 94.0047C223.524 94.3936 224.843 95.0676 225.688 96.1542C226.289 96.9272 226.15 98.0411 225.377 98.6424C224.604 99.2436 223.49 99.1043 222.889 98.3313C222.615 97.9785 222.016 97.603 221.186 97.2104C221.162 97.1988 221.104 97.1777 220.801 97.121C220.785 97.118 220.768 97.1149 220.75 97.1116C220.502 97.0657 220.041 96.9807 219.586 96.7763C218.982 96.5043 218.641 96.0218 218.479 95.7444C218.299 95.4348 218.155 95.0588 218.103 94.6697C218.077 94.473 218.062 94.2771 218.051 94.1335L218.049 94.106C218.036 93.9421 218.027 93.8339 218.013 93.7371C218.001 93.6494 217.989 93.6033 217.983 93.5845C217.604 93.0277 217.369 92.355 217.248 91.8655C216.819 90.1289 216.606 88.3389 216.473 86.6558C216.411 85.8751 216.139 85.4018 215.477 84.3699C215.014 83.6481 215.01 82.8335 215.017 82.455C215.021 82.2364 215.037 82.0225 215.048 81.8671L215.05 81.8451C215.063 81.6626 215.069 81.5726 215.069 81.5114C215.069 81.0971 215.086 80.6743 215.202 80.2232C215.302 79.8333 215.459 79.4973 215.611 79.1969C215.581 79.1723 215.549 79.146 215.513 79.1177C215.513 79.1177 215.513 79.1176 215.513 79.1176L215.507 79.1131C215.492 79.1011 215.475 79.0878 215.457 79.0735C215.238 78.9016 214.816 78.57 214.519 78.1258C214.101 77.5021 213.994 76.8119 214.09 76.1156C214.17 75.5432 214.324 74.9704 214.551 74.4277C214.692 74.0915 214.873 73.8026 214.997 73.6095C215.045 73.535 215.085 73.4741 215.119 73.4217C215.163 73.3545 215.198 73.301 215.229 73.2501C215.226 73.2464 215.222 73.2425 215.218 73.2385C215.122 73.1375 214.965 72.9715 214.822 72.7906C214.655 72.5792 214.453 72.2834 214.312 71.9023C214.117 71.3758 214.131 70.8583 214.155 70.5558C214.183 70.2156 214.249 69.9035 214.304 69.6842C214.378 69.3879 214.523 68.9706 214.711 68.5851C214.806 68.3902 214.936 68.1518 215.106 67.9247C215.247 67.7372 215.559 67.3558 216.074 67.135C216.192 67.0846 216.32 67.011 216.57 66.8621C216.578 66.857 216.587 66.8519 216.595 66.8466C216.811 66.7178 217.131 66.5264 217.493 66.3716C218.548 65.9192 219.197 64.9207 219.236 63.5903C219.265 62.6115 220.082 61.8413 221.061 61.8701C221.107 61.8715 221.154 61.8747 221.199 61.8796C220.819 61.5999 220.551 61.1699 220.489 60.6642C220.372 59.6921 221.064 58.8085 222.036 58.6906C227.013 58.0874 231.906 57.0783 236.869 56.0548C239.12 55.5905 241.386 55.1233 243.68 54.6896C251.974 53.1218 260.316 51.6025 268.71 50.4015C270.98 50.0766 273.17 49.8186 275.334 49.5635C278.202 49.2256 281.025 48.8929 283.933 48.417C284.9 48.2589 285.811 48.9141 285.969 49.8805ZM287.972 49.104C288.95 49.0708 289.771 49.8373 289.804 50.816C289.835 51.7488 290.117 52.7092 290.591 53.4247C291.048 54.1146 291.626 54.5074 292.322 54.5927C292.324 54.5928 292.337 54.5938 292.365 54.5941C292.408 54.5946 292.454 54.5936 292.541 54.5915L292.563 54.5909C292.71 54.5873 292.991 54.5802 293.29 54.6201C293.629 54.6653 294.03 54.7647 294.413 54.923C294.755 55.0641 295.315 55.3448 295.722 55.8793C296.214 56.5258 296.22 57.2877 296.221 57.5314C296.222 57.7129 296.212 57.881 296.203 58.001C296.199 58.0644 296.196 58.1081 296.193 58.1414C296.19 58.1877 296.188 58.2138 296.186 58.2443C296.157 58.8907 295.89 59.4124 295.769 59.6463C295.737 59.709 295.704 59.7704 295.678 59.819L295.671 59.8313C295.642 59.8861 295.62 59.9261 295.601 59.9628C295.575 60.0151 295.565 60.0388 295.563 60.043C295.537 60.1227 295.514 60.2039 295.498 60.2816C295.488 60.3257 295.482 60.3652 295.477 60.3997C295.511 60.4261 295.551 60.4565 295.601 60.495L295.631 60.5177C295.7 60.5696 295.791 60.6382 295.879 60.7083C296.275 61.0248 297.074 61.7194 297.159 62.9491C297.212 63.7154 297.005 64.3157 296.776 64.7711C296.725 64.8731 296.671 64.9717 296.62 65.0595C296.881 65.3442 297.037 65.6522 297.131 65.8866C297.267 66.2278 297.338 66.5762 297.37 66.8843C297.426 67.42 297.402 68.2179 297.043 68.8899C296.984 69.0005 296.911 69.2876 296.977 69.8255C297.04 70.3344 297.206 70.8838 297.391 71.3471C297.466 71.5335 297.542 71.699 297.638 71.9069C297.675 71.9862 297.715 72.0716 297.758 72.1668C297.902 72.4814 298.071 72.8699 298.203 73.3128C298.328 73.7326 298.423 74.2152 298.496 74.5787C298.52 74.702 298.542 74.8115 298.561 74.9003C298.642 75.275 298.738 75.6328 298.846 76.0357C298.88 76.1626 298.915 76.2941 298.952 76.4319C299.096 76.9793 299.249 77.5975 299.342 78.2585C299.387 78.5729 299.449 78.9371 299.517 79.3302C299.657 80.153 299.82 81.1024 299.886 81.987C299.96 82.1821 300 82.3937 300 82.6147C300 82.6964 299.999 82.7884 299.993 82.8787C299.99 82.9232 299.984 82.9895 299.973 83.0657L299.973 83.0674C299.965 83.1158 299.938 83.2951 299.853 83.5024C299.814 83.5971 299.702 83.8501 299.456 84.0933C299.162 84.3833 298.609 84.7038 297.899 84.5781C297.87 84.5731 297.842 84.5674 297.814 84.5611C297.768 84.5642 297.722 84.5655 297.675 84.565C296.81 84.5552 295.764 85.3298 294.986 86.6979C294.907 86.8358 294.844 86.9969 294.814 87.1389C294.795 87.2301 294.796 87.2789 294.796 87.2913C295.05 88.2262 294.506 89.1946 293.572 89.4615C292.631 89.7306 291.649 89.1853 291.38 88.2438C291.018 86.975 291.477 85.6944 291.903 84.9442C292.697 83.5486 294.167 81.7937 296.233 81.2142C296.185 80.8944 296.129 80.5698 296.069 80.2264C295.991 79.7784 295.908 79.2984 295.831 78.7555C295.768 78.3087 295.659 77.855 295.523 77.3356C295.495 77.2302 295.465 77.1198 295.435 77.0057C295.322 76.5877 295.197 76.1185 295.095 75.6516C295.047 75.4285 295.011 75.2459 294.979 75.0853C294.922 74.7963 294.879 74.5786 294.804 74.3234C294.744 74.123 294.658 73.9149 294.532 73.639C294.507 73.5851 294.48 73.5255 294.45 73.4614C294.344 73.2326 294.211 72.9468 294.098 72.6641C293.84 72.019 293.569 71.1634 293.458 70.2594C293.357 69.4446 293.364 68.4055 293.808 67.435C293.459 67.2183 292.806 66.7007 292.735 65.7215C292.678 64.9315 293.023 64.2437 293.135 64.0203C293.138 64.0138 293.141 64.0077 293.144 64.002C293.252 63.7868 293.365 63.5977 293.443 63.467L293.445 63.4631C293.469 63.4226 293.49 63.388 293.508 63.3577C293.504 63.3551 293.501 63.3525 293.497 63.3498L293.461 63.3222C293.378 63.2599 293.269 63.177 293.158 63.0848C292.941 62.904 292.634 62.6231 292.386 62.2232C291.968 61.5488 291.904 60.8304 291.928 60.3084C291.953 59.7741 292.078 59.2833 292.201 58.915C292.278 58.6834 292.374 58.4845 292.445 58.3473C292.481 58.2767 292.517 58.209 292.546 58.1558L292.549 58.1491C292.551 58.1455 292.553 58.1419 292.555 58.1384C292.405 58.142 292.156 58.1448 291.896 58.1132C289.956 57.8773 288.536 56.7446 287.635 55.3832C286.749 54.0469 286.31 52.4292 286.26 50.9362C286.226 49.9575 286.993 49.1372 287.972 49.104ZM294.307 67.6909C294.307 67.6911 294.304 67.6896 294.299 67.6866C294.304 67.6894 294.307 67.6908 294.307 67.6909ZM296.252 65.7292C296.252 65.7291 296.252 65.729 296.252 65.7289C296.252 65.7294 296.252 65.7295 296.252 65.7292ZM291.567 90.9297C291.675 91.903 290.974 92.7797 290.001 92.8878C281.718 93.8081 273.448 94.731 265.206 95.8093C255.936 97.0221 246.752 98.6381 237.606 100.611C236.522 100.845 235.396 101.115 234.245 101.39C231.892 101.953 229.437 102.541 227.031 102.898C226.062 103.041 225.161 102.372 225.017 101.403C224.874 100.435 225.542 99.5331 226.511 99.3896C228.771 99.0548 230.949 98.5323 233.204 97.9912C234.393 97.706 235.603 97.4155 236.858 97.1447C246.092 95.1526 255.373 93.5194 264.746 92.293C273.028 91.2096 281.33 90.2831 289.609 89.3633C290.582 89.2551 291.459 89.9565 291.567 90.9297Z" fill="#8CE0BE"/>
</g>
<g style="mix-blend-mode:multiply">
<path fill-rule="evenodd" clip-rule="evenodd" d="M215.877 48.4899C216.79 48.1354 217.817 48.588 218.172 49.5009C218.514 50.3827 218.989 51.132 219.564 52.041C219.78 52.3821 220.01 52.7458 220.253 53.1474C220.76 53.9854 220.491 55.0754 219.653 55.5821C218.815 56.0887 217.725 55.82 217.218 54.982C217.064 54.7266 216.89 54.4534 216.707 54.1648C216.083 53.1805 215.346 52.0186 214.866 50.7847C214.512 49.8719 214.964 48.8445 215.877 48.4899Z" fill="#FFCE00"/>
</g>
<g style="mix-blend-mode:multiply">
<path fill-rule="evenodd" clip-rule="evenodd" d="M220.765 56.2753C221.68 55.927 222.704 56.3866 223.053 57.3019C223.078 57.3679 223.098 57.4005 223.159 57.5003C223.203 57.573 223.269 57.6813 223.375 57.8642C223.866 58.7117 223.576 59.7965 222.729 60.287C221.881 60.7776 220.796 60.4882 220.306 59.6407C220.296 59.6236 220.28 59.597 220.259 59.5625C220.144 59.3764 219.889 58.9604 219.738 58.5631C219.39 57.6479 219.85 56.6236 220.765 56.2753Z" fill="#FFCE00"/>
</g>
<g style="mix-blend-mode:multiply">
<path fill-rule="evenodd" clip-rule="evenodd" d="M238.815 56.8706C239.789 56.7762 240.656 57.4898 240.751 58.4645C240.911 60.1211 241.29 61.6497 241.713 63.3519C241.833 63.8377 241.958 64.3376 242.081 64.8587C242.307 65.8116 241.717 66.7671 240.765 66.9929C239.812 67.2188 238.856 66.6294 238.63 65.6765C238.527 65.2404 238.416 64.7959 238.304 64.3436C237.871 62.6042 237.409 60.7488 237.221 58.8064C237.126 57.8317 237.84 56.965 238.815 56.8706Z" fill="#F2A9C3"/>
</g>
<g style="mix-blend-mode:multiply">
<path fill-rule="evenodd" clip-rule="evenodd" d="M241.304 69.81C242.282 69.7723 243.106 70.535 243.144 71.5136C243.184 72.5545 243.374 73.5128 243.595 74.6269C243.676 75.0328 243.761 75.4593 243.844 75.9181C244.018 76.8817 243.379 77.8043 242.415 77.9788C241.452 78.1533 240.529 77.5136 240.354 76.55C240.296 76.2269 240.228 75.8848 240.157 75.5281C239.92 74.3433 239.652 72.9973 239.6 71.65C239.562 70.6715 240.325 69.8477 241.304 69.81Z" fill="#F2A9C3"/>
</g>
<g style="mix-blend-mode:multiply">
<path fill-rule="evenodd" clip-rule="evenodd" d="M243.236 80.5225C244.214 80.4848 245.038 81.2475 245.076 82.2261C245.116 83.267 245.306 84.2253 245.528 85.3394C245.608 85.7453 245.693 86.1718 245.776 86.6306C245.951 87.5942 245.311 88.5168 244.347 88.6913C243.384 88.8658 242.461 88.2261 242.287 87.2625C242.228 86.9394 242.16 86.5973 242.089 86.2406C241.852 85.0559 241.584 83.7099 241.532 82.3625C241.494 81.384 242.257 80.5602 243.236 80.5225Z" fill="#F2A9C3"/>
</g>
<g style="mix-blend-mode:multiply">
<path fill-rule="evenodd" clip-rule="evenodd" d="M244.888 89.9814C245.867 89.9606 246.677 90.7375 246.698 91.7165C246.721 92.8219 246.925 93.801 247.174 94.9942C247.244 95.3316 247.318 95.686 247.393 96.0652C247.581 97.0262 246.955 97.9579 245.994 98.1463C245.033 98.3347 244.101 97.7084 243.913 96.7475C243.858 96.4665 243.797 96.1761 243.734 95.8769C243.474 94.6412 243.184 93.258 243.153 91.7917C243.132 90.8127 243.909 90.0022 244.888 89.9814Z" fill="#F2A9C3"/>
</g>
<g style="mix-blend-mode:multiply">
<path fill-rule="evenodd" clip-rule="evenodd" d="M260.377 32.21C259.098 32.9176 257.772 33.5122 256.526 34.0706C256.271 34.185 256.019 34.2978 255.772 34.4098C254.069 35.1813 252.315 35.7352 250.66 36.2453C250.537 36.2831 250.415 36.3206 250.294 36.3579C248.744 36.8345 247.289 37.2821 245.887 37.8621C244.557 38.412 243.241 39.0093 241.895 39.6219L241.784 39.6725C240.482 40.265 239.151 40.8709 237.798 41.4356C236.962 41.7845 236.145 42.1964 235.262 42.6428L235.226 42.6609C234.373 43.0926 233.455 43.5566 232.496 43.9582C231.077 44.5526 229.701 45.221 228.29 45.939C227.425 46.3795 226.546 46.7738 225.707 47.1476C225.659 47.1691 225.611 47.1904 225.563 47.2117C224.765 47.5676 224.005 47.9063 223.263 48.2736C222.233 48.7835 221.157 49.2667 220.118 49.7334C219.591 49.9699 219.074 50.2022 218.577 50.4317C216.24 51.5105 213.929 52.6174 211.683 53.808C210.103 54.6455 208.828 55.39 207.532 56.1467L207.404 56.2214C206.064 57.0033 204.695 57.7998 202.982 58.6947L202.874 58.7512L202.762 58.7914L202.761 58.7917C202.76 58.7921 202.757 58.7931 202.753 58.7945C202.744 58.7978 202.729 58.8034 202.709 58.8113C202.667 58.8271 202.605 58.8515 202.529 58.883C202.431 58.9236 202.317 58.9731 202.2 59.0284C202.205 59.0412 202.21 59.0543 202.216 59.0678C202.441 59.6343 202.733 60.4708 202.733 61.5145C202.733 63.0303 201.947 64.5947 201.084 65.4903C200.82 65.7645 200.535 65.954 200.317 66.0828C200.24 66.1283 200.16 66.172 200.084 66.2126C200.14 66.283 200.194 66.3587 200.247 66.4401C200.463 66.7752 200.606 67.1485 200.696 67.5483C200.797 67.9945 200.795 68.3856 200.779 68.6712C200.774 68.7593 200.767 68.8457 200.76 68.9176C201.277 69.3637 201.634 69.8783 201.842 70.4974C201.909 70.6969 201.958 70.9073 201.994 71.1096C201.999 71.1105 202.004 71.1114 202.009 71.1123C202.122 71.1319 202.269 71.16 202.423 71.2014C202.567 71.2403 202.79 71.3097 203.022 71.4388C203.846 71.8963 204.411 72.6133 204.58 73.5285C204.708 74.2168 204.577 74.8609 204.442 75.3241C204.466 75.3524 204.493 75.3836 204.524 75.4188C205.412 76.4327 206.115 77.5903 206.726 78.5984C206.903 78.8896 207.072 79.1684 207.236 79.4276C208.248 81.0296 209.16 82.7241 209.977 84.3946C210.147 84.7416 210.329 85.1046 210.517 85.4777C210.921 86.2827 211.35 87.1344 211.723 87.9728C211.795 88.1345 211.877 88.2942 211.981 88.4929C211.989 88.5081 211.997 88.5238 212.005 88.5397C212.097 88.7164 212.212 88.9358 212.316 89.1621C212.365 89.27 212.414 89.3839 212.461 89.504C212.781 89.514 213.108 89.5415 213.417 89.577C214.202 89.6673 215.084 89.8357 215.61 90.019C217.22 90.5806 218.257 91.7094 218.968 92.8723C219.319 93.0464 219.615 93.3374 219.791 93.7213C220.199 94.6116 219.808 95.664 218.918 96.072C218.728 96.159 218.358 96.3079 217.894 96.2909C217.315 96.2697 216.846 96.005 216.531 95.6673C216.306 95.4262 216.179 95.1637 216.145 95.0937C216.144 95.0902 216.142 95.0871 216.141 95.0846C216.11 95.0201 216.097 94.9938 216.091 94.9799C216.085 94.9672 216.084 94.965 216.077 94.9535C215.595 94.0846 215.086 93.5921 214.442 93.3673C214.278 93.3101 213.693 93.1784 213.012 93.1C212.689 93.0629 212.4 93.0445 212.178 93.0463C212.082 93.0471 212.022 93.0516 211.989 93.0548C211.915 93.0847 211.814 93.1236 211.713 93.1538C211.711 93.1546 211.708 93.1555 211.704 93.1567C211.601 93.1888 211.037 93.364 210.407 93.1049C209.569 92.7601 209.349 92.0079 209.295 91.7596C209.24 91.5096 209.24 91.2728 209.24 91.1812V91.176C209.24 91.0404 209.211 90.8985 209.091 90.638C209.028 90.4998 208.955 90.3594 208.851 90.1614L208.837 90.1343C208.734 89.9365 208.605 89.6889 208.483 89.4154C208.143 88.6512 207.781 87.9311 207.398 87.1707C207.201 86.779 206.999 86.3767 206.791 85.9521C206.014 84.3633 205.164 82.7874 204.238 81.3222C203.998 80.9431 203.783 80.5885 203.579 80.253C203.004 79.3083 202.523 78.5157 201.857 77.7564L201.848 77.7455C201.62 77.4863 201.226 77.037 201.01 76.4487C200.764 75.7809 200.801 75.1344 200.975 74.536C200.898 74.5228 200.824 74.5091 200.761 74.4963C200.521 74.447 200.094 74.3471 199.687 74.1035C199.22 73.8237 198.679 73.2817 198.583 72.417C198.573 72.3288 198.564 72.2393 198.556 72.1613C198.553 72.1316 198.55 72.1037 198.547 72.078C198.537 71.9772 198.528 71.8988 198.519 71.83C198.504 71.7209 198.492 71.6663 198.485 71.641C198.47 71.625 198.437 71.5939 198.376 71.5484C197.959 71.2353 197.612 70.8336 197.402 70.3235C197.201 69.8327 197.185 69.3804 197.194 69.0806C197.198 68.9337 197.211 68.7955 197.219 68.7022L197.222 68.6699C197.23 68.5818 197.235 68.5266 197.238 68.4699C197.239 68.4556 197.239 68.4426 197.24 68.4309C197.074 68.3259 196.762 68.1021 196.524 67.7159L196.519 67.7078C196.418 67.5436 196.132 67.079 196.035 66.4727C195.918 65.7454 196.085 64.9151 196.727 64.2144C197.204 63.694 197.804 63.393 198.109 63.2395C198.121 63.2336 198.132 63.228 198.143 63.2225L198.182 63.2029C198.346 63.1205 198.435 63.0753 198.514 63.0287C198.533 63.0176 198.547 63.009 198.556 63.0032C198.883 62.6452 199.187 61.9536 199.187 61.5145C199.187 61.1398 199.087 60.7983 198.92 60.376C198.901 60.3288 198.874 60.2644 198.844 60.1913C198.776 60.0238 198.688 59.8103 198.631 59.652C198.54 59.4018 198.402 58.9812 198.402 58.4968C198.402 57.4896 199.094 56.8604 199.331 56.6576C199.665 56.3706 200.048 56.1471 200.344 55.992C200.655 55.8285 200.956 55.6961 201.172 55.6065C201.279 55.5624 201.369 55.5269 201.436 55.5014C203.024 54.6685 204.307 53.9232 205.616 53.1588L205.757 53.0766C207.047 52.3233 208.377 51.5469 210.022 50.6747C212.35 49.4407 214.727 48.303 217.091 47.2119C217.66 46.949 218.212 46.7013 218.754 46.4581C219.751 46.0105 220.714 45.5783 221.69 45.0955C222.498 44.6951 223.32 44.3289 224.104 43.9797C224.157 43.956 224.21 43.9323 224.263 43.9087C225.107 43.5325 225.908 43.1723 226.682 42.7786C228.126 42.0437 229.59 41.3306 231.126 40.6872C231.962 40.3373 232.779 39.9248 233.662 39.478L233.678 39.4702C234.538 39.0353 235.464 38.5673 236.432 38.1631C237.732 37.6204 239.019 37.0349 240.335 36.4357L240.426 36.3944C241.765 35.7848 243.135 35.1622 244.532 34.5849C246.096 33.9383 247.706 33.4434 249.224 32.9768C249.355 32.9365 249.486 32.8964 249.615 32.8564C251.278 32.3439 252.834 31.8475 254.309 31.1796C254.58 31.0569 254.847 30.9369 255.111 30.8184C256.58 30.1588 257.943 29.547 259.23 28.7803C259.691 28.5056 260.029 28.3676 260.334 28.2433C260.413 28.2107 260.491 28.1791 260.567 28.1462L261.38 30.0416M201.511 74.6283C201.511 74.6283 201.508 74.6277 201.503 74.6264C201.508 74.6276 201.511 74.6283 201.511 74.6283ZM217.456 92.8412C217.447 92.845 217.442 92.8474 217.44 92.8481L217.44 92.8482C217.445 92.8459 217.45 92.8435 217.456 92.8412ZM219.324 93.5208C219.338 93.5472 219.34 93.553 219.327 93.5268L219.326 93.5256C219.326 93.5246 219.325 93.523 219.324 93.5208ZM212.787 91.2105C212.787 91.2105 212.787 91.2052 212.786 91.1933C212.787 91.2043 212.787 91.2105 212.787 91.2105ZM201.64 59.3483L201.641 59.3481C201.636 59.3525 201.636 59.3525 201.64 59.3483ZM260.377 32.21C260.873 33.3297 261.548 34.6222 263.109 35.5828C264.471 36.4212 265.755 36.4867 266.939 36.5472C266.976 36.5491 267.013 36.551 267.05 36.5529C267.595 36.581 268.137 36.4357 268.462 36.3369C268.661 36.7789 268.924 37.1129 269.138 37.3525C269.26 37.4892 269.383 37.6137 269.471 37.7024L269.482 37.7136C269.492 37.7233 269.501 37.7327 269.51 37.7416C269.47 37.8034 269.427 37.8724 269.387 37.9417C269.295 38.0976 269.151 38.3619 269.06 38.6827C268.973 38.9907 268.868 39.5935 269.183 40.2335C269.394 40.6623 269.704 40.93 269.932 41.0853C270.111 41.2077 270.287 41.2927 270.42 41.3496C270.352 41.6358 270.335 41.939 270.384 42.2501C270.459 42.7283 270.667 43.0855 270.818 43.3023C270.944 43.4836 271.092 43.6518 271.163 43.7328C271.172 43.7419 271.179 43.7499 271.185 43.7567C271.259 43.8424 271.278 43.8669 271.278 43.8669C271.792 44.6687 272.193 45.3527 272.451 46.071C272.532 46.2971 272.647 46.5831 272.745 46.8281C272.796 46.9553 272.843 47.0715 272.878 47.1625C273.01 47.5033 273.088 47.7458 273.122 47.9263C273.17 48.1795 273.254 48.3906 273.328 48.5481C273.403 48.7059 273.484 48.8403 273.548 48.9397C273.569 48.9716 273.589 49.003 273.609 49.0328C273.573 49.5988 273.808 50.1723 274.289 50.5471C275.062 51.1487 276.176 51.0101 276.778 50.2375C277.2 49.6947 277.327 49.0555 277.225 48.4643C277.141 47.9763 276.915 47.6017 276.803 47.4254C276.74 47.3268 276.676 47.2344 276.634 47.1728L276.63 47.1681C276.603 47.1284 276.583 47.0992 276.567 47.0756C276.466 46.6353 276.315 46.2191 276.186 45.8834C276.11 45.6873 276.047 45.532 275.991 45.3935C275.916 45.2087 275.854 45.0537 275.788 44.8712C275.385 43.7515 274.796 42.7837 274.26 41.9487C274.192 41.8415 274.119 41.7432 274.052 41.6588C274.166 41.1457 274.149 40.6043 273.971 40.0793C273.781 39.5143 273.432 39.05 272.998 38.7006C273.184 38.1535 273.244 37.5727 273.105 36.9809C272.949 36.3222 272.591 35.8582 272.342 35.5757C272.222 35.4404 272.098 35.3154 272.011 35.2273L272.001 35.2169C271.901 35.1163 271.838 35.0527 271.784 34.9911C271.768 34.9737 271.755 34.9584 271.744 34.9452C271.747 34.8826 271.751 34.7938 271.752 34.7282C271.755 34.6053 271.754 34.3664 271.692 34.0955C271.625 33.8027 271.471 33.4118 271.123 33.0712C270.775 32.7304 270.37 32.5749 270.035 32.5103C269.46 32.3998 268.874 32.5158 268.44 32.6244C268.254 32.6709 268.061 32.7353 267.923 32.7816C267.883 32.7951 267.845 32.8078 267.809 32.8201C267.698 32.8575 267.602 32.8901 267.5 32.9221C267.369 32.9635 267.273 32.9893 267.204 33.0034C267.194 33.0056 267.185 33.0073 267.178 33.0085C265.923 32.9427 265.492 32.8857 264.968 32.5629C264.246 32.1185 263.974 31.5951 263.443 30.3673C263.335 30.119 263.336 30.0513 263.336 30.0419V30.0416C263.336 29.6017 263.17 29.28 263.133 29.2079L263.131 29.2036C263.068 29.0801 263.002 28.9836 262.958 28.9232C262.866 28.7985 262.766 28.6884 262.673 28.5981C262.586 28.5148 262.443 28.3872 262.253 28.2737C262.16 28.2185 261.991 28.1265 261.765 28.065C261.561 28.0094 261.095 27.9203 260.567 28.1462L261.38 30.0416M276.514 46.9938C276.514 46.9938 276.518 46.9992 276.523 47.0089C276.517 46.9984 276.514 46.9938 276.514 46.9938ZM269.573 36.0104C269.573 36.0104 269.57 36.0106 269.566 36.0108C269.571 36.0104 269.573 36.0104 269.573 36.0104ZM268.207 34.6723C268.207 34.6623 268.207 34.6603 268.207 34.6679C268.207 34.6694 268.207 34.6709 268.207 34.6723Z" fill="#FF9661"/>
</g>
<path d="M274.041 73.4023C271.961 73.0795 270.93 72.9547 268.86 72.7706C268.108 72.7073 267.906 71.6806 268.578 71.271C270.402 70.1837 271.31 69.6729 273.144 68.7244C273.452 68.5649 273.569 68.1956 273.402 67.8711C273.15 67.4251 273.041 67.2141 272.806 66.7598C272.647 66.4515 272.253 66.3261 271.944 66.4856C270.103 67.4587 269.203 67.9858 267.388 69.0892C266.715 69.4988 265.954 68.8229 266.296 68.091C267.176 66.1342 267.62 65.1639 268.517 63.2396C268.66 62.919 268.524 62.5368 268.212 62.4103C267.759 62.2123 267.537 62.1009 267.085 61.9028C266.765 61.7601 266.391 61.9123 266.256 62.2492C265.376 64.206 264.932 65.1762 264.052 67.1739C263.736 67.9136 262.706 67.8706 262.556 67.1045C262.177 65.0588 261.975 64.032 261.587 61.97C261.533 61.6275 261.204 61.4278 260.862 61.5223C260.382 61.6678 260.129 61.7366 259.658 61.8984C259.324 62.0092 259.1 62.3717 259.17 62.7058C260.598 70.2772 262.017 77.8324 263.444 85.4038C263.498 85.7462 263.844 85.9376 264.161 85.8352C264.641 85.6897 264.885 85.6047 265.374 85.4754C265.715 85.3808 265.939 85.0182 265.869 84.6842C265.49 82.6384 265.288 81.6116 264.9 79.5497C264.751 78.7836 265.658 78.1911 266.22 78.6818C267.709 80.0096 268.47 80.6856 269.984 82.0621C270.233 82.3038 270.624 82.2657 270.874 81.9927C271.212 81.6122 271.381 81.4219 271.727 81.0577C271.961 80.793 271.963 80.4008 271.699 80.1674C270.192 78.7663 269.423 78.0741 267.917 76.7138C267.363 76.1985 267.807 75.2282 268.56 75.2914C270.621 75.4593 271.644 75.5678 273.732 75.8661C274.084 75.9103 274.399 75.6853 274.443 75.3334C274.518 74.8421 274.54 74.6048 274.606 74.0973C274.626 73.7783 274.393 73.4465 274.041 73.4023Z" fill="#00DA93"/>
<rect x="0.5" y="0.5" width="327" height="129.917" rx="7.5" stroke="#E5E2DC"/>
</svg>
