<svg width="213" height="204" viewBox="0 0 213 204" fill="none" xmlns="http://www.w3.org/2000/svg">
<mask id="mask0_592_1334" style="mask-type:alpha" maskUnits="userSpaceOnUse" x="0" y="0" width="213" height="204">
<rect width="213" height="204" fill="#D9D9D9"/>
</mask>
<g mask="url(#mask0_592_1334)">
<path d="M313.914 -21.8002L313.758 -22.2751L399.283 -50.4079L399.284 -50.4081C404.738 -52.1942 407.74 -58.1348 405.954 -63.666L405.954 -63.6669L399.3 -84.4023L399.3 -84.4028C397.533 -89.9321 391.665 -92.959 386.215 -91.1561L386.214 -91.1558L300.689 -63.023C287.516 -58.6831 276.608 -73.9537 284.726 -85.2628L337.581 -158.915L337.987 -158.624L337.581 -158.915C340.954 -163.613 339.918 -170.208 335.28 -173.621L317.842 -186.448L318.138 -186.851L317.842 -186.448C313.209 -189.858 306.702 -188.813 303.331 -184.119L250.476 -110.467C242.449 -99.2795 225.178 -104.834 224.675 -118.364L224.675 -118.373V-118.382V-209.97C224.675 -215.792 220.015 -220.5 214.278 -220.5H192.691C186.955 -220.5 182.295 -215.792 182.295 -209.97V-118.382V-118.373L182.295 -118.364C181.792 -104.815 164.52 -99.2802 156.494 -110.467L103.639 -184.1C103.639 -184.1 103.639 -184.1 103.639 -184.1C100.268 -188.794 93.7795 -189.839 89.1269 -186.429L71.6899 -173.602C67.0525 -170.19 66.0148 -163.613 69.3893 -158.896L122.244 -85.2438C130.362 -73.9348 119.454 -58.6644 106.281 -63.0041C106.281 -63.0042 106.281 -63.0042 106.281 -63.0042L20.7564 -91.1367C15.304 -92.9224 9.43663 -89.9117 7.66989 -84.3839L7.66971 -84.3833L1.01626 -63.6485C-0.752297 -58.115 2.23352 -52.1748 7.68566 -50.3892L7.68628 -50.389L93.2115 -22.2562L93.2117 -22.2561C106.36 -17.9241 106.36 0.905167 93.2117 5.23721L93.2115 5.23729L7.68628 33.3701L7.68566 33.3703C2.23211 35.1563 -0.769873 41.0969 1.01582 46.6281L1.01613 46.6291L7.66975 67.3834L7.66989 67.3839C9.43711 72.9132 15.3049 75.9401 20.755 74.1371L20.7558 74.1369L106.281 46.0042C106.281 46.0042 106.281 46.0041 106.281 46.0041C119.454 41.6643 130.362 56.9346 122.263 68.2434L122.263 68.2438L69.4075 141.896L69.0013 141.605L69.4074 141.896C66.034 146.594 67.0709 153.189 71.7086 156.602L89.1463 169.429L88.85 169.832L89.1464 169.429C93.7797 172.839 100.286 171.794 103.658 167.1L156.513 93.4476C164.54 82.2599 181.811 87.8163 182.314 101.364L182.314 101.373V101.382V192.97C182.314 198.792 186.974 203.5 192.71 203.5H214.297C220.033 203.5 224.693 198.792 224.693 192.97V101.382V101.373L224.694 101.364C225.196 87.8148 242.468 82.2803 250.494 93.4473L250.494 93.4476L303.35 167.1C306.72 171.794 313.208 172.839 317.861 169.429L313.914 -21.8002ZM313.914 -21.8002L313.758 -22.2751C300.609 -17.943 300.609 0.886246 313.758 5.21829L313.914 4.74341M313.914 -21.8002V4.74341M313.914 4.74341L313.758 5.21837L399.248 33.3394L399.251 33.3413L399.285 33.3584L399.321 33.3703C404.773 35.1558 407.759 41.0957 405.991 46.6291C405.991 46.6293 405.991 46.6294 405.991 46.6295L399.337 67.3834L399.337 67.3839M313.914 4.74341L399.337 67.3839M399.337 67.3839C397.57 72.9115 391.704 75.9221 386.251 74.1369L399.337 67.3839ZM335.298 156.602L317.861 169.429L386.251 74.1367L300.726 46.0042C287.536 41.6648 276.626 56.9338 284.744 68.2438L337.6 141.896L338.006 141.605L337.6 141.896C340.973 146.594 339.936 153.189 335.298 156.602Z" stroke="#FFEDA5"/>
</g>
</svg>
