<svg width="241" height="244" viewBox="0 0 241 244" fill="none" xmlns="http://www.w3.org/2000/svg">
<path d="M184.24 221.277L186.432 215.891C186.586 215.497 186.81 215.177 187.104 214.931C187.398 214.684 187.728 214.51 188.095 214.408C188.462 214.306 188.835 214.285 189.214 214.344C189.593 214.404 189.95 214.562 190.285 214.821L194.942 218.302L200.624 218.601C201.2 218.616 201.701 218.801 202.129 219.154C202.556 219.507 202.844 219.949 202.991 220.479C203.059 220.724 203.091 220.978 203.088 221.243C203.085 221.507 203.033 221.774 202.932 222.044L200.894 227.748L202.41 232.729C202.629 233.437 202.562 234.103 202.208 234.728C201.855 235.354 201.352 235.757 200.7 235.938C200.659 235.95 200.427 235.981 200.002 236.033L194.104 236.026L189.055 239.076C188.965 239.145 188.86 239.202 188.74 239.246C188.621 239.29 188.51 239.326 188.408 239.355C187.756 239.536 187.117 239.45 186.492 239.097C185.867 238.744 185.465 238.207 185.287 237.488L184.007 232.409L179.357 228.596C179.132 228.417 178.949 228.215 178.81 227.991C178.671 227.766 178.567 227.531 178.499 227.286C178.357 226.777 178.373 226.262 178.547 225.741C178.721 225.221 179.047 224.795 179.526 224.465L184.24 221.277ZM186.325 222.97L180.937 226.576L186.249 230.995L187.75 236.869L193.398 233.488L199.99 233.501L198.236 227.664L200.523 221.198L194.03 220.829L188.775 216.854L186.325 222.97Z" fill="#FFE7D6"/>
<path d="M124.876 176.506C107.689 200.446 74.1092 229.946 50.8167 211.25C23.7367 189.514 42.5863 153.142 58.4509 132.025C67.6297 119.787 81.4049 105.141 95.4538 96.8916C101.285 93.468 107.063 90.3562 113.059 89.8026C119.631 89.196 126.705 91.9705 132.978 96.424C139.366 100.959 141.905 105.689 143.129 113.173C135.308 128.691 125.002 130.441 120.304 129.298C122.566 121.323 122.047 115.518 115.918 111.46C100.859 101.489 80.0082 125.137 71.5144 136.232C61.3253 149.542 43.0808 178.221 55.7782 187.335C68.4757 196.45 91.103 176.644 104.101 160.381C105.393 158.729 106.829 156.81 108.775 153.837C112.709 156.356 121.779 161.072 133.584 159.363C130.286 166.621 128.41 171.585 124.876 176.506Z" fill="#6DDFA6"/>
<path fill-rule="evenodd" clip-rule="evenodd" d="M112.916 88.2488C120.003 87.5947 127.447 90.5838 133.88 95.1512C137.209 97.5146 139.61 99.9834 141.331 102.898C143.049 105.804 144.036 109.061 144.667 112.919C144.72 113.244 144.669 113.578 144.52 113.872C136.45 129.884 125.491 132.161 119.936 130.81C119.524 130.71 119.171 130.447 118.958 130.081C118.745 129.715 118.69 129.278 118.805 128.871C119.91 124.976 120.27 121.817 119.732 119.224C119.211 116.713 117.817 114.584 115.057 112.756C108.441 108.376 100.285 111.182 92.1823 117.195C84.2015 123.117 76.9704 131.665 72.7513 137.177C67.691 143.787 60.671 154.165 56.4971 163.965C54.4058 168.875 53.0832 173.517 53.0049 177.406C52.9276 181.251 54.056 184.179 56.6866 186.067C59.4188 188.028 62.7404 188.495 66.5492 187.726C70.3878 186.952 74.6224 184.936 78.9693 182.071C87.6549 176.347 96.4424 167.464 102.879 159.412C104.147 157.79 105.556 155.908 107.471 152.982C107.939 152.267 108.895 152.062 109.615 152.523C113.401 154.947 122.084 159.451 133.36 157.819C133.924 157.737 134.488 157.97 134.83 158.425C135.172 158.881 135.238 159.487 135.002 160.005C134.377 161.38 133.8 162.682 133.249 163.924C130.938 169.139 129.09 173.307 126.142 177.413C117.47 189.491 104.631 203.027 90.9344 211.202C77.2679 219.359 62.2507 222.424 49.8412 212.463C35.6981 201.111 33.6114 185.893 37.0107 171.055C40.3924 156.295 49.2194 141.716 57.205 131.087C66.442 118.771 80.3632 103.943 94.6648 95.5457C100.469 92.1377 106.528 88.8385 112.916 88.2488ZM132.076 97.692C125.964 93.3523 119.26 90.7925 113.202 91.3517C107.598 91.869 102.1 94.7935 96.2425 98.2328C82.4465 106.333 68.8176 120.797 59.6971 132.957L59.6963 132.958C51.8173 143.446 43.2873 157.612 40.048 171.751C36.8264 185.813 38.8549 199.649 51.7917 210.033C62.6747 218.768 76.0939 216.431 89.3374 208.526C102.551 200.64 115.095 187.456 123.611 175.595C126.355 171.773 128.048 167.957 130.345 162.783C130.573 162.269 130.808 161.74 131.05 161.197C121.199 161.876 113.456 158.412 109.243 155.948C107.679 158.271 106.449 159.905 105.328 161.338C105.325 161.343 105.321 161.347 105.318 161.351C98.7567 169.561 89.7338 178.709 80.6841 184.673C76.1622 187.653 71.5469 189.897 67.1655 190.781C62.7544 191.671 58.486 191.195 54.8695 188.599C51.1513 185.93 49.7988 181.855 49.8895 177.343C49.9794 172.875 51.4739 167.807 53.6302 162.744C57.9515 152.598 65.1483 141.982 70.277 135.283C74.5518 129.699 81.9928 120.876 90.3255 114.692C98.5357 108.6 108.335 104.568 116.778 110.158C120.148 112.39 122.078 115.192 122.783 118.592C123.373 121.438 123.081 124.589 122.255 128.003C126.702 128.235 134.866 125.783 141.507 112.922C140.914 109.532 140.036 106.831 138.649 104.483C137.198 102.027 135.135 99.8637 132.076 97.692Z" fill="#6DDFA6"/>
<g style="mix-blend-mode:multiply">
<path fill-rule="evenodd" clip-rule="evenodd" d="M129.604 33.016C141.621 22.2733 156.605 15.9762 171.838 22.9086C186.693 29.6691 192.32 41.8507 193.221 54.4232C194.109 66.8028 190.467 79.7079 186.799 88.8572C186.159 90.4546 184.345 91.2304 182.748 90.59C181.15 89.9496 180.375 88.1356 181.015 86.5382C184.525 77.7824 187.796 65.8968 187.005 54.8689C186.228 44.0342 181.586 34.1918 169.256 28.5809C157.305 23.1419 144.959 27.6485 133.757 37.6623C122.586 47.6477 113.279 62.5587 108.041 75.9283C107.545 77.194 107.096 78.2784 106.681 79.2806C105.833 81.3288 105.127 83.0337 104.454 85.2405C105.316 84.9166 106.216 84.6087 107.139 84.3349C109.739 83.5636 112.835 82.9643 115.823 83.2703C116.806 81.0238 118.19 77.9595 119.36 75.3687C120.243 73.4133 121.004 71.7275 121.379 70.8665C122.067 69.289 123.904 68.5679 125.481 69.2558C127.059 69.9437 127.78 71.7801 127.092 73.3576C126.643 74.3878 125.807 76.237 124.873 78.3049C123.225 81.9518 121.271 86.2789 120.585 87.9926C119.969 89.5336 118.253 90.321 116.682 89.7833C114.783 89.1328 112.026 89.3858 108.912 90.3096C105.909 91.2003 103.092 92.5561 101.381 93.4752C100.318 94.0465 99.0207 93.9525 98.0511 93.234C97.0814 92.5155 96.6138 91.3016 96.8509 90.1182C98.1715 83.5272 99.4424 80.4615 100.971 76.7753C101.373 75.8036 101.794 74.7888 102.238 73.655C107.75 59.5852 117.554 43.787 129.604 33.016ZM140.264 43.81C145.612 40.0008 151.943 38.6618 159.155 41.4865C163.647 43.2457 165.826 47.4723 166.764 51.9564C167.71 56.4745 167.571 61.9489 166.866 67.507C165.452 78.6611 161.632 91.0904 158.242 99.0188C155.452 105.543 150.467 115.675 143.819 123.625C137.301 131.42 128.268 138.149 117.58 135.26C112.437 133.87 108.95 131.126 107.311 126.746C106.119 123.564 106.028 119.807 106.493 115.691C105.769 115.748 104.979 115.865 104.176 116.066C102.335 116.527 100.87 117.312 99.9661 118.358C99.6557 126.689 100.588 133.456 103.228 138.81C105.907 144.241 110.501 148.534 118.167 151.49C131.178 156.508 142.712 150.874 152.833 139.883C162.967 128.879 170.991 113.149 176.441 100.049C177.102 98.4598 178.925 97.7075 180.514 98.3685C182.103 99.0295 182.856 100.853 182.195 102.442C176.657 115.754 168.297 132.29 157.418 144.104C146.527 155.931 132.418 163.666 115.924 157.305C107.014 153.868 101.105 148.595 97.6388 141.566C94.23 134.655 93.3429 126.366 93.7798 117.147C93.8048 116.62 93.9634 116.107 94.2409 115.658C96.2646 112.38 99.7055 110.76 102.664 110.02C105.625 109.28 108.713 109.261 110.768 109.742C112.37 110.118 113.405 111.674 113.13 113.297C112.232 118.594 112.248 122.159 113.147 124.561C113.923 126.632 115.515 128.246 119.206 129.244C126.129 131.115 132.841 127.039 139.038 119.627C145.106 112.37 149.807 102.892 152.511 96.5685C155.712 89.0846 159.353 77.2163 160.684 66.7233C161.351 61.4578 161.405 56.7712 160.664 53.2329C159.917 49.6606 158.532 47.9354 156.882 47.2893C151.812 45.3033 147.678 46.1802 143.879 48.8861C139.876 51.7374 136.235 56.6542 132.79 62.7408C131.942 64.2385 130.041 64.7654 128.543 63.9177C127.046 63.0699 126.519 61.1686 127.366 59.6709C130.932 53.3714 135.12 47.4738 140.264 43.81Z" fill="#FFA86D"/>
</g>
<g style="mix-blend-mode:multiply">
<path fill-rule="evenodd" clip-rule="evenodd" d="M85.1595 227.367C86.0866 228.816 85.6628 230.743 84.2129 231.67C82.2711 232.912 79.584 233.76 77.3095 234.323C74.9578 234.904 72.6603 235.27 71.2546 235.415C68.492 235.701 63.1031 235.863 57.4086 233.984C55.7743 233.445 54.8866 231.683 55.4258 230.049C55.9651 228.415 57.727 227.527 59.3613 228.066C63.915 229.569 68.3357 229.452 70.6143 229.216C71.7293 229.101 73.7411 228.785 75.8139 228.273C77.9639 227.741 79.8163 227.084 80.8557 226.42C82.3056 225.493 84.2325 225.917 85.1595 227.367Z" fill="#FFE7D6"/>
</g>
<g style="mix-blend-mode:multiply">
<path fill-rule="evenodd" clip-rule="evenodd" d="M77.6157 237.952C78.4593 239.452 77.9272 241.352 76.4272 242.196C73.0265 244.108 69.2625 244.054 66.5766 243.967C65.8055 243.943 64.95 243.813 64.2333 243.658C63.642 243.53 62.6685 243.287 61.9364 242.853C60.4563 241.975 59.9682 240.063 60.8462 238.583C61.6969 237.149 63.5177 236.646 64.9763 237.415C64.9902 237.419 65.0073 237.425 65.0279 237.432C65.1495 237.47 65.3297 237.519 65.5533 237.567C66.02 237.669 66.4866 237.729 66.7768 237.739C69.5299 237.827 71.6524 237.731 73.3723 236.764C74.8723 235.92 76.7721 236.452 77.6157 237.952Z" fill="#FFD6E5"/>
</g>
<path fill-rule="evenodd" clip-rule="evenodd" d="M198.124 11.5004C199.379 12.6769 199.444 14.6489 198.267 15.9048C197.979 16.2129 197.752 16.4894 197.5 16.8422C196.119 18.7742 194.569 20.6059 193.12 22.318C192.792 22.7053 192.469 23.0865 192.155 23.4613C191.049 24.78 189.084 24.9527 187.765 23.847C186.446 22.7413 186.274 20.7759 187.379 19.4572C187.734 19.0345 188.084 18.621 188.428 18.2136C189.865 16.5145 191.211 14.9226 192.43 13.2179C192.839 12.6456 193.24 12.1561 193.719 11.6442C194.896 10.3882 196.868 10.3239 198.124 11.5004Z" fill="#C5F7D5"/>
<path fill-rule="evenodd" clip-rule="evenodd" d="M212.667 21.9065C213.277 23.5156 212.468 25.3148 210.859 25.9252C207.31 27.2714 203.686 28.4516 200.14 29.6067C198.831 30.0329 197.533 30.4558 196.253 30.8822C194.62 31.4262 192.856 30.5436 192.312 28.9109C191.768 27.2782 192.65 25.5136 194.283 24.9697C195.651 24.5138 197.003 24.0737 198.341 23.6377C201.839 22.4985 205.249 21.3877 208.648 20.0983C210.257 19.4879 212.056 20.2975 212.667 21.9065Z" fill="#FFEDA5"/>
<rect x="232.295" y="180.924" width="9.27181" height="53.5704" rx="4.6359" transform="rotate(117.227 232.295 180.924)" fill="#6DDFA6"/>
<rect x="205.99" y="189.585" width="9.27181" height="35.5857" rx="4.6359" transform="rotate(128.584 205.99 189.585)" fill="#FFCE00"/>
<rect x="217.648" y="149.526" width="9.27181" height="30.548" rx="4.6359" transform="rotate(102.227 217.648 149.526)" fill="#FFF1E6"/>
<rect x="204.293" y="131.72" width="9.27181" height="15.7676" rx="4.6359" transform="rotate(92.2268 204.293 131.72)" fill="#FFE7FB"/>
<rect x="163.228" y="195.37" width="9.27181" height="15.7676" rx="4.6359" transform="rotate(162.227 163.228 195.37)" fill="#FFA86D"/>
<rect x="180.937" y="195.913" width="9.27181" height="24.3541" rx="4.6359" transform="rotate(149.618 180.937 195.913)" fill="#FFE7FB"/>
<g style="mix-blend-mode:multiply">
<rect x="236.068" y="177.269" width="9.27181" height="24.3541" rx="4.6359" transform="rotate(117.227 236.068 177.269)" fill="#FFEDA5"/>
</g>
<rect x="12.7185" y="55.1758" width="9.27181" height="53.5704" rx="4.6359" transform="rotate(-63.4977 12.7185 55.1758)" fill="#6DDFA6"/>
<rect x="38.9124" y="46.1816" width="9.27181" height="35.5857" rx="4.6359" transform="rotate(-52.1401 38.9124 46.1816)" fill="#FFCE00"/>
<rect x="27.7617" y="86.3848" width="9.27181" height="30.548" rx="4.6359" transform="rotate(-78.4977 27.7617 86.3848)" fill="#FFF1E6"/>
<rect x="41.3403" y="104.021" width="9.27181" height="15.7676" rx="4.6359" transform="rotate(-88.4977 41.3403 104.021)" fill="#FFE7FB"/>
<rect x="81.5972" y="39.8564" width="9.27181" height="15.7676" rx="4.6359" transform="rotate(-18.4977 81.5972 39.8564)" fill="#FFA86D"/>
<rect x="63.8831" y="39.5381" width="9.27181" height="24.3541" rx="4.6359" transform="rotate(-31.1061 63.8831 39.5381)" fill="#FFE7FB"/>
<g style="mix-blend-mode:multiply">
<rect x="8.9917" y="58.8779" width="9.27181" height="24.3541" rx="4.6359" transform="rotate(-63.4977 8.9917 58.8779)" fill="#FFEDA5"/>
</g>
<path d="M211.196 105.858L209.451 104.138C209.089 103.78 208.906 103.346 208.902 102.833C208.899 102.321 209.076 101.884 209.433 101.522L211.154 99.777L211.153 97.2429C211.162 96.9922 211.212 96.7548 211.303 96.5307C211.394 96.3067 211.521 96.1123 211.683 95.9477C211.846 95.7831 212.038 95.6537 212.261 95.5595C212.484 95.4654 212.72 95.412 212.971 95.3993L215.505 95.3655L217.226 93.6206C217.583 93.2585 218.018 93.0757 218.53 93.0721C219.042 93.0686 219.479 93.2454 219.841 93.6026L221.586 95.3235L224.12 95.3223C224.371 95.3315 224.608 95.3816 224.833 95.4727C225.057 95.5638 225.251 95.6906 225.416 95.8529C225.58 96.0153 225.71 96.2078 225.804 96.4306C225.898 96.6534 225.951 96.8901 225.964 97.1407L225.998 99.6745L227.743 101.395C228.105 101.753 228.288 102.187 228.291 102.7C228.295 103.212 228.118 103.649 227.761 104.011L226.04 105.756L226.041 108.29C226.032 108.541 225.982 108.778 225.89 109.002C225.799 109.226 225.673 109.421 225.51 109.585C225.348 109.75 225.155 109.879 224.933 109.973C224.71 110.068 224.473 110.121 224.223 110.134L221.689 110.167L219.968 111.912C219.611 112.274 219.176 112.457 218.664 112.461C218.151 112.464 217.714 112.288 217.352 111.93L215.607 110.209L213.073 110.211C212.823 110.201 212.585 110.151 212.361 110.06C212.137 109.969 211.943 109.842 211.778 109.68C211.613 109.518 211.484 109.325 211.39 109.102C211.296 108.88 211.242 108.643 211.23 108.392L211.196 105.858ZM213.054 105.094L213.077 108.363L216.346 108.341L218.651 110.613L220.924 108.309L224.193 108.286L224.171 105.017L226.444 102.712L224.139 100.439L224.117 97.1698L220.847 97.1924L218.543 94.9194L216.27 97.224L213 97.2465L213.023 100.516L210.75 102.821L213.054 105.094Z" fill="#FFE7FB"/>
<path d="M105.752 20.9591L103.578 18.8152C103.127 18.3702 102.899 17.8287 102.895 17.1906C102.89 16.5525 103.111 16.0078 103.556 15.5567L105.699 13.383L105.698 10.2262C105.709 9.91382 105.772 9.61807 105.885 9.33895C105.999 9.05982 106.157 8.81772 106.359 8.61266C106.561 8.4076 106.801 8.2464 107.079 8.12907C107.356 8.01175 107.651 7.94522 107.963 7.92948L111.12 7.88732L113.264 5.71365C113.709 5.26251 114.25 5.03474 114.888 5.03033C115.526 5.02592 116.071 5.2462 116.522 5.69115L118.696 7.83501L121.853 7.83358C122.165 7.845 122.461 7.90745 122.74 8.02093C123.019 8.13442 123.261 8.29228 123.466 8.49454C123.671 8.69679 123.832 8.93668 123.95 9.21421C124.067 9.49175 124.134 9.78661 124.149 10.0988L124.192 13.2553L126.365 15.3992C126.816 15.8441 127.044 16.3857 127.049 17.0238C127.053 17.6619 126.833 18.2066 126.388 18.6577L124.244 20.8314L124.245 23.9882C124.234 24.3006 124.171 24.5963 124.058 24.8754C123.944 25.1546 123.787 25.3967 123.584 25.6017C123.382 25.8068 123.142 25.968 122.865 26.0853C122.587 26.2026 122.292 26.2692 121.98 26.2849L118.824 26.3271L116.68 28.5007C116.235 28.9519 115.693 29.1797 115.055 29.1841C114.417 29.1885 113.872 28.9682 113.421 28.5232L111.247 26.3794L108.091 26.3808C107.778 26.3694 107.483 26.3069 107.203 26.1935C106.924 26.08 106.682 25.9221 106.477 25.7199C106.272 25.5176 106.111 25.2777 105.994 25.0002C105.876 24.7226 105.81 24.4278 105.794 24.1156L105.752 20.9591ZM108.067 20.0062L108.095 24.0793L112.168 24.0512L115.039 26.8827L117.871 24.0118L121.944 23.9837L121.916 19.9106L124.747 17.0397L121.876 14.2082L121.848 10.135L117.775 10.1632L114.904 7.33165L112.073 10.2025L107.999 10.2307L108.028 14.3038L105.196 17.1747L108.067 20.0062Z" fill="#C5F7D5"/>
<path d="M5.82129 168.736L4.34874 166.777C4.04311 166.37 3.92625 165.913 3.99815 165.406C4.07004 164.899 4.30928 164.492 4.71586 164.187L6.67486 162.714L7.0467 160.208C7.09267 159.961 7.1772 159.733 7.30028 159.525C7.42337 159.317 7.57731 159.143 7.76212 159.005C7.94693 158.866 8.15645 158.766 8.39067 158.706C8.62488 158.645 8.86685 158.627 9.11658 158.652L11.6278 158.991L13.5868 157.519C13.9934 157.213 14.4502 157.096 14.9574 157.168C15.4646 157.24 15.871 157.479 16.1766 157.886L17.6492 159.845L20.1558 160.217C20.4025 160.263 20.6299 160.347 20.8381 160.47C21.0463 160.593 21.2199 160.747 21.3588 160.932C21.4977 161.117 21.5974 161.326 21.6577 161.561C21.7181 161.795 21.7361 162.037 21.7117 162.286L21.3722 164.798L22.8448 166.757C23.1504 167.163 23.2673 167.62 23.1954 168.127C23.1235 168.634 22.8842 169.041 22.4776 169.346L20.5187 170.819L20.1468 173.326C20.1008 173.572 20.0163 173.8 19.8932 174.008C19.7701 174.216 19.6162 174.39 19.4314 174.529C19.2466 174.668 19.0371 174.767 18.8028 174.828C18.5686 174.888 18.3267 174.906 18.0769 174.882L15.5657 174.542L13.6067 176.015C13.2002 176.32 12.7433 176.437 12.2361 176.365C11.7289 176.293 11.3225 176.054 11.0169 175.647L9.54434 173.689L7.03772 173.317C6.79106 173.271 6.56362 173.186 6.35541 173.063C6.14719 172.94 5.97363 172.786 5.83471 172.601C5.69579 172.416 5.59615 172.207 5.53578 171.973C5.47541 171.738 5.45743 171.497 5.48182 171.247L5.82129 168.736ZM7.7721 168.253L7.31319 171.49L10.5505 171.949L12.4954 174.536L15.0827 172.591L18.32 173.05L18.7789 169.813L21.3663 167.868L19.4214 165.281L19.8803 162.043L16.643 161.584L14.6981 158.997L12.1108 160.942L8.87348 160.483L8.41457 163.72L5.82722 165.665L7.7721 168.253Z" fill="#FFEDA5"/>
<path d="M221.596 60.1541L226.163 56.5547C226.491 56.2881 226.844 56.1203 227.222 56.0512C227.599 55.9822 227.972 55.994 228.341 56.0866C228.711 56.1792 229.046 56.3449 229.346 56.5837C229.646 56.8225 229.878 57.1369 230.042 57.527L232.37 62.8548L237.164 65.9213C237.656 66.2192 238.001 66.6274 238.198 67.1458C238.396 67.6642 238.427 68.1901 238.294 68.7237C238.232 68.97 238.134 69.2073 238.001 69.4355C237.867 69.6638 237.69 69.8702 237.469 70.0548L232.879 74.0082L231.737 79.0876C231.577 79.811 231.19 80.3572 230.574 80.7263C229.958 81.0954 229.321 81.1976 228.664 81.033C228.623 81.0227 228.405 80.9353 228.01 80.7709L222.886 77.8505L216.99 78.0084C216.877 78.0237 216.758 78.0211 216.632 78.0005C216.506 77.9799 216.392 77.9567 216.29 77.931C215.633 77.7664 215.12 77.3761 214.751 76.7601C214.382 76.1441 214.298 75.4795 214.498 74.7664L215.894 69.718L213.735 64.1054C213.627 63.8385 213.569 63.573 213.559 63.3087C213.548 63.0444 213.574 62.7891 213.636 62.5429C213.765 62.0298 214.033 61.59 214.441 61.2233C214.849 60.8567 215.343 60.6479 215.923 60.5969L221.596 60.1541ZM222.572 62.6562L216.106 63.1294L218.542 69.5965L216.945 75.4453L223.526 75.2954L229.251 78.5626L230.609 72.6213L235.792 68.1295L230.33 64.6008L227.724 58.5492L222.572 62.6562Z" fill="#FFE7D6"/>
<path d="M13.5967 126.658L16.0821 121.402C16.2575 121.017 16.4987 120.709 16.8057 120.48C17.1126 120.25 17.4521 120.094 17.8241 120.012C18.1961 119.931 18.5695 119.93 18.9445 120.01C19.3195 120.09 19.6673 120.268 19.9879 120.545L24.446 124.278L30.1035 124.888C30.6771 124.935 31.1676 125.147 31.5751 125.524C31.9826 125.9 32.2453 126.357 32.3632 126.894C32.4176 127.142 32.4359 127.398 32.418 127.662C32.4001 127.926 32.3334 128.189 32.2179 128.453L29.8694 134.037L31.109 139.093C31.2884 139.812 31.1845 140.474 30.7974 141.079C30.4103 141.684 29.8861 142.058 29.2248 142.204C29.1834 142.213 28.9493 142.232 28.5224 142.26L22.6336 141.928L17.425 144.696C17.3308 144.76 17.2228 144.81 17.1011 144.848C16.9793 144.886 16.8668 144.916 16.7635 144.938C16.1022 145.083 15.4691 144.962 14.8643 144.575C14.2595 144.188 13.8881 143.631 13.75 142.903L12.7516 137.761L8.31834 133.698C8.10313 133.507 7.93215 133.295 7.8054 133.063C7.67865 132.831 7.58806 132.591 7.53364 132.343C7.42026 131.826 7.46464 131.313 7.66679 130.803C7.86893 130.293 8.21825 129.886 8.71473 129.582L13.5967 126.658ZM15.585 128.464L10.0067 131.768L15.0681 136.473L16.2435 142.421L22.069 139.355L28.6495 139.731L27.2194 133.806L29.8591 127.476L23.3965 126.75L18.3683 122.492L15.585 128.464Z" fill="#C5F7D5"/>
<path d="M75.6245 9.60742L77.3763 5.90227C77.5 5.63085 77.67 5.41415 77.8863 5.25216C78.1027 5.09017 78.342 4.9804 78.6042 4.92286C78.8664 4.86532 79.1296 4.86481 79.3939 4.92131C79.6582 4.97781 79.9034 5.10341 80.1293 5.29811L83.2717 7.92921L87.2593 8.35948C87.6636 8.3929 88.0094 8.54222 88.2966 8.80744C88.5838 9.07266 88.769 9.39463 88.8521 9.77335C88.8905 9.94814 88.9033 10.1285 88.8907 10.3145C88.8781 10.5005 88.8311 10.6864 88.7497 10.8722L87.0943 14.8081L87.9681 18.3722C88.0945 18.8788 88.0213 19.3453 87.7484 19.7716C87.4756 20.1979 87.1061 20.4622 86.64 20.5645C86.6108 20.5708 86.4458 20.5842 86.1449 20.6044L81.9942 20.3702L78.3229 22.321C78.2565 22.3661 78.1803 22.4019 78.0945 22.4283C78.0087 22.4548 77.9294 22.476 77.8566 22.492C77.3905 22.5943 76.9443 22.509 76.518 22.2361C76.0917 21.9633 75.8299 21.5703 75.7325 21.0573L75.0288 17.433L71.904 14.569C71.7523 14.4344 71.6318 14.2853 71.5425 14.1217C71.4531 13.9581 71.3893 13.7889 71.3509 13.6141C71.271 13.2499 71.3023 12.8881 71.4448 12.5285C71.5873 12.169 71.8335 11.8822 72.1834 11.668L75.6245 9.60742ZM77.0259 10.8801L73.0941 13.2086L76.6616 16.5251L77.4901 20.7174L81.5962 18.5567L86.2345 18.8213L85.2265 14.6455L87.0871 10.1836L82.5319 9.67175L78.9878 6.6708L77.0259 10.8801Z" fill="#FFD6E5"/>
</svg>
