<svg width="360" height="186" viewBox="0 0 360 186" fill="none" xmlns="http://www.w3.org/2000/svg">
<path d="M142.615 179.09L168.034 100.919C171.812 89.3202 188.239 89.3202 192.017 100.919L217.436 179.09C219.128 184.317 224.752 187.187 229.983 185.479L248.718 179.397C253.949 177.706 256.821 172.086 255.111 166.859L229.692 88.6881C225.915 77.089 239.214 67.4372 249.094 74.612L315.641 122.922C320.085 126.151 326.325 125.16 329.556 120.718L341.145 104.78C344.376 100.339 343.385 94.1034 338.94 90.8747L272.393 42.5648C262.65 35.4926 267.47 20.2548 279.282 19.8107L362.034 19.8107C367.538 19.8107 372 15.3521 372 9.85144L372 -9.8791C372 -15.3797 367.538 -19.8383 362.034 -19.8383L279.282 -19.8383C267.453 -20.2825 262.65 -35.5203 272.393 -42.5925L338.923 -90.9024C343.368 -94.131 344.359 -100.349 341.128 -104.808L329.538 -120.746C326.308 -125.187 320.085 -126.178 315.624 -122.95L249.077 -74.6397C239.197 -67.4649 225.897 -77.1166 229.675 -88.7158L255.094 -166.886C256.786 -172.114 253.932 -177.734 248.701 -179.425L229.966 -185.506C224.735 -187.198 219.111 -184.345 217.419 -179.118L192 -100.947C188.222 -89.3479 171.795 -89.3479 168.017 -100.947L142.598 -179.118C140.906 -184.345 135.282 -187.215 130.051 -185.506L111.299 -179.425C106.068 -177.734 103.197 -172.114 104.906 -166.886L130.325 -88.7158C134.103 -77.1166 120.803 -67.4649 110.923 -74.6226L44.3761 -122.932C39.9316 -126.161 33.6923 -125.17 30.4615 -120.729L18.8718 -104.791C15.641 -100.349 16.6325 -94.114 21.077 -90.8853L87.624 -42.5754C97.3675 -35.5032 92.547 -20.2654 80.718 -19.8212L-2.03416 -19.8212C-7.53843 -19.8212 -12 -15.3627 -12 -9.86203L-12 9.86851C-12 15.3691 -7.53843 19.8277 -2.03416 19.8277L80.718 19.8277C92.547 20.2719 97.3504 35.5096 87.624 42.5819L21.077 90.8918C16.6325 94.1204 15.641 100.339 18.8718 104.797L30.4615 120.735C33.6923 125.177 39.9316 126.168 44.3761 122.939L110.923 74.629C120.803 67.4543 134.103 77.1061 130.325 88.7223L104.906 166.893C103.214 172.12 106.068 177.74 111.299 179.431L130.051 185.513C135.282 187.204 140.906 184.351 142.598 179.124L142.615 179.09Z" fill="#00472B"/>
</svg>
