<svg width="210" height="134" viewBox="0 0 210 134" fill="none" xmlns="http://www.w3.org/2000/svg">
<path fill-rule="evenodd" clip-rule="evenodd" d="M107.15 39.8911C108.571 37.6528 111.519 37.0069 113.734 38.4486C119.363 42.1112 124.56 46.5123 129.411 50.6202C130.231 51.314 131.04 51.9995 131.84 52.6716C138.891 58.5953 146.025 64.1418 153.599 69.3752C155.774 70.8783 156.336 73.8782 154.854 76.0757C153.371 78.2733 150.407 78.8363 148.232 77.3333C140.367 71.8983 132.992 66.1621 125.758 60.084C124.905 59.3677 124.061 58.6537 123.223 57.9446C118.349 53.8212 113.669 49.8611 108.587 46.5542C106.372 45.1126 105.728 42.1294 107.15 39.8911Z" fill="#969188"/>
<path fill-rule="evenodd" clip-rule="evenodd" d="M146.351 33.3482C148.624 34.755 149.311 37.7203 147.885 39.9714C140.911 50.9817 134.744 62.0642 129.652 73.769C129.425 74.2903 129.185 74.8721 128.927 75.4965C127.806 78.2119 126.352 81.735 124.21 84.6099C122.617 86.7488 119.575 87.2083 117.416 85.6361C115.256 84.064 114.796 81.0556 116.389 78.9167C117.743 77.0986 118.609 75.0228 119.686 72.4386C120.007 71.667 120.348 70.8501 120.726 69.9812C126.065 57.71 132.49 46.1844 139.652 34.877C141.078 32.6259 144.077 31.9414 146.351 33.3482Z" fill="#969188"/>
<g style="mix-blend-mode:multiply">
<path fill-rule="evenodd" clip-rule="evenodd" d="M175.716 3.78276C176.102 6.14418 174.501 8.37173 172.14 8.75815C165.035 9.92068 157.623 10.7998 150.327 11.6653C145.026 12.2941 139.786 12.9157 134.769 13.6335C114.46 16.5393 94.2355 20.2214 73.991 24.0481C68.6911 25.0499 63.3226 26.1566 57.9076 27.2728C45.6045 29.8089 33.0614 32.3945 20.5371 33.9126C20.2025 33.9531 19.8722 33.9544 19.5508 33.92C20.6564 34.7349 21.3572 36.0608 21.3137 37.5375C21.134 43.6488 17.9311 49.4182 11.8057 52.0434C11.5041 52.1726 11.1803 52.3582 10.5778 52.7178C10.5535 52.7323 10.5285 52.7473 10.5028 52.7626C10.1873 52.9512 9.77763 53.196 9.31056 53.4424C9.24933 53.5801 9.18947 53.7292 9.13568 53.8769C9.05724 54.0924 9.01623 54.2373 9.00684 54.2749C8.97536 54.4008 8.94531 54.5362 8.92096 54.6707C8.92043 54.6737 8.9199 54.6766 8.91937 54.6796C8.9921 54.7576 9.08322 54.8541 9.20135 54.979C9.22484 55.0039 9.25091 55.0312 9.2793 55.0609C9.77851 55.584 10.9942 56.8577 11.5031 58.6751C12.2728 61.4241 11.2657 63.6521 10.5428 64.9211C10.2781 65.3858 9.95272 65.8838 9.73164 66.2222C9.67451 66.3097 9.62434 66.3865 9.58398 66.4493C9.3217 66.8574 9.23109 67.032 9.19625 67.1151C9.03476 67.5002 8.90262 67.9084 8.80326 68.327C8.84211 68.3579 8.88317 68.3905 8.92691 68.4252C8.92686 68.4251 8.92697 68.4252 8.92691 68.4252L8.94098 68.4363L8.94119 68.4365C9.92749 69.2193 11.628 70.5851 12.3826 72.6809C13.2704 75.1469 12.519 77.41 11.6366 79.1161C11.2412 79.8805 11.1989 80.0376 11.1859 80.0878L11.1855 80.0896C11.1775 80.1199 11.134 80.2861 11.134 81.073C11.134 81.5756 11.0956 82.1025 11.0689 82.4694L11.0655 82.5161C11.0343 82.9467 11.0124 83.2564 11.007 83.5425C11.0054 83.6281 11.0056 83.7009 11.007 83.7625C12.5356 86.1476 14.2146 88.8786 14.5384 92.9578C14.8486 96.8666 15.322 100.711 16.2069 104.298C16.3647 104.937 16.6209 105.505 16.7542 105.698C17.7656 107.158 18.0973 108.676 18.247 109.753C18.2961 110.106 18.33 110.451 18.3558 110.751C19.0195 110.878 20.0706 111.103 21.1224 111.601C23.131 112.551 26.3532 114.198 28.4182 116.853C29.8873 118.742 29.547 121.464 27.6583 122.933C25.7695 124.402 23.0474 124.061 21.5784 122.173C20.9078 121.311 19.4451 120.393 17.4169 119.434C17.3573 119.405 17.2161 119.354 16.476 119.215C16.4376 119.208 16.3963 119.2 16.3523 119.192C15.7444 119.08 14.6181 118.872 13.5081 118.373C12.0313 117.708 11.1979 116.529 10.8028 115.851C10.3618 115.095 10.011 114.176 9.88426 113.225C9.82019 112.745 9.78318 112.266 9.75605 111.915L9.75085 111.848C9.71975 111.448 9.69729 111.183 9.6644 110.947C9.63461 110.732 9.6052 110.62 9.59122 110.574C8.66451 109.213 8.0892 107.569 7.7941 106.374C6.74702 102.13 6.22674 97.756 5.90033 93.6434C5.74894 91.7358 5.08502 90.5792 3.4676 88.0579C2.33607 86.2941 2.32592 84.3035 2.3434 83.3788C2.35349 82.8446 2.39154 82.322 2.41918 81.9423L2.4231 81.8885C2.45547 81.4426 2.46882 81.2227 2.46882 81.073C2.46882 80.0608 2.51085 79.0276 2.79491 77.9254C3.04046 76.9725 3.42192 76.1517 3.79498 75.4176C3.72159 75.3575 3.64173 75.2931 3.55462 75.224C3.55455 75.224 3.55448 75.2239 3.55441 75.2238L3.54055 75.2128C3.50341 75.1834 3.4622 75.151 3.41773 75.1161C2.88309 74.696 1.85182 73.8858 1.12493 72.8003C0.104379 71.2763 -0.157364 69.5899 0.0789449 67.8884C0.27321 66.4897 0.649219 65.09 1.20527 63.7641C1.5498 62.9425 1.99109 62.2365 2.29427 61.7647C2.4113 61.5826 2.5083 61.4339 2.59195 61.3057C2.69903 61.1416 2.78426 61.011 2.86167 60.8866C2.85296 60.8774 2.84401 60.8679 2.83483 60.8583C2.60046 60.6114 2.2154 60.2057 1.8659 59.7638C1.45737 59.2472 0.965267 58.5244 0.62037 57.5932C0.143846 56.3066 0.177118 55.042 0.237679 54.303C0.305817 53.4716 0.466405 52.7092 0.600372 52.1733C0.781405 51.4492 1.13614 50.4296 1.59483 49.4875C1.82666 49.0114 2.14565 48.4287 2.56085 47.8738C2.90369 47.4156 3.66716 46.4838 4.92623 45.9442C5.21355 45.8211 5.52688 45.6412 6.13658 45.2773C6.15726 45.265 6.17839 45.2523 6.19994 45.2395C6.7266 44.9248 7.50946 44.4572 8.3923 44.0788C10.9718 42.9733 12.5567 40.5336 12.6523 37.2828C12.7226 34.891 14.7186 33.0091 17.1104 33.0794C17.2248 33.0828 17.338 33.0905 17.4498 33.1025C16.5204 32.4192 15.8644 31.3684 15.7146 30.1328C15.4267 27.7574 17.119 25.5983 19.4944 25.3104C31.6542 23.8364 43.6106 21.3707 55.7385 18.8695C61.2392 17.7351 66.7752 16.5934 72.3816 15.5337C92.6484 11.7028 113.03 7.99034 133.542 5.05564C139.089 4.26193 144.44 3.63141 149.729 3.00812C156.735 2.18246 163.634 1.3695 170.74 0.206698C173.102 -0.179716 175.329 1.42134 175.716 3.78276ZM180.608 1.88535C183 1.80429 185.004 3.67723 185.085 6.06868C185.162 8.34785 185.85 10.6947 187.008 12.443C188.125 14.1288 189.536 15.0886 191.239 15.297C191.244 15.2973 191.275 15.2997 191.344 15.3005C191.447 15.3016 191.562 15.2991 191.773 15.294L191.828 15.2926C192.186 15.2837 192.873 15.2665 193.603 15.3639C194.431 15.4744 195.411 15.7172 196.348 16.1041C197.184 16.4489 198.551 17.1347 199.546 18.4409C200.749 20.0204 200.763 21.8823 200.766 22.4777C200.769 22.9211 200.743 23.3321 200.723 23.6252C200.712 23.78 200.704 23.8869 200.697 23.9683C200.689 24.0814 200.684 24.1451 200.681 24.2196C200.61 25.7991 199.957 27.0739 199.661 27.6456C199.582 27.7987 199.501 27.9488 199.438 28.0676L199.422 28.0974C199.35 28.2315 199.298 28.3293 199.252 28.419C199.186 28.5467 199.162 28.6046 199.157 28.6148C199.093 28.8096 199.038 29.0079 198.998 29.1978C198.975 29.3057 198.959 29.4022 198.948 29.4864C199.03 29.5509 199.127 29.6253 199.251 29.7193L199.325 29.7748C199.493 29.9017 199.715 30.0693 199.929 30.2406C200.898 31.0138 202.85 32.7111 203.058 35.716C203.187 37.5885 202.682 39.0552 202.123 40.1679C201.998 40.4173 201.865 40.6581 201.741 40.8728C202.377 41.5683 202.759 42.3211 202.988 42.8938C203.322 43.7274 203.494 44.5789 203.573 45.3316C203.709 46.6407 203.65 48.5904 202.775 50.2323C202.631 50.5025 202.451 51.204 202.613 52.5185C202.767 53.762 203.172 55.1044 203.624 56.2364C203.807 56.692 203.994 57.0963 204.229 57.6044C204.319 57.7981 204.416 58.0069 204.522 58.2394C204.873 59.0081 205.286 59.9574 205.608 61.0397C205.913 62.0654 206.147 63.2447 206.324 64.1331C206.383 64.4342 206.437 64.7019 206.484 64.9188C206.682 65.8344 206.916 66.7085 207.18 67.6931C207.263 68.0033 207.349 68.3245 207.438 68.6613C207.79 69.9989 208.164 71.5095 208.393 73.1245C208.501 73.8929 208.654 74.7828 208.818 75.7433C209.162 77.7538 209.56 80.0736 209.721 82.2353C209.901 82.712 210 83.2289 210 83.7689C210 83.9685 209.996 84.1933 209.982 84.4142C209.974 84.5227 209.961 84.6847 209.933 84.8711L209.933 84.8752C209.915 84.9935 209.849 85.4315 209.64 85.938C209.545 86.1695 209.273 86.7877 208.67 87.382C207.952 88.0906 206.601 88.8736 204.865 88.5667C204.795 88.5542 204.726 88.5404 204.659 88.5251C204.547 88.5326 204.433 88.5357 204.319 88.5344C202.204 88.5107 199.649 90.4035 197.747 93.7462C197.555 94.0833 197.402 94.477 197.328 94.8238C197.28 95.0467 197.283 95.1661 197.283 95.1962C197.905 97.4806 196.576 99.847 194.293 100.499C191.992 101.157 189.594 99.8244 188.937 97.5236C188.051 94.4235 189.173 91.2941 190.216 89.4611C192.156 86.0511 195.747 81.7629 200.795 80.3468C200.678 79.5654 200.54 78.7722 200.395 77.9331C200.204 76.8385 200.001 75.6656 199.813 74.3389C199.658 73.2471 199.393 72.1386 199.059 70.8695C198.991 70.6119 198.919 70.3422 198.844 70.0633C198.57 69.0421 198.262 67.8956 198.015 66.7547C197.897 66.2093 197.809 65.7633 197.732 65.3709C197.592 64.6648 197.488 64.1326 197.302 63.5091C197.157 63.0193 196.946 62.511 196.639 61.8367C196.579 61.7052 196.511 61.5595 196.438 61.4028C196.179 60.8438 195.855 60.1454 195.579 59.4546C194.948 57.8783 194.286 55.7876 194.013 53.5786C193.768 51.5877 193.784 49.0486 194.87 46.6773C194.017 46.1477 192.422 44.8831 192.248 42.4902C192.107 40.5599 192.951 38.8794 193.225 38.3333C193.233 38.3175 193.24 38.3026 193.247 38.2887C193.51 37.7628 193.786 37.3009 193.977 36.9814L193.982 36.9718C194.041 36.873 194.092 36.7884 194.135 36.7144C194.127 36.708 194.118 36.7016 194.11 36.695L194.021 36.6275C193.82 36.4754 193.554 36.2729 193.282 36.0476C192.751 35.6058 192.002 34.9193 191.395 33.9423C190.373 32.2943 190.216 30.5389 190.276 29.2633C190.337 27.9578 190.642 26.7586 190.942 25.8584C191.131 25.2927 191.366 24.8068 191.538 24.4714C191.626 24.2987 191.715 24.1334 191.785 24.0035L191.793 23.987C191.798 23.9782 191.803 23.9695 191.807 23.9611C191.441 23.9697 190.833 23.9767 190.197 23.8993C185.458 23.3229 181.988 20.5551 179.785 17.2286C177.621 13.9632 176.548 10.0105 176.425 6.36224C176.344 3.97079 178.217 1.96642 180.608 1.88535ZM196.089 47.3026C196.089 47.303 196.082 47.2994 196.068 47.292C196.082 47.2988 196.089 47.3023 196.089 47.3026ZM200.841 42.5092C200.841 42.509 200.841 42.5087 200.842 42.5084C200.841 42.5096 200.841 42.5099 200.841 42.5092ZM189.394 104.087C189.658 106.465 187.944 108.607 185.566 108.871C165.327 111.12 145.12 113.375 124.981 116.01C102.329 118.974 79.8875 122.922 57.5398 127.744C54.8899 128.315 52.1381 128.974 49.3271 129.647C43.5767 131.023 37.5787 132.459 31.6988 133.33C29.3318 133.681 27.1287 132.046 26.778 129.679C26.4274 127.312 28.0619 125.109 30.4289 124.759C35.9512 123.941 41.2721 122.664 46.7825 121.342C49.6874 120.645 52.645 119.935 55.7125 119.273C78.2761 114.406 100.953 110.415 123.857 107.418C144.092 104.771 164.38 102.507 184.609 100.259C186.987 99.995 189.129 101.709 189.394 104.087Z" fill="#D2CEC6"/>
</g>
<g style="mix-blend-mode:multiply">
<path fill-rule="evenodd" clip-rule="evenodd" d="M60.492 20.8631C62.8737 20.6324 64.9914 22.3761 65.2221 24.7578C65.6142 28.8057 66.5412 32.541 67.5735 36.7001C67.8681 37.8872 68.1713 39.1089 68.4731 40.3822C69.0249 42.7105 67.5848 45.0453 65.2565 45.5971C62.9281 46.149 60.5933 44.7088 60.0415 42.3805C59.7889 41.3148 59.5186 40.2287 59.2435 39.1234C58.1855 34.8731 57.057 30.3394 56.5973 25.5932C56.3666 23.2116 58.1103 21.0938 60.492 20.8631Z" fill="#D2CEC6"/>
</g>
<g style="mix-blend-mode:multiply">
<path fill-rule="evenodd" clip-rule="evenodd" d="M66.5747 52.4806C68.9658 52.3885 70.9787 54.2522 71.0708 56.6432C71.1688 59.1867 71.634 61.5284 72.1748 64.2507C72.3718 65.2425 72.5789 66.2848 72.7819 67.4057C73.2083 69.7602 71.6452 72.0146 69.2907 72.441C66.9362 72.8674 64.6818 71.3043 64.2554 68.9498C64.1124 68.1603 63.9457 67.3244 63.7719 66.4528C63.1947 63.5578 62.5388 60.2689 62.4121 56.9767C62.32 54.5856 64.1837 52.5727 66.5747 52.4806Z" fill="#D2CEC6"/>
</g>
<g style="mix-blend-mode:multiply">
<path fill-rule="evenodd" clip-rule="evenodd" d="M71.2974 78.6569C73.6884 78.5648 75.7014 80.4285 75.7935 82.8195C75.8914 85.363 76.3566 87.7047 76.8975 90.427C77.0945 91.4188 77.3015 92.461 77.5045 93.582C77.9309 95.9365 76.3679 98.1909 74.0134 98.6173C71.6588 99.0437 69.4044 97.4806 68.9781 95.1261C68.8351 94.3366 68.6684 93.5007 68.4946 92.6291C67.9173 89.7341 67.2615 86.4452 67.1347 83.153C67.0426 80.7619 68.9063 78.7489 71.2974 78.6569Z" fill="#D2CEC6"/>
</g>
<g style="mix-blend-mode:multiply">
<path fill-rule="evenodd" clip-rule="evenodd" d="M75.3331 101.77C77.7253 101.719 79.7058 103.617 79.7566 106.009C79.8139 108.71 80.3124 111.103 80.9199 114.018C81.0917 114.843 81.2722 115.709 81.4538 116.635C81.9142 118.984 80.3838 121.26 78.0357 121.721C75.6876 122.181 73.4108 120.651 72.9505 118.302C72.8159 117.616 72.6669 116.906 72.5134 116.175C71.8792 113.156 71.1694 109.776 71.0933 106.193C71.0426 103.801 72.9408 101.82 75.3331 101.77Z" fill="#D2CEC6"/>
</g>
</svg>
