<svg width="94" height="160" viewBox="0 0 94 160" fill="none" xmlns="http://www.w3.org/2000/svg">
<path d="M77.9992 122.641C76.5564 125.729 38.0276 132.308 31.125 131.51C27.1182 131.048 16.155 58.5845 18.1643 56.4404C21.1797 53.2227 60.6042 43.8672 64.5869 46.5761C68.2717 49.0823 80.1533 118.031 77.9992 122.641Z" fill="#E5FBED"/>
<path fill-rule="evenodd" clip-rule="evenodd" d="M3.53273 35.0651C5.06482 34.7949 6.52582 35.8179 6.79597 37.35L23.1824 130.282C23.4525 131.814 22.4295 133.275 20.8975 133.545C19.3654 133.815 17.9044 132.792 17.6342 131.26L1.24779 38.3283C0.977637 36.7962 2.00064 35.3352 3.53273 35.0651Z" fill="#FFEDA5"/>
<path fill-rule="evenodd" clip-rule="evenodd" d="M19.5765 126.056C21.1086 125.785 22.5696 126.808 22.8397 128.34C23.2659 130.758 23.765 133.087 24.3977 135.427C24.8226 136.999 25.2051 138.056 25.9093 138.962C26.0992 139.206 26.5507 139.532 27.5084 139.772C28.4383 140.004 29.5411 140.079 30.6224 140.075C33.212 140.067 35.7612 139.615 38.5653 139.118C39.2045 139.005 39.857 138.889 40.5262 138.776C42.5427 138.434 44.5372 138.107 46.5229 137.782C49.4943 137.295 52.4461 136.812 55.423 136.287C56.9753 136.013 58.525 135.749 60.0697 135.486C68.086 134.121 75.9664 132.778 83.3613 130.225C84.8318 129.717 86.4355 130.497 86.9433 131.968C87.4511 133.438 86.6706 135.042 85.2 135.55C77.3271 138.268 68.9114 139.699 60.8998 141.061C59.3837 141.319 57.882 141.574 56.4013 141.835C53.4076 142.363 50.378 142.86 47.3683 143.353C45.3872 143.677 43.4147 144 41.4667 144.33C40.9015 144.426 40.3197 144.53 39.724 144.636C36.8999 145.14 33.7659 145.699 30.6407 145.709C29.3595 145.713 27.7252 145.633 26.1406 145.237C24.5838 144.847 22.7436 144.069 21.4618 142.42C20.0262 140.574 19.4143 138.581 18.9592 136.897C18.2748 134.366 17.7412 131.869 17.2915 129.319C17.0214 127.787 18.0444 126.326 19.5765 126.056Z" fill="#FFEDA5"/>
<path fill-rule="evenodd" clip-rule="evenodd" d="M89.9305 129.239C88.3984 129.509 86.9374 128.486 86.6673 126.954L71.2347 39.4316C70.9645 37.8995 71.9875 36.4385 73.5196 36.1684C75.0517 35.8983 76.5127 36.9213 76.7829 38.4533L92.2155 125.976C92.4856 127.508 91.4626 128.969 89.9305 129.239Z" fill="#FFEDA5"/>
<path fill-rule="evenodd" clip-rule="evenodd" d="M74.4976 41.7167C72.9655 41.9868 71.5045 40.9638 71.2343 39.4317C70.7725 36.8124 70.2441 34.2816 69.5899 31.7331C69.1488 30.0151 68.7428 28.7804 68.0113 27.7111C67.7773 27.3691 67.337 27.0341 66.5276 26.7787C65.7126 26.5215 64.7385 26.4158 63.7623 26.3918C61.4217 26.3341 59.1369 26.7391 56.5528 27.1973C55.9575 27.3029 55.3463 27.4112 54.7148 27.5174C52.844 27.832 50.999 28.1303 49.1642 28.427C46.4241 28.8701 43.7067 29.3095 40.9597 29.7938C39.5176 30.0481 38.0805 30.2916 36.6505 30.5338C29.2469 31.7882 22.0328 33.0104 15.2931 35.5341C13.8362 36.0797 12.2129 35.3409 11.6673 33.884C11.1217 32.427 11.8606 30.8037 13.3175 30.2581C20.6087 27.5279 28.4459 26.2041 35.8445 24.9545C37.2413 24.7185 38.6225 24.4852 39.9814 24.2456C42.748 23.7578 45.5561 23.3035 48.341 22.853C50.1704 22.5571 51.9897 22.2628 53.7807 21.9616C54.291 21.8758 54.8202 21.7811 55.365 21.6837C57.9728 21.2171 60.9374 20.6866 63.9012 20.7597C65.1174 20.7897 66.6877 20.9216 68.2228 21.406C69.7636 21.8922 71.4793 22.8025 72.6612 24.5302C73.9881 26.4699 74.5852 28.5345 75.0467 30.3322C75.7433 33.0455 76.3006 35.7201 76.7825 38.4534C77.0527 39.9855 76.0297 41.4465 74.4976 41.7167Z" fill="#FFEDA5"/>
<path fill-rule="evenodd" clip-rule="evenodd" d="M43.4745 37.4435C43.8958 38.9411 43.0232 40.4967 41.5256 40.9179C38.5084 41.7666 35.3859 42.2917 32.4419 42.7868C31.6758 42.9156 30.9217 43.0424 30.1848 43.1724C30.0606 43.1943 29.9036 43.2183 29.7152 43.2471C29.3329 43.3055 28.8215 43.3837 28.1927 43.5042C28.0095 43.5393 27.8522 43.5718 27.722 43.6006C26.725 44.2736 25.3671 44.253 24.3808 43.4595C24.1362 43.2628 23.7751 42.9074 23.5347 42.3488C23.2707 41.7349 23.2345 41.0621 23.4086 40.4429C23.6948 39.425 24.4326 38.9223 24.5857 38.818C24.5873 38.8169 24.5888 38.8159 24.5903 38.8149C25.026 38.5177 25.4904 38.372 25.6502 38.3219L25.654 38.3207C26.1107 38.1774 26.6737 38.059 27.1326 37.9711C27.9857 37.8076 29.2729 37.6125 29.2065 37.6242C30.0419 37.4769 30.8613 37.3388 31.6676 37.2029C34.5709 36.7136 37.304 36.253 40.0001 35.4946C41.4977 35.0734 43.0533 35.9459 43.4745 37.4435ZM27.3409 43.696C27.342 43.6957 27.343 43.6953 27.3441 43.695C27.2942 43.7142 27.2861 43.7132 27.3409 43.696Z" fill="#FFF1E6"/>
<path fill-rule="evenodd" clip-rule="evenodd" d="M49.3737 33.481C50.8911 32.9201 52.7841 33.4959 53.6989 35.0815C54.1056 35.7865 54.4528 36.9057 53.9749 38.1104C53.4984 39.3114 52.4734 39.9051 51.6257 40.0952C49.983 40.4636 48.0346 39.5891 47.4387 37.604C47.3592 37.3392 47.3205 37.0718 47.319 36.8087C47.3006 36.6483 47.2935 36.4807 47.3006 36.3062C47.3634 34.7526 48.4517 33.8218 49.3737 33.481Z" fill="#FFF1E6"/>
<path d="M61.0049 90.3672L53.0362 89.2256C51.8536 89.0556 51.5722 87.4594 52.6253 86.8952L59.7229 83.0969C60.1977 82.8437 60.3779 82.2484 60.1237 81.7692L59.2166 80.052C58.964 79.5725 58.3732 79.389 57.8987 79.6439L50.801 83.4421C49.748 84.0063 48.59 82.878 49.1105 81.7963L52.6258 74.5091C52.8608 74.0224 52.6584 73.4329 52.1751 73.1945L50.4406 72.3391C49.9572 72.1007 49.3733 72.3029 49.1383 72.7897L45.6229 80.0769C45.1008 81.1589 43.5091 80.9309 43.3 79.7449L41.891 71.7538C41.7966 71.2189 41.2905 70.8612 40.7604 70.9546L38.864 71.289C38.3339 71.3825 37.9807 71.8918 38.075 72.4266L44.3125 107.801C44.4068 108.336 44.9129 108.694 45.443 108.601L47.3411 108.266C47.8712 108.172 48.2244 107.663 48.1301 107.128L46.7211 99.1371C46.512 97.9511 47.9296 97.1925 48.7903 98.0306L54.5861 103.676C54.9734 104.053 55.5896 104.044 55.9639 103.654L57.3013 102.257C57.674 101.868 57.6625 101.245 57.2752 100.868L51.4795 95.2221C50.6188 94.3839 51.321 92.9277 52.5052 93.0974L60.4739 94.239C61.0067 94.3146 61.4994 93.9417 61.5727 93.4047L61.8375 91.4792C61.9109 90.9422 61.5396 90.4442 61.0068 90.3686L61.0049 90.3672Z" fill="#6DDFA6"/>
<path fill-rule="evenodd" clip-rule="evenodd" d="M87.5543 4.11091C88.8363 4.99227 89.161 6.746 88.2797 8.02799C86.7607 10.2374 85.0877 12.4336 83.4653 14.5633C82.5847 15.7194 81.7189 16.8558 80.9009 17.9641C79.9771 19.2157 78.2134 19.4815 76.9617 18.5576C75.71 17.6338 75.4443 15.8701 76.3682 14.6184C77.2983 13.3582 78.2149 12.1559 79.1159 10.9742C80.6735 8.93128 82.1842 6.94973 83.6372 4.83629C84.5186 3.55431 86.2723 3.22954 87.5543 4.11091Z" fill="#6DDFA6"/>
<path fill-rule="evenodd" clip-rule="evenodd" d="M71.4965 3.15341C72.9962 3.56712 73.8766 5.11825 73.4629 6.61796C72.7545 9.18596 72.114 11.7608 71.5233 14.3766C71.1806 15.8941 69.6727 16.8465 68.1552 16.5039C66.6376 16.1612 65.6852 14.6532 66.0279 13.1357C66.6364 10.4408 67.2982 7.77975 68.032 5.11978C68.4457 3.62007 69.9968 2.7397 71.4965 3.15341Z" fill="#FFE7FB"/>
<path fill-rule="evenodd" clip-rule="evenodd" d="M78.0711 24.4604C78.0711 22.9047 79.3323 21.6436 80.888 21.6436H86.8035C88.3592 21.6436 89.6204 22.9047 89.6204 24.4604C89.6204 26.0162 88.3592 27.2773 86.8035 27.2773H80.888C79.3323 27.2773 78.0711 26.0162 78.0711 24.4604Z" fill="#FFA86D"/>
<g style="mix-blend-mode:multiply">
<path fill-rule="evenodd" clip-rule="evenodd" d="M80.4903 10.7084C79.2889 9.71997 79.1162 7.94479 80.1047 6.74341L83.863 2.1753C84.8514 0.973925 86.6266 0.801282 87.828 1.7897C89.0293 2.77811 89.202 4.55329 88.2136 5.75467L84.4552 10.3228C83.4668 11.5242 81.6916 11.6968 80.4903 10.7084Z" fill="#FFEDA5"/>
</g>
<path fill-rule="evenodd" clip-rule="evenodd" d="M9.18008 136.904C10.5986 136.266 12.2664 136.898 12.9052 138.316C15.4444 143.955 18.4911 148.713 22.9264 152.745C24.0776 153.792 24.1624 155.573 23.1159 156.724C22.0694 157.876 20.2879 157.96 19.1367 156.914C13.9712 152.218 10.5227 146.746 7.76828 140.63C7.12947 139.211 7.76156 137.543 9.18008 136.904Z" fill="#FFE7FB"/>
<path fill-rule="evenodd" clip-rule="evenodd" d="M4.47068 147.414C5.68867 146.446 7.46066 146.649 8.42853 147.867C9.44896 149.151 10.4836 150.363 11.5781 151.542C12.6367 152.682 12.5707 154.464 11.4306 155.523C10.2906 156.581 8.50827 156.515 7.44968 155.375C6.24773 154.081 5.11925 152.758 4.01779 151.372C3.04992 150.154 3.25268 148.382 4.47068 147.414Z" fill="#FFA86D"/>
<g style="mix-blend-mode:multiply">
<path fill-rule="evenodd" clip-rule="evenodd" d="M5.13316 151.138C6.35115 150.171 8.12313 150.373 9.091 151.591C10.1114 152.876 11.1461 154.088 12.2405 155.266C13.2991 156.406 13.2331 158.189 12.0931 159.247C10.9531 160.306 9.17075 160.24 8.11216 159.1C6.91021 157.805 5.78173 156.482 4.68027 155.096C3.71241 153.878 3.91517 152.106 5.13316 151.138Z" fill="#6DDFA6"/>
</g>
</svg>
