<svg width="104" height="72" viewBox="0 0 104 72" fill="none" xmlns="http://www.w3.org/2000/svg">
<path fill-rule="evenodd" clip-rule="evenodd" d="M42.2145 8.27613C33.3589 6.00353 24.4656 7.15369 16.081 10.8707C10.6866 13.2622 5.91053 17.552 4.62689 23.0404C3.54247 27.6771 4.09375 31.8007 7.14927 35.502C8.20984 36.7868 9.50479 37.6073 11.0686 38.2908C11.8611 38.6372 12.7038 38.9406 13.6226 39.2577C13.8135 39.3236 14.0087 39.3904 14.2073 39.4584C14.9431 39.7103 15.725 39.9779 16.5033 40.2722C17.0129 40.4649 17.4211 40.8582 17.6327 41.3603C18.3666 43.1022 19.691 45.7571 21.0555 48.0231C21.739 49.1583 22.4022 50.1448 22.979 50.8559C23.2322 51.1681 23.4445 51.3968 23.6117 51.5524C23.8016 51.4735 24.0539 51.348 24.3705 51.1638C25.1916 50.686 26.2067 49.9537 27.2901 49.095C29.4437 47.388 31.6505 45.3557 32.7342 44.3425C33.0775 44.0215 33.5234 43.8325 33.9928 43.809C40.5764 43.4784 46.4688 42.4546 49.7038 41.0829C53.3124 39.5527 56.5032 37.9114 58.1818 35.5996C60.236 32.7707 61.4768 29.4269 61.3938 26.0631C61.3421 23.9672 60.3915 21.7796 59.1464 19.6279C55.6794 13.637 49.1999 10.0688 42.2145 8.27613ZM23.3244 51.6481C23.3247 51.6478 23.3315 51.6462 23.3442 51.6447C23.3306 51.6478 23.3242 51.6485 23.3244 51.6481ZM14.4689 7.23417C23.5466 3.20987 33.3575 1.89643 43.2033 4.42313C50.7254 6.35351 58.3754 10.3539 62.5893 17.6355C63.9141 19.9249 65.2932 22.8335 65.3704 25.965C65.479 30.3689 63.8601 34.5497 61.4006 37.9368C58.989 41.2581 54.773 43.2541 51.2567 44.7451C47.5072 46.3349 41.373 47.3678 34.9196 47.7424C33.7057 48.8655 31.7269 50.6541 29.7609 52.2123C28.6236 53.1138 27.4355 53.9825 26.3713 54.6018C25.8422 54.9097 25.283 55.1921 24.735 55.3784C24.246 55.5446 23.4693 55.7404 22.6542 55.5216C21.9816 55.341 21.438 54.9377 21.0622 54.6091C20.6543 54.2525 20.2597 53.8179 19.8897 53.3618C19.1478 52.4472 18.3764 51.2852 17.6477 50.075C16.3797 47.9691 15.1485 45.562 14.3164 43.7069C13.8654 43.546 13.4136 43.3913 12.9523 43.2333C12.7452 43.1624 12.5363 43.0909 12.3246 43.0178C11.3905 42.6954 10.4218 42.3493 9.47551 41.9357C7.56177 41.0993 5.66954 39.9579 4.08164 38.0344C0.065407 33.1693 -0.546575 27.6936 0.753574 22.1345C2.4286 14.9726 8.44835 9.90319 14.4689 7.23417Z" fill="#FFF1E6"/>
<path d="M60.7965 20.3343C70.6424 17.8076 80.4533 19.121 89.5309 23.1453C95.5515 25.8143 101.571 30.8838 103.246 38.0456C104.546 43.6047 103.934 49.0804 99.9182 53.9455C98.3303 55.8691 96.4381 57.0104 94.5243 57.8468C93.578 58.2604 92.6094 58.6065 91.6752 58.929C91.4636 59.002 91.2547 59.0736 91.0476 59.1445L91.0471 59.1446C90.586 59.3025 90.1343 59.4572 89.6835 59.618C88.8514 61.4731 87.6202 63.8802 86.3522 65.9861C85.6234 67.1964 84.8521 68.3583 84.1102 69.2729C83.7402 69.7291 83.3456 70.1636 82.9376 70.5202C82.5619 70.8488 82.0183 71.2521 81.3456 71.4327C80.5306 71.6515 79.7539 71.4557 79.2648 71.2895C78.7169 71.1032 78.1576 70.8209 77.6285 70.513C76.5643 69.8936 75.3763 69.025 74.2389 68.1235C72.2729 66.5652 70.2942 64.7766 69.0803 63.6536C62.6269 63.2789 56.4927 62.2461 52.7432 60.6562C49.2269 59.1652 45.0109 57.1692 42.5992 53.848C40.1398 50.4608 38.5208 46.28 38.6294 41.8762C38.7066 38.7446 40.0858 35.836 41.4106 33.5467C45.6244 26.265 53.2744 22.2646 60.7965 20.3343Z" fill="#6DDFA6"/>
<path d="M79.4548 32.5811C77.2786 31.5447 74.4442 31.6949 72.5206 33.2973C72.0437 33.6946 71.7915 33.9682 71.3515 34.6303C71.3241 34.6716 71.3015 34.7148 71.2826 34.7587C71.2674 34.7312 71.251 34.7042 71.2336 34.6779C70.7936 34.0158 70.5414 33.7422 70.0645 33.3449C68.1409 31.7425 65.3065 31.5923 63.1303 32.6287C62.0305 33.1525 60.955 34.0254 60.3969 35.1864C59.5309 36.9877 59.8269 39.2336 60.4347 40.9685C61.2186 43.2062 62.885 45.0447 64.5357 46.5749C65.959 47.8943 67.4913 49.0847 69.1359 50.1195C69.6665 50.4534 70.3354 50.8102 71.2899 50.8174C72.2556 50.8246 72.7745 50.4974 73.3822 50.1142C73.4044 50.1002 73.4267 50.0861 73.4492 50.0719C75.0938 49.0371 76.6261 47.8467 78.0494 46.5273C79.7001 44.9972 81.3665 43.1586 82.1504 40.9209C82.7582 39.186 83.0542 36.9402 82.1882 35.1388C81.6301 33.9779 80.5546 33.1049 79.4548 32.5811Z" fill="white"/>
<path fill-rule="evenodd" clip-rule="evenodd" d="M27.6982 19.8048C27.2882 20.4944 27.2029 21.3982 28.0173 22.4539C28.6882 23.3237 28.5271 24.5726 27.6573 25.2436C26.7876 25.9145 25.5386 25.7533 24.8677 24.8836C23.0175 22.4852 23.0362 19.7495 24.3599 17.6395L24.3599 17.6395C24.5405 17.3517 24.7376 17.08 24.9492 16.8245L24.9908 16.7675L25.0429 16.7135C25.2509 16.4716 25.472 16.2448 25.7042 16.0332C27.7476 14.1707 30.6135 13.4959 33.2014 13.8575C35.2352 14.1417 37.2989 15.1273 38.722 16.6868C40.1977 18.304 41.0009 20.5891 40.197 23.1384C39.6358 24.9181 38.4366 25.9544 37.4491 26.687C37.1528 26.9068 36.8884 27.0938 36.6487 27.2634C36.0068 27.7176 35.5409 28.0472 35.1077 28.5488C34.976 28.7013 34.8557 28.8387 34.7459 28.9641C34.0131 29.8008 33.7516 30.0993 33.7516 30.7295C33.7516 31.8279 32.8611 32.7184 31.7627 32.7184C30.6642 32.7184 29.7738 31.8279 29.7738 30.7295C29.7738 28.466 31.154 26.9736 31.8606 26.2095C31.9523 26.1104 32.0327 26.0235 32.0972 25.9488C32.8814 25.0407 33.8884 24.3336 34.6078 23.8285C34.7849 23.7042 34.9446 23.592 35.0792 23.4922C35.863 22.9108 36.2264 22.5032 36.4033 21.9421L38.1758 22.501L36.4033 21.9421C36.7152 20.953 36.4597 20.109 35.7836 19.3681C35.0549 18.5695 33.8738 17.9679 32.651 17.7971C31.0696 17.5761 29.4667 18.0144 28.4269 18.9344L28.0431 19.3327L27.6982 19.8048ZM32.9558 35.2062C33.0837 35.3565 33.1742 35.5025 33.2352 35.6121C33.3578 35.8324 33.4341 36.0661 33.4672 36.3017C33.6236 36.8174 33.5711 37.3946 33.2744 37.8946C33.1801 38.0534 32.9303 38.4544 32.4579 38.7369C32.1863 38.8992 31.7755 39.0601 31.2677 39.0295C30.746 38.9981 30.3312 38.7772 30.0483 38.5337C29.7852 38.3072 29.6322 38.0614 29.5478 37.8987C29.4594 37.7283 29.4062 37.5714 29.3732 37.4531C29.3081 37.2195 29.2849 37.0019 29.2787 36.8307C29.2723 36.6559 29.2811 36.4562 29.3178 36.248C29.3437 36.1015 29.4245 35.6893 29.7241 35.2873C29.89 35.0647 30.2135 34.7262 30.7446 34.5559C31.3224 34.3706 31.8657 34.4732 32.2605 34.6646C32.6125 34.8353 32.8377 35.0674 32.9558 35.2062Z" fill="#FFE7FB"/>
<path fill-rule="evenodd" clip-rule="evenodd" d="M74.02 2.69892C74.9738 3.2439 75.3051 4.45885 74.7601 5.41257C73.8564 6.994 72.724 8.51096 71.6815 9.90738C71.2582 10.4744 70.8497 11.0216 70.4774 11.5452C69.8408 12.4404 68.5991 12.65 67.7039 12.0134C66.8087 11.3769 66.5991 10.1351 67.2356 9.23993C67.7256 8.5509 68.2016 7.91405 68.6599 7.30085C69.6337 5.99792 70.5276 4.80181 71.3064 3.439C71.8514 2.48528 73.0663 2.15393 74.02 2.69892Z" fill="#6DDFA6"/>
<path fill-rule="evenodd" clip-rule="evenodd" d="M31.8701 69.3011C30.9164 68.7561 30.585 67.5412 31.13 66.5874C32.0337 65.006 33.1661 63.489 34.2086 62.0926C34.6319 61.5256 35.0404 60.9784 35.4127 60.4548C36.0493 59.5596 37.2911 59.35 38.1863 59.9866C39.0814 60.6231 39.2911 61.8649 38.6545 62.7601C38.1645 63.4491 37.6886 64.086 37.2303 64.6991C36.2565 66.0021 35.3625 67.1982 34.5838 68.561C34.0388 69.5147 32.8238 69.8461 31.8701 69.3011Z" fill="#6DDFA6"/>
<path fill-rule="evenodd" clip-rule="evenodd" d="M63.813 2.66214C64.8965 2.84272 65.6285 3.86747 65.4479 4.95098C65.4025 5.22328 65.3571 5.49238 65.3122 5.75887C65.0551 7.28251 64.8124 8.72103 64.6701 10.1863C64.5639 11.2796 63.5916 12.0799 62.4983 11.9737C61.405 11.8676 60.6047 10.8952 60.7109 9.8019C60.8678 8.18507 61.1372 6.5907 61.3938 5.0721C61.4379 4.81142 61.4815 4.55297 61.5242 4.29702C61.7048 3.21352 62.7295 2.48155 63.813 2.66214Z" fill="#FFF6CC"/>
<path fill-rule="evenodd" clip-rule="evenodd" d="M42.0761 69.3379C40.9926 69.1573 40.2607 68.1325 40.4412 67.049C40.4866 66.7767 40.532 66.5076 40.577 66.2411C40.8341 64.7175 41.0768 63.279 41.2191 61.8137C41.3252 60.7204 42.2976 59.9201 43.3909 60.0263C44.4842 60.1324 45.2844 61.1048 45.1783 62.1981C45.0213 63.8149 44.7519 65.4093 44.4953 66.9279C44.4513 67.1886 44.4076 67.447 44.365 67.703C44.1844 68.7865 43.1596 69.5184 42.0761 69.3379Z" fill="#FFE7FB"/>
<path fill-rule="evenodd" clip-rule="evenodd" d="M77.2821 13.6729C77.6678 14.7015 77.1467 15.8479 76.1182 16.2336C75.2499 16.5592 74.4279 16.9456 73.524 17.3706C73.2495 17.4997 72.9675 17.6323 72.6743 17.7678C71.6772 18.2287 70.4953 17.7941 70.0344 16.797C69.5735 15.7999 70.0081 14.618 71.0052 14.1571C71.2434 14.047 71.4895 13.9312 71.742 13.8123C72.6708 13.3752 73.6873 12.8968 74.7214 12.509C75.75 12.1233 76.8964 12.6444 77.2821 13.6729Z" fill="#FFE7FB"/>
<path fill-rule="evenodd" clip-rule="evenodd" d="M28.608 58.3275C28.2224 57.299 28.7435 56.1526 29.772 55.7669C30.6402 55.4413 31.4622 55.0549 32.3662 54.6298C32.6406 54.5008 32.9227 54.3682 33.2158 54.2327C34.2129 53.7718 35.3948 54.2064 35.8558 55.2035C36.3167 56.2006 35.882 57.3825 34.8849 57.8434C34.6468 57.9535 34.4007 58.0693 34.1481 58.1882C33.2194 58.6253 32.2028 59.1037 31.1687 59.4915C30.1402 59.8772 28.9937 59.3561 28.608 58.3275Z" fill="#FFF6CC"/>
<g style="mix-blend-mode:multiply">
<path fill-rule="evenodd" clip-rule="evenodd" d="M73.8154 1.17453C74.673 1.86094 74.8117 3.11259 74.1253 3.97016C73.5459 4.69408 73.0373 5.44668 72.478 6.27432C72.3082 6.52562 72.1337 6.78383 71.9511 7.05025C71.3302 7.95638 70.0923 8.18758 69.1862 7.56667C68.28 6.94575 68.0488 5.70784 68.6698 4.80171C68.8181 4.58526 68.9703 4.35986 69.1265 4.1285C69.7009 3.27783 70.3296 2.3467 71.0197 1.48445C71.7062 0.626873 72.9578 0.488117 73.8154 1.17453Z" fill="#FFA86D"/>
</g>
<g style="mix-blend-mode:multiply">
<path fill-rule="evenodd" clip-rule="evenodd" d="M32.0743 70.826C31.2167 70.1395 31.0779 68.8879 31.7643 68.0303C32.3438 67.3064 32.8524 66.5538 33.4117 65.7262C33.5815 65.4749 33.756 65.2167 33.9385 64.9502C34.5594 64.0441 35.7974 63.8129 36.7035 64.4338C37.6096 65.0547 37.8408 66.2927 37.2199 67.1988C37.0716 67.4152 36.9194 67.6406 36.7632 67.872C36.1888 68.7227 35.5601 69.6538 34.8699 70.516C34.1835 71.3736 32.9318 71.5124 32.0743 70.826Z" fill="#FFA86D"/>
</g>
</svg>
