<svg width="115" height="144" viewBox="0 0 115 144" fill="none" xmlns="http://www.w3.org/2000/svg">
<g style="mix-blend-mode:multiply">
<path fill-rule="evenodd" clip-rule="evenodd" d="M71.23 54.4568C66.5683 51.1471 61.1741 48.9811 56.0389 49.4551C51.41 49.8824 47.0194 52.2731 42.8134 54.7427C32.4501 60.8276 22.3623 71.5725 15.6689 80.4969C9.88226 88.1993 3.48589 98.7634 1.03542 109.459C-1.42784 120.211 0.0842634 131.239 10.3328 139.465C19.3252 146.682 30.2071 144.462 40.1103 138.551C50.0352 132.627 59.339 122.819 65.6228 114.066C67.7589 111.091 69.098 108.07 70.7732 104.292C71.1723 103.392 71.5905 102.448 72.0431 101.452C72.2139 101.076 72.166 100.637 71.9181 100.307C71.6703 99.9772 71.262 99.8087 70.8535 99.8678C62.6823 101.051 56.39 97.7864 53.6467 96.0301C53.1253 95.6963 52.4323 95.8446 52.0933 96.3627C50.7057 98.483 49.6848 99.8467 48.7655 101.022C44.1015 106.857 37.7338 113.294 31.44 117.442C28.2901 119.518 25.2215 120.978 22.44 121.54C19.68 122.096 17.2731 121.759 15.2932 120.337C13.387 118.969 12.5693 116.847 12.6254 114.061C12.682 111.243 13.6405 107.88 15.1559 104.322C18.1804 97.2204 23.2674 89.6999 26.9342 84.9099C29.9915 80.9161 35.2314 74.7216 41.0146 70.4303C46.8864 66.0733 52.796 64.0396 57.5906 67.2141C59.5902 68.5381 60.6004 70.0815 60.9778 71.901C61.3676 73.78 61.1067 76.0685 60.3063 78.8913C60.2226 79.1865 60.2627 79.503 60.4172 79.768C60.5718 80.0331 60.8276 80.2238 61.1257 80.2963C65.1514 81.2754 73.0923 79.6253 78.9404 68.0223C79.0478 67.8092 79.0849 67.5675 79.0464 67.332C78.5892 64.5365 77.8739 62.1762 76.6296 60.0701C75.3819 57.9584 73.6422 56.1694 71.23 54.4568Z" fill="#E5E2DC"/>
</g>
<g style="mix-blend-mode:multiply">
<path fill-rule="evenodd" clip-rule="evenodd" d="M68.1313 9.43109C76.8397 1.64659 87.6971 -2.91648 98.7356 2.10694C109.5 7.00584 113.578 15.833 114.231 24.9435C114.874 33.9141 112.235 43.2656 109.577 49.8955C109.113 51.053 107.799 51.6151 106.641 51.1511C105.484 50.6871 104.922 49.3725 105.386 48.215C107.929 41.8703 110.299 33.2576 109.726 25.2665C109.163 17.4152 105.799 10.2831 96.8651 6.2173C88.2044 2.27599 79.2585 5.54168 71.1409 12.798C63.0463 20.0338 56.3018 30.8387 52.5064 40.5268C52.1471 41.4439 51.8217 42.2297 51.5211 42.956C50.9066 44.4402 50.3951 45.6756 49.9072 47.2747C50.5315 47.04 51.1842 46.8168 51.853 46.6184C53.737 46.0595 55.9802 45.6252 58.1455 45.847C58.8581 44.2191 59.8607 41.9987 60.7084 40.1212C61.3481 38.7043 61.8997 37.4827 62.1717 36.8588C62.6702 35.7157 64.001 35.1931 65.1441 35.6916C66.2871 36.1901 66.8097 37.5208 66.3112 38.6639C65.9857 39.4105 65.3803 40.7505 64.7034 42.2489C63.5095 44.8916 62.0929 48.0271 61.5962 49.2689C61.1495 50.3856 59.906 50.9562 58.7682 50.5665C57.3917 50.0951 55.394 50.2785 53.1374 50.9479C50.9616 51.5933 48.92 52.5758 47.6805 53.2418C46.9101 53.6558 45.97 53.5877 45.2674 53.067C44.5647 52.5464 44.2259 51.6668 44.3977 50.8093C45.3546 46.0332 46.2756 43.8116 47.3829 41.1405C47.6748 40.4364 47.9797 39.7011 48.3016 38.8795C52.2958 28.684 59.3999 17.2361 68.1313 9.43109ZM75.8561 17.2528C79.7314 14.4925 84.3193 13.5223 89.5452 15.5691C92.8 16.8439 94.3791 19.9066 95.0591 23.156C95.7442 26.4299 95.6435 30.3968 95.133 34.4244C94.1084 42.507 91.3401 51.5137 88.8834 57.2589C86.8618 61.9867 83.2495 69.3283 78.4325 75.0892C73.7092 80.738 67.1635 85.6139 59.4185 83.5202C55.6921 82.5128 53.1653 80.5245 51.9771 77.351C51.1138 75.0452 51.0476 72.3225 51.3846 69.3403C50.8598 69.3815 50.2873 69.4664 49.7058 69.6119C48.3715 69.9457 47.3097 70.5149 46.655 71.2727C46.4301 77.3095 47.1053 82.2129 49.0188 86.0926C50.9598 90.0283 54.2888 93.1389 59.8439 95.2814C69.2721 98.9176 77.6299 94.8346 84.9645 86.8701C92.3076 78.8963 98.122 67.498 102.071 58.0052C102.55 56.8538 103.872 56.3087 105.023 56.7877C106.174 57.2667 106.719 58.5883 106.241 59.7397C102.228 69.3861 96.17 81.3686 88.2864 89.9293C80.3942 98.4993 70.1708 104.104 58.2189 99.4948C51.7621 97.0046 47.4806 93.1835 44.9686 88.0901C42.4985 83.0818 41.8557 77.0757 42.1722 70.3953C42.1903 70.013 42.3053 69.6416 42.5064 69.3159C43.9728 66.9408 46.4662 65.7672 48.6097 65.2309C50.7554 64.6941 52.9931 64.6808 54.4824 65.0295C55.6436 65.3014 56.3932 66.4295 56.1939 67.6053C55.5434 71.4439 55.5546 74.0267 56.2064 75.7676C56.7683 77.2684 57.9223 78.4377 60.597 79.1607C65.6137 80.5169 70.4772 77.5632 74.968 72.1924C79.3651 66.9337 82.7717 60.0657 84.7311 55.4833C87.0501 50.0602 89.689 41.4601 90.6529 33.8565C91.1365 30.0409 91.1754 26.6449 90.6388 24.0809C90.0972 21.4923 89.0936 20.2422 87.8983 19.774C84.224 18.3349 81.2289 18.9703 78.4761 20.9311C75.5753 22.9973 72.9368 26.5601 70.4402 30.9707C69.8259 32.056 68.4482 32.4377 67.3629 31.8235C66.2777 31.2092 65.8959 29.8314 66.5102 28.7461C69.0941 24.1813 72.1288 19.9077 75.8561 17.2528Z" fill="#D2CEC6"/>
</g>
</svg>
