<svg width="40" height="31" viewBox="0 0 40 31" fill="none" xmlns="http://www.w3.org/2000/svg">
<path d="M11.0002 0.833252C12.7224 0.833252 14.3679 1.23603 15.9368 2.04159C17.5068 2.84714 18.8613 3.98603 20.0002 5.45825C21.1391 3.98603 22.4935 2.84714 24.0635 2.04159C25.6324 1.23603 27.2779 0.833252 29.0002 0.833252C31.8613 0.833252 34.2713 1.81214 36.2302 3.76992C38.1879 5.72881 39.1668 8.13881 39.1668 10.9999C39.1668 12.0277 39.014 13.0621 38.7085 14.1033C38.4029 15.1455 37.9724 16.1944 37.4168 17.2499C37.1946 16.8888 36.9168 16.5555 36.5835 16.2499C36.2502 15.9444 35.8752 15.6944 35.4585 15.4999C35.8474 14.7221 36.1457 13.9583 36.3535 13.2083C36.5624 12.4583 36.6668 11.7221 36.6668 10.9999C36.6668 8.83325 35.9307 7.01381 34.4585 5.54158C32.9863 4.06936 31.1668 3.33325 29.0002 3.33325C27.0279 3.33325 25.3891 3.9027 24.0835 5.04159C22.7779 6.18047 21.4168 7.61103 20.0002 9.33325C18.5835 7.58325 17.2224 6.14547 15.9168 5.01992C14.6113 3.89547 12.9724 3.33325 11.0002 3.33325C8.8335 3.33325 7.01405 4.06936 5.54183 5.54158C4.06961 7.01381 3.3335 8.83325 3.3335 10.9999C3.3335 11.7499 3.43794 12.4999 3.64683 13.2499C3.85461 13.9999 4.13905 14.7638 4.50016 15.5416C4.11127 15.736 3.75683 15.9788 3.43683 16.2699C3.11794 16.5621 2.8335 16.9027 2.5835 17.2916C2.02794 16.2638 1.59738 15.2221 1.29183 14.1666C0.986274 13.111 0.833496 12.0555 0.833496 10.9999C0.833496 8.13881 1.81294 5.72881 3.77183 3.76992C5.72961 1.81214 8.13905 0.833252 11.0002 0.833252ZM2.29183 30.8749C1.87516 30.8749 1.52794 30.736 1.25016 30.4583C0.972385 30.1805 0.833496 29.8333 0.833496 29.4166V28.8333C0.833496 27.6944 1.41016 26.7777 2.5635 26.0833C3.71572 25.3888 5.22238 25.0416 7.0835 25.0416C7.41683 25.0416 7.73627 25.0555 8.04183 25.0833C8.34738 25.111 8.63905 25.1527 8.91683 25.2083C8.61127 25.6805 8.38239 26.201 8.23016 26.7699C8.07683 27.3399 8.00016 27.9305 8.00016 28.5416V30.8749H2.29183ZM12.3335 30.8749C11.9168 30.8749 11.5629 30.7288 11.2718 30.4366C10.9796 30.1455 10.8335 29.7916 10.8335 29.3749V28.6249C10.8335 27.0138 11.6735 25.7221 13.3535 24.7499C15.0346 23.7777 17.2502 23.2916 20.0002 23.2916C22.7502 23.2916 24.9657 23.7777 26.6468 24.7499C28.3268 25.7221 29.1668 27.0138 29.1668 28.6249V29.3749C29.1668 29.7916 29.0213 30.1455 28.7302 30.4366C28.4379 30.7288 28.0835 30.8749 27.6668 30.8749H12.3335ZM32.0002 30.8749V28.5416C32.0002 27.9305 31.9168 27.3399 31.7502 26.7699C31.5835 26.201 31.3613 25.6805 31.0835 25.2083C31.3613 25.1527 31.6529 25.111 31.9585 25.0833C32.264 25.0555 32.5835 25.0416 32.9168 25.0416C34.7779 25.0416 36.2846 25.3888 37.4368 26.0833C38.5902 26.7777 39.1668 27.6944 39.1668 28.8333V29.4166C39.1668 29.8333 39.0279 30.1805 38.7502 30.4583C38.4724 30.736 38.1252 30.8749 37.7085 30.8749H32.0002ZM20.0002 25.7916C18.2502 25.7916 16.7568 26.0277 15.5202 26.4999C14.2846 26.9721 13.5974 27.5416 13.4585 28.2083V28.3749H26.5418V28.2083C26.3752 27.5416 25.6807 26.9721 24.4585 26.4999C23.2363 26.0277 21.7502 25.7916 20.0002 25.7916ZM7.0835 23.4166C6.30572 23.4166 5.63905 23.1388 5.0835 22.5833C4.52794 22.0277 4.25016 21.361 4.25016 20.5833C4.25016 19.8055 4.52794 19.1316 5.0835 18.5616C5.63905 17.9927 6.30572 17.7083 7.0835 17.7083C7.86127 17.7083 8.52794 17.9927 9.0835 18.5616C9.63905 19.1316 9.91683 19.8055 9.91683 20.5833C9.91683 21.361 9.63905 22.0277 9.0835 22.5833C8.52794 23.1388 7.86127 23.4166 7.0835 23.4166ZM32.9168 23.4166C32.1391 23.4166 31.4724 23.1388 30.9168 22.5833C30.3613 22.0277 30.0835 21.361 30.0835 20.5833C30.0835 19.8055 30.3613 19.1316 30.9168 18.5616C31.4724 17.9927 32.1391 17.7083 32.9168 17.7083C33.6946 17.7083 34.3613 17.9927 34.9168 18.5616C35.4724 19.1316 35.7502 19.8055 35.7502 20.5833C35.7502 21.361 35.4724 22.0277 34.9168 22.5833C34.3613 23.1388 33.6946 23.4166 32.9168 23.4166ZM20.0002 22.0416C18.8057 22.0416 17.7852 21.6249 16.9385 20.7916C16.0907 19.9583 15.6668 18.9305 15.6668 17.7083C15.6668 16.5138 16.0907 15.4999 16.9385 14.6666C17.7852 13.8333 18.8057 13.4166 20.0002 13.4166C21.1946 13.4166 22.2157 13.8333 23.0635 14.6666C23.9102 15.4999 24.3335 16.5138 24.3335 17.7083C24.3335 18.9305 23.9102 19.9583 23.0635 20.7916C22.2157 21.6249 21.1946 22.0416 20.0002 22.0416ZM20.0002 15.9166C19.4724 15.9166 19.0352 16.0899 18.6885 16.4366C18.3407 16.7844 18.1668 17.2083 18.1668 17.7083C18.1668 18.236 18.3407 18.6733 18.6885 19.0199C19.0352 19.3677 19.4724 19.5416 20.0002 19.5416C20.5279 19.5416 20.9657 19.3677 21.3135 19.0199C21.6602 18.6733 21.8335 18.236 21.8335 17.7083C21.8335 17.2083 21.6602 16.7844 21.3135 16.4366C20.9657 16.0899 20.5279 15.9166 20.0002 15.9166Z" fill="#025B37"/>
</svg>
