<svg width="32" height="32" viewBox="0 0 32 32" fill="none" xmlns="http://www.w3.org/2000/svg">
<mask id="mask0_4375_17406" style="mask-type:alpha" maskUnits="userSpaceOnUse" x="0" y="0" width="32" height="32">
<rect width="32" height="32" fill="#D9D9D9"/>
</mask>
<g mask="url(#mask0_4375_17406)">
<path d="M5.33325 26C4.7777 26 4.3057 25.8053 3.91725 25.416C3.52792 25.0276 3.33325 24.5556 3.33325 24V19.2C4.08881 19.0667 4.72214 18.7 5.23325 18.1C5.74436 17.5 5.99992 16.8 5.99992 16C5.99992 15.2 5.74436 14.5 5.23325 13.9C4.72214 13.3 4.08881 12.9333 3.33325 12.8V8C3.33325 7.44444 3.52792 6.97244 3.91725 6.584C4.3057 6.19467 4.7777 6 5.33325 6H26.6666C27.2221 6 27.6941 6.19467 28.0826 6.584C28.4719 6.97244 28.6666 7.44444 28.6666 8V12.8C27.911 12.9333 27.2777 13.3 26.7666 13.9C26.2555 14.5 25.9999 15.2 25.9999 16C25.9999 16.8 26.2555 17.5 26.7666 18.1C27.2777 18.7 27.911 19.0667 28.6666 19.2V24C28.6666 24.5556 28.4719 25.0276 28.0826 25.416C27.6941 25.8053 27.2221 26 26.6666 26H5.33325ZM5.33325 24H26.6666V20.6C25.8444 20.1111 25.1946 19.4613 24.7173 18.6507C24.239 17.8391 23.9999 16.9556 23.9999 16C23.9999 15.0444 24.239 14.1609 24.7173 13.3493C25.1946 12.5387 25.8444 11.8889 26.6666 11.4V8H5.33325V11.4C6.15547 11.8889 6.8057 12.5387 7.28392 13.3493C7.76125 14.1609 7.99992 15.0444 7.99992 16C7.99992 16.9556 7.76125 17.8391 7.28392 18.6507C6.8057 19.4613 6.15547 20.1111 5.33325 20.6V24ZM15.9999 22.2C16.2888 22.2 16.5279 22.1058 16.7173 21.9173C16.9057 21.728 16.9999 21.4889 16.9999 21.2C16.9999 20.9111 16.9057 20.6724 16.7173 20.484C16.5279 20.2947 16.2888 20.2 15.9999 20.2C15.711 20.2 15.4724 20.2947 15.2839 20.484C15.0946 20.6724 14.9999 20.9111 14.9999 21.2C14.9999 21.4889 15.0946 21.728 15.2839 21.9173C15.4724 22.1058 15.711 22.2 15.9999 22.2ZM15.9999 17C16.2888 17 16.5279 16.9053 16.7173 16.716C16.9057 16.5276 16.9999 16.2889 16.9999 16C16.9999 15.7111 16.9057 15.472 16.7173 15.2827C16.5279 15.0942 16.2888 15 15.9999 15C15.711 15 15.4724 15.0942 15.2839 15.2827C15.0946 15.472 14.9999 15.7111 14.9999 16C14.9999 16.2889 15.0946 16.5276 15.2839 16.716C15.4724 16.9053 15.711 17 15.9999 17ZM15.9999 11.8C16.2888 11.8 16.5279 11.7053 16.7173 11.516C16.9057 11.3276 16.9999 11.0889 16.9999 10.8C16.9999 10.5111 16.9057 10.272 16.7173 10.0827C16.5279 9.89422 16.2888 9.8 15.9999 9.8C15.711 9.8 15.4724 9.89422 15.2839 10.0827C15.0946 10.272 14.9999 10.5111 14.9999 10.8C14.9999 11.0889 15.0946 11.3276 15.2839 11.516C15.4724 11.7053 15.711 11.8 15.9999 11.8Z" fill="#F2A9C3"/>
</g>
</svg>
