<svg width="32" height="32" viewBox="0 0 32 32" fill="none" xmlns="http://www.w3.org/2000/svg">
<mask id="mask0_4375_17412" style="mask-type:alpha" maskUnits="userSpaceOnUse" x="0" y="0" width="32" height="32">
<rect width="32" height="32" fill="#D9D9D9"/>
</mask>
<g mask="url(#mask0_4375_17412)">
<path d="M5.33337 26C4.77782 26 4.30582 25.8053 3.91737 25.416C3.52804 25.0276 3.33337 24.5556 3.33337 24V19.2C4.08893 19.0667 4.72226 18.7 5.23337 18.1C5.74449 17.5 6.00004 16.8 6.00004 16C6.00004 15.2 5.74449 14.5 5.23337 13.9C4.72226 13.3 4.08893 12.9333 3.33337 12.8V8C3.33337 7.44444 3.52804 6.97244 3.91737 6.584C4.30582 6.19467 4.77782 6 5.33337 6H26.6667C27.2223 6 27.6943 6.19467 28.0827 6.584C28.472 6.97244 28.6667 7.44444 28.6667 8V12.8C27.9112 12.9333 27.2778 13.3 26.7667 13.9C26.2556 14.5 26 15.2 26 16C26 16.8 26.2556 17.5 26.7667 18.1C27.2778 18.7 27.9112 19.0667 28.6667 19.2V24C28.6667 24.5556 28.472 25.0276 28.0827 25.416C27.6943 25.8053 27.2223 26 26.6667 26H5.33337ZM5.33337 24H26.6667V20.6C25.8445 20.1111 25.1947 19.4613 24.7174 18.6507C24.2392 17.8391 24 16.9556 24 16C24 15.0444 24.2392 14.1609 24.7174 13.3493C25.1947 12.5387 25.8445 11.8889 26.6667 11.4V8H5.33337V11.4C6.1556 11.8889 6.80582 12.5387 7.28404 13.3493C7.76137 14.1609 8.00004 15.0444 8.00004 16C8.00004 16.9556 7.76137 17.8391 7.28404 18.6507C6.80582 19.4613 6.1556 20.1111 5.33337 20.6V24ZM16 22.2C16.2889 22.2 16.528 22.1058 16.7174 21.9173C16.9058 21.728 17 21.4889 17 21.2C17 20.9111 16.9058 20.6724 16.7174 20.484C16.528 20.2947 16.2889 20.2 16 20.2C15.7112 20.2 15.4725 20.2947 15.284 20.484C15.0947 20.6724 15 20.9111 15 21.2C15 21.4889 15.0947 21.728 15.284 21.9173C15.4725 22.1058 15.7112 22.2 16 22.2ZM16 17C16.2889 17 16.528 16.9053 16.7174 16.716C16.9058 16.5276 17 16.2889 17 16C17 15.7111 16.9058 15.472 16.7174 15.2827C16.528 15.0942 16.2889 15 16 15C15.7112 15 15.4725 15.0942 15.284 15.2827C15.0947 15.472 15 15.7111 15 16C15 16.2889 15.0947 16.5276 15.284 16.716C15.4725 16.9053 15.7112 17 16 17ZM16 11.8C16.2889 11.8 16.528 11.7053 16.7174 11.516C16.9058 11.3276 17 11.0889 17 10.8C17 10.5111 16.9058 10.272 16.7174 10.0827C16.528 9.89422 16.2889 9.8 16 9.8C15.7112 9.8 15.4725 9.89422 15.284 10.0827C15.0947 10.272 15 10.5111 15 10.8C15 11.0889 15.0947 11.3276 15.284 11.516C15.4725 11.7053 15.7112 11.8 16 11.8Z" fill="#8CE0BE"/>
</g>
</svg>
