<svg width="20" height="20" viewBox="0 0 20 20" fill="none" xmlns="http://www.w3.org/2000/svg">
<path d="M9.99999 19.167C8.44466 19.167 7.02799 18.8127 5.74999 18.104C4.47199 17.396 3.41633 16.4517 2.58299 15.271V16.625C2.58299 16.861 2.49633 17.066 2.32299 17.24C2.14899 17.4133 1.94399 17.5 1.70799 17.5C1.47199 17.5 1.26733 17.4133 1.09399 17.24C0.919993 17.066 0.832993 16.861 0.832993 16.625V13.375C0.832993 13.139 0.919993 12.934 1.09399 12.76C1.26733 12.5867 1.47199 12.5 1.70799 12.5H4.95799C5.19399 12.5 5.39899 12.5867 5.57299 12.76C5.74633 12.934 5.83299 13.139 5.83299 13.375C5.83299 13.611 5.74633 13.816 5.57299 13.99C5.39899 14.1633 5.19399 14.25 4.95799 14.25H4.02099C4.67366 15.2087 5.51733 15.976 6.55199 16.552C7.58666 17.1287 8.73599 17.417 9.99999 17.417C11.9027 17.417 13.552 16.792 14.948 15.542C16.344 14.292 17.153 12.7363 17.375 10.875C17.403 10.639 17.5037 10.434 17.677 10.26C17.851 10.0867 18.056 10 18.292 10C18.528 10 18.7327 10.0867 18.906 10.26C19.08 10.434 19.153 10.639 19.125 10.875C19.0137 12.0417 18.7013 13.1283 18.188 14.135C17.674 15.1423 17.0073 16.021 16.188 16.771C15.368 17.521 14.4303 18.1077 13.375 18.531C12.3197 18.955 11.1947 19.167 9.99999 19.167ZM1.70799 10C1.47199 10 1.26733 9.91334 1.09399 9.74001C0.919993 9.56601 0.846993 9.36101 0.874993 9.12501C0.986326 7.95834 1.29866 6.87167 1.81199 5.86501C2.32599 4.85767 2.99266 3.97901 3.81199 3.22901C4.63199 2.47901 5.56966 1.89234 6.62499 1.46901C7.68033 1.04501 8.80533 0.833008 9.99999 0.833008C11.5553 0.833008 12.972 1.18734 14.25 1.89601C15.528 2.60401 16.5837 3.54834 17.417 4.72901V3.37501C17.417 3.13901 17.5037 2.93401 17.677 2.76001C17.851 2.58667 18.056 2.50001 18.292 2.50001C18.528 2.50001 18.7327 2.58667 18.906 2.76001C19.08 2.93401 19.167 3.13901 19.167 3.37501V6.62501C19.167 6.86101 19.08 7.06601 18.906 7.24001C18.7327 7.41334 18.528 7.50001 18.292 7.50001H15.042C14.806 7.50001 14.601 7.41334 14.427 7.24001C14.2537 7.06601 14.167 6.86101 14.167 6.62501C14.167 6.38901 14.2537 6.18401 14.427 6.01001C14.601 5.83667 14.806 5.75001 15.042 5.75001H15.979C15.3263 4.77801 14.4827 4.00734 13.448 3.43801C12.4133 2.86801 11.264 2.58301 9.99999 2.58301C8.08333 2.58301 6.42699 3.20801 5.03099 4.45801C3.63566 5.70801 2.83366 7.26367 2.62499 9.12501C2.59699 9.36101 2.49633 9.56601 2.32299 9.74001C2.14899 9.91334 1.94399 10 1.70799 10ZM9.99999 15.812C9.79199 15.812 9.61133 15.7393 9.45799 15.594C9.30533 15.448 9.22899 15.2707 9.22899 15.062V14.708C8.71499 14.5973 8.27766 14.3997 7.91699 14.115C7.55566 13.8303 7.26399 13.4587 7.04199 13C6.93066 12.792 6.91666 12.587 6.99999 12.385C7.08333 12.1837 7.23599 12.0413 7.45799 11.958C7.65266 11.8887 7.84366 11.8957 8.03099 11.979C8.21833 12.0623 8.36766 12.2013 8.47899 12.396C8.67366 12.7153 8.90633 12.9583 9.17699 13.125C9.44766 13.2917 9.76366 13.375 10.125 13.375C10.611 13.375 11 13.2603 11.292 13.031C11.5833 12.8023 11.729 12.4933 11.729 12.104C11.729 11.7293 11.5763 11.4203 11.271 11.177C10.965 10.9337 10.354 10.6453 9.43799 10.312C8.60466 10.0067 8.00033 9.64934 7.62499 9.24001C7.24966 8.83001 7.06199 8.31267 7.06199 7.68801C7.06199 7.10401 7.26366 6.58634 7.66699 6.13501C8.06966 5.68367 8.60433 5.38167 9.27099 5.22901V4.93801C9.27099 4.72934 9.34733 4.55201 9.49999 4.40601C9.65266 4.26067 9.83333 4.18801 10.042 4.18801C10.25 4.18801 10.427 4.26067 10.573 4.40601C10.719 4.55201 10.792 4.72934 10.792 4.93801V5.22901C11.1527 5.27101 11.5033 5.39967 11.844 5.61501C12.184 5.83034 12.4583 6.10467 12.667 6.43801C12.7777 6.60467 12.7913 6.78867 12.708 6.99001C12.6247 7.19134 12.479 7.33367 12.271 7.41701C12.1043 7.48634 11.9307 7.48967 11.75 7.42701C11.5693 7.36434 11.4027 7.24267 11.25 7.06201C11.0973 6.89534 10.9237 6.77067 10.729 6.68801C10.535 6.60401 10.306 6.56201 10.042 6.56201C9.59733 6.56201 9.24999 6.65934 8.99999 6.85401C8.74999 7.04867 8.62499 7.32667 8.62499 7.68801C8.62499 8.02134 8.77433 8.29201 9.07299 8.50001C9.37166 8.70801 9.94466 8.95101 10.792 9.22901C11.6387 9.54834 12.26 9.93734 12.656 10.396C13.052 10.854 13.25 11.4233 13.25 12.104C13.25 12.8127 13.0417 13.3927 12.625 13.844C12.2083 14.2953 11.5833 14.5973 10.75 14.75V15.042C10.75 15.25 10.677 15.4303 10.531 15.583C10.385 15.7357 10.208 15.812 9.99999 15.812Z" fill="#1D8158"/>
</svg>
