<svg width="28" height="28" viewBox="0 0 28 28" fill="none" xmlns="http://www.w3.org/2000/svg">
<rect width="28" height="28" rx="4" fill="#1D8158"/>
<mask id="mask0_626_5836" style="mask-type:alpha" maskUnits="userSpaceOnUse" x="4" y="4" width="20" height="20">
<rect x="4" y="4" width="20" height="20" fill="#D9D9D9"/>
</mask>
<g mask="url(#mask0_626_5836)">
<path d="M9.896 21.5C9.41 21.5 8.99666 21.33 8.656 20.99C8.316 20.6493 8.146 20.236 8.146 19.75V9.125C7.91 9.125 7.705 9.03833 7.531 8.865C7.35766 8.691 7.271 8.486 7.271 8.25C7.271 8.014 7.35766 7.809 7.531 7.635C7.705 7.46167 7.91 7.375 8.146 7.375H11.521C11.521 7.139 11.6077 6.934 11.781 6.76C11.955 6.58667 12.16 6.5 12.396 6.5H15.583C15.8197 6.5 16.0247 6.58667 16.198 6.76C16.3713 6.934 16.458 7.139 16.458 7.375H19.833C20.0697 7.375 20.2747 7.46167 20.448 7.635C20.6213 7.809 20.708 8.014 20.708 8.25C20.708 8.486 20.6213 8.691 20.448 8.865C20.2747 9.03833 20.0697 9.125 19.833 9.125V19.75C19.833 20.236 19.663 20.6493 19.323 20.99C18.9823 21.33 18.569 21.5 18.083 21.5H9.896ZM9.896 9.125V19.75H18.083V9.125H9.896ZM11.458 17.125C11.458 17.361 11.545 17.566 11.719 17.74C11.8923 17.9133 12.097 18 12.333 18C12.5697 18 12.7747 17.9133 12.948 17.74C13.1213 17.566 13.208 17.361 13.208 17.125V11.75C13.208 11.514 13.1213 11.309 12.948 11.135C12.7747 10.9617 12.5697 10.875 12.333 10.875C12.097 10.875 11.8923 10.9617 11.719 11.135C11.545 11.309 11.458 11.514 11.458 11.75V17.125ZM14.771 17.125C14.771 17.361 14.8577 17.566 15.031 17.74C15.205 17.9133 15.41 18 15.646 18C15.882 18 16.0867 17.9133 16.26 17.74C16.434 17.566 16.521 17.361 16.521 17.125V11.75C16.521 11.514 16.434 11.309 16.26 11.135C16.0867 10.9617 15.882 10.875 15.646 10.875C15.41 10.875 15.205 10.9617 15.031 11.135C14.8577 11.309 14.771 11.514 14.771 11.75V17.125Z" fill="white"/>
</g>
</svg>
