<svg width="14" height="22" viewBox="0 0 14 22" fill="none" xmlns="http://www.w3.org/2000/svg">
<path d="M2.3 21.5C1.8 21.5 1.375 21.325 1.025 20.975C0.675 20.625 0.5 20.2 0.5 19.7V2.3C0.5 1.8 0.675 1.375 1.025 1.025C1.375 0.675 1.8 0.5 2.3 0.5H11.7C12.2 0.5 12.625 0.675 12.975 1.025C13.325 1.375 13.5 1.8 13.5 2.3V19.7C13.5 20.2 13.325 20.625 12.975 20.975C12.625 21.325 12.2 21.5 11.7 21.5H2.3ZM2 18.75V19.7C2 19.7667 2.03333 19.8333 2.1 19.9C2.16667 19.9667 2.23333 20 2.3 20H11.7C11.7667 20 11.8333 19.9667 11.9 19.9C11.9667 19.8333 12 19.7667 12 19.7V18.75H2ZM2 17.25H12V4.75H2V17.25ZM7 14.65L3.35 11L4.4 9.95L6.25 11.775V7.35H7.75V11.775L9.6 9.95L10.65 11L7 14.65ZM2 3.25H12V2.3C12 2.23333 11.9667 2.16667 11.9 2.1C11.8333 2.03333 11.7667 2 11.7 2H2.3C2.23333 2 2.16667 2.03333 2.1 2.1C2.03333 2.16667 2 2.23333 2 2.3V3.25ZM2 18.75V20V19.7V18.75Z" fill="#00DA93"/>
</svg>
