<svg width="14" height="22" viewBox="0 0 14 22" fill="none" xmlns="http://www.w3.org/2000/svg">
<path d="M7 14.275C6.88333 14.275 6.771 14.2543 6.663 14.213C6.55433 14.171 6.45833 14.1083 6.375 14.025L3.875 11.525C3.74167 11.3917 3.671 11.2207 3.663 11.012C3.65433 10.804 3.725 10.625 3.875 10.475C4.025 10.325 4.2 10.25 4.4 10.25C4.6 10.25 4.775 10.3167 4.925 10.45L6.25 11.775V8.1C6.25 7.88333 6.321 7.704 6.463 7.562C6.60433 7.42067 6.78333 7.35 7 7.35C7.21667 7.35 7.396 7.42067 7.538 7.562C7.67933 7.704 7.75 7.88333 7.75 8.1V11.775L9.075 10.45C9.20833 10.3167 9.37933 10.25 9.588 10.25C9.796 10.25 9.975 10.325 10.125 10.475C10.275 10.625 10.35 10.8 10.35 11C10.35 11.2 10.275 11.375 10.125 11.525L7.625 14.025C7.54167 14.1083 7.446 14.171 7.338 14.213C7.22933 14.2543 7.11667 14.275 7 14.275ZM2.3 21.5C1.8 21.5 1.375 21.325 1.025 20.975C0.675 20.625 0.5 20.2 0.5 19.7V2.3C0.5 1.8 0.675 1.375 1.025 1.025C1.375 0.675 1.8 0.5 2.3 0.5H11.7C12.2 0.5 12.625 0.675 12.975 1.025C13.325 1.375 13.5 1.8 13.5 2.3V19.7C13.5 20.2 13.325 20.625 12.975 20.975C12.625 21.325 12.2 21.5 11.7 21.5H2.3ZM2 17.25H12V4.75H2V17.25ZM2 18.75V19.7C2 19.7833 2.02933 19.8543 2.088 19.913C2.146 19.971 2.21667 20 2.3 20H11.7C11.7833 20 11.8543 19.971 11.913 19.913C11.971 19.8543 12 19.7833 12 19.7V18.75H2ZM2 3.25H12V2.3C12 2.21667 11.971 2.14567 11.913 2.087C11.8543 2.029 11.7833 2 11.7 2H2.3C2.21667 2 2.146 2.029 2.088 2.087C2.02933 2.14567 2 2.21667 2 2.3V3.25Z" fill="#802600"/>
</svg>
