<svg width="33" height="34" viewBox="0 0 33 34" fill="none" xmlns="http://www.w3.org/2000/svg">
<mask id="mask0_4362_17427" style="mask-type:alpha" maskUnits="userSpaceOnUse" x="0" y="0" width="33" height="34">
<rect x="0.0791016" y="0.769531" width="32.3077" height="32.3077" fill="#D9D9D9"/>
</mask>
<g mask="url(#mask0_4362_17427)">
<path d="M3.27622 17.933C2.98455 17.933 2.74359 17.8374 2.55333 17.6463C2.36218 17.456 2.2666 17.215 2.2666 16.9234C2.2666 16.6317 2.36218 16.3903 2.55333 16.1991C2.74359 16.0089 2.98455 15.9138 3.27622 15.9138H8.66083C8.93006 15.9138 9.16564 16.0089 9.36756 16.1991C9.56949 16.3903 9.67045 16.6317 9.67045 16.9234C9.67045 17.215 9.56949 17.456 9.36756 17.6463C9.16564 17.8374 8.93006 17.933 8.66083 17.933H3.27622ZM10.1416 12.2455L8.89641 11.0003C8.71692 10.8208 8.62718 10.6018 8.62718 10.3434C8.62718 10.0858 8.72814 9.84485 8.93006 9.62049C9.13199 9.441 9.3734 9.35126 9.65429 9.35126C9.93429 9.35126 10.164 9.441 10.3435 9.62049L11.5887 10.8657C11.7682 11.0452 11.8579 11.2695 11.8579 11.5388C11.8579 11.808 11.757 12.0436 11.5551 12.2455C11.3531 12.4474 11.1176 12.5484 10.8483 12.5484C10.5791 12.5484 10.3435 12.4474 10.1416 12.2455ZM16.2329 10.3609C15.9413 10.3609 15.7003 10.2653 15.5101 10.0741C15.3189 9.88389 15.2233 9.65415 15.2233 9.38492V3.93299C15.2233 3.64133 15.3189 3.40575 15.5101 3.22626C15.7003 3.04677 15.9413 2.95703 16.2329 2.95703C16.5246 2.95703 16.766 3.04677 16.9572 3.22626C17.1474 3.40575 17.2426 3.64133 17.2426 3.93299V9.38492C17.2426 9.65415 17.1474 9.88389 16.9572 10.0741C16.766 10.2653 16.5246 10.3609 16.2329 10.3609ZM20.9108 12.2455C20.7089 12.0436 20.6079 11.808 20.6079 11.5388C20.6079 11.2695 20.7089 11.034 20.9108 10.832L22.156 9.58684C22.3355 9.40735 22.5545 9.31761 22.8129 9.31761C23.0705 9.31761 23.3115 9.41857 23.5358 9.62049C23.7153 9.82241 23.8051 10.0638 23.8051 10.3447C23.8051 10.6247 23.7153 10.8545 23.5358 11.034L22.2906 12.2791C22.1112 12.4586 21.8868 12.5484 21.6176 12.5484C21.3483 12.5484 21.1128 12.4474 20.9108 12.2455ZM23.8051 17.933C23.5358 17.933 23.3003 17.8374 23.0983 17.6463C22.8964 17.456 22.7954 17.215 22.7954 16.9234C22.7954 16.6317 22.8964 16.3903 23.0983 16.1991C23.3003 16.0089 23.5358 15.9138 23.8051 15.9138H29.1897C29.4813 15.9138 29.7228 16.0089 29.9139 16.1991C30.1042 16.3903 30.1993 16.6317 30.1993 16.9234C30.1993 17.215 30.1042 17.456 29.9139 17.6463C29.7228 17.8374 29.4813 17.933 29.1897 17.933H23.8051ZM16.2329 20.2888C15.2906 20.2888 14.4942 19.9634 13.8435 19.3128C13.1929 18.6622 12.8676 17.8657 12.8676 16.9234C12.8676 15.9811 13.1929 15.1846 13.8435 14.534C14.4942 13.8833 15.2906 13.558 16.2329 13.558C17.1753 13.558 17.9717 13.8833 18.6224 14.534C19.273 15.1846 19.5983 15.9811 19.5983 16.9234C19.5983 17.8657 19.273 18.6622 18.6224 19.3128C17.9717 19.9634 17.1753 20.2888 16.2329 20.2888ZM22.1224 24.2263L20.8772 22.9811C20.6977 22.8016 20.6079 22.5772 20.6079 22.308C20.6079 22.0388 20.7089 21.8032 20.9108 21.6013C21.1128 21.3993 21.3483 21.2984 21.6176 21.2984C21.8868 21.2984 22.1224 21.3993 22.3243 21.6013L23.5695 22.8465C23.749 23.0259 23.8387 23.2449 23.8387 23.5034C23.8387 23.7609 23.7378 24.0019 23.5358 24.2263C23.3339 24.4057 23.0925 24.4955 22.8116 24.4955C22.5316 24.4955 22.3019 24.4057 22.1224 24.2263ZM8.93006 24.2263C8.75058 24.0243 8.66083 23.7829 8.66083 23.502C8.66083 23.222 8.75058 22.9923 8.93006 22.8128L10.1753 21.5676C10.3547 21.3881 10.5791 21.2984 10.8483 21.2984C11.1176 21.2984 11.3531 21.3993 11.5551 21.6013C11.757 21.8032 11.8579 22.0388 11.8579 22.308C11.8579 22.5772 11.757 22.8128 11.5551 23.0147L10.3099 24.2599C10.1304 24.4394 9.91186 24.5291 9.65429 24.5291C9.39583 24.5291 9.15442 24.4282 8.93006 24.2263ZM16.2329 30.8897C15.9413 30.8897 15.7003 30.7946 15.5101 30.6043C15.3189 30.4132 15.2233 30.1718 15.2233 29.8801V24.4955C15.2233 24.2263 15.3189 23.9907 15.5101 23.7888C15.7003 23.5868 15.9413 23.4859 16.2329 23.4859C16.5246 23.4859 16.766 23.5868 16.9572 23.7888C17.1474 23.9907 17.2426 24.2263 17.2426 24.4955V29.8801C17.2426 30.1718 17.1474 30.4132 16.9572 30.6043C16.766 30.7946 16.5246 30.8897 16.2329 30.8897Z" fill="#8CE0BE"/>
</g>
</svg>
