<svg width="34" height="33" viewBox="0 0 34 33" fill="none" xmlns="http://www.w3.org/2000/svg">
<mask id="mask0_4362_17424" style="mask-type:alpha" maskUnits="userSpaceOnUse" x="0" y="0" width="34" height="33">
<rect x="0.849609" y="0.538086" width="32.3077" height="32.3077" fill="#D9D9D9"/>
</mask>
<g mask="url(#mask0_4362_17424)">
<path d="M4.04672 17.7015C3.75506 17.7015 3.5141 17.606 3.32384 17.4148C3.13269 17.2246 3.03711 16.9836 3.03711 16.6919C3.03711 16.4003 3.13269 16.1589 3.32384 15.9677C3.5141 15.7774 3.75506 15.6823 4.04672 15.6823H9.43134C9.70057 15.6823 9.93615 15.7774 10.1381 15.9677C10.34 16.1589 10.441 16.4003 10.441 16.6919C10.441 16.9836 10.34 17.2246 10.1381 17.4148C9.93615 17.606 9.70057 17.7015 9.43134 17.7015H4.04672ZM10.9121 12.014L9.66692 10.7689C9.48743 10.5894 9.39769 10.3704 9.39769 10.1119C9.39769 9.85437 9.49865 9.61341 9.70057 9.38905C9.90249 9.20956 10.1439 9.11982 10.4248 9.11982C10.7048 9.11982 10.9345 9.20956 11.114 9.38905L12.3592 10.6342C12.5387 10.8137 12.6285 11.0381 12.6285 11.3073C12.6285 11.5765 12.5275 11.8121 12.3256 12.014C12.1236 12.216 11.8881 12.3169 11.6188 12.3169C11.3496 12.3169 11.114 12.216 10.9121 12.014ZM17.0035 10.1294C16.7118 10.1294 16.4708 10.0339 16.2806 9.8427C16.0894 9.65244 15.9938 9.4227 15.9938 9.15347V3.70155C15.9938 3.40988 16.0894 3.1743 16.2806 2.99482C16.4708 2.81533 16.7118 2.72559 17.0035 2.72559C17.2951 2.72559 17.5365 2.81533 17.7277 2.99482C17.9179 3.1743 18.0131 3.40988 18.0131 3.70155V9.15347C18.0131 9.4227 17.9179 9.65244 17.7277 9.8427C17.5365 10.0339 17.2951 10.1294 17.0035 10.1294ZM21.6813 12.014C21.4794 11.8121 21.3785 11.5765 21.3785 11.3073C21.3785 11.0381 21.4794 10.8025 21.6813 10.6006L22.9265 9.35539C23.106 9.17591 23.325 9.08616 23.5835 9.08616C23.841 9.08616 24.082 9.18712 24.3063 9.38905C24.4858 9.59097 24.5756 9.83238 24.5756 10.1133C24.5756 10.3933 24.4858 10.623 24.3063 10.8025L23.0611 12.0477C22.8817 12.2272 22.6573 12.3169 22.3881 12.3169C22.1188 12.3169 21.8833 12.216 21.6813 12.014ZM24.5756 17.7015C24.3063 17.7015 24.0708 17.606 23.8688 17.4148C23.6669 17.2246 23.566 16.9836 23.566 16.6919C23.566 16.4003 23.6669 16.1589 23.8688 15.9677C24.0708 15.7774 24.3063 15.6823 24.5756 15.6823H29.9602C30.2519 15.6823 30.4933 15.7774 30.6844 15.9677C30.8747 16.1589 30.9698 16.4003 30.9698 16.6919C30.9698 16.9836 30.8747 17.2246 30.6844 17.4148C30.4933 17.606 30.2519 17.7015 29.9602 17.7015H24.5756ZM17.0035 20.0573C16.0611 20.0573 15.2647 19.732 14.614 19.0814C13.9634 18.4307 13.6381 17.6342 13.6381 16.6919C13.6381 15.7496 13.9634 14.9531 14.614 14.3025C15.2647 13.6519 16.0611 13.3265 17.0035 13.3265C17.9458 13.3265 18.7422 13.6519 19.3929 14.3025C20.0435 14.9531 20.3688 15.7496 20.3688 16.6919C20.3688 17.6342 20.0435 18.4307 19.3929 19.0814C18.7422 19.732 17.9458 20.0573 17.0035 20.0573ZM22.8929 23.9948L21.6477 22.7496C21.4682 22.5701 21.3785 22.3458 21.3785 22.0765C21.3785 21.8073 21.4794 21.5717 21.6813 21.3698C21.8833 21.1679 22.1188 21.0669 22.3881 21.0669C22.6573 21.0669 22.8929 21.1679 23.0948 21.3698L24.34 22.615C24.5195 22.7945 24.6092 23.0135 24.6092 23.2719C24.6092 23.5295 24.5083 23.7705 24.3063 23.9948C24.1044 24.1743 23.863 24.264 23.5821 24.264C23.3021 24.264 23.0724 24.1743 22.8929 23.9948ZM9.70057 23.9948C9.52108 23.7929 9.43134 23.5515 9.43134 23.2706C9.43134 22.9906 9.52108 22.7608 9.70057 22.5814L10.9458 21.3362C11.1252 21.1567 11.3496 21.0669 11.6188 21.0669C11.8881 21.0669 12.1236 21.1679 12.3256 21.3698C12.5275 21.5717 12.6285 21.8073 12.6285 22.0765C12.6285 22.3458 12.5275 22.5814 12.3256 22.7833L11.0804 24.0285C10.9009 24.208 10.6824 24.2977 10.4248 24.2977C10.1663 24.2977 9.92493 24.1967 9.70057 23.9948ZM17.0035 30.6583C16.7118 30.6583 16.4708 30.5631 16.2806 30.3729C16.0894 30.1817 15.9938 29.9403 15.9938 29.6487V24.264C15.9938 23.9948 16.0894 23.7592 16.2806 23.5573C16.4708 23.3554 16.7118 23.2544 17.0035 23.2544C17.2951 23.2544 17.5365 23.3554 17.7277 23.5573C17.9179 23.7592 18.0131 23.9948 18.0131 24.264V29.6487C18.0131 29.9403 17.9179 30.1817 17.7277 30.3729C17.5365 30.5631 17.2951 30.6583 17.0035 30.6583Z" fill="#FFCE00"/>
</g>
</svg>
