<svg width="60" height="32" viewBox="0 0 60 32" fill="none" xmlns="http://www.w3.org/2000/svg">
<path d="M44.0426 0H15.9574C7.18085 0 0 7.2 0 16C0 24.8 7.18085 32 15.9574 32H44.0426C52.8191 32 60 24.8 60 16C60 7.2 52.8191 0 44.0426 0Z" fill="white"/>
<path d="M44.0426 1.296C46.0133 1.296 47.9282 1.688 49.7314 2.456C51.4787 3.2 53.0425 4.264 54.3989 5.616C55.7473 6.968 56.8085 8.544 57.5505 10.296C58.3165 12.104 58.7074 14.024 58.7074 16C58.7074 17.976 58.3165 19.896 57.5505 21.704C56.8085 23.456 55.7473 25.024 54.3989 26.384C53.0505 27.736 51.4787 28.8 49.7314 29.544C47.9282 30.312 46.0133 30.704 44.0426 30.704H15.9574C13.9867 30.704 12.0718 30.312 10.2686 29.544C8.52128 28.8 6.95745 27.736 5.60106 26.384C4.25266 25.032 3.19149 23.456 2.44947 21.704C1.68351 19.896 1.29255 17.976 1.29255 16C1.29255 14.024 1.68351 12.104 2.44947 10.296C3.19149 8.544 4.25266 6.976 5.60106 5.616C6.94947 4.264 8.52128 3.2 10.2686 2.456C12.0718 1.688 13.9867 1.296 15.9574 1.296H44.0426ZM44.0426 0H15.9574C7.18085 0 0 7.2 0 16C0 24.8 7.18085 32 15.9574 32H44.0426C52.8191 32 60 24.8 60 16C60 7.2 52.8191 0 44.0426 0Z" fill="#3C4043"/>
<path d="M28.6117 17.1359V21.9759H27.0798V10.0239H31.141C32.1702 10.0239 33.0479 10.3679 33.766 11.0559C34.5 11.7439 34.867 12.5839 34.867 13.5759C34.867 14.5919 34.5 15.4319 33.766 16.1119C33.0559 16.7919 32.1782 17.1279 31.141 17.1279H28.6117V17.1359ZM28.6117 11.4959V15.6639H31.1729C31.7793 15.6639 32.2899 15.4559 32.6888 15.0479C33.0958 14.6399 33.3032 14.1439 33.3032 13.5839C33.3032 13.0319 33.0958 12.5439 32.6888 12.1359C32.2899 11.7119 31.7873 11.5039 31.1729 11.5039H28.6117V11.4959Z" fill="#3C4043"/>
<path d="M38.8724 13.5278C40.0053 13.5278 40.899 13.8318 41.5532 14.4398C42.2075 15.0478 42.5346 15.8798 42.5346 16.9358V21.9758H41.0745V20.8398H41.0107C40.3803 21.7758 39.5346 22.2398 38.4814 22.2398C37.5798 22.2398 36.8298 21.9758 36.2234 21.4398C35.617 20.9038 35.3138 20.2398 35.3138 19.4398C35.3138 18.5918 35.633 17.9198 36.2713 17.4238C36.9096 16.9198 37.7633 16.6718 38.8245 16.6718C39.7341 16.6718 40.4841 16.8398 41.0665 17.1758V16.8238C41.0665 16.2878 40.8591 15.8398 40.4362 15.4638C40.0133 15.0878 39.5186 14.9038 38.9521 14.9038C38.0984 14.9038 37.4202 15.2638 36.9255 15.9918L35.5771 15.1438C36.3192 14.0638 37.4202 13.5278 38.8724 13.5278ZM36.8936 19.4638C36.8936 19.8638 37.0612 20.1998 37.4043 20.4638C37.7394 20.7278 38.1383 20.8638 38.5931 20.8638C39.2394 20.8638 39.8138 20.6238 40.3165 20.1438C40.8192 19.6638 41.0745 19.1038 41.0745 18.4558C40.5958 18.0798 39.9335 17.8878 39.0798 17.8878C38.4575 17.8878 37.9388 18.0398 37.524 18.3358C37.1011 18.6478 36.8936 19.0238 36.8936 19.4638Z" fill="#3C4043"/>
<path d="M50.8644 13.792L45.758 25.568H44.1782L46.0771 21.448L42.7101 13.792H44.3777L46.8032 19.664H46.8351L49.1968 13.792H50.8644Z" fill="#3C4043"/>
<path d="M22.5184 16.16C22.5184 15.6592 22.4737 15.18 22.3907 14.7192H15.9694V17.3592L19.6676 17.36C19.5176 18.2384 19.0348 18.9872 18.2952 19.4864V21.1992H20.4965C21.7819 20.0064 22.5184 18.2432 22.5184 16.16Z" fill="#4285F4"/>
<path d="M18.296 19.4865C17.6833 19.9009 16.8942 20.1433 15.971 20.1433C14.1878 20.1433 12.675 18.9385 12.1333 17.3145H9.86252V19.0809C10.9875 21.3193 13.2998 22.8553 15.971 22.8553C17.8173 22.8553 19.3684 22.2465 20.4974 21.1985L18.296 19.4865Z" fill="#34A853"/>
<path d="M11.9194 16.0039C11.9194 15.5479 11.9952 15.1071 12.1333 14.6927V12.9263H9.86251C9.39735 13.8519 9.13565 14.8967 9.13565 16.0039C9.13565 17.1111 9.39815 18.1559 9.86251 19.0815L12.1333 17.3151C11.9952 16.9007 11.9194 16.4599 11.9194 16.0039Z" fill="#FABB05"/>
<path d="M15.971 11.8639C16.9787 11.8639 17.8811 12.2119 18.5936 12.8919L20.5444 10.9375C19.3596 9.83106 17.8149 9.15186 15.971 9.15186C13.3005 9.15186 10.9875 10.6879 9.86252 12.9263L12.1333 14.6927C12.675 13.0687 14.1878 11.8639 15.971 11.8639Z" fill="#E94235"/>
</svg>
