<svg width="14" height="14" viewBox="0 0 14 14" fill="none" xmlns="http://www.w3.org/2000/svg">
<path d="M6.99992 10.3334C7.18881 10.3334 7.34725 10.2694 7.47525 10.1414C7.60281 10.0138 7.66659 9.8556 7.66659 9.66671C7.66659 9.47782 7.60281 9.31937 7.47525 9.19137C7.34725 9.06382 7.18881 9.00004 6.99992 9.00004C6.81103 9.00004 6.65281 9.06382 6.52525 9.19137C6.39725 9.31937 6.33325 9.47782 6.33325 9.66671C6.33325 9.8556 6.39725 10.0138 6.52525 10.1414C6.65281 10.2694 6.81103 10.3334 6.99992 10.3334ZM6.33325 7.66671H7.66659V3.66671H6.33325V7.66671ZM6.99992 13.6667C6.0777 13.6667 5.21103 13.4916 4.39992 13.1414C3.58881 12.7916 2.88325 12.3167 2.28325 11.7167C1.68325 11.1167 1.20836 10.4112 0.858585 9.60004C0.508363 8.78893 0.333252 7.92226 0.333252 7.00004C0.333252 6.07782 0.508363 5.21115 0.858585 4.40004C1.20836 3.58893 1.68325 2.88337 2.28325 2.28337C2.88325 1.68337 3.58881 1.20826 4.39992 0.858041C5.21103 0.508263 6.0777 0.333374 6.99992 0.333374C7.92214 0.333374 8.78881 0.508263 9.59992 0.858041C10.411 1.20826 11.1166 1.68337 11.7166 2.28337C12.3166 2.88337 12.7915 3.58893 13.1413 4.40004C13.4915 5.21115 13.6666 6.07782 13.6666 7.00004C13.6666 7.92226 13.4915 8.78893 13.1413 9.60004C12.7915 10.4112 12.3166 11.1167 11.7166 11.7167C11.1166 12.3167 10.411 12.7916 9.59992 13.1414C8.78881 13.4916 7.92214 13.6667 6.99992 13.6667ZM6.99992 12.3334C8.48881 12.3334 9.74992 11.8167 10.7833 10.7834C11.8166 9.75004 12.3333 8.48893 12.3333 7.00004C12.3333 5.51115 11.8166 4.25004 10.7833 3.21671C9.74992 2.18337 8.48881 1.66671 6.99992 1.66671C5.51103 1.66671 4.24992 2.18337 3.21659 3.21671C2.18325 4.25004 1.66659 5.51115 1.66659 7.00004C1.66659 8.48893 2.18325 9.75004 3.21659 10.7834C4.24992 11.8167 5.51103 12.3334 6.99992 12.3334Z" fill="#D52F20"/>
</svg>
