<svg width="87" height="32" viewBox="0 0 87 32" fill="none" xmlns="http://www.w3.org/2000/svg">
<path d="M85.4643 19.1162L78.9392 16.9979C77.9709 16.6831 77.9709 15.3141 78.9392 14.9992L85.4643 12.8809C85.9007 12.7399 86.1402 12.2712 85.9976 11.8353L85.49 10.274C85.3488 9.83805 84.8797 9.59872 84.4433 9.74117L77.9182 11.8595C76.95 12.1743 76.1443 11.066 76.7418 10.2426L80.7744 4.69679C81.0439 4.3264 80.9612 3.80644 80.5904 3.53719L79.26 2.57134C78.8893 2.3021 78.3688 2.38472 78.0993 2.75511L74.0667 8.30094C73.4678 9.12434 72.1645 8.70124 72.1645 7.6841V0.830521C72.1645 0.371811 71.7923 0 71.3331 0H69.689C69.2298 0 68.8577 0.371811 68.8577 0.830521V31.1695C68.8577 31.6282 69.2298 32 69.689 32H71.3331C71.7923 32 72.1645 31.6282 72.1645 31.1695V24.3159C72.1645 23.2988 73.4678 22.8757 74.0667 23.6991L78.0993 29.2449C78.3688 29.6153 78.8878 29.6979 79.26 29.4287L80.5904 28.4628C80.9612 28.1936 81.0439 27.6736 80.7744 27.3032L76.7418 21.7574C76.1429 20.934 76.9485 19.8257 77.9182 20.1405L84.4433 22.2588C84.8797 22.3999 85.3488 22.162 85.49 21.726L85.9976 20.1633C86.1388 19.7274 85.9007 19.2587 85.4643 19.1177V19.1162Z" fill="#00DA93"/>
<path d="M14.0939 7.43917C12.9104 7.43917 11.8837 6.57161 11.8837 5.25816C11.8837 3.94471 12.9104 3.07715 14.0939 3.07715C15.2775 3.07715 16.3042 3.94471 16.3042 5.25816C16.3042 6.57161 15.2775 7.43917 14.0939 7.43917ZM14.8525 22.5253H13.361C13.1229 22.5253 12.8947 22.4313 12.7264 22.2632C12.5582 22.0951 12.4641 21.8672 12.4641 21.6293V10.2826C12.4641 10.0447 12.5582 9.81676 12.7264 9.64867C12.8947 9.48057 13.1229 9.38512 13.361 9.38512H14.8525C15.0907 9.38512 15.3188 9.47914 15.4871 9.64724C15.6553 9.81534 15.7495 10.0433 15.7495 10.2812V21.6278C15.7495 21.8657 15.6553 22.0937 15.4871 22.2618C15.3188 22.4299 15.0907 22.5253 14.8525 22.5253Z" fill="#00472B"/>
<path d="M9.57651 9.64733C9.40825 9.47923 9.1801 9.38379 8.94196 9.38379H1.73091C1.49278 9.38379 1.26462 9.47781 1.09636 9.64591C0.928097 9.81401 0.833984 10.0434 0.833984 10.2813V21.6279C0.833984 21.8658 0.928097 22.0938 1.09636 22.2619C1.26462 22.43 1.49278 22.5254 1.73091 22.5254H3.22246C3.46059 22.5254 3.68875 22.4314 3.85701 22.2633C4.02527 22.0952 4.11938 21.8673 4.11938 21.6294V12.6703H8.94054C9.17867 12.6703 9.40682 12.5762 9.57509 12.4081C9.74335 12.24 9.83746 12.0107 9.83746 11.7728V10.2827C9.83746 10.0448 9.74335 9.81686 9.57509 9.64876L9.57651 9.64733Z" fill="#00472B"/>
<path d="M22.5969 22.5253H20.2854C20.0473 22.5253 19.8191 22.4313 19.6509 22.2632C19.4826 22.0951 19.3885 21.8671 19.3885 21.6292V19.689C18.7839 18.6376 18.4673 17.3498 18.4673 15.9566C18.4673 14.5634 18.7825 13.2756 19.3885 12.2242V4.50026C19.3885 4.26236 19.4826 4.03443 19.6509 3.86633C19.8191 3.69823 20.0473 3.60278 20.2854 3.60278H21.777C22.0151 3.60278 22.2432 3.6968 22.4115 3.8649C22.5798 4.033 22.6739 4.26093 22.6739 4.49883V9.35803C23.4895 9.0432 24.4364 8.858 25.436 8.858C29.6183 8.858 32.4074 11.8539 32.4074 15.9538C32.4074 20.0537 29.6183 23.0495 25.436 23.0495C24.4093 23.0495 23.4368 22.8657 22.594 22.5239L22.5969 22.5253ZM29.1206 15.9552C29.1206 13.6944 27.5948 12.0134 25.4374 12.0134C23.2799 12.0134 21.7541 13.6958 21.7541 15.9552C21.7541 18.2145 23.2799 19.897 25.4374 19.897C27.5948 19.897 29.1206 18.2145 29.1206 15.9552Z" fill="#00472B"/>
<path d="M48.1485 15.9551C48.1485 20.055 45.3594 23.0509 41.177 23.0509C36.9947 23.0509 34.2055 20.055 34.2055 15.9551C34.2055 11.8552 36.9947 8.85938 41.177 8.85938C45.3594 8.85938 48.1485 11.8552 48.1485 15.9551ZM37.4938 15.9551C37.4938 18.2145 39.0196 19.8969 41.177 19.8969C43.3345 19.8969 44.8603 18.2145 44.8603 15.9551C44.8603 13.6958 43.3345 12.0134 41.177 12.0134C39.0196 12.0134 37.4938 13.6958 37.4938 15.9551Z" fill="#00472B"/>
<path d="M51.4525 9.385H52.9227C53.091 9.385 53.2521 9.45195 53.3719 9.57019C53.5801 9.77818 53.8995 9.81094 54.1519 9.65994C55.0089 9.1471 56.0584 8.85791 57.1849 8.85791C60.3947 8.85791 62.7618 11.1714 62.7618 14.2456V21.6277C62.7618 21.8656 62.6677 22.0935 62.4994 22.2616C62.3311 22.4297 62.103 22.5252 61.8649 22.5252H60.3733C60.1352 22.5252 59.907 22.4312 59.7388 22.2616C59.5705 22.0935 59.4764 21.8656 59.4764 21.6277V14.6402C59.4764 13.0376 58.213 11.8808 56.6615 11.8808C55.1101 11.8808 53.8467 12.9322 53.8467 14.3767V21.6263C53.8467 21.8642 53.7526 22.0921 53.5843 22.2602C53.4161 22.4283 53.1879 22.5238 52.9498 22.5238H51.4582C51.2201 22.5238 50.9919 22.4297 50.8237 22.2602C50.6554 22.0921 50.5613 21.8642 50.5613 21.6263V10.281C50.5613 10.0431 50.6554 9.81522 50.8237 9.64712C50.9919 9.47902 51.2201 9.38357 51.4582 9.38357L51.4525 9.385Z" fill="#00472B"/>
</svg>
