    <svg width="64" height="64" viewBox="0 0 64 64" fill="none" xmlns="http://www.w3.org/2000/svg">
      <g style="mix-blend-mode: multiply;">
        <path
          d="M47.5302 27.7813C45.9752 21.2179 39.4611 15.4012 32.6737 15.0226C25.6763 14.6229 18.164 19.577 15.9576 26.2772C14.3605 31.1262 14.6863 36.459 17.5021 40.782C27.3574 55.8758 51.6699 45.2418 47.5302 27.7813ZM32.264 23.5109C32.4216 23.0901 32.7158 22.7746 33.1045 22.5537C33.5038 22.3328 33.9871 22.3433 34.4074 22.4801C34.9432 22.6484 35.3109 23.1322 35.479 23.6476C35.6471 24.1735 35.7837 24.8152 35.6156 25.3516C35.5106 25.6987 35.2479 25.9932 34.9537 26.1825C34.628 26.4034 34.2708 26.4876 33.882 26.4771C33.4302 26.456 33.052 26.2036 32.7368 25.8985C32.7053 25.867 32.6737 25.8354 32.6527 25.8039C32.5477 25.6777 32.4321 25.5094 32.3585 25.3621C32.264 25.1728 32.1904 24.9624 32.1589 24.7626C32.0854 24.3629 32.1169 23.9001 32.264 23.5109ZM23.4804 26.3929C23.4909 26.3719 23.5014 26.3614 23.5119 26.3403C23.5434 26.2141 23.5959 26.0984 23.659 25.9827C23.743 25.7828 23.8691 25.604 24.0372 25.4673L24.405 25.2254C24.5521 25.1728 24.6886 25.1307 24.8357 25.0781C25.0669 25.0255 25.2875 25.036 25.5082 25.0992C25.6553 25.1097 25.7918 25.1623 25.9179 25.2464C26.1175 25.3306 26.2962 25.4568 26.4328 25.6356C26.4433 25.6461 26.4538 25.6566 26.4538 25.6777C26.5588 25.7723 26.6429 25.888 26.7164 26.0142C26.874 26.2036 26.9686 26.4245 27.0001 26.6769C27.0211 26.9293 27.0316 27.1818 27.0421 27.4447C27.0211 27.7603 26.9161 28.0443 26.7375 28.3073C26.6324 28.423 26.5378 28.5386 26.4328 28.6544C26.086 28.9909 25.5817 29.1066 25.1194 29.0961C24.8778 29.0856 24.6571 29.0225 24.468 28.8963C24.2579 28.8121 24.0687 28.6754 23.9216 28.4966C23.8061 28.3809 23.7325 28.2547 23.6695 28.1074C23.6695 28.0969 23.659 28.0864 23.659 28.0758C23.6485 28.0443 23.638 28.0233 23.6275 27.9917C23.5539 27.7919 23.4804 27.592 23.4173 27.3816C23.3543 27.024 23.3753 26.6979 23.4804 26.3929ZM42.2979 32.178C42.1088 33.2929 41.699 34.3763 41.0161 35.5754C40.186 37.048 38.9462 38.51 37.4228 39.8143C35.9939 41.045 34.5229 41.8128 33.052 42.0968C32.4741 42.2125 31.8752 42.2441 31.2869 42.2125C29.4692 42.1073 27.4729 41.329 25.5187 39.9721C23.6064 38.6468 22.1145 37.0164 21.2004 35.2599C20.8642 34.6077 21.1059 33.7347 21.7468 33.3035C21.9149 33.1878 22.1145 33.1141 22.3141 33.0721C22.85 32.9669 23.4068 33.1562 23.7746 33.5664C23.9111 33.7137 24.0372 33.8609 24.1738 34.0082C24.4155 34.2817 24.6676 34.5657 24.9198 34.8391C25.1194 35.06 25.3296 35.2704 25.5397 35.4702C25.5607 35.4913 25.6553 35.5754 25.7498 35.6701C25.8654 35.7753 25.981 35.891 26.107 35.9962C26.2436 36.1119 26.3802 36.2381 26.5168 36.3538L26.5273 36.3433C26.5483 36.3538 26.5904 36.3959 26.5904 36.3959L26.6009 36.4064C26.6744 36.459 26.7374 36.5221 26.811 36.5747C26.9056 36.6588 27.0106 36.7324 27.1157 36.8166C27.599 37.1847 28.0823 37.5108 28.5656 37.7948C28.5866 37.8053 28.6812 37.8579 28.7757 37.9105C28.9439 38.0052 29.112 38.0998 29.2906 38.184C29.4587 38.2576 29.6268 38.3312 29.8054 38.3943C30.0155 38.4785 30.2257 38.5416 30.4253 38.6047C30.5514 38.6468 30.688 38.6783 30.8351 38.7204H30.8456L30.9401 38.7309H30.9507C31.2238 38.773 31.497 38.8046 31.7912 38.8151C31.8752 38.8151 31.9698 38.8151 32.0539 38.8151C32.2745 38.8046 32.6212 38.752 33.0835 38.6257C33.2726 38.5731 33.4617 38.4785 33.6404 38.3943C33.882 38.2786 34.1237 38.1419 34.3548 37.9946L34.3758 37.9841L34.4809 37.9105C34.6175 37.8158 34.7331 37.7212 34.8591 37.6265C35.3425 37.2478 35.7522 36.8902 36.1094 36.5221C36.1304 36.501 36.204 36.4274 36.2776 36.3433C36.3196 36.2907 36.3721 36.2381 36.4141 36.196L36.4246 36.2065C36.5402 36.0698 36.6768 35.912 36.8029 35.7437C37.1076 35.3545 37.3913 34.9338 37.696 34.3974L37.7485 34.2922L37.759 34.2817C37.801 34.187 37.8431 34.0923 37.8851 33.9977C37.9902 33.7558 38.0952 33.5033 38.1793 33.2614C38.2423 33.0721 38.3054 32.8827 38.3579 32.6934C38.3789 32.6198 38.3999 32.5461 38.4104 32.4725L38.4209 32.4199C38.4419 32.2832 38.4629 32.1464 38.4734 32.0097C38.5155 31.61 38.5575 31.2208 38.589 30.8211V30.6949L38.5785 30.6213C38.568 30.5687 38.568 30.5056 38.5575 30.453L38.547 30.3268C38.505 29.9902 38.4734 29.6746 38.505 29.3696C38.5995 28.3704 39.314 27.8865 39.9549 27.7603C40.5853 27.6341 41.4994 27.8129 41.9932 28.7069C42.6131 29.8324 42.4135 31.5048 42.2979 32.178Z"
          fill="#FFCE00"
        />
      </g>
      <g style="mix-blend-mode: multiply;">
        <path
          d="M13.1265 55.4616C12.5752 55.4616 12.0114 55.3363 11.4602 55.0858C7.06282 53.0813 4.4695 48.4333 3.32944 45.8525C1.91376 42.6704 0.94907 39.1374 0.39783 35.0282C-0.253634 30.2424 -0.103296 25.9828 0.836316 21.9989C1.75087 18.1653 3.44218 14.5697 5.7223 11.613C6.86236 10.1347 8.14026 8.83178 9.50583 7.74183C10.3327 7.07783 11.1971 6.38878 12.2244 5.88766C13.1265 5.44917 14.0786 5.01068 15.0558 4.60978C15.4191 4.45944 15.8075 4.38428 16.2084 4.38428C17.6241 4.38428 19.1275 5.41158 19.7037 6.78968C20.4429 8.55615 19.7288 10.711 18.1001 11.588C17.6617 11.826 17.2984 12.0265 16.9601 12.252C16.9476 12.2645 16.9225 12.277 16.91 12.2895C16.8724 12.3271 16.8097 12.3647 16.7596 12.4023L16.7471 12.4148C16.6719 12.4649 16.6093 12.5276 16.5341 12.5902C16.2209 12.8408 15.8952 13.1039 15.4567 13.4296C15.4317 13.4547 15.3565 13.5048 15.3565 13.5048C15.0558 13.7553 14.7802 13.9809 14.5171 14.2189C13.9157 14.7576 13.3394 15.3464 12.8007 15.9728C12.5502 16.261 12.3121 16.5617 12.0616 16.8749L12.0365 16.9124C12.0115 16.9375 11.9989 16.9626 11.9739 16.9876C11.9238 17.0628 11.8611 17.138 11.786 17.2257C11.7358 17.3008 11.6857 17.3635 11.6356 17.4386C10.7837 18.6288 10.032 19.9192 9.41811 21.2722C9.39305 21.3224 9.34296 21.4351 9.34296 21.4351C9.3179 21.5103 9.29285 21.5729 9.25527 21.6481C9.23021 21.7107 9.20514 21.7608 9.18009 21.8235C9.04228 22.1743 8.91698 22.5376 8.7917 22.9134C8.51608 23.7403 8.27807 24.5922 8.09014 25.4692C7.98992 25.9327 7.8897 26.3963 7.81453 26.8723C7.78947 27.0227 7.76441 27.1605 7.73935 27.3108L7.7143 27.4862V27.5238L7.70176 27.5739C7.70176 27.599 7.68925 27.6366 7.68925 27.6616C7.56397 28.6137 7.48878 29.4907 7.45119 30.3301C7.37603 31.9964 7.46374 33.8004 7.68925 35.6922L7.7143 35.9302C7.75188 36.1808 7.78947 36.4063 7.83958 36.6192C7.91475 36.9951 7.98992 37.3709 8.06509 37.7092C8.22796 38.4484 8.42841 39.175 8.62886 39.864C8.85437 40.5907 9.09238 41.3048 9.35547 41.9813C9.368 42.0064 9.38053 42.0314 9.39306 42.0565C9.43064 42.1442 9.4933 42.2569 9.53088 42.3947C9.56847 42.4699 9.60606 42.5576 9.63111 42.6328C9.76892 42.946 9.91926 43.2467 10.0696 43.5473C10.4204 44.2364 10.8087 44.8878 11.2096 45.4892C11.3224 45.6521 11.4226 45.8149 11.5354 45.9653C11.5479 45.9903 11.5855 46.0404 11.6231 46.0906C11.6607 46.1407 11.6982 46.1908 11.7358 46.2409L11.8361 46.3536C11.9613 46.504 12.0866 46.6418 12.1994 46.7796C12.6128 47.2431 13.0638 47.6691 13.5399 48.1201L13.7278 48.2955C13.9032 48.4584 14.0911 48.6212 14.2916 48.7966C14.3793 48.8718 14.4545 48.9344 14.5421 49.0096L14.5547 49.0221C14.705 49.1349 14.8428 49.2477 14.9931 49.3604C15.0558 49.4105 15.1184 49.4606 15.1686 49.5107C15.2437 49.5734 15.3064 49.6235 15.3815 49.6861C16.0581 50.2123 16.4339 51.0266 16.459 51.9663C16.4715 52.7806 16.2209 53.5949 15.7448 54.1963C15.0934 55.0106 14.1663 55.4616 13.1265 55.4616Z"
          fill="#6DDFA6"
        />
      </g>
      <g style="mix-blend-mode: multiply;">
        <path
          d="M15.6324 12.2024C14.2292 12.2024 12.9138 11.4758 12.1245 10.248C11.5607 9.3836 11.3979 8.3187 11.661 7.24128C11.9366 6.12627 12.6256 5.17413 13.5652 4.63542C15.8704 3.30744 18.351 2.24254 20.9318 1.45326C24.114 0.488596 27.4715 0 30.9293 0C32.1445 0 33.3597 0.0626408 34.5499 0.187923C37.1683 0.463542 39.486 0.902024 41.6158 1.55349C42.9312 1.95439 44.159 2.45552 45.249 3.05687C45.9255 3.42019 46.7022 3.84615 47.3287 4.42244C47.8674 4.92357 48.2808 5.52492 48.6316 6.0511C49.258 6.99072 49.3081 8.16836 48.7694 9.19567C48.1931 10.3107 47.0405 11.0373 45.8253 11.0624C45.7752 11.0624 45.7125 11.0624 45.6624 11.0624C43.8208 11.0624 42.0919 10.4986 40.4256 9.94736C39.7741 9.73438 39.1603 9.53394 38.5464 9.37107C37.6068 9.12051 36.6421 8.89499 35.6775 8.73213C35.5021 8.70707 35.3141 8.66949 35.1387 8.64444L34.9132 8.60685L34.7879 8.59432C34.3244 8.54421 33.8609 8.4941 33.4098 8.46904C32.6456 8.41893 31.8689 8.38134 31.0921 8.38134C29.902 8.38134 28.7118 8.44399 27.5341 8.5818C27.459 8.59432 27.3713 8.60685 27.2961 8.60685L27.1583 8.6319C26.9954 8.65696 26.8326 8.68202 26.6572 8.70708C26.2437 8.76972 25.8052 8.85741 25.3041 8.97017C24.2267 9.19567 23.2996 9.43371 22.4477 9.68427C21.9215 9.84714 21.4079 10.0351 20.8692 10.2355C20.4933 10.3733 20.1049 10.5237 19.7166 10.6489C19.6414 10.674 19.5787 10.7116 19.5036 10.7492C19.3031 10.8369 19.1152 10.9246 18.9273 11.0248C18.5139 11.2252 18.0754 11.4382 17.6243 11.6888C17.0105 12.027 16.3214 12.2024 15.6324 12.2024Z"
          fill="#FFADC7"
        />
      </g>
      <g style="mix-blend-mode: multiply;">
        <path
          d="M56.3866 22.0127C55.0712 22.0127 53.8935 21.3237 53.3924 20.2588C52.9789 19.3818 52.5405 18.4673 52.0393 17.6028C51.8013 17.2019 51.5507 16.801 51.2751 16.4377C51.2125 16.35 51.1498 16.2623 51.0872 16.1746C50.8993 15.9491 50.7489 15.7737 50.5986 15.5858C49.4084 14.2202 49.4084 12.341 50.6111 11.0255C51.1874 10.3991 52.0143 10.0483 52.9163 10.0483C53.8183 10.0483 54.6702 10.3991 55.2716 11.0005C57.2886 13.0175 58.7795 15.235 59.669 17.6154C59.9697 18.4172 59.8945 19.3192 59.456 20.1335C59.0676 20.8601 58.4287 21.449 57.7146 21.7497C57.3262 21.925 56.8627 22.0127 56.3866 22.0127Z"
          fill="#FFADC7"
        />
      </g>
      <g style="mix-blend-mode: multiply;">
        <path
          d="M43.3819 55.8638C42.8933 56.0016 42.8683 56.0266 42.9685 56.0016C43.1063 55.9515 43.2441 55.9139 43.3819 55.8638Z"
          fill="#FF975E"
        />
      </g>
      <g style="mix-blend-mode: multiply;">
        <path
          d="M34.6248 63.6942C31.0166 63.857 27.4586 63.4311 24.051 62.4288C22.0465 61.84 20.8939 60.0109 21.2572 57.9813C21.5453 56.3401 23.0487 55.0998 24.8277 55.0122C25.1409 54.9996 25.4541 55.0247 25.7548 55.0873C26.494 55.2377 27.2081 55.3629 27.9096 55.4632C27.9723 55.4757 28.085 55.4757 28.1853 55.4757C28.4609 55.4882 28.7741 55.5007 29.0748 55.5884C29.2126 55.601 29.3379 55.601 29.4757 55.6135C30.4904 55.6636 31.5428 55.6636 32.6202 55.6135C32.971 55.601 33.3218 55.5759 33.6726 55.5509C34.3366 55.5008 35.0131 55.4256 35.6646 55.3379C35.8901 55.3003 36.1156 55.2627 36.3536 55.2377L36.5791 55.2001H36.5917L36.6543 55.1875L36.7169 55.175C36.7545 55.1625 36.7796 55.1625 36.8172 55.15C38.0074 54.8994 39.1975 54.5862 40.3501 54.2103C40.9765 54.0099 41.6154 53.7844 42.2419 53.5338C42.4674 53.4461 42.6929 53.3459 42.9309 53.2332C43.1314 53.1455 43.3318 53.0452 43.5448 52.9575L43.5949 52.9325L43.645 52.92C43.6951 52.9074 43.7828 52.8698 43.8204 52.8573L43.858 52.8448C44.0083 52.7696 44.1587 52.6944 44.309 52.6193C44.5846 52.4815 44.8477 52.3311 45.1108 52.1808C45.637 51.8801 46.1632 51.5669 46.6643 51.2412C47.6164 50.6148 48.5811 49.9132 49.6084 49.0863L49.6335 49.0613C49.7212 48.9861 49.8089 48.8984 49.8966 48.8232C50.1221 48.6228 50.3351 48.4223 50.5355 48.2219C50.9615 47.8085 51.3624 47.3825 51.7382 46.944C51.9637 46.6809 52.1892 46.4053 52.4022 46.1422C52.4273 46.1046 52.4523 46.067 52.4774 46.042L52.728 45.6285C52.8407 45.4281 52.9785 45.2402 53.0913 45.0648C53.2291 44.8643 53.3543 44.6764 53.4546 44.4885C53.655 44.1252 53.8429 43.7368 54.0559 43.2482L54.0309 43.2231L54.2814 42.6218C54.294 42.5967 54.3065 42.5717 54.3065 42.5466C54.3817 42.3086 54.4568 42.0455 54.532 41.7323C54.958 40.0159 56.4237 38.8132 58.2153 38.7381C58.5285 38.7255 58.8417 38.7506 59.1549 38.8007C60.107 38.9636 60.9339 39.5273 61.5102 40.3667C62.1241 41.2813 62.3621 42.4088 62.1491 43.4612C61.4851 46.7436 59.8941 49.9132 57.3884 52.8824C53.7051 57.2672 48.3055 60.6624 42.2168 62.4414C39.7613 63.1555 37.2056 63.5689 34.6248 63.6942ZM56.0855 43.3234C56.0855 43.3108 56.0855 43.3234 56.0855 43.3234H56.0479H56.0855Z"
          fill="#FF975E"
        />
      </g>
      <g style="mix-blend-mode: multiply;">
        <path
          d="M53.7425 48.1465C53.73 48.1465 53.6674 48.2342 53.5295 48.4973V48.4848C53.6047 48.372 53.6673 48.2592 53.7425 48.1465Z"
          fill="#FF975E"
        />
      </g>
      <g style="mix-blend-mode: multiply;">
        <path
          d="M35.3019 58.0812C35.4522 58.0436 35.4898 58.006 34.8884 58.1438C34.901 58.1438 34.9009 58.1438 34.9135 58.1438C35.0388 58.1188 35.1766 58.1062 35.3019 58.0812Z"
          fill="#FF975E"
        />
      </g>
      <g style="mix-blend-mode: multiply;">
        <path
          d="M55.6598 44.8763C55.6347 44.8512 55.5345 45.0015 55.522 45.2271V45.2145C55.5345 45.1268 55.5972 44.989 55.6598 44.8763Z"
          fill="#FF975E"
        />
      </g>
      <g style="mix-blend-mode: multiply;">
        <path
          d="M57.3882 47.9088C56.8119 47.9339 56.2231 47.8211 55.6844 47.5706C54.2938 46.9191 53.4794 45.115 53.9304 43.6993C53.9931 43.5114 54.0432 43.3235 54.1059 43.1231C54.156 42.9602 54.1935 42.8099 54.2437 42.647C54.3188 42.3964 54.4065 42.1709 54.4942 41.9454C54.5443 41.8327 54.5945 41.7074 54.632 41.5821L54.7197 41.3566C54.8074 41.1186 54.8951 40.893 54.9828 40.6801L54.9953 40.6425C55.0329 40.5548 55.083 40.4546 55.1457 40.3418C55.2208 40.1789 55.2835 39.966 55.3336 39.7655C55.3837 39.6026 55.4338 39.4398 55.484 39.2769L55.5591 39.0514C55.5967 38.9261 55.6468 38.8008 55.6844 38.6756C55.7721 38.3874 55.8598 38.0867 55.9475 37.7861C56.1229 37.1346 56.2732 36.4581 56.386 35.8066C56.4486 35.4683 56.4987 35.1301 56.5363 34.8043C56.5363 34.7793 56.5489 34.6916 56.5489 34.6164C56.5614 34.5287 56.5614 34.4536 56.5739 34.4035V34.3533C56.6115 33.6643 56.624 32.9878 56.599 32.3238C56.5739 31.6473 56.5238 30.9707 56.4236 30.3067C56.3985 30.1564 56.386 30.0061 56.3609 29.8557L56.3484 29.743V29.7304C56.2857 29.4172 56.2231 29.1291 56.1479 28.8409C55.6593 26.8615 56.5864 25.0574 58.4531 24.3559C58.7663 24.2431 59.0921 24.1679 59.4303 24.1554C61.0715 24.0802 62.6751 25.2078 63.0886 26.7112C63.9906 30.0311 64.2286 33.539 63.7776 37.1471C63.2639 41.319 61.9109 44.5889 59.7435 46.869C59.1046 47.4829 58.2777 47.8587 57.3882 47.9088Z"
          fill="#BCFFDA"
        />
      </g>
      <g style="mix-blend-mode: multiply;">
        <path
          d="M16.0209 59.6092C15.6826 59.6092 15.3444 59.5716 14.9936 59.509C13.6405 59.2334 12.5882 58.2812 11.6611 57.4293C11.5483 57.3166 11.4231 57.2163 11.3103 57.1161C10.6588 56.5398 10.0575 55.9635 9.50625 55.3872C8.00287 53.8212 6.76257 52.0046 5.94824 50.7769C4.88334 49.1607 5.33437 46.818 6.93798 45.5777C7.62703 45.0515 8.54158 44.7383 9.46866 44.7383C10.5837 44.7383 11.5859 45.1768 12.2374 45.9535C13.2897 47.1938 14.4298 48.3088 15.5198 49.3361C16.1337 49.9124 16.7099 50.4261 17.2862 50.9021C17.399 51.0024 17.5243 51.1026 17.6496 51.1903L17.6871 51.2279L17.7498 51.2655C18.4764 51.7916 19.2156 52.3304 19.7292 53.295C20.5561 54.836 20.4183 56.64 19.3784 57.968C18.5766 59.0329 17.3865 59.6092 16.0209 59.6092Z"
          fill="#FF6B70"
        />
      </g>
    </svg>
