<svg width="16" height="16" viewBox="0 0 16 16" fill="none" xmlns="http://www.w3.org/2000/svg">
<mask id="mask0_4739_23621" style="mask-type:alpha" maskUnits="userSpaceOnUse" x="0" y="0" width="16" height="16">
<rect width="16" height="16" fill="#D9D9D9"/>
</mask>
<g mask="url(#mask0_4739_23621)">
<path d="M4.86699 7.8999C5.04477 7.53324 5.23633 7.18324 5.44166 6.8499C5.64744 6.51657 5.8781 6.18324 6.13366 5.8499L5.15033 5.66657C5.11699 5.65546 5.08366 5.65546 5.05033 5.66657C5.01699 5.67768 4.98921 5.69435 4.96699 5.71657L3.45033 7.23324C3.43921 7.24435 3.43655 7.25813 3.44233 7.27457C3.44766 7.29146 3.45588 7.30546 3.46699 7.31657L4.86699 7.8999ZM12.7003 3.11657C11.8003 3.16101 10.9337 3.3859 10.1003 3.79124C9.26699 4.19701 8.50033 4.75546 7.80033 5.46657C7.32255 5.94435 6.90033 6.4499 6.53366 6.98324C6.16699 7.51657 5.8781 8.03324 5.66699 8.53324L7.56699 10.4166C8.05588 10.2055 8.56988 9.91657 9.10899 9.5499C9.64766 9.18324 10.1559 8.76101 10.6337 8.28324C11.3337 7.57213 11.8865 6.80546 12.2923 5.98324C12.6977 5.16101 12.9281 4.29435 12.9837 3.38324C12.9837 3.3499 12.9781 3.31657 12.967 3.28324C12.9559 3.2499 12.9337 3.22213 12.9003 3.1999C12.867 3.16657 12.8337 3.14435 12.8003 3.13324C12.767 3.12213 12.7337 3.11657 12.7003 3.11657ZM9.08366 6.9999C8.86144 6.76657 8.75033 6.48879 8.75033 6.16657C8.75033 5.84435 8.86144 5.57213 9.08366 5.3499C9.31699 5.12768 9.59477 5.01657 9.91699 5.01657C10.2392 5.01657 10.517 5.12768 10.7503 5.3499C10.9725 5.57213 11.0837 5.84435 11.0837 6.16657C11.0837 6.48879 10.9725 6.76657 10.7503 6.9999C10.517 7.22213 10.2392 7.33324 9.91699 7.33324C9.59477 7.33324 9.31699 7.22213 9.08366 6.9999ZM8.18366 11.2166L8.78366 12.6166C8.78366 12.6388 8.7921 12.6499 8.80899 12.6499C8.82544 12.6499 8.84477 12.6443 8.86699 12.6332L10.367 11.1332C10.3892 11.111 10.4059 11.0832 10.417 11.0499C10.4281 11.0166 10.4337 10.9832 10.4337 10.9499L10.2337 9.96657C9.90033 10.211 9.56699 10.4361 9.23366 10.6419C8.90033 10.8472 8.55033 11.0388 8.18366 11.2166ZM13.9337 2.7999C13.967 3.96657 13.7585 5.07501 13.3083 6.12524C12.8585 7.17501 12.1614 8.17213 11.217 9.11657L11.1003 9.23324L11.417 10.7499C11.4503 10.9499 11.4363 11.1443 11.375 11.3332C11.3141 11.5221 11.2114 11.6888 11.067 11.8332L9.10033 13.7999C8.94477 13.9555 8.76144 14.0137 8.55033 13.9746C8.33921 13.9359 8.19477 13.8166 8.11699 13.6166L7.20033 11.4832L4.60033 8.86657L2.46699 7.96657C2.26699 7.88879 2.14766 7.74435 2.10899 7.53324C2.06988 7.32213 2.1281 7.13879 2.28366 6.98324L4.25033 4.9999C4.39477 4.86657 4.56433 4.76924 4.75899 4.7079C4.95321 4.64701 5.15033 4.63879 5.35033 4.68324L6.86699 4.98324L6.92566 4.92457C6.9421 4.90813 6.95588 4.88879 6.96699 4.86657C7.91144 3.93324 8.90877 3.23879 9.95899 2.78324C11.0088 2.32768 12.117 2.12213 13.2837 2.16657C13.3614 2.16657 13.4392 2.18324 13.517 2.21657C13.5948 2.2499 13.667 2.2999 13.7337 2.36657C13.8003 2.42213 13.8474 2.48879 13.875 2.56657C13.903 2.64435 13.9225 2.72213 13.9337 2.7999ZM3.01699 10.7166C3.33921 10.3943 3.73366 10.2303 4.20033 10.2246C4.66699 10.2192 5.06144 10.3832 5.38366 10.7166C5.71699 11.0388 5.88077 11.4332 5.87499 11.8999C5.86966 12.3666 5.70588 12.761 5.38366 13.0832C5.1281 13.3388 4.71433 13.5555 4.14233 13.7332C3.56988 13.911 2.8281 14.0555 1.91699 14.1666C2.0281 13.2666 2.17544 12.5306 2.35899 11.9586C2.5421 11.3861 2.76144 10.9721 3.01699 10.7166ZM3.73366 11.4166C3.61144 11.5388 3.49477 11.747 3.38366 12.0412C3.27255 12.3359 3.19477 12.6332 3.15033 12.9332C3.46144 12.8999 3.76144 12.8277 4.05033 12.7166C4.33921 12.6055 4.54477 12.4888 4.66699 12.3666C4.80033 12.2332 4.86966 12.0721 4.87499 11.8832C4.88077 11.6943 4.81699 11.5332 4.68366 11.3999C4.55033 11.2666 4.39188 11.2026 4.20833 11.2079C4.02521 11.2137 3.86699 11.2832 3.73366 11.4166Z" fill="#AF5333"/>
</g>
</svg>
