<svg width="34" height="33" viewBox="0 0 34 33" fill="none" xmlns="http://www.w3.org/2000/svg">
<mask id="mask0_4362_17415" style="mask-type:alpha" maskUnits="userSpaceOnUse" x="0" y="0" width="34" height="33">
<rect x="0.920898" y="0.577148" width="32.3077" height="32.3077" fill="#D9D9D9"/>
</mask>
<g mask="url(#mask0_4362_17415)">
<path d="M25.8245 12.1538L24.411 8.99038L21.2476 7.57692L24.411 6.12981L25.8245 3L27.2379 6.12981L30.4014 7.57692L27.2379 8.99038L25.8245 12.1538ZM25.8245 30.4615L24.411 27.3317L21.2476 25.8846L24.411 24.4711L25.8245 21.3077L27.2379 24.4711L30.4014 25.8846L27.2379 27.3317L25.8245 30.4615ZM12.8677 25.8846L10.0408 19.5913L3.74756 16.7308L10.0408 13.8702L12.8677 7.57692L15.7283 13.8702L22.0216 16.7308L15.7283 19.5913L12.8677 25.8846Z" fill="#F2A9C3"/>
</g>
</svg>
