<svg width="92" height="92" viewBox="0 0 92 92" fill="none" xmlns="http://www.w3.org/2000/svg">
<path d="M73.0923 28.5984C72.3904 26.8467 73.3263 24.8168 74.9263 24.1085L72.9785 19.2265C71.328 19.8146 69.1969 19.0115 68.4949 17.2534C68.457 17.1649 68.3368 17.0068 68.3431 17.0005L10.3851 40.1331C10.3914 40.1331 10.4673 40.3039 10.5052 40.3987C11.2198 42.1947 10.2902 44.2499 8.49424 44.9709C8.34879 45.0278 8.0073 45.1543 8.00098 45.1353L9.96769 50.0679C9.96137 50.0489 10.2965 49.9035 10.4357 49.8466C12.2316 49.132 14.2932 49.992 15.0078 51.788C15.7224 53.5839 14.8054 55.6329 13.0095 56.3538C12.864 56.4107 12.5352 56.5309 12.5289 56.5119L14.4956 61.4445C14.4892 61.4255 14.8244 61.2801 14.9635 61.2232C16.7595 60.5086 18.8211 61.3686 19.5357 63.1646C20.2503 64.9605 19.3333 67.0095 17.5373 67.7304C17.3919 67.7873 17.063 67.9075 17.0567 67.8885L19.0234 72.8211C19.0171 72.8021 19.3523 72.6567 19.4914 72.5998C21.2874 71.8852 23.349 72.7452 24.0699 74.5412C24.1078 74.6297 24.2027 74.8005 24.1964 74.8068L82.1544 51.6741C82.1481 51.6741 82.1291 51.4781 82.0912 51.3896C81.3892 49.6379 82.3884 47.5826 83.9883 46.8743L82.0406 41.9923C80.3901 42.5805 78.3158 41.752 77.6139 40.0003C76.9119 38.2486 77.8479 36.2187 79.4478 35.5104L77.5001 30.6284C75.8685 31.1786 73.7943 30.3565 73.0923 28.5984Z" fill="white"/>
<path fill-rule="evenodd" clip-rule="evenodd" d="M76.8053 27.1105C76.8059 27.112 76.8066 27.1136 76.8072 27.1151L73.0923 28.5984L76.8053 27.1105ZM77.5001 30.6283C75.8685 31.1785 73.7943 30.3564 73.0923 28.5984C72.3904 26.8466 73.3263 24.8167 74.9263 24.1084L72.9785 19.2264C72.5224 19.3889 72.0296 19.4452 71.5404 19.4045C71.1923 19.3755 70.8461 19.2973 70.5161 19.1734C69.6318 18.8412 68.8649 18.1799 68.4949 17.2534C68.4727 17.2015 68.4223 17.1259 68.3856 17.0708C68.3689 17.0456 68.355 17.0248 68.3479 17.0124C68.344 17.0056 68.3422 17.0013 68.3431 17.0004L10.3851 40.133C10.3914 40.133 10.4673 40.3038 10.5052 40.3987C10.5421 40.4914 10.5747 40.5849 10.6029 40.6789C10.7534 41.1794 10.7824 41.6934 10.7061 42.1875C10.7061 42.1873 10.706 42.1877 10.7061 42.1875C10.6513 42.5419 10.5422 42.8866 10.3851 43.2083C10.2292 43.5274 10.0259 43.8244 9.78111 44.0873C9.78115 44.0873 9.78106 44.0874 9.78111 44.0873C9.53057 44.3564 9.2364 44.5899 8.9051 44.7747C8.77386 44.848 8.63678 44.9136 8.49423 44.9708C8.34924 45.0275 8.00945 45.1534 8.00104 45.1354L9.96769 50.0678C9.96137 50.0488 10.2965 49.9034 10.4357 49.8465C10.5856 49.7868 10.7373 49.7382 10.89 49.7001C11.0269 49.6659 11.1646 49.6403 11.3023 49.6229C12.2604 49.5021 13.2213 49.781 13.9572 50.3693C14.4104 50.7317 14.7786 51.2118 15.0078 51.7879C15.2378 52.3659 15.2988 52.97 15.2159 53.5477C15.2158 53.5481 15.2158 53.5484 15.2157 53.5488C15.0616 54.6204 14.4124 55.6006 13.4282 56.1532C13.3035 56.2232 13.1734 56.2864 13.0383 56.342C13.0287 56.3459 13.0191 56.3499 13.0095 56.3537C12.8645 56.4104 12.5373 56.53 12.5289 56.512L14.4956 61.4444C14.4892 61.4254 14.8244 61.28 14.9635 61.2231C15.1134 61.1634 15.2652 61.1148 15.4178 61.0767C15.5548 61.0425 15.6925 61.0169 15.8302 60.9995C16.7883 60.8787 17.7492 61.1576 18.4851 61.7459C18.9383 62.1083 19.3065 62.5884 19.5357 63.1645C19.7656 63.7425 19.8266 64.3466 19.7437 64.9243C19.7437 64.9247 19.7436 64.925 19.7436 64.9254C19.5895 65.997 18.9403 66.9772 17.9561 67.5298C17.8314 67.5998 17.7013 67.663 17.5662 67.7186C17.5566 67.7225 17.547 67.7265 17.5373 67.7303C17.3924 67.7871 17.0652 67.9066 17.0568 67.8886L19.0234 72.821C19.0171 72.802 19.3523 72.6566 19.4914 72.5997C19.6413 72.54 19.793 72.4914 19.9457 72.4533C20.0826 72.4191 20.2203 72.3935 20.358 72.3761C20.5844 72.3476 20.8109 72.3414 21.0345 72.3562C21.0345 72.3562 21.0346 72.3562 21.0345 72.3562C21.337 72.3764 21.6343 72.4351 21.919 72.5294C22.3145 72.6605 22.6858 72.8603 23.0131 73.121C23.4681 73.4836 23.8383 73.9642 24.0699 74.5411C24.0874 74.582 24.117 74.6403 24.1432 74.692C24.1568 74.7188 24.1695 74.7438 24.1791 74.7636C24.1911 74.7882 24.1982 74.8048 24.1963 74.8067L82.1544 51.6741C82.1538 51.6741 82.153 51.672 82.152 51.6681C82.1499 51.6593 82.147 51.6412 82.1433 51.618C82.133 51.5532 82.1162 51.4479 82.0912 51.3895C81.7475 50.5318 81.8116 49.6013 82.1544 48.7918C82.3191 48.403 82.548 48.0422 82.8269 47.7306C83.1164 47.7798 83.3962 47.8603 83.6624 47.9687C83.4148 47.8673 83.1355 47.7829 82.8269 47.7306C83.1531 47.3664 83.5483 47.0691 83.9883 46.8743L82.0406 41.9923C80.3901 42.5804 78.3158 41.752 77.6139 40.0002C76.9119 38.2485 77.8479 36.2186 79.4478 35.5103L77.5001 30.6283ZM86.0799 50.9057C86.0808 50.9102 86.0817 50.9147 86.0825 50.9191C86.4445 52.8027 85.4186 54.6781 83.6372 55.3891L25.6791 78.5217C23.9158 79.2255 21.9007 78.5928 20.8562 77.0074C20.7496 76.8457 20.6562 76.6787 20.5757 76.5076C20.5171 76.5323 20.4576 76.5556 20.3972 76.5777C18.3646 77.321 16.1095 76.3128 15.3079 74.3025L13.3652 69.43C13.3283 69.3411 13.2938 69.2489 13.262 69.1533C12.8197 67.8265 13.1113 66.4278 13.9215 65.4037C12.5523 65.204 11.3273 64.2985 10.78 62.9259L8.83729 58.0534C8.80045 57.9645 8.76596 57.8723 8.73412 57.7767C8.29183 56.4499 8.58339 55.0512 9.3936 54.0271C8.02447 53.8274 6.79945 52.922 6.25214 51.5493L4.31077 46.6802C4.27344 46.5902 4.2385 46.4969 4.20624 46.4001C3.52622 44.3601 4.58098 42.1502 6.58839 41.3929C6.53427 41.2295 6.49019 41.0609 6.45695 40.888C6.09495 39.0044 7.12091 37.129 8.9023 36.418L66.8604 13.2854C68.6237 12.5816 70.6388 13.2143 71.6833 14.7997C71.7129 14.8446 71.7415 14.89 71.7691 14.9357C71.7978 14.9798 71.8376 15.042 71.8799 15.1121C71.9046 15.1532 71.9534 15.2346 72.0118 15.3447C73.9316 14.8644 75.9457 15.8691 76.6937 17.7442L78.6415 22.6262C79.2013 24.0294 78.9113 25.5671 78.0077 26.66C79.4054 26.8397 80.66 27.7541 81.2153 29.1461L83.163 34.0281C83.7167 35.4157 83.4392 36.9349 82.5591 38.0253C83.951 38.2083 85.2013 39.12 85.7558 40.51L87.7036 45.392C88.4517 47.2673 87.6821 49.3827 85.9585 50.3557C85.9842 50.4467 86.0011 50.5176 86.011 50.56C86.0445 50.7034 86.0662 50.8254 86.0774 50.8906C86.0779 50.8938 86.0788 50.8991 86.0799 50.9057Z" fill="white"/>
<path d="M73.0923 28.5984C72.3904 26.8467 73.3263 24.8168 74.9263 24.1085L72.9785 19.2265C71.328 19.8146 69.1969 19.0115 68.4949 17.2534C68.457 17.1649 68.3368 17.0068 68.3431 17.0005L10.3851 40.1331C10.3914 40.1331 10.4673 40.3039 10.5052 40.3987C11.2198 42.1947 10.2902 44.2499 8.49424 44.9709C8.34879 45.0278 8.0073 45.1543 8.00098 45.1353L9.96769 50.0679C9.96137 50.0489 10.2965 49.9035 10.4357 49.8466C12.2316 49.132 14.2932 49.992 15.0078 51.788C15.7224 53.5839 14.8054 55.6329 13.0095 56.3538C12.864 56.4107 12.5352 56.5309 12.5289 56.5119L14.4956 61.4445C14.4892 61.4255 14.8244 61.2801 14.9635 61.2232C16.7595 60.5086 18.8211 61.3686 19.5357 63.1646C20.2503 64.9605 19.3333 67.0095 17.5373 67.7304C17.3919 67.7873 17.063 67.9075 17.0567 67.8885L19.0234 72.8211C19.0171 72.8021 19.3523 72.6567 19.4914 72.5998C21.2874 71.8852 23.349 72.7452 24.0699 74.5412C24.1078 74.6297 24.2027 74.8005 24.1964 74.8068L82.1544 51.6741C82.1481 51.6741 82.1291 51.4781 82.0912 51.3896C81.3892 49.6379 82.3884 47.5826 83.9883 46.8743L82.0406 41.9923C80.3901 42.5805 78.3158 41.752 77.6139 40.0003C76.9119 38.2486 77.8479 36.2187 79.4478 35.5104L77.5001 30.6284C75.8685 31.1786 73.7943 30.3565 73.0923 28.5984Z" fill="#D4CEC3"/>
<path d="M66.3955 23.8241L15.9585 43.9565L25.6262 68.1766L76.0631 48.0442L66.3955 23.8241Z" fill="#F2F2F0"/>
<path d="M24.6486 37.4874L22.6636 38.2798L34.5302 68.0087L36.5152 67.2163L24.6486 37.4874Z" fill="#D4CEC3"/>
<path d="M57.5881 23.9811L55.603 24.7734L67.4696 54.5023L69.4547 53.71L57.5881 23.9811Z" fill="#D4CEC3"/>
<path d="M67.5716 19.353C68.5771 20.5418 70.1138 21.2881 71.7643 21.3134L72.6054 23.4255C71.0814 24.9116 70.4996 27.2451 71.3217 29.3067C72.1121 31.2924 74.1042 32.6394 76.2985 32.6773L77.1459 34.7958C75.6219 36.2819 75.0401 38.6154 75.8622 40.677C76.6527 42.6627 78.6447 44.0096 80.8391 44.0476L81.6865 46.1661C80.5418 47.2854 79.9094 48.8917 79.998 50.4789L25.0311 72.4227C24.0256 71.1832 22.4952 70.437 20.8257 70.437C20.6044 70.437 20.3831 70.4496 20.1617 70.4749L19.4914 68.7928C20.2439 68.2363 20.8447 67.4838 21.2368 66.6048C21.8249 65.2704 21.8565 63.7906 21.319 62.45C20.4969 60.3947 18.5239 59.0667 16.2915 59.0667C16.0702 59.0667 15.8489 59.0794 15.6275 59.1047L14.9572 57.4225C15.7097 56.866 16.3105 56.1135 16.7026 55.2345C17.2907 53.9001 17.3223 52.4204 16.7848 51.0797C15.9627 49.0245 13.9897 47.6964 11.7573 47.6964C11.536 47.6964 11.3147 47.7091 11.0933 47.7344L10.4104 46.0586C11.1692 45.5021 11.7763 44.7495 12.1747 43.8579C12.5415 43.0294 12.6933 42.1504 12.63 41.2777L67.5716 19.353V19.353ZM68.3431 17.0005L10.3851 40.1331C10.3914 40.1331 10.4673 40.3102 10.5052 40.3987C11.2198 42.1947 10.2902 44.2499 8.49424 44.9709C8.36144 45.0215 8.05157 45.1353 8.0073 45.1353H8.00098L9.96769 50.0679C9.96137 50.0489 10.2965 49.9035 10.4357 49.8466C10.8657 49.6758 11.3083 49.5936 11.7447 49.5936C13.1359 49.5936 14.4639 50.422 15.0141 51.788C15.7287 53.5839 14.8118 55.6329 13.0158 56.3538C12.883 56.4044 12.5921 56.5119 12.5415 56.5119H12.5352L14.5019 61.4445C14.4956 61.4255 14.8307 61.2801 14.9699 61.2232C15.3999 61.0524 15.8425 60.9702 16.2789 60.9702C17.6701 60.9702 18.9981 61.7986 19.5483 63.1646C20.2629 64.9605 19.346 67.0095 17.55 67.7304C17.4172 67.781 17.1263 67.8885 17.0757 67.8885H17.0694L19.0361 72.8211C19.0298 72.8021 19.3649 72.6567 19.5041 72.5998C19.9341 72.429 20.3767 72.3468 20.8131 72.3468C22.2107 72.3468 23.5387 73.1752 24.0825 74.5412C24.1205 74.6297 24.2153 74.8005 24.209 74.8068L82.1671 51.6741C82.1607 51.6741 82.1418 51.4781 82.1038 51.3896C81.4019 49.6379 82.401 47.5826 84.001 46.8743L82.0532 41.9923C81.6991 42.1188 81.3197 42.182 80.9466 42.182C79.5743 42.182 78.1767 41.3789 77.6329 40.0003C76.9309 38.2486 77.8668 36.2187 79.4668 35.5104L77.519 30.6284C77.1649 30.7549 76.7855 30.8181 76.4124 30.8181C75.0401 30.8181 73.6425 30.015 73.0987 28.6364C72.3967 26.8847 73.3327 24.8547 74.9326 24.1464L72.9848 19.2644C72.6244 19.3909 72.2386 19.4541 71.8529 19.4541C70.4679 19.4541 69.0451 18.6637 68.5012 17.2914C68.457 17.1649 68.3305 17.0068 68.3431 17.0005V17.0005Z" fill="#F2F2F0"/>
</svg>
