<svg width="14" height="10" viewBox="0 0 14 10" fill="none" xmlns="http://www.w3.org/2000/svg">
<path d="M1.66675 10C1.38897 10 1.15297 9.90267 0.958748 9.708C0.764081 9.51378 0.666748 9.27778 0.666748 9V6.6C1.04453 6.53333 1.36119 6.35 1.61675 6.05C1.8723 5.75 2.00008 5.4 2.00008 5C2.00008 4.6 1.8723 4.25 1.61675 3.95C1.36119 3.65 1.04453 3.46667 0.666748 3.4V1C0.666748 0.722222 0.764081 0.486222 0.958748 0.292C1.15297 0.0973335 1.38897 0 1.66675 0H12.3334C12.6112 0 12.8472 0.0973335 13.0414 0.292C13.2361 0.486222 13.3334 0.722222 13.3334 1V3.4C12.9556 3.46667 12.639 3.65 12.3834 3.95C12.1279 4.25 12.0001 4.6 12.0001 5C12.0001 5.4 12.1279 5.75 12.3834 6.05C12.639 6.35 12.9556 6.53333 13.3334 6.6V9C13.3334 9.27778 13.2361 9.51378 13.0414 9.708C12.8472 9.90267 12.6112 10 12.3334 10H1.66675ZM7.00008 8.1C7.14453 8.1 7.26408 8.05289 7.35875 7.95867C7.45297 7.864 7.50008 7.74444 7.50008 7.6C7.50008 7.45556 7.45297 7.33622 7.35875 7.242C7.26408 7.14733 7.14453 7.1 7.00008 7.1C6.85564 7.1 6.7363 7.14733 6.64208 7.242C6.54742 7.33622 6.50008 7.45556 6.50008 7.6C6.50008 7.74444 6.54742 7.864 6.64208 7.95867C6.7363 8.05289 6.85564 8.1 7.00008 8.1ZM7.00008 5.5C7.14453 5.5 7.26408 5.45267 7.35875 5.358C7.45297 5.26378 7.50008 5.14444 7.50008 5C7.50008 4.85556 7.45297 4.736 7.35875 4.64133C7.26408 4.54711 7.14453 4.5 7.00008 4.5C6.85564 4.5 6.7363 4.54711 6.64208 4.64133C6.54742 4.736 6.50008 4.85556 6.50008 5C6.50008 5.14444 6.54742 5.26378 6.64208 5.358C6.7363 5.45267 6.85564 5.5 7.00008 5.5ZM7.00008 2.9C7.14453 2.9 7.26408 2.85267 7.35875 2.758C7.45297 2.66378 7.50008 2.54444 7.50008 2.4C7.50008 2.25556 7.45297 2.136 7.35875 2.04133C7.26408 1.94711 7.14453 1.9 7.00008 1.9C6.85564 1.9 6.7363 1.94711 6.64208 2.04133C6.54742 2.136 6.50008 2.25556 6.50008 2.4C6.50008 2.54444 6.54742 2.66378 6.64208 2.758C6.7363 2.85267 6.85564 2.9 7.00008 2.9Z" fill="white"/>
</svg>
