<svg width="20" height="21" viewBox="0 0 20 21" fill="none" xmlns="http://www.w3.org/2000/svg">
<path d="M10 20.5C15.5417 20.5 20 16.0417 20 10.5C20 4.9583 15.5417 0.5 10 0.5C4.4583 0.5 0 4.9583 0 10.5C0 16.0417 4.4583 20.5 10 20.5Z" fill="#8CE0BE"/>
<path transform="translate(4, 5.5)" style=" stroke:none;fill-rule:nonzero;fill:rgb(0.784314%,35.686275%,21.568627%);fill-opacity:1;" d="M 1.199219 9.6875 C 0.949219 9.6875 0.738281 9.597656 0.5625 9.414062 C 0.386719 9.230469 0.300781 9.011719 0.300781 8.75 L 0.300781 6.5 C 0.640625 6.4375 0.925781 6.265625 1.15625 5.984375 C 1.386719 5.703125 1.5 5.375 1.5 5 C 1.5 4.625 1.386719 4.296875 1.15625 4.015625 C 0.925781 3.734375 0.640625 3.5625 0.300781 3.5 L 0.300781 1.25 C 0.300781 0.988281 0.386719 0.769531 0.5625 0.585938 C 0.738281 0.402344 0.949219 0.3125 1.199219 0.3125 L 10.800781 0.3125 C 11.050781 0.3125 11.261719 0.402344 11.4375 0.585938 C 11.613281 0.769531 11.699219 0.988281 11.699219 1.25 L 11.699219 3.5 C 11.359375 3.5625 11.074219 3.734375 10.84375 4.015625 C 10.613281 4.296875 10.5 4.625 10.5 5 C 10.5 5.375 10.613281 5.703125 10.84375 5.984375 C 11.074219 6.265625 11.359375 6.4375 11.699219 6.5 L 11.699219 8.75 C 11.699219 9.011719 11.613281 9.230469 11.4375 9.414062 C 11.261719 9.597656 11.050781 9.6875 10.800781 9.6875 Z M 1.199219 8.75 L 10.800781 8.75 L 10.800781 7.15625 C 10.429688 6.925781 10.136719 6.621094 9.921875 6.242188 C 9.707031 5.863281 9.601562 5.449219 9.601562 5 C 9.601562 4.550781 9.707031 4.136719 9.921875 3.757812 C 10.136719 3.378906 10.429688 3.074219 10.800781 2.84375 L 10.800781 1.25 L 1.199219 1.25 L 1.199219 2.84375 C 1.570312 3.074219 1.863281 3.378906 2.078125 3.757812 C 2.292969 4.136719 2.398438 4.550781 2.398438 5 C 2.398438 5.449219 2.292969 5.863281 2.078125 6.242188 C 1.863281 6.621094 1.570312 6.925781 1.199219 7.15625 Z M 6 7.90625 C 6.128906 7.90625 6.238281 7.863281 6.324219 7.773438 C 6.40625 7.683594 6.449219 7.574219 6.449219 7.4375 C 6.449219 7.300781 6.40625 7.191406 6.324219 7.101562 C 6.238281 7.011719 6.128906 6.96875 6 6.96875 C 5.871094 6.96875 5.761719 7.011719 5.679688 7.101562 C 5.59375 7.191406 5.550781 7.300781 5.550781 7.4375 C 5.550781 7.574219 5.59375 7.683594 5.679688 7.773438 C 5.761719 7.863281 5.871094 7.90625 6 7.90625 Z M 6 5.46875 C 6.128906 5.46875 6.238281 5.425781 6.324219 5.335938 C 6.40625 5.246094 6.449219 5.136719 6.449219 5 C 6.449219 4.863281 6.40625 4.753906 6.324219 4.664062 C 6.238281 4.574219 6.128906 4.53125 6 4.53125 C 5.871094 4.53125 5.761719 4.574219 5.679688 4.664062 C 5.59375 4.753906 5.550781 4.863281 5.550781 5 C 5.550781 5.136719 5.59375 5.246094 5.679688 5.335938 C 5.761719 5.425781 5.871094 5.46875 6 5.46875 Z M 6 3.03125 C 6.128906 3.03125 6.238281 2.988281 6.324219 2.898438 C 6.40625 2.808594 6.449219 2.699219 6.449219 2.5625 C 6.449219 2.425781 6.40625 2.316406 6.324219 2.226562 C 6.238281 2.136719 6.128906 2.09375 6 2.09375 C 5.871094 2.09375 5.761719 2.136719 5.679688 2.226562 C 5.59375 2.316406 5.550781 2.425781 5.550781 2.5625 C 5.550781 2.699219 5.59375 2.808594 5.679688 2.898438 C 5.761719 2.988281 5.871094 3.03125 6 3.03125 Z M 6 3.03125 "/>
</svg>
