<svg width="32" height="32" viewBox="0 0 32 32" fill="none" xmlns="http://www.w3.org/2000/svg">
  <path d="M10.9515 19.7008C10.3682 19.7008 9.87538 19.4991 9.47316 19.0958C9.06983 18.6935 8.86816 18.2008 8.86816 17.6174C8.86816 17.0341 9.06983 16.5413 9.47316 16.1391C9.87538 15.7358 10.3682 15.5341 10.9515 15.5341C11.5348 15.5341 12.0276 15.7358 12.4298 16.1391C12.8332 16.5413 13.0348 17.0341 13.0348 17.6174C13.0348 18.2008 12.8332 18.6935 12.4298 19.0958C12.0276 19.4991 11.5348 19.7008 10.9515 19.7008ZM20.9515 19.7008C20.3682 19.7008 19.8754 19.4991 19.4732 19.0958C19.0698 18.6935 18.8682 18.2008 18.8682 17.6174C18.8682 17.0341 19.0698 16.5413 19.4732 16.1391C19.8754 15.7358 20.3682 15.5341 20.9515 15.5341C21.5348 15.5341 22.0276 15.7358 22.4298 16.1391C22.8332 16.5413 23.0348 17.0341 23.0348 17.6174C23.0348 18.2008 22.8332 18.6935 22.4298 19.0958C22.0276 19.4991 21.5348 19.7008 20.9515 19.7008ZM15.9515 29.2841C19.6737 29.2841 22.8265 27.9924 25.4098 25.4091C27.9932 22.8258 29.2848 19.673 29.2848 15.9508C29.2848 15.2841 29.2432 14.638 29.1598 14.0124C29.0765 13.388 28.9237 12.7841 28.7015 12.2008C28.1182 12.3397 27.5348 12.4441 26.9515 12.5141C26.3682 12.583 25.757 12.6174 25.1182 12.6174C22.5904 12.6174 20.2015 12.0758 17.9515 10.9924C15.7015 9.9091 13.7848 8.39521 12.2015 6.45076C11.3126 8.61743 10.0421 10.4997 8.38983 12.0974C6.7365 13.6941 4.81261 14.8952 2.61816 15.7008V15.9508C2.61816 19.673 3.90983 22.8258 6.49316 25.4091C9.0765 27.9924 12.2293 29.2841 15.9515 29.2841ZM15.9515 31.7841C13.757 31.7841 11.6948 31.3674 9.76483 30.5341C7.83372 29.7008 6.15983 28.5758 4.74316 27.1591C3.3265 25.7424 2.2015 24.0685 1.36816 22.1374C0.534831 20.2074 0.118164 18.1452 0.118164 15.9508C0.118164 13.7563 0.534831 11.6935 1.36816 9.76243C2.2015 7.83243 3.3265 6.1591 4.74316 4.74243C6.15983 3.32576 7.83372 2.20076 9.76483 1.36743C11.6948 0.534098 13.757 0.117432 15.9515 0.117432C18.1459 0.117432 20.2087 0.534098 22.1398 1.36743C24.0698 2.20076 25.7432 3.32576 27.1598 4.74243C28.5765 6.1591 29.7015 7.83243 30.5348 9.76243C31.3682 11.6935 31.7848 13.7563 31.7848 15.9508C31.7848 18.1452 31.3682 20.2074 30.5348 22.1374C29.7015 24.0685 28.5765 25.7424 27.1598 27.1591C25.7432 28.5758 24.0698 29.7008 22.1398 30.5341C20.2087 31.3674 18.1459 31.7841 15.9515 31.7841ZM12.9098 2.99243C14.1876 5.32576 15.9448 7.09632 18.1815 8.3041C20.417 9.51299 22.7293 10.1174 25.1182 10.1174C25.5626 10.1174 26.0004 10.0963 26.4315 10.0541C26.8615 10.013 27.2987 9.93687 27.7432 9.82576C26.632 7.63132 25.0209 5.88132 22.9098 4.57576C20.7987 3.27021 18.4793 2.61743 15.9515 2.61743C15.3959 2.61743 14.8748 2.65188 14.3882 2.72076C13.9026 2.79076 13.4098 2.88132 12.9098 2.99243ZM3.0765 12.7841C4.65983 11.9785 6.15316 10.8258 7.5565 9.32576C8.95872 7.82576 9.86816 6.02021 10.2848 3.9091C8.4515 4.74243 6.90983 5.92965 5.65983 7.47076C4.40983 9.01299 3.54872 10.7841 3.0765 12.7841Z" fill="#025B37"/>
</svg>
