<svg width="24" height="24" viewBox="0 0 24 24" fill="none" xmlns="http://www.w3.org/2000/svg">
<mask id="mask0_3551_5933" style="mask-type:alpha" maskUnits="userSpaceOnUse" x="0" y="0" width="24" height="24">
<rect width="24" height="24" fill="#D9D9D9"/>
</mask>
<g mask="url(#mask0_3551_5933)">
<path fill-rule="evenodd" clip-rule="evenodd" d="M9.45001 19.9504L12 18.8504L14.6 19.9504L16 17.5504L18.75 16.9004L18.5 14.1004L20.35 12.0004L18.5 9.85036L18.75 7.05036L16 6.45036L14.55 4.05036L12 5.15036L9.40001 4.05036L8.00001 6.45036L5.25001 7.05036L5.50001 9.85036L3.65001 12.0004L5.50001 14.1004L5.25001 16.9504L8.00001 17.5504L9.45001 19.9504ZM9.50001 11.2754L10.95 12.7004L14.475 9.17536C14.675 8.97536 14.9125 8.87953 15.1875 8.88786C15.4625 8.8962 15.7 9.00036 15.9 9.20036C16.0833 9.40036 16.1792 9.6337 16.1875 9.90036C16.1958 10.167 16.1 10.4004 15.9 10.6004L11.65 14.8504C11.45 15.0504 11.2167 15.1504 10.95 15.1504C10.6833 15.1504 10.45 15.0504 10.25 14.8504L8.10001 12.7004C7.91668 12.517 7.82501 12.2837 7.82501 12.0004C7.82501 11.717 7.91668 11.4837 8.10001 11.3004C8.30001 11.1004 8.53751 11.0004 8.81251 11.0004C9.08751 11.0004 9.31668 11.092 9.50001 11.2754Z" fill="#F5B300"/>
<path fill-rule="evenodd" clip-rule="evenodd" d="M6.70001 19.3004L8.15001 21.7504C8.28335 21.967 8.46668 22.1129 8.70001 22.1879C8.93335 22.2629 9.16668 22.2504 9.40001 22.1504L12 21.0504L14.6 22.1504C14.8333 22.2504 15.0667 22.2629 15.3 22.1879C15.5333 22.1129 15.7167 21.967 15.85 21.7504L17.3 19.3004L20.05 18.7004C20.3 18.6504 20.5 18.5212 20.65 18.3129C20.8 18.1045 20.8583 17.8754 20.825 17.6254L20.55 14.8004L22.425 12.6504C22.5917 12.467 22.675 12.2504 22.675 12.0004C22.675 11.7504 22.5917 11.5337 22.425 11.3504L20.55 9.20036L20.825 6.37536C20.8583 6.12536 20.8 5.8962 20.65 5.68786C20.5 5.47953 20.3 5.35036 20.05 5.30036L17.3 4.70036L15.85 2.25036C15.7167 2.0337 15.5333 1.88786 15.3 1.81286C15.0667 1.73786 14.8333 1.75036 14.6 1.85036L12 2.95036L9.40001 1.85036C9.16668 1.75036 8.93335 1.73786 8.70001 1.81286C8.46668 1.88786 8.28335 2.0337 8.15001 2.25036L6.70001 4.70036L3.95001 5.30036C3.70001 5.35036 3.50001 5.47953 3.35001 5.68786C3.20001 5.8962 3.14168 6.12536 3.17501 6.37536L3.45001 9.20036L1.57501 11.3504C1.40835 11.5337 1.32501 11.7504 1.32501 12.0004C1.32501 12.2504 1.40835 12.467 1.57501 12.6504L3.45001 14.8004L3.17501 17.6254C3.14168 17.8754 3.20001 18.1045 3.35001 18.3129C3.50001 18.5212 3.70001 18.6504 3.95001 18.7004L6.70001 19.3004ZM12 18.8504L9.45001 19.9504L8.00001 17.5504L5.25001 16.9504L5.50001 14.1004L3.65001 12.0004L5.50001 9.85036L5.25001 7.05036L8.00001 6.45036L9.40001 4.05036L12 5.15036L14.55 4.05036L16 6.45036L18.75 7.05036L18.5 9.85036L20.35 12.0004L18.5 14.1004L18.75 16.9004L16 17.5504L14.6 19.9504L12 18.8504Z" fill="#F5B300"/>
<path d="M10.95 12.7004L9.50001 11.2754C9.31668 11.092 9.08751 11.0004 8.81251 11.0004C8.53751 11.0004 8.30001 11.1004 8.10001 11.3004C7.91668 11.4837 7.82501 11.717 7.82501 12.0004C7.82501 12.2837 7.91668 12.517 8.10001 12.7004L10.25 14.8504C10.45 15.0504 10.6833 15.1504 10.95 15.1504C11.2167 15.1504 11.45 15.0504 11.65 14.8504L15.9 10.6004C16.1 10.4004 16.1958 10.167 16.1875 9.90036C16.1792 9.6337 16.0833 9.40036 15.9 9.20036C15.7 9.00036 15.4625 8.8962 15.1875 8.88786C14.9125 8.87953 14.675 8.97536 14.475 9.17536L10.95 12.7004Z" fill="black"/>
</g>
</svg>
