<svg width="24" height="24" viewBox="0 0 24 24" fill="none" xmlns="http://www.w3.org/2000/svg">
<mask id="mask0_626_5778" style="mask-type:alpha" maskUnits="userSpaceOnUse" x="0" y="0" width="24" height="24">
<rect width="24" height="24" fill="#D9D9D9"/>
</mask>
<g mask="url(#mask0_626_5778)">
<path d="M16 12.675C15.8833 12.675 15.7708 12.6583 15.6625 12.625C15.5542 12.5917 15.4583 12.5333 15.375 12.45C13.9417 11.15 12.6875 9.89583 11.6125 8.6875C10.5375 7.47917 10 6.35 10 5.3C10 4.36667 10.3167 3.58333 10.95 2.95C11.5833 2.31667 12.3667 2 13.3 2C13.8333 2 14.3333 2.1125 14.8 2.3375C15.2667 2.5625 15.6667 2.86667 16 3.25C16.3333 2.86667 16.7333 2.5625 17.2 2.3375C17.6667 2.1125 18.1667 2 18.7 2C19.6333 2 20.4167 2.31667 21.05 2.95C21.6833 3.58333 22 4.36667 22 5.3C22 6.35 21.4625 7.47917 20.3875 8.6875C19.3125 9.89583 18.0583 11.15 16.625 12.45C16.5417 12.5333 16.4458 12.5917 16.3375 12.625C16.2292 12.6583 16.1167 12.675 16 12.675ZM16 10.3C16.9833 9.36667 17.8958 8.4375 18.7375 7.5125C19.5792 6.5875 20 5.85 20 5.3C20 4.91667 19.8792 4.60417 19.6375 4.3625C19.3958 4.12083 19.0833 4 18.7 4C18.4667 4 18.2458 4.04583 18.0375 4.1375C17.8292 4.22917 17.65 4.36667 17.5 4.55L16 6.35L14.5 4.55C14.35 4.36667 14.1708 4.22917 13.9625 4.1375C13.7542 4.04583 13.5333 4 13.3 4C12.9167 4 12.6042 4.12083 12.3625 4.3625C12.1208 4.60417 12 4.91667 12 5.3C12 5.85 12.4208 6.5875 13.2625 7.5125C14.1042 8.4375 15.0167 9.36667 16 10.3ZM13.95 20.4L19.9 18.55C19.8167 18.4 19.6958 18.2708 19.5375 18.1625C19.3792 18.0542 19.2 18 19 18H13.95C13.5 18 13.1417 17.9833 12.875 17.95C12.6083 17.9167 12.3333 17.85 12.05 17.75L10.625 17.275C10.3583 17.1917 10.1667 17.025 10.05 16.775C9.93333 16.525 9.91667 16.2667 10 16C10.0833 15.7333 10.2458 15.5375 10.4875 15.4125C10.7292 15.2875 10.9833 15.2667 11.25 15.35L12.3 15.7C12.5833 15.7833 12.9042 15.85 13.2625 15.9C13.6208 15.95 14.1083 15.9833 14.725 16H15C15 15.8167 14.9458 15.6417 14.8375 15.475C14.7292 15.3083 14.6 15.2 14.45 15.15L8.6 13H7V18.5L13.95 20.4ZM13.425 22.35L7 20.55C6.86667 20.9833 6.60417 21.3333 6.2125 21.6C5.82083 21.8667 5.41667 22 5 22H3C2.45 22 1.97917 21.8042 1.5875 21.4125C1.19583 21.0208 1 20.55 1 20V13C1 12.45 1.19583 11.9792 1.5875 11.5875C1.97917 11.1958 2.45 11 3 11H8.6C8.71667 11 8.83333 11.0125 8.95 11.0375C9.06667 11.0625 9.175 11.0917 9.275 11.125L15.15 13.3C15.7 13.5 16.1458 13.85 16.4875 14.35C16.8292 14.85 17 15.4 17 16H19C19.8333 16 20.5417 16.275 21.125 16.825C21.7083 17.375 22 18.1 22 19C22 19.3667 21.9042 19.6542 21.7125 19.8625C21.5208 20.0708 21.225 20.2417 20.825 20.375L14.575 22.325C14.3917 22.3917 14.2 22.425 14 22.425C13.8 22.425 13.6083 22.4 13.425 22.35ZM3 20H5V13H3V20Z" fill="#1D8158"/>
</g>
</svg>