<svg width="32" height="32" viewBox="0 0 32 32" fill="none" xmlns="http://www.w3.org/2000/svg">
<mask id="mask0_4362_17409" style="mask-type:alpha" maskUnits="userSpaceOnUse" x="0" y="0" width="32" height="32">
<rect width="32" height="32" fill="#D9D9D9"/>
</mask>
<g mask="url(#mask0_4362_17409)">
<path d="M21.0999 16.3328C20.9665 16.3328 20.839 16.3159 20.7172 16.2821C20.5945 16.2493 20.4776 16.1884 20.3665 16.0995C18.4999 14.4328 16.8999 12.8381 15.5665 11.3155C14.2332 9.7937 13.5665 8.38837 13.5665 7.09948C13.5665 5.98837 13.9501 5.04926 14.7172 4.28215C15.4834 3.51592 16.4221 3.13281 17.5332 3.13281C18.1999 3.13281 18.8443 3.28837 19.4665 3.59948C20.0888 3.91059 20.6332 4.36615 21.0999 4.96615C21.5888 4.36615 22.1385 3.91059 22.7492 3.59948C23.3608 3.28837 23.9999 3.13281 24.6665 3.13281C25.7999 3.13281 26.7443 3.51592 27.4999 4.28215C28.2554 5.04926 28.6332 5.98837 28.6332 7.09948C28.6332 8.38837 27.9665 9.7937 26.6332 11.3155C25.2999 12.8381 23.6999 14.4328 21.8332 16.0995C21.7443 16.1884 21.6332 16.2493 21.4999 16.2821C21.3665 16.3159 21.2332 16.3328 21.0999 16.3328ZM21.0999 13.9995C22.5221 12.7328 23.7999 11.4715 24.9332 10.2155C26.0665 8.96037 26.6332 7.9217 26.6332 7.09948C26.6332 6.5217 26.4496 6.04926 26.0825 5.68215C25.7163 5.31592 25.2443 5.13281 24.6665 5.13281C24.3332 5.13281 23.9888 5.21592 23.6332 5.38215C23.2776 5.54926 22.9332 5.85503 22.5999 6.29948L21.0999 8.09948L19.5999 6.29948C19.2665 5.85503 18.9221 5.54926 18.5665 5.38215C18.211 5.21592 17.8665 5.13281 17.5332 5.13281C16.9554 5.13281 16.4834 5.31592 16.1172 5.68215C15.7501 6.04926 15.5665 6.5217 15.5665 7.09948C15.5665 7.9217 16.1332 8.96037 17.2665 10.2155C18.3999 11.4715 19.6776 12.7328 21.0999 13.9995ZM18.2665 27.1661C18.311 27.1884 18.3501 27.1995 18.3839 27.1995C18.4168 27.1995 18.4554 27.1884 18.4999 27.1661L26.3332 24.7328C26.2665 24.4217 26.1221 24.1884 25.8999 24.0328C25.6776 23.8773 25.4332 23.7995 25.1665 23.7995H18.6665C18.0665 23.7995 17.5665 23.7719 17.1665 23.7168C16.7665 23.6608 16.3443 23.5661 15.8999 23.4328L13.8332 22.7661C13.5443 22.6773 13.3443 22.5053 13.2332 22.2501C13.1221 21.9941 13.111 21.7217 13.1999 21.4328C13.2888 21.1884 13.4554 21.0048 13.6999 20.8821C13.9443 20.7604 14.1999 20.7328 14.4665 20.7995L16.1999 21.4328C16.5999 21.5439 17.0501 21.627 17.5505 21.6821C18.0501 21.7381 18.6999 21.7773 19.4999 21.7995H19.8332C19.8332 21.4661 19.7612 21.1773 19.6172 20.9328C19.4723 20.6884 19.2776 20.5328 19.0332 20.4661L11.2999 17.5995H8.69987V24.4661L18.2665 27.1661ZM17.7332 29.1328L8.69987 26.5328C8.54431 27.0884 8.2332 27.5328 7.76654 27.8661C7.29987 28.1995 6.79987 28.3661 6.26654 28.3661H4.4332C3.76654 28.3661 3.19987 28.127 2.7332 27.6488C2.26654 27.1715 2.0332 26.5995 2.0332 25.9328V17.9995C2.0332 17.3328 2.26654 16.7661 2.7332 16.2995C3.19987 15.8328 3.76654 15.5995 4.4332 15.5995H11.1332C11.2888 15.5995 11.4332 15.6106 11.5665 15.6328C11.6999 15.655 11.8332 15.6884 11.9665 15.7328L19.7332 18.5995C20.3332 18.8217 20.8332 19.2159 21.2332 19.7821C21.6332 20.3493 21.8332 21.0217 21.8332 21.7995H25.1665C26.1221 21.7995 26.9056 22.1053 27.5172 22.7168C28.1279 23.3275 28.4332 24.1328 28.4332 25.1328C28.4332 25.5106 28.3332 25.8164 28.1332 26.0501C27.9332 26.283 27.6221 26.4661 27.1999 26.5995L19.1332 29.0995C18.911 29.1661 18.6776 29.2053 18.4332 29.2168C18.1888 29.2275 17.9554 29.1995 17.7332 29.1328ZM4.0332 25.9328C4.0332 26.0661 4.07231 26.1719 4.15054 26.2501C4.22787 26.3275 4.32209 26.3661 4.4332 26.3661H6.26654C6.39987 26.3661 6.50565 26.3328 6.58387 26.2661C6.6612 26.1995 6.69987 26.0884 6.69987 25.9328V17.5995H4.4332C4.32209 17.5995 4.22787 17.6381 4.15054 17.7155C4.07231 17.7937 4.0332 17.8884 4.0332 17.9995V25.9328Z" fill="#8CE0BE"/>
</g>
</svg>
