<svg width="27" height="27" viewBox="0 0 27 27" fill="none" xmlns="http://www.w3.org/2000/svg">
<path d="M19.0999 13.3328C18.9665 13.3328 18.839 13.3159 18.7172 13.2821C18.5945 13.2493 18.4776 13.1884 18.3665 13.0995C16.4999 11.4328 14.8999 9.83815 13.5665 8.31548C12.2332 6.7937 11.5665 5.38837 11.5665 4.09948C11.5665 2.98837 11.9501 2.04926 12.7172 1.28215C13.4834 0.515924 14.4221 0.132812 15.5332 0.132812C16.1999 0.132812 16.8443 0.288368 17.4665 0.599479C18.0888 0.91059 18.6332 1.36615 19.0999 1.96615C19.5888 1.36615 20.1385 0.91059 20.7492 0.599479C21.3608 0.288368 21.9999 0.132812 22.6665 0.132812C23.7999 0.132812 24.7443 0.515924 25.4999 1.28215C26.2554 2.04926 26.6332 2.98837 26.6332 4.09948C26.6332 5.38837 25.9665 6.7937 24.6332 8.31548C23.2999 9.83815 21.6999 11.4328 19.8332 13.0995C19.7443 13.1884 19.6332 13.2493 19.4999 13.2821C19.3665 13.3159 19.2332 13.3328 19.0999 13.3328ZM19.0999 10.9995C20.5221 9.73281 21.7999 8.47148 22.9332 7.21548C24.0665 5.96037 24.6332 4.9217 24.6332 4.09948C24.6332 3.5217 24.4496 3.04926 24.0825 2.68215C23.7163 2.31592 23.2443 2.13281 22.6665 2.13281C22.3332 2.13281 21.9888 2.21592 21.6332 2.38215C21.2776 2.54926 20.9332 2.85503 20.5999 3.29948L19.0999 5.09948L17.5999 3.29948C17.2665 2.85503 16.9221 2.54926 16.5665 2.38215C16.211 2.21592 15.8665 2.13281 15.5332 2.13281C14.9554 2.13281 14.4834 2.31592 14.1172 2.68215C13.7501 3.04926 13.5665 3.5217 13.5665 4.09948C13.5665 4.9217 14.1332 5.96037 15.2665 7.21548C16.3999 8.47148 17.6776 9.73281 19.0999 10.9995ZM16.2665 24.1661C16.311 24.1884 16.3501 24.1995 16.3839 24.1995C16.4168 24.1995 16.4554 24.1884 16.4999 24.1661L24.3332 21.7328C24.2665 21.4217 24.1221 21.1884 23.8999 21.0328C23.6776 20.8773 23.4332 20.7995 23.1665 20.7995H16.6665C16.0665 20.7995 15.5665 20.7719 15.1665 20.7168C14.7665 20.6608 14.3443 20.5661 13.8999 20.4328L11.8332 19.7661C11.5443 19.6773 11.3443 19.5053 11.2332 19.2501C11.1221 18.9941 11.111 18.7217 11.1999 18.4328C11.2888 18.1884 11.4554 18.0048 11.6999 17.8821C11.9443 17.7604 12.1999 17.7328 12.4665 17.7995L14.1999 18.4328C14.5999 18.5439 15.0501 18.627 15.5505 18.6821C16.0501 18.7381 16.6999 18.7773 17.4999 18.7995H17.8332C17.8332 18.4661 17.7612 18.1773 17.6172 17.9328C17.4723 17.6884 17.2776 17.5328 17.0332 17.4661L9.29987 14.5995H6.69987V21.4661L16.2665 24.1661ZM15.7332 26.1328L6.69987 23.5328C6.54431 24.0884 6.2332 24.5328 5.76654 24.8661C5.29987 25.1995 4.79987 25.3661 4.26654 25.3661H2.4332C1.76654 25.3661 1.19987 25.127 0.733203 24.6488C0.266536 24.1715 0.0332031 23.5995 0.0332031 22.9328V14.9995C0.0332031 14.3328 0.266536 13.7661 0.733203 13.2995C1.19987 12.8328 1.76654 12.5995 2.4332 12.5995H9.1332C9.28876 12.5995 9.4332 12.6106 9.56654 12.6328C9.69987 12.655 9.8332 12.6884 9.96654 12.7328L17.7332 15.5995C18.3332 15.8217 18.8332 16.2159 19.2332 16.7821C19.6332 17.3493 19.8332 18.0217 19.8332 18.7995H23.1665C24.1221 18.7995 24.9056 19.1053 25.5172 19.7168C26.1279 20.3275 26.4332 21.1328 26.4332 22.1328C26.4332 22.5106 26.3332 22.8164 26.1332 23.0501C25.9332 23.283 25.6221 23.4661 25.1999 23.5995L17.1332 26.0995C16.911 26.1661 16.6776 26.2053 16.4332 26.2168C16.1888 26.2275 15.9554 26.1995 15.7332 26.1328ZM2.0332 22.9328C2.0332 23.0661 2.07231 23.1719 2.15054 23.2501C2.22787 23.3275 2.32209 23.3661 2.4332 23.3661H4.26654C4.39987 23.3661 4.50565 23.3328 4.58387 23.2661C4.6612 23.1995 4.69987 23.0884 4.69987 22.9328V14.5995H2.4332C2.32209 14.5995 2.22787 14.6381 2.15054 14.7155C2.07231 14.7937 2.0332 14.8884 2.0332 14.9995V22.9328Z" fill="#FFCE00"/>
</svg>
