<svg width="392" height="224" viewBox="0 0 392 224" fill="none" xmlns="http://www.w3.org/2000/svg">
<g clip-path="url(#clip0_6476_1386)">
<rect width="392" height="224" fill="white"/>
<g style="mix-blend-mode:multiply">
<path d="M360.374 86.1294C355.236 83.3055 347.678 86.4804 345.583 91.7877C343.23 97.8039 345.735 103.566 351.25 106.59C351.346 106.71 353.005 107.659 353.018 107.631C353.648 108.058 354.243 108.442 354.896 108.942C356.582 110.193 358.19 111.547 359.71 112.995C363.99 117.01 371.998 116.095 375.474 111.457C377.299 109.14 378.159 106.208 377.874 103.273C377.589 100.337 376.181 97.6257 373.944 95.7035C369.845 91.9492 365.285 88.732 360.374 86.1294Z" fill="#FF6B70"/>
</g>
<g style="mix-blend-mode:multiply">
<path d="M140.939 30.8929C135.233 32.2405 131.751 39.6624 133.753 45.0059C136.039 51.0476 141.76 53.6448 147.88 52.1938C148.032 52.2183 149.899 51.8107 149.889 51.7809C150.644 51.6758 151.343 51.5618 152.162 51.4955C154.252 51.2938 156.352 51.221 158.451 51.2773C164.319 51.388 169.648 45.3424 169.12 39.5703C168.922 36.6278 167.595 33.8755 165.416 31.888C163.237 29.9005 160.375 28.8314 157.427 28.9038C151.869 28.8645 146.328 29.5329 140.939 30.8929Z" fill="#BCFFDA"/>
</g>
<g style="mix-blend-mode:multiply">
<path d="M369.124 109.846C358.054 119.084 372.371 136.3 383.472 127.062C394.573 117.823 380.282 100.625 369.124 109.846Z" fill="#FFCF00"/>
</g>
<g style="mix-blend-mode:multiply">
<path d="M259.969 66.5873C250.811 77.7232 268.081 91.9752 277.269 80.8328C286.458 69.6903 269.216 55.4514 259.969 66.5873Z" fill="#BCFFDA"/>
</g>
<g style="mix-blend-mode:multiply">
<path d="M278.601 21.143C279.529 18.3299 279.319 15.2653 278.017 12.6048C276.714 9.94428 274.422 7.89901 271.632 6.90642C262.392 3.88505 252.477 3.59991 243.079 6.08535C237.268 7.69683 232.961 12.8734 234.148 19.1692C235.201 24.7314 241.372 29.7266 247.231 28.1009C250.015 27.2886 252.889 26.8269 255.786 26.7264C258.711 26.6837 261.621 27.1522 264.384 28.1107C267.195 29.0107 270.245 28.7879 272.895 27.4891C275.546 26.1902 277.59 23.916 278.601 21.143Z" fill="#FFCF00"/>
</g>
<g clip-path="url(#clip1_6476_1386)">
<path d="M64.8374 63.0352L61.356 61.3343C61.356 61.3343 49.3004 55.8466 50.7069 60.9439C52.1135 66.0411 49.974 71.2079 49.974 71.2079C49.2465 73.4437 56.635 73.7806 58.7907 73.7806C60.9464 73.7806 64.7188 71.6412 65.2577 68.9668C65.7967 66.2925 64.8374 63.0352 64.8374 63.0352Z" fill="#AF5333"/>
<g style="mix-blend-mode:multiply">
<path d="M85.4563 119.164L86.7982 116.452C88.3772 113.243 90.8886 111.007 93.3137 108.83C94.3215 107.932 95.27 107.076 96.1592 106.156C98.0939 104.161 99.1071 102.679 98.9131 100.567L98.7137 98.3577L100.869 98.8605C107.665 100.433 114.342 99.4221 121.348 98.3523L123.412 98.0421C127.034 97.5073 130.418 96.2985 134.04 95.0148C134.848 94.726 135.657 94.4371 136.47 94.159C137.009 92.3191 138.416 88.9334 141.003 87.2058C141.909 86.6043 142.957 86.2446 144.044 86.1612C145.131 86.0778 146.222 86.2736 147.211 86.7297C154.217 89.6233 157.634 97.427 157.774 97.7426L158.313 99.037L134.315 113.28L132.428 113.66C117.77 118.281 104.124 119.838 90.7 118.42C90.2688 118.415 89.8389 118.469 89.4227 118.581C89.1102 118.645 88.7922 118.709 88.4796 118.757L85.4563 119.164ZM91.3844 115.254C104.275 116.559 117.42 115.024 131.555 110.547L133.77 109.847L154.212 97.7693C153.037 95.662 150.267 91.4579 146.009 89.6982C145.57 89.4871 145.088 89.3774 144.6 89.3774C144.112 89.3774 143.63 89.4871 143.191 89.6982C141.035 90.7947 139.725 94.4639 139.418 95.785L139.208 96.6461L138.362 96.935C137.284 97.2933 136.244 97.6677 135.188 98.0475C131.593 99.3258 127.88 100.647 123.94 101.23L121.893 101.535C115.458 102.514 108.824 103.524 102.077 102.38C101.651 104.931 100.045 106.798 98.5035 108.392C97.5335 109.392 96.4933 110.317 95.491 111.221C94.0255 112.454 92.6597 113.799 91.406 115.243L91.3844 115.254Z" fill="#AF5333"/>
</g>
<path d="M189.829 123.651C189.43 124.197 189.171 124.83 189.074 125.497C185.079 123.663 180.955 122.122 176.733 120.886C178.141 119.435 179.474 117.921 180.732 116.345C181.236 115.505 181.562 114.571 181.691 113.601C182.182 107.29 173.322 101.224 169.237 95.9882C168.442 94.9487 167.452 94.0715 166.321 93.4048C164.381 92.3832 162.667 92.0944 161.277 93.5759C161.188 93.6868 161.07 93.7706 160.936 93.8179C160.801 93.8652 160.656 93.874 160.517 93.8434C160.42 93.8915 160.393 93.9717 160.318 93.945C158 90.0084 152.39 88.254 148.041 90.2009C142.609 92.6292 138.928 99.7322 140.529 105.525C139.197 106.279 137.834 107.065 136.616 107.926C134.913 109.066 133.582 110.355 133.744 112.489C134.137 117.303 138.319 123.186 140.954 127.042C144.23 132.085 148.189 136.656 152.719 140.628C157.165 144.479 159.622 140.703 162.754 137.055C165.771 133.627 168.757 130.182 171.802 126.673C172.093 127.103 172.529 127.415 173.031 127.556L185.819 131.562C185.28 135.681 185.086 141.002 189.646 140.51C193.957 140.066 197.163 130.984 197.374 127.422C197.611 123.443 192.858 120.052 189.829 123.651ZM145.713 102.423C145.411 102.578 145.174 102.754 144.883 102.909C144.694 99.8071 146.979 96.0631 149.512 94.6885C151.921 93.4422 154.934 94.1536 156.146 96.2663L145.713 102.423Z" fill="#025B37"/>
<g style="mix-blend-mode:multiply">
<path d="M101.053 102.621C96.2026 85.8632 87.914 67.0145 67.5321 65.2976C66.9395 65.2989 66.3639 65.494 65.8943 65.8527C65.4247 66.2114 65.0874 66.7137 64.9345 67.282C63.695 72.4915 57.9286 74.5347 52.9328 71.8497C49.2466 69.86 46.2825 66.3727 42.0089 69.86C38.1179 73.2457 35.9569 80.0652 34.0114 84.7346C32.6587 87.9438 31.4138 91.2867 30.2389 94.5654C29.2689 97.3574 25.4857 107.557 28.0833 108.098C32.303 108.9 36.4634 109.814 40.6832 110.622C40.4137 116.634 40.0311 122.592 39.7616 128.61C39.4922 133.172 37.9778 138.275 43.2754 140.045C49.7424 142.184 73.4117 145.174 78.7524 143.313C81.1182 142.489 84.7829 139.82 86.8361 139.034C89.3475 138.071 87.9894 130.38 87.8278 122.865C87.72 118.458 88.5284 116.447 91.7188 113.361C94.5858 110.569 97.5067 107.83 100.341 105.14C100.692 104.832 100.945 104.431 101.07 103.984C101.195 103.537 101.188 103.063 101.047 102.621H101.053Z" fill="#FF6B6F"/>
</g>
<path d="M354.711 160.803C345.449 159.406 336.036 159.307 326.746 160.509C316.469 159.284 302.673 162.21 292.622 161.702C292.164 161.702 291.717 161.654 291.269 161.616C282.598 161.873 273.916 161.953 265.256 162.36H265.229C256.913 162.852 249.471 163.306 247.062 163.001C243.349 162.52 215.19 162.6 196.657 162.354C189.263 162.263 183.399 162.114 181.228 161.862H181.201C180.729 161.893 180.255 161.845 179.799 161.718C177.105 161.472 173.726 161.349 170.438 161.279C165.858 161.194 161.471 161.226 159.38 161.252C157.1 161.097 155.025 160.744 152.977 160.857C144.355 161.338 135.84 161.953 128.688 167.746C121.144 173.849 119.661 183.631 125.994 190.141C130.122 194.382 135.694 196.211 141.622 196.682C162.543 198.356 183.496 199.399 204.466 200.244C217.718 200.779 330.416 201.752 345.501 200.089C357.939 198.709 364.772 192.574 367.596 181.369C370.097 171.49 364.815 162.376 354.711 160.803ZM162.565 174.64C159.509 176.919 156.216 175.774 153.123 174.993C150.795 174.399 149.674 172.281 149.841 169.907C150.008 167.532 151.14 165.489 153.791 164.89C154.749 164.743 155.716 164.67 156.685 164.67L156.62 164.841L160.997 165.649C162.262 166.446 163.267 167.591 163.891 168.944C163.519 170.623 163.82 172.479 162.581 173.934C162.603 174.169 162.597 174.406 162.565 174.64Z" fill="#D1FFDB"/>
<path d="M162.581 173.934C162.608 174.169 162.608 174.406 162.581 174.64C159.525 176.919 156.232 175.774 153.139 174.993C150.811 174.399 149.69 172.281 149.857 169.907C150.024 167.532 151.156 165.489 153.807 164.89C154.765 164.743 155.732 164.67 156.701 164.67L156.637 164.841L161.013 165.649C162.278 166.446 163.283 167.591 163.907 168.944C163.497 170.623 163.82 172.479 162.581 173.934Z" fill="#FF6B6F"/>
<path d="M347.048 168.954C349.203 169.42 351.574 169.602 353.482 171.094C355.703 172.848 356.177 175.079 354.975 177.576C353.773 180.074 351.833 181.321 349.015 180.374C347.147 179.771 345.168 179.588 343.221 179.839C340.527 180.139 338.587 179.026 338.069 176.357C337.552 173.688 338.004 171.206 340.839 169.89C342.763 169.013 344.86 168.976 347.048 168.954Z" fill="#FF6B6F"/>
<path d="M300.808 192.809C296.044 192.622 294.217 190.873 294.201 187.247C294.201 183.974 296.443 181.898 300.129 181.722C301.746 181.647 303.309 181.428 304.893 181.47C308.536 181.572 310.282 183.182 310.428 186.455C310.606 189.985 308.994 191.975 305.475 192.414C303.665 192.638 301.827 192.724 300.808 192.809Z" fill="#FF6B6F"/>
<path d="M260.675 180.673C255.911 180.492 254.079 178.737 254.068 175.111C254.068 171.837 256.304 169.762 259.996 169.586C261.586 169.516 263.176 169.291 264.765 169.34C268.408 169.436 270.128 171.046 270.295 174.319C270.478 177.855 268.861 179.839 265.347 180.278C263.526 180.486 261.688 180.572 260.675 180.673Z" fill="#FF6B6F"/>
<path d="M209.127 178.978C215.196 179.283 217.75 182.599 215.708 186.873C214.856 188.654 213.482 190.157 211.466 189.606C207.834 188.622 203.178 192.103 200.478 187.22C200.053 186.444 199.824 185.576 199.811 184.693C199.798 183.809 200.001 182.935 200.402 182.146C200.804 181.358 201.392 180.677 202.117 180.164C202.841 179.65 203.681 179.318 204.563 179.197C206.077 179.018 207.603 178.945 209.127 178.978Z" fill="#FF6B6F"/>
<path d="M182.327 165.066C181.839 165.135 181.343 165.117 180.861 165.013L182.327 165.066Z" fill="#74A1D5"/>
<g style="mix-blend-mode:multiply">
<path d="M108.673 195.794C107.938 195.788 107.231 195.512 106.69 195.018C106.149 194.524 105.812 193.848 105.745 193.121C105.677 192.394 105.885 191.669 106.326 191.086C106.768 190.502 107.412 190.102 108.134 189.964C109.239 189.755 110.08 189.044 111.244 187.343C113.426 184.134 114.774 180.39 115.485 175.442C116.407 169.072 114.31 162.804 109.88 158.669C108 156.877 105.708 155.567 103.202 154.854C100.697 154.14 98.0535 154.043 95.5019 154.572L95.2378 154.615C94.6989 154.674 94.6073 154.855 94.5426 154.995C92.3869 159.605 88.1187 160.675 84.6642 161.092C67.7321 163.187 50.5502 161.955 34.0975 157.466C33.8496 157.401 33.6017 157.321 33.3538 157.246C32.7825 163.007 35.4178 168.077 38.4196 172.757C38.5935 173.009 38.7844 173.248 38.9909 173.474C39.8477 174.469 41.1465 175.967 41.0495 178.341C41.034 178.728 40.9419 179.107 40.7785 179.458C40.6152 179.809 40.3838 180.125 40.0975 180.387C39.8113 180.649 39.4758 180.853 39.1102 180.987C38.7447 181.12 38.3562 181.181 37.9669 181.165C37.5777 181.15 37.1953 181.059 36.8416 180.897C36.488 180.734 36.17 180.505 35.9057 180.221C35.6415 179.937 35.4363 179.604 35.3017 179.241C35.1671 178.878 35.1059 178.492 35.1214 178.106C34.9289 177.824 34.7164 177.556 34.4855 177.304C34.0933 176.874 33.7331 176.416 33.4077 175.935C29.5328 169.923 25.8628 162.59 27.9269 153.78L28.2179 152.534L29.3065 151.86C31.6023 150.555 33.7903 151.224 35.0945 151.63L35.6334 151.796C51.3415 156.079 67.745 157.253 83.9097 155.251C86.9816 154.877 88.3504 154.155 89.1426 152.491C89.6244 151.479 90.3602 150.607 91.2793 149.958C92.1984 149.309 93.2701 148.905 94.3917 148.785C97.8599 148.081 101.448 148.223 104.849 149.198C108.25 150.174 111.361 151.953 113.917 154.385C119.748 159.83 122.539 168.013 121.327 176.277C120.497 182.048 118.794 186.749 116.121 190.649C114.741 192.67 112.704 195.072 109.233 195.741C109.049 195.777 108.861 195.794 108.673 195.794Z" fill="#FFCE00"/>
</g>
<path d="M64.0505 206.54C52.7332 206.54 40.2842 205.058 28.1477 199.907C23.1465 199.185 20.4142 197.607 19.4442 191.558C19.3633 191.023 19.2717 190.542 19.1801 190.028C18.3879 185.578 17.4071 180.042 22.2358 175.384L22.4729 175.18C24.828 173.351 27.5064 173.132 29.6621 172.95H29.7914C31.9471 172.773 32.5884 172.549 33.0249 171.837C33.2188 171.502 33.4773 171.209 33.7857 170.973C34.094 170.737 34.4462 170.563 34.822 170.463C35.1978 170.362 35.59 170.335 35.9761 170.385C36.3621 170.435 36.7346 170.559 37.0722 170.752C37.4098 170.944 37.7059 171.201 37.9435 171.507C38.1812 171.813 38.3558 172.162 38.4574 172.535C38.559 172.908 38.5856 173.297 38.5356 173.681C38.4856 174.064 38.3601 174.433 38.1662 174.769C36.1021 178.336 32.4752 178.636 30.3088 178.817H30.1794C28.3579 178.967 27.1669 179.096 26.2669 179.727C23.9172 182.064 24.2675 184.792 24.995 189.007C25.092 189.541 25.189 190.076 25.2753 190.611C25.7495 193.553 25.8627 193.655 29.3279 194.115L29.7375 194.168L30.1148 194.329C47.3063 201.736 64.9127 201.239 79.8677 199.773C85.2192 199.239 89.9455 197.222 94.9574 195.077C97.3341 194.056 99.8077 193.002 102.335 192.12C102.707 191.973 103.104 191.902 103.504 191.911C103.903 191.92 104.297 192.01 104.661 192.174C105.024 192.338 105.351 192.574 105.621 192.867C105.891 193.159 106.098 193.503 106.23 193.878C106.363 194.252 106.417 194.649 106.391 195.045C106.365 195.441 106.258 195.827 106.078 196.181C105.897 196.535 105.646 196.849 105.34 197.104C105.034 197.359 104.679 197.551 104.297 197.666C101.953 198.484 99.6945 199.453 97.291 200.479C92.0904 202.71 86.712 205.015 80.4444 205.63C75.454 206.144 69.9085 206.54 64.0505 206.54Z" fill="#FFCE00"/>
<g style="mix-blend-mode:multiply">
<path d="M103.99 198.725C100.923 199.019 99.5382 197.987 100.832 194.815C102.395 190.986 102.513 186.996 102.567 182.915C102.686 174.33 99.2418 168.109 91.212 164.526C89.6275 163.82 87.4395 162.959 88.5174 160.723C89.5952 158.487 91.4868 159.204 93.4269 160.145C103.575 165.098 109.594 176.587 107.617 187.568C107.396 188.803 107.336 190.066 107.196 191.312C105.833 193.639 106.097 196.719 103.99 198.725Z" fill="#FA7203"/>
</g>
<g style="mix-blend-mode:multiply">
<path d="M23.3137 175.544C22.3383 179.251 22.3706 183.032 22.3975 186.776C22.4245 191.173 24.1059 194.655 28.9562 196.521C25.5933 198.008 20.0694 210.899 18.1239 209.931C15.9682 208.861 12.2443 205.716 12.627 203.587C13.7048 197.597 14.2437 186.407 16.7874 180.727C17.3376 179.381 18.2265 178.198 19.3692 177.29C20.5118 176.383 21.87 175.782 23.3137 175.544Z" fill="#FA7203"/>
</g>
<g style="mix-blend-mode:multiply">
<path d="M31.4622 174.448C37.0292 172.308 42.2082 173.913 47.2633 176.17C48.3411 176.64 50.5668 176.603 49.7153 178.748C48.9123 180.764 47.0477 182.492 44.9836 181.641C41.7178 180.283 38.398 179.898 34.9867 179.529C32.2921 179.24 30.961 177.63 31.1011 174.897C31.1277 174.802 31.1733 174.713 31.2354 174.636C31.2974 174.558 31.3746 174.494 31.4622 174.448Z" fill="#FA7203"/>
</g>
<g style="mix-blend-mode:multiply">
<path d="M80.218 157.466C78.9446 157.379 77.6885 157.124 76.4833 156.706C61.8992 157.739 47.2426 156.43 33.0788 152.828C31.1818 152.336 29.1878 151.732 27.5657 150.245C20.6891 143.827 20.646 135.916 21.3735 129.744C21.7454 126.572 22.5322 121.186 23.5292 116.452C25.1837 108.429 26.3585 106.953 28.0723 106.942H28.11C30.228 106.942 38.8399 108.087 40.8662 110.151C41.0908 110.364 41.2678 110.621 41.3857 110.905C41.5036 111.19 41.5598 111.496 41.5506 111.804C41.459 114.361 41.2488 117.153 41.0494 119.854C40.78 123.443 40.5105 127.16 40.4782 130.482C40.4606 131.135 40.403 131.787 40.3057 132.434C40.1333 133.734 40.0524 134.573 40.4512 135.205L40.559 135.402C41.5452 137.611 44.8111 138.237 47.6997 138.793C48.9133 138.99 50.1097 139.279 51.2781 139.66C55.9667 141.382 73.7726 142.035 78.6767 141.323C78.8198 141.203 78.971 141.092 79.1294 140.992C79.7276 140.623 80.342 140.206 80.9941 139.767C83.209 138.264 85.7204 136.558 88.5012 136.157C89.0482 136.079 89.6057 136.123 90.1334 136.286C90.661 136.448 91.1455 136.726 91.5515 137.098C91.8651 137.406 92.1015 137.783 92.2419 138.198C92.3823 138.613 92.4227 139.055 92.3599 139.489C92.2633 140.282 92.1157 141.068 91.9179 141.842H92.0042C92.4784 141.842 92.9688 141.778 93.4808 141.73C93.9066 141.687 94.3323 141.644 94.758 141.623H94.9736C96.016 141.478 97.0784 141.605 98.0562 141.992C100.724 143.308 99.3658 146.453 98.8592 147.64L98.7514 147.886C98.123 149.438 97.2093 150.86 96.0568 152.08C95.3313 152.81 94.5037 153.433 93.5994 153.93C91.8048 155 89.4928 155.786 86.3617 156.364L86.0384 156.444C84.1519 156.939 82.2264 157.274 80.2827 157.444L80.218 157.466ZM77.7013 153.748C78.4828 153.984 79.2808 154.163 80.0887 154.283C81.8305 154.124 83.5557 153.82 85.2461 153.374L85.7258 153.256C88.4904 152.753 90.4736 152.101 91.9665 151.202C92.626 150.847 93.2289 150.396 93.7557 149.865C94.626 148.929 95.3147 147.841 95.7874 146.656L95.9059 146.378C96.1395 145.877 96.3201 145.354 96.4449 144.816C96.0324 144.781 95.6178 144.781 95.2054 144.816H94.9736C94.5856 144.816 94.1976 144.875 93.8149 144.912C93.276 144.966 92.7371 145.019 92.1335 145.041C91.1819 145.089 90.2289 144.977 89.315 144.709L87.6551 144.174L88.2964 142.57C88.7048 141.524 88.987 140.434 89.1371 139.323C89.0804 139.31 89.0214 139.31 88.9647 139.323C86.9168 139.623 84.8258 141.035 82.8102 142.404C82.1581 142.848 81.4791 143.302 80.827 143.709L80.4605 144.244L79.8085 144.388C75.163 145.346 55.5571 144.666 50.1679 142.677C49.1632 142.36 48.1366 142.117 47.0961 141.949C43.647 141.286 39.3572 140.468 37.6596 136.809C36.695 135.205 36.9159 133.514 37.1207 132.027C37.1981 131.508 37.2467 130.985 37.2662 130.46C37.2662 127.032 37.5734 123.266 37.8429 119.619C38.0369 117.024 38.2201 114.559 38.3225 112.221C36.8567 111.387 31.4082 110.285 28.6543 110.162C27.4417 112.302 25.5448 122.288 24.6232 130.107C23.6585 138.28 25.2106 143.602 29.813 147.892C30.8908 148.87 32.3082 149.298 33.9303 149.715C47.8786 153.256 62.3144 154.52 76.6719 153.459L77.4157 153.406L77.7013 153.748Z" fill="#AF5333"/>
</g>
<path d="M71.73 35.9282C71.73 35.9282 74.4246 52.2202 66.1307 63.1368C63.4361 66.7097 43.1997 64.2921 41.2542 45.5932C38.6566 20.5241 69.6821 18.6414 71.73 35.9282Z" fill="#AF5333"/>
<path d="M70.7385 22.1875C69.0162 22.0464 67.3046 22.563 65.9529 23.6316V23.5086C66.08 22.0104 65.7002 20.5129 64.8737 19.2528C64.0471 17.9928 62.821 17.0422 61.3891 16.5513C59.9571 16.0604 58.4012 16.0573 56.9673 16.5423C55.5334 17.0274 54.3033 17.973 53.4716 19.2297C52.7081 17.6855 51.3804 16.4882 49.7586 15.8816C48.1369 15.2749 46.3432 15.3046 44.7427 15.9645C43.1423 16.6244 41.8554 17.865 41.1442 19.4335C40.433 21.0021 40.351 22.7807 40.9148 24.4072C39.8062 24.4593 38.7273 24.7799 37.7722 25.341C36.8171 25.902 36.0149 26.6865 35.4356 27.6261C34.8562 28.5656 34.5173 29.6315 34.4485 30.7309C34.3796 31.8303 34.5829 32.9297 35.0406 33.9331C34.4998 34.5078 34.1695 35.2463 34.1028 36.0298C34.0564 36.5675 34.1342 37.1086 34.3303 37.6119C34.5264 38.1152 34.8357 38.5674 35.2346 38.9341C34.6612 39.164 34.1578 39.5376 33.7736 40.0184C33.3893 40.4992 33.1373 41.0707 33.0423 41.6771C32.9472 42.2835 33.0124 42.904 33.2313 43.4779C33.4503 44.0518 33.8156 44.5595 34.2915 44.9514C33.7392 45.3969 33.3336 45.996 33.1266 46.6718C32.9196 47.3476 32.9207 48.0694 33.1297 48.7446C33.3387 49.4198 33.7462 50.0176 34.2998 50.4615C34.8534 50.9054 35.5279 51.1751 36.237 51.236H36.2747C36.243 51.3808 36.2197 51.5272 36.2046 51.6746C36.1389 52.3751 36.2843 53.0792 36.6223 53.6975C36.9603 54.3159 37.4758 54.8207 38.1032 55.1479C38.7307 55.4751 39.442 55.61 40.1468 55.5354C40.8517 55.4609 41.5183 55.1802 42.0622 54.7291C42.6062 54.278 43.0028 53.6768 43.202 53.0016C43.4011 52.3264 43.3937 51.6078 43.1807 50.9368C42.9677 50.2658 42.5587 49.6727 42.0057 49.2327C41.4526 48.7927 40.7803 48.5257 40.0741 48.4654H40.0363C40.0608 48.3203 40.0769 48.1738 40.0848 48.0268C40.1332 47.458 40.0429 46.8859 39.8215 46.359C39.6001 45.8321 39.2542 45.3658 38.813 44.9995C39.0231 44.8311 39.2146 44.6411 39.3842 44.4325C39.5878 44.1767 39.7547 43.8941 39.88 43.5928H40.0471C40.988 43.6717 41.9222 43.3788 42.6467 42.7779C43.3713 42.177 43.8276 41.3166 43.9165 40.3836C43.9587 39.9996 43.9387 39.6114 43.8573 39.2337C44.5484 40.3657 45.5593 41.2713 46.7646 41.838C47.9699 42.4047 49.3163 42.6075 50.6367 42.4212C51.9571 42.2348 53.1933 41.6676 54.1916 40.79C55.19 39.9124 55.9066 38.763 56.2524 37.4846C56.795 38.9215 57.814 40.1324 59.1419 40.9183C60.4697 41.7043 62.0275 42.0185 63.5591 41.8095C65.0908 41.6004 66.5052 40.8804 67.57 39.7679C68.6348 38.6553 69.2865 37.2164 69.4182 35.6875V35.634C69.4882 35.634 69.5529 35.6608 69.623 35.6661C71.3961 35.7676 73.1391 35.1783 74.4811 34.0237C75.8231 32.869 76.658 31.2402 76.8083 29.4838C76.9586 27.7274 76.4123 25.9822 75.2857 24.6195C74.1592 23.2568 72.5412 22.3842 70.7762 22.1875H70.7385ZM43.0004 37.6986L43.1243 37.6665C43.1492 37.7627 43.1798 37.8574 43.216 37.95C43.1459 37.8644 43.0758 37.7521 43.0004 37.6719V37.6986Z" fill="#28241C"/>
<g style="mix-blend-mode:multiply">
<path d="M204.536 134.022L212.9 135.13C213.74 135.242 214.554 134.311 214.517 133.525C214.504 133.103 214.33 132.702 214.029 132.404C213.729 132.105 213.325 131.933 212.9 131.92L204.536 130.813C203.695 130.701 202.881 131.632 202.919 132.418C202.932 132.839 203.107 133.24 203.407 133.538C203.708 133.836 204.111 134.009 204.536 134.022Z" fill="#00DA93"/>
</g>
<g style="mix-blend-mode:multiply">
<path d="M201.399 139.521C202.622 140.058 203.809 140.669 204.956 141.35C205.527 141.687 206.093 142.045 206.643 142.42C206.923 142.607 207.182 142.794 207.462 142.992L207.866 143.286C207.926 143.329 208.368 143.666 208.039 143.415C208.35 143.703 208.756 143.871 209.181 143.885C209.609 143.88 210.018 143.712 210.324 143.415C210.863 142.837 211.035 141.692 210.324 141.142C208.082 139.389 205.634 137.914 203.032 136.75C202.659 136.546 202.221 136.492 201.808 136.599C201.396 136.707 201.041 136.968 200.817 137.328C200.445 138.023 200.575 139.157 201.399 139.521Z" fill="#00DA93"/>
</g>
<g style="mix-blend-mode:multiply">
<path d="M196.528 141.992C197.393 144.731 198.112 147.506 198.683 150.32C198.798 150.73 199.072 151.078 199.444 151.287C199.817 151.497 200.259 151.551 200.672 151.438C201.08 151.317 201.426 151.044 201.637 150.676C201.848 150.309 201.907 149.874 201.804 149.464C201.211 146.658 200.483 143.882 199.621 141.136C199.507 140.726 199.233 140.377 198.859 140.167C198.486 139.956 198.043 139.902 197.63 140.016C197.216 140.129 196.864 140.401 196.653 140.772C196.441 141.142 196.386 141.581 196.501 141.992H196.528Z" fill="#00DA93"/>
</g>
<path d="M64.266 23.6423C62.991 22.2882 61.3183 21.3674 59.4858 21.0108C57.7235 20.6845 55.4547 20.7113 54.0966 22.0377C53.3529 22.7598 54.4954 23.8937 55.2391 23.1717C56.2146 22.2249 58.1062 22.3426 59.3295 22.6368C60.7891 22.949 62.1182 23.6953 63.1397 24.7763C63.8349 25.5625 64.972 24.4018 64.266 23.6423Z" fill="#443E34"/>
<path d="M55.5679 33.2967C55.4968 33.1075 55.3569 32.9516 55.1757 32.8598C54.9945 32.7679 54.7852 32.7467 54.5891 32.8004C54.393 32.8541 54.2242 32.9788 54.1161 33.1499C54.008 33.3209 53.9684 33.5259 54.0051 33.7246C54.1937 34.4466 53.547 35.1794 53.0458 35.6287C52.6096 36.0226 52.0944 36.3207 51.534 36.5033C50.9737 36.6859 50.3808 36.749 49.7941 36.6884C49.2075 36.6278 48.6404 36.4449 48.1299 36.1517C47.6195 35.8585 47.1772 35.4615 46.8321 34.9868C46.6805 34.8366 46.475 34.7522 46.2608 34.7522C46.0466 34.7522 45.8411 34.8366 45.6896 34.9868C45.5432 35.1399 45.4617 35.3428 45.4617 35.5538C45.4617 35.7648 45.5432 35.9677 45.6896 36.1207C46.3824 36.9814 47.3078 37.6286 48.3576 37.9866C49.4073 38.3447 50.5381 38.3987 51.6177 38.1425C53.6386 37.6451 56.1715 35.6126 55.5679 33.2967Z" fill="#443E34"/>
<path d="M41.6046 27.012C41.5432 26.8126 41.4077 26.6437 41.2257 26.5394C41.0437 26.4352 40.8285 26.4034 40.6238 26.4504C39.2819 26.6804 38.4681 27.9106 37.9669 29.0713C37.4536 30.3725 37.3264 31.7923 37.6005 33.163C37.6651 33.3625 37.8049 33.5295 37.9907 33.6292C38.1765 33.7288 38.3938 33.7534 38.5975 33.6978C38.8007 33.6368 38.9727 33.5008 39.078 33.3177C39.1832 33.1346 39.2138 32.9184 39.1633 32.7137C38.9768 31.6884 39.0775 30.632 39.4543 29.6596C39.5311 29.4544 39.6248 29.2558 39.7346 29.0659C39.7905 28.963 39.8516 28.8631 39.9178 28.7664C39.9563 28.6997 40.0015 28.637 40.0525 28.5792C40.1841 28.4258 40.3343 28.2893 40.4998 28.1727C40.6581 28.0595 40.8444 27.9911 41.0388 27.9748C41.2389 27.9161 41.4089 27.7837 41.5141 27.6048C41.6192 27.4259 41.6516 27.2139 41.6046 27.012Z" fill="#443E34"/>
<g style="mix-blend-mode:multiply">
<path d="M68.4912 41.8277C65.9852 40.5868 63.1882 41.3624 60.8493 42.5177C60.6852 42.5945 60.5393 42.705 60.4213 42.8419C60.3033 42.9788 60.216 43.139 60.1651 43.3119C60.1141 43.4848 60.1007 43.6665 60.1258 43.8449C60.1509 44.0233 60.2138 44.1944 60.3104 44.3469C60.5379 44.6579 60.8702 44.8775 61.247 44.9658C61.6238 45.0542 62.0201 45.0054 62.3637 44.8283C62.7409 44.6411 63.1236 44.4646 63.517 44.2934C63.5655 44.2934 63.8565 44.1704 63.5978 44.2614L63.8511 44.1758C64.0613 44.1062 64.2769 44.0421 64.4924 43.9886C64.708 43.9351 64.8858 43.9137 65.0798 43.8709H65.1122H65.1499H65.484C65.6511 43.8709 65.8182 43.8709 65.9852 43.8709C65.9466 43.9492 65.9124 44.0295 65.8828 44.1116C65.8713 44.1484 65.8623 44.1859 65.8559 44.2239C65.8256 44.3739 65.8057 44.5258 65.7966 44.6786C65.813 44.8724 65.8399 45.0653 65.8774 45.2562C65.9252 45.3948 65.981 45.5305 66.0445 45.6627L66.1092 45.775C66.1948 45.9003 66.2884 46.02 66.3894 46.1334C66.4172 46.1663 66.4479 46.1967 66.481 46.2243C66.5942 46.3206 66.7128 46.4115 66.8313 46.4971C66.8679 46.5205 66.9056 46.5419 66.9445 46.5613C67.0846 46.6308 67.2301 46.6896 67.3703 46.7431L67.4942 46.7859C67.6524 46.8195 67.8126 46.8428 67.9738 46.8555C68.0222 46.8608 68.071 46.8608 68.1193 46.8555C68.3385 46.8509 68.5545 46.8037 68.7553 46.7164C68.8037 46.719 68.8523 46.719 68.9008 46.7164L69.1271 46.6148C69.2177 46.5856 69.306 46.5499 69.3912 46.5078L69.4936 46.4436H69.5529C69.8846 46.335 70.1695 46.1182 70.3613 45.8285C70.3592 45.8125 70.3592 45.7964 70.3613 45.7804C70.6031 45.4755 70.7341 45.0986 70.7331 44.7106C70.7385 43.4965 69.6068 42.3786 68.4912 41.8277Z" fill="#781B0A"/>
</g>
<g style="mix-blend-mode:multiply">
<path d="M68.1786 58.232C68.0757 57.8956 67.8469 57.6111 67.5392 57.437C67.2314 57.2629 66.8682 57.2125 66.5241 57.296C66.4433 57.296 65.9852 57.4297 66.3625 57.3281C66.2257 57.3541 66.0867 57.3666 65.9475 57.3656C65.705 57.3656 65.4571 57.3656 65.2146 57.3656C64.9347 57.3808 64.6541 57.361 64.3792 57.3067H64.5301L64.3361 57.3121C64.2014 57.3121 64.0613 57.2639 63.9265 57.2318C63.6894 57.1837 63.4523 57.1195 63.2206 57.05L62.8218 56.9163L62.6331 56.8521C62.1551 56.6564 61.7012 56.407 61.2805 56.1086C60.9711 55.9326 60.6044 55.8845 60.2595 55.9746C59.9147 56.0646 59.6194 56.2857 59.4374 56.59C59.2669 56.8986 59.2222 57.2603 59.3125 57.6006C59.4027 57.9409 59.621 58.2339 59.9224 58.4192C62.0866 59.8252 64.7146 60.3465 67.2571 59.8741C67.5974 59.7757 67.8851 59.5482 68.0576 59.2409C68.2301 58.9335 68.2736 58.571 68.1786 58.232Z" fill="#781B0A"/>
</g>
<g style="mix-blend-mode:multiply">
<path d="M72.9589 51.8405C72.9171 50.6531 72.7692 49.4718 72.517 48.3104C72.4213 47.9682 72.1929 47.6776 71.8819 47.5022C71.5708 47.3267 71.2023 47.2808 70.8572 47.3744C70.5177 47.4753 70.2306 47.7024 70.0559 48.0084C69.8812 48.3144 69.8323 48.6755 69.9194 49.0164C70.0111 49.4443 70.0811 49.8722 70.1458 50.3054C70.2105 50.7387 70.2374 51.1024 70.259 51.5089H69.9572C69.5998 51.5089 69.2571 51.6497 69.0045 51.9005C68.7518 52.1513 68.6099 52.4914 68.6099 52.846C68.6099 53.2007 68.7518 53.5408 69.0045 53.7915C69.2571 54.0423 69.5998 54.1832 69.9572 54.1832C70.5633 54.2361 71.1737 54.2109 71.7733 54.1083C72.0528 54.03 72.306 53.8784 72.5061 53.6695C72.7061 53.4605 72.8458 53.202 72.9104 52.9209C72.9701 52.564 72.9864 52.2013 72.9589 51.8405Z" fill="#781B0A"/>
</g>
<path d="M42.2904 50.7644C44.0366 50.4716 45.1306 48.3452 44.7339 46.0151C44.3372 43.6849 42.6001 42.0333 40.8539 42.3261C39.1077 42.619 38.0137 44.7453 38.4104 47.0754C38.8071 49.4056 40.5442 51.0572 42.2904 50.7644Z" fill="#AF5333"/>
<g style="mix-blend-mode:multiply">
<path d="M90.2528 140.933C90.0665 140.829 89.8472 140.801 89.6405 140.854C89.4337 140.907 89.2554 141.036 89.1426 141.216C89.0133 141.42 88.8786 141.618 88.7331 141.815C88.7331 141.815 88.7331 141.815 88.7331 141.842L88.6199 141.981L88.3828 142.254C88.0612 142.614 87.7116 142.949 87.3372 143.254L87.2241 143.34C87.2163 143.352 87.205 143.361 87.1917 143.367H87.1594L86.863 143.575C86.6744 143.704 86.4804 143.827 86.2864 143.944C86.0923 144.062 85.8606 144.18 85.645 144.281L85.3163 144.431H85.284L85.0792 144.506C84.8719 144.563 84.6959 144.699 84.5898 144.884C84.4836 145.07 84.4562 145.29 84.5133 145.495C84.5705 145.701 84.7077 145.876 84.8946 145.981C85.0816 146.086 85.3031 146.114 85.5103 146.057C87.6001 145.275 89.3778 143.841 90.5762 141.971C90.6606 141.788 90.6744 141.582 90.6147 141.39C90.555 141.199 90.4261 141.036 90.2528 140.933Z" fill="#781B0A"/>
</g>
<g style="mix-blend-mode:multiply">
<path d="M85.8929 98.47C85.1424 104.398 84.9728 110.385 85.3863 116.345C85.5803 119.084 89.8917 118.934 89.6976 116.179C89.2886 110.603 89.4222 105 90.0964 99.4488C90.436 96.7424 86.2432 95.7422 85.8929 98.47Z" fill="#912547"/>
</g>
<g style="mix-blend-mode:multiply">
<path d="M41.7663 136.6C39.0987 136.568 38.3226 135.231 38.5328 132.669C39.1903 124.855 39.6538 117.024 40.1927 109.205C40.4568 106.423 40.7316 103.647 40.9795 100.866C41.1466 98.962 42.0088 97.6141 44.0837 97.8174C46.0453 98.0099 46.4226 99.5557 46.2932 101.219C45.4956 111.596 44.6765 121.972 43.8897 132.348C43.7657 134.108 43.2376 135.557 41.7663 136.6Z" fill="#912547"/>
</g>
<g style="mix-blend-mode:multiply">
<path d="M144.204 91.6397C141.585 94.0199 138.993 96.6033 138.168 100.155C137.699 102.166 140.819 103.022 141.288 101.005C141.983 98.0046 144.279 95.9133 146.489 93.9076C148.03 92.5116 145.74 90.2491 144.204 91.6397Z" fill="#781B0A"/>
</g>
<g style="mix-blend-mode:multiply">
<path d="M250.263 116.869C250.525 116.868 250.78 116.952 250.99 117.108C251.199 117.265 251.351 117.485 251.422 117.736C252.931 123.79 253.243 129.829 250.673 135.654C248.38 140.793 245.288 145.543 241.511 149.731C240.907 154.291 240.653 158.89 240.751 163.488C240.751 163.488 240.751 163.536 240.751 163.563C241.503 161.796 242.416 160.1 243.478 158.498C243.432 158.347 243.405 158.19 243.397 158.033C243.322 147.731 255.173 143.891 262.884 140.425C263.07 140.346 263.27 140.304 263.472 140.302C263.627 140.295 263.781 140.318 263.926 140.372C264.072 140.426 264.204 140.508 264.317 140.614C264.429 140.72 264.518 140.847 264.58 140.989C264.641 141.13 264.673 141.282 264.674 141.436C264.755 144.096 264.235 146.74 263.152 149.175C262.068 151.609 260.448 153.771 258.411 155.503C256.442 157.15 254.131 158.347 251.643 159.006C250.378 159.387 249.067 159.599 247.746 159.637C247.066 159.646 246.388 159.552 245.736 159.359C244.265 161.557 242.282 163.579 240.859 165.826C241.031 168.783 241.301 172.121 241.398 173.217C241.398 173.453 241.608 174.795 241.425 174.945C241.086 175.153 240.689 175.247 240.293 175.212C239.797 175.212 239.301 175.143 239.07 175.143C238.838 175.143 238.622 172.019 238.531 168.88C237.143 167.564 235.954 166.056 235.001 164.403C234.92 164.365 234.845 164.248 234.764 164.167C233.931 164.326 233.084 164.407 232.236 164.408C224.19 164.408 217.394 157.225 216.236 149.432C216.192 149.261 216.188 149.082 216.223 148.908C216.259 148.735 216.333 148.572 216.441 148.431C216.548 148.29 216.687 148.176 216.845 148.095C217.004 148.015 217.179 147.971 217.357 147.966C218.014 147.966 218.682 147.966 219.351 147.966C224.319 147.966 229.418 148.501 233.427 151.652C236.962 154.438 238.671 159.07 237.038 163.28C237.732 164.443 238.275 165.688 238.655 166.986C238.655 166.986 238.444 164.194 238.412 162.541C238.288 158.258 238.432 153.971 238.843 149.705L238.806 149.662C238.649 149.572 238.524 149.435 238.45 149.271C232.112 137.151 239.355 124.063 249.724 117.024C249.883 116.917 250.071 116.86 250.263 116.859M250.263 113.649C249.42 113.646 248.595 113.896 247.897 114.366C241.942 118.415 237.307 123.994 234.839 130.027C232.29 136.28 232.193 142.596 234.537 148.442C229.811 145.18 224.233 144.698 219.345 144.698C218.725 144.698 218.079 144.698 217.308 144.698C216.687 144.703 216.075 144.84 215.511 145.099C214.948 145.358 214.447 145.734 214.042 146.201C213.621 146.703 213.313 147.289 213.139 147.919C212.966 148.55 212.93 149.209 213.034 149.854C213.762 154.506 215.991 158.797 219.388 162.081C223.021 165.617 227.585 167.564 232.231 167.564C232.543 167.564 232.861 167.564 233.174 167.564C233.832 168.486 234.552 169.364 235.33 170.19C235.373 171.484 235.427 172.559 235.491 173.399C235.545 174.127 235.604 174.683 235.674 175.111C236.17 178.069 238.423 178.32 239.005 178.32H239.194C239.474 178.347 239.856 178.379 240.271 178.379C241.437 178.431 242.584 178.068 243.505 177.357C244.982 176.122 244.782 174.394 244.626 173.003V172.886C244.556 172.051 244.335 169.324 244.168 166.671C244.707 165.906 245.332 165.141 245.979 164.344C246.388 163.836 246.803 163.322 247.207 162.793C247.391 162.793 247.574 162.793 247.746 162.793C249.356 162.762 250.953 162.512 252.494 162.049C255.432 161.278 258.165 159.88 260.502 157.952C262.905 155.912 264.817 153.364 266.1 150.495C267.382 147.626 268.001 144.509 267.913 141.371C267.89 140.222 267.411 139.128 266.581 138.327C265.751 137.526 264.635 137.082 263.477 137.093C262.837 137.092 262.204 137.223 261.618 137.478H261.586C260.772 137.841 259.915 138.21 258.999 138.601C256.196 139.748 253.461 141.051 250.807 142.505C251.881 140.696 252.84 138.822 253.68 136.895C256.245 131.086 256.541 124.748 254.601 116.96C254.362 116.006 253.807 115.16 253.025 114.557C252.244 113.953 251.28 113.628 250.29 113.633L250.263 113.649Z" fill="#00DA93"/>
</g>
<path d="M236.408 162.044C233.297 156.204 228.161 151.68 221.948 149.309C220.553 148.774 219.927 151.004 221.318 151.545C226.959 153.747 231.603 157.908 234.387 163.253C235.093 164.52 237.119 163.349 236.408 162.044Z" fill="#025B2F"/>
<path d="M246.302 121.571C241.405 129.602 238.686 138.754 238.407 148.138C238.369 149.641 240.703 149.641 240.74 148.138C241.017 139.163 243.633 130.413 248.334 122.742C249.104 121.453 247.078 120.303 246.297 121.571H246.302Z" fill="#025B2F"/>
<path d="M260.47 142.762C258.686 145.741 256.073 147.945 253.427 150.143C250.419 152.657 247.357 155.093 244.238 157.45C243.085 158.343 244.238 160.349 245.397 159.455C248.673 156.981 251.893 154.429 255.054 151.801C257.819 149.48 260.589 147.089 262.454 143.971C263.256 142.666 261.236 141.495 260.47 142.762Z" fill="#025B2F"/>
</g>
</g>
<defs>
<clipPath id="clip0_6476_1386">
<rect width="392" height="224" fill="white"/>
</clipPath>
<clipPath id="clip1_6476_1386">
<rect width="355.6" height="194.6" fill="white" transform="translate(12.6001 15.4)"/>
</clipPath>
</defs>
</svg>
