<svg width="280" height="160" viewBox="0 0 280 160" fill="none" xmlns="http://www.w3.org/2000/svg">
<g clip-path="url(#clip0_5718_35435)">
<rect width="280" height="160" fill="white"/>
<path d="M171.899 30.8027C171.849 30.0127 171.709 29.2427 171.589 28.5027C171.519 28.1127 171.459 27.7427 171.399 27.3827C171.295 26.7065 171.144 26.0383 170.949 25.3827C170.859 25.0127 170.759 24.6727 170.689 24.3227C170.689 24.1927 170.689 24.0626 170.609 23.9426C170.544 23.5787 170.461 23.2182 170.359 22.8626C170.216 22.4338 170.049 22.0131 169.859 21.6027C169.769 21.4127 169.679 21.2327 169.619 21.0627C169.255 20.3723 169.142 19.5771 169.299 18.8127C169.563 18.2465 169.666 17.6188 169.597 16.9981C169.528 16.3773 169.29 15.7874 168.909 15.2927C169.272 14.717 169.443 14.0415 169.399 13.3627C169.352 12.9098 169.202 12.4737 168.961 12.0874C168.72 11.701 168.395 11.3745 168.009 11.1327L167.859 11.0227C167.874 10.9102 167.901 10.7996 167.939 10.6927C167.939 10.6927 168.009 10.5627 168.039 10.4927C168.306 10.0557 168.467 9.56267 168.509 9.05265C168.509 9.05265 168.509 8.97265 168.509 8.92265C168.616 8.2258 168.463 7.51387 168.079 6.92265C167.503 6.25998 166.701 5.83571 165.829 5.73265C165.596 5.71949 165.362 5.71949 165.129 5.73265H164.899C163.279 5.53265 162.629 3.55265 162.589 2.26265C162.546 1.85252 162.349 1.47395 162.038 1.2032C161.727 0.93246 161.325 0.789677 160.913 0.803626C160.501 0.817576 160.109 0.98722 159.817 1.27838C159.525 1.56953 159.354 1.96055 159.339 2.37265C159.376 3.8227 159.812 5.23454 160.599 6.45265C161.028 7.13099 161.601 7.7072 162.276 8.14081C162.951 8.57442 163.714 8.85493 164.509 8.96265C164.739 8.96265 164.939 8.96265 165.109 8.96265C164.977 9.18723 164.87 9.42525 164.789 9.67265C164.592 10.1538 164.505 10.6728 164.535 11.1919C164.564 11.7109 164.709 12.2168 164.959 12.6727C165.227 13.0655 165.566 13.4046 165.959 13.6727V13.6727C165.954 13.6991 165.954 13.7262 165.959 13.7527C165.853 13.9173 165.757 14.0876 165.669 14.2627C165.405 14.7424 165.277 15.2854 165.299 15.8327C165.321 16.1572 165.424 16.4711 165.598 16.7454C165.773 17.0198 166.014 17.2458 166.299 17.4027C165.529 19.0727 166.129 21.1127 166.569 22.2027C166.669 22.4527 166.769 22.6827 166.879 22.9027C167.01 23.1669 167.121 23.4411 167.209 23.7227C167.279 23.9527 167.329 24.2227 167.389 24.5027L167.479 24.9426C167.569 25.3626 167.679 25.7627 167.779 26.1627C167.941 26.6932 168.064 27.2346 168.149 27.7826C168.209 28.1926 168.279 28.6027 168.349 29.0027C168.419 29.4027 168.469 29.7127 168.519 30.0527C166.79 30.6199 165.353 31.8448 164.519 33.4627C163.981 34.3643 163.809 35.4381 164.039 36.4627C164.121 36.825 164.324 37.1484 164.615 37.3794C164.906 37.6103 165.268 37.735 165.639 37.7327C165.788 37.7317 165.936 37.7116 166.079 37.6726C166.493 37.556 166.845 37.2802 167.056 36.9055C167.268 36.5309 167.323 36.0877 167.209 35.6726C167.221 35.4783 167.279 35.2896 167.379 35.1227C167.919 34.1827 168.839 33.1227 169.829 33.1227H169.989C170.118 33.141 170.25 33.141 170.379 33.1227C170.764 33.1131 171.133 32.9686 171.421 32.7145C171.71 32.4604 171.901 32.1129 171.959 31.7327C171.965 31.6294 171.965 31.5259 171.959 31.4227C171.981 31.2141 171.961 31.0032 171.899 30.8027V30.8027ZM159.109 1.36265C159.076 1.1519 159.002 0.949759 158.89 0.76797C158.779 0.586181 158.632 0.428368 158.459 0.303696C158.286 0.179025 158.09 0.0899794 157.882 0.0417329C157.675 -0.00651365 157.459 -0.013 157.249 0.0226508C154.619 0.452651 151.909 0.762651 149.249 1.07265C147.249 1.31265 145.249 1.55265 143.249 1.83265C135.479 2.95265 127.619 4.38265 120.249 5.77265C118.199 6.15265 116.109 6.59265 114.089 7.00265C109.609 7.93265 104.969 8.88265 100.409 9.43265C100.085 9.47215 99.7804 9.608 99.5345 9.82261C99.2886 10.0372 99.1128 10.3207 99.0299 10.6364C98.9469 10.952 98.9606 11.2853 99.0692 11.5931C99.1778 11.9009 99.3764 12.169 99.6391 12.3627H99.5191C99.0987 12.3649 98.6955 12.5296 98.3936 12.8221C98.0917 13.1147 97.9145 13.5126 97.8991 13.9327C97.917 14.4688 97.7743 14.998 97.4892 15.4524C97.2041 15.9068 96.7896 16.2656 96.2991 16.4827C96.0053 16.612 95.7212 16.7624 95.4491 16.9327C95.3042 17.0249 95.1539 17.1083 94.9991 17.1827C94.5793 17.4339 94.2177 17.7717 93.9384 18.1734C93.6591 18.5751 93.4684 19.0316 93.3791 19.5127C93.1798 20.1644 93.1798 20.8609 93.3791 21.5127C93.5673 21.9758 93.85 22.3947 94.2091 22.7427V22.7427L94.0791 22.9327C93.8893 23.2104 93.7252 23.505 93.5891 23.8127C93.3802 24.3082 93.239 24.8295 93.1691 25.3626C93.0938 25.8979 93.1768 26.4434 93.4078 26.9321C93.6388 27.4207 94.0077 27.8311 94.4691 28.1126L94.5591 28.1926C94.1955 28.8379 94.0221 29.5729 94.0591 30.3127C94.0591 30.3827 94.0591 30.5127 94.0591 30.6227C93.9348 31.4157 94.0753 32.2276 94.4591 32.9327C94.9448 33.5386 95.2591 34.2638 95.3691 35.0326C95.4756 36.6393 95.7131 38.2346 96.0791 39.8027C96.2069 40.3649 96.4338 40.8999 96.7491 41.3827C96.7832 41.5439 96.8033 41.7079 96.8091 41.8727C96.8091 42.0327 96.8091 42.2027 96.8691 42.3727C96.9175 42.782 97.066 43.1731 97.3014 43.5115C97.5369 43.8498 97.852 44.125 98.2191 44.3127C98.5724 44.4585 98.9416 44.5625 99.3191 44.6227C99.4454 44.6384 99.5696 44.6686 99.6891 44.7127C100.267 44.9459 100.796 45.285 101.249 45.7127C101.514 46.0524 101.902 46.2736 102.329 46.3279C102.756 46.3822 103.188 46.2653 103.529 46.0027C103.869 45.738 104.09 45.3497 104.144 44.9225C104.199 44.4953 104.082 44.0639 103.819 43.7227C103.075 42.8501 102.137 42.1649 101.079 41.7227C100.763 41.5674 100.426 41.4596 100.079 41.4026C100.055 40.7266 99.8476 40.0699 99.4791 39.5027C99.3875 39.34 99.3201 39.1648 99.2791 38.9827C98.9553 37.5818 98.7446 36.1572 98.6491 34.7227C98.5212 33.4763 98.0657 32.286 97.3291 31.2727C97.3191 31.1195 97.3191 30.9658 97.3291 30.8127C97.3291 30.6327 97.3291 30.4527 97.3291 30.2627C97.301 30.0011 97.3685 29.7383 97.5191 29.5227C97.7181 29.1949 97.8502 28.831 97.9076 28.4518C97.9651 28.0727 97.9468 27.686 97.8538 27.314C97.7608 26.942 97.5949 26.5921 97.3658 26.2846C97.1367 25.9772 96.8489 25.7182 96.5191 25.5227V25.5227C96.5585 25.3661 96.6086 25.2124 96.6691 25.0627C96.7361 24.9462 96.813 24.8358 96.8991 24.7327C97.2107 24.3428 97.4301 23.8876 97.5409 23.401C97.6518 22.9144 97.6511 22.409 97.5391 21.9227C97.3644 21.3859 97.0585 20.9012 96.6491 20.5127C96.6277 20.4812 96.6006 20.454 96.5691 20.4327V20.2727C96.5691 20.2027 96.6391 20.0727 96.6891 19.9627L97.1591 19.6926C97.3074 19.6005 97.461 19.517 97.6191 19.4426C98.6827 18.984 99.5882 18.223 100.223 17.254C100.858 16.2851 101.194 15.151 101.189 13.9927C101.2 13.7305 101.145 13.4699 101.03 13.2342C100.915 12.9985 100.742 12.7952 100.529 12.6427C100.652 12.6576 100.776 12.6576 100.899 12.6427C105.489 12.0927 110.069 11.1527 114.519 10.2327L114.839 10.1727L117.709 9.58265L120.899 8.96265C128.189 7.58265 135.999 6.15265 143.709 5.05265C145.709 4.77265 147.709 4.54265 149.629 4.30265C152.279 3.99265 155.029 3.67265 157.729 3.22265C157.943 3.19469 158.15 3.12387 158.336 3.0144C158.523 2.90493 158.685 2.75907 158.814 2.58549C158.943 2.41192 159.035 2.2142 159.086 2.00411C159.137 1.79402 159.144 1.57586 159.109 1.36265V1.36265ZM164.249 39.0027C164.201 38.573 163.985 38.1799 163.647 37.9099C163.31 37.6398 162.879 37.5149 162.449 37.5627C155.449 38.3427 147.449 39.2326 139.649 40.2426C134.369 40.9426 128.979 41.7927 123.549 42.8027L120.359 43.4026C118.266 43.8093 116.172 44.2393 114.079 44.6926C112.989 44.9326 111.889 45.1927 110.829 45.4527C108.779 45.9427 106.659 46.4527 104.599 46.7527C104.196 46.8161 103.831 47.0287 103.577 47.3482C103.323 47.6677 103.198 48.071 103.227 48.4782C103.256 48.8855 103.436 49.2671 103.733 49.5475C104.03 49.8279 104.421 49.9868 104.829 49.9926H105.069C107.279 49.6626 109.469 49.1427 111.579 48.6327C112.579 48.3827 113.709 48.1227 114.769 47.8927C123.299 46.0527 131.769 44.5726 140.069 43.4926C147.819 42.4926 155.779 41.5927 162.809 40.8127C163.023 40.7891 163.23 40.7234 163.418 40.6195C163.606 40.5156 163.772 40.3755 163.906 40.2073C164.04 40.0391 164.139 39.846 164.198 39.6393C164.257 39.4325 164.274 39.2162 164.249 39.0027V39.0027Z" fill="#8CE0BE"/>
<path d="M117.289 17.0925C116.923 17.095 116.567 16.9724 116.279 16.7452C115.992 16.5179 115.791 16.1995 115.709 15.8425C115.599 15.4125 115.499 14.9825 115.389 14.5625C114.93 12.9234 114.596 11.252 114.389 9.5625C114.373 9.14645 114.516 8.73998 114.79 8.42648C115.064 8.11297 115.448 7.91621 115.862 7.87655C116.277 7.8369 116.691 7.95736 117.019 8.21321C117.348 8.46907 117.566 8.84093 117.629 9.2525C117.815 10.7862 118.116 12.3038 118.529 13.7925C118.629 14.2225 118.739 14.6625 118.849 15.1125C118.904 15.3234 118.916 15.5431 118.885 15.7588C118.854 15.9745 118.779 16.1817 118.666 16.3681C118.554 16.5546 118.405 16.7165 118.228 16.8444C118.052 16.9723 117.851 17.0634 117.639 17.1125C117.522 17.1191 117.404 17.1124 117.289 17.0925Z" fill="#F2A9C3"/>
<path d="M118.899 27.1523C118.519 27.151 118.151 27.0161 117.861 26.7711C117.57 26.5261 117.375 26.1867 117.309 25.8123C117.249 25.4723 117.179 25.1223 117.109 24.8123C116.849 23.6747 116.685 22.5173 116.619 21.3523C116.61 21.1396 116.644 20.9272 116.717 20.7274C116.791 20.5276 116.903 20.3442 117.048 20.1878C117.339 19.8718 117.744 19.6846 118.174 19.6673C118.604 19.6501 119.023 19.8042 119.339 20.0958C119.655 20.3875 119.842 20.7927 119.859 21.2223C119.924 22.2326 120.072 23.2358 120.299 24.2223C120.366 24.569 120.436 24.929 120.509 25.3023C120.585 25.7265 120.49 26.1635 120.244 26.5177C119.999 26.8719 119.623 27.1144 119.199 27.1923C119.098 27.1889 118.997 27.1755 118.899 27.1523Z" fill="#F2A9C3"/>
<path d="M120.659 36.9726C120.278 36.9717 119.909 36.8371 119.616 36.5923C119.324 36.3474 119.127 36.0079 119.059 35.6326C118.999 35.2926 118.929 34.9426 118.859 34.6326C118.599 33.495 118.435 32.3376 118.369 31.1726C118.345 30.9503 118.368 30.7256 118.435 30.5123C118.501 30.299 118.612 30.1017 118.758 29.9328C118.904 29.7638 119.084 29.6268 119.285 29.5302C119.487 29.4336 119.706 29.3795 119.93 29.3712C120.153 29.363 120.376 29.4008 120.584 29.4822C120.792 29.5637 120.981 29.6871 121.14 29.8448C121.298 30.0025 121.422 30.1911 121.505 30.3989C121.587 30.6067 121.626 30.8292 121.619 31.0526C121.68 32.0627 121.824 33.066 122.049 34.0526L122.259 35.1326C122.335 35.5568 122.24 35.9938 121.994 36.348C121.749 36.7022 121.373 36.9447 120.949 37.0226L120.659 36.9726Z" fill="#F2A9C3"/>
<path d="M122.139 45.6423C121.763 45.6442 121.397 45.5143 121.107 45.2749C120.816 45.0356 120.619 44.7021 120.549 44.3323L120.369 43.4623C120.081 42.258 119.907 41.0292 119.849 39.7923C119.841 39.3617 120.004 38.9454 120.301 38.6344C120.599 38.3233 121.008 38.1428 121.439 38.1323V38.1323C121.653 38.127 121.867 38.1643 122.067 38.2421C122.266 38.3199 122.449 38.4366 122.603 38.5854C122.758 38.7343 122.881 38.9123 122.966 39.1092C123.051 39.3061 123.096 39.5179 123.099 39.7323C123.158 40.7702 123.309 41.8008 123.549 42.8123C123.619 43.1023 123.679 43.4023 123.739 43.7123C123.781 43.9219 123.781 44.1376 123.74 44.3473C123.698 44.5569 123.615 44.7562 123.497 44.9338C123.378 45.1113 123.225 45.2636 123.047 45.3817C122.868 45.4999 122.669 45.5817 122.459 45.6223C122.353 45.6389 122.246 45.6456 122.139 45.6423Z" fill="#F2A9C3"/>
<path d="M148.169 22.9226C146.269 22.6326 145.319 22.5126 143.419 22.3526C143.265 22.3301 143.123 22.2601 143.012 22.1524C142.9 22.0447 142.826 21.9048 142.798 21.7524C142.771 21.6 142.791 21.4428 142.858 21.3029C142.924 21.163 143.033 21.0475 143.169 20.9726C144.839 19.9726 145.669 19.5026 147.349 18.6426C147.417 18.6069 147.477 18.558 147.526 18.4988C147.575 18.4396 147.612 18.3713 147.634 18.2978C147.656 18.2243 147.664 18.1471 147.656 18.0707C147.648 17.9943 147.625 17.9201 147.589 17.8526C147.359 17.4426 147.259 17.2526 147.039 16.8526C146.964 16.7174 146.841 16.6159 146.694 16.5694C146.547 16.5228 146.387 16.5347 146.249 16.6026C144.559 17.4926 143.739 17.9826 142.069 18.9926C141.938 19.0788 141.783 19.1188 141.627 19.1064C141.471 19.0939 141.324 19.0296 141.209 18.9238C141.094 18.8179 141.018 18.6766 140.992 18.5223C140.967 18.3681 140.994 18.2098 141.069 18.0726C141.879 16.2826 142.289 15.3926 143.069 13.6326C143.102 13.5646 143.121 13.4906 143.125 13.415C143.129 13.3394 143.117 13.2638 143.091 13.1927C143.065 13.1217 143.025 13.0567 142.973 13.0017C142.921 12.9467 142.858 12.9028 142.789 12.8726L141.789 12.4026C141.718 12.3719 141.642 12.3558 141.565 12.3554C141.488 12.3549 141.411 12.3701 141.34 12.4C141.269 12.4299 141.205 12.4739 141.151 12.5294C141.098 12.5848 141.056 12.6506 141.029 12.7226C140.219 14.5126 139.809 15.4026 139.029 17.2326C138.978 17.3797 138.882 17.5065 138.753 17.5941C138.625 17.6817 138.472 17.7254 138.316 17.7187C138.161 17.7119 138.012 17.6551 137.892 17.5567C137.771 17.4582 137.686 17.3235 137.649 17.1726C137.309 15.2926 137.119 14.3526 136.769 12.4626C136.756 12.3892 136.729 12.3192 136.687 12.2575C136.645 12.1957 136.591 12.1437 136.527 12.1048C136.464 12.0659 136.393 12.0411 136.319 12.0321C136.245 12.0231 136.17 12.0301 136.099 12.0526C135.659 12.1826 135.429 12.2526 134.999 12.4026C134.848 12.4528 134.72 12.5546 134.638 12.6901C134.556 12.8256 134.524 12.986 134.549 13.1426C135.882 20.0826 137.189 27.0193 138.469 33.9526C138.481 34.0247 138.508 34.0934 138.549 34.1537C138.591 34.214 138.645 34.2645 138.708 34.3017C138.771 34.3389 138.841 34.3618 138.914 34.3689C138.986 34.3759 139.06 34.367 139.129 34.3426C139.569 34.2126 139.789 34.1326 140.239 34.0126C140.391 33.9724 140.523 33.8755 140.606 33.7417C140.69 33.608 140.719 33.4474 140.689 33.2926C140.339 31.4126 140.159 30.4726 139.799 28.5826C139.755 28.4275 139.76 28.2625 139.814 28.1105C139.867 27.9584 139.967 27.8268 140.098 27.7336C140.23 27.6404 140.387 27.5902 140.548 27.5901C140.71 27.5899 140.867 27.6397 140.999 27.7326C142.369 28.9426 143.069 29.5626 144.459 30.8226C144.514 30.8751 144.58 30.9154 144.652 30.941C144.724 30.9666 144.801 30.9769 144.877 30.9712C144.953 30.9656 145.027 30.9441 145.095 30.9082C145.162 30.8723 145.221 30.8227 145.269 30.7626L146.049 29.9026C146.103 29.8503 146.147 29.7875 146.177 29.7179C146.207 29.6483 146.222 29.5733 146.222 29.4976C146.222 29.4219 146.207 29.347 146.177 29.2774C146.147 29.2078 146.103 29.1449 146.049 29.0926C144.669 27.8026 143.959 27.1726 142.579 25.9226C142.468 25.8134 142.393 25.6728 142.364 25.5196C142.336 25.3664 142.355 25.2082 142.419 25.0664C142.484 24.9245 142.59 24.8058 142.724 24.7265C142.858 24.6471 143.013 24.6109 143.169 24.6226C145.059 24.7726 145.999 24.8726 147.909 25.1426C147.983 25.1554 148.059 25.153 148.133 25.1355C148.206 25.1181 148.275 25.086 148.336 25.0412C148.397 24.9963 148.448 24.9397 148.486 24.8746C148.524 24.8096 148.549 24.7375 148.559 24.6626C148.629 24.2026 148.649 23.9926 148.709 23.5226C148.707 23.374 148.652 23.231 148.552 23.1205C148.453 23.01 148.316 22.9397 148.169 22.9226Z" fill="#00DA93"/>
<path d="M140.589 99.6122C140.296 99.3464 139.957 99.1363 139.589 98.9922L136.739 97.9022C136.635 97.811 136.525 97.7274 136.409 97.6522C133.359 95.6522 130.409 93.1922 126.719 93.2622C123.363 93.3751 120.094 94.3646 117.239 96.1322C116.873 96.3409 116.575 96.6497 116.379 97.0222L115.379 97.7322C114.475 98.1605 113.531 98.4955 112.559 98.7322C109.699 99.3922 110.739 103.622 113.449 103.382C113.85 103.628 114.32 103.736 114.788 103.689C115.256 103.642 115.695 103.443 116.039 103.122C116.339 102.852 116.649 102.592 116.959 102.332C117.566 102.083 118.16 101.802 118.739 101.492C120.349 100.642 122.149 100.215 123.969 100.252C125.701 100.16 127.431 100.475 129.019 101.172C130.663 102.024 132.376 102.737 134.139 103.302C134.336 103.347 134.537 103.374 134.739 103.382C136.531 104.214 138.543 104.449 140.479 104.052C142.839 103.632 142.409 100.382 140.589 99.6122Z" fill="#FF6B6F"/>
<g style="mix-blend-mode:multiply">
<path d="M113.159 114.272C112.935 114.274 112.713 114.227 112.509 114.134C112.305 114.04 112.124 113.903 111.979 113.732C111.742 113.439 111.462 113.183 111.149 112.972C110.828 112.854 110.491 112.784 110.149 112.762C109.803 112.669 109.501 112.457 109.295 112.164C109.09 111.871 108.993 111.515 109.023 111.158C109.053 110.801 109.207 110.466 109.458 110.211C109.71 109.956 110.043 109.797 110.399 109.762C111.127 109.81 111.84 109.982 112.509 110.272C113.204 110.671 113.821 111.193 114.329 111.812C114.52 112.034 114.642 112.306 114.682 112.595C114.721 112.885 114.677 113.18 114.554 113.444C114.43 113.709 114.233 113.933 113.986 114.089C113.738 114.244 113.451 114.325 113.159 114.322V114.272Z" fill="#C8522D"/>
</g>
<g style="mix-blend-mode:multiply">
<path d="M112.899 109.602C112.633 109.6 112.372 109.531 112.139 109.402C112.139 109.402 111.399 108.982 110.889 108.752C110.379 108.522 109.679 108.262 109.419 108.172C109.213 108.12 109.021 108.026 108.854 107.896C108.687 107.765 108.548 107.602 108.448 107.415C108.347 107.228 108.286 107.023 108.27 106.811C108.253 106.6 108.28 106.388 108.349 106.187C108.419 105.987 108.529 105.803 108.674 105.648C108.818 105.493 108.993 105.369 109.187 105.285C109.382 105.201 109.592 105.158 109.804 105.159C110.016 105.16 110.225 105.206 110.419 105.292C110.469 105.292 111.489 105.682 112.119 105.962C112.749 106.242 113.569 106.712 113.609 106.732C113.907 106.897 114.142 107.156 114.276 107.468C114.411 107.781 114.437 108.13 114.351 108.459C114.265 108.789 114.071 109.08 113.801 109.287C113.531 109.494 113.199 109.605 112.859 109.602H112.899Z" fill="#C8522D"/>
</g>
<g style="mix-blend-mode:multiply">
<path d="M115.419 108.932C115.183 108.933 114.95 108.878 114.739 108.772C114.558 108.684 114.396 108.561 114.263 108.41C114.13 108.259 114.028 108.083 113.963 107.892C113.898 107.702 113.872 107.501 113.885 107.3C113.897 107.099 113.95 106.903 114.039 106.722C115.369 104.032 121.039 100.722 126.619 101.812C128.202 102.125 129.763 102.546 131.289 103.072C133.479 103.792 134.479 104.072 137.689 103.182C139.792 102.518 142.066 102.65 144.079 103.552C143.838 102.841 143.436 102.194 142.906 101.661C142.375 101.129 141.73 100.726 141.019 100.482C138.339 99.6923 136.849 98.6023 136.439 97.1423C136.316 96.7028 136.309 96.2392 136.418 95.7962C136.526 95.3531 136.747 94.9454 137.059 94.6123C137.333 94.3142 137.715 94.1373 138.12 94.1205C138.525 94.1036 138.92 94.2481 139.219 94.5223C139.475 94.7618 139.642 95.0805 139.695 95.427C139.748 95.7735 139.682 96.1276 139.509 96.4323C140.214 96.9731 141.03 97.3521 141.899 97.5423C146.759 98.9623 147.899 104.542 147.899 107.322C147.894 107.651 147.784 107.97 147.584 108.231C147.384 108.492 147.105 108.682 146.789 108.772C146.473 108.86 146.137 108.846 145.829 108.731C145.522 108.616 145.259 108.406 145.079 108.132C144.351 107.154 143.331 106.433 142.166 106.073C141.001 105.713 139.751 105.734 138.599 106.132C134.469 107.322 132.849 106.792 130.389 105.982C128.976 105.497 127.533 105.107 126.069 104.812C121.819 103.972 117.519 106.702 116.839 108.072C116.712 108.339 116.51 108.562 116.257 108.715C116.005 108.868 115.714 108.943 115.419 108.932V108.932Z" fill="#C8522D"/>
</g>
<g style="mix-blend-mode:multiply">
<path d="M114.899 99.7326C114.656 99.7343 114.417 99.6786 114.2 99.5702C113.983 99.4618 113.795 99.3037 113.651 99.1087C113.506 98.9138 113.41 98.6876 113.37 98.4484C113.33 98.2093 113.347 97.9641 113.419 97.7326C114.079 95.4726 117.159 90.9126 124.099 89.8726C127.679 89.3326 128.819 88.5726 129.099 88.2726C128.932 87.9013 128.919 87.4789 129.064 87.0982C129.208 86.7175 129.498 86.4097 129.869 86.2426C130.24 86.0756 130.663 86.0628 131.043 86.2072C131.424 86.3516 131.732 86.6413 131.899 87.0126C132.126 87.371 132.257 87.7812 132.282 88.2045C132.306 88.6279 132.223 89.0505 132.039 89.4326C131.269 91.1226 128.819 92.2626 124.549 92.9026C118.949 93.7426 116.739 97.2926 116.369 98.5926C116.282 98.917 116.091 99.2039 115.826 99.4097C115.56 99.6155 115.235 99.7289 114.899 99.7326Z" fill="#C8522D"/>
</g>
<g style="mix-blend-mode:multiply">
<path d="M132.189 95.3024C131.71 95.3043 131.232 95.2709 130.759 95.2024C130.411 95.0859 130.117 94.8494 129.928 94.5354C129.74 94.2214 129.669 93.8505 129.729 93.4891C129.79 93.1278 129.977 92.7998 130.257 92.564C130.537 92.3281 130.892 92.1999 131.259 92.2024C132.846 92.3231 134.439 92.0897 135.925 91.5189C137.411 90.9482 138.751 90.0545 139.849 88.9024C139.99 88.7586 140.158 88.644 140.343 88.5652C140.529 88.4863 140.728 88.4448 140.93 88.4429C141.131 88.4411 141.331 88.4789 141.518 88.5543C141.705 88.6297 141.875 88.7412 142.019 88.8824C142.162 89.0235 142.277 89.1916 142.356 89.3771C142.435 89.5625 142.476 89.7617 142.478 89.9632C142.48 90.1647 142.442 90.3646 142.367 90.5515C142.291 90.7384 142.18 90.9086 142.039 91.0524C140.757 92.3735 139.227 93.429 137.537 94.1583C135.847 94.8875 134.029 95.2763 132.189 95.3024V95.3024Z" fill="#C8522D"/>
</g>
<g style="mix-blend-mode:multiply">
<path d="M108.109 107.462C107.873 107.463 107.64 107.408 107.429 107.302C107.122 107.134 106.852 106.906 106.636 106.631C106.419 106.356 106.261 106.04 106.169 105.702C105.735 104.15 105.899 102.49 106.629 101.052C108.309 97.8025 112.429 97.3325 114.629 97.5625C114.977 97.6609 115.28 97.8796 115.482 98.1798C115.684 98.4801 115.774 98.8423 115.734 99.2022C115.694 99.562 115.529 99.8962 115.266 100.145C115.003 100.394 114.661 100.542 114.299 100.562C113.299 100.442 110.299 100.562 109.379 102.412C109.026 103.118 108.93 103.924 109.109 104.692C109.375 104.915 109.559 105.219 109.632 105.558C109.704 105.897 109.661 106.251 109.509 106.562C109.387 106.832 109.191 107.06 108.942 107.219C108.694 107.379 108.404 107.464 108.109 107.462Z" fill="#C8522D"/>
</g>
<path d="M115.659 126.813C115.51 126.812 115.362 126.792 115.219 126.753C112.359 125.923 109.419 122.823 108.399 119.553C107.819 117.713 107.319 115.193 108.169 113.693C108.333 113.399 108.557 113.143 108.825 112.939C109.094 112.736 109.401 112.591 109.729 112.513C110.095 112.426 110.48 112.475 110.814 112.65C111.147 112.825 111.405 113.114 111.542 113.465C111.678 113.816 111.683 114.204 111.556 114.559C111.429 114.913 111.177 115.209 110.849 115.393C110.822 116.493 111.002 117.588 111.379 118.623C112.079 120.873 114.239 123.213 116.089 123.753C116.451 123.856 116.763 124.087 116.968 124.402C117.173 124.718 117.257 125.097 117.205 125.47C117.153 125.842 116.967 126.184 116.683 126.43C116.399 126.677 116.035 126.813 115.659 126.813V126.813Z" fill="#FF9661"/>
<path d="M161.479 158.483C161.426 161.62 161.654 164.756 162.159 167.853C162.619 170.853 163.219 173.943 163.739 177.023C164.799 183.813 165.809 190.613 166.669 197.483H107.519C107.099 191.136 106.765 184.803 106.519 178.483C106.385 174.709 106.282 170.943 106.209 167.183V165.433C93.7987 156.913 87.7387 142.233 87.2887 127.253C86.9887 119.193 87.7387 108.473 91.1487 100.863C91.6262 99.7115 92.3732 98.6919 93.3268 97.8896C94.2805 97.0874 95.4129 96.5259 96.6287 96.2526C98.1067 95.8876 99.6269 95.7228 101.149 95.7626C103.091 95.8055 105.03 95.9457 106.959 96.1826C108.109 96.2926 109.209 96.4026 110.219 96.4526H110.449C110.793 96.4964 111.129 96.5873 111.449 96.7226C111.87 96.8844 112.252 97.1339 112.569 97.4546C112.886 97.7753 113.132 98.1598 113.289 98.5826C113.346 98.7405 113.383 98.9052 113.399 99.0726C113.424 99.2551 113.424 99.4402 113.399 99.6226C113.289 100.723 113.149 102.003 113.019 103.423C112.889 104.843 112.759 106.323 112.659 107.933C112.569 109.253 112.499 110.633 112.449 112.043C112.336 115.006 112.373 117.973 112.559 120.933C112.659 122.563 112.829 124.173 113.069 125.743C113.495 129.267 114.556 132.685 116.199 135.833C118.809 140.423 123.059 143.103 129.829 141.913C131.124 141.687 132.394 141.332 133.619 140.853C149.109 134.783 148.029 110.613 149.509 96.9626C149.56 96.2688 149.799 95.6018 150.199 95.0326C150.514 94.561 150.957 94.1886 151.476 93.9585C151.994 93.7284 152.567 93.6501 153.129 93.7326C153.529 93.7895 153.917 93.9111 154.279 94.0926C155.069 94.4826 155.879 94.8526 156.699 95.1826C159.839 96.4921 163.131 97.3993 166.499 97.8826L167.149 97.9726C167.697 98.1145 168.196 98.401 168.596 98.8021C168.995 99.2032 169.279 99.7041 169.419 100.253C171.789 108.606 172.328 117.372 170.999 125.953C169.569 134.703 165.249 142.233 162.759 150.443C161.967 153.052 161.536 155.757 161.479 158.483Z" fill="#00DA93"/>
<path d="M128.559 127.033C127.903 127.041 127.25 126.936 126.629 126.723C126.374 126.628 126.168 126.437 126.054 126.19C125.941 125.944 125.93 125.662 126.024 125.408C126.118 125.153 126.31 124.946 126.556 124.833C126.803 124.719 127.084 124.708 127.339 124.803C128.064 125.028 128.837 125.055 129.576 124.879C130.315 124.703 130.993 124.331 131.539 123.803C131.731 123.613 131.991 123.507 132.261 123.509C132.531 123.511 132.789 123.62 132.979 123.813C133.169 124.005 133.274 124.265 133.272 124.535C133.27 124.805 133.161 125.063 132.969 125.253C132.388 125.825 131.699 126.277 130.942 126.583C130.185 126.888 129.375 127.041 128.559 127.033V127.033Z" fill="#781B0A"/>
<path d="M129.029 119.422C128.809 119.433 128.593 119.371 128.412 119.247C128.231 119.122 128.097 118.941 128.029 118.732C126.779 115.052 124.689 113.062 122.439 113.402C121.918 113.437 121.423 113.638 121.027 113.977C120.63 114.316 120.354 114.774 120.239 115.282C120.231 115.547 120.118 115.799 119.925 115.981C119.731 116.162 119.474 116.26 119.209 116.252C118.944 116.244 118.692 116.131 118.51 115.938C118.329 115.745 118.231 115.487 118.239 115.222C118.354 114.228 118.807 113.304 119.523 112.605C120.238 111.906 121.173 111.474 122.169 111.382C123.409 111.192 127.629 111.122 130.009 118.072C130.054 118.199 130.073 118.333 130.065 118.467C130.057 118.602 130.023 118.733 129.963 118.853C129.903 118.974 129.82 119.081 129.718 119.168C129.616 119.256 129.497 119.322 129.369 119.362C129.26 119.402 129.145 119.422 129.029 119.422Z" fill="#781B0A"/>
<path d="M130.669 113.042C130.51 113.044 130.353 113.01 130.209 112.942C130.087 112.885 129.977 112.803 129.888 112.703C129.798 112.602 129.729 112.484 129.686 112.356C129.643 112.228 129.627 112.092 129.637 111.958C129.648 111.823 129.686 111.692 129.749 111.572C130.051 110.946 130.479 110.39 131.008 109.939C131.536 109.488 132.153 109.152 132.819 108.952C133.467 108.808 134.139 108.811 134.786 108.96C135.433 109.108 136.039 109.4 136.559 109.812C136.671 109.888 136.766 109.984 136.84 110.097C136.913 110.21 136.963 110.337 136.986 110.469C137.01 110.602 137.006 110.738 136.975 110.869C136.945 111 136.888 111.124 136.809 111.232C136.734 111.346 136.637 111.442 136.523 111.517C136.409 111.591 136.282 111.642 136.148 111.665C136.014 111.688 135.877 111.684 135.745 111.653C135.612 111.621 135.488 111.563 135.379 111.482C135.097 111.245 134.766 111.073 134.41 110.978C134.054 110.883 133.682 110.867 133.319 110.932C132.94 111.062 132.591 111.265 132.292 111.532C131.993 111.798 131.751 112.121 131.579 112.482C131.496 112.652 131.366 112.795 131.205 112.894C131.044 112.993 130.858 113.045 130.669 113.042Z" fill="#781B0A"/>
<path d="M134.309 113.733C133.894 113.742 133.486 113.622 133.141 113.389C132.797 113.156 132.534 112.822 132.389 112.433C132.287 112.181 132.235 111.911 132.238 111.639C132.24 111.367 132.297 111.098 132.404 110.848C132.511 110.598 132.666 110.372 132.861 110.182C133.056 109.992 133.286 109.843 133.539 109.743V109.743C133.92 109.588 134.338 109.549 134.741 109.633C135.143 109.717 135.512 109.918 135.799 110.212C136.087 110.506 136.28 110.879 136.355 111.284C136.43 111.688 136.383 112.105 136.219 112.483C136.114 112.733 135.96 112.961 135.766 113.151C135.572 113.342 135.342 113.492 135.089 113.593C134.84 113.689 134.576 113.736 134.309 113.733ZM134.309 111.633C134.309 111.633 134.319 111.653 134.299 111.663L134.309 111.633Z" fill="#781B0A"/>
<path d="M122.899 116.462C122.62 116.46 122.345 116.402 122.089 116.292C121.713 116.133 121.392 115.866 121.167 115.526C120.941 115.185 120.821 114.786 120.821 114.377C120.821 113.969 120.941 113.569 121.167 113.229C121.392 112.888 121.713 112.622 122.089 112.462V112.462C122.59 112.299 123.135 112.333 123.612 112.556C124.09 112.779 124.465 113.175 124.662 113.664C124.859 114.152 124.862 114.698 124.673 115.19C124.483 115.681 124.113 116.083 123.639 116.312C123.403 116.407 123.153 116.458 122.899 116.462V116.462ZM122.899 114.362V114.362V114.362Z" fill="#781B0A"/>
<path d="M112.299 152.992C107.489 160.452 104.219 169.222 106.459 178.142C107.039 180.482 110.659 179.492 110.069 177.142C108.069 169.212 111.289 161.472 115.539 154.882C116.899 152.842 113.599 150.962 112.299 152.992Z" fill="#025B37"/>
<path d="M160.579 156.233C159.298 153.012 157.829 149.87 156.179 146.823C155.039 144.703 151.799 146.593 152.949 148.713C154.445 151.473 155.78 154.318 156.949 157.233C158.089 160.073 159.559 163.233 159.339 166.343C159.159 168.743 162.909 168.733 163.079 166.343C163.349 162.853 161.899 159.413 160.579 156.233Z" fill="#025B37"/>
<g style="mix-blend-mode:multiply">
<path d="M143.459 106.442C143.326 106.045 143.041 105.716 142.666 105.528C142.291 105.341 141.857 105.31 141.459 105.442C141.061 105.575 140.732 105.86 140.545 106.235C140.357 106.61 140.326 107.045 140.459 107.442C142.559 113.812 141.289 123.252 137.549 128.952C136.239 130.952 133.999 133.432 130.839 133.722C123.109 134.432 118.939 127.312 117.569 124.972L117.189 124.352C117.036 124.111 116.817 123.918 116.559 123.796C116.3 123.674 116.013 123.627 115.729 123.662C115.479 123.684 115.239 123.767 115.029 123.902C114.684 124.131 114.444 124.486 114.362 124.891C114.279 125.296 114.361 125.718 114.589 126.062L114.879 126.552C114.909 126.597 114.936 126.644 114.959 126.692C116.007 128.488 117.248 130.165 118.659 131.692C118.46 131.793 118.285 131.934 118.144 132.107C118.003 132.279 117.899 132.478 117.839 132.692C117.464 133.82 116.899 134.875 116.169 135.812C115.925 136.132 115.661 136.436 115.379 136.722C115.197 136.908 115.061 137.133 114.979 137.38C114.898 137.626 114.873 137.888 114.908 138.145C114.943 138.403 115.036 138.649 115.179 138.865C115.323 139.081 115.515 139.261 115.739 139.392C117.903 141.708 120.675 143.368 123.739 144.182C125.953 144.892 128.301 145.076 130.599 144.722C130.977 144.68 131.329 144.51 131.599 144.242C131.843 144.288 132.094 144.279 132.334 144.217C132.574 144.154 132.797 144.04 132.988 143.882C133.179 143.723 133.333 143.525 133.438 143.3C133.544 143.076 133.599 142.831 133.599 142.582C133.599 142.002 133.599 141.412 133.549 140.832C133.455 139.361 133.241 137.899 132.909 136.462C135.939 135.458 138.504 133.391 140.129 130.642C144.459 124.132 145.899 113.732 143.459 106.442ZM121.109 133.892C123.527 135.787 126.497 136.841 129.569 136.892C129.571 137.03 129.588 137.168 129.619 137.302C129.929 138.616 130.117 139.955 130.179 141.302C128.577 141.435 126.965 141.344 125.389 141.032C123.039 140.433 120.939 139.107 119.389 137.242C120.109 136.208 120.688 135.081 121.109 133.892V133.892Z" fill="#FF9661"/>
</g>
<path d="M120.639 60.0425C120.497 59.8696 120.321 59.7278 120.122 59.6258C119.923 59.5239 119.705 59.464 119.482 59.4499C119.258 59.4358 119.035 59.4679 118.824 59.544C118.614 59.6202 118.422 59.7388 118.259 59.8925C118.464 58.5998 118.855 57.3434 119.419 56.1625C119.576 55.8196 119.632 55.4393 119.582 55.0656C119.532 54.6919 119.377 54.34 119.136 54.0504C118.894 53.7608 118.576 53.5454 118.217 53.429C117.859 53.3126 117.475 53.3 117.109 53.3925C116.953 53.0334 116.691 52.7302 116.359 52.5225C116.113 52.3709 115.833 52.284 115.544 52.27C115.256 52.2561 114.968 52.3154 114.709 52.4425C114.664 52.3845 114.614 52.3309 114.559 52.2825C115.159 50.9425 114.199 49.0225 112.489 49.6825C108.489 51.2225 103.419 54.2325 105.089 59.3825C105.174 59.6826 105.338 59.9546 105.563 60.1707C105.788 60.3868 106.066 60.5393 106.369 60.6125C106.427 60.7414 106.501 60.8624 106.589 60.9725C100.15 71.2446 96.6404 83.0808 96.439 95.2025C96.379 98.2725 101.149 98.2725 101.199 95.2025C101.406 83.7628 104.784 72.605 110.959 62.9725C111.125 62.7333 111.24 62.4625 111.297 62.1769C111.354 61.8913 111.351 61.597 111.289 61.3125C111.69 61.4733 112.138 61.4733 112.539 61.3125H112.629C112.749 61.3125 112.839 61.3125 112.699 61.3125L113.219 61.4425C113.279 61.4425 113.769 61.6325 113.479 61.5125C113.795 61.6487 114.135 61.7234 114.479 61.7325C114.645 61.9756 114.863 62.1789 115.117 62.328C115.371 62.4771 115.655 62.5683 115.948 62.5951C116.241 62.6218 116.537 62.5835 116.814 62.4828C117.09 62.3821 117.342 62.2215 117.549 62.0125C117.639 62.2508 117.771 62.471 117.939 62.6625C118.128 62.8486 118.278 63.0704 118.381 63.3151C118.483 63.5597 118.536 63.8223 118.536 64.0875C118.536 64.3527 118.483 64.6153 118.381 64.8599C118.278 65.1046 118.128 65.3264 117.939 65.5125C117.32 65.2903 116.638 65.3223 116.042 65.6014C115.446 65.8806 114.985 66.3844 114.759 67.0025C111.369 76.3925 108.089 85.7325 106.959 95.7325C106.962 96.3638 107.213 96.9687 107.658 97.4161C108.104 97.8634 108.708 98.1172 109.339 98.1225C109.968 98.1073 110.567 97.8506 111.012 97.4056C111.457 96.9607 111.714 96.3616 111.729 95.7325C112.729 86.6425 115.869 77.9525 118.989 69.3925C119.818 68.9831 120.539 68.3844 121.093 67.6448C121.648 66.9052 122.02 66.0455 122.181 65.1352C122.342 64.2249 122.286 63.2895 122.018 62.4048C121.75 61.5201 121.278 60.7108 120.639 60.0425V60.0425Z" fill="#FF975E"/>
<path d="M160.139 60.7326C160.062 60.4702 159.929 60.2279 159.749 60.0226C159.913 58.9179 159.848 57.7912 159.559 56.7126C159.109 54.5143 158.439 52.3669 157.559 50.3026C156.799 48.4726 154.149 48.8426 153.829 50.3026C153.713 50.316 153.599 50.3428 153.489 50.3826C153.15 50.5138 152.838 50.7071 152.569 50.9526C152.399 50.8626 152.239 50.7626 152.059 50.6826C151.828 50.5649 151.575 50.4953 151.316 50.4781C151.057 50.4608 150.797 50.4963 150.552 50.5823C150.307 50.6683 150.082 50.803 149.891 50.9784C149.7 51.1537 149.546 51.3661 149.439 51.6026C149.203 51.3861 148.956 51.1824 148.699 50.9926C148.27 50.7443 147.761 50.6754 147.281 50.8009C146.802 50.9264 146.391 51.236 146.139 51.6626C145.901 52.0938 145.838 52.6 145.962 53.0764C146.087 53.5529 146.39 53.9632 146.809 54.2226C147.804 54.9906 148.551 56.0337 148.959 57.2226L148.679 57.0226C148.49 56.9102 148.288 56.8196 148.079 56.7526C147.627 56.6326 147.151 56.6326 146.699 56.7526C146.464 56.8052 146.246 56.919 146.069 57.0826C145.862 57.213 145.693 57.3958 145.579 57.6126C145.502 57.7328 145.445 57.8645 145.409 58.0026C144.663 59.3958 144.475 61.0209 144.883 62.5476C145.292 64.0744 146.267 65.3884 147.609 66.2226C147.961 66.4498 148.384 66.5421 148.799 66.4826C149.899 70.0626 150.679 73.7426 151.439 77.4126C152.629 83.2026 153.779 89.0126 152.989 94.9326C152.669 97.3126 156.419 97.2926 156.729 94.9326C157.539 88.9326 156.389 82.9326 155.179 77.0526C154.216 71.5487 152.747 66.1457 150.789 60.9126L150.849 60.7426C150.891 60.6168 150.915 60.4853 150.919 60.3526H151.109C151.593 60.3361 152.055 60.1442 152.409 59.8126C152.668 59.9353 152.953 59.9921 153.239 59.9782C153.525 59.9642 153.803 59.8799 154.049 59.7326L154.319 59.5226C154.422 59.8006 154.604 60.0429 154.841 60.2203C155.079 60.3977 155.363 60.5026 155.659 60.5226C155.785 61.0484 156.107 61.5063 156.559 61.8026C159.99 72.6975 161.79 84.0405 161.899 95.4626C161.899 97.8726 165.669 97.8726 165.649 95.4626C165.538 83.6773 163.681 71.9736 160.139 60.7326V60.7326Z" fill="#FF975E"/>
<g style="mix-blend-mode:multiply">
<path d="M46.4791 41.7324C44.9658 40.2543 42.9344 39.4268 40.8191 39.4268C38.7037 39.4268 36.6723 40.2543 35.1591 41.7324C30.3233 46.6925 27.0212 52.9424 25.6491 59.7324C24.8591 63.9724 26.8291 68.3624 31.2391 69.5724C35.1391 70.6424 40.2391 68.2524 41.0791 63.9824C41.4418 61.9454 42.053 59.9606 42.8991 58.0724C43.7952 56.1855 45.0096 54.4671 46.4891 52.9924C47.9364 51.4748 48.7431 49.4576 48.7412 47.3604C48.7394 45.2632 47.9291 43.2475 46.4791 41.7324V41.7324Z" fill="#BCFFDA"/>
</g>
<g style="mix-blend-mode:multiply">
<path d="M30.0991 88.8126C28.1338 89.5965 26.5532 91.1183 25.6955 93.0525C24.8377 94.9867 24.7708 97.1797 25.5091 99.1626C28.0979 105.605 32.4945 111.162 38.1691 115.163C41.7191 117.603 46.5291 117.583 49.4291 114.043C51.9891 110.913 51.8891 105.243 48.3091 102.783C46.5867 101.633 45.0145 100.272 43.6291 98.7326C42.263 97.1519 41.1834 95.3448 40.4391 93.3926C39.641 91.4414 38.1187 89.8747 36.1912 89.0209C34.2636 88.1671 32.0805 88.0925 30.0991 88.8126V88.8126Z" fill="#FFCF00"/>
</g>
<g style="mix-blend-mode:multiply">
<path d="M218.039 87.9226C216.439 84.0526 210.809 82.4426 207.269 84.4626C203.269 86.7626 202.089 91.0926 203.809 95.2426C203.809 95.3526 204.309 96.6226 204.329 96.6126C204.489 97.1326 204.649 97.6126 204.789 98.1826C205.169 99.6333 205.459 101.106 205.659 102.593C206.249 106.743 211.119 109.813 215.129 108.783C217.181 108.308 218.971 107.059 220.124 105.296C221.278 103.533 221.705 101.393 221.319 99.3226C220.714 95.3988 219.611 91.568 218.039 87.9226V87.9226Z" fill="#FF6B70"/>
</g>
<g style="mix-blend-mode:multiply">
<path d="M29.3191 35.9026C27.6591 39.7526 30.4191 44.9026 34.3191 46.0526C38.7591 47.3326 42.6791 45.1526 44.4591 41.0526C44.5091 40.9426 45.1091 39.7326 45.0791 39.7326C45.3391 39.2526 45.5991 38.7326 45.8791 38.3026C46.6622 37.0229 47.5203 35.7908 48.4491 34.6126C51.0191 31.2926 49.8291 25.6626 46.3091 23.5026C44.5383 22.3591 42.3944 21.9433 40.3244 22.342C38.2545 22.7407 36.4185 23.9231 35.1991 25.6426C32.8173 28.8029 30.8418 32.2499 29.3191 35.9026V35.9026Z" fill="#FF6B70"/>
</g>
<g style="mix-blend-mode:multiply">
<path d="M222.769 95.7322C212.689 97.8422 215.939 113.502 226.039 111.402C236.139 109.302 232.899 93.6622 222.769 95.7322Z" fill="#FFCF00"/>
</g>
<g style="mix-blend-mode:multiply">
<path d="M254.529 65.3925C253.196 61.1258 251.862 56.8591 250.529 52.5924C249.279 48.5924 244.909 45.5924 240.689 47.0024C236.689 48.3024 233.759 52.5724 235.099 56.8424C236.439 61.1124 237.789 65.3824 239.099 69.6524C240.349 73.6524 244.719 76.6524 248.939 75.2324C252.899 73.9424 255.899 69.6725 254.529 65.3925Z" fill="#BCFFDA"/>
</g>
<g style="mix-blend-mode:multiply">
<path d="M227.809 33.7824C225.96 27.8728 221.906 22.9023 216.489 19.9024C212.809 17.9024 207.609 18.8524 205.549 22.7724C203.549 26.4924 204.479 31.6024 208.419 33.7124C208.819 33.9324 209.229 34.1624 209.619 34.4124L209.839 34.5624C210.049 34.7424 210.309 34.9624 210.389 35.0424C210.689 35.3324 210.959 35.6524 211.249 35.9524C211.539 36.2524 211.669 36.5824 211.859 36.9524C211.985 37.2686 212.132 37.576 212.299 37.8724C212.332 37.9434 212.358 38.017 212.379 38.0924C213.679 42.0924 217.969 45.0924 222.219 43.6824C226.179 42.3424 229.199 38.0424 227.809 33.7824Z" fill="#FFCF00"/>
</g>
</g>
<defs>
<clipPath id="clip0_5718_35435">
<rect width="280" height="160" fill="white"/>
</clipPath>
</defs>
</svg>
