<svg width="360" height="224" viewBox="0 0 360 224" fill="none" xmlns="http://www.w3.org/2000/svg">
<path d="M114.201 174.87C105.187 166.471 90.1325 86.9319 92.3009 80.3295C94.4693 73.7272 247.947 46.0764 252.649 52.0559C257.351 58.0353 271.397 141.02 267.374 147.862C263.351 154.704 123.214 183.269 114.201 174.87Z" fill="#FFF6CC"/>
<g style="mix-blend-mode:multiply">
<path fill-rule="evenodd" clip-rule="evenodd" d="M163.93 110.775C165.264 112.439 164.997 114.869 163.333 116.203C152.968 124.515 137.253 140.397 125.335 164.266C124.382 166.174 122.063 166.949 120.155 165.996C118.247 165.043 117.472 162.724 118.425 160.816C130.93 135.772 147.434 119.052 158.502 110.178C160.166 108.843 162.596 109.111 163.93 110.775Z" fill="#FFF1E6"/>
</g>
<g style="mix-blend-mode:multiply">
<path fill-rule="evenodd" clip-rule="evenodd" d="M196.61 103.749C197.293 101.728 199.485 100.644 201.505 101.327C218.113 106.94 241.515 118.038 256.288 131.473C257.866 132.908 257.981 135.35 256.546 136.928C255.111 138.506 252.669 138.622 251.091 137.187C237.428 124.761 215.147 114.09 199.032 108.644C197.012 107.961 195.927 105.769 196.61 103.749Z" fill="#FFF1E6"/>
</g>
<g style="mix-blend-mode:multiply">
<path d="M93.795 77.2783C89.0979 85.3975 173.248 121.017 181.447 119.635C189.646 118.252 255.472 55.3486 250.911 48.9774C246.35 42.6063 98.492 69.1591 93.795 77.2783Z" fill="#FFE7FB"/>
</g>
<path d="M193.832 116.084L186.486 115.675C185.396 115.613 185.014 114.182 185.928 113.585L192.09 109.566C192.502 109.297 192.619 108.741 192.35 108.325L191.388 106.833C191.12 106.417 190.568 106.296 190.156 106.566L183.994 110.585C183.08 111.182 181.936 110.246 182.324 109.22L184.949 102.307C185.125 101.845 184.894 101.325 184.435 101.146L182.788 100.504C182.329 100.325 181.813 100.556 181.638 101.017L179.013 107.931C178.623 108.957 177.156 108.875 176.872 107.812L174.957 100.647C174.829 100.168 174.34 99.8819 173.864 100.009L172.164 100.463C171.689 100.59 171.407 101.082 171.535 101.562L180.012 133.278C180.14 133.758 180.629 134.043 181.104 133.916L182.806 133.461C183.281 133.334 183.563 132.843 183.435 132.363L181.52 125.198C181.236 124.135 182.466 123.332 183.316 124.027L189.04 128.71C189.422 129.022 189.983 128.965 190.293 128.581L191.4 127.203C191.709 126.819 191.649 126.252 191.266 125.94L185.543 121.258C184.693 120.562 185.217 119.181 186.309 119.242L193.655 119.651C194.146 119.678 194.565 119.3 194.589 118.805L194.678 117.031C194.703 116.536 194.325 116.112 193.834 116.085L193.832 116.084Z" fill="#0EA472"/>
<path d="M36.2889 55.9632C34.0132 54.79 33.1194 51.9941 34.2925 49.7183C35.4657 47.4426 38.2616 46.5488 40.5373 47.722L79.9119 68.02C82.1877 69.1932 83.0815 71.9891 81.9083 74.2649C80.7351 76.5406 77.9392 77.4344 75.6635 76.2612L36.2889 55.9632Z" fill="#6DDFA6"/>
<path d="M62.1021 48.092C60.1019 46.4936 59.7762 43.5765 61.3746 41.5763C62.973 39.5762 65.8901 39.2505 67.8903 40.8489L88.4467 57.276C90.4468 58.8744 90.7725 61.7916 89.1742 63.7917C87.5758 65.7919 84.6586 66.1176 82.6585 64.5192L62.1021 48.092Z" fill="#FFCE00"/>
<path d="M51.3214 86.2325C48.8196 85.6883 47.2326 83.219 47.7768 80.7172C48.321 78.2154 50.7903 76.6284 53.2921 77.1726L74.0822 81.6948C76.584 82.239 78.171 84.7082 77.6268 87.2101C77.0826 89.7119 74.6133 91.2989 72.1115 90.7547L51.3214 86.2325Z" fill="#FFF1E6"/>
<path d="M64.7639 103.249C62.2055 103.147 60.2139 100.991 60.3154 98.4326C60.4168 95.8742 62.573 93.8826 65.1314 93.9841L71.6221 94.2415C74.1804 94.343 76.1721 96.4992 76.0706 99.0576C75.9691 101.616 73.8129 103.608 71.2546 103.506L64.7639 103.249Z" fill="#FFE7FB"/>
<path d="M102.659 43.8618C101.879 41.423 103.224 38.814 105.663 38.0344C108.101 37.2548 110.71 38.5997 111.49 41.0385L113.468 47.2258C114.248 49.6646 112.903 52.2736 110.464 53.0532C108.025 53.8329 105.416 52.4879 104.637 50.0491L102.659 43.8618Z" fill="#FFA86D"/>
<path d="M85.88 42.8908C84.5869 40.681 85.3299 37.8413 87.5397 36.5481C89.7494 35.255 92.5891 35.998 93.8823 38.2077L101.5 51.2248C102.793 53.4346 102.05 56.2743 99.8404 57.5675C97.6307 58.8606 94.791 58.1176 93.4978 55.9078L85.88 42.8908Z" fill="#FFE7FB"/>
<g style="mix-blend-mode:multiply">
<path d="M32.5127 59.6145C30.2369 58.4414 29.3431 55.6455 30.5163 53.3697C31.6895 51.094 34.4853 50.2002 36.7611 51.3733L50.1669 58.2842C52.4426 59.4574 53.3364 62.2533 52.1633 64.529C50.9901 66.8047 48.1942 67.6985 45.9184 66.5254L32.5127 59.6145Z" fill="#FFEDA5"/>
</g>
<path d="M323.404 182.132C325.458 183.66 325.885 186.565 324.357 188.619C322.829 190.673 319.925 191.1 317.87 189.572L282.327 163.132C280.273 161.604 279.846 158.699 281.375 156.645C282.903 154.591 285.807 154.164 287.861 155.692L323.404 182.132Z" fill="#6DDFA6"/>
<path d="M296.654 185.694C298.367 187.597 298.213 190.528 296.31 192.241C294.407 193.954 291.476 193.801 289.763 191.898L272.157 172.342C270.443 170.439 270.597 167.508 272.5 165.795C274.403 164.082 277.334 164.236 279.047 166.138L296.654 185.694Z" fill="#FFCE00"/>
<path d="M313.503 149.819C315.882 150.763 317.046 153.458 316.102 155.838C315.157 158.217 312.463 159.381 310.083 158.437L290.307 150.589C287.927 149.644 286.763 146.95 287.708 144.57C288.652 142.19 291.347 141.026 293.727 141.971L313.503 149.819Z" fill="#FFF1E6"/>
<path d="M303.011 130.841C305.518 131.357 307.132 133.809 306.615 136.317C306.099 138.824 303.647 140.438 301.139 139.922L294.777 138.61C292.269 138.094 290.655 135.642 291.172 133.134C291.689 130.627 294.141 129.013 296.648 129.529L303.011 130.841Z" fill="#FFE7FB"/>
<path d="M255.95 183.262C256.322 185.796 254.57 188.151 252.037 188.523C249.504 188.895 247.149 187.143 246.777 184.61L245.833 178.183C245.461 175.65 247.213 173.295 249.746 172.922C252.279 172.55 254.634 174.302 255.006 176.836L255.95 183.262Z" fill="#FFA86D"/>
<path d="M272.347 186.953C273.263 189.344 272.067 192.025 269.676 192.941C267.285 193.857 264.605 192.661 263.688 190.27L258.292 176.186C257.376 173.796 258.572 171.115 260.963 170.199C263.354 169.283 266.035 170.478 266.951 172.869L272.347 186.953Z" fill="#FFE7FB"/>
<g style="mix-blend-mode:multiply">
<path d="M327.725 179.144C329.779 180.673 330.205 183.577 328.677 185.631C327.149 187.685 324.245 188.112 322.191 186.584L310.089 177.582C308.035 176.054 307.609 173.149 309.137 171.095C310.665 169.041 313.569 168.614 315.623 170.143L327.725 179.144Z" fill="#FFEDA5"/>
</g>
<path d="M271.421 63.8243L269.676 62.1033C269.314 61.7462 269.131 61.3115 269.127 60.7992C269.124 60.287 269.301 59.8498 269.658 59.4877L271.379 57.7428L271.378 55.2088C271.387 54.958 271.437 54.7206 271.528 54.4966C271.619 54.2725 271.746 54.0782 271.908 53.9136C272.071 53.7489 272.263 53.6196 272.486 53.5254C272.709 53.4312 272.945 53.3778 273.196 53.3652L275.73 53.3313L277.451 51.5865C277.808 51.2243 278.243 51.0415 278.755 51.0379C279.267 51.0344 279.704 51.2112 280.066 51.5684L281.811 53.2893L284.345 53.2882C284.596 53.2973 284.833 53.3475 285.057 53.4386C285.282 53.5297 285.476 53.6564 285.64 53.8187C285.805 53.9811 285.934 54.1737 286.029 54.3964C286.123 54.6192 286.176 54.8559 286.189 55.1065L286.223 57.6403L287.968 59.3612C288.33 59.7184 288.513 60.1531 288.516 60.6653C288.52 61.1776 288.343 61.6148 287.986 61.9769L286.265 63.7218L286.266 66.2558C286.257 66.5066 286.207 66.744 286.115 66.968C286.024 67.1921 285.898 67.3864 285.735 67.551C285.573 67.7156 285.38 67.845 285.158 67.9392C284.935 68.0334 284.698 68.0868 284.448 68.0994L281.914 68.1333L280.193 69.8781C279.836 70.2403 279.401 70.4231 278.889 70.4266C278.376 70.4302 277.939 70.2533 277.577 69.8962L275.832 68.1753L273.298 68.1764C273.047 68.1672 272.81 68.1171 272.586 68.026C272.362 67.9349 272.168 67.8082 272.003 67.6458C271.838 67.4835 271.709 67.2909 271.615 67.0681C271.521 66.8454 271.467 66.6087 271.455 66.3581L271.421 63.8243ZM273.279 63.0594L273.302 66.329L276.571 66.3064L278.876 68.5793L281.149 66.2748L284.418 66.2522L284.396 62.9826L286.669 60.6781L284.364 58.4052L284.342 55.1356L281.072 55.1582L278.768 52.8853L276.495 55.1898L273.225 55.2124L273.248 58.482L270.975 60.7865L273.279 63.0594Z" fill="#FFE7FB"/>
<path d="M285.522 16.1471L290.089 12.5477C290.417 12.2811 290.77 12.1133 291.147 12.0442C291.525 11.9752 291.898 11.987 292.267 12.0796C292.637 12.1722 292.971 12.3379 293.272 12.5767C293.572 12.8155 293.804 13.1299 293.968 13.52L296.296 18.8478L301.09 21.9143C301.582 22.2122 301.927 22.6204 302.124 23.1388C302.321 23.6572 302.353 24.1831 302.219 24.7167C302.158 24.963 302.06 25.2003 301.926 25.4285C301.793 25.6568 301.616 25.8632 301.395 26.0478L296.805 30.0012L295.663 35.0806C295.503 35.804 295.115 36.3502 294.499 36.7193C293.883 37.0884 293.247 37.1906 292.59 37.026C292.549 37.0157 292.331 36.9283 291.936 36.7639L286.812 33.8435L280.916 34.0014C280.803 34.0167 280.684 34.0141 280.558 33.9935C280.432 33.9729 280.318 33.9497 280.215 33.924C279.559 33.7594 279.046 33.3691 278.677 32.7531C278.308 32.1371 278.223 31.4725 278.424 30.7594L279.82 25.711L277.661 20.0984C277.553 19.8315 277.495 19.566 277.484 19.3017C277.474 19.0374 277.5 18.7821 277.562 18.5359C277.69 18.0228 277.959 17.583 278.367 17.2163C278.775 16.8497 279.269 16.6409 279.849 16.59L285.522 16.1471ZM286.498 18.6493L280.032 19.1224L282.468 25.5895L280.871 31.4383L287.452 31.2885L293.177 34.5556L294.535 28.6143L299.718 24.1225L294.256 20.5938L291.65 14.5422L286.498 18.6493Z" fill="#FFF1E6"/>
<path d="M246.082 38.1134C245.534 38.0655 245.082 37.8294 244.726 37.4051C244.37 36.9807 244.216 36.4946 244.264 35.9467L244.558 32.5846C244.574 32.4019 244.646 32.2493 244.774 32.1266C244.902 32.004 245.058 31.934 245.244 31.9168C245.654 31.8188 246.003 31.6068 246.291 31.2806C246.579 30.9545 246.741 30.5756 246.779 30.1439C246.817 29.7122 246.722 29.3108 246.496 28.9396C246.269 28.5684 245.962 28.2989 245.575 28.1313C245.395 28.0821 245.253 27.986 245.148 27.843C245.044 27.7 245 27.5372 245.016 27.3545L245.31 23.9924C245.358 23.4445 245.594 22.9925 246.018 22.6365C246.442 22.2804 246.928 22.1264 247.476 22.1743L263.416 23.5688C263.963 23.6167 264.415 23.8529 264.771 24.2772C265.127 24.7015 265.282 25.1876 265.234 25.7355L264.939 29.0977C264.923 29.2803 264.852 29.4329 264.724 29.5556C264.596 29.6783 264.439 29.7482 264.254 29.7654C263.844 29.8634 263.495 30.0755 263.207 30.4016C262.919 30.7278 262.756 31.1067 262.718 31.5384C262.681 31.97 262.775 32.3715 263.002 32.7427C263.229 33.1138 263.536 33.3833 263.922 33.551C264.102 33.6002 264.244 33.6962 264.349 33.8392C264.454 33.9822 264.498 34.145 264.482 34.3277L264.188 37.6898C264.14 38.2377 263.904 38.6897 263.479 39.0458C263.055 39.4018 262.569 39.5559 262.021 39.5079L246.082 38.1134ZM246.256 36.121L262.195 37.5155L262.418 34.9752C261.835 34.5562 261.392 34.0281 261.088 33.3908C260.784 32.7536 260.663 32.078 260.726 31.364C260.788 30.6501 261.025 30.0057 261.435 29.431C261.845 28.8562 262.373 28.413 263.019 28.1015L263.241 25.5612L247.302 24.1667L247.08 26.707C247.662 27.126 248.105 27.6541 248.409 28.2914C248.713 28.9286 248.834 29.6042 248.772 30.3182C248.709 31.0321 248.473 31.6765 248.063 32.2513C247.653 32.8261 247.125 33.2692 246.478 33.5807L246.256 36.121ZM254.313 35.8221C254.595 35.8468 254.84 35.772 255.048 35.5978C255.255 35.4235 255.372 35.1953 255.396 34.913C255.421 34.6308 255.346 34.3858 255.172 34.1782C254.998 33.9706 254.769 33.8544 254.487 33.8297C254.205 33.805 253.96 33.8798 253.752 34.054C253.545 34.2282 253.429 34.4565 253.404 34.7387C253.379 35.021 253.454 35.2659 253.628 35.4736C253.802 35.6812 254.031 35.7974 254.313 35.8221ZM254.662 31.8373C254.944 31.862 255.189 31.7872 255.396 31.613C255.604 31.4388 255.72 31.2105 255.745 30.9283C255.77 30.646 255.695 30.4011 255.521 30.1934C255.346 29.9858 255.118 29.8696 254.836 29.8449C254.554 29.8202 254.309 29.895 254.101 30.0692C253.893 30.2435 253.777 30.4717 253.753 30.754C253.728 31.0362 253.803 31.2812 253.977 31.4888C254.151 31.6964 254.379 31.8126 254.662 31.8373ZM255.01 27.8525C255.292 27.8772 255.537 27.8025 255.745 27.6282C255.953 27.454 256.069 27.2257 256.094 26.9435C256.118 26.6612 256.043 26.4163 255.869 26.2086C255.695 26.001 255.467 25.8848 255.184 25.8601C254.902 25.8354 254.657 25.9102 254.45 26.0844C254.242 26.2587 254.126 26.4869 254.101 26.7692C254.076 27.0514 254.151 27.2964 254.325 27.504C254.5 27.7117 254.728 27.8278 255.01 27.8525Z" fill="#6DDFA6"/>
<path d="M279.413 97.2178C279.034 97.2846 278.686 97.2069 278.368 96.9845C278.05 96.7621 277.858 96.4613 277.791 96.0821L277.381 93.7555C277.359 93.6292 277.38 93.5129 277.444 93.4068C277.508 93.3007 277.601 93.225 277.724 93.1798C277.983 93.0392 278.181 92.8326 278.316 92.56C278.452 92.2873 278.493 92.0016 278.441 91.7028C278.388 91.4041 278.251 91.1498 278.031 90.9399C277.81 90.7301 277.554 90.6035 277.262 90.5602C277.131 90.5595 277.018 90.5203 276.921 90.4425C276.825 90.3648 276.765 90.2628 276.743 90.1364L276.333 87.8098C276.266 87.4306 276.343 87.0822 276.566 86.7646C276.788 86.447 277.089 86.2548 277.468 86.1879L288.498 84.2431C288.877 84.1762 289.226 84.254 289.543 84.4764C289.861 84.6988 290.053 84.9995 290.12 85.3787L290.53 87.7053C290.552 87.8317 290.531 87.9479 290.467 88.054C290.403 88.1601 290.31 88.2358 290.187 88.2811C289.928 88.4216 289.73 88.6282 289.595 88.9009C289.459 89.1736 289.418 89.4593 289.47 89.758C289.523 90.0567 289.66 90.311 289.88 90.5209C290.101 90.7308 290.357 90.8574 290.649 90.9006C290.78 90.9013 290.893 90.9406 290.99 91.0183C291.087 91.096 291.146 91.1981 291.168 91.3245L291.579 93.6511C291.645 94.0302 291.568 94.3786 291.345 94.6962C291.123 95.0138 290.822 95.2061 290.443 95.2729L279.413 97.2178ZM279.17 95.839L290.2 93.8942L289.89 92.1363C289.42 91.9585 289.025 91.6817 288.704 91.3059C288.383 90.9301 288.179 90.4951 288.092 90.0011C288.005 89.507 288.048 89.0286 288.221 88.5656C288.394 88.1027 288.671 87.7074 289.051 87.3797L288.741 85.6218L277.711 87.5667L278.021 89.3245C278.491 89.5023 278.886 89.7792 279.207 90.155C279.528 90.5308 279.732 90.9657 279.819 91.4597C279.906 91.9538 279.864 92.4323 279.69 92.8952C279.517 93.3581 279.241 93.7534 278.86 94.0812L279.17 95.839ZM284.563 94.1772C284.759 94.1428 284.911 94.0479 285.02 93.8924C285.128 93.737 285.166 93.5616 285.131 93.3663C285.097 93.171 285.002 93.0189 284.846 92.9101C284.691 92.8013 284.516 92.7641 284.32 92.7985C284.125 92.833 283.973 92.9279 283.864 93.0833C283.755 93.2387 283.718 93.4141 283.752 93.6094C283.787 93.8048 283.882 93.9568 284.037 94.0657C284.193 94.1745 284.368 94.2117 284.563 94.1772ZM284.077 91.4198C284.272 91.3853 284.425 91.2904 284.533 91.135C284.642 90.9796 284.679 90.8042 284.645 90.6089C284.61 90.4135 284.516 90.2615 284.36 90.1526C284.205 90.0438 284.029 90.0066 283.834 90.0411C283.639 90.0755 283.487 90.1704 283.378 90.3259C283.269 90.4813 283.232 90.6566 283.266 90.852C283.301 91.0473 283.396 91.1994 283.551 91.3082C283.706 91.417 283.882 91.4542 284.077 91.4198ZM283.591 88.6623C283.786 88.6279 283.938 88.5329 284.047 88.3775C284.156 88.2221 284.193 88.0467 284.159 87.8514C284.124 87.6561 284.029 87.504 283.874 87.3952C283.718 87.2863 283.543 87.2491 283.348 87.2836C283.152 87.318 283 87.413 282.892 87.5684C282.783 87.7238 282.746 87.8992 282.78 88.0945C282.814 88.2898 282.909 88.4419 283.065 88.5507C283.22 88.6596 283.396 88.6968 283.591 88.6623Z" fill="#FFE7FB"/>
<path d="M220.132 38.4C219.971 38.4284 219.802 38.4285 219.625 38.4005C219.449 38.3724 219.286 38.3063 219.137 38.2022L217.757 37.3261C216.342 36.4264 215.047 35.5145 213.871 34.5905C212.695 33.6665 211.991 32.5438 211.758 31.2225C211.568 30.1425 211.77 29.1768 212.367 28.3253C212.963 27.4739 213.801 26.9529 214.881 26.7625C215.49 26.6551 216.087 26.6831 216.673 26.8464C217.258 27.0097 217.78 27.2819 218.238 27.6632C218.539 27.1482 218.936 26.7139 219.43 26.3602C219.925 26.0064 220.476 25.7759 221.085 25.6685C222.165 25.4781 223.131 25.681 223.982 26.2772C224.834 26.8734 225.355 27.7115 225.545 28.7915C225.778 30.1127 225.504 31.411 224.722 32.6862C223.94 33.9614 223.026 35.2656 221.982 36.5989L220.998 37.874C220.894 38.0227 220.764 38.1404 220.608 38.2273C220.451 38.3141 220.292 38.3717 220.132 38.4ZM217.827 29.1574C217.41 28.7451 216.991 28.4488 216.568 28.2686C216.145 28.0885 215.664 28.046 215.124 28.1412C214.435 28.2628 213.901 28.5939 213.522 29.1345C213.144 29.6751 213.015 30.2901 213.137 30.9794C213.242 31.5769 213.567 32.1742 214.11 32.7714C214.654 33.3685 215.277 33.9309 215.98 34.4585C216.683 34.9861 217.397 35.4704 218.12 35.9115C218.844 36.3526 219.432 36.7168 219.885 37.0041C220.213 36.579 220.642 36.0355 221.171 35.3736C221.7 34.7117 222.204 34.0126 222.684 33.2764C223.165 32.5401 223.558 31.7985 223.865 31.0514C224.171 30.3043 224.272 29.632 224.167 29.0346C224.045 28.3452 223.714 27.8113 223.173 27.4327C222.633 27.0542 222.018 26.9257 221.328 27.0472C220.788 27.1424 220.351 27.347 220.015 27.6609C219.679 27.9748 219.387 28.3966 219.136 28.9264C219.076 29.0555 218.994 29.1589 218.889 29.2366C218.784 29.3143 218.669 29.3643 218.542 29.3866C218.416 29.4089 218.29 29.4014 218.165 29.3642C218.04 29.327 217.927 29.2581 217.827 29.1574Z" fill="#FFEDA5"/>
<path d="M163.983 191.4C163.822 191.372 163.664 191.314 163.507 191.227C163.351 191.14 163.22 191.023 163.116 190.874L162.119 189.579C161.097 188.249 160.192 186.95 159.403 185.679C158.614 184.409 158.336 183.113 158.569 181.792C158.76 180.712 159.281 179.873 160.132 179.277C160.984 178.681 161.949 178.478 163.029 178.669C163.638 178.776 164.19 179.006 164.684 179.36C165.179 179.714 165.576 180.148 165.876 180.663C166.334 180.282 166.856 180.01 167.442 179.846C168.028 179.683 168.625 179.655 169.234 179.763C170.314 179.953 171.152 180.474 171.748 181.325C172.344 182.177 172.547 183.143 172.357 184.223C172.124 185.544 171.422 186.67 170.251 187.601C169.079 188.531 167.775 189.445 166.338 190.34L164.978 191.202C164.829 191.306 164.666 191.372 164.489 191.401C164.313 191.429 164.144 191.428 163.983 191.4ZM164.978 181.926C164.728 181.397 164.435 180.975 164.1 180.661C163.764 180.347 163.326 180.142 162.786 180.047C162.097 179.926 161.482 180.054 160.941 180.433C160.401 180.811 160.07 181.345 159.948 182.035C159.843 182.632 159.943 183.304 160.25 184.051C160.557 184.799 160.95 185.54 161.43 186.276C161.911 187.013 162.415 187.712 162.944 188.374C163.473 189.036 163.901 189.579 164.229 190.004C164.683 189.717 165.271 189.353 165.995 188.912C166.718 188.47 167.431 187.986 168.134 187.459C168.837 186.931 169.461 186.369 170.004 185.771C170.548 185.174 170.873 184.577 170.978 183.979C171.1 183.29 170.971 182.675 170.592 182.135C170.214 181.594 169.68 181.263 168.991 181.141C168.451 181.046 167.969 181.089 167.547 181.269C167.124 181.449 166.704 181.745 166.288 182.157C166.187 182.258 166.075 182.327 165.95 182.364C165.825 182.401 165.699 182.409 165.572 182.387C165.446 182.364 165.33 182.314 165.226 182.237C165.121 182.159 165.038 182.056 164.978 181.926Z" fill="#FFE7FB"/>
<path d="M83.1106 180.341H79.7671C79.0732 180.341 78.4791 180.094 77.985 179.6C77.4908 179.106 77.2437 178.512 77.2437 177.818V174.475L74.815 172.014C74.5836 171.762 74.4049 171.483 74.2787 171.178C74.1526 170.873 74.0895 170.563 74.0895 170.248C74.0895 169.932 74.1526 169.622 74.2787 169.317C74.4049 169.012 74.5836 168.734 74.815 168.481L77.2437 166.021V162.678C77.2437 161.984 77.4908 161.39 77.985 160.895C78.4791 160.401 79.0732 160.154 79.7671 160.154H83.1106L85.5709 157.725C85.8233 157.494 86.1019 157.315 86.4068 157.189C86.7117 157.063 87.0219 157 87.3373 157C87.6527 157 87.9629 157.063 88.2678 157.189C88.5727 157.315 88.8513 157.494 89.1037 157.725L91.564 160.154H94.9075C95.6014 160.154 96.1955 160.401 96.6897 160.895C97.1838 161.39 97.4309 161.984 97.4309 162.678V166.021L99.8597 168.481C100.091 168.734 100.27 169.012 100.396 169.317C100.522 169.622 100.585 169.932 100.585 170.248C100.585 170.563 100.522 170.873 100.396 171.178C100.27 171.483 100.091 171.762 99.8597 172.014L97.4309 174.475V177.818C97.4309 178.512 97.1838 179.106 96.6897 179.6C96.1955 180.094 95.6014 180.341 94.9075 180.341H91.564L89.1037 182.77C88.8513 183.002 88.5727 183.18 88.2678 183.306C87.9629 183.433 87.6527 183.496 87.3373 183.496C87.0219 183.496 86.7117 183.433 86.4068 183.306C86.1019 183.18 85.8233 183.002 85.5709 182.77L83.1106 180.341ZM84.1831 177.818L87.3373 180.972L90.4916 177.818H94.9075V173.402L98.0617 170.248L94.9075 167.094V162.678H90.4916L87.3373 159.523L84.1831 162.678H79.7671V167.094L76.6129 170.248L79.7671 173.402V177.818H84.1831Z" fill="#FFEDA5"/>
<path d="M90.893 198.695L92.8427 194.979C92.9807 194.707 93.1638 194.492 93.3921 194.336C93.6203 194.179 93.8698 194.077 94.1404 194.029C94.4111 193.982 94.6805 193.992 94.9485 194.061C95.2165 194.13 95.4619 194.269 95.6848 194.478L98.7879 197.303L102.849 197.913C103.261 197.964 103.609 198.132 103.891 198.415C104.174 198.699 104.35 199.036 104.419 199.427C104.45 199.607 104.456 199.792 104.435 199.982C104.414 200.172 104.358 200.36 104.267 200.547L102.406 204.503L103.149 208.186C103.257 208.71 103.162 209.184 102.865 209.609C102.568 210.033 102.178 210.288 101.697 210.373C101.667 210.378 101.498 210.385 101.189 210.393L96.9524 209.977L93.1137 211.817C93.0438 211.86 92.9644 211.893 92.8755 211.917C92.7866 211.94 92.7045 211.958 92.6293 211.972C92.1481 212.057 91.6953 211.95 91.2707 211.653C90.8462 211.356 90.595 210.943 90.5173 210.414L89.9512 206.676L86.8761 203.613C86.7266 203.469 86.6096 203.311 86.5252 203.14C86.4407 202.969 86.3826 202.793 86.3508 202.613C86.2845 202.237 86.3319 201.868 86.4929 201.506C86.6539 201.144 86.918 200.861 87.2851 200.657L90.893 198.695ZM92.2728 200.057L88.1513 202.272L91.6603 205.816L92.3297 210.141L96.6223 208.105L101.356 208.572L100.502 204.257L102.596 199.772L97.957 199.054L94.4586 195.834L92.2728 200.057Z" fill="#FFE7FB"/>
<path d="M125.837 203.883C125.296 203.978 124.798 203.867 124.344 203.549C123.891 203.232 123.616 202.802 123.521 202.26L122.934 198.936C122.903 198.756 122.933 198.59 123.024 198.438C123.116 198.287 123.249 198.179 123.424 198.114C123.795 197.913 124.077 197.618 124.271 197.229C124.464 196.839 124.524 196.431 124.448 196.004C124.373 195.577 124.178 195.214 123.863 194.914C123.547 194.614 123.181 194.434 122.764 194.372C122.578 194.371 122.416 194.315 122.278 194.204C122.14 194.093 122.055 193.947 122.023 193.766L121.437 190.443C121.341 189.901 121.452 189.403 121.77 188.949C122.088 188.496 122.517 188.221 123.059 188.126L138.816 185.347C139.358 185.252 139.855 185.363 140.309 185.681C140.763 185.998 141.037 186.428 141.133 186.97L141.719 190.293C141.751 190.474 141.721 190.64 141.629 190.791C141.537 190.943 141.404 191.051 141.229 191.116C140.859 191.317 140.576 191.612 140.383 192.001C140.189 192.391 140.13 192.799 140.205 193.226C140.28 193.652 140.476 194.016 140.791 194.316C141.106 194.615 141.472 194.796 141.889 194.858C142.076 194.859 142.238 194.915 142.376 195.026C142.514 195.137 142.599 195.283 142.631 195.464L143.217 198.787C143.312 199.329 143.201 199.827 142.883 200.28C142.566 200.734 142.136 201.009 141.594 201.104L125.837 203.883ZM125.49 201.913L141.247 199.135L140.804 196.623C140.133 196.369 139.569 195.974 139.11 195.437C138.652 194.9 138.36 194.279 138.236 193.573C138.111 192.867 138.173 192.184 138.42 191.522C138.667 190.861 139.062 190.296 139.606 189.828L139.163 187.317L123.406 190.095L123.849 192.606C124.52 192.86 125.085 193.256 125.543 193.793C126.002 194.33 126.293 194.951 126.418 195.657C126.542 196.363 126.481 197.046 126.234 197.707C125.986 198.369 125.591 198.933 125.047 199.402L125.49 201.913ZM133.195 199.539C133.474 199.49 133.691 199.354 133.847 199.132C134.002 198.91 134.055 198.659 134.006 198.38C133.957 198.101 133.821 197.884 133.599 197.729C133.377 197.573 133.127 197.52 132.848 197.569C132.569 197.619 132.351 197.754 132.196 197.976C132.04 198.198 131.987 198.449 132.037 198.728C132.086 199.007 132.221 199.224 132.443 199.38C132.665 199.535 132.916 199.588 133.195 199.539ZM132.5 195.6C132.779 195.55 132.997 195.415 133.152 195.193C133.308 194.971 133.361 194.72 133.312 194.441C133.262 194.162 133.127 193.945 132.905 193.789C132.683 193.634 132.432 193.581 132.153 193.63C131.874 193.679 131.657 193.815 131.501 194.037C131.346 194.259 131.293 194.509 131.342 194.789C131.391 195.068 131.527 195.285 131.749 195.44C131.971 195.596 132.221 195.649 132.5 195.6ZM131.806 191.66C132.085 191.611 132.302 191.476 132.458 191.254C132.613 191.032 132.666 190.781 132.617 190.502C132.568 190.223 132.432 190.006 132.21 189.85C131.988 189.695 131.738 189.642 131.458 189.691C131.179 189.74 130.962 189.876 130.807 190.098C130.651 190.32 130.598 190.57 130.647 190.849C130.697 191.128 130.832 191.346 131.054 191.501C131.276 191.657 131.527 191.71 131.806 191.66Z" fill="#6DDFA6"/>
<path d="M75.4682 143.273C75.089 143.206 74.7883 143.014 74.5659 142.696C74.3435 142.379 74.2657 142.03 74.3325 141.651L74.7428 139.325C74.7651 139.198 74.8245 139.096 74.9212 139.018C75.0178 138.941 75.1313 138.901 75.2618 138.901C75.5537 138.857 75.81 138.731 76.0306 138.521C76.2513 138.311 76.3879 138.057 76.4406 137.758C76.4933 137.459 76.4518 137.174 76.3163 136.901C76.1808 136.628 75.9832 136.422 75.7237 136.281C75.6013 136.236 75.5081 136.16 75.4439 136.054C75.3796 135.948 75.3587 135.832 75.381 135.705L75.7912 133.379C75.858 133 76.0503 132.699 76.3679 132.476C76.6855 132.254 77.0339 132.176 77.413 132.243L88.4429 134.188C88.822 134.255 89.1228 134.447 89.3452 134.765C89.5676 135.082 89.6454 135.431 89.5785 135.81L89.1683 138.136C89.146 138.263 89.0865 138.365 88.9899 138.443C88.8932 138.52 88.7797 138.56 88.6493 138.56C88.3573 138.604 88.101 138.73 87.8804 138.94C87.6598 139.15 87.5231 139.404 87.4704 139.703C87.4178 140.002 87.4592 140.287 87.5948 140.56C87.7303 140.833 87.9278 141.039 88.1874 141.18C88.3097 141.225 88.403 141.301 88.4672 141.407C88.5314 141.513 88.5524 141.629 88.5301 141.756L88.1199 144.082C88.053 144.461 87.8608 144.762 87.5432 144.985C87.2256 145.207 86.8772 145.285 86.498 145.218L75.4682 143.273ZM75.7113 141.894L86.7411 143.839L87.0511 142.081C86.6705 141.753 86.3937 141.358 86.2207 140.895C86.0476 140.432 86.0046 139.954 86.0917 139.46C86.1788 138.966 86.3829 138.531 86.7038 138.155C87.0248 137.779 87.4201 137.502 87.8898 137.325L88.1998 135.567L77.1699 133.622L76.86 135.38C77.2405 135.707 77.5173 136.103 77.6904 136.566C77.8635 137.029 77.9064 137.507 77.8193 138.001C77.7322 138.495 77.5282 138.93 77.2072 139.306C76.8862 139.682 76.4909 139.959 76.0212 140.136L75.7113 141.894ZM81.3478 142.177C81.5431 142.212 81.7185 142.175 81.8739 142.066C82.0293 141.957 82.1242 141.805 82.1587 141.609C82.1931 141.414 82.1559 141.239 82.0471 141.083C81.9383 140.928 81.7862 140.833 81.5909 140.799C81.3955 140.764 81.2202 140.801 81.0647 140.91C80.9093 141.019 80.8144 141.171 80.7799 141.366C80.7455 141.562 80.7827 141.737 80.8915 141.892C81.0004 142.048 81.1524 142.143 81.3478 142.177ZM81.834 139.42C82.0293 139.454 82.2047 139.417 82.3601 139.308C82.5155 139.199 82.6105 139.047 82.6449 138.852C82.6793 138.657 82.6421 138.481 82.5333 138.326C82.4245 138.17 82.2724 138.076 82.0771 138.041C81.8818 138.007 81.7064 138.044 81.551 138.153C81.3955 138.262 81.3006 138.414 81.2662 138.609C81.2317 138.804 81.2689 138.98 81.3777 139.135C81.4866 139.29 81.6387 139.385 81.834 139.42ZM82.3202 136.662C82.5155 136.697 82.6909 136.66 82.8463 136.551C83.0017 136.442 83.0967 136.29 83.1311 136.095C83.1655 135.899 83.1284 135.724 83.0195 135.568C82.9107 135.413 82.7586 135.318 82.5633 135.284C82.368 135.249 82.1926 135.286 82.0372 135.395C81.8817 135.504 81.7868 135.656 81.7524 135.851C81.7179 136.047 81.7551 136.222 81.864 136.378C81.9728 136.533 82.1249 136.628 82.3202 136.662Z" fill="#FFF1E6"/>
</svg>
