<svg xmlns="http://www.w3.org/2000/svg" width="196" height="198" viewBox="0 0 196 198" fill="none">
  <rect x="47.5537" y="4.63281" width="7.64924" height="44.1956" rx="3.82462" transform="rotate(-30 47.5537 4.63281)" fill="#6DDFA6"/>
  <rect x="69.6699" y="10.3721" width="7.64924" height="29.3582" rx="3.82462" transform="rotate(-18.6424 69.6699 10.3721)" fill="#FFCE00"/>
  <rect x="43.6934" y="32.9531" width="7.64924" height="25.2021" rx="3.82462" transform="rotate(-45 43.6934 32.9531)" fill="#FFF1E6"/>
  <rect x="45.0049" y="51.2695" width="7.64924" height="13.0083" rx="3.82462" transform="rotate(-55 45.0049 51.2695)" fill="#FFE7FB"/>
  <rect x="101.916" y="25.4551" width="7.64924" height="13.0083" rx="3.82462" transform="rotate(15 101.916 25.4551)" fill="#FFA86D"/>
  <rect x="89.874" y="17.1699" width="7.64924" height="20.0921" rx="3.82462" transform="rotate(2.39165 89.874 17.1699)" fill="#FFE7FB"/>
  <g style="mix-blend-mode:multiply">
    <rect x="43.3047" y="5.48242" width="7.64924" height="20.0921" rx="3.82462" transform="rotate(-30 43.3047 5.48242)" fill="#FFEDA5"/>
  </g>
  <rect x="148.273" y="194.176" width="7.64924" height="44.1956" rx="3.82462" transform="rotate(150 148.273 194.176)" fill="#6DDFA6"/>
  <rect x="126.157" y="188.436" width="7.64924" height="29.3582" rx="3.82462" transform="rotate(161.358 126.157 188.436)" fill="#FFCE00"/>
  <rect x="152.134" y="165.854" width="7.64924" height="25.2021" rx="3.82462" transform="rotate(135 152.134 165.854)" fill="#FFF1E6"/>
  <rect x="150.822" y="147.538" width="7.64924" height="13.0083" rx="3.82462" transform="rotate(125 150.822 147.538)" fill="#FFE7FB"/>
  <rect x="93.9111" y="173.352" width="7.64924" height="13.0083" rx="3.82462" transform="rotate(-165 93.9111 173.352)" fill="#FFA86D"/>
  <rect x="105.953" y="181.637" width="7.64924" height="20.0921" rx="3.82462" transform="rotate(-177.608 105.953 181.637)" fill="#FFE7FB"/>
  <g style="mix-blend-mode:multiply">
    <rect x="152.522" y="193.325" width="7.64924" height="20.0921" rx="3.82462" transform="rotate(150 152.522 193.325)" fill="#FFEDA5"/>
  </g>
  <path d="M16.3142 56.7238L14.8747 55.304C14.576 55.0093 14.4251 54.6507 14.4222 54.2281C14.4193 53.8055 14.5651 53.4448 14.8598 53.1461L16.2796 51.7066L16.2786 49.616C16.2862 49.4091 16.3275 49.2133 16.4027 49.0284C16.4779 48.8436 16.5824 48.6832 16.7163 48.5474C16.8503 48.4116 17.0091 48.3049 17.1929 48.2272C17.3767 48.1495 17.572 48.1054 17.7787 48.095L19.8691 48.0671L21.2889 46.6276C21.5836 46.3288 21.9422 46.178 22.3648 46.1751C22.7874 46.1721 23.1481 46.318 23.4468 46.6127L24.8863 48.0324L26.9769 48.0315C27.1838 48.0391 27.3796 48.0804 27.5645 48.1556C27.7493 48.2307 27.9097 48.3353 28.0455 48.4692C28.1813 48.6031 28.288 48.762 28.3657 48.9458C28.4434 49.1296 28.4875 49.3249 28.4979 49.5316L28.5258 51.622L29.9653 53.0418C30.2641 53.3364 30.4149 53.6951 30.4179 54.1177C30.4208 54.5403 30.2749 54.9009 29.9802 55.1997L28.5605 56.6392L28.5614 58.7298C28.5539 58.9367 28.5125 59.1325 28.4373 59.3174C28.3622 59.5022 28.2576 59.6625 28.1237 59.7983C27.9898 59.9341 27.8309 60.0409 27.6471 60.1186C27.4633 60.1963 27.268 60.2404 27.0613 60.2508L24.9709 60.2787L23.5511 61.7182C23.2565 62.017 22.8978 62.1678 22.4752 62.1707C22.0527 62.1736 21.692 62.0278 21.3932 61.7331L19.9537 60.3133L17.8631 60.3143C17.6563 60.3067 17.4604 60.2654 17.2755 60.1902C17.0907 60.1151 16.9304 60.0105 16.7946 59.8766C16.6588 59.7426 16.552 59.5838 16.4743 59.4C16.3966 59.2162 16.3526 59.0209 16.3421 58.8142L16.3142 56.7238ZM17.8475 56.0927L17.8661 58.7902L20.5635 58.7715L22.4647 60.6467L24.3399 58.7455L27.0373 58.7268L27.0187 56.0294L28.8938 54.1282L26.9926 52.253L26.974 49.5556L24.2765 49.5742L22.3753 47.6991L20.5002 49.6003L17.8028 49.6189L17.8214 52.3164L15.9462 54.2176L17.8475 56.0927Z" fill="#6DDFA6"/>
  <path d="M18.5333 175.766H15.7749C15.2024 175.766 14.7123 175.563 14.3046 175.155C13.8969 174.747 13.6931 174.257 13.6931 173.685V170.926L11.6893 168.896C11.4985 168.688 11.351 168.458 11.247 168.207C11.1429 167.955 11.0908 167.699 11.0908 167.439C11.0908 167.179 11.1429 166.923 11.247 166.672C11.351 166.42 11.4985 166.19 11.6893 165.982L13.6931 163.952V161.194C13.6931 160.621 13.8969 160.131 14.3046 159.724C14.7123 159.316 15.2024 159.112 15.7749 159.112H18.5333L20.563 157.108C20.7712 156.917 21.0011 156.77 21.2526 156.666C21.5042 156.562 21.7601 156.51 22.0203 156.51C22.2805 156.51 22.5364 156.562 22.7879 156.666C23.0395 156.77 23.2694 156.917 23.4775 157.108L25.5073 159.112H28.2657C28.8382 159.112 29.3283 159.316 29.736 159.724C30.1436 160.131 30.3475 160.621 30.3475 161.194V163.952L32.3512 165.982C32.5421 166.19 32.6895 166.42 32.7936 166.672C32.8977 166.923 32.9497 167.179 32.9497 167.439C32.9497 167.699 32.8977 167.955 32.7936 168.207C32.6895 168.458 32.5421 168.688 32.3512 168.896L30.3475 170.926V173.685C30.3475 174.257 30.1436 174.747 29.736 175.155C29.3283 175.563 28.8382 175.766 28.2657 175.766H25.5073L23.4775 177.77C23.2694 177.961 23.0395 178.108 22.7879 178.213C22.5364 178.317 22.2805 178.369 22.0203 178.369C21.7601 178.369 21.5042 178.317 21.2526 178.213C21.0011 178.108 20.7712 177.961 20.563 177.77L18.5333 175.766ZM19.418 173.685L22.0203 176.287L24.6225 173.685H28.2657V170.041L30.8679 167.439L28.2657 164.837V161.194H24.6225L22.0203 158.592L19.418 161.194H15.7749V164.837L13.1726 167.439L15.7749 170.041V173.685H19.418Z" fill="#FFEDA5"/>
  <path d="M161.458 43.6085L160.018 42.1888C159.72 41.8941 159.569 41.5355 159.566 41.1129C159.563 40.6903 159.709 40.3296 160.003 40.0308L161.423 38.5913L161.422 36.5007C161.43 36.2939 161.471 36.098 161.546 35.9132C161.621 35.7283 161.726 35.568 161.86 35.4322C161.994 35.2964 162.153 35.1896 162.336 35.1119C162.52 35.0342 162.716 34.9902 162.922 34.9798L165.013 34.9518L166.432 33.5123C166.727 33.2136 167.086 33.0627 167.508 33.0598C167.931 33.0569 168.292 33.2028 168.59 33.4974L170.03 34.9172L172.12 34.9163C172.327 34.9238 172.523 34.9652 172.708 35.0403C172.893 35.1155 173.053 35.22 173.189 35.354C173.325 35.4879 173.432 35.6468 173.509 35.8306C173.587 36.0144 173.631 36.2096 173.641 36.4164L173.669 38.5068L175.109 39.9265C175.408 40.2212 175.558 40.5798 175.561 41.0024C175.564 41.425 175.418 41.7857 175.124 42.0845L173.704 43.524L173.705 45.6146C173.697 45.8214 173.656 46.0173 173.581 46.2021C173.506 46.387 173.401 46.5473 173.267 46.6831C173.133 46.8189 172.974 46.9257 172.791 47.0034C172.607 47.0811 172.412 47.1251 172.205 47.1355L170.114 47.1635L168.695 48.603C168.4 48.9017 168.041 49.0526 167.619 49.0555C167.196 49.0584 166.836 48.9125 166.537 48.6179L165.097 47.1981L163.007 47.199C162.8 47.1915 162.604 47.1501 162.419 47.075C162.234 46.9998 162.074 46.8953 161.938 46.7613C161.802 46.6274 161.696 46.4685 161.618 46.2847C161.54 46.1009 161.496 45.9057 161.486 45.6989L161.458 43.6085ZM162.991 42.9775L163.01 45.6749L165.707 45.6563L167.608 47.5314L169.483 45.6302L172.181 45.6116L172.162 42.9142L174.037 41.013L172.136 39.1378L172.118 36.4404L169.42 36.459L167.519 34.5839L165.644 36.4851L162.946 36.5037L162.965 39.2011L161.09 41.1024L162.991 42.9775Z" fill="#FFE7FB"/>
  <path d="M160.584 163.396L159.144 161.976C158.845 161.681 158.695 161.323 158.692 160.9C158.689 160.477 158.835 160.117 159.129 159.818L160.549 158.378L160.548 156.288C160.556 156.081 160.597 155.885 160.672 155.7C160.747 155.515 160.852 155.355 160.986 155.219C161.12 155.084 161.279 154.977 161.462 154.899C161.646 154.821 161.842 154.777 162.048 154.767L164.139 154.739L165.558 153.299C165.853 153.001 166.212 152.85 166.634 152.847C167.057 152.844 167.418 152.99 167.716 153.285L169.156 154.704L171.246 154.703C171.453 154.711 171.649 154.752 171.834 154.827C172.019 154.903 172.179 155.007 172.315 155.141C172.451 155.275 172.558 155.434 172.635 155.618C172.713 155.801 172.757 155.997 172.767 156.203L172.795 158.294L174.235 159.714C174.534 160.008 174.684 160.367 174.687 160.79C174.69 161.212 174.544 161.573 174.25 161.872L172.83 163.311L172.831 165.402C172.823 165.609 172.782 165.804 172.707 165.989C172.632 166.174 172.527 166.334 172.393 166.47C172.259 166.606 172.1 166.713 171.917 166.79C171.733 166.868 171.538 166.912 171.331 166.923L169.24 166.951L167.821 168.39C167.526 168.689 167.167 168.84 166.745 168.843C166.322 168.846 165.962 168.7 165.663 168.405L164.223 166.985L162.133 166.986C161.926 166.979 161.73 166.937 161.545 166.862C161.36 166.787 161.2 166.682 161.064 166.548C160.928 166.415 160.822 166.256 160.744 166.072C160.666 165.888 160.622 165.693 160.612 165.486L160.584 163.396ZM162.117 162.765L162.136 165.462L164.833 165.443L166.734 167.319L168.609 165.417L171.307 165.399L171.288 162.701L173.163 160.8L171.262 158.925L171.243 156.227L168.546 156.246L166.645 154.371L164.77 156.272L162.072 156.291L162.091 158.988L160.216 160.889L162.117 162.765Z" fill="#FFF1E6"/>
  <path d="M17.9787 21.9087L19.4789 17.8655C19.5839 17.5698 19.7424 17.3272 19.9545 17.1377C20.1666 16.9483 20.4075 16.8115 20.6771 16.7274C20.9468 16.6433 21.2227 16.6188 21.5049 16.6541C21.7871 16.6893 22.0555 16.7987 22.31 16.9823L25.8429 19.4553L30.0623 19.5444C30.4891 19.5427 30.8651 19.6679 31.1903 19.9198C31.5154 20.1718 31.7388 20.4925 31.8603 20.882C31.9163 21.0617 31.9462 21.2497 31.9499 21.4458C31.9535 21.6419 31.9211 21.841 31.8527 22.0432L30.4746 26.3194L31.714 29.9763C31.8926 30.496 31.8582 30.9916 31.6108 31.4633C31.3635 31.9349 31.0001 32.2455 30.5208 32.3951C30.4908 32.4044 30.319 32.4333 30.0054 32.4819L25.6329 32.6131L21.9614 34.9913C21.8959 35.0446 21.8193 35.0891 21.7318 35.1246C21.6443 35.1601 21.563 35.1896 21.4881 35.2129C21.0088 35.3625 20.5333 35.3136 20.0616 35.0662C19.59 34.8189 19.2799 34.4307 19.1313 33.9017L18.0646 30.1663L14.5289 27.4476C14.3577 27.3202 14.2178 27.1748 14.1093 27.0114C14.0008 26.848 13.9185 26.6765 13.8624 26.4967C13.7456 26.1222 13.7456 25.7401 13.8623 25.3502C13.979 24.9604 14.2111 24.6374 14.5585 24.381L17.9787 21.9087ZM19.5634 23.1156L15.653 25.9135L19.6939 29.0663L20.9428 33.3859L25.0511 30.7482L29.9375 30.6045L28.5018 26.3185L30.0473 21.4722L25.2256 21.3491L21.2379 18.5249L19.5634 23.1156Z" fill="#FFE7FB"/>
  <path d="M179.44 127.403L183.668 125.138C183.973 124.969 184.284 124.883 184.601 124.882C184.917 124.88 185.219 124.943 185.505 125.072C185.792 125.2 186.04 125.383 186.249 125.621C186.459 125.858 186.602 126.147 186.679 126.487L187.802 131.151L191.254 134.333C191.611 134.646 191.832 135.027 191.917 135.477C192.003 135.926 191.953 136.358 191.767 136.772C191.681 136.963 191.568 137.142 191.426 137.308C191.285 137.474 191.111 137.616 190.905 137.735L186.607 140.284L184.947 144.245C184.713 144.81 184.319 145.198 183.765 145.409C183.212 145.62 182.68 145.611 182.17 145.382C182.138 145.368 181.974 145.266 181.677 145.075L177.935 141.964L173.123 141.242C173.029 141.238 172.933 141.219 172.834 141.184C172.734 141.149 172.645 141.114 172.565 141.078C172.056 140.85 171.695 140.459 171.484 139.905C171.273 139.352 171.301 138.8 171.567 138.249L173.429 134.35L172.484 129.479C172.435 129.247 172.426 129.023 172.456 128.807C172.486 128.591 172.543 128.387 172.629 128.196C172.807 127.798 173.089 127.479 173.473 127.24C173.858 127.001 174.289 126.903 174.768 126.945L179.44 127.403ZM179.872 129.577L174.551 129.028L175.597 134.633L173.457 139.154L178.824 139.981L183.003 143.46L184.963 138.83L189.821 135.929L185.893 132.275L184.649 126.983L179.872 129.577Z" fill="#6DDFA6"/>
  <path d="M33.4547 184.53L35.1009 181.392C35.2174 181.162 35.3721 180.981 35.5648 180.849C35.7575 180.717 35.9681 180.631 36.1967 180.59C36.4253 180.55 36.6527 180.559 36.879 180.617C37.1053 180.676 37.3125 180.793 37.5007 180.969L40.1209 183.355L43.5502 183.869C43.8983 183.913 44.1916 184.054 44.4302 184.294C44.6688 184.533 44.8172 184.818 44.8754 185.148C44.9023 185.3 44.9069 185.457 44.8894 185.617C44.8718 185.777 44.8245 185.936 44.7476 186.093L43.1764 189.434L43.8033 192.544C43.8944 192.987 43.8144 193.387 43.5634 193.745C43.3124 194.104 42.9837 194.319 42.5774 194.39C42.552 194.395 42.409 194.401 42.1483 194.407L38.5711 194.056L35.3297 195.61C35.2707 195.646 35.2037 195.674 35.1286 195.694C35.0535 195.714 34.9842 195.729 34.9208 195.741C34.5144 195.812 34.132 195.723 33.7735 195.472C33.4151 195.221 33.203 194.872 33.1373 194.425L32.6594 191.269L30.0628 188.683C29.9366 188.561 29.8378 188.428 29.7665 188.283C29.6952 188.139 29.6461 187.99 29.6192 187.838C29.5633 187.521 29.6033 187.209 29.7392 186.904C29.8752 186.598 30.0982 186.359 30.4082 186.187L33.4547 184.53ZM34.6197 185.68L31.1396 187.55L34.1025 190.543L34.6678 194.194L38.2923 192.475L42.2897 192.87L41.5687 189.227L43.336 185.439L39.4194 184.833L36.4654 182.114L34.6197 185.68Z" fill="#FFE7FB"/>
  <path d="M170.038 5.90212L173.806 2.93264C174.077 2.71268 174.368 2.57421 174.679 2.51726C174.99 2.4603 175.298 2.47002 175.603 2.54642C175.908 2.62281 176.184 2.75951 176.431 2.95652C176.679 3.15352 176.87 3.41294 177.005 3.73476L178.927 8.13023L182.881 10.66C183.288 10.9058 183.572 11.2426 183.735 11.6702C183.898 12.0979 183.924 12.5319 183.813 12.9721C183.762 13.1752 183.682 13.371 183.572 13.5593C183.461 13.7476 183.315 13.9179 183.133 14.0702L179.346 17.3318L178.404 21.5222C178.272 22.1191 177.953 22.5697 177.444 22.8742C176.936 23.1787 176.411 23.263 175.869 23.1272C175.835 23.1187 175.656 23.0466 175.33 22.911L171.102 20.5016L166.238 20.6319C166.145 20.6446 166.046 20.6424 165.943 20.6254C165.839 20.6084 165.745 20.5893 165.66 20.5681C165.118 20.4323 164.695 20.1103 164.391 19.6021C164.086 19.0939 164.017 18.5456 164.182 17.9573L165.334 13.7923L163.553 9.16199C163.464 8.9418 163.415 8.72269 163.407 8.50466C163.399 8.28664 163.42 8.07604 163.471 7.87287C163.577 7.4496 163.798 7.08672 164.135 6.78425C164.472 6.48177 164.879 6.30952 165.358 6.26748L170.038 5.90212ZM170.843 7.9664L165.509 8.35676L167.519 13.6921L166.201 18.5173L171.63 18.3937L176.353 21.0891L177.474 16.1876L181.75 12.4818L177.243 9.57064L175.094 4.57812L170.843 7.9664Z" fill="#FFF1E6"/>
  <path fill-rule="evenodd" clip-rule="evenodd" d="M140.986 44.2072C141.566 45.8662 140.692 47.6819 139.033 48.2626C134.042 50.0099 128.792 51.5913 123.625 53.148C119.87 54.2792 116.158 55.3973 112.621 56.5565C98.2987 61.2493 84.1379 66.4928 69.9806 71.8435C66.2744 73.2443 62.5318 74.7297 58.7568 76.2279C50.18 79.632 41.4358 83.1024 32.5691 85.7983C32.3322 85.8703 32.0934 85.9133 31.8566 85.9294C32.7603 86.3779 33.4364 87.2477 33.5933 88.3216C34.2428 92.7655 32.6617 97.3478 28.5653 100.028C28.3636 100.16 28.1531 100.336 27.7631 100.673C27.7473 100.686 27.7311 100.7 27.7146 100.715C27.5103 100.891 27.2452 101.121 26.9387 101.359C26.912 101.466 26.8877 101.582 26.8677 101.695C26.8384 101.861 26.8272 101.971 26.8252 102C26.8185 102.095 26.814 102.197 26.8136 102.297C26.8136 102.299 26.8136 102.301 26.8136 102.304C26.8761 102.351 26.9544 102.409 27.0558 102.484C27.0759 102.499 27.0983 102.516 27.1226 102.534C27.5504 102.848 28.5924 103.615 29.1924 104.864C30.0998 106.755 29.6555 108.495 29.2944 109.505C29.1622 109.875 28.9903 110.277 28.8736 110.55C28.8434 110.621 28.8169 110.683 28.7957 110.733C28.658 111.062 28.6147 111.2 28.6001 111.264C28.5324 111.564 28.4889 111.876 28.4704 112.191C28.5025 112.209 28.5363 112.227 28.5724 112.247L28.584 112.253C29.3974 112.693 30.8019 113.464 31.6152 114.884C32.572 116.555 32.3171 118.288 31.8963 119.635C31.7078 120.238 31.6973 120.357 31.6943 120.395L31.6942 120.397C31.6923 120.42 31.682 120.545 31.7824 121.115C31.8465 121.478 31.886 121.864 31.9135 122.133L31.9169 122.167C31.9493 122.483 31.973 122.71 32.0056 122.917C32.0153 122.98 32.0247 123.032 32.0336 123.077C33.4437 124.607 35.0067 126.369 35.7612 129.278C36.4842 132.066 37.3172 134.787 38.4148 137.269C38.6105 137.711 38.8683 138.09 38.9893 138.212C39.9073 139.14 40.3409 140.195 40.5866 140.955C40.667 141.204 40.7356 141.449 40.7926 141.664C41.2888 141.67 42.078 141.699 42.9023 141.925C44.4767 142.356 47.0177 143.137 48.8503 144.794C50.154 145.973 50.255 147.986 49.076 149.289C47.8971 150.593 45.8844 150.694 44.5808 149.515C43.9857 148.977 42.8105 148.5 41.2209 148.064C41.1741 148.051 41.0654 148.032 40.5123 148.026C40.4837 148.026 40.4528 148.026 40.4199 148.025C39.9659 148.022 39.1246 148.015 38.2579 147.796C37.1047 147.503 36.3514 146.757 35.9791 146.317C35.5636 145.826 35.1926 145.206 34.9797 144.534C34.872 144.194 34.7842 143.853 34.7198 143.603L34.7075 143.555C34.6339 143.269 34.5839 143.08 34.5299 142.913C34.481 142.762 34.4454 142.685 34.4294 142.653C33.5855 141.787 32.9596 140.671 32.5936 139.844C31.2948 136.908 30.3604 133.81 29.5997 130.876C29.2469 129.515 28.619 128.763 27.1273 127.146C26.0838 126.014 25.8225 124.575 25.7172 123.904C25.6564 123.516 25.6172 123.133 25.5888 122.855L25.5847 122.816C25.5513 122.489 25.5329 122.328 25.5138 122.22C25.3847 121.488 25.2833 120.735 25.3482 119.901C25.4043 119.181 25.5755 118.538 25.7518 117.96C25.691 117.925 25.625 117.889 25.5532 117.85L25.5416 117.844C25.511 117.827 25.477 117.809 25.4404 117.79C25 117.554 24.1507 117.099 23.4863 116.407C22.5536 115.434 22.1492 114.248 22.1031 112.987C22.0652 111.95 22.1587 110.89 22.3918 109.86C22.5362 109.221 22.7654 108.654 22.9246 108.274C22.986 108.128 23.0372 108.008 23.0814 107.904C23.1379 107.772 23.1829 107.666 23.223 107.567C23.2156 107.561 23.2079 107.555 23.2 107.55C22.999 107.401 22.6687 107.156 22.3594 106.881C21.998 106.56 21.5498 106.1 21.1815 105.47C20.6727 104.6 20.5354 103.681 20.485 103.139C20.4282 102.528 20.4471 101.956 20.4757 101.552C20.5143 101.005 20.6409 100.222 20.8525 99.4818C20.9595 99.1078 21.1159 98.6456 21.3455 98.1912C21.5351 97.816 21.9685 97.0445 22.8106 96.4936C23.0027 96.3678 23.2064 96.1978 23.6011 95.8567C23.6145 95.8451 23.6281 95.8333 23.6421 95.8212C23.9829 95.5265 24.4896 95.0883 25.08 94.7019C26.8051 93.5732 27.6404 91.6061 27.2949 89.2421C27.0407 87.5029 28.2446 85.8868 29.9838 85.6326C30.067 85.6205 30.1499 85.6117 30.2324 85.6061C29.4728 85.2302 28.8642 84.5538 28.5982 83.679C28.0869 81.9973 29.0358 80.2195 30.7175 79.7082C39.3262 77.0908 47.6612 73.7819 56.1158 70.4255C59.9504 68.9032 63.8097 67.3711 67.7302 65.8893C81.9031 60.5327 96.1744 55.2471 110.639 50.5076C114.55 49.2258 118.341 48.0872 122.088 46.9616C127.051 45.4705 131.938 44.0024 136.93 42.2548C138.589 41.674 140.405 42.5481 140.986 44.2072ZM144.283 42.2104C146.003 41.8467 147.692 42.946 148.055 44.6657C148.402 46.3046 149.199 47.9147 150.26 49.0317C151.283 50.1088 152.426 50.6231 153.684 50.5567C153.688 50.5563 153.71 50.5541 153.761 50.5458C153.836 50.5334 153.918 50.517 154.071 50.4863L154.11 50.4784C154.368 50.4263 154.862 50.3263 155.403 50.3035C156.017 50.2778 156.756 50.3285 157.484 50.4888C158.132 50.6317 159.208 50.9535 160.095 51.7714C161.167 52.7606 161.415 54.1058 161.493 54.5361C161.551 54.8566 161.585 55.1571 161.607 55.3718C161.619 55.4852 161.627 55.5635 161.633 55.6232C161.641 55.7061 161.646 55.7529 161.653 55.8072C161.804 56.9587 161.494 57.9643 161.352 58.4157C161.315 58.5365 161.276 58.6554 161.245 58.7494L161.237 58.7731C161.202 58.8792 161.177 58.9566 161.155 59.0273C161.124 59.128 161.114 59.1731 161.112 59.181C161.09 59.3302 161.075 59.4807 161.071 59.6231C161.068 59.7041 161.069 59.7759 161.072 59.8382C161.139 59.8745 161.219 59.9159 161.32 59.968L161.381 59.9988C161.518 60.0692 161.7 60.1622 161.877 60.2588C162.677 60.6946 164.306 61.6733 164.839 63.8207C165.171 65.1588 164.993 66.2843 164.731 67.1606C164.672 67.357 164.606 67.5481 164.545 67.7192C165.093 68.1412 165.465 68.6371 165.704 69.0222C166.052 69.5826 166.285 70.1766 166.438 70.7112C166.704 71.6408 166.91 73.0588 166.486 74.3583C166.416 74.5721 166.376 75.1025 166.661 76.0327C166.93 76.9128 167.395 77.8322 167.867 78.5934C168.056 78.8997 168.243 79.1683 168.479 79.5059C168.568 79.6346 168.665 79.7733 168.771 79.9279C169.123 80.4393 169.543 81.0733 169.914 81.8152C170.266 82.5183 170.586 83.3415 170.827 83.9617C170.908 84.1719 170.981 84.3588 171.042 84.5098C171.303 85.1467 171.584 85.7493 171.9 86.4279C172 86.6417 172.103 86.8631 172.21 87.0954C172.636 88.0181 173.099 89.0632 173.47 90.2024C173.647 90.7444 173.871 91.3687 174.112 92.0426C174.618 93.4532 175.201 95.0807 175.593 96.624C175.784 96.9458 175.922 97.3072 175.991 97.6978C176.016 97.8422 176.042 98.0053 176.06 98.1669C176.069 98.2464 176.08 98.3653 176.083 98.5037L176.083 98.5067C176.085 98.5946 176.094 98.9198 176.007 99.3129C175.968 99.4925 175.85 99.9745 175.49 100.481C175.06 101.086 174.183 101.824 172.888 101.824C172.836 101.824 172.784 101.822 172.734 101.82C172.653 101.84 172.572 101.856 172.489 101.87C170.956 102.123 169.349 103.818 168.399 106.479C168.304 106.747 168.243 107.051 168.234 107.312C168.228 107.479 168.245 107.565 168.249 107.587C168.99 109.16 168.331 111.041 166.762 111.805C165.182 112.574 163.277 111.916 162.508 110.335C161.472 108.205 161.884 105.798 162.404 104.339C163.373 101.625 165.424 98.0648 168.895 96.3964C168.711 95.846 168.51 95.2898 168.298 94.7013C168.02 93.9337 167.723 93.1112 167.418 92.1754C167.167 91.4053 166.834 90.6371 166.43 89.7617C166.348 89.584 166.262 89.3982 166.172 89.2059C165.843 88.5021 165.475 87.7119 165.15 86.9181C164.995 86.5386 164.875 86.2271 164.769 85.9532C164.578 85.4601 164.434 85.0885 164.221 84.6611C164.053 84.3254 163.836 83.9844 163.527 83.5359C163.467 83.4484 163.4 83.3516 163.327 83.2475C163.068 82.8762 162.745 82.4123 162.457 81.9478C161.8 80.8879 161.053 79.4599 160.575 77.8966C160.143 76.4877 159.831 74.6488 160.314 72.7948C159.629 72.5205 158.314 71.8091 157.883 70.1003C157.535 68.7217 157.931 67.3984 158.06 66.9684C158.063 66.9559 158.067 66.9442 158.07 66.9333C158.193 66.5192 158.334 66.15 158.431 65.8945L158.434 65.8868C158.464 65.8079 158.49 65.7402 158.512 65.6811C158.505 65.6776 158.498 65.674 158.491 65.6704L158.418 65.6329C158.253 65.5485 158.035 65.4359 157.81 65.3075C157.368 65.0557 156.739 64.6546 156.176 64.0252C155.226 62.9635 154.889 61.7135 154.769 60.7831C154.647 59.8309 154.715 58.9244 154.817 58.235C154.881 57.8016 154.99 57.42 155.071 57.1555C155.113 57.0194 155.156 56.8884 155.19 56.7856L155.194 56.7725C155.196 56.7655 155.199 56.7587 155.201 56.752C154.937 56.8049 154.498 56.8875 154.028 56.9127C150.526 57.1003 147.663 55.5406 145.644 53.4152C143.663 51.3289 142.383 48.6062 141.828 45.9827C141.464 44.2631 142.563 42.5741 144.283 42.2104ZM163.675 115.025C164.17 116.712 163.203 118.48 161.517 118.974C147.162 123.183 132.832 127.392 118.599 131.867C102.59 136.9 86.8586 142.619 71.3068 148.958C69.4627 149.709 67.556 150.537 65.6083 151.382C61.6239 153.112 57.4679 154.915 53.3254 156.296C51.6578 156.851 49.8555 155.95 49.2999 154.282C48.7443 152.615 49.6457 150.812 51.3133 150.257C55.204 148.96 58.8904 147.358 62.7081 145.699C64.7206 144.824 66.7697 143.933 68.9044 143.063C84.6065 136.664 100.503 130.884 116.69 125.795C130.991 121.298 145.378 117.073 159.726 112.866C161.413 112.372 163.181 113.338 163.675 115.025Z" fill="#6DDFA6"/>
  <g style="mix-blend-mode:multiply">
    <path fill-rule="evenodd" clip-rule="evenodd" d="M59.8097 71.2616C61.5032 70.7909 63.2577 71.7822 63.7284 73.4757C64.5284 76.3541 65.6755 78.938 66.9528 81.8152C67.3174 82.6364 67.6926 83.4814 68.0733 84.3641C68.7695 85.9781 68.0255 87.8508 66.4115 88.547C64.7975 89.2432 62.9248 88.4992 62.2286 86.8852C61.9099 86.1465 61.5758 85.3953 61.2358 84.6308C59.9282 81.691 58.5336 78.5551 57.5956 75.1803C57.1249 73.4867 58.1162 71.7323 59.8097 71.2616Z" fill="#FFA86D"/>
  </g>
  <path fill-rule="evenodd" clip-rule="evenodd" d="M68.2429 93.3587C69.9609 92.9871 71.6548 94.0786 72.0265 95.7966C72.4218 97.6241 73.057 99.2588 73.7955 101.159C74.0645 101.852 74.3473 102.579 74.6371 103.364C75.2459 105.013 74.4028 106.843 72.7538 107.452C71.1049 108.061 69.2746 107.218 68.6658 105.569C68.4617 105.016 68.2345 104.432 67.9976 103.824C67.2107 101.803 66.3167 99.5078 65.805 97.1423C65.4334 95.4243 66.5249 93.7304 68.2429 93.3587Z" fill="#FFA86D"/>
  <path fill-rule="evenodd" clip-rule="evenodd" d="M74.9978 111.693C76.7158 111.321 78.4097 112.413 78.7813 114.131C79.1766 115.958 79.8119 117.593 80.5504 119.493C80.8194 120.186 81.1022 120.913 81.392 121.698C82.0008 123.347 81.1576 125.177 79.5087 125.786C77.8598 126.395 76.0295 125.552 75.4207 123.903C75.2166 123.35 74.9894 122.766 74.7525 122.158C73.9656 120.137 73.0716 117.842 72.5599 115.476C72.1883 113.758 73.2798 112.064 74.9978 111.693Z" fill="#FFA86D"/>
  <g style="mix-blend-mode:multiply">
    <path fill-rule="evenodd" clip-rule="evenodd" d="M80.866 127.898C82.5902 127.556 84.265 128.677 84.6069 130.401C84.9929 132.348 85.6587 134.015 86.4701 136.047C86.6995 136.621 86.9406 137.225 87.1902 137.872C87.8227 139.512 87.0061 141.354 85.3661 141.987C83.7261 142.619 81.8839 141.803 81.2513 140.163C81.0664 139.683 80.868 139.189 80.6637 138.679C79.8198 136.576 78.8752 134.221 78.3631 131.639C78.0213 129.915 79.1418 128.24 80.866 127.898Z" fill="#FFA86D"/>
  </g>
  <path d="M127.232 89.5053C123.454 89.5828 121.592 89.6836 117.876 90.0034C116.526 90.1262 115.849 88.3741 116.91 87.4404C119.795 84.9501 121.241 83.764 124.187 81.5159C124.682 81.1378 124.775 80.4484 124.377 79.927C123.794 79.217 123.535 78.8781 122.978 78.1482C122.6 77.6529 121.865 77.5541 121.369 77.9321C118.417 80.2262 116.991 81.4384 114.126 83.9548C113.065 84.8884 111.509 83.9308 111.884 82.5306C112.83 78.7973 113.313 76.9437 114.299 73.2625C114.451 72.6512 114.092 72.018 113.501 71.8918C112.64 71.6825 112.212 71.5549 111.351 71.3457C110.74 71.1934 110.127 71.579 109.994 72.2163C109.048 75.9497 108.565 77.8033 107.633 81.6086C107.304 83.015 105.47 83.26 104.967 81.9524C103.658 78.4544 102.981 76.7023 101.653 73.1782C101.451 72.5896 100.806 72.3392 100.232 72.6129C99.4283 73.0197 99.0036 73.2201 98.2202 73.653C97.6652 73.9528 97.3826 74.6635 97.6104 75.2322C102.494 88.1712 107.357 101.084 112.24 114.023C112.442 114.612 113.113 114.842 113.642 114.562C114.445 114.156 114.85 113.929 115.673 113.548C116.248 113.275 116.531 112.564 116.303 111.995C114.995 108.497 114.317 106.745 112.989 103.221C112.486 101.913 113.905 100.583 115.052 101.275C118.098 103.159 119.654 104.116 122.76 106.078C123.274 106.427 123.955 106.238 124.311 105.678C124.789 104.9 125.029 104.511 125.528 103.759C125.858 103.218 125.74 102.524 125.2 102.194C122.1 100.187 120.524 99.2029 117.439 97.2677C116.298 96.5295 116.781 94.6759 118.131 94.5531C121.827 94.2073 123.669 94.0804 127.453 93.9568C128.088 93.9253 128.576 93.4292 128.545 92.7933C128.524 91.9015 128.488 91.4754 128.447 90.5575C128.383 89.9875 127.868 89.4737 127.232 89.5053Z" fill="#1D8158"/>
  <path d="M142.823 31.5748C142.371 31.5353 141.998 31.3405 141.705 30.9904C141.411 30.6404 141.284 30.2393 141.323 29.7873L141.566 27.0135C141.579 26.8628 141.639 26.7369 141.744 26.6357C141.85 26.5345 141.979 26.4768 142.132 26.4626C142.47 26.3818 142.758 26.2068 142.996 25.9378C143.233 25.6687 143.367 25.3561 143.399 24.9999C143.43 24.6438 143.352 24.3126 143.165 24.0064C142.977 23.7002 142.724 23.4779 142.405 23.3395C142.257 23.299 142.14 23.2197 142.053 23.1017C141.967 22.9837 141.93 22.8494 141.944 22.6988L142.186 19.925C142.226 19.4729 142.421 19.1001 142.771 18.8063C143.121 18.5126 143.522 18.3855 143.974 18.4251L157.124 19.5755C157.576 19.6151 157.948 19.8099 158.242 20.1599C158.536 20.51 158.663 20.911 158.623 21.363L158.381 24.1368C158.368 24.2875 158.308 24.4134 158.203 24.5146C158.097 24.6158 157.968 24.6735 157.815 24.6877C157.477 24.7685 157.189 24.9435 156.951 25.2126C156.714 25.4817 156.579 25.7943 156.548 26.1504C156.517 26.5065 156.595 26.8377 156.782 27.1439C156.969 27.4502 157.223 27.6725 157.542 27.8108C157.69 27.8514 157.807 27.9307 157.894 28.0486C157.98 28.1666 158.016 28.3009 158.003 28.4516L157.761 31.2254C157.721 31.6774 157.526 32.0503 157.176 32.344C156.826 32.6377 156.425 32.7648 155.973 32.7253L142.823 31.5748ZM142.967 29.9311L156.117 31.0816L156.3 28.9858C155.82 28.6401 155.454 28.2044 155.203 27.6787C154.953 27.153 154.853 26.5956 154.905 26.0066C154.956 25.4176 155.151 24.886 155.489 24.4118C155.828 23.9376 156.263 23.572 156.796 23.315L156.98 21.2192L143.83 20.0688L143.647 22.1645C144.127 22.5102 144.493 22.9459 144.743 23.4717C144.994 23.9974 145.094 24.5547 145.042 25.1437C144.991 25.7327 144.796 26.2643 144.458 26.7385C144.119 27.2127 143.684 27.5784 143.151 27.8354L142.967 29.9311ZM149.614 29.6845C149.847 29.7048 150.049 29.6432 150.22 29.4994C150.391 29.3557 150.487 29.1674 150.508 28.9345C150.528 28.7017 150.466 28.4996 150.323 28.3283C150.179 28.157 149.991 28.0611 149.758 28.0408C149.525 28.0204 149.323 28.0821 149.151 28.2258C148.98 28.3695 148.884 28.5578 148.864 28.7907C148.844 29.0236 148.905 29.2257 149.049 29.397C149.193 29.5683 149.381 29.6641 149.614 29.6845ZM149.902 26.397C150.134 26.4174 150.336 26.3557 150.508 26.212C150.679 26.0682 150.775 25.8799 150.795 25.6471C150.816 25.4142 150.754 25.2121 150.61 25.0408C150.467 24.8695 150.278 24.7737 150.045 24.7533C149.812 24.7329 149.61 24.7946 149.439 24.9384C149.268 25.0821 149.172 25.2704 149.152 25.5033C149.131 25.7361 149.193 25.9382 149.337 26.1095C149.48 26.2808 149.669 26.3767 149.902 26.397ZM150.189 23.1096C150.422 23.13 150.624 23.0683 150.795 22.9245C150.967 22.7808 151.063 22.5925 151.083 22.3596C151.103 22.1268 151.042 21.9247 150.898 21.7534C150.754 21.5821 150.566 21.4862 150.333 21.4659C150.1 21.4455 149.898 21.5072 149.727 21.6509C149.555 21.7947 149.46 21.983 149.439 22.2158C149.419 22.4487 149.481 22.6508 149.624 22.8221C149.768 22.9934 149.956 23.0892 150.189 23.1096Z" fill="#6DDFA6"/>
  <path d="M52.2198 180.897C51.773 180.975 51.3624 180.884 50.988 180.622C50.6137 180.359 50.3872 180.005 50.3084 179.558L49.8249 176.816C49.7986 176.667 49.8233 176.53 49.899 176.405C49.9747 176.28 50.0846 176.191 50.2288 176.137C50.5347 175.972 50.7675 175.728 50.9272 175.407C51.087 175.086 51.1358 174.749 51.0737 174.397C51.0117 174.045 50.8506 173.745 50.5906 173.498C50.3306 173.25 50.0285 173.101 49.6844 173.05C49.5307 173.049 49.3969 173.003 49.283 172.911C49.1691 172.82 49.099 172.7 49.0728 172.551L48.5893 169.809C48.5105 169.362 48.6021 168.951 48.8642 168.577C49.1263 168.202 49.4808 167.976 49.9277 167.897L62.9271 165.605C63.374 165.526 63.7846 165.618 64.1589 165.88C64.5332 166.142 64.7598 166.496 64.8386 166.943L65.3221 169.685C65.3483 169.834 65.3236 169.971 65.2479 170.096C65.1723 170.221 65.0623 170.311 64.9182 170.364C64.6123 170.53 64.3795 170.773 64.2197 171.094C64.06 171.416 64.0111 171.753 64.0732 172.105C64.1353 172.457 64.2963 172.756 64.5564 173.004C64.8164 173.251 65.1185 173.4 65.4625 173.451C65.6163 173.452 65.7501 173.498 65.864 173.59C65.9779 173.682 66.0479 173.802 66.0742 173.951L66.5577 176.693C66.6365 177.14 66.5448 177.55 66.2827 177.925C66.0206 178.299 65.6661 178.526 65.2193 178.604L52.2198 180.897ZM51.9333 179.272L64.9328 176.979L64.5675 174.908C64.0139 174.698 63.548 174.372 63.1697 173.929C62.7914 173.486 62.5509 172.973 62.4483 172.391C62.3456 171.809 62.3963 171.245 62.6002 170.699C62.8042 170.154 63.1305 169.688 63.579 169.302L63.2136 167.23L50.2142 169.522L50.5795 171.594C51.133 171.803 51.599 172.13 51.9772 172.573C52.3555 173.015 52.596 173.528 52.6987 174.11C52.8013 174.693 52.7507 175.256 52.5467 175.802C52.3427 176.348 52.0165 176.814 51.568 177.2L51.9333 179.272ZM58.2898 177.313C58.52 177.272 58.6992 177.161 58.8275 176.977C58.9557 176.794 58.9996 176.588 58.959 176.357C58.9184 176.127 58.8065 175.948 58.6233 175.82C58.4401 175.691 58.2335 175.648 58.0033 175.688C57.7731 175.729 57.5938 175.841 57.4656 176.024C57.3373 176.207 57.2935 176.414 57.334 176.644C57.3746 176.874 57.4865 177.053 57.6697 177.182C57.8529 177.31 58.0596 177.354 58.2898 177.313ZM57.7167 174.063C57.9469 174.023 58.1262 173.911 58.2544 173.728C58.3827 173.544 58.4265 173.338 58.3859 173.107C58.3454 172.877 58.2335 172.698 58.0503 172.57C57.8671 172.442 57.6604 172.398 57.4302 172.438C57.2 172.479 57.0208 172.591 56.8925 172.774C56.7643 172.957 56.7204 173.164 56.761 173.394C56.8016 173.624 56.9135 173.803 57.0967 173.932C57.2798 174.06 57.4865 174.104 57.7167 174.063ZM57.1437 170.813C57.3739 170.773 57.5531 170.661 57.6814 170.478C57.8097 170.294 57.8535 170.088 57.8129 169.858C57.7723 169.627 57.6604 169.448 57.4772 169.32C57.2941 169.192 57.0874 169.148 56.8572 169.188C56.627 169.229 56.4477 169.341 56.3195 169.524C56.1912 169.707 56.1474 169.914 56.188 170.144C56.2286 170.374 56.3404 170.554 56.5236 170.682C56.7068 170.81 56.9135 170.854 57.1437 170.813Z" fill="#6DDFA6"/>
  <path d="M112.401 17.3971C112.088 17.4523 111.801 17.3881 111.539 17.2046C111.277 17.0212 111.118 16.773 111.063 16.4602L110.725 14.5408C110.706 14.4365 110.724 14.3406 110.777 14.2531C110.83 14.1655 110.907 14.1031 111.007 14.0658C111.222 13.9498 111.385 13.7794 111.496 13.5544C111.608 13.3294 111.642 13.0937 111.599 12.8473C111.555 12.6008 111.443 12.391 111.261 12.2179C111.079 12.0448 110.867 11.9403 110.626 11.9046C110.519 11.904 110.425 11.8717 110.345 11.8075C110.266 11.7434 110.217 11.6592 110.198 11.555L109.86 9.6355C109.805 9.3227 109.869 9.03529 110.052 8.77326C110.236 8.51123 110.484 8.35264 110.797 8.29748L119.896 6.69297C120.209 6.63782 120.496 6.70198 120.758 6.88545C121.021 7.06893 121.179 7.31706 121.234 7.62986L121.573 9.54932C121.591 9.65358 121.574 9.74948 121.521 9.83701C121.468 9.92454 121.391 9.98698 121.29 10.0243C121.076 10.1403 120.913 10.3107 120.801 10.5357C120.689 10.7606 120.655 10.9963 120.699 11.2428C120.742 11.4892 120.855 11.699 121.037 11.8722C121.219 12.0453 121.43 12.1498 121.671 12.1855C121.779 12.1861 121.872 12.2184 121.952 12.2825C122.032 12.3467 122.081 12.4309 122.099 12.5351L122.438 14.4546C122.493 14.7674 122.429 15.0548 122.245 15.3168C122.062 15.5789 121.814 15.7374 121.501 15.7926L112.401 17.3971ZM112.201 16.2597L121.3 14.6551L121.044 13.2049C120.657 13.0582 120.331 12.8298 120.066 12.5198C119.801 12.2098 119.633 11.8509 119.561 11.4433C119.489 11.0358 119.525 10.641 119.667 10.2591C119.81 9.87719 120.039 9.55105 120.353 9.28068L120.097 7.83043L110.997 9.43494L111.253 10.8852C111.64 11.0319 111.967 11.2602 112.231 11.5703C112.496 11.8803 112.664 12.2391 112.736 12.6467C112.808 13.0543 112.773 13.4491 112.63 13.831C112.487 14.2129 112.259 14.539 111.945 14.8094L112.201 16.2597ZM116.65 14.8887C116.811 14.8603 116.937 14.7819 117.026 14.6537C117.116 14.5255 117.147 14.3808 117.119 14.2197C117.09 14.0585 117.012 13.9331 116.884 13.8433C116.755 13.7535 116.611 13.7228 116.45 13.7512C116.288 13.7796 116.163 13.858 116.073 13.9862C115.983 14.1144 115.953 14.2591 115.981 14.4202C116.01 14.5814 116.088 14.7068 116.216 14.7966C116.344 14.8864 116.489 14.9171 116.65 14.8887ZM116.249 12.6138C116.41 12.5854 116.536 12.507 116.625 12.3788C116.715 12.2506 116.746 12.1059 116.717 11.9448C116.689 11.7836 116.611 11.6582 116.482 11.5684C116.354 11.4786 116.21 11.4479 116.048 11.4763C115.887 11.5047 115.762 11.583 115.672 11.7113C115.582 11.8395 115.552 11.9842 115.58 12.1453C115.608 12.3065 115.687 12.4319 115.815 12.5217C115.943 12.6115 116.088 12.6422 116.249 12.6138ZM115.848 10.3389C116.009 10.3104 116.134 10.2321 116.224 10.1039C116.314 9.97567 116.345 9.83099 116.316 9.66985C116.288 9.50871 116.21 9.38325 116.081 9.29347C115.953 9.20368 115.808 9.17299 115.647 9.20141C115.486 9.22982 115.361 9.30814 115.271 9.43637C115.181 9.56459 115.15 9.70928 115.179 9.87042C115.207 10.0316 115.286 10.157 115.414 10.2468C115.542 10.3366 115.687 10.3673 115.848 10.3389Z" fill="#FFEDA5"/>
  <path d="M8.49583 137.893C8.18303 137.838 7.9349 137.679 7.75142 137.417C7.56795 137.155 7.50379 136.868 7.55895 136.555L7.8974 134.635C7.91578 134.531 7.96483 134.447 8.04456 134.383C8.12428 134.319 8.21795 134.286 8.32555 134.286C8.56642 134.25 8.77786 134.146 8.95988 133.973C9.1419 133.799 9.25463 133.59 9.29809 133.343C9.34154 133.097 9.30736 132.861 9.19554 132.636C9.08372 132.411 8.92075 132.241 8.70663 132.125C8.6057 132.087 8.52875 132.025 8.47577 131.937C8.42279 131.85 8.40549 131.754 8.42388 131.65L8.76233 129.73C8.81748 129.417 8.97607 129.169 9.2381 128.986C9.50013 128.802 9.78754 128.738 10.1003 128.793L19.2 130.398C19.5128 130.453 19.7609 130.612 19.9444 130.874C20.1279 131.136 20.192 131.423 20.1369 131.736L19.7984 133.655C19.78 133.76 19.731 133.844 19.6512 133.908C19.5715 133.972 19.4779 134.004 19.3702 134.005C19.1294 134.041 18.9179 134.145 18.7359 134.318C18.5539 134.491 18.4412 134.701 18.3977 134.948C18.3543 135.194 18.3884 135.43 18.5003 135.655C18.6121 135.88 18.7751 136.05 18.9892 136.166C19.0901 136.203 19.1671 136.266 19.22 136.353C19.273 136.441 19.2903 136.537 19.2719 136.641L18.9335 138.561C18.8783 138.873 18.7197 139.122 18.4577 139.305C18.1957 139.488 17.9083 139.553 17.5955 139.497L8.49583 137.893ZM8.6964 136.756L17.796 138.36L18.0517 136.91C17.7378 136.639 17.5094 136.313 17.3666 135.931C17.2239 135.549 17.1884 135.155 17.2603 134.747C17.3321 134.34 17.5005 133.981 17.7653 133.671C18.0301 133.361 18.3562 133.132 18.7437 132.986L18.9994 131.535L9.89978 129.931L9.64406 131.381C9.95801 131.651 10.1864 131.978 10.3292 132.359C10.472 132.741 10.5074 133.136 10.4355 133.544C10.3637 133.951 10.1953 134.31 9.93054 134.62C9.66574 134.93 9.3396 135.159 8.95212 135.305L8.6964 136.756ZM13.3465 136.989C13.5076 137.017 13.6523 136.987 13.7805 136.897C13.9088 136.807 13.9871 136.682 14.0155 136.521C14.0439 136.359 14.0132 136.215 13.9234 136.087C13.8337 135.958 13.7082 135.88 13.5471 135.852C13.3859 135.823 13.2412 135.854 13.113 135.944C12.9848 136.033 12.9065 136.159 12.878 136.32C12.8496 136.481 12.8803 136.626 12.9701 136.754C13.0599 136.882 13.1854 136.961 13.3465 136.989ZM13.7476 134.714C13.9088 134.743 14.0534 134.712 14.1817 134.622C14.3099 134.532 14.3882 134.407 14.4166 134.246C14.445 134.085 14.4144 133.94 14.3246 133.812C14.2348 133.683 14.1093 133.605 13.9482 133.577C13.787 133.548 13.6424 133.579 13.5141 133.669C13.3859 133.759 13.3076 133.884 13.2792 134.045C13.2508 134.206 13.2814 134.351 13.3712 134.479C13.461 134.607 13.5865 134.686 13.7476 134.714ZM14.1487 132.439C14.3099 132.468 14.4546 132.437 14.5828 132.347C14.711 132.257 14.7893 132.132 14.8178 131.971C14.8462 131.81 14.8155 131.665 14.7257 131.537C14.6359 131.409 14.5104 131.33 14.3493 131.302C14.1882 131.273 14.0435 131.304 13.9153 131.394C13.787 131.484 13.7087 131.609 13.6803 131.77C13.6519 131.931 13.6826 132.076 13.7724 132.204C13.8621 132.332 13.9876 132.411 14.1487 132.439Z" fill="#FFEDA5"/>
  <path d="M182.571 162.643C182.258 162.588 182.01 162.429 181.827 162.167C181.643 161.905 181.579 161.618 181.634 161.305L181.973 159.385C181.991 159.281 182.04 159.197 182.12 159.133C182.199 159.069 182.293 159.036 182.401 159.036C182.642 159 182.853 158.896 183.035 158.723C183.217 158.549 183.33 158.34 183.373 158.093C183.417 157.847 183.383 157.611 183.271 157.386C183.159 157.161 182.996 156.991 182.782 156.875C182.681 156.837 182.604 156.775 182.551 156.687C182.498 156.6 182.481 156.504 182.499 156.4L182.838 154.48C182.893 154.167 183.051 153.919 183.313 153.736C183.575 153.552 183.863 153.488 184.176 153.543L193.275 155.148C193.588 155.203 193.836 155.362 194.02 155.624C194.203 155.886 194.267 156.173 194.212 156.486L193.874 158.405C193.855 158.51 193.806 158.594 193.726 158.658C193.647 158.722 193.553 158.754 193.445 158.755C193.205 158.791 192.993 158.895 192.811 159.068C192.629 159.241 192.516 159.451 192.473 159.698C192.429 159.944 192.464 160.18 192.575 160.405C192.687 160.63 192.85 160.8 193.064 160.916C193.165 160.953 193.242 161.016 193.295 161.103C193.348 161.191 193.366 161.287 193.347 161.391L193.009 163.311C192.954 163.623 192.795 163.872 192.533 164.055C192.271 164.238 191.983 164.303 191.671 164.247L182.571 162.643ZM182.772 161.506L191.871 163.11L192.127 161.66C191.813 161.389 191.585 161.063 191.442 160.681C191.299 160.299 191.264 159.905 191.335 159.497C191.407 159.09 191.576 158.731 191.84 158.421C192.105 158.111 192.431 157.882 192.819 157.736L193.075 156.285L183.975 154.681L183.719 156.131C184.033 156.401 184.262 156.728 184.404 157.109C184.547 157.491 184.583 157.886 184.511 158.294C184.439 158.701 184.271 159.06 184.006 159.37C183.741 159.68 183.415 159.909 183.027 160.055L182.772 161.506ZM187.422 161.739C187.583 161.767 187.728 161.737 187.856 161.647C187.984 161.557 188.062 161.432 188.091 161.271C188.119 161.109 188.088 160.965 187.999 160.837C187.909 160.708 187.783 160.63 187.622 160.602C187.461 160.573 187.316 160.604 187.188 160.694C187.06 160.783 186.982 160.909 186.953 161.07C186.925 161.231 186.956 161.376 187.045 161.504C187.135 161.632 187.261 161.711 187.422 161.739ZM187.823 159.464C187.984 159.493 188.129 159.462 188.257 159.372C188.385 159.282 188.463 159.157 188.492 158.996C188.52 158.835 188.49 158.69 188.4 158.562C188.31 158.433 188.185 158.355 188.023 158.327C187.862 158.298 187.718 158.329 187.589 158.419C187.461 158.509 187.383 158.634 187.354 158.795C187.326 158.956 187.357 159.101 187.446 159.229C187.536 159.357 187.662 159.436 187.823 159.464ZM188.224 157.189C188.385 157.218 188.53 157.187 188.658 157.097C188.786 157.007 188.865 156.882 188.893 156.721C188.921 156.56 188.891 156.415 188.801 156.287C188.711 156.159 188.586 156.08 188.425 156.052C188.263 156.023 188.119 156.054 187.99 156.144C187.862 156.234 187.784 156.359 187.755 156.52C187.727 156.681 187.758 156.826 187.848 156.954C187.937 157.082 188.063 157.161 188.224 157.189Z" fill="#FFA86D"/>
  <path d="M3.50075 46.2721C3.18795 46.3273 2.90054 46.2631 2.63851 46.0796C2.37648 45.8962 2.21789 45.648 2.16273 45.3352L1.82428 43.4158C1.8059 43.3115 1.8232 43.2156 1.87618 43.1281C1.92916 43.0405 2.00611 42.9781 2.10703 42.9408C2.32115 42.8248 2.48412 42.6544 2.59595 42.4294C2.70777 42.2044 2.74195 41.9687 2.6985 41.7223C2.65504 41.4758 2.5423 41.266 2.36028 41.0929C2.17826 40.9198 1.96682 40.8153 1.72596 40.7796C1.61835 40.779 1.52469 40.7467 1.44496 40.6825C1.36524 40.6184 1.31619 40.5342 1.2978 40.43L0.959353 38.5105C0.904198 38.1977 0.968357 37.9103 1.15183 37.6483C1.33531 37.3862 1.58344 37.2276 1.89624 37.1725L10.9959 35.568C11.3087 35.5128 11.5961 35.577 11.8581 35.7605C12.1201 35.9439 12.2787 36.1921 12.3339 36.5049L12.6723 38.4243C12.6907 38.5286 12.6734 38.6245 12.6204 38.712C12.5675 38.7995 12.4905 38.862 12.3896 38.8993C12.1755 39.0153 12.0125 39.1857 11.9007 39.4107C11.7888 39.6356 11.7547 39.8713 11.7981 40.1178C11.8416 40.3642 11.9543 40.574 12.1363 40.7472C12.3184 40.9203 12.5298 41.0248 12.7707 41.0605C12.8783 41.0611 12.9719 41.0934 13.0517 41.1575C13.1314 41.2217 13.1804 41.3059 13.1988 41.4101L13.5373 43.3296C13.5924 43.6424 13.5283 43.9298 13.3448 44.1918C13.1613 44.4539 12.9132 44.6124 12.6004 44.6676L3.50075 46.2721ZM3.30019 45.1347L12.3998 43.5301L12.1441 42.0799C11.7566 41.9332 11.4305 41.7048 11.1657 41.3948C10.9009 41.0848 10.7325 40.7259 10.6607 40.3183C10.5888 39.9108 10.6243 39.516 10.767 39.1341C10.9098 38.7522 11.1382 38.4261 11.4521 38.1557L11.1964 36.7054L2.09681 38.3099L2.35252 39.7602C2.74001 39.9069 3.06615 40.1352 3.33095 40.4453C3.59575 40.7553 3.76408 41.1141 3.83595 41.5217C3.90782 41.9293 3.87236 42.3241 3.72957 42.706C3.58678 43.0879 3.35841 43.414 3.04447 43.6844L3.30019 45.1347ZM7.74972 43.7637C7.91086 43.7353 8.03632 43.6569 8.1261 43.5287C8.21589 43.4005 8.24658 43.2558 8.21816 43.0947C8.18975 42.9335 8.11143 42.8081 7.9832 42.7183C7.85498 42.6285 7.71029 42.5978 7.54915 42.6262C7.38801 42.6546 7.26255 42.733 7.17277 42.8612C7.08298 42.9894 7.0523 43.1341 7.08071 43.2952C7.10912 43.4564 7.18744 43.5818 7.31567 43.6716C7.4439 43.7614 7.58858 43.7921 7.74972 43.7637ZM7.34859 41.4888C7.50973 41.4604 7.63519 41.382 7.72498 41.2538C7.81476 41.1256 7.84545 40.9809 7.81703 40.8198C7.78862 40.6586 7.7103 40.5332 7.58208 40.4434C7.45385 40.3536 7.30917 40.3229 7.14803 40.3513C6.98689 40.3797 6.86143 40.458 6.77164 40.5863C6.68185 40.7145 6.65117 40.8592 6.67958 41.0203C6.70799 41.1815 6.78632 41.3069 6.91454 41.3967C7.04277 41.4865 7.18745 41.5172 7.34859 41.4888ZM6.94746 39.2139C7.1086 39.1854 7.23406 39.1071 7.32385 38.9789C7.41363 38.8507 7.44432 38.706 7.41591 38.5449C7.38749 38.3837 7.30917 38.2583 7.18095 38.1685C7.05272 38.0787 6.90804 38.048 6.7469 38.0764C6.58576 38.1048 6.4603 38.1831 6.37051 38.3114C6.28073 38.4396 6.25004 38.5843 6.27845 38.7454C6.30687 38.9066 6.38519 39.032 6.51341 39.1218C6.64164 39.2116 6.78632 39.2423 6.94746 39.2139Z" fill="#FFA86D"/>
  <path d="M162.725 188.998C162.413 189.053 162.125 188.989 161.863 188.805C161.601 188.622 161.442 188.374 161.387 188.061L161.049 186.141C161.031 186.037 161.048 185.941 161.101 185.854C161.154 185.766 161.231 185.704 161.332 185.666C161.546 185.55 161.709 185.38 161.821 185.155C161.932 184.93 161.967 184.694 161.923 184.448C161.88 184.201 161.767 183.992 161.585 183.818C161.403 183.645 161.191 183.541 160.951 183.505C160.843 183.505 160.749 183.472 160.67 183.408C160.59 183.344 160.541 183.26 160.522 183.156L160.184 181.236C160.129 180.923 160.193 180.636 160.376 180.374C160.56 180.112 160.808 179.953 161.121 179.898L170.22 178.294C170.533 178.238 170.821 178.303 171.083 178.486C171.345 178.67 171.503 178.918 171.558 179.23L171.897 181.15C171.915 181.254 171.898 181.35 171.845 181.438C171.792 181.525 171.715 181.588 171.614 181.625C171.4 181.741 171.237 181.911 171.125 182.136C171.013 182.361 170.979 182.597 171.023 182.843C171.066 183.09 171.179 183.3 171.361 183.473C171.543 183.646 171.754 183.75 171.995 183.786C172.103 183.787 172.197 183.819 172.276 183.883C172.356 183.947 172.405 184.031 172.423 184.136L172.762 186.055C172.817 186.368 172.753 186.655 172.569 186.917C172.386 187.179 172.138 187.338 171.825 187.393L162.725 188.998ZM162.525 187.86L171.624 186.256L171.369 184.805C170.981 184.659 170.655 184.43 170.39 184.12C170.125 183.81 169.957 183.452 169.885 183.044C169.813 182.636 169.849 182.242 169.992 181.86C170.134 181.478 170.363 181.152 170.677 180.881L170.421 179.431L161.321 181.036L161.577 182.486C161.965 182.632 162.291 182.861 162.556 183.171C162.82 183.481 162.989 183.84 163.061 184.247C163.132 184.655 163.097 185.05 162.954 185.432C162.811 185.813 162.583 186.14 162.269 186.41L162.525 187.86ZM166.974 186.489C167.135 186.461 167.261 186.383 167.351 186.254C167.44 186.126 167.471 185.981 167.443 185.82C167.414 185.659 167.336 185.534 167.208 185.444C167.08 185.354 166.935 185.323 166.774 185.352C166.613 185.38 166.487 185.459 166.397 185.587C166.308 185.715 166.277 185.86 166.305 186.021C166.334 186.182 166.412 186.307 166.54 186.397C166.669 186.487 166.813 186.518 166.974 186.489ZM166.573 184.214C166.734 184.186 166.86 184.108 166.95 183.979C167.039 183.851 167.07 183.706 167.042 183.545C167.013 183.384 166.935 183.259 166.807 183.169C166.678 183.079 166.534 183.048 166.373 183.077C166.211 183.105 166.086 183.184 165.996 183.312C165.906 183.44 165.876 183.585 165.904 183.746C165.933 183.907 166.011 184.033 166.139 184.122C166.267 184.212 166.412 184.243 166.573 184.214ZM166.172 181.939C166.333 181.911 166.459 181.833 166.548 181.704C166.638 181.576 166.669 181.432 166.641 181.27C166.612 181.109 166.534 180.984 166.406 180.894C166.277 180.804 166.133 180.774 165.972 180.802C165.81 180.83 165.685 180.909 165.595 181.037C165.505 181.165 165.475 181.31 165.503 181.471C165.531 181.632 165.61 181.758 165.738 181.847C165.866 181.937 166.011 181.968 166.172 181.939Z" fill="#FFE7FB"/>
  <path d="M181.591 79.3795C181.278 79.4347 180.99 79.3705 180.728 79.187C180.466 79.0036 180.308 78.7554 180.253 78.4426L179.914 76.5232C179.896 76.4189 179.913 76.323 179.966 76.2355C180.019 76.148 180.096 76.0855 180.197 76.0482C180.411 75.9322 180.574 75.7618 180.686 75.5368C180.798 75.3119 180.832 75.0762 180.788 74.8297C180.745 74.5833 180.632 74.3735 180.45 74.2003C180.268 74.0272 180.057 73.9227 179.816 73.887C179.708 73.8865 179.615 73.8541 179.535 73.79C179.455 73.7258 179.406 73.6416 179.388 73.5374L179.049 71.6179C178.994 71.3051 179.058 71.0177 179.242 70.7557C179.425 70.4937 179.673 70.3351 179.986 70.2799L189.086 68.6754C189.399 68.6202 189.686 68.6844 189.948 68.8679C190.21 69.0513 190.369 69.2995 190.424 69.6123L190.762 71.5317C190.781 71.636 190.763 71.7319 190.71 71.8194C190.657 71.907 190.58 71.9694 190.479 72.0067C190.265 72.1227 190.102 72.2931 189.991 72.5181C189.879 72.7431 189.845 72.9788 189.888 73.2252C189.931 73.4717 190.044 73.6815 190.226 73.8546C190.408 74.0278 190.62 74.1322 190.86 74.1679C190.968 74.1685 191.062 74.2008 191.141 74.265C191.221 74.3291 191.27 74.4133 191.289 74.5176L191.627 76.437C191.682 76.7498 191.618 77.0372 191.435 77.2992C191.251 77.5613 191.003 77.7199 190.69 77.775L181.591 79.3795ZM181.39 78.2421L190.49 76.6376L190.234 75.1873C189.846 75.0406 189.52 74.8123 189.256 74.5022C188.991 74.1922 188.822 73.8334 188.751 73.4258C188.679 73.0182 188.714 72.6234 188.857 72.2415C189 71.8596 189.228 71.5335 189.542 71.2631L189.286 69.8128L180.187 71.4174L180.442 72.8676C180.83 73.0143 181.156 73.2427 181.421 73.5527C181.686 73.8628 181.854 74.2216 181.926 74.6292C181.998 75.0367 181.962 75.4315 181.819 75.8134C181.677 76.1953 181.448 76.5214 181.134 76.7918L181.39 78.2421ZM185.84 76.8711C186.001 76.8427 186.126 76.7644 186.216 76.6361C186.306 76.5079 186.336 76.3632 186.308 76.2021C186.28 76.0409 186.201 75.9155 186.073 75.8257C185.945 75.7359 185.8 75.7052 185.639 75.7336C185.478 75.7621 185.352 75.8404 185.263 75.9686C185.173 76.0968 185.142 76.2415 185.171 76.4026C185.199 76.5638 185.277 76.6893 185.406 76.779C185.534 76.8688 185.678 76.8995 185.84 76.8711ZM185.438 74.5962C185.6 74.5678 185.725 74.4895 185.815 74.3612C185.905 74.233 185.935 74.0883 185.907 73.9272C185.878 73.766 185.8 73.6406 185.672 73.5508C185.544 73.461 185.399 73.4303 185.238 73.4587C185.077 73.4871 184.951 73.5655 184.861 73.6937C184.772 73.8219 184.741 73.9666 184.769 74.1277C184.798 74.2889 184.876 74.4143 185.004 74.5041C185.133 74.5939 185.277 74.6246 185.438 74.5962ZM185.037 72.3213C185.198 72.2929 185.324 72.2145 185.414 72.0863C185.503 71.9581 185.534 71.8134 185.506 71.6523C185.477 71.4911 185.399 71.3657 185.271 71.2759C185.143 71.1861 184.998 71.1554 184.837 71.1838C184.676 71.2122 184.55 71.2906 184.46 71.4188C184.371 71.547 184.34 71.6917 184.368 71.8528C184.397 72.014 184.475 72.1394 184.603 72.2292C184.731 72.319 184.876 72.3497 185.037 72.3213Z" fill="#FFE7FB"/>
</svg>