<svg width="213" height="212" viewBox="0 0 213 212" fill="none" xmlns="http://www.w3.org/2000/svg">
<mask id="mask0_310_2247" style="mask-type:alpha" maskUnits="userSpaceOnUse" x="0" y="0" width="213" height="212">
<rect width="213" height="212" fill="#D9D9D9"/>
</mask>
<g mask="url(#mask0_310_2247)">
<path d="M408.44 40.8762L322.914 12.7434C310.224 8.56227 310.224 -9.61903 322.914 -13.8002L408.44 -41.933C414.159 -43.806 417.299 -50.0304 415.43 -55.8196L408.776 -76.555C406.926 -82.3443 400.777 -85.5227 395.058 -83.6308L309.532 -55.498C296.842 -51.3169 286.282 -66.036 294.132 -76.9712L346.987 -150.624C350.519 -155.543 349.435 -162.448 344.576 -166.024L327.138 -178.851C322.279 -182.427 315.457 -181.329 311.925 -176.41L259.07 -102.758C251.332 -91.9741 234.66 -97.3093 234.175 -110.382V-201.97C234.175 -208.062 229.296 -213 223.278 -213H201.691C195.673 -213 190.795 -208.062 190.795 -201.97V-110.382C190.309 -97.2904 173.638 -91.9741 165.9 -102.758L113.045 -176.391C109.513 -181.31 102.709 -182.408 97.8313 -178.832L80.3936 -166.005C75.5342 -162.429 74.4502 -155.543 77.9826 -150.605L130.838 -76.9523C138.688 -66.017 128.128 -51.2979 115.437 -55.4791L29.912 -83.6119C24.1929 -85.4849 18.0439 -82.3254 16.1936 -76.5361L9.54 -55.8007C7.68969 -50.0114 10.8109 -43.787 16.53 -41.914L102.055 -13.7812C114.746 -9.60011 114.746 8.58119 102.055 12.7623L16.53 40.8951C10.8109 42.7681 7.671 48.9925 9.54 54.7818L16.1936 75.5361C18.0439 81.3253 24.1929 84.5038 29.912 82.6118L115.437 54.4791C128.128 50.2979 138.688 65.017 130.856 75.9523L78.0013 149.605C74.4689 154.524 75.5529 161.429 80.4123 165.005L97.85 177.832C102.709 181.408 109.531 180.31 113.064 175.391L165.919 101.739C173.656 90.9552 190.328 96.2904 190.814 109.382V200.97C190.814 207.062 195.692 212 201.71 212H223.297C229.315 212 234.193 207.062 234.193 200.97V109.382C234.679 96.2904 251.351 90.9741 259.088 101.739L311.943 175.391C315.476 180.31 322.279 181.408 327.157 177.832L344.595 165.005C349.454 161.429 350.538 154.524 347.006 149.605L294.151 75.9523C286.301 65.017 296.861 50.2979 309.57 54.4791L395.095 82.6118C400.814 84.4849 406.963 81.3253 408.813 75.5361L415.467 54.7818C417.317 48.9925 414.196 42.7681 408.477 40.8951L408.44 40.8762Z" fill="#E5FBED"/>
</g>
<mask id="mask1_310_2247" style="mask-type:alpha" maskUnits="userSpaceOnUse" x="0" y="0" width="213" height="204">
<rect width="213" height="204" fill="#D9D9D9"/>
</mask>
<g mask="url(#mask1_310_2247)">
<path d="M313.914 -21.8002L313.758 -22.2751L399.283 -50.4079L399.284 -50.4081C404.738 -52.1942 407.74 -58.1348 405.954 -63.666L405.954 -63.6669L399.3 -84.4023L399.3 -84.4028C397.533 -89.9321 391.665 -92.959 386.215 -91.1561L386.214 -91.1558L300.689 -63.023C287.516 -58.6831 276.608 -73.9537 284.726 -85.2628L337.581 -158.915L337.987 -158.624L337.581 -158.915C340.954 -163.613 339.918 -170.208 335.28 -173.621L317.842 -186.448L318.138 -186.851L317.842 -186.448C313.209 -189.858 306.702 -188.813 303.331 -184.119L250.476 -110.467C242.449 -99.2795 225.178 -104.834 224.675 -118.364L224.675 -118.373V-118.382V-209.97C224.675 -215.792 220.015 -220.5 214.278 -220.5H192.691C186.955 -220.5 182.295 -215.792 182.295 -209.97V-118.382V-118.373L182.295 -118.364C181.792 -104.815 164.52 -99.2802 156.494 -110.467L103.639 -184.1C103.639 -184.1 103.639 -184.1 103.639 -184.1C100.268 -188.794 93.7795 -189.839 89.1269 -186.429L71.6899 -173.602C67.0525 -170.19 66.0148 -163.613 69.3893 -158.896L122.244 -85.2438C130.362 -73.9348 119.454 -58.6644 106.281 -63.0041C106.281 -63.0042 106.281 -63.0042 106.281 -63.0042L20.7564 -91.1367C15.304 -92.9224 9.43663 -89.9117 7.66989 -84.3839L7.66971 -84.3833L1.01626 -63.6485C-0.752297 -58.115 2.23352 -52.1748 7.68566 -50.3892L7.68628 -50.389L93.2115 -22.2562L93.2117 -22.2561C106.36 -17.9241 106.36 0.905167 93.2117 5.23721L93.2115 5.23729L7.68628 33.3701L7.68566 33.3703C2.23211 35.1563 -0.769873 41.0969 1.01582 46.6281L1.01613 46.6291L7.66975 67.3834L7.66989 67.3839C9.43711 72.9132 15.3049 75.9401 20.755 74.1371L20.7558 74.1369L106.281 46.0042C106.281 46.0042 106.281 46.0041 106.281 46.0041C119.454 41.6643 130.362 56.9346 122.263 68.2434L122.263 68.2438L69.4075 141.896L69.0013 141.605L69.4074 141.896C66.034 146.594 67.0709 153.189 71.7086 156.602L89.1463 169.429L88.85 169.832L89.1464 169.429C93.7797 172.839 100.286 171.794 103.658 167.1L156.513 93.4476C164.54 82.2599 181.811 87.8163 182.314 101.364L182.314 101.373V101.382V192.97C182.314 198.792 186.974 203.5 192.71 203.5H214.297C220.033 203.5 224.693 198.792 224.693 192.97V101.382V101.373L224.694 101.364C225.196 87.8148 242.468 82.2803 250.494 93.4473L250.494 93.4476L303.35 167.1C306.72 171.794 313.208 172.839 317.861 169.429L313.914 -21.8002ZM313.914 -21.8002L313.758 -22.2751C300.609 -17.943 300.609 0.886246 313.758 5.21829L313.914 4.74341M313.914 -21.8002V4.74341M313.914 4.74341L313.758 5.21837L399.248 33.3394L399.251 33.3413L399.285 33.3584L399.321 33.3703C404.773 35.1558 407.759 41.0957 405.991 46.6291C405.991 46.6293 405.991 46.6294 405.991 46.6295L399.337 67.3834L399.337 67.3839M313.914 4.74341L399.337 67.3839M399.337 67.3839C397.57 72.9115 391.704 75.9221 386.251 74.1369L399.337 67.3839ZM335.298 156.602L317.861 169.429L386.251 74.1367L300.726 46.0042C287.536 41.6648 276.626 56.9338 284.744 68.2438L337.6 141.896L338.006 141.605L337.6 141.896C340.973 146.594 339.936 153.189 335.298 156.602Z" stroke="#FFEDA5"/>
</g>
</svg>
