<svg width="358" height="192" viewBox="0 0 358 192" fill="none" xmlns="http://www.w3.org/2000/svg">
<g style="mix-blend-mode:multiply" opacity="0.2">
<path d="M304.878 65.6131C301.628 61.83 297.813 58.581 293.66 55.7994C291.109 54.0859 287.047 55.2431 285.624 57.869C284.044 60.8064 285.015 63.9663 287.724 65.7911C288.13 66.0581 288.536 66.3474 288.943 66.6367C289.033 66.7035 289.417 66.9928 289.642 67.1708C289.868 67.3488 290.139 67.5714 290.229 67.6381C290.658 67.9942 291.064 68.328 291.493 68.7063C292.893 69.9302 294.224 71.2209 295.488 72.6006C296.12 73.2905 296.73 73.9803 297.317 74.6924C297.452 74.8704 297.588 75.0485 297.723 75.2265C297.971 75.5603 298.242 75.9163 298.491 76.2501C299.574 77.7634 300.567 79.3211 301.493 80.9456C302.441 82.5924 303.185 84.3281 304.021 86.0194C304.066 86.1306 304.111 86.2196 304.156 86.3309C304.314 86.7315 304.472 87.132 304.63 87.5548C304.969 88.4672 305.285 89.4019 305.578 90.3365C306.165 92.2058 306.639 94.1196 307 96.0334C307.09 96.4562 307.158 96.879 307.226 97.324C307.271 97.5466 307.294 97.7469 307.316 97.9694C307.474 98.9263 307.248 97.4575 307.248 97.3908C307.474 98.3254 307.474 99.3491 307.542 100.306C307.7 102.465 307.722 104.645 307.61 106.804C307.542 107.872 307.542 109.007 307.316 110.053C307.339 109.986 307.542 108.517 307.384 109.474C307.339 109.741 307.294 110.008 307.248 110.275C307.158 110.876 307.045 111.455 306.932 112.033C306.346 114.993 307.79 118.42 311.041 119.155C313.952 119.8 317.632 118.287 318.264 115.104C321.785 97.5021 316.593 79.2321 304.878 65.6131Z" fill="#4DE1BE"/>
</g>
<g style="mix-blend-mode:multiply" opacity="0.2">
<path d="M312.565 106.257C309.259 106.415 306.876 108.836 306.719 112.138C306.674 112.907 306.606 113.676 306.539 114.445C306.494 114.739 306.449 115.011 306.404 115.305C306.134 116.752 305.797 118.177 305.347 119.58C305.122 120.281 304.897 120.982 304.627 121.661C304.515 121.978 304.358 122.294 304.245 122.588V122.611C303.638 123.945 302.941 125.257 302.199 126.524C301.839 127.112 301.479 127.678 301.097 128.243C300.872 128.56 300.647 128.899 300.423 129.216C300.355 129.306 300.22 129.465 300.108 129.6C300.198 129.51 300.288 129.397 300.423 129.238C300.288 129.397 300.175 129.532 300.04 129.691C299.928 129.826 299.86 129.917 299.86 129.917C299.096 130.822 298.354 131.704 297.499 132.563C296.51 133.559 295.318 134.396 294.329 135.391C294.059 135.594 293.789 135.775 293.497 135.979C292.845 136.431 292.17 136.839 291.496 137.246C288.865 138.806 287.673 142.607 289.405 145.298C291.114 147.967 294.599 149.076 297.409 147.402C309.777 140.028 317.714 126.524 318.411 112.138C318.568 109.062 315.623 106.121 312.565 106.257Z" fill="#FFCF00"/>
</g>
<g style="mix-blend-mode:multiply" opacity="0.2">
<path d="M351.757 75.5868C347.138 61.3918 339.468 48.2957 329.355 37.3075C323.704 31.1855 317.223 25.8708 310.204 21.4307C307.625 19.7936 303.634 21.0495 302.288 23.7404C300.808 26.7229 301.84 29.9072 304.598 31.6564C306.033 32.5758 307.468 33.5177 308.859 34.5268C308.903 34.5492 308.926 34.5717 308.993 34.6165C309.307 34.8408 309.621 35.0874 309.913 35.3116C310.608 35.8498 311.303 36.3881 311.976 36.9487C314.622 39.1015 317.133 41.4112 319.533 43.8556C320.721 45.0665 321.887 46.3223 323.009 47.6229C323.48 48.1611 323.928 48.6993 324.377 49.2151C324.354 49.1702 324.332 49.1478 324.309 49.103C324.354 49.1702 324.421 49.2375 324.466 49.3048C324.511 49.3721 324.578 49.4393 324.623 49.4842C324.668 49.529 324.713 49.5963 324.758 49.6636C325.027 50 325.274 50.3139 325.543 50.6503C327.628 53.3413 329.602 56.1668 331.396 59.0596C333.19 61.9749 334.849 64.9798 336.329 68.052C336.508 68.4556 336.71 68.8593 336.89 69.2405C336.89 69.2629 336.912 69.2629 336.912 69.2854C337.248 70.0702 337.607 70.8551 337.921 71.64C338.572 73.2097 339.199 74.8243 339.76 76.4389C340.904 79.6681 341.868 82.9421 342.675 86.261C343.079 87.9204 343.415 89.6023 343.729 91.2842C343.797 91.6654 343.864 92.0466 343.931 92.4278V92.4503C343.931 92.4727 343.931 92.4951 343.953 92.5176C344.088 93.3921 344.2 94.2667 344.312 95.1413C344.783 98.9759 345.03 102.811 345.007 106.668C345.007 108.551 344.94 110.413 344.806 112.274C344.738 113.238 344.738 114.27 344.559 115.234C344.537 115.324 344.716 113.844 344.626 114.494C344.581 114.763 344.559 115.032 344.537 115.324C344.469 115.862 344.402 116.422 344.312 116.961C344.088 118.553 344.133 120.01 345.03 121.423C345.77 122.612 347.183 123.733 348.595 124.002C351.443 124.563 355.188 122.971 355.659 119.741C357.722 104.963 356.399 89.849 351.757 75.5868Z" fill="#FF975E"/>
<path d="M324.444 49.327C324.422 49.3046 324.399 49.2597 324.354 49.2373C325.005 50.1119 324.915 49.9325 324.736 49.6858C324.713 49.6634 324.713 49.6634 324.691 49.641C324.624 49.5513 324.534 49.4391 324.444 49.327Z" fill="#FF975E"/>
</g>
<g style="mix-blend-mode:multiply" opacity="0.2">
<path d="M327.645 167.782C338.13 157.105 346.218 144.219 351.327 130.14C354.172 122.278 355.897 114.034 356.614 105.721C356.883 102.658 353.948 99.6618 350.923 99.7294C347.607 99.797 345.233 102.185 344.964 105.451C344.807 107.163 344.628 108.875 344.381 110.565C344.381 110.61 344.359 110.655 344.359 110.722C344.292 111.105 344.224 111.488 344.157 111.871C344 112.75 343.844 113.606 343.664 114.484C342.97 117.841 342.074 121.152 340.998 124.418C340.46 126.04 339.878 127.662 339.251 129.262C338.982 129.915 338.735 130.568 338.444 131.221C338.467 131.176 338.489 131.154 338.511 131.109C338.467 131.176 338.444 131.267 338.399 131.357C338.377 131.424 338.332 131.514 338.31 131.582C338.287 131.65 338.242 131.717 338.22 131.785C338.041 132.168 337.884 132.551 337.705 132.934C336.271 136.042 334.68 139.083 332.91 142.034C331.163 144.985 329.236 147.846 327.197 150.594C326.928 150.955 326.66 151.293 326.391 151.653C326.368 151.676 326.368 151.676 326.346 151.698C325.808 152.374 325.27 153.027 324.71 153.703C323.613 155.01 322.47 156.294 321.305 157.555C318.975 160.056 316.51 162.443 313.934 164.696C312.635 165.822 311.313 166.904 309.968 167.962C309.655 168.21 309.364 168.435 309.05 168.661L309.027 168.683C309.005 168.706 308.983 168.706 308.96 168.728C308.243 169.246 307.526 169.764 306.809 170.26C303.628 172.445 300.335 174.427 296.907 176.207C295.249 177.063 293.546 177.874 291.843 178.617C290.947 179 290.029 179.473 289.088 179.766C288.998 179.789 290.387 179.271 289.782 179.496C289.513 179.586 289.267 179.699 289.021 179.789C288.505 179.992 287.99 180.172 287.475 180.352C285.951 180.893 284.674 181.613 283.823 183.055C283.106 184.272 282.77 186.051 283.173 187.425C283.98 190.219 287.139 192.832 290.208 191.75C304.3 186.637 317.115 178.482 327.645 167.782Z" fill="#FFADC7"/>
</g>
<g style="mix-blend-mode:multiply" opacity="0.2">
<path d="M388.319 93.1421C387.916 78.7997 384.783 64.8371 379.368 51.567C374.132 38.7661 366.524 26.8811 357.193 16.6493C351.823 10.7738 345.826 5.52392 339.359 0.877161C336.875 -0.910054 332.803 0.184583 331.348 2.79838C329.715 5.72495 330.632 8.87493 333.273 10.7962C334.615 11.7792 335.958 12.7621 337.256 13.8121C337.278 13.8344 337.278 13.8345 337.3 13.8345C337.569 14.0579 337.837 14.2589 338.106 14.4823C338.755 15.0408 339.426 15.5993 340.075 16.1578C342.536 18.3025 344.886 20.5812 347.146 22.9269C349.451 25.3397 351.621 27.8417 353.702 30.4332C354.172 31.014 354.62 31.5949 355.09 32.1981C355.291 32.4662 355.515 32.7566 355.716 33.0247C355.783 33.1364 355.873 33.2257 355.94 33.3374C356.925 34.6778 357.864 36.0406 358.782 37.448C362.384 42.899 365.517 48.6628 368.135 54.6723C368.426 55.3648 368.717 56.0351 369.008 56.7276C369.053 56.8393 369.299 57.4648 369.366 57.5989C369.433 57.7776 369.5 57.9563 369.545 58.0233C370.149 59.5648 370.708 61.1286 371.223 62.7148C372.252 65.82 373.17 68.9477 373.931 72.12C374.781 75.6944 375.452 79.2912 375.967 82.9326C376.012 83.2901 376.056 83.6475 376.101 84.0273C376.123 84.1614 376.146 84.3401 376.146 84.4741C376.146 84.4965 376.146 84.4964 376.146 84.4964C376.168 84.6081 376.168 84.6975 376.191 84.8092C376.191 84.7422 376.168 84.6752 376.168 84.6305C376.258 85.4794 376.347 86.3507 376.414 87.1996C376.571 89.0762 376.661 90.9751 376.705 92.874C376.795 95.9123 379.144 98.8835 382.389 98.7942C385.387 98.7495 388.408 96.4038 388.319 93.1421Z" fill="#4DE1BE"/>
</g>
<g style="mix-blend-mode:multiply" opacity="0.2">
<path d="M30.1575 130.388C33.0021 134.485 36.4628 138.109 40.3084 141.302C42.6695 143.269 46.8299 142.535 48.5141 140.069C50.3875 137.309 49.7466 134.066 47.2398 131.973C46.863 131.666 46.4886 131.336 46.1142 131.007C46.0312 130.931 45.6792 130.604 45.473 130.404C45.2668 130.203 45.0202 129.954 44.9372 129.878C44.5472 129.48 44.1773 129.106 43.7896 128.686C42.5232 127.325 41.3311 125.904 40.2155 124.402C39.6577 123.651 39.1223 122.902 38.6117 122.133C38.4953 121.942 38.3788 121.751 38.2624 121.56C38.0497 121.203 37.8168 120.821 37.6042 120.463C36.6819 118.847 35.854 117.195 35.1003 115.484C34.3264 113.749 33.7638 111.946 33.1067 110.178C33.0733 110.062 33.0375 109.969 33.004 109.854C32.888 109.439 32.772 109.025 32.6582 108.588C32.4152 107.646 32.1968 106.683 32.001 105.724C31.6092 103.804 31.3343 101.851 31.1716 99.9107C31.1252 99.4809 31.1013 99.0534 31.0796 98.6037C31.0576 98.3777 31.0557 98.1762 31.0561 97.9525C30.9972 96.9844 31.0709 98.4686 31.0641 98.535C30.9355 97.5821 31.0407 96.5639 31.0716 95.6051C31.1361 93.4417 31.3377 91.2701 31.6717 89.1345C31.8488 88.079 31.9653 86.95 32.2973 85.9329C32.268 85.9969 31.9151 87.437 32.1705 86.5014C32.2429 86.2405 32.3152 85.9794 32.3875 85.7185C32.539 85.1301 32.7107 84.5662 32.8824 84.0022C33.7702 81.1185 32.6852 77.5612 29.5275 76.4969C26.6974 75.5558 22.8822 76.6831 21.9266 79.7836C16.616 96.9312 19.9035 115.638 30.1575 130.388Z" fill="#4DE1BE"/>
</g>
<g style="mix-blend-mode:multiply" opacity="0.2">
<path d="M26.6865 89.1696C29.9907 89.3516 32.6102 87.1889 33.1059 83.9201C33.2297 83.1597 33.3758 82.4017 33.5219 81.6436C33.5968 81.3557 33.6694 81.0903 33.7444 80.8024C34.1614 79.3902 34.6433 78.0073 35.2347 76.6585C35.5304 75.9841 35.8261 75.3098 36.1642 74.6625C36.3086 74.359 36.4976 74.0602 36.6397 73.7792L36.642 73.7568C37.383 72.4916 38.2111 71.2582 39.0793 70.0744C39.4976 69.5264 39.9135 69.0008 40.3518 68.4776C40.608 68.1857 40.8666 67.8713 41.1228 67.5794C41.1991 67.4963 41.3496 67.3527 41.4754 67.2292C41.3766 67.31 41.2755 67.4133 41.1251 67.5569C41.2755 67.4133 41.4013 67.2898 41.5518 67.1462C41.6776 67.0227 41.7539 66.9397 41.7539 66.9397C42.6073 66.1182 43.4361 65.3169 44.3743 64.5497C45.4606 63.6613 46.732 62.9512 47.8184 62.0629C48.1077 61.8881 48.3947 61.7358 48.7064 61.5633C49.4015 61.1803 50.1143 60.8446 50.8271 60.5088C53.6043 59.2266 55.1801 55.569 53.7343 52.7137C52.3086 49.8832 48.9557 48.4227 45.9879 49.799C32.9288 55.8637 23.6463 68.4808 21.4753 82.7191C21.0027 85.7629 23.6307 88.9905 26.6865 89.1696Z" fill="#FFCF00"/>
</g>
<g style="mix-blend-mode:multiply" opacity="0.2">
<path d="M-15.4489 115.652C-12.3119 130.246 -6.02833 144.061 2.90313 156.03C7.89548 162.7 13.7961 168.652 20.3219 173.79C22.719 175.683 26.8185 174.844 28.4332 172.305C30.2118 169.491 29.5128 166.217 26.9488 164.194C25.6156 163.132 24.2848 162.048 23.0054 160.901C22.9631 160.874 22.9431 160.85 22.8808 160.798C22.5916 160.543 22.3046 160.265 22.0377 160.012C21.4014 159.405 20.7652 158.799 20.1536 158.172C17.7426 155.759 15.4816 153.203 13.3459 150.525C12.288 149.199 11.2571 147.83 10.2754 146.421C9.8622 145.837 9.47136 145.256 9.07822 144.697C9.09592 144.744 9.11593 144.768 9.13363 144.815C9.09593 144.744 9.0359 144.67 8.9982 144.598C8.9605 144.527 8.9005 144.453 8.86049 144.404C8.82049 144.354 8.78279 144.283 8.74509 144.211C8.51196 143.849 8.29885 143.511 8.06572 143.149C6.26765 140.258 4.59493 137.245 3.10756 134.183C1.6225 131.099 0.280489 127.94 -0.876159 124.732C-1.01315 124.312 -1.17244 123.889 -1.31173 123.492C-1.30943 123.469 -1.33176 123.467 -1.32946 123.445C-1.58343 122.63 -1.85971 121.812 -2.09138 120.999C-2.57703 119.371 -3.03574 117.7 -3.42755 116.037C-4.23349 112.707 -4.85636 109.351 -5.31849 105.967C-5.54955 104.275 -5.71137 102.567 -5.85091 100.862C-5.87867 100.476 -5.90644 100.09 -5.9342 99.7039L-5.93189 99.6815C-5.92959 99.6592 -5.92728 99.6369 -5.94728 99.6123C-5.99129 98.7285 -6.01301 97.8471 -6.03471 96.9656C-6.10926 93.1029 -5.96074 89.2632 -5.54225 85.4288C-5.34877 83.5551 -5.09066 81.7106 -4.76564 79.873C-4.59967 78.9207 -4.49372 77.8946 -4.21622 76.9538C-4.1847 76.8669 -4.51516 78.3207 -4.35914 77.683C-4.28688 77.42 -4.23696 77.1546 -4.18471 76.8669C-4.06251 76.3385 -3.938 75.7877 -3.7935 75.2616C-3.40689 73.7009 -3.30178 72.2464 -4.04891 70.749C-4.66294 69.4907 -5.95307 68.2303 -7.33073 67.8175C-10.106 66.9673 -13.9947 68.1664 -14.7948 71.3301C-18.365 85.818 -18.6014 100.988 -15.4489 115.652Z" fill="#FF975E"/>
<path d="M9.02255 144.578C9.04255 144.603 9.06023 144.65 9.10254 144.677C8.54549 143.74 8.6163 143.928 8.76941 144.191C8.78941 144.216 8.7894 144.216 8.80941 144.241C8.86711 144.337 8.94484 144.458 9.02255 144.578Z" fill="#FF975E"/>
</g>
<g style="mix-blend-mode:multiply" opacity="0.2">
<path d="M18.0059 26.421C6.47941 35.9651 -2.88922 47.9514 -9.4165 61.4313C-13.0543 68.9592 -15.6172 76.9832 -17.1841 85.1779C-17.7663 88.1977 -15.1546 91.4793 -12.1391 91.7227C-8.83385 91.9961 -6.22631 89.8649 -5.62337 86.6434C-5.29152 84.9566 -4.93736 83.272 -4.51868 81.6168C-4.51405 81.572 -4.48715 81.5295 -4.4802 81.4622C-4.37401 81.0882 -4.26781 80.7142 -4.16162 80.3402C-3.91538 79.4824 -3.67146 78.647 -3.40294 77.7915C-2.36732 74.5241 -1.13575 71.3223 0.269462 68.1837C0.970915 66.6256 1.71692 65.0721 2.50521 63.5456C2.83974 62.9234 3.152 62.2989 3.50882 61.679C3.4819 61.7215 3.45729 61.7417 3.43038 61.7842C3.48189 61.7215 3.51344 61.6342 3.56726 61.5492C3.59649 61.4842 3.65032 61.3992 3.67955 61.3343C3.70878 61.2694 3.76029 61.2068 3.78952 61.1419C4.00714 60.7793 4.20246 60.4145 4.42008 60.052C6.16567 57.107 8.06033 54.2455 10.124 51.4919C12.1654 48.736 14.3758 46.0882 16.6861 43.5639C16.9906 43.233 17.2927 42.9245 17.5971 42.5935C17.6217 42.5734 17.6218 42.5735 17.6464 42.5533C18.2506 41.9364 18.8526 41.3418 19.4791 40.7271C20.7053 39.5402 21.9738 38.3804 23.2622 37.2452C25.8368 34.9973 28.5334 32.8753 31.3277 30.8992C32.7359 29.9123 34.1619 28.9725 35.6078 28.0574C35.9452 27.8432 36.2581 27.649 36.5932 27.4571L36.6178 27.4371C36.6424 27.417 36.6647 27.4193 36.6893 27.3992C37.4556 26.9574 38.222 26.5157 38.986 26.0964C42.375 24.2496 45.8546 22.616 49.4471 21.1979C51.1842 20.5168 52.9612 19.885 54.7313 19.3204C55.6621 19.0316 56.6243 18.6554 57.5904 18.4608C57.6819 18.4476 56.247 18.8202 56.8718 18.6583C57.1485 18.5963 57.4052 18.5095 57.6596 18.4452C58.193 18.2965 58.7241 18.1702 59.2552 18.0438C60.8261 17.6625 62.1704 17.0767 63.1654 15.73C64.0035 14.5937 64.5205 12.858 64.2605 11.4498C63.7452 8.5884 60.8713 5.66462 57.7071 6.4249C43.1642 10.0639 29.5792 16.8591 18.0059 26.421Z" fill="#FFADC7"/>
</g>
<g style="mix-blend-mode:multiply" opacity="0.2">
<path d="M-50.0132 94.4339C-51.0857 108.742 -49.4038 122.952 -45.3804 136.708C-41.4869 149.98 -35.1399 162.583 -26.9092 173.719C-22.1708 180.115 -16.7449 185.953 -10.7896 191.24C-8.50254 193.273 -4.33912 192.602 -2.62386 190.152C-0.698416 187.408 -1.28744 184.181 -3.71655 181.998C-4.95107 180.883 -6.1856 179.767 -7.36871 178.589C-7.38868 178.565 -7.38866 178.565 -7.41092 178.563C-7.65507 178.313 -7.90154 178.085 -8.14569 177.835C-8.73381 177.213 -9.34417 176.589 -9.93228 175.966C-12.1604 173.58 -14.2634 171.072 -16.2705 168.507C-18.3153 165.87 -20.2173 163.158 -22.0212 160.367C-22.4289 159.741 -22.8144 159.117 -23.2199 158.469C-23.3926 158.181 -23.5854 157.87 -23.7582 157.582C-23.8135 157.464 -23.8934 157.366 -23.9487 157.248C-24.7903 155.814 -25.5852 154.362 -26.3532 152.867C-29.3768 147.075 -31.9009 141.02 -33.8879 134.773C-34.1061 134.055 -34.3266 133.358 -34.5448 132.639C-34.5779 132.524 -34.7585 131.876 -34.8115 131.736C-34.8599 131.551 -34.9083 131.367 -34.9459 131.295C-35.3886 129.7 -35.7844 128.087 -36.1334 126.456C-36.8383 123.262 -37.4296 120.056 -37.8606 116.823C-38.3392 113.18 -38.6375 109.533 -38.7754 105.858C-38.7832 105.498 -38.791 105.138 -38.7965 104.755C-38.805 104.62 -38.8089 104.44 -38.7951 104.306C-38.7928 104.284 -38.7928 104.284 -38.7928 104.284C-38.8036 104.171 -38.7944 104.082 -38.8052 103.968C-38.8121 104.035 -38.7967 104.104 -38.8013 104.149C-38.8032 103.295 -38.8027 102.419 -38.7823 101.568C-38.7453 99.685 -38.6393 97.787 -38.4888 95.8935C-38.2657 92.8621 -40.2976 89.6653 -43.5342 89.4209C-46.5214 89.1573 -49.7672 91.1803 -50.0132 94.4339Z" fill="#4DE1BE"/>
</g>
</svg>
