<svg width="449" height="202" viewBox="0 0 449 202" fill="none" xmlns="http://www.w3.org/2000/svg">
<g style="mix-blend-mode:multiply" opacity="0.2">
<path d="M364.878 69.5142C361.628 65.7311 357.813 62.4822 353.66 59.7005C351.109 57.987 347.047 59.1442 345.624 61.7701C344.044 64.7075 345.015 67.8674 347.724 69.6922C348.13 69.9593 348.536 70.2486 348.943 70.5379C349.033 70.6046 349.417 70.8939 349.642 71.0719C349.868 71.2499 350.139 71.4725 350.229 71.5393C350.658 71.8953 351.064 72.2291 351.493 72.6074C352.893 73.8314 354.224 75.122 355.488 76.5018C356.12 77.1916 356.73 77.8814 357.317 78.5935C357.452 78.7716 357.588 78.9496 357.723 79.1277C357.971 79.4615 358.242 79.8175 358.491 80.1513C359.574 81.6645 360.567 83.2222 361.493 84.8467C362.441 86.4935 363.185 88.2293 364.021 89.9205C364.066 90.0318 364.111 90.1208 364.156 90.232C364.314 90.6326 364.472 91.0331 364.63 91.456C364.969 92.3683 365.285 93.303 365.578 94.2376C366.165 96.1069 366.639 98.0207 367 99.9345C367.09 100.357 367.158 100.78 367.226 101.225C367.271 101.448 367.294 101.648 367.316 101.871C367.474 102.827 367.248 101.359 367.248 101.292C367.474 102.227 367.474 103.25 367.542 104.207C367.7 106.366 367.722 108.546 367.61 110.705C367.542 111.773 367.542 112.908 367.316 113.954C367.339 113.887 367.542 112.419 367.384 113.375C367.339 113.643 367.294 113.91 367.248 114.177C367.158 114.777 367.045 115.356 366.932 115.935C366.346 118.894 367.79 122.321 371.041 123.056C373.952 123.701 377.632 122.188 378.264 119.006C381.785 101.403 376.593 83.1332 364.878 69.5142Z" fill="#4DE1BE"/>
</g>
<g style="mix-blend-mode:multiply" opacity="0.2">
<path d="M372.565 110.158C369.259 110.316 366.876 112.737 366.719 116.039C366.674 116.808 366.606 117.577 366.539 118.346C366.494 118.64 366.449 118.912 366.404 119.206C366.134 120.654 365.797 122.079 365.347 123.481C365.122 124.182 364.897 124.883 364.627 125.562C364.515 125.879 364.358 126.195 364.245 126.489V126.512C363.638 127.847 362.941 129.158 362.199 130.425C361.839 131.013 361.479 131.579 361.097 132.144C360.872 132.461 360.647 132.8 360.423 133.117C360.355 133.207 360.22 133.366 360.108 133.501C360.198 133.411 360.288 133.298 360.423 133.139C360.288 133.298 360.175 133.434 360.04 133.592C359.928 133.728 359.86 133.818 359.86 133.818C359.096 134.723 358.354 135.605 357.499 136.465C356.51 137.46 355.318 138.297 354.329 139.292C354.059 139.496 353.789 139.677 353.497 139.88C352.845 140.333 352.17 140.74 351.496 141.147C348.865 142.708 347.673 146.508 349.405 149.199C351.114 151.868 354.599 152.977 357.409 151.303C369.777 143.929 377.714 130.425 378.411 116.039C378.568 112.963 375.623 110.022 372.565 110.158Z" fill="#FFCF00"/>
</g>
<g style="mix-blend-mode:multiply" opacity="0.2">
<path d="M411.757 79.4879C407.138 65.2929 399.468 52.1968 389.355 41.2086C383.704 35.0866 377.223 29.7719 370.204 25.3318C367.625 23.6948 363.634 24.9506 362.288 27.6416C360.808 30.6241 361.84 33.8084 364.598 35.5575C366.033 36.4769 367.468 37.4188 368.859 38.4279C368.903 38.4503 368.926 38.4728 368.993 38.5176C369.307 38.7419 369.621 38.9885 369.913 39.2128C370.608 39.751 371.303 40.2892 371.976 40.8498C374.622 43.0026 377.133 45.3124 379.533 47.7567C380.721 48.9676 381.887 50.2234 383.009 51.5241C383.48 52.0623 383.928 52.6004 384.377 53.1162C384.354 53.0714 384.332 53.0489 384.309 53.0041C384.354 53.0714 384.421 53.1387 384.466 53.2059C384.511 53.2732 384.578 53.3404 384.623 53.3853C384.668 53.4301 384.713 53.4974 384.758 53.5647C385.027 53.9011 385.274 54.2151 385.543 54.5514C387.628 57.2424 389.602 60.068 391.396 62.9608C393.19 65.876 394.849 68.8809 396.329 71.9531C396.508 72.3568 396.71 72.7604 396.89 73.1416C396.89 73.1641 396.912 73.1641 396.912 73.1865C397.248 73.9714 397.607 74.7562 397.921 75.5411C398.572 77.1108 399.199 78.7255 399.76 80.3401C400.904 83.5692 401.868 86.8432 402.675 90.1621C403.079 91.8215 403.415 93.5034 403.729 95.1853C403.797 95.5665 403.864 95.9477 403.931 96.3289V96.3514C403.931 96.3738 403.931 96.3963 403.953 96.4187C404.088 97.2933 404.2 98.1678 404.312 99.0424C404.783 102.877 405.03 106.712 405.007 110.569C405.007 112.452 404.94 114.314 404.806 116.175C404.738 117.139 404.738 118.171 404.559 119.135C404.537 119.225 404.716 117.745 404.626 118.395C404.581 118.664 404.559 118.933 404.537 119.225C404.469 119.763 404.402 120.324 404.312 120.862C404.088 122.454 404.133 123.912 405.03 125.324C405.77 126.513 407.183 127.634 408.595 127.903C411.443 128.464 415.188 126.872 415.659 123.642C417.722 108.864 416.399 93.7501 411.757 79.4879Z" fill="#FF975E"/>
<path d="M384.444 53.2281C384.422 53.2057 384.399 53.1609 384.354 53.1384C385.005 54.013 384.915 53.8336 384.736 53.5869C384.713 53.5645 384.713 53.5645 384.691 53.5421C384.624 53.4524 384.534 53.3402 384.444 53.2281Z" fill="#FF975E"/>
</g>
<g style="mix-blend-mode:multiply" opacity="0.2">
<path d="M387.645 171.683C398.13 161.006 406.218 148.12 411.327 134.041C414.172 126.18 415.897 117.935 416.614 109.623C416.883 106.559 413.948 103.563 410.923 103.631C407.607 103.698 405.233 106.086 404.964 109.352C404.807 111.064 404.628 112.776 404.381 114.466C404.381 114.511 404.359 114.556 404.359 114.623C404.292 115.006 404.224 115.389 404.157 115.772C404 116.651 403.844 117.507 403.664 118.385C402.97 121.742 402.074 125.053 400.998 128.32C400.46 129.942 399.878 131.563 399.251 133.163C398.982 133.816 398.735 134.469 398.444 135.123C398.467 135.078 398.489 135.055 398.511 135.01C398.467 135.078 398.444 135.168 398.399 135.258C398.377 135.325 398.332 135.415 398.31 135.483C398.287 135.551 398.242 135.618 398.22 135.686C398.041 136.069 397.884 136.452 397.705 136.835C396.271 139.943 394.68 142.984 392.91 145.935C391.163 148.886 389.236 151.747 387.197 154.495C386.928 154.856 386.66 155.194 386.391 155.554C386.368 155.577 386.368 155.577 386.346 155.599C385.808 156.275 385.27 156.928 384.71 157.604C383.613 158.911 382.47 160.195 381.305 161.456C378.975 163.957 376.51 166.344 373.934 168.597C372.635 169.723 371.313 170.805 369.968 171.863C369.655 172.111 369.364 172.337 369.05 172.562L369.027 172.584C369.005 172.607 368.983 172.607 368.96 172.629C368.243 173.147 367.526 173.666 366.809 174.161C363.628 176.346 360.335 178.329 356.907 180.108C355.249 180.964 353.546 181.775 351.843 182.519C350.947 182.901 350.029 183.375 349.088 183.667C348.998 183.69 350.387 183.172 349.782 183.397C349.513 183.487 349.267 183.6 349.021 183.69C348.505 183.893 347.99 184.073 347.475 184.253C345.951 184.794 344.674 185.515 343.823 186.956C343.106 188.173 342.77 189.952 343.173 191.326C343.98 194.12 347.139 196.733 350.208 195.652C364.3 190.538 377.115 182.383 387.645 171.683Z" fill="#FFADC7"/>
</g>
<g style="mix-blend-mode:multiply" opacity="0.2">
<path d="M448.319 97.0433C447.916 82.7009 444.783 68.7382 439.368 55.4681C434.132 42.6672 426.524 30.7822 417.193 20.5504C411.823 14.675 405.826 9.42504 399.359 4.77828C396.875 2.99107 392.803 4.08571 391.348 6.69951C389.715 9.62607 390.632 12.776 393.273 14.6973C394.615 15.6803 395.958 16.6632 397.256 17.7132C397.278 17.7356 397.278 17.7356 397.3 17.7356C397.569 17.959 397.837 18.16 398.106 18.3834C398.755 18.9419 399.426 19.5004 400.075 20.059C402.536 22.2036 404.886 24.4823 407.146 26.828C409.451 29.2408 411.621 31.7428 413.702 34.3343C414.172 34.9151 414.62 35.496 415.09 36.0992C415.291 36.3673 415.515 36.6577 415.716 36.9258C415.783 37.0375 415.873 37.1268 415.94 37.2385C416.925 38.5789 417.864 39.9417 418.782 41.3492C422.384 46.8002 425.517 52.5639 428.135 58.5734C428.426 59.266 428.717 59.9362 429.008 60.6287C429.053 60.7404 429.299 61.366 429.366 61.5C429.433 61.6787 429.5 61.8574 429.545 61.9244C430.149 63.4659 430.708 65.0297 431.223 66.6159C432.252 69.7212 433.17 72.8488 433.931 76.0211C434.781 79.5956 435.452 83.1923 435.967 86.8337C436.012 87.1912 436.056 87.5487 436.101 87.9284C436.123 88.0625 436.146 88.2412 436.146 88.3753C436.146 88.3976 436.146 88.3976 436.146 88.3976C436.168 88.5093 436.168 88.5987 436.191 88.7104C436.191 88.6433 436.168 88.5763 436.168 88.5316C436.258 89.3805 436.347 90.2518 436.414 91.1007C436.571 92.9773 436.661 94.8762 436.705 96.7751C436.795 99.8134 439.144 102.785 442.389 102.695C445.387 102.651 448.408 100.305 448.319 97.0433Z" fill="#4DE1BE"/>
</g>
<g style="mix-blend-mode:multiply" opacity="0.2">
<path d="M90.1575 134.289C93.0021 138.386 96.4628 142.01 100.308 145.203C102.67 147.17 106.83 146.436 108.514 143.97C110.388 141.21 109.747 137.968 107.24 135.874C106.863 135.567 106.489 135.237 106.114 134.908C106.031 134.832 105.679 134.505 105.473 134.305C105.267 134.104 105.02 133.855 104.937 133.78C104.547 133.381 104.177 133.008 103.79 132.587C102.523 131.226 101.331 129.805 100.216 128.303C99.6577 127.552 99.1223 126.803 98.6117 126.035C98.4953 125.844 98.3788 125.653 98.2624 125.462C98.0497 125.104 97.8168 124.722 97.6042 124.365C96.6819 122.748 95.854 121.096 95.1003 119.386C94.3264 117.65 93.7638 115.847 93.1067 114.079C93.0733 113.964 93.0375 113.87 93.004 113.755C92.888 113.34 92.772 112.926 92.6582 112.489C92.4152 111.547 92.1968 110.584 92.001 109.625C91.6092 107.705 91.3343 105.753 91.1716 103.812C91.1252 103.382 91.1013 102.955 91.0796 102.505C91.0576 102.279 91.0557 102.077 91.0561 101.854C90.9972 100.886 91.0709 102.37 91.0641 102.436C90.9355 101.483 91.0407 100.465 91.0716 99.5062C91.1361 97.3428 91.3377 95.1712 91.6717 93.0357C91.8488 91.9801 91.9653 90.8512 92.2973 89.834C92.268 89.8981 91.9151 91.3382 92.1705 90.4026C92.2429 90.1416 92.3152 89.8806 92.3875 89.6196C92.539 89.0312 92.7107 88.4673 92.8824 87.9033C93.7702 85.0196 92.6852 81.4623 89.5275 80.398C86.6974 79.457 82.8822 80.5843 81.9266 83.6847C76.616 100.832 79.9035 119.539 90.1575 134.289Z" fill="#4DE1BE"/>
</g>
<g style="mix-blend-mode:multiply" opacity="0.2">
<path d="M86.6865 93.0707C89.9907 93.2527 92.6102 91.09 93.1059 87.8212C93.2297 87.0608 93.3758 86.3028 93.5219 85.5447C93.5968 85.2568 93.6694 84.9915 93.7444 84.7036C94.1614 83.2913 94.6433 81.9085 95.2347 80.5597C95.5304 79.8853 95.8261 79.2109 96.1642 78.5636C96.3086 78.2601 96.4976 77.9613 96.6397 77.6803L96.642 77.6579C97.383 76.3927 98.2111 75.1593 99.0793 73.9756C99.4976 73.4275 99.9135 72.902 100.352 72.3787C100.608 72.0868 100.867 71.7724 101.123 71.4805C101.199 71.3974 101.35 71.2538 101.475 71.1304C101.377 71.2111 101.276 71.3144 101.125 71.458C101.276 71.3144 101.401 71.1909 101.552 71.0473C101.678 70.9239 101.754 70.8408 101.754 70.8408C102.607 70.0193 103.436 69.218 104.374 68.4508C105.461 67.5624 106.732 66.8524 107.818 65.964C108.108 65.7892 108.395 65.6369 108.706 65.4644C109.401 65.0814 110.114 64.7457 110.827 64.41C113.604 63.1277 115.18 59.4702 113.734 56.6148C112.309 53.7843 108.956 52.3238 105.988 53.7001C92.9288 59.7648 83.6463 72.3819 81.4753 86.6202C81.0027 89.664 83.6307 92.8916 86.6865 93.0707Z" fill="#FFCF00"/>
</g>
<g style="mix-blend-mode:multiply" opacity="0.2">
<path d="M44.5511 119.553C47.6881 134.147 53.9717 147.962 62.9031 159.931C67.8955 166.601 73.7961 172.553 80.3219 177.691C82.719 179.584 86.8185 178.745 88.4332 176.206C90.2118 173.392 89.5128 170.118 86.9488 168.095C85.6156 167.033 84.2848 165.949 83.0054 164.802C82.9631 164.775 82.9431 164.751 82.8808 164.699C82.5916 164.444 82.3046 164.166 82.0377 163.913C81.4014 163.307 80.7652 162.7 80.1536 162.073C77.7426 159.66 75.4816 157.104 73.3459 154.426C72.288 153.1 71.2571 151.731 70.2754 150.322C69.8622 149.738 69.4714 149.157 69.0782 148.598C69.0959 148.645 69.1159 148.669 69.1336 148.716C69.0959 148.645 69.0359 148.571 68.9982 148.499C68.9605 148.428 68.9005 148.354 68.8605 148.305C68.8205 148.256 68.7828 148.184 68.7451 148.112C68.512 147.75 68.2988 147.413 68.0657 147.05C66.2676 144.159 64.5949 141.146 63.1076 138.084C61.6225 135 60.2805 131.841 59.1238 128.633C58.9869 128.213 58.8276 127.791 58.6883 127.393C58.6906 127.371 58.6682 127.368 58.6705 127.346C58.4166 126.531 58.1403 125.713 57.9086 124.9C57.423 123.272 56.9643 121.601 56.5724 119.938C55.7665 116.608 55.1436 113.252 54.6815 109.868C54.4505 108.176 54.2886 106.469 54.1491 104.763C54.1213 104.377 54.0936 103.991 54.0658 103.605L54.0681 103.583C54.0704 103.56 54.0727 103.538 54.0527 103.513C54.0087 102.63 53.987 101.748 53.9653 100.867C53.8907 97.004 54.0393 93.1643 54.4577 89.3299C54.6512 87.4562 54.9093 85.6117 55.2344 83.7741C55.4003 82.8218 55.5063 81.7957 55.7838 80.855C55.8153 80.768 55.4848 82.2218 55.6409 81.5842C55.7131 81.3211 55.763 81.0557 55.8153 80.7681C55.9375 80.2396 56.062 79.6889 56.2065 79.1627C56.5931 77.602 56.6982 76.1475 55.9511 74.6501C55.3371 73.3919 54.0469 72.1314 52.6693 71.7186C49.894 70.8684 46.0053 72.0675 45.2052 75.2313C41.635 89.7192 41.3986 104.889 44.5511 119.553Z" fill="#FF975E"/>
<path d="M69.0225 148.479C69.0425 148.504 69.0602 148.551 69.1025 148.578C68.5455 147.641 68.6163 147.829 68.7694 148.093C68.7894 148.117 68.7894 148.117 68.8094 148.142C68.8671 148.238 68.9448 148.359 69.0225 148.479Z" fill="#FF975E"/>
</g>
<g style="mix-blend-mode:multiply" opacity="0.2">
<path d="M78.0059 30.3221C66.4794 39.8662 57.1108 51.8525 50.5835 65.3324C46.9457 72.8604 44.3828 80.8843 42.8159 89.079C42.2337 92.0988 44.8454 95.3804 47.8609 95.6239C51.1662 95.8972 53.7737 93.766 54.3766 90.5445C54.7085 88.8577 55.0626 87.1731 55.4813 85.5179C55.4859 85.4731 55.5129 85.4306 55.5198 85.3634C55.626 84.9893 55.7322 84.6153 55.8384 84.2413C56.0846 83.3835 56.3285 82.5481 56.5971 81.6926C57.6327 78.4253 58.8642 75.2235 60.2695 72.0848C60.9709 70.5267 61.7169 68.9732 62.5052 67.4467C62.8397 66.8245 63.152 66.2001 63.5088 65.5802C63.4819 65.6227 63.4573 65.6428 63.4304 65.6853C63.4819 65.6227 63.5134 65.5353 63.5673 65.4503C63.5965 65.3854 63.6503 65.3003 63.6795 65.2354C63.7088 65.1705 63.7603 65.1079 63.7895 65.043C64.0071 64.6805 64.2025 64.3156 64.4201 63.9531C66.1657 61.0082 68.0603 58.1466 70.124 55.393C72.1654 52.6371 74.3758 49.9893 76.6861 47.465C76.9906 47.1341 77.2927 46.8256 77.5971 46.4947C77.6217 46.4746 77.6218 46.4746 77.6464 46.4545C78.2506 45.8375 78.8526 45.2429 79.4791 44.6282C80.7053 43.4414 81.9738 42.2815 83.2622 41.1463C85.8368 38.8984 88.5334 36.7764 91.3277 34.8003C92.7359 33.8134 94.1619 32.8736 95.6078 31.9586C95.9452 31.7443 96.2581 31.5501 96.5932 31.3583L96.6178 31.3382C96.6424 31.3181 96.6647 31.3204 96.6893 31.3003C97.4556 30.8586 98.222 30.4168 98.986 29.9975C102.375 28.1507 105.855 26.5171 109.447 25.0991C111.184 24.4179 112.961 23.7861 114.731 23.2216C115.662 22.9327 116.624 22.5565 117.59 22.3619C117.682 22.3487 116.247 22.7214 116.872 22.5594C117.148 22.4974 117.405 22.4107 117.66 22.3464C118.193 22.1976 118.724 22.0713 119.255 21.945C120.826 21.5637 122.17 20.9778 123.165 19.6312C124.003 18.4948 124.521 16.7592 124.261 15.3509C123.745 12.4895 120.871 9.56574 117.707 10.326C103.164 13.965 89.5792 20.7602 78.0059 30.3221Z" fill="#FFADC7"/>
</g>
<g style="mix-blend-mode:multiply" opacity="0.2">
<path d="M9.98682 98.335C8.91427 112.643 10.5962 126.854 14.6196 140.61C18.5131 153.881 24.8601 166.484 33.0908 177.62C37.8292 184.016 43.2551 189.855 49.2104 195.141C51.4975 197.174 55.6609 196.503 57.3761 194.053C59.3016 191.309 58.7126 188.082 56.2835 185.9C55.0489 184.784 53.8144 183.668 52.6313 182.49C52.6113 182.466 52.6113 182.466 52.5891 182.464C52.3449 182.214 52.0985 181.986 51.8543 181.736C51.2662 181.114 50.6558 180.49 50.0677 179.868C47.8396 177.481 45.7366 174.973 43.7295 172.408C41.6847 169.771 39.7827 167.059 37.9788 164.268C37.5711 163.642 37.1856 163.018 36.7801 162.37C36.6074 162.083 36.4146 161.771 36.2418 161.483C36.1865 161.365 36.1066 161.267 36.0513 161.149C35.2097 159.715 34.4148 158.263 33.6468 156.768C30.6232 150.976 28.0991 144.921 26.1121 138.675C25.8939 137.956 25.6734 137.259 25.4552 136.54C25.4221 136.425 25.2415 135.777 25.1885 135.637C25.1401 135.452 25.0917 135.268 25.0541 135.196C24.6114 133.601 24.2156 131.988 23.8666 130.357C23.1617 127.163 22.5704 123.958 22.1394 120.724C21.6608 117.081 21.3625 113.434 21.2246 109.759C21.2168 109.399 21.209 109.039 21.2035 108.657C21.195 108.521 21.1911 108.341 21.2049 108.208C21.2072 108.185 21.2072 108.185 21.2072 108.185C21.1964 108.072 21.2056 107.983 21.1948 107.87C21.1879 107.936 21.2033 108.005 21.1987 108.05C21.1968 107.196 21.1973 106.32 21.2177 105.469C21.2547 103.586 21.3607 101.688 21.5112 99.7946C21.7343 96.7632 19.7024 93.5664 16.4658 93.322C13.4786 93.0585 10.2328 95.0814 9.98682 98.335Z" fill="#4DE1BE"/>
</g>
</svg>
