<svg width="148" height="92" viewBox="0 0 148 92" fill="none" xmlns="http://www.w3.org/2000/svg">
<g style="mix-blend-mode:multiply">
<path d="M93.5451 12.5523C92.0162 6.10647 85.6117 0.394042 78.9386 0.0221667C72.059 -0.370368 64.6731 4.495 62.5038 11.0751C60.9337 15.8372 61.2539 21.0744 64.0223 25.32C73.7117 40.1434 97.615 29.6999 93.5451 12.5523ZM78.5358 8.35837C78.6907 7.94517 78.98 7.63528 79.3622 7.41835C79.7547 7.20142 80.2299 7.21176 80.6431 7.34605C81.1699 7.51133 81.5314 7.9865 81.6967 8.49266C81.862 9.00915 81.9963 9.63927 81.831 10.1661C81.7277 10.507 81.4695 10.7962 81.1802 10.9822C80.86 11.1991 80.5088 11.2817 80.1266 11.2714C79.6824 11.2507 79.3105 11.0028 79.0006 10.7033C78.9696 10.6723 78.9387 10.6413 78.918 10.6103C78.8147 10.4863 78.7011 10.3211 78.6287 10.1764C78.5358 9.9905 78.4635 9.78389 78.4325 9.58762C78.3602 9.19509 78.3912 8.74057 78.5358 8.35837ZM69.9 11.1888C69.9103 11.1681 69.9207 11.1578 69.931 11.1371C69.962 11.0131 70.0136 10.8995 70.0756 10.7859C70.1583 10.5896 70.2822 10.414 70.4475 10.2797L70.809 10.0421C70.9537 9.99049 71.0879 9.94917 71.2326 9.89752C71.4598 9.84587 71.6768 9.85621 71.8937 9.91819C72.0383 9.92852 72.1726 9.98016 72.2965 10.0628C72.4928 10.1454 72.6684 10.2694 72.8027 10.445C72.813 10.4553 72.8234 10.4657 72.8234 10.4863C72.9267 10.5793 73.0093 10.6929 73.0816 10.8169C73.2366 11.0028 73.3295 11.2198 73.3605 11.4677C73.3812 11.7156 73.3915 11.9635 73.4018 12.2217C73.3812 12.5316 73.2779 12.8106 73.1023 13.0688C72.999 13.1824 72.906 13.296 72.8027 13.4097C72.4618 13.7402 71.966 13.8539 71.5115 13.8435C71.2739 13.8332 71.0569 13.7712 70.871 13.6473C70.6644 13.5646 70.4785 13.4303 70.3339 13.2547C70.2202 13.1411 70.1479 13.0171 70.086 12.8725C70.086 12.8622 70.0756 12.8519 70.0756 12.8415C70.0653 12.8105 70.0549 12.7899 70.0446 12.7589C69.9723 12.5626 69.9 12.3664 69.838 12.1598C69.776 11.8085 69.7967 11.4883 69.9 11.1888ZM88.4008 16.8702C88.2149 17.9651 87.812 19.0291 87.1406 20.2067C86.3245 21.6529 85.1056 23.0888 83.6077 24.3697C82.2029 25.5783 80.7567 26.3323 79.3105 26.6112C78.7424 26.7249 78.1536 26.7559 77.5751 26.7249C75.788 26.6216 73.8254 25.8572 71.904 24.5246C70.024 23.223 68.5571 21.6219 67.6584 19.8968C67.3279 19.2564 67.5655 18.399 68.1956 17.9755C68.3609 17.8619 68.5571 17.7895 68.7534 17.7482C69.2802 17.6449 69.8277 17.8309 70.1893 18.2337C70.3235 18.3784 70.4475 18.523 70.5818 18.6676C70.8194 18.9362 71.0673 19.2151 71.3152 19.4836C71.5115 19.7006 71.7181 19.9072 71.9247 20.1034C71.9453 20.1241 72.0383 20.2067 72.1313 20.2997C72.2449 20.403 72.3585 20.5166 72.4825 20.6199C72.6168 20.7335 72.751 20.8575 72.8853 20.9711L72.8957 20.9608C72.9163 20.9711 72.9577 21.0125 72.9577 21.0125L72.968 21.0228C73.0403 21.0744 73.1023 21.1364 73.1746 21.1881C73.2675 21.2707 73.3709 21.343 73.4742 21.4257C73.9493 21.7872 74.4245 22.1074 74.8997 22.3863C74.9203 22.3967 75.0133 22.4483 75.1063 22.5C75.2715 22.5929 75.4368 22.6859 75.6124 22.7685C75.7777 22.8408 75.943 22.9132 76.1186 22.9751C76.3252 23.0578 76.5318 23.1198 76.7281 23.1817C76.852 23.223 76.9863 23.254 77.1309 23.2954H77.1413L77.2342 23.3057H77.2446C77.5131 23.347 77.7817 23.378 78.0709 23.3883C78.1536 23.3883 78.2466 23.3883 78.3292 23.3883C78.5461 23.378 78.887 23.3263 79.3415 23.2024C79.5274 23.1507 79.7134 23.0578 79.889 22.9751C80.1266 22.8615 80.3642 22.7272 80.5914 22.5826L80.6121 22.5723L80.7154 22.5C80.8497 22.407 80.9633 22.314 81.0873 22.221C81.5624 21.8492 81.9653 21.498 82.3165 21.1364C82.3372 21.1158 82.4095 21.0434 82.4818 20.9608C82.5231 20.9092 82.5748 20.8575 82.6161 20.8162L82.6264 20.8265C82.74 20.6922 82.8743 20.5373 82.9983 20.372C83.2979 19.9898 83.5768 19.5766 83.8763 19.0498L83.928 18.9465L83.9383 18.9362C83.9796 18.8432 84.021 18.7502 84.0623 18.6573C84.1656 18.4197 84.2688 18.1718 84.3515 17.9342C84.4135 17.7482 84.4755 17.5623 84.5271 17.3763C84.5478 17.304 84.5684 17.2317 84.5788 17.1594L84.5891 17.1078C84.6097 16.9735 84.6304 16.8392 84.6407 16.7049C84.682 16.3124 84.7234 15.9302 84.7544 15.5376V15.4137L84.744 15.3414C84.7337 15.2897 84.7337 15.2277 84.7234 15.1761L84.713 15.0521C84.6717 14.7216 84.6407 14.4117 84.6717 14.1121C84.7647 13.1308 85.4671 12.6556 86.0972 12.5316C86.717 12.4077 87.6157 12.5833 88.1012 13.4613C88.7107 14.5666 88.5144 16.2091 88.4008 16.8702Z" fill="#FFCF00"/>
<path d="M68.4123 51.6509C69.0011 50.9175 72.4823 49.7502 75.1061 48.9548C79.5479 47.6119 81.6139 46.9921 84.8781 46.0211C86.2623 45.6079 87.6775 45.2567 89.0204 44.7092C89.8985 44.3477 90.7042 43.8415 91.4376 43.2424C92.202 42.6122 92.5945 41.8685 93.1317 41.0318C94.2886 39.2137 95.2803 37.3027 96.2513 35.3813C97.4806 32.9538 98.9061 30.485 99.6498 27.9232C100.538 24.8139 97.4083 23.347 95.6109 25.5163C93.7618 27.7372 90.6215 31.1771 88.0391 33.1398C86.5516 34.2761 85.3533 34.3794 82.6985 34.8132C78.391 35.526 76.6142 35.7119 72.1724 36.1664C74.7858 34.307 83.8555 30.0615 83.0394 25.9192C82.5332 23.3574 77.7609 24.3904 76.1494 24.8449C74.0628 25.4234 71.9245 26.0431 69.8585 26.57C65.8918 27.572 62.1628 28.7289 58.568 30.7536C55.7066 32.365 53.7336 35.0405 52.1118 37.8295C50.9239 39.8748 49.2194 42.292 48.517 44.5233C47.7836 46.8372 50.1285 48.1904 51.8019 49.182C54.6736 50.8968 57.6279 52.436 60.6236 53.9751C61.9561 54.6672 64.0738 56.196 65.6026 55.9791C66.8112 55.7932 67.7822 52.4256 68.4123 51.6509Z" fill="#FFADC7"/>
<path d="M74.9305 46.0726C74.3004 45.1636 73.0711 44.8227 72.1001 45.4425C70.8606 46.2379 69.6106 47.0333 68.371 47.8287C67.524 48.3762 67.1831 49.6365 67.7822 50.4938C68.402 51.3822 69.5073 51.6198 70.4474 51.0826C71.7283 50.3492 73.0195 49.6261 74.3004 48.8927C75.2404 48.3762 75.5503 46.9507 74.9305 46.0726Z" fill="#FF975E"/>
<path d="M99.2261 26.3221C98.4101 25.9295 97.3048 26.1568 96.8916 27.0348C96.6747 27.4893 96.4578 27.9439 96.2408 28.3881C96.1375 28.605 96.0342 28.8116 95.9309 29.0285C95.683 29.5966 95.6727 30.0408 95.7863 30.6399C95.9929 31.7556 97.4907 32.0861 98.3275 31.5593C99.2571 30.9808 99.5464 29.638 99.9286 28.6566C100.269 27.8199 100.135 26.7559 99.2261 26.3221Z" fill="#FF6B70"/>
</g>
<path d="M13.1275 74.8182V85H11.283V76.6129H11.2233L8.84195 78.1342V76.4439L11.3725 74.8182H13.1275ZM21.1292 74.8182V85H19.2848V74.8182H21.1292ZM23.047 85V77.3636H24.7672V78.6612H24.8567C25.0158 78.2237 25.2793 77.8823 25.6472 77.6371C26.0151 77.3885 26.4542 77.2642 26.9646 77.2642C27.4817 77.2642 27.9175 77.3902 28.2722 77.642C28.6301 77.8906 28.882 78.2304 29.0279 78.6612H29.1074C29.2764 78.237 29.5615 77.8989 29.9625 77.647C30.3669 77.3918 30.8458 77.2642 31.3993 77.2642C32.102 77.2642 32.6753 77.4863 33.1195 77.9304C33.5636 78.3745 33.7857 79.0225 33.7857 79.8743V85H31.981V80.1527C31.981 79.6787 31.855 79.3324 31.6031 79.1136C31.3512 78.8916 31.043 78.7805 30.6784 78.7805C30.2442 78.7805 29.9045 78.9164 29.6592 79.1882C29.4173 79.4567 29.2963 79.8063 29.2963 80.2372V85H27.5314V80.0781C27.5314 79.6837 27.4121 79.3688 27.1735 79.1335C26.9381 78.8982 26.6299 78.7805 26.2487 78.7805C25.9902 78.7805 25.7549 78.8468 25.5428 78.9794C25.3306 79.1087 25.1616 79.2926 25.0357 79.5312C24.9097 79.7666 24.8467 80.0417 24.8467 80.3565V85H23.047ZM35.6115 87.8636V77.3636H37.3814V78.6264H37.4858C37.5786 78.4408 37.7095 78.2436 37.8785 78.0348C38.0476 77.8227 38.2763 77.642 38.5646 77.4929C38.853 77.3404 39.2209 77.2642 39.6683 77.2642C40.2583 77.2642 40.7902 77.415 41.2642 77.7166C41.7415 78.0149 42.1193 78.4574 42.3977 79.044C42.6794 79.6274 42.8203 80.3433 42.8203 81.1918C42.8203 82.0303 42.6827 82.7429 42.4076 83.3295C42.1326 83.9162 41.758 84.3636 41.2841 84.6719C40.8101 84.9801 40.2732 85.1342 39.6733 85.1342C39.2358 85.1342 38.8728 85.0613 38.5845 84.9155C38.2961 84.7696 38.0641 84.594 37.8885 84.3885C37.7161 84.1797 37.5819 83.9825 37.4858 83.7969H37.4112V87.8636H35.6115ZM37.3764 81.1818C37.3764 81.6757 37.446 82.1082 37.5852 82.4794C37.7277 82.8506 37.9316 83.1406 38.1967 83.3494C38.4652 83.5549 38.79 83.6577 39.1711 83.6577C39.5689 83.6577 39.902 83.5516 40.1704 83.3395C40.4389 83.1241 40.6411 82.8307 40.777 82.4595C40.9162 82.085 40.9858 81.6591 40.9858 81.1818C40.9858 80.7079 40.9178 80.2869 40.7819 79.919C40.646 79.5511 40.4439 79.2628 40.1754 79.054C39.9069 78.8452 39.5722 78.7408 39.1711 78.7408C38.7867 78.7408 38.4602 78.8419 38.1917 79.044C37.9233 79.2462 37.7194 79.5296 37.5802 79.8942C37.4443 80.2588 37.3764 80.688 37.3764 81.1818ZM46.5589 85.1541C46.075 85.1541 45.6392 85.0679 45.2514 84.8956C44.8669 84.7199 44.562 84.4614 44.3366 84.12C44.1146 83.7786 44.0035 83.3577 44.0035 82.8572C44.0035 82.4264 44.0831 82.0701 44.2422 81.7884C44.4013 81.5066 44.6183 81.2812 44.8934 81.1122C45.1685 80.9432 45.4784 80.8156 45.8231 80.7294C46.1711 80.6399 46.5308 80.5753 46.902 80.5355C47.3494 80.4891 47.7123 80.4477 47.9907 80.4112C48.2692 80.3714 48.4713 80.3118 48.5973 80.2322C48.7265 80.1494 48.7912 80.0218 48.7912 79.8494V79.8196C48.7912 79.4451 48.6801 79.1551 48.4581 78.9496C48.236 78.7441 47.9162 78.6413 47.4986 78.6413C47.0577 78.6413 46.7081 78.7375 46.4496 78.9297C46.1943 79.1219 46.022 79.349 45.9325 79.6108L44.2521 79.3722C44.3847 78.9081 44.6034 78.5204 44.9084 78.2088C45.2133 77.8939 45.5862 77.6586 46.027 77.5028C46.4678 77.3438 46.955 77.2642 47.4886 77.2642C47.8565 77.2642 48.2228 77.3073 48.5873 77.3935C48.9519 77.4796 49.285 77.6222 49.5866 77.821C49.8882 78.0166 50.1302 78.2834 50.3125 78.6214C50.4981 78.9595 50.5909 79.3821 50.5909 79.8892V85H48.8608V83.951H48.8011C48.6917 84.1631 48.5376 84.362 48.3388 84.5476C48.1432 84.7299 47.8963 84.8774 47.598 84.9901C47.303 85.0994 46.9567 85.1541 46.5589 85.1541ZM47.0263 83.8317C47.3875 83.8317 47.7007 83.7604 47.9659 83.6179C48.231 83.4721 48.4349 83.2798 48.5774 83.0412C48.7232 82.8026 48.7961 82.5424 48.7961 82.2607V81.3608C48.7398 81.4072 48.6437 81.4503 48.5078 81.4901C48.3752 81.5298 48.2261 81.5646 48.0603 81.5945C47.8946 81.6243 47.7306 81.6508 47.5682 81.674C47.4058 81.6972 47.2649 81.7171 47.1456 81.7337C46.8771 81.7701 46.6368 81.8298 46.4247 81.9126C46.2126 81.9955 46.0452 82.1115 45.9226 82.2607C45.7999 82.4065 45.7386 82.5954 45.7386 82.8274C45.7386 83.1589 45.8596 83.4091 46.1015 83.5781C46.3435 83.7472 46.6517 83.8317 47.0263 83.8317ZM55.7315 85.1491C54.9692 85.1491 54.3146 84.9818 53.7677 84.647C53.2242 84.3123 52.8049 83.8499 52.5099 83.2599C52.2183 82.6667 52.0724 81.9839 52.0724 81.2116C52.0724 80.4361 52.2216 79.7517 52.5199 79.1584C52.8182 78.5618 53.2391 78.0978 53.7826 77.7663C54.3295 77.4316 54.9758 77.2642 55.7216 77.2642C56.3414 77.2642 56.8899 77.3786 57.3672 77.6072C57.8478 77.8326 58.2306 78.1525 58.5156 78.5668C58.8006 78.9777 58.963 79.4583 59.0028 80.0085H57.2826C57.213 79.6406 57.0473 79.334 56.7855 79.0888C56.527 78.8402 56.1806 78.7159 55.7464 78.7159C55.3785 78.7159 55.0554 78.8153 54.777 79.0142C54.4986 79.2098 54.2815 79.4915 54.1257 79.8594C53.9732 80.2273 53.897 80.6681 53.897 81.1818C53.897 81.7022 53.9732 82.1496 54.1257 82.5241C54.2782 82.8954 54.4919 83.1821 54.767 83.3842C55.0454 83.5831 55.3719 83.6825 55.7464 83.6825C56.0116 83.6825 56.2486 83.6328 56.4574 83.5334C56.6695 83.4306 56.8468 83.2831 56.9893 83.0909C57.1318 82.8987 57.2296 82.665 57.2826 82.3899H59.0028C58.9597 82.9302 58.8006 83.4091 58.5255 83.8267C58.2505 84.241 57.8759 84.5658 57.402 84.8011C56.928 85.0331 56.3712 85.1491 55.7315 85.1491ZM64.2938 77.3636V78.7557H59.9039V77.3636H64.2938ZM60.9877 75.5341H62.7874V82.7031C62.7874 82.9451 62.8239 83.1307 62.8968 83.2599C62.973 83.3859 63.0725 83.4721 63.1951 83.5185C63.3177 83.5649 63.4536 83.5881 63.6028 83.5881C63.7155 83.5881 63.8182 83.5798 63.911 83.5632C64.0071 83.5466 64.0801 83.5317 64.1298 83.5185L64.433 84.9254C64.3369 84.9586 64.1994 84.995 64.0204 85.0348C63.8447 85.0746 63.6293 85.0978 63.3741 85.1044C62.9233 85.1177 62.5173 85.0497 62.1561 84.9006C61.7948 84.7481 61.5081 84.5128 61.296 84.1946C61.0872 83.8764 60.9844 83.4787 60.9877 83.0014V75.5341ZM69.0479 85.1491C68.3022 85.1491 67.6559 84.9851 67.109 84.657C66.5621 84.3288 66.1379 83.8698 65.8363 83.2798C65.538 82.6899 65.3888 82.0005 65.3888 81.2116C65.3888 80.4228 65.538 79.7318 65.8363 79.1385C66.1379 78.5452 66.5621 78.0845 67.109 77.7564C67.6559 77.4283 68.3022 77.2642 69.0479 77.2642C69.7937 77.2642 70.44 77.4283 70.9868 77.7564C71.5337 78.0845 71.9563 78.5452 72.2546 79.1385C72.5562 79.7318 72.707 80.4228 72.707 81.2116C72.707 82.0005 72.5562 82.6899 72.2546 83.2798C71.9563 83.8698 71.5337 84.3288 70.9868 84.657C70.44 84.9851 69.7937 85.1491 69.0479 85.1491ZM69.0579 83.7074C69.4622 83.7074 69.8003 83.5964 70.0721 83.3743C70.3438 83.1489 70.546 82.8473 70.6786 82.4695C70.8145 82.0916 70.8824 81.6707 70.8824 81.2067C70.8824 80.7393 70.8145 80.3168 70.6786 79.9389C70.546 79.5578 70.3438 79.2545 70.0721 79.0291C69.8003 78.8037 69.4622 78.6911 69.0579 78.6911C68.6436 78.6911 68.2989 78.8037 68.0238 79.0291C67.752 79.2545 67.5482 79.5578 67.4123 79.9389C67.2797 80.3168 67.2134 80.7393 67.2134 81.2067C67.2134 81.6707 67.2797 82.0916 67.4123 82.4695C67.5482 82.8473 67.752 83.1489 68.0238 83.3743C68.2989 83.5964 68.6436 83.7074 69.0579 83.7074ZM81.0382 85.1491C80.2758 85.1491 79.6212 84.9818 79.0744 84.647C78.5308 84.3123 78.1115 83.8499 77.8166 83.2599C77.5249 82.6667 77.3791 81.9839 77.3791 81.2116C77.3791 80.4361 77.5282 79.7517 77.8265 79.1584C78.1248 78.5618 78.5457 78.0978 79.0893 77.7663C79.6362 77.4316 80.2825 77.2642 81.0282 77.2642C81.648 77.2642 82.1965 77.3786 82.6738 77.6072C83.1544 77.8326 83.5372 78.1525 83.8222 78.5668C84.1073 78.9777 84.2697 79.4583 84.3095 80.0085H82.5893C82.5197 79.6406 82.354 79.334 82.0921 79.0888C81.8336 78.8402 81.4873 78.7159 81.0531 78.7159C80.6852 78.7159 80.362 78.8153 80.0836 79.0142C79.8052 79.2098 79.5881 79.4915 79.4323 79.8594C79.2799 80.2273 79.2036 80.6681 79.2036 81.1818C79.2036 81.7022 79.2799 82.1496 79.4323 82.5241C79.5848 82.8954 79.7986 83.1821 80.0737 83.3842C80.3521 83.5831 80.6785 83.6825 81.0531 83.6825C81.3182 83.6825 81.5552 83.6328 81.764 83.5334C81.9761 83.4306 82.1534 83.2831 82.296 83.0909C82.4385 82.8987 82.5363 82.665 82.5893 82.3899H84.3095C84.2664 82.9302 84.1073 83.4091 83.8322 83.8267C83.5571 84.241 83.1826 84.5658 82.7086 84.8011C82.2346 85.0331 81.6778 85.1491 81.0382 85.1491ZM89.1182 85.1491C88.3725 85.1491 87.7262 84.9851 87.1793 84.657C86.6324 84.3288 86.2082 83.8698 85.9066 83.2798C85.6083 82.6899 85.4591 82.0005 85.4591 81.2116C85.4591 80.4228 85.6083 79.7318 85.9066 79.1385C86.2082 78.5452 86.6324 78.0845 87.1793 77.7564C87.7262 77.4283 88.3725 77.2642 89.1182 77.2642C89.864 77.2642 90.5103 77.4283 91.0572 77.7564C91.604 78.0845 92.0266 78.5452 92.3249 79.1385C92.6265 79.7318 92.7773 80.4228 92.7773 81.2116C92.7773 82.0005 92.6265 82.6899 92.3249 83.2798C92.0266 83.8698 91.604 84.3288 91.0572 84.657C90.5103 84.9851 89.864 85.1491 89.1182 85.1491ZM89.1282 83.7074C89.5325 83.7074 89.8706 83.5964 90.1424 83.3743C90.4142 83.1489 90.6163 82.8473 90.7489 82.4695C90.8848 82.0916 90.9527 81.6707 90.9527 81.2067C90.9527 80.7393 90.8848 80.3168 90.7489 79.9389C90.6163 79.5578 90.4142 79.2545 90.1424 79.0291C89.8706 78.8037 89.5325 78.6911 89.1282 78.6911C88.7139 78.6911 88.3692 78.8037 88.0941 79.0291C87.8223 79.2545 87.6185 79.5578 87.4826 79.9389C87.35 80.3168 87.2837 80.7393 87.2837 81.2067C87.2837 81.6707 87.35 82.0916 87.4826 82.4695C87.6185 82.8473 87.8223 83.1489 88.0941 83.3743C88.3692 83.5964 88.7139 83.7074 89.1282 83.7074ZM94.3048 85V77.3636H96.025V78.6612H96.1145C96.2736 78.2237 96.5371 77.8823 96.905 77.6371C97.2729 77.3885 97.712 77.2642 98.2225 77.2642C98.7395 77.2642 99.1753 77.3902 99.53 77.642C99.8879 77.8906 100.14 78.2304 100.286 78.6612H100.365C100.534 78.237 100.819 77.8989 101.22 77.647C101.625 77.3918 102.104 77.2642 102.657 77.2642C103.36 77.2642 103.933 77.4863 104.377 77.9304C104.821 78.3745 105.043 79.0225 105.043 79.8743V85H103.239V80.1527C103.239 79.6787 103.113 79.3324 102.861 79.1136C102.609 78.8916 102.301 78.7805 101.936 78.7805C101.502 78.7805 101.162 78.9164 100.917 79.1882C100.675 79.4567 100.554 79.8063 100.554 80.2372V85H98.7892V80.0781C98.7892 79.6837 98.6699 79.3688 98.4313 79.1335C98.1959 78.8982 97.8877 78.7805 97.5065 78.7805C97.248 78.7805 97.0127 78.8468 96.8006 78.9794C96.5885 79.1087 96.4194 79.2926 96.2935 79.5312C96.1675 79.7666 96.1046 80.0417 96.1046 80.3565V85H94.3048ZM106.869 87.8636V77.3636H108.639V78.6264H108.744C108.836 78.4408 108.967 78.2436 109.136 78.0348C109.305 77.8227 109.534 77.642 109.822 77.4929C110.111 77.3404 110.479 77.2642 110.926 77.2642C111.516 77.2642 112.048 77.415 112.522 77.7166C112.999 78.0149 113.377 78.4574 113.656 79.044C113.937 79.6274 114.078 80.3433 114.078 81.1918C114.078 82.0303 113.941 82.7429 113.665 83.3295C113.39 83.9162 113.016 84.3636 112.542 84.6719C112.068 84.9801 111.531 85.1342 110.931 85.1342C110.494 85.1342 110.131 85.0613 109.842 84.9155C109.554 84.7696 109.322 84.594 109.146 84.3885C108.974 84.1797 108.84 83.9825 108.744 83.7969H108.669V87.8636H106.869ZM108.634 81.1818C108.634 81.6757 108.704 82.1082 108.843 82.4794C108.986 82.8506 109.189 83.1406 109.455 83.3494C109.723 83.5549 110.048 83.6577 110.429 83.6577C110.827 83.6577 111.16 83.5516 111.428 83.3395C111.697 83.1241 111.899 82.8307 112.035 82.4595C112.174 82.085 112.244 81.6591 112.244 81.1818C112.244 80.7079 112.176 80.2869 112.04 79.919C111.904 79.5511 111.702 79.2628 111.433 79.054C111.165 78.8452 110.83 78.7408 110.429 78.7408C110.044 78.7408 109.718 78.8419 109.45 79.044C109.181 79.2462 108.977 79.5296 108.838 79.8942C108.702 80.2588 108.634 80.688 108.634 81.1818ZM117.419 74.8182V85H115.619V74.8182H117.419ZM122.65 85.1491C121.885 85.1491 121.224 84.9901 120.667 84.6719C120.113 84.3504 119.687 83.8963 119.389 83.3097C119.091 82.7197 118.942 82.0253 118.942 81.2266C118.942 80.4411 119.091 79.7517 119.389 79.1584C119.691 78.5618 120.112 78.0978 120.652 77.7663C121.192 77.4316 121.827 77.2642 122.556 77.2642C123.027 77.2642 123.471 77.3404 123.888 77.4929C124.309 77.642 124.68 77.8741 125.002 78.1889C125.327 78.5038 125.582 78.9048 125.768 79.392C125.953 79.8759 126.046 80.4527 126.046 81.1222V81.674H119.787V80.4609H124.321C124.318 80.1162 124.243 79.8097 124.097 79.5412C123.951 79.2694 123.747 79.0556 123.486 78.8999C123.227 78.7441 122.925 78.6662 122.581 78.6662C122.213 78.6662 121.89 78.7557 121.611 78.9347C121.333 79.1103 121.116 79.3423 120.96 79.6307C120.808 79.9157 120.73 80.2289 120.726 80.5703V81.6293C120.726 82.0734 120.808 82.4545 120.97 82.7727C121.132 83.0876 121.359 83.3295 121.651 83.4986C121.943 83.6643 122.284 83.7472 122.675 83.7472C122.937 83.7472 123.174 83.7107 123.386 83.6378C123.598 83.5616 123.782 83.4505 123.938 83.3047C124.094 83.1589 124.211 82.9782 124.291 82.7628L125.971 82.9517C125.865 83.3958 125.663 83.7836 125.365 84.1151C125.07 84.4432 124.692 84.6984 124.231 84.8807C123.771 85.0597 123.244 85.1491 122.65 85.1491ZM131.382 77.3636V78.7557H126.992V77.3636H131.382ZM128.076 75.5341H129.875V82.7031C129.875 82.9451 129.912 83.1307 129.985 83.2599C130.061 83.3859 130.16 83.4721 130.283 83.5185C130.406 83.5649 130.542 83.5881 130.691 83.5881C130.803 83.5881 130.906 83.5798 130.999 83.5632C131.095 83.5466 131.168 83.5317 131.218 83.5185L131.521 84.9254C131.425 84.9586 131.287 84.995 131.108 85.0348C130.933 85.0746 130.717 85.0978 130.462 85.1044C130.011 85.1177 129.605 85.0497 129.244 84.9006C128.883 84.7481 128.596 84.5128 128.384 84.1946C128.175 83.8764 128.072 83.4787 128.076 83.0014V75.5341ZM136.136 85.1491C135.39 85.1491 134.744 84.9851 134.197 84.657C133.65 84.3288 133.226 83.8698 132.924 83.2798C132.626 82.6899 132.477 82.0005 132.477 81.2116C132.477 80.4228 132.626 79.7318 132.924 79.1385C133.226 78.5452 133.65 78.0845 134.197 77.7564C134.744 77.4283 135.39 77.2642 136.136 77.2642C136.882 77.2642 137.528 77.4283 138.075 77.7564C138.622 78.0845 139.044 78.5452 139.342 79.1385C139.644 79.7318 139.795 80.4228 139.795 81.2116C139.795 82.0005 139.644 82.6899 139.342 83.2798C139.044 83.8698 138.622 84.3288 138.075 84.657C137.528 84.9851 136.882 85.1491 136.136 85.1491ZM136.146 83.7074C136.55 83.7074 136.888 83.5964 137.16 83.3743C137.432 83.1489 137.634 82.8473 137.766 82.4695C137.902 82.0916 137.97 81.6707 137.97 81.2067C137.97 80.7393 137.902 80.3168 137.766 79.9389C137.634 79.5578 137.432 79.2545 137.16 79.0291C136.888 78.8037 136.55 78.6911 136.146 78.6911C135.731 78.6911 135.387 78.8037 135.112 79.0291C134.84 79.2545 134.636 79.5578 134.5 79.9389C134.368 80.3168 134.301 80.7393 134.301 81.2067C134.301 81.6707 134.368 82.0916 134.5 82.4695C134.636 82.8473 134.84 83.1489 135.112 83.3743C135.387 83.5964 135.731 83.7074 136.146 83.7074Z" fill="#5E584F"/>
</svg>
