<svg width="78" height="92" viewBox="0 0 78 92" fill="none" xmlns="http://www.w3.org/2000/svg">
<g style="mix-blend-mode:multiply">
<path fill-rule="evenodd" clip-rule="evenodd" d="M67.2516 16.3555C67.3698 17.0778 66.88 17.7593 66.1576 17.8775C63.9843 18.2331 61.717 18.5021 59.4851 18.7668C57.8633 18.9592 56.2603 19.1493 54.7256 19.3689C48.5127 20.2578 42.326 21.3842 36.1329 22.5548C34.5116 22.8613 32.8694 23.1998 31.2128 23.5413C27.4492 24.3171 23.6121 25.1081 19.7808 25.5725C19.6784 25.5849 19.5774 25.5853 19.4791 25.5748C19.8173 25.8241 20.0317 26.2296 20.0184 26.6814C19.9634 28.5509 18.9836 30.3158 17.1098 31.1189C17.0175 31.1584 16.9185 31.2152 16.7341 31.3252C16.7267 31.3297 16.7191 31.3342 16.7112 31.3389C16.6147 31.3966 16.4894 31.4715 16.3465 31.5469C16.3278 31.589 16.3094 31.6346 16.293 31.6798C16.269 31.7457 16.2564 31.7901 16.2536 31.8016C16.2439 31.8401 16.2347 31.8815 16.2273 31.9226C16.2271 31.9235 16.227 31.9244 16.2268 31.9253C16.2491 31.9492 16.2769 31.9787 16.3131 32.017C16.3203 32.0246 16.3282 32.0329 16.3369 32.042C16.4896 32.202 16.8615 32.5917 17.0172 33.1476C17.2527 33.9886 16.9446 34.6701 16.7234 35.0583C16.6425 35.2005 16.5429 35.3529 16.4753 35.4564C16.4578 35.4831 16.4425 35.5066 16.4301 35.5258C16.3499 35.6507 16.3222 35.7041 16.3115 35.7295C16.2621 35.8473 16.2217 35.9722 16.1913 36.1002C16.2032 36.1097 16.2157 36.1197 16.2291 36.1303C16.2291 36.1303 16.2291 36.1303 16.2291 36.1303L16.2334 36.1337L16.2335 36.1337C16.5352 36.3732 17.0554 36.791 17.2862 37.4322C17.5578 38.1865 17.328 38.8788 17.058 39.4007C16.9371 39.6346 16.9241 39.6826 16.9202 39.698L16.92 39.6986C16.9176 39.7078 16.9043 39.7587 16.9043 39.9994C16.9043 40.1531 16.8926 40.3143 16.8844 40.4266L16.8833 40.4409C16.8738 40.5726 16.8671 40.6673 16.8655 40.7548C16.865 40.781 16.865 40.8033 16.8654 40.8221C17.3331 41.5518 17.8467 42.3872 17.9457 43.6351C18.0406 44.8308 18.1855 46.007 18.4562 47.104C18.5044 47.2996 18.5828 47.4734 18.6236 47.5323C18.933 47.9792 19.0344 48.4435 19.0803 48.773C19.0952 48.8809 19.1056 48.9863 19.1135 49.0783C19.3165 49.117 19.6381 49.1859 19.9598 49.3381C20.5743 49.6288 21.56 50.1326 22.1917 50.9448C22.6411 51.5226 22.537 52.3553 21.9592 52.8047C21.3814 53.2541 20.5487 53.15 20.0993 52.5722C19.8942 52.3085 19.4468 52.0278 18.8263 51.7343C18.8081 51.7257 18.7649 51.7099 18.5385 51.6675C18.5267 51.6653 18.5141 51.663 18.5006 51.6605C18.3147 51.6262 17.9701 51.5627 17.6306 51.4099C17.1788 51.2066 16.9238 50.8459 16.803 50.6385C16.6681 50.4071 16.5608 50.126 16.522 49.8352C16.5024 49.6882 16.4911 49.5417 16.4828 49.4344L16.4812 49.4138C16.4717 49.2913 16.4648 49.2104 16.4547 49.138C16.4456 49.0725 16.4366 49.0381 16.4323 49.024C16.1488 48.6078 15.9729 48.1049 15.8826 47.7391C15.5623 46.441 15.4031 45.1029 15.3033 43.8448C15.2569 43.2612 15.0538 42.9074 14.5591 42.1362C14.2129 41.5966 14.2098 40.9876 14.2151 40.7047C14.2182 40.5413 14.2299 40.3815 14.2383 40.2653L14.2395 40.2489C14.2494 40.1125 14.2535 40.0452 14.2535 39.9994C14.2535 39.6897 14.2664 39.3737 14.3533 39.0365C14.4284 38.745 14.5451 38.4939 14.6592 38.2693C14.6368 38.2509 14.6123 38.2313 14.5857 38.2101C14.5857 38.2101 14.5856 38.2101 14.5856 38.2101L14.5814 38.2067C14.57 38.1977 14.5574 38.1878 14.5438 38.1771C14.3802 38.0486 14.0648 37.8007 13.8424 37.4687C13.5302 37.0025 13.4501 36.4866 13.5224 35.9661C13.5819 35.5382 13.6969 35.11 13.867 34.7044C13.9724 34.4531 14.1074 34.2371 14.2001 34.0928C14.2359 34.037 14.2656 33.9916 14.2912 33.9524C14.3239 33.9021 14.35 33.8622 14.3737 33.8241C14.371 33.8213 14.3683 33.8184 14.3655 33.8155C14.2938 33.7399 14.176 33.6158 14.0691 33.4807C13.9441 33.3226 13.7936 33.1015 13.6881 32.8167C13.5423 32.4231 13.5525 32.0362 13.571 31.8102C13.5918 31.5558 13.641 31.3226 13.6819 31.1586C13.7373 30.9371 13.8458 30.6252 13.9862 30.337C14.0571 30.1914 14.1547 30.0131 14.2817 29.8434C14.3865 29.7032 14.6201 29.4182 15.0053 29.2531C15.0932 29.2154 15.189 29.1604 15.3755 29.0491C15.3819 29.0453 15.3883 29.0415 15.3949 29.0375C15.556 28.9413 15.7955 28.7982 16.0656 28.6825C16.8547 28.3443 17.3395 27.5979 17.3688 26.6035C17.3903 25.8718 18.0009 25.2961 18.7325 25.3176C18.7675 25.3186 18.8022 25.321 18.8364 25.3247C18.5521 25.1156 18.3514 24.7942 18.3056 24.4162C18.2175 23.6895 18.7352 23.0291 19.4618 22.941C23.1817 22.4901 26.8392 21.7358 30.5493 20.9707C32.232 20.6236 33.9256 20.2744 35.6406 19.9502C41.8404 18.7783 48.0755 17.6426 54.3502 16.7448C56.0472 16.502 57.684 16.3092 59.302 16.1185C61.4454 15.8659 63.5558 15.6172 65.7296 15.2615C66.452 15.1433 67.1334 15.6331 67.2516 16.3555ZM68.7483 15.775C69.4799 15.7502 70.093 16.3232 70.1178 17.0547C70.1415 17.752 70.3519 18.4699 70.7062 19.0047C71.0479 19.5204 71.4796 19.814 72.0003 19.8778C72.0018 19.8779 72.0113 19.8786 72.0325 19.8788C72.0641 19.8792 72.0991 19.8784 72.1639 19.8769L72.1807 19.8765C72.2901 19.8737 72.5001 19.8685 72.7236 19.8983C72.977 19.932 73.2766 20.0063 73.5634 20.1247C73.819 20.2302 74.2371 20.44 74.5415 20.8395C74.9097 21.3227 74.914 21.8923 74.9149 22.0744C74.9156 22.2101 74.9079 22.3358 74.9015 22.4255C74.8982 22.4728 74.8957 22.5055 74.8938 22.5304C74.8912 22.565 74.8897 22.5845 74.8887 22.6073C74.8672 23.0905 74.6674 23.4805 74.5768 23.6554C74.5526 23.7022 74.528 23.7481 74.5085 23.7845L74.5036 23.7936C74.4816 23.8346 74.4656 23.8645 74.4516 23.8919C74.4316 23.931 74.4241 23.9487 74.4227 23.9518C74.403 24.0114 74.3862 24.0721 74.374 24.1302C74.367 24.1632 74.3621 24.1927 74.3588 24.2185C74.3838 24.2382 74.4135 24.261 74.4515 24.2897L74.4739 24.3067C74.5253 24.3455 74.5932 24.3968 74.6588 24.4492C74.9551 24.6857 75.5524 25.2049 75.6158 26.1242C75.6553 26.697 75.5008 27.1457 75.3299 27.4861C75.2916 27.5624 75.2509 27.636 75.2132 27.7017C75.4077 27.9145 75.5244 28.1447 75.5946 28.32C75.6968 28.575 75.7494 28.8354 75.7734 29.0657C75.8151 29.4662 75.7972 30.0626 75.5293 30.5649C75.4852 30.6475 75.4304 30.8621 75.4799 31.2643C75.5268 31.6447 75.6507 32.0553 75.7892 32.4016C75.845 32.541 75.9022 32.6646 75.9743 32.8201C76.0017 32.8793 76.0313 32.9432 76.0637 33.0143C76.171 33.2495 76.2976 33.5399 76.396 33.871C76.4893 34.1848 76.561 34.5455 76.6149 34.8173C76.6332 34.9094 76.6495 34.9913 76.6639 35.0577C76.7246 35.3377 76.7962 35.6051 76.8769 35.9063C76.9023 36.0012 76.9287 36.0995 76.9558 36.2025C77.0636 36.6117 77.1779 37.0738 77.2479 37.5678C77.2811 37.8029 77.3278 38.0751 77.3781 38.369C77.4834 38.984 77.6049 39.6937 77.6541 40.3549C77.7093 40.5008 77.7396 40.6589 77.7396 40.8241C77.7396 40.8852 77.7385 40.9539 77.734 41.0215C77.7318 41.0547 77.7277 41.1043 77.7192 41.1613L77.719 41.1625C77.7135 41.1987 77.6935 41.3327 77.6295 41.4877C77.6003 41.5584 77.5171 41.7476 77.3328 41.9294C77.113 42.1462 76.6997 42.3857 76.1688 42.2918C76.1473 42.288 76.1263 42.2837 76.1057 42.2791C76.0713 42.2814 76.0366 42.2823 76.0016 42.2819C75.3546 42.2747 74.5731 42.8537 73.9913 43.8763C73.9326 43.9794 73.8856 44.0998 73.863 44.2059C73.8485 44.2741 73.8492 44.3106 73.8495 44.3198C74.0397 45.0187 73.6331 45.7425 72.9346 45.9421C72.2308 46.1432 71.4972 45.7356 71.2961 45.0318C71.0252 44.0834 71.3683 43.1261 71.6873 42.5654C72.2808 41.5222 73.3793 40.2104 74.9236 39.7772C74.8879 39.5382 74.8458 39.2956 74.8012 39.0389C74.743 38.704 74.6807 38.3452 74.6233 37.9394C74.576 37.6054 74.4949 37.2662 74.3926 36.878C74.3718 36.7992 74.3497 36.7167 74.3268 36.6314C74.243 36.319 74.149 35.9683 74.0733 35.6193C74.0371 35.4524 74.0102 35.316 73.9866 35.1959C73.944 34.9799 73.9119 34.8171 73.8552 34.6264C73.8106 34.4766 73.7463 34.3211 73.6522 34.1148C73.6338 34.0746 73.6132 34.03 73.5909 33.982C73.5116 33.8111 73.4126 33.5974 73.328 33.3861C73.1352 32.9039 72.9324 32.2643 72.8491 31.5885C72.774 30.9795 72.7788 30.2028 73.1112 29.4774C72.8501 29.3153 72.3622 28.9285 72.309 28.1965C72.266 27.606 72.5241 27.0919 72.6079 26.9248C72.6103 26.92 72.6126 26.9155 72.6147 26.9112C72.6952 26.7503 72.7795 26.609 72.8378 26.5113L72.8396 26.5083C72.8576 26.4781 72.873 26.4522 72.8864 26.4296C72.8839 26.4277 72.8813 26.4257 72.8786 26.4237L72.8513 26.403C72.7899 26.3565 72.7084 26.2945 72.6255 26.2256C72.4628 26.0905 72.2337 25.8805 72.0482 25.5816C71.7353 25.0775 71.6874 24.5405 71.7058 24.1502C71.7246 23.7509 71.8178 23.384 71.9096 23.1086C71.9673 22.9356 72.0394 22.7869 72.0919 22.6843C72.1189 22.6315 72.146 22.5809 72.1673 22.5412L72.17 22.5361C72.1714 22.5335 72.1729 22.5308 72.1743 22.5282C72.0622 22.5309 71.8762 22.533 71.6816 22.5093C70.2318 22.333 69.1705 21.4863 68.4964 20.4687C67.8346 19.4698 67.5064 18.2606 67.4686 17.1445C67.4438 16.413 68.0167 15.7998 68.7483 15.775ZM73.484 29.6687C73.4842 29.6688 73.4819 29.6677 73.4777 29.6654C73.4819 29.6675 73.4839 29.6686 73.484 29.6687ZM74.9378 28.2023C74.9379 28.2022 74.9379 28.2021 74.9379 28.202C74.9378 28.2024 74.9378 28.2025 74.9378 28.2023ZM71.4359 47.0396C71.5167 47.7671 70.9925 48.4224 70.2649 48.5032C64.0736 49.1912 57.8922 49.881 51.7314 50.687C44.802 51.5936 37.9367 52.8016 31.1003 54.2764C30.2897 54.4513 29.4479 54.6528 28.588 54.8587C26.8289 55.2798 24.994 55.719 23.1953 55.9855C22.4712 56.0927 21.7972 55.5927 21.69 54.8686C21.5827 54.1445 22.0827 53.4706 22.8068 53.3633C24.4962 53.113 26.1239 52.7225 27.8096 52.318C28.6982 52.1048 29.603 51.8877 30.5413 51.6853C37.4438 50.1962 44.3809 48.9753 51.3875 48.0586C57.5777 47.2488 63.7839 46.5563 69.9722 45.8687C70.6997 45.7878 71.355 46.3121 71.4359 47.0396Z" fill="#8CE0BE"/>
</g>
<g style="mix-blend-mode:multiply">
<path fill-rule="evenodd" clip-rule="evenodd" d="M14.858 15.3163C15.5404 15.0513 16.3083 15.3896 16.5733 16.0719C16.8293 16.7311 17.1839 17.2912 17.6139 17.9707C17.7753 18.2257 17.9474 18.4975 18.1288 18.7977C18.5075 19.4241 18.3067 20.2389 17.6803 20.6176C17.0539 20.9963 16.239 20.7955 15.8604 20.1691C15.745 19.9782 15.6154 19.7739 15.4785 19.5582C15.0117 18.8225 14.4606 17.9539 14.1024 17.0316C13.8374 16.3493 14.1757 15.5813 14.858 15.3163Z" fill="#FFCE00"/>
</g>
<g style="mix-blend-mode:multiply">
<path fill-rule="evenodd" clip-rule="evenodd" d="M18.5115 21.1358C19.1956 20.8754 19.9612 21.219 20.2216 21.9031C20.2404 21.9525 20.2553 21.9769 20.3008 22.0515C20.334 22.1058 20.3835 22.1868 20.4626 22.3235C20.8294 22.957 20.6131 23.7678 19.9795 24.1345C19.346 24.5012 18.5352 24.2849 18.1685 23.6514C18.1611 23.6386 18.1489 23.6187 18.1331 23.593C18.0478 23.4538 17.8572 23.1429 17.7441 22.8459C17.4838 22.1618 17.8273 21.3961 18.5115 21.1358Z" fill="#FFCE00"/>
</g>
<g style="mix-blend-mode:multiply">
<path fill-rule="evenodd" clip-rule="evenodd" d="M32.0036 21.5807C32.7322 21.5101 33.38 22.0436 33.4506 22.7721C33.5705 24.0104 33.8541 25.1531 34.1699 26.4254C34.26 26.7886 34.3528 27.1623 34.4451 27.5518C34.6139 28.2641 34.1734 28.9783 33.4611 29.1471C32.7488 29.3159 32.0346 28.8754 31.8658 28.1631C31.7885 27.8371 31.7058 27.5049 31.6217 27.1667C31.298 25.8665 30.9528 24.4796 30.8122 23.0277C30.7416 22.2991 31.275 21.6513 32.0036 21.5807Z" fill="#F2A9C3"/>
</g>
<g style="mix-blend-mode:multiply">
<path fill-rule="evenodd" clip-rule="evenodd" d="M33.8643 31.2528C34.5958 31.2246 35.2116 31.7947 35.2398 32.5262C35.2697 33.3043 35.412 34.0206 35.5775 34.8534C35.6377 35.1568 35.7011 35.4756 35.7632 35.8185C35.8936 36.5388 35.4155 37.2285 34.6952 37.3589C33.9749 37.4893 33.2853 37.0112 33.1548 36.2909C33.1111 36.0494 33.0601 35.7937 33.0069 35.5271C32.8303 34.6414 32.6297 33.6353 32.5909 32.6282C32.5628 31.8967 33.1329 31.281 33.8643 31.2528Z" fill="#F2A9C3"/>
</g>
<g style="mix-blend-mode:multiply">
<path fill-rule="evenodd" clip-rule="evenodd" d="M35.3087 39.2605C36.0401 39.2323 36.6559 39.8024 36.6841 40.5339C36.7141 41.312 36.8564 42.0283 37.0218 42.8611C37.0821 43.1645 37.1454 43.4833 37.2075 43.8262C37.338 44.5465 36.8598 45.2362 36.1395 45.3666C35.4193 45.497 34.7296 45.0189 34.5992 44.2986C34.5554 44.0571 34.5044 43.8014 34.4513 43.5347C34.2747 42.6491 34.0741 41.643 34.0353 40.6359C34.0071 39.9044 34.5772 39.2886 35.3087 39.2605Z" fill="#F2A9C3"/>
</g>
<g style="mix-blend-mode:multiply">
<path fill-rule="evenodd" clip-rule="evenodd" d="M36.5435 46.3309C37.2753 46.3154 37.8811 46.8961 37.8967 47.6279C37.9142 48.4542 38.0667 49.1861 38.2525 50.078C38.3051 50.3302 38.3603 50.5951 38.4159 50.8786C38.5567 51.5969 38.0885 52.2934 37.3702 52.4342C36.6519 52.575 35.9554 52.1069 35.8146 51.3885C35.7734 51.1785 35.7278 50.9614 35.6809 50.7378C35.4869 49.8141 35.2697 48.7802 35.2465 47.6841C35.231 46.9523 35.8116 46.3465 36.5435 46.3309Z" fill="#F2A9C3"/>
</g>
<g style="mix-blend-mode:multiply">
<path fill-rule="evenodd" clip-rule="evenodd" d="M48.1217 3.14698C47.1658 3.67587 46.1742 4.12038 45.2432 4.53772C45.0524 4.62324 44.8642 4.70761 44.6794 4.79134C43.4063 5.36797 42.0953 5.78205 40.8579 6.16337C40.7663 6.19159 40.6752 6.21962 40.5845 6.24752C39.4263 6.60376 38.3386 6.93832 37.2901 7.37185C36.2958 7.78292 35.3123 8.22943 34.3063 8.68736L34.2233 8.72515C33.2503 9.16803 32.2553 9.62097 31.244 10.0431C30.6193 10.3038 30.0084 10.6118 29.3484 10.9454L29.3216 10.959C28.6834 11.2816 27.9974 11.6285 27.2807 11.9287C26.2197 12.373 25.1913 12.8727 24.1369 13.4093C23.4901 13.7386 22.833 14.0333 22.2061 14.3128C22.1701 14.3288 22.1343 14.3448 22.0986 14.3607C21.5016 14.6267 20.9334 14.8799 20.3789 15.1544C19.6088 15.5356 18.8048 15.8968 18.0281 16.2456C17.6344 16.4224 17.2478 16.5961 16.8762 16.7676C15.129 17.574 13.4017 18.4014 11.7228 19.2914C10.5418 19.9174 9.58863 20.4739 8.61977 21.0396L8.52422 21.0954C7.52301 21.6798 6.49923 22.2752 5.21901 22.9442L5.13823 22.9864L5.05428 23.0165L5.05411 23.0166C5.05402 23.0166 5.05392 23.0166 5.0538 23.0167C5.05285 23.017 5.05089 23.0177 5.04799 23.0188C5.04142 23.0212 5.03009 23.0255 5.01469 23.0313C4.98373 23.0432 4.93714 23.0614 4.88029 23.0849C4.80698 23.1153 4.72194 23.1523 4.63451 23.1936C4.63833 23.2032 4.64224 23.213 4.64625 23.2231C4.8143 23.6465 5.03307 24.2718 5.03307 25.052C5.03307 26.185 4.44564 27.3544 3.80057 28.0239C3.60307 28.2288 3.38977 28.3705 3.22673 28.4667C3.16907 28.5008 3.1099 28.5334 3.05296 28.5638C3.09462 28.6164 3.13533 28.673 3.17454 28.7338C3.33584 28.9843 3.44324 29.2633 3.51048 29.5622C3.58553 29.8957 3.5841 30.1881 3.57197 30.4016C3.56822 30.4674 3.56295 30.532 3.55824 30.5857C3.94451 30.9192 4.21173 31.3039 4.36711 31.7666C4.41719 31.9158 4.45342 32.073 4.48045 32.2243C4.48427 32.2249 4.48806 32.2256 4.49183 32.2262C4.57609 32.2409 4.68641 32.262 4.8011 32.2929C4.90901 32.322 5.07527 32.3739 5.24887 32.4703C5.8645 32.8123 6.28724 33.3483 6.41388 34.0323C6.50913 34.5468 6.41148 35.0284 6.31016 35.3746C6.32817 35.3957 6.34842 35.4191 6.37149 35.4454C7.03578 36.2032 7.56061 37.0686 8.01764 37.8221C8.14969 38.0398 8.27608 38.2482 8.39854 38.4419C9.15533 39.6394 9.83733 40.906 10.4478 42.1547C10.5746 42.4141 10.711 42.6855 10.8512 42.9644C11.1537 43.5661 11.4737 44.2027 11.7528 44.8294C11.8066 44.9503 11.8679 45.0697 11.9454 45.2182C11.9514 45.2296 11.9575 45.2413 11.9637 45.2532C12.0328 45.3853 12.1186 45.5493 12.196 45.7185C12.2329 45.7991 12.2695 45.8842 12.3045 45.974C12.5434 45.9815 12.7882 46.002 13.019 46.0286C13.6058 46.0961 14.2655 46.222 14.6582 46.359C15.8615 46.7787 16.6368 47.6225 17.1685 48.4918C17.4308 48.6219 17.6519 48.8395 17.7834 49.1265C18.0884 49.7919 17.7962 50.5786 17.1308 50.8835C16.9888 50.9486 16.7123 51.0599 16.3657 51.0472C15.9326 51.0313 15.5824 50.8335 15.3469 50.581C15.1788 50.4008 15.084 50.2046 15.0587 50.1523C15.0574 50.1496 15.0563 50.1474 15.0553 50.1455C15.0318 50.0973 15.0225 50.0776 15.0177 50.0672C15.0132 50.0577 15.0125 50.0561 15.0077 50.0475C14.6468 49.398 14.2667 49.0298 13.7851 48.8618C13.6624 48.819 13.2257 48.7206 12.7162 48.662C12.475 48.6343 12.2586 48.6205 12.0929 48.6219C12.0215 48.6225 11.9761 48.6259 11.9519 48.6282C11.8965 48.6505 11.8206 48.6796 11.7457 48.7022C11.7439 48.7028 11.7415 48.7035 11.7388 48.7044C11.6614 48.7284 11.2399 48.8593 10.7693 48.6656C10.1431 48.4079 9.97853 47.8457 9.93784 47.6601C9.89685 47.4732 9.89689 47.2962 9.89691 47.2277V47.2238C9.89691 47.1224 9.87481 47.0164 9.78567 46.8217C9.73838 46.7183 9.68357 46.6134 9.6063 46.4654L9.59569 46.4451C9.51851 46.2973 9.42232 46.1122 9.33127 45.9078C9.07691 45.3365 8.8061 44.7983 8.52013 44.2298C8.37285 43.9371 8.22155 43.6363 8.06639 43.319C7.48577 42.1314 6.84997 40.9534 6.15777 39.8581C5.97867 39.5747 5.81753 39.3097 5.66511 39.0589C5.23579 38.3527 4.87562 37.7603 4.3781 37.1927L4.37101 37.1846C4.2011 36.9908 3.90663 36.6549 3.74464 36.2152C3.56074 35.716 3.58907 35.2328 3.71842 34.7855C3.66151 34.7756 3.60567 34.7654 3.55895 34.7558C3.37947 34.719 3.05999 34.6443 2.75613 34.4622C2.40718 34.2531 2.00266 33.8479 1.93084 33.2015C1.92351 33.1356 1.9166 33.0687 1.91057 33.0104C1.90828 32.9882 1.90611 32.9673 1.9041 32.9481C1.8962 32.8728 1.88964 32.8142 1.88273 32.7628C1.87176 32.6812 1.86264 32.6404 1.85751 32.6215C1.84601 32.6095 1.82144 32.5863 1.77606 32.5522C1.46406 32.3182 1.20499 32.0179 1.04833 31.6367C0.897611 31.2698 0.885505 30.9317 0.892458 30.7076C0.895865 30.5978 0.905001 30.4945 0.911257 30.4247L0.913424 30.4006C0.919344 30.3347 0.923054 30.2935 0.925464 30.2511C0.926072 30.2404 0.926512 30.2307 0.926818 30.222C0.803076 30.1435 0.569633 29.9762 0.39196 29.6875L0.388252 29.6814C0.312668 29.5587 0.098764 29.2114 0.0258455 28.7582C-0.0616186 28.2145 0.0636799 27.5939 0.543711 27.0701C0.900258 26.6811 1.34828 26.4561 1.57671 26.3414C1.58544 26.337 1.59385 26.3328 1.60192 26.3287L1.63108 26.314C1.75344 26.2524 1.82046 26.2187 1.8795 26.1838C1.89362 26.1755 1.90369 26.1691 1.91035 26.1647C2.15508 25.8971 2.3823 25.3802 2.3823 25.052C2.3823 24.7719 2.30772 24.5166 2.18243 24.201C2.16843 24.1657 2.14867 24.1175 2.12624 24.0628C2.07486 23.9376 2.0094 23.7781 1.96653 23.6598C1.89877 23.4727 1.79561 23.1583 1.79561 22.7963C1.79561 22.0434 2.31305 21.573 2.4896 21.4215C2.73948 21.2069 3.02608 21.0399 3.2469 20.9239C3.47969 20.8017 3.70456 20.7027 3.86631 20.6358C3.94596 20.6028 4.0135 20.5763 4.06329 20.5572C5.25053 19.9346 6.20909 19.3775 7.1878 18.8061L7.29309 18.7446C8.25748 18.1816 9.25147 17.6012 10.4813 16.9493C12.2215 16.0268 13.9982 15.1764 15.7654 14.3608C16.1911 14.1643 16.6037 13.9791 17.0086 13.7974C17.7541 13.4628 18.4738 13.1397 19.2028 12.7788C19.8074 12.4795 20.4218 12.2058 21.0076 11.9448C21.0475 11.927 21.0872 11.9093 21.1268 11.8917C21.7577 11.6104 22.3563 11.3413 22.9345 11.047C24.0137 10.4976 25.1084 9.96457 26.2567 9.48365C26.8812 9.2221 27.4919 8.91375 28.1525 8.57978L28.164 8.57397C28.8071 8.24881 29.4991 7.89899 30.2229 7.59685C31.1947 7.19122 32.1562 6.75359 33.1402 6.30566L33.2081 6.27475C34.2091 5.81912 35.2336 5.35371 36.2772 4.9222C37.4463 4.43883 38.6498 4.06896 39.7848 3.72011C39.8828 3.68998 39.9803 3.66002 40.0773 3.63015C41.3203 3.24708 42.4834 2.87596 43.5857 2.3767C43.7882 2.28498 43.988 2.1953 44.1852 2.10677C45.2836 1.61367 46.3023 1.15641 47.2643 0.583248C47.609 0.377916 47.8615 0.274794 48.0891 0.181835C48.1487 0.157514 48.2065 0.133889 48.2639 0.109311L48.7859 1.32753L48.871 1.52606M4.11922 34.8545C4.11915 34.8545 4.11723 34.8541 4.11367 34.853C4.11751 34.854 4.11929 34.8545 4.11922 34.8545ZM16.0379 48.4686C16.0314 48.4714 16.0276 48.4732 16.0266 48.4737L16.0263 48.4738C16.0302 48.472 16.0341 48.4703 16.0379 48.4686ZM17.4346 48.9766C17.4454 48.9963 17.4462 49.0006 17.4367 48.981L17.4362 48.9801C17.4359 48.9794 17.4353 48.9782 17.4346 48.9766ZM12.5482 47.2496C12.5481 47.2497 12.5479 47.2456 12.5478 47.2367C12.5482 47.245 12.5483 47.2496 12.5482 47.2496ZM3.54185 30.8014C3.54183 30.8014 3.5418 30.8007 3.5418 30.799C3.54186 30.8006 3.54186 30.8014 3.54185 30.8014ZM4.21622 23.4328C4.2163 23.4327 4.21637 23.4326 4.21645 23.4326C4.21293 23.4359 4.21256 23.4359 4.21622 23.4328ZM48.1217 3.14698C48.4923 3.98396 48.9971 4.9501 50.1635 5.66813C51.1815 6.29479 52.1416 6.34381 53.0264 6.38898C53.0541 6.3904 53.0817 6.39181 53.1093 6.39323C53.5168 6.4143 53.9224 6.30566 54.1647 6.23178C54.3139 6.56218 54.5104 6.81184 54.6703 6.99098C54.7615 7.09313 54.8538 7.18618 54.9195 7.25249L54.9278 7.26088C54.9351 7.26815 54.942 7.27513 54.9486 7.28182C54.9189 7.32802 54.8866 7.37956 54.8562 7.43135C54.7878 7.54789 54.6798 7.74551 54.612 7.98528C54.5469 8.21553 54.4682 8.6661 54.7038 9.14449C54.8617 9.46502 55.0938 9.66513 55.2638 9.78118C55.3979 9.87273 55.5292 9.93625 55.6288 9.9788C55.5776 10.1927 55.565 10.4193 55.6015 10.6519C55.6575 11.0093 55.8137 11.2763 55.9261 11.4384C56.0202 11.5739 56.1311 11.6997 56.1844 11.7602C56.1904 11.767 56.1957 11.773 56.2002 11.7781C56.2562 11.8421 56.2697 11.8606 56.2698 11.8605C56.6544 12.4598 56.9537 12.9711 57.1467 13.508C57.2075 13.677 57.2933 13.8908 57.3668 14.0739C57.4049 14.169 57.4398 14.2559 57.4661 14.3239C57.5646 14.5786 57.6229 14.7599 57.6486 14.8949C57.6846 15.0841 57.7468 15.2419 57.8027 15.3596C57.8587 15.4776 57.9193 15.5781 57.9669 15.6524C57.9822 15.6762 57.9977 15.6996 58.0126 15.722C57.9855 16.145 58.1613 16.5737 58.521 16.8539C59.0986 17.3036 59.9314 17.2 60.3811 16.6224C60.697 16.2167 60.7915 15.7389 60.7155 15.297C60.6528 14.9322 60.4834 14.6522 60.3999 14.5204C60.3532 14.4467 60.3052 14.3776 60.2733 14.3316L60.2709 14.3281C60.2503 14.2984 60.2352 14.2766 60.2232 14.2589C60.1481 13.9298 60.0355 13.6187 59.9384 13.3678C59.8817 13.2212 59.8348 13.1051 59.7929 13.0015C59.7371 12.8635 59.6902 12.7475 59.6412 12.6111C59.3403 11.7742 58.8999 11.0508 58.4993 10.4266C58.4479 10.3465 58.3937 10.273 58.3439 10.2099C58.4289 9.82636 58.416 9.42169 58.2833 9.02922C58.1406 8.60692 57.8803 8.25984 57.5555 7.99866C57.6947 7.5897 57.7399 7.15556 57.6354 6.71316C57.5191 6.22079 57.2518 5.87396 57.0653 5.6628C56.9759 5.56166 56.8833 5.4682 56.818 5.40234L56.8103 5.39463C56.7357 5.31941 56.689 5.27184 56.6479 5.22584C56.6363 5.21281 56.6265 5.20139 56.6183 5.19149C56.6207 5.14474 56.6238 5.07832 56.6247 5.02933C56.6262 4.93745 56.6259 4.75886 56.5793 4.55635C56.5291 4.33751 56.4145 4.0453 56.1544 3.79071C55.8941 3.53593 55.5913 3.41974 55.3405 3.37145C54.9114 3.28881 54.4732 3.37558 54.1485 3.45673C54.0097 3.49144 53.8651 3.5396 53.7621 3.57424C53.7322 3.58429 53.704 3.59385 53.6769 3.60302C53.5943 3.63097 53.5224 3.65534 53.4462 3.67929C53.3478 3.71022 53.2761 3.72949 53.2249 3.74006C53.217 3.74168 53.2104 3.74292 53.2051 3.74386C52.2673 3.69468 51.945 3.65205 51.5531 3.41078C51.0134 3.07856 50.8101 2.68731 50.4132 1.76958C50.3329 1.58397 50.3331 1.53334 50.3331 1.52634V1.52606C50.3331 1.19724 50.2096 0.956804 50.182 0.902917L50.1803 0.89966C50.133 0.807342 50.0835 0.735226 50.0506 0.690118C49.9824 0.596901 49.9076 0.514606 49.8376 0.447102C49.7731 0.384821 49.6656 0.289404 49.5237 0.204568C49.4547 0.163345 49.3283 0.0945839 49.1593 0.0485928C49.0065 0.00700055 48.658 -0.059593 48.2639 0.109307L48.7859 1.32753M56.6145 5.29688C56.6145 5.29691 56.6144 5.29575 56.6144 5.29332C56.6145 5.29563 56.6145 5.29685 56.6145 5.29688ZM60.1843 14.1978C60.1846 14.198 60.1869 14.2019 60.1906 14.2091C60.1858 14.2012 60.184 14.1976 60.1843 14.1978ZM54.9952 5.98771C54.9951 5.98775 54.9935 5.98791 54.9905 5.98807C54.9938 5.98774 54.9953 5.98766 54.9952 5.98771ZM53.9742 4.98754C53.9741 4.98007 53.9744 4.97856 53.9743 4.98421C53.9743 4.98536 53.9742 4.98647 53.9742 4.98754Z" fill="#FF9661"/>
</g>
<path d="M58.3354 33.938C56.7807 33.6967 56.0098 33.6034 54.4626 33.4658C53.9001 33.4185 53.7491 32.651 54.2518 32.3448C55.615 31.5321 56.2938 31.1503 57.6645 30.4413C57.895 30.3221 57.9828 30.046 57.8573 29.8034C57.6695 29.4701 57.5879 29.3124 57.4122 28.9727C57.293 28.7423 56.9986 28.6486 56.7681 28.7678C55.3916 29.4952 54.719 29.8892 53.3621 30.714C52.8594 31.0202 52.2905 30.5149 52.5457 29.9678C53.2036 28.5051 53.5357 27.7799 54.2062 26.3414C54.3129 26.1018 54.2112 25.8161 53.9778 25.7215C53.6399 25.5735 53.4738 25.4902 53.1359 25.3422C52.8962 25.2355 52.6168 25.3493 52.5164 25.6011C51.8585 27.0638 51.5264 27.789 50.8689 29.2823C50.6321 29.8352 49.8621 29.803 49.7504 29.2304C49.4668 27.7012 49.3158 26.9337 49.0259 25.3924C48.9858 25.1364 48.7394 24.9871 48.4839 25.0578C48.125 25.1665 47.9364 25.218 47.5838 25.3388C47.3345 25.4217 47.1672 25.6927 47.2195 25.9424C48.2865 31.602 49.3472 37.2495 50.4142 42.9091C50.4544 43.165 50.7129 43.3081 50.95 43.2315C51.3089 43.1228 51.4913 43.0592 51.8564 42.9626C52.112 42.8919 52.2793 42.6209 52.227 42.3711C51.9434 40.842 51.7924 40.0744 51.5026 38.5331C51.3909 37.9605 52.0689 37.5176 52.4892 37.8844C53.6023 38.877 54.1711 39.3822 55.3029 40.4112C55.4887 40.5918 55.7814 40.5634 55.968 40.3593C56.2206 40.0749 56.3469 39.9327 56.6058 39.6604C56.7803 39.4625 56.7824 39.1693 56.5845 38.9949C55.4586 37.9476 54.8834 37.4301 53.7579 36.4133C53.3434 36.0281 53.6755 35.3028 54.238 35.3501C55.7789 35.4756 56.5435 35.5567 58.1041 35.7797C58.3672 35.8127 58.6031 35.6445 58.6361 35.3815C58.6922 35.0142 58.708 34.8369 58.7578 34.4575C58.7729 34.2191 58.5985 33.9711 58.3354 33.938Z" fill="#00DA93"/>
<path d="M17.6933 74.8182V85H15.8488V76.6129H15.7891L13.4077 78.1342V76.4439L15.9383 74.8182H17.6933ZM23.4031 76.3643V74.8182H31.5267V76.3643H28.3797V85H26.5501V76.3643H23.4031ZM33.0132 85V77.3636H34.8129V85H33.0132ZM33.918 76.2798C33.633 76.2798 33.3877 76.1854 33.1823 75.9964C32.9768 75.8042 32.874 75.5739 32.874 75.3054C32.874 75.0336 32.9768 74.8033 33.1823 74.6143C33.3877 74.4221 33.633 74.326 33.918 74.326C34.2064 74.326 34.4517 74.4221 34.6538 74.6143C34.8593 74.8033 34.9621 75.0336 34.9621 75.3054C34.9621 75.5739 34.8593 75.8042 34.6538 75.9964C34.4517 76.1854 34.2064 76.2798 33.918 76.2798ZM39.9946 85.1491C39.2323 85.1491 38.5777 84.9818 38.0308 84.647C37.4872 84.3123 37.068 83.8499 36.773 83.2599C36.4813 82.6667 36.3355 81.9839 36.3355 81.2116C36.3355 80.4361 36.4846 79.7517 36.7829 79.1584C37.0812 78.5618 37.5021 78.0978 38.0457 77.7663C38.5926 77.4316 39.2389 77.2642 39.9846 77.2642C40.6044 77.2642 41.153 77.3786 41.6302 77.6072C42.1108 77.8326 42.4936 78.1525 42.7787 78.5668C43.0637 78.9777 43.2261 79.4583 43.2659 80.0085H41.5457C41.4761 79.6406 41.3104 79.334 41.0486 79.0888C40.79 78.8402 40.4437 78.7159 40.0095 78.7159C39.6416 78.7159 39.3184 78.8153 39.04 79.0142C38.7616 79.2098 38.5445 79.4915 38.3887 79.8594C38.2363 80.2273 38.1601 80.6681 38.1601 81.1818C38.1601 81.7022 38.2363 82.1496 38.3887 82.5241C38.5412 82.8954 38.755 83.1821 39.0301 83.3842C39.3085 83.5831 39.635 83.6825 40.0095 83.6825C40.2746 83.6825 40.5116 83.6328 40.7204 83.5334C40.9325 83.4306 41.1099 83.2831 41.2524 83.0909C41.3949 82.8987 41.4927 82.665 41.5457 82.3899H43.2659C43.2228 82.9302 43.0637 83.4091 42.7886 83.8267C42.5135 84.241 42.139 84.5658 41.665 84.8011C41.1911 85.0331 40.6343 85.1491 39.9946 85.1491ZM46.3843 82.6037L46.3793 80.4311H46.6677L49.412 77.3636H51.515L48.1393 81.1222H47.7664L46.3843 82.6037ZM44.7437 85V74.8182H46.5434V85H44.7437ZM49.5363 85L47.0505 81.5249L48.2636 80.2571L51.689 85H49.5363ZM55.7806 85.1491C55.015 85.1491 54.3538 84.9901 53.797 84.6719C53.2434 84.3504 52.8175 83.8963 52.5193 83.3097C52.221 82.7197 52.0718 82.0253 52.0718 81.2266C52.0718 80.4411 52.221 79.7517 52.5193 79.1584C52.8209 78.5618 53.2418 78.0978 53.782 77.7663C54.3223 77.4316 54.957 77.2642 55.6862 77.2642C56.1568 77.2642 56.6009 77.3404 57.0185 77.4929C57.4395 77.642 57.8107 77.8741 58.1322 78.1889C58.457 78.5038 58.7122 78.9048 58.8978 79.392C59.0834 79.8759 59.1762 80.4527 59.1762 81.1222V81.674H52.917V80.4609H57.4511C57.4478 80.1162 57.3732 79.8097 57.2274 79.5412C57.0815 79.2694 56.8777 79.0556 56.6158 78.8999C56.3573 78.7441 56.0557 78.6662 55.711 78.6662C55.3431 78.6662 55.02 78.7557 54.7416 78.9347C54.4631 79.1103 54.2461 79.3423 54.0903 79.6307C53.9378 79.9157 53.8599 80.2289 53.8566 80.5703V81.6293C53.8566 82.0734 53.9378 82.4545 54.1002 82.7727C54.2626 83.0876 54.4897 83.3295 54.7813 83.4986C55.073 83.6643 55.4144 83.7472 55.8055 83.7472C56.0673 83.7472 56.3043 83.7107 56.5164 83.6378C56.7285 83.5616 56.9125 83.4505 57.0683 83.3047C57.224 83.1589 57.3417 82.9782 57.4212 82.7628L59.1016 82.9517C58.9956 83.3958 58.7934 83.7836 58.4951 84.1151C58.2001 84.4432 57.8223 84.6984 57.3616 84.8807C56.9009 85.0597 56.3739 85.1491 55.7806 85.1491ZM64.512 77.3636V78.7557H60.1221V77.3636H64.512ZM61.2059 75.5341H63.0056V82.7031C63.0056 82.9451 63.042 83.1307 63.115 83.2599C63.1912 83.3859 63.2906 83.4721 63.4133 83.5185C63.5359 83.5649 63.6718 83.5881 63.8209 83.5881C63.9336 83.5881 64.0364 83.5798 64.1292 83.5632C64.2253 83.5466 64.2982 83.5317 64.3479 83.5185L64.6512 84.9254C64.5551 84.9586 64.4175 84.995 64.2385 85.0348C64.0629 85.0746 63.8474 85.0978 63.5922 85.1044C63.1415 85.1177 62.7355 85.0497 62.3742 84.9006C62.0129 84.7481 61.7262 84.5128 61.5141 84.1946C61.3053 83.8764 61.2026 83.4787 61.2059 83.0014V75.5341Z" fill="#5E584F"/>
</svg>
