<svg width="360" height="96" viewBox="0 0 360 96" fill="none" xmlns="http://www.w3.org/2000/svg">
<mask id="mask0_432_18242" style="mask-type:alpha" maskUnits="userSpaceOnUse" x="0" y="0" width="360" height="96">
<rect width="360" height="96" fill="#D9D9D9"/>
</mask>
<g mask="url(#mask0_432_18242)">
<path d="M458.903 -120.963L295.413 -264.147C283.094 -274.936 264.372 -273.696 253.583 -261.377L190.947 -189.858L85.7447 -281.994C73.4257 -292.783 54.7039 -291.544 43.9149 -279.225L-99.2692 -115.735C-110.058 -103.416 -108.819 -84.6944 -96.4996 -73.9054L66.9899 69.2787C79.3089 80.0677 98.0307 78.8281 108.82 66.5091L171.456 -5.00973L276.658 87.1264C288.977 97.9154 307.699 96.6758 318.488 84.3568L461.672 -79.1327C472.461 -91.4518 471.222 -110.174 458.903 -120.963Z" fill="#E5FBED"/>
</g>
</svg>
