<svg width="200" height="160" viewBox="0 0 200 160" fill="none" xmlns="http://www.w3.org/2000/svg">
<path d="M129.721 72.9771C139.388 71.2026 146.029 72.2681 155.024 68.3327C157.18 67.3894 156.976 68.9076 157.33 70.8367C159.341 81.7905 165.99 101.02 164.577 102.471C162.303 104.807 138.878 108.444 136.317 108.914C133.24 109.479 133.601 109.609 133.086 106.602C131.327 96.3463 128.428 86.3214 126.672 76.0783C126.365 74.2873 128.424 73.5764 129.721 72.9771Z" fill="#FFF1E6"/>
<path fill-rule="evenodd" clip-rule="evenodd" d="M160.579 69.5949C160.606 69.7928 160.629 69.954 160.678 70.2222C161.507 74.739 163.162 80.7501 164.727 86.4331C164.996 87.4083 165.262 88.3738 165.521 89.3204C166.386 92.4891 167.174 95.4659 167.655 97.7589C167.892 98.8918 168.08 99.9803 168.148 100.895C168.181 101.344 168.196 101.884 168.126 102.427C168.075 102.833 167.904 103.932 167.016 104.845C166.501 105.374 165.903 105.724 165.488 105.941C165.025 106.182 164.518 106.396 164.01 106.586C162.995 106.967 161.76 107.336 160.433 107.688C157.768 108.393 154.46 109.098 151.206 109.733C146.319 110.686 141.24 111.536 138.608 111.977C137.779 112.116 137.193 112.214 136.932 112.262C136.803 112.285 136.667 112.311 136.529 112.337C135.993 112.438 135.411 112.547 134.958 112.597L134.951 112.598C134.487 112.649 133.004 112.812 131.682 111.808C130.441 110.865 130.145 109.483 130.055 109.06C130.052 109.049 130.05 109.039 130.048 109.03C129.977 108.701 129.9 108.219 129.828 107.771C129.794 107.559 129.761 107.355 129.731 107.178C128.87 102.159 127.728 97.1814 126.561 92.0973L126.549 92.0475C125.392 87.0104 124.211 81.8674 123.317 76.6536C122.866 74.0212 124.35 72.2558 125.559 71.3529C126.429 70.7044 127.559 70.2099 128.085 69.9797C128.173 69.9415 128.243 69.9105 128.293 69.8874C128.553 69.7676 128.826 69.6809 129.107 69.6294C132.638 68.9813 135.9 68.6839 138.823 68.4174C140.023 68.308 141.165 68.2038 142.246 68.0828C146.05 67.6566 149.59 66.9951 153.659 65.2145C154.368 64.9043 155.47 64.5127 156.707 64.6828C158.302 64.9021 159.336 65.9117 159.869 66.9306C160.283 67.7221 160.42 68.5619 160.484 68.9565C160.531 69.2464 160.556 69.4329 160.579 69.5949ZM153.719 69.8035C153.719 69.8043 153.719 69.8052 153.72 69.8062C153.718 69.8003 153.718 69.7993 153.719 69.8035ZM154.154 72.353C150.147 73.837 146.541 74.4515 143.004 74.8477C141.664 74.9978 140.379 75.1145 139.103 75.2304C136.426 75.4734 133.784 75.7133 130.738 76.2523C130.724 76.2583 130.711 76.2643 130.698 76.2702C130.661 76.2865 130.626 76.3022 130.593 76.3169C130.447 76.3818 130.32 76.4396 130.201 76.496C131.037 81.1729 132.105 85.8254 133.195 90.5737L133.204 90.614C134.32 95.47 135.458 100.427 136.341 105.454C136.73 105.388 137.227 105.305 137.814 105.206C140.522 104.753 145.143 103.98 149.903 103.052C153.109 102.426 156.244 101.755 158.691 101.107C159.706 100.838 160.556 100.586 161.222 100.356C161.164 100.013 161.088 99.6132 160.992 99.154C160.56 97.091 159.825 94.3036 158.954 91.1143C158.706 90.2057 158.447 89.2655 158.182 88.3047C156.719 82.9984 155.084 77.0638 154.154 72.353ZM162.417 99.8615C162.417 99.8616 162.411 99.8655 162.399 99.8729C162.41 99.8651 162.417 99.8614 162.417 99.8615Z" fill="#FFF1E6"/>
<path d="M81.3808 75.5063C82.3884 76.6489 82.4224 79.0121 82.9265 78.4368C83.4307 77.8615 82.7222 75.9719 83.0634 75.0645C83.7824 73.1521 84.2223 72.3791 85.1337 71.1674C88.8001 66.2933 95.2911 64.6735 100.848 66.4119C103.67 67.2944 106.533 69.0737 108.32 71.7329C111.128 75.9119 111.542 81.8111 110.929 86.6729C110.153 92.837 107.097 98.4032 103.838 103.254C101.042 107.417 97.9204 111.28 94.4537 114.774C93.0977 116.141 92.158 117.149 89.9763 117.53C87.8721 117.899 86.2406 117.311 84.8356 116.673C80.3537 114.637 76.0639 112.135 71.9713 109.236C67.2026 105.859 62.3687 101.741 59.4539 96.2544C57.1549 91.927 55.4464 86.2655 56.5873 81.3616C57.3133 78.2412 59.3583 75.5609 61.6823 73.7339C66.26 70.1352 72.9031 69.3442 78.0615 72.5986C79.3437 73.4075 80.0295 73.9739 81.3808 75.5063Z" fill="#FFE7FB"/>
<path fill-rule="evenodd" clip-rule="evenodd" d="M100.671 66.9806C95.3236 65.308 89.1065 66.8771 85.6097 71.5257C84.7367 72.6864 84.3226 73.408 83.621 75.2743C83.578 75.3886 83.5545 75.581 83.5643 75.8735C83.5727 76.1234 83.6023 76.3924 83.6344 76.6844C83.639 76.7262 83.6436 76.7684 83.6483 76.8111C83.6834 77.135 83.7195 77.4948 83.7079 77.8165C83.6971 78.1167 83.6432 78.5231 83.3745 78.8296C83.2688 78.9502 83.005 79.1917 82.6229 79.1036C82.3061 79.0306 82.1499 78.7717 82.0958 78.6762C81.9712 78.4563 81.8716 78.1218 81.7861 77.8348C81.7813 77.8185 81.7765 77.8023 81.7717 77.7864C81.5642 77.0911 81.3345 76.3547 80.934 75.9005C79.6153 74.4051 78.972 73.8775 77.7436 73.1026C72.8239 69.9988 66.4548 70.74 62.0504 74.2024C59.8056 75.9672 57.8556 78.5388 57.1675 81.4968C56.0742 86.1958 57.7088 91.7002 59.9799 95.9752C62.8279 101.336 67.5682 105.388 72.3155 108.75C76.3799 111.629 80.6372 114.112 85.082 116.131C86.4495 116.752 87.9468 117.281 89.8737 116.944C91.799 116.607 92.6292 115.769 93.9243 114.463C93.9595 114.427 93.995 114.391 94.0308 114.355C97.4689 110.889 100.567 107.056 103.344 102.922C106.588 98.093 109.58 92.6216 110.338 86.5988C110.943 81.7958 110.517 76.0697 107.826 72.0653C106.132 69.5445 103.396 67.8331 100.671 66.9806ZM84.6577 70.8096C88.4937 65.7099 95.2585 64.0394 101.026 65.8436C103.944 66.7562 106.935 68.6034 108.815 71.4009C111.74 75.7546 112.14 81.8268 111.52 86.7476C110.726 93.0529 107.606 98.7138 104.333 103.586C101.517 107.778 98.372 111.67 94.8766 115.194C94.8291 115.242 94.7819 115.29 94.735 115.337C93.4462 116.639 92.3811 117.715 90.079 118.117C87.7975 118.517 86.0316 117.871 84.5893 117.215C80.0703 115.163 75.7479 112.641 71.627 109.722C66.837 106.33 61.9095 102.146 58.9279 96.5341C56.601 92.1542 54.8186 86.3357 56.0072 81.2268C56.7709 77.9442 58.911 75.1551 61.3142 73.2659C66.0651 69.531 72.9822 68.6901 78.3793 72.095C79.7155 72.9381 80.4437 73.5433 81.8275 75.1126C82.0487 75.3634 82.2279 75.6577 82.3755 75.961C82.3748 75.9451 82.3742 75.9293 82.3737 75.9136C82.3624 75.5786 82.3783 75.1945 82.5059 74.8551C83.2422 72.8966 83.708 72.0722 84.6577 70.8096ZM83.1321 78.0886C83.1321 78.0887 83.1322 78.0888 83.1322 78.0889C83.1383 78.0996 83.1415 78.1039 83.1416 78.1033C83.1417 78.1028 83.1386 78.0973 83.1321 78.0886Z" fill="#FFE7FB"/>
<path fill-rule="evenodd" clip-rule="evenodd" d="M115.52 13.0335C101.381 15.0729 87.4014 18.3245 73.3773 21.8437C67.8658 23.2267 62.425 24.9201 56.8784 26.6464C55.5817 27.05 54.2792 27.4554 52.9687 27.8591C46.1075 29.9723 39.0806 32.0191 31.8728 33.3421C30.0239 33.6815 28.25 32.4578 27.9106 30.6089C27.5712 28.76 28.7949 26.9861 30.6438 26.6467C37.433 25.4005 44.1372 23.4563 50.9649 21.3534C52.2311 20.9634 53.5037 20.5672 54.7819 20.1693C60.3406 18.4388 66.006 16.6751 71.7205 15.2411C85.7941 11.7096 100.05 8.38711 114.548 6.29598C124.713 4.82985 135.65 3.68891 147.478 7.95818C149.247 8.59636 150.163 10.5471 149.524 12.3152C148.886 14.0833 146.935 14.9993 145.167 14.3611C135.037 10.7048 125.561 11.5853 115.52 13.0335Z" fill="#FFEDA5"/>
<path fill-rule="evenodd" clip-rule="evenodd" d="M44.8176 42.5943C44.4782 40.7454 45.7019 38.9715 47.5508 38.6321L141.956 21.3037C143.805 20.9644 145.579 22.1881 145.918 24.037C146.257 25.8858 145.034 27.6598 143.185 27.9991L48.7798 45.3275C46.9309 45.6669 45.157 44.4432 44.8176 42.5943Z" fill="#E5FBED"/>
<path fill-rule="evenodd" clip-rule="evenodd" d="M47.2453 55.8186C46.906 53.9698 48.1297 52.1958 49.9786 51.8565L144.384 34.5281C146.233 34.1887 148.006 35.4124 148.346 37.2613C148.685 39.1102 147.462 40.8841 145.613 41.2235L51.2075 58.5519C49.3586 58.8912 47.5847 57.6675 47.2453 55.8186Z" fill="#E5FBED"/>
<path fill-rule="evenodd" clip-rule="evenodd" d="M118.775 58.9709C118.622 57.0973 120.017 55.4546 121.891 55.3018C126.5 54.9258 130.989 54.0316 135.679 53.0975C137.439 52.7469 139.227 52.3907 141.06 52.0542C141.7 51.9368 142.367 51.808 143.052 51.6759C144.66 51.3657 146.363 51.0371 148.025 50.7941C148.029 50.7935 148.039 50.7911 148.056 50.7873C148.357 50.7175 150.694 50.1759 152.599 51.7368C154.053 52.9282 154.266 55.0727 153.074 56.5267C152.098 57.7178 150.483 58.076 149.131 57.5115C149.092 57.5175 149.051 57.5237 149.01 57.5297C147.505 57.7498 146.055 58.0297 144.524 58.3255C143.802 58.4649 143.062 58.6078 142.289 58.7496C140.682 59.0446 139.032 59.3734 137.351 59.7084C132.54 60.6671 127.477 61.6759 122.444 62.0865C120.571 62.2393 118.928 60.8444 118.775 58.9709Z" fill="#E5FBED"/>
<path fill-rule="evenodd" clip-rule="evenodd" d="M170.12 116.678C170.657 118.479 169.633 120.375 167.831 120.912C148.367 126.717 128.71 131.919 108.442 135.048C100.329 136.301 92.0902 137.509 83.8183 138.295C82.4743 138.423 81.1606 138.535 79.8669 138.645C76.7108 138.914 73.6742 139.172 70.6086 139.627C68.7492 139.904 67.018 138.62 66.7419 136.761C66.4657 134.901 67.7491 133.17 69.6085 132.894C72.8981 132.405 76.2648 132.119 79.5035 131.843C80.7499 131.737 81.9772 131.632 83.174 131.518C91.2346 130.752 99.3073 129.57 107.403 128.321C127.221 125.261 146.536 120.159 165.886 114.389C167.687 113.852 169.583 114.877 170.12 116.678Z" fill="#E5FBED"/>
<path fill-rule="evenodd" clip-rule="evenodd" d="M30.1532 29.1209C32.03 29.2268 33.4656 30.8341 33.3597 32.7109C33.3311 33.2178 33.2976 33.6384 33.2553 33.9803C33.2342 34.1513 33.2063 34.3398 33.1669 34.5303C33.136 34.68 33.073 34.9579 32.945 35.2725C32.9498 35.5026 32.9562 35.7717 32.9647 36.0859C33.0327 38.6198 33.5561 42.4788 33.978 44.9864C35.4687 53.8446 37.6023 62.6167 39.9369 71.4152C41.8734 78.7131 44.0202 85.9641 46.1831 93.2694C46.3651 93.884 46.5472 94.499 46.7292 95.1144C49.0699 103.026 53.2397 107.339 55.2882 115.399C55.3971 115.827 55.5083 116.262 55.6211 116.703C57.6292 124.549 60.1252 134.303 58.2312 143.417C57.7377 145.791 56.6465 148.246 54.6765 150.111C52.638 152.041 49.8881 153.117 46.5991 153.005C42.4475 152.864 38.4349 150.516 35.4037 147.464C32.3218 144.362 29.8432 140.138 28.9956 135.519C27.8986 129.543 27.5331 124.02 28.0367 118.129C28.0552 117.913 28.0736 117.697 28.0919 117.482C28.627 111.194 28.1289 108.272 27.0535 103.226C25.8794 97.718 22.682 88.6233 18.5583 79.8683C14.3751 70.987 9.55969 63.157 5.39398 59.645C3.95681 58.4334 3.77398 56.2861 4.98563 54.8489C6.19727 53.4117 8.34456 53.2289 9.78173 54.4405C15.1821 58.9935 20.5174 68.0522 24.7166 76.9676C28.9753 86.0092 32.3922 95.6191 33.7111 101.807C35.0335 108.011 35.3936 111.962 34.8746 118.06L34.8571 118.266C34.3259 124.505 34.7618 129.228 35.691 134.29C36.2566 137.372 37.9762 140.395 40.2329 142.667C42.5402 144.989 45.0065 146.14 46.8296 146.202C48.4035 146.255 49.354 145.776 49.9961 145.168C50.7067 144.495 51.2763 143.427 51.5663 142.032C53.1294 134.51 51.0053 126.167 48.8947 117.877C48.8266 117.61 48.7586 117.343 48.6907 117.076C46.6785 109.159 42.5437 104.962 40.2017 97.0456C40.0185 96.4264 39.835 95.8067 39.6514 95.1867C37.4937 87.8993 35.32 80.5574 33.3574 73.161C31.0031 64.2886 28.8075 55.2812 27.2652 46.116C26.831 43.5359 26.2411 39.2948 26.1599 36.2685C26.1279 35.0776 26.1165 34.3168 26.1395 33.8749C26.1453 33.7644 26.1586 33.544 26.2034 33.2957C26.2245 33.1791 26.2748 32.9252 26.3919 32.6253L26.3923 32.6243C26.4171 32.5606 26.4717 32.4207 26.5693 32.2402C26.7192 30.4064 28.3056 29.0167 30.1532 29.1209Z" fill="#FFEDA5"/>
<path fill-rule="evenodd" clip-rule="evenodd" d="M154.782 16.1832C156.62 15.7914 158.428 16.9642 158.82 18.8027C160.475 26.5697 162.384 33.9259 164.995 41.2426C165.985 44.016 167.016 46.8062 168.053 49.6153C170.335 55.7938 172.65 62.0636 174.642 68.4474C178.242 79.989 181.238 92.377 182.183 104.725C182.534 109.306 182.497 113.928 182.083 118.401C181.848 120.942 181.363 124.441 180.568 127.086C180.12 128.58 179.825 129.526 179.626 130.001C179.592 130.083 179.536 130.21 179.46 130.353L179.458 130.358C179.41 130.448 179.224 130.801 178.883 131.157C178.751 131.295 178.455 131.585 177.99 131.827C177.045 132.852 175.523 133.228 174.164 132.654C172.432 131.923 171.621 129.926 172.353 128.195C172.604 127.599 172.834 127.097 173.049 126.705C173.151 126.517 173.303 126.257 173.503 125.997C173.594 125.879 173.735 125.708 173.928 125.527C173.966 125.402 174.007 125.269 174.049 125.128C174.647 123.136 175.083 120.17 175.305 117.773C175.683 113.687 175.718 109.448 175.396 105.244C174.505 93.6029 171.662 81.7563 168.143 70.4744C166.204 64.2593 163.991 58.2679 161.741 52.1767C160.689 49.3276 159.628 46.4566 158.584 43.5307C155.839 35.8406 153.856 28.173 152.162 20.2214C151.77 18.3829 152.943 16.5749 154.782 16.1832ZM179.029 129.958C179.029 129.958 179.027 129.962 179.023 129.968C179.027 129.961 179.028 129.958 179.029 129.958Z" fill="#FFEDA5"/>
<path fill-rule="evenodd" clip-rule="evenodd" d="M178.512 127.72C179.364 129.396 178.695 131.445 177.02 132.296C176.375 132.624 175.726 132.962 175.069 133.305C172.685 134.548 170.187 135.85 167.363 136.915C161.96 138.953 157.29 140.459 151.696 142.083C136.928 146.371 121.93 149.325 106.843 151.64C92.9071 153.78 78.5222 155.571 64.0253 154.485C62.1508 154.345 60.745 152.712 60.8854 150.837C61.0259 148.963 62.6593 147.557 64.5338 147.697C78.2034 148.721 91.9331 147.042 105.81 144.912C120.716 142.624 135.405 139.724 149.798 135.546C155.264 133.959 159.76 132.507 164.96 130.546C167.366 129.638 169.398 128.581 171.715 127.374C172.423 127.006 173.157 126.623 173.936 126.227C175.612 125.376 177.661 126.044 178.512 127.72Z" fill="#FFEDA5"/>
<path fill-rule="evenodd" clip-rule="evenodd" d="M11.327 38.0408C12.9079 37.0239 15.0139 37.4811 16.0308 39.062C16.7815 40.2291 17.5883 41.4072 18.4371 42.6467L18.4461 42.6598C19.2884 43.8898 20.1703 45.1779 21.0174 46.4946C22.7069 49.1207 24.3542 52.0044 25.446 55.1489C26.0626 56.9247 25.1228 58.8641 23.3471 59.4807C21.5713 60.0972 19.6319 59.1575 19.0153 57.3817C18.1833 54.9852 16.8687 52.6275 15.2926 50.1777C14.5069 48.9565 13.6801 47.748 12.8296 46.506L12.7931 46.4527C11.9638 45.2417 11.1099 43.9948 10.3057 42.7447C9.28881 41.1638 9.74603 39.0578 11.327 38.0408Z" fill="#FFF6CC"/>
<path fill-rule="evenodd" clip-rule="evenodd" d="M186.169 78.8798C187.687 77.9692 189.656 78.462 190.567 79.9804C193.309 84.5522 194.892 89.3763 195.701 94.4814C196.3 98.2592 196.569 102.077 196.512 105.894C196.496 106.989 196.414 109.265 196.262 110.558C196.074 112.161 195.981 112.951 195.942 113.206C195.941 113.209 195.919 113.366 195.876 113.538C195.866 113.581 195.829 113.727 195.761 113.906C195.731 113.987 195.652 114.189 195.51 114.424C195.435 114.543 195.234 114.814 195.104 114.962C194.895 115.166 194.305 115.582 193.915 115.764C193.352 115.923 192.145 115.918 191.544 115.737C191.086 115.504 190.414 114.954 190.187 114.681C190.051 114.482 189.856 114.126 189.79 113.974C189.748 113.862 189.683 113.665 189.66 113.58C189.648 113.535 189.638 113.492 189.629 113.45C189.369 112.874 189.276 112.215 189.401 111.547C189.492 111.057 189.582 110.616 189.675 110.292C189.701 110.204 189.744 110.061 189.809 109.899C189.832 109.842 189.865 109.763 189.91 109.67C190.013 108.675 190.086 106.811 190.101 105.799C190.152 102.346 189.909 98.8962 189.368 95.4853C188.668 91.0648 187.327 87.0437 185.068 83.278C184.158 81.7595 184.65 79.7904 186.169 78.8798ZM189.64 111.254C189.64 111.256 189.64 111.259 189.64 111.263C189.639 111.235 189.64 111.23 189.64 111.254Z" fill="#FFE7FB"/>
<g style="mix-blend-mode:multiply">
<path fill-rule="evenodd" clip-rule="evenodd" d="M193.606 83.981C195.342 83.6361 197.03 84.7644 197.374 86.501C198.748 93.4209 199.268 100.304 199.268 107.277C199.268 109.047 197.832 110.482 196.062 110.482C194.291 110.482 192.856 109.047 192.856 107.277C192.856 100.624 192.36 94.171 191.085 87.7498C190.741 86.0132 191.869 84.3258 193.606 83.981Z" fill="#6DDFA6"/>
</g>
<path fill-rule="evenodd" clip-rule="evenodd" d="M4.08138 77.6446C5.27036 76.3327 7.29775 76.233 8.6097 77.422C11.5285 80.0672 14.3068 82.9783 16.2433 86.9583C17.2392 89.0052 17.8429 91.1432 18.2748 93.1379C18.8147 95.631 18.8224 97.8375 18.8224 99.9486C18.8224 101.719 17.3871 103.154 15.6165 103.154C13.8459 103.154 12.4106 101.719 12.4106 99.9486C12.4106 97.8191 12.3864 96.241 12.0083 94.4949C11.6318 92.7559 11.1612 91.1682 10.4778 89.7635C9.07357 86.8775 7.00558 84.6213 4.30404 82.1729C2.9921 80.984 2.89241 78.9566 4.08138 77.6446Z" fill="#6DDFA6"/>
<g style="mix-blend-mode:multiply">
<path fill-rule="evenodd" clip-rule="evenodd" d="M8.34336 87.2062C9.81669 86.2243 11.8071 86.6227 12.789 88.096C16.0855 93.0425 16.3127 99.0495 15.9457 103.857C15.8109 105.623 14.2705 106.945 12.5051 106.81C10.7397 106.675 9.41777 105.135 9.55255 103.369C9.89078 98.9391 9.52169 94.7551 7.45354 91.6518C6.47163 90.1785 6.87002 88.1881 8.34336 87.2062Z" fill="#FFA86D"/>
</g>
</svg>
