<svg width="352" height="358" viewBox="0 0 352 358" fill="none" xmlns="http://www.w3.org/2000/svg">
<mask id="mask0_432_18245" style="mask-type:alpha" maskUnits="userSpaceOnUse" x="0" y="0" width="352" height="358">
<rect width="352" height="358" fill="#D9D9D9"/>
</mask>
<g mask="url(#mask0_432_18245)">
<path d="M276.556 169.372L257.237 338.639C255.578 353.175 272.304 362.446 283.751 353.345L508.367 174.748C521.996 163.912 524.259 144.081 513.423 130.452L334.826 -94.1639C334.582 -94.4712 334.316 -94.7111 334.068 -94.9908C333.015 -96.4103 331.931 -97.8053 330.819 -99.2035C269.271 -176.611 156.641 -189.451 79.2336 -127.904C1.82638 -66.3555 -11.0144 46.2748 50.5214 123.667C105.582 192.915 201.537 210.489 276.556 169.372Z" fill="#FFE7FB"/>
<path fill-rule="evenodd" clip-rule="evenodd" d="M323.227 -103.983C323.208 -104.005 323.19 -104.027 323.173 -104.05C322.128 -105.458 321.051 -106.844 319.944 -108.236C258.74 -185.211 146.739 -197.98 69.7637 -136.776C-7.21121 -75.5718 -19.9802 36.4294 41.2119 113.389C95.9646 182.25 191.383 199.726 265.983 158.84C266.311 158.66 266.711 158.678 267.021 158.887C267.332 159.095 267.5 159.459 267.457 159.83L248.139 329.098C246.581 342.748 262.287 351.454 273.036 342.907L497.653 164.31C510.849 153.817 513.04 134.616 502.548 121.419L323.951 -103.197C323.859 -103.313 323.758 -103.422 323.635 -103.551C323.613 -103.574 323.589 -103.598 323.564 -103.623C323.462 -103.73 323.341 -103.855 323.227 -103.983ZM266.464 159.717C266.107 159.913 265.749 160.107 265.391 160.3C190.532 200.665 95.2278 182.93 40.4291 114.011C-21.1066 36.6195 -8.2659 -76.0108 69.1413 -137.559C146.549 -199.107 259.179 -186.266 320.727 -108.859C321.839 -107.461 322.923 -106.066 323.976 -104.646C324.074 -104.535 324.175 -104.431 324.277 -104.326C324.431 -104.166 324.586 -104.005 324.734 -103.819L503.331 120.797C514.167 134.425 511.903 154.256 498.275 165.093L273.659 343.689C262.212 352.791 245.486 343.52 247.145 328.984L266.464 159.717Z" fill="#00DA93"/>
</g>
</svg>