<svg width="46" height="46" viewBox="0 0 46 46" fill="none" xmlns="http://www.w3.org/2000/svg">
<path d="M27.5002 10.967C22.0566 9.41296 14.0467 9.80369 10.9297 15.5314C8.49653 19.9893 8.68301 25.9745 11.7023 30.166C14.7304 34.3752 20.5647 36.9061 25.6531 35.9648C30.9368 34.9791 36.5846 30.761 36.336 24.8823C36.2028 21.7564 36.1051 17.787 34.036 15.2828C32.5619 13.5245 28.77 11.0913 27.5002 10.967Z" fill="#BCFFDA"/>
<path d="M11.8799 14.1371C13.1231 13.8796 13.8424 13.8085 14.2509 13.773C14.9435 13.7108 15.6184 14.146 16.0447 14.7232C16.764 15.7089 17.2435 16.3483 18.2115 16.668C18.691 16.8278 19.2416 16.8811 19.7034 17.0942C20.6624 17.5293 21.4794 18.1598 21.3373 19.3675C21.1331 21.0193 17.7053 22.2181 18.7709 24.003C19.2416 24.7933 20.1829 24.7045 20.7068 25.3706C21.3551 26.1875 21.2307 27.0134 20.5381 27.8037C20.2362 28.1501 19.8632 28.4342 19.6412 28.8338C19.3925 29.269 19.4458 29.784 19.2416 30.2192C18.8331 31.1072 17.6698 31.569 17.3679 32.4747C17.137 33.1763 17.2702 34.0465 16.3022 34.1265C15.4941 34.1975 15.5208 33.5936 15.3876 32.9276C15.2188 32.1018 15.432 31.3114 15.0501 30.4678C14.6061 29.491 13.8246 28.896 12.9721 28.3277C12.022 27.6972 11.8444 26.4895 12.8567 25.6458C13.2474 25.3262 13.7714 25.3794 14.1266 25.042C14.6771 24.5092 14.0822 24.0829 14.5706 23.5945C14.988 23.1772 15.6451 23.488 16.0358 23.0617C16.693 22.3424 15.4675 22.0938 14.9169 21.9694C14.0644 21.7741 13.4872 22.1914 12.6969 22.1648C11.9509 22.1382 11.7644 21.5965 11.356 21.1702C10.9919 20.7884 10.2814 20.5486 10.0239 20.0868C9.83744 19.7494 9.75751 18.9946 9.81967 18.6038C10.0062 17.4405 10.6722 15.9131 11.356 14.9008C11.5247 14.59 11.871 14.1371 11.8799 14.1371Z" fill="#00DB90"/>
<path d="M28.7345 12.3613C27.4913 11.8995 27.3314 14.2172 27.0384 14.8566C26.8252 15.3361 26.177 15.9844 25.733 16.2597C25.4666 16.4284 25.1469 16.4817 24.8627 16.6149C24.3832 16.8369 24.1345 17.1655 24.0813 17.6894C24.0546 17.938 24.0901 18.1778 24.0901 18.4176C24.0901 19.1102 23.6284 20.1137 24.2322 20.682C24.845 21.2593 25.6087 20.4511 25.9639 19.9539C26.2658 19.5276 26.4079 19.0037 27.0029 18.9948C27.5179 18.9859 27.882 19.3411 27.953 19.8207C28.0951 20.7264 27.0917 20.8952 26.3724 21.0461C25.4133 21.2415 24.5608 21.6766 24.1523 22.6002C23.7083 23.6214 24.2589 24.9712 24.6496 25.948C24.8627 26.4719 25.1291 26.6762 25.6531 26.8893C26.4168 27.209 27.2693 27.1468 28.033 27.4665C28.77 27.7684 29.5515 28.2835 30.0221 28.9317C30.3951 29.4468 30.4839 30.2549 30.6526 30.8588C30.8036 31.3916 30.7858 31.8089 31.3808 31.8977C32.0468 31.9954 32.402 31.436 32.6507 30.9209C33.3877 29.3846 34.3468 28.0082 34.4445 26.241C34.48 25.5573 34.258 24.909 34.1603 24.2519C34.0626 23.5592 33.9294 22.9198 33.5653 22.3071C33.219 21.7299 32.624 21.2504 32.0113 20.9928C31.3186 20.6998 31.4074 20.0338 32.0823 19.8473C32.5707 19.7141 33.2368 19.8828 33.6719 20.0959C34.1781 20.3446 34.3024 20.6554 34.8707 20.8064C35.8564 21.0728 35.9097 20.389 35.7499 19.5809C35.5545 18.5863 35.2259 17.5917 34.7819 16.6771C34.1958 15.4782 33.1213 14.3327 32.1267 13.4624C31.3808 12.8142 30.4129 12.0416 29.3828 12.0771C28.8233 12.0949 28.5835 12.308 28.7345 12.3613Z" fill="#00DB90"/>
<path d="M25.129 14.3682C25.0668 14.2261 24.8537 14.0752 24.7028 14.0396C24.5074 13.9952 24.3298 14.0219 24.1522 14.1107C23.8947 14.2439 23.7792 14.5192 23.6371 14.7501C23.6194 14.7856 23.5927 14.8122 23.575 14.8477C23.575 14.8477 23.575 14.8566 23.5661 14.8566C23.4951 14.9365 23.424 15.0165 23.3441 15.0875C23.0422 15.3539 23.0511 15.8956 23.3441 16.162C23.6727 16.4639 24.09 16.4284 24.4186 16.162C24.6406 15.9844 24.8182 15.7713 24.978 15.5315C25.0669 15.3983 25.1468 15.2474 25.1912 15.0875C25.2711 14.83 25.2356 14.6169 25.129 14.3682Z" fill="#00DB90"/>
<path d="M28.9832 33.0166C28.8767 33.0876 28.9299 33.0521 28.9832 33.0166V33.0166Z" fill="#FF6B70"/>
<path d="M9.30429 39.3128C8.91356 39.3128 8.51395 39.224 8.12322 39.0464C5.00627 37.6255 3.16807 34.331 2.35997 32.5017C1.35651 30.2461 0.672719 27.7419 0.28199 24.8292C-0.179781 21.4369 -0.0732185 18.4176 0.592797 15.5937C1.24105 12.8764 2.43988 10.3278 4.05608 8.23203C4.86418 7.18417 5.76998 6.26063 6.73792 5.48805C7.32402 5.0174 7.93675 4.52899 8.66492 4.17378C9.3043 3.86297 9.97918 3.55216 10.6718 3.268C10.9294 3.16143 11.2047 3.10815 11.4888 3.10815C12.4923 3.10815 13.5579 3.83633 13.9664 4.81315C14.4903 6.06526 13.9842 7.59266 12.8297 8.21428C12.5189 8.383 12.2614 8.52508 12.0216 8.68492C12.0128 8.6938 11.995 8.70269 11.9861 8.71157C11.9595 8.73821 11.9151 8.76485 11.8796 8.79149L11.8707 8.80037C11.8174 8.83589 11.773 8.88029 11.7197 8.92469C11.4977 9.1023 11.2668 9.28878 10.956 9.51966C10.9383 9.53742 10.885 9.57294 10.885 9.57294C10.6719 9.75055 10.4765 9.9104 10.29 10.0791C9.86376 10.461 9.45525 10.8783 9.0734 11.3224C8.8958 11.5266 8.72708 11.7397 8.54948 11.9617L8.53172 11.9884C8.51396 12.0061 8.50508 12.0239 8.48732 12.0416C8.4518 12.0949 8.4074 12.1482 8.35412 12.2104C8.31859 12.2637 8.28308 12.3081 8.24756 12.3613C7.6437 13.205 7.11087 14.1196 6.67574 15.0787C6.65798 15.1142 6.62247 15.1941 6.62247 15.1941C6.60471 15.2474 6.58696 15.2918 6.56032 15.3451C6.54256 15.3895 6.52479 15.425 6.50703 15.4694C6.40934 15.7181 6.32053 15.9756 6.23173 16.242C6.03637 16.8281 5.86766 17.4319 5.73445 18.0535C5.66341 18.3821 5.59237 18.7107 5.53909 19.0481C5.52133 19.1547 5.50356 19.2524 5.4858 19.3589L5.46805 19.4833V19.5099L5.45916 19.5454C5.45916 19.5632 5.45029 19.5898 5.45029 19.6076C5.36149 20.2825 5.30819 20.9041 5.28155 21.4991C5.22827 22.6801 5.29045 23.9589 5.45029 25.2998L5.46805 25.4685C5.49469 25.6461 5.52133 25.806 5.55685 25.9569C5.61013 26.2233 5.66342 26.4898 5.7167 26.7295C5.83214 27.2535 5.97422 27.7685 6.11631 28.2569C6.27615 28.772 6.44486 29.2781 6.63134 29.7577C6.64022 29.7754 6.64911 29.7932 6.65799 29.8109C6.68463 29.8731 6.72904 29.953 6.75568 30.0507C6.78232 30.104 6.80896 30.1662 6.82672 30.2194C6.92441 30.4414 7.03097 30.6546 7.13753 30.8677C7.38618 31.3561 7.66145 31.8179 7.94562 32.2441C8.02554 32.3596 8.09659 32.475 8.17651 32.5816C8.18539 32.5993 8.21203 32.6349 8.23867 32.6704C8.26531 32.7059 8.29194 32.7414 8.31858 32.7769L8.38963 32.8569C8.47843 32.9634 8.56724 33.0611 8.64717 33.1588C8.94021 33.4874 9.2599 33.7893 9.59735 34.109L9.73055 34.2333C9.85487 34.3487 9.98807 34.4642 10.1302 34.5885C10.1923 34.6418 10.2456 34.6862 10.3078 34.7395L10.3166 34.7483C10.4232 34.8283 10.5209 34.9082 10.6274 34.9881C10.6718 35.0236 10.7163 35.0592 10.7518 35.0947C10.8051 35.1391 10.8495 35.1746 10.9027 35.219C11.3823 35.592 11.6487 36.1692 11.6664 36.8352C11.6753 37.4124 11.4977 37.9896 11.1602 38.4159C10.6985 38.9931 10.0414 39.3128 9.30429 39.3128Z" fill="#FFCF00"/>
<path d="M11.0805 8.64933C10.0859 8.64933 9.15346 8.13427 8.59401 7.26401C8.1944 6.65128 8.07896 5.89646 8.26545 5.13276C8.46081 4.34242 8.94922 3.66753 9.61523 3.28568C11.2492 2.34438 13.0075 1.58956 14.8368 1.0301C17.0924 0.346326 19.4723 0 21.9232 0C22.7846 0 23.646 0.0444011 24.4896 0.133203C26.3456 0.328568 27.9884 0.639372 29.498 1.10114C30.4304 1.38531 31.3007 1.74052 32.0733 2.16677C32.5528 2.42429 33.1034 2.72622 33.5474 3.13471C33.9293 3.48992 34.2223 3.91617 34.4709 4.28914C34.915 4.95516 34.9505 5.7899 34.5686 6.51807C34.1601 7.30841 33.3432 7.82347 32.4818 7.84123C32.4463 7.84123 32.4019 7.84123 32.3663 7.84123C31.0609 7.84123 29.8355 7.44162 28.6544 7.05089C28.1926 6.89992 27.7575 6.75784 27.3224 6.6424C26.6564 6.46479 25.9726 6.30495 25.2888 6.1895C25.1645 6.17174 25.0313 6.14511 24.907 6.12735L24.7471 6.1007L24.6583 6.09182C24.3297 6.0563 24.0012 6.02078 23.6815 6.00302C23.1398 5.9675 22.5892 5.94086 22.0386 5.94086C21.195 5.94086 20.3514 5.98526 19.5167 6.08295C19.4634 6.09183 19.4012 6.1007 19.348 6.1007L19.2503 6.11846C19.1348 6.13622 19.0194 6.15399 18.8951 6.17175C18.602 6.21615 18.2912 6.27831 17.936 6.35823C17.1723 6.51807 16.5152 6.6868 15.9113 6.8644C15.5383 6.97985 15.1743 7.11305 14.7924 7.25513C14.526 7.35281 14.2507 7.45938 13.9754 7.54818C13.9221 7.56594 13.8777 7.59258 13.8244 7.61922C13.6824 7.68138 13.5492 7.74355 13.416 7.81459C13.1229 7.95667 12.8121 8.10763 12.4924 8.28523C12.0573 8.525 11.5689 8.64933 11.0805 8.64933Z" fill="#FFADC7"/>
<path d="M39.968 15.6024C39.0356 15.6024 38.2008 15.114 37.8456 14.3592C37.5525 13.7376 37.2418 13.0893 36.8865 12.4766C36.7178 12.1924 36.5402 11.9083 36.3448 11.6507C36.3004 11.5886 36.256 11.5264 36.2116 11.4643C36.0784 11.3044 35.9719 11.1801 35.8653 11.0469C35.0217 10.0789 35.0217 8.74691 35.8742 7.81449C36.2827 7.37048 36.8688 7.12183 37.5082 7.12183C38.1475 7.12183 38.7514 7.37048 39.1776 7.79673C40.6073 9.22644 41.6641 10.7982 42.2946 12.4855C42.5077 13.0538 42.4544 13.6932 42.1436 14.2704C41.8683 14.7854 41.4154 15.2028 40.9093 15.4159C40.634 15.5403 40.3054 15.6024 39.968 15.6024Z" fill="#FFADC7"/>
<path d="M30.7499 39.5967C30.4036 39.6944 30.3858 39.7121 30.4568 39.6944C30.5545 39.6588 30.6522 39.6322 30.7499 39.5967Z" fill="#FF975E"/>
<path d="M24.5427 45.147C21.9852 45.2624 19.4632 44.9605 17.0478 44.2501C15.627 43.8327 14.81 42.5362 15.0675 41.0976C15.2718 39.9343 16.3374 39.0551 17.5984 38.993C17.8204 38.9841 18.0424 39.0019 18.2555 39.0463C18.7795 39.1528 19.2856 39.2416 19.7829 39.3127C19.8273 39.3216 19.9072 39.3215 19.9783 39.3215C20.1736 39.3304 20.3957 39.3393 20.6088 39.4015C20.7065 39.4104 20.7953 39.4104 20.8929 39.4192C21.6122 39.4548 22.3582 39.4548 23.1219 39.4192C23.3705 39.4104 23.6192 39.3926 23.8678 39.3748C24.3385 39.3393 24.818 39.286 25.2798 39.2239C25.4396 39.1972 25.5995 39.1706 25.7682 39.1528L25.928 39.1262H25.9369L25.9813 39.1173L26.0257 39.1084C26.0524 39.0996 26.0701 39.0995 26.0968 39.0907C26.9404 38.9131 27.784 38.6911 28.601 38.4246C29.045 38.2826 29.4979 38.1227 29.9419 37.9451C30.1017 37.883 30.2616 37.8119 30.4303 37.732C30.5724 37.6698 30.7145 37.5988 30.8654 37.5366L30.9009 37.5189L30.9365 37.51C30.972 37.5011 31.0342 37.4745 31.0608 37.4656L31.0874 37.4567C31.194 37.4034 31.3005 37.3501 31.4071 37.2969C31.6025 37.1992 31.789 37.0926 31.9755 36.9861C32.3484 36.7729 32.7214 36.5509 33.0766 36.32C33.7515 35.876 34.4353 35.3787 35.1634 34.7926L35.1812 34.7749C35.2434 34.7216 35.3055 34.6594 35.3677 34.6062C35.5275 34.4641 35.6785 34.322 35.8206 34.1799C36.1225 33.8869 36.4067 33.5849 36.6731 33.2741C36.8329 33.0876 36.9928 32.8923 37.1437 32.7058C37.1615 32.6791 37.1793 32.6525 37.197 32.6348L37.3746 32.3417C37.4546 32.1996 37.5522 32.0664 37.6321 31.9421C37.7298 31.8 37.8186 31.6668 37.8897 31.5336C38.0318 31.2761 38.165 31.0008 38.3159 30.6545L38.2982 30.6367L38.4758 30.2105C38.4847 30.1927 38.4935 30.1749 38.4935 30.1572C38.5468 29.9884 38.6001 29.802 38.6534 29.58C38.9553 28.3634 39.9943 27.5109 41.2641 27.4576C41.4862 27.4487 41.7082 27.4665 41.9302 27.502C42.6051 27.6174 43.1912 28.017 43.5996 28.612C44.0348 29.2603 44.2035 30.0595 44.0525 30.8054C43.5819 33.132 42.4541 35.3787 40.6781 37.4833C38.0673 40.5914 34.2399 42.998 29.9241 44.259C28.1836 44.7651 26.372 45.0582 24.5427 45.147ZM39.7545 30.7077C39.7545 30.6989 39.7545 30.7077 39.7545 30.7077H39.7279H39.7545Z" fill="#FF975E"/>
<path d="M38.0938 34.1267C38.0849 34.1267 38.0405 34.1889 37.9428 34.3754V34.3665C37.9961 34.2866 38.0405 34.2066 38.0938 34.1267Z" fill="#FF975E"/>
<path d="M25.0227 41.1685C25.1292 41.1418 25.1559 41.1152 24.7296 41.2129C24.7385 41.2129 24.7385 41.2129 24.7474 41.2129C24.8362 41.1951 24.9339 41.1862 25.0227 41.1685Z" fill="#FF975E"/>
<path d="M39.4528 31.8091C39.435 31.7913 39.364 31.8979 39.3551 32.0577V32.0488C39.364 31.9867 39.4084 31.889 39.4528 31.8091Z" fill="#FF975E"/>
<path d="M40.678 33.9578C40.2695 33.9756 39.8521 33.8956 39.4703 33.718C38.4846 33.2563 37.9074 31.9775 38.2271 30.9741C38.2715 30.8409 38.307 30.7077 38.3514 30.5656C38.3869 30.4501 38.4135 30.3436 38.4491 30.2281C38.5023 30.0505 38.5645 29.8907 38.6267 29.7308C38.6622 29.6509 38.6977 29.5621 38.7244 29.4733L38.7865 29.3135C38.8487 29.1447 38.9108 28.9849 38.973 28.8339L38.9819 28.8073C39.0085 28.7451 39.044 28.6741 39.0884 28.5942C39.1417 28.4787 39.1861 28.3278 39.2216 28.1857C39.2572 28.0702 39.2927 27.9548 39.3282 27.8393L39.3815 27.6795C39.4081 27.5907 39.4436 27.5019 39.4703 27.4131C39.5325 27.2088 39.5946 26.9957 39.6568 26.7826C39.7811 26.3208 39.8877 25.8413 39.9676 25.3795C40.012 25.1398 40.0475 24.9 40.0741 24.6691C40.0741 24.6513 40.083 24.5892 40.083 24.5359C40.0919 24.4737 40.0919 24.4205 40.1008 24.3849V24.3494C40.1274 23.861 40.1363 23.3815 40.1185 22.9108C40.1008 22.4313 40.0653 21.9518 39.9942 21.4811C39.9765 21.3746 39.9676 21.268 39.9498 21.1614L39.9409 21.0815V21.0726C39.8965 20.8506 39.8521 20.6464 39.7989 20.4421C39.4525 19.0391 40.1097 17.7603 41.4328 17.263C41.6548 17.1831 41.8857 17.1298 42.1255 17.1209C43.2888 17.0676 44.4255 17.8669 44.7185 18.9325C45.3579 21.2857 45.5266 23.7722 45.2069 26.3297C44.8428 29.2868 43.8838 31.6046 42.3475 33.2208C41.8946 33.6559 41.3085 33.9223 40.678 33.9578Z" fill="#BCFFDA"/>
<path d="M11.3558 42.252C11.1161 42.252 10.8763 42.2254 10.6276 42.181C9.66857 41.9856 8.92265 41.3107 8.26551 40.7068C8.18559 40.6269 8.09679 40.5559 8.01686 40.4848C7.55509 40.0763 7.12885 39.6679 6.73812 39.2594C5.6725 38.1493 4.79334 36.8617 4.21613 35.9914C3.46131 34.8459 3.78101 33.1853 4.91768 32.3062C5.40609 31.9332 6.05434 31.7112 6.71148 31.7112C7.50181 31.7112 8.21222 32.022 8.67399 32.5726C9.41993 33.4517 10.228 34.242 11.0006 34.9702C11.4358 35.3787 11.8442 35.7428 12.2527 36.0802C12.3326 36.1513 12.4215 36.2223 12.5103 36.2845L12.5369 36.3111L12.5813 36.3378C13.0963 36.7107 13.6203 37.0926 13.9844 37.7764C14.5705 38.8686 14.4728 40.1474 13.7357 41.0887C13.1674 41.8435 12.3238 42.252 11.3558 42.252Z" fill="#FF6B70"/>
</svg>
