<svg width="360" height="322" viewBox="0 0 360 322" fill="none" xmlns="http://www.w3.org/2000/svg">
<g clip-path="url(#clip0_926_1722)">
<rect width="360" height="322" rx="8" fill="#025F39"/>
<path d="M59.1423 -81.8286L-20.7743 -36.8533C-26.796 -33.4644 -28.9245 -25.8317 -25.5298 -19.7997L-5.82173 15.2195L-57.2464 44.1602C-63.2682 47.5491 -65.3966 55.1818 -62.0019 61.2138L-16.95 141.267C-13.5553 147.299 -5.92628 149.44 0.0954831 146.051L80.012 101.076C86.0338 97.687 88.1622 90.0543 84.7675 84.0222L65.0595 49.003L116.484 20.0623C122.506 16.6734 124.634 9.04071 121.24 3.00869L76.1878 -77.0441C72.7931 -83.0761 65.164 -85.2175 59.1423 -81.8286Z" fill="#00472B"/>
<path d="M309.963 192.867L246.708 209.812C241.276 211.267 240.319 218.555 245.187 221.366L340.72 276.521C346.516 279.868 353.927 277.883 357.273 272.087L412.421 176.568C412.497 176.437 412.545 176.308 412.61 176.18C412.969 175.603 413.315 175.019 413.659 174.424C432.664 141.507 421.378 99.4201 388.456 80.4124C355.533 61.4046 313.445 72.6845 294.444 105.596C277.442 135.044 284.684 171.834 309.963 192.867Z" fill="#00472B"/>
</g>
<defs>
<clipPath id="clip0_926_1722">
<rect width="360" height="322" rx="8" fill="white"/>
</clipPath>
</defs>
</svg>
