<svg width="158" height="160" viewBox="0 0 158 160" fill="none" xmlns="http://www.w3.org/2000/svg">
<path fill-rule="evenodd" clip-rule="evenodd" d="M61.9263 12.7844C68.0588 11.4539 74.4133 10.6895 79.3903 10.7383C102.134 10.9614 121.957 21.8837 138.274 36.7944C155.008 52.0869 160.288 74.0399 157.133 94.8565C153.985 115.634 142.393 135.7 124.784 147.589C103.898 161.69 77.805 163.228 55.4208 154.968C53.5487 154.277 52.5911 152.199 53.282 150.327C53.9728 148.455 56.0505 147.498 57.9226 148.188C78.4054 155.747 102.017 154.241 120.74 141.6C136.5 130.959 147.11 112.773 149.989 93.7739C152.861 74.8141 147.993 55.4656 133.399 42.1289C117.868 27.9362 99.6788 18.164 79.3194 17.9643C75.0214 17.9221 69.2219 18.596 63.4586 19.8465C57.6694 21.1026 52.2245 22.8744 48.5305 24.8823C46.7773 25.8353 44.5835 25.1866 43.6304 23.4334C42.6774 21.6802 43.3262 19.4863 45.0794 18.5333C49.6271 16.0613 55.8198 14.1094 61.9263 12.7844ZM27.1835 39.0646C28.6044 40.4656 28.6204 42.7533 27.2194 44.1742C9.18646 62.4623 8.59394 94.8722 20.8682 116.996C27.3735 128.721 32.968 134.536 43.876 140.997C45.593 142.013 46.1606 144.23 45.1437 145.947C44.1269 147.664 41.9107 148.231 40.1937 147.214C28.1247 140.067 21.6442 133.29 14.5492 120.502C1.1518 96.3536 1.22073 60.2485 22.0738 39.1005C23.4749 37.6795 25.7625 37.6635 27.1835 39.0646Z" fill="#8CE0BE"/>
<path fill-rule="evenodd" clip-rule="evenodd" d="M6.06281 121.468C7.89428 120.675 10.0213 121.518 10.8136 123.349C13.1937 128.851 19.4513 137.106 24.485 141.98C27.1658 144.576 28.4586 145.539 30.022 146.357C31.7903 147.281 32.474 149.465 31.5492 151.233C30.6244 153.001 28.4412 153.685 26.6729 152.76C24.2119 151.473 22.3387 149.961 19.458 147.171C13.9938 141.88 7.05658 132.865 4.18123 126.218C3.38892 124.387 4.23134 122.26 6.06281 121.468Z" fill="#FFA86D"/>
<path fill-rule="evenodd" clip-rule="evenodd" d="M2.27633 135.194C4.12985 134.455 6.23172 135.358 6.97097 137.212C7.74854 139.161 10.0676 142.387 11.9978 144.3C13.0337 145.327 13.3906 145.56 13.7676 145.758C15.5345 146.685 16.2151 148.869 15.2877 150.636C14.3603 152.403 12.1762 153.084 10.4092 152.156C9.10589 151.472 8.15469 150.666 6.90995 149.432C4.53516 147.078 1.51842 143.047 0.258781 139.889C-0.480478 138.035 0.42281 135.934 2.27633 135.194Z" fill="#FFE7FB"/>
<path fill-rule="evenodd" clip-rule="evenodd" d="M145.178 14.5398C146.186 16.2623 145.606 18.4754 143.883 19.4828C141.909 20.6374 140.133 22.0621 138.11 23.732C136.572 25.0026 134.294 24.7852 133.024 23.2465C131.753 21.7078 131.97 19.4304 133.509 18.1598C135.518 16.5008 137.7 14.7278 140.235 13.2448C141.958 12.2374 144.171 12.8172 145.178 14.5398Z" fill="#FFE7FB"/>
<path fill-rule="evenodd" clip-rule="evenodd" d="M131.136 0.184962C133.029 0.813614 134.055 2.85854 133.426 4.75244C133.083 5.78838 132.738 6.77583 132.405 7.73136C131.407 10.5922 130.509 13.167 130.024 15.901C129.675 17.8658 127.799 19.1757 125.834 18.8267C123.87 18.4778 122.56 16.6022 122.909 14.6374C123.506 11.2763 124.671 7.94139 125.712 4.96378C126.014 4.10187 126.305 3.2699 126.568 2.47589C127.197 0.581991 129.242 -0.443691 131.136 0.184962Z" fill="#6DDFA6"/>
<g style="mix-blend-mode:multiply">
<path fill-rule="evenodd" clip-rule="evenodd" d="M143.982 117.479C143.762 114.354 141.294 112.572 139.773 111.716C138.033 110.736 135.841 110.008 133.591 109.436C129.03 108.277 123.122 107.491 117.274 106.965C111.381 106.435 105.359 106.154 100.479 106.049C95.757 105.948 91.717 106.001 90.0191 106.233C79.2041 107.712 66.1093 113.547 56.1756 119.279C51.1651 122.17 46.7485 125.156 43.6557 127.742C42.1374 129.012 40.7594 130.333 39.8042 131.616C39.3346 132.247 38.8099 133.076 38.5013 134.045C38.1914 135.019 37.9609 136.622 38.8722 138.237C40.631 141.355 44.2148 144.149 48.1341 146.455C52.2234 148.862 57.319 151.107 62.849 152.898C73.7916 156.441 87.1829 158.443 98.411 155.762C109.476 153.12 120.786 145.94 129.159 138.723C133.38 135.085 137.009 131.306 139.593 127.88C140.882 126.171 141.976 124.464 142.745 122.838C143.472 121.302 144.117 119.412 143.982 117.479Z" fill="#FFF6CC"/>
</g>
<path fill-rule="evenodd" clip-rule="evenodd" d="M92.1269 43.3989C83.9098 40.2131 73.6319 40.4097 65.5137 43.4722C62.0181 44.7909 58.2211 46.9126 55.4597 50.1753C53.7484 52.1974 52.2901 54.4938 51.1685 56.8545C51.1288 56.9382 51.0889 57.0216 51.0491 57.1048L51.049 57.1051C50.7734 57.6815 50.5047 58.2437 50.3198 58.8019C50.1333 59.365 50.0217 59.9578 49.918 60.5093C49.901 60.5996 49.8842 60.6889 49.8673 60.7767L49.8488 60.8728L49.7949 61.2586C45.3455 72.3096 50.656 85.3403 58.8366 92.1435C72.0661 103.145 93.2998 100.691 103.258 86.3325C108.084 79.3741 109.447 70.3502 107.649 62.3161C105.842 54.241 100.721 46.7308 92.1269 43.3989Z" fill="#FFE7FB"/>
</svg>
