<svg width="180" height="136" viewBox="0 0 180 136" fill="none" xmlns="http://www.w3.org/2000/svg">
<mask id="path-1-outside-1_950_9024" maskUnits="userSpaceOnUse" x="0" y="0.665527" width="180" height="135" fill="black">
<rect fill="white" y="0.665527" width="180" height="135"/>
<path fill-rule="evenodd" clip-rule="evenodd" d="M7.81868 36.409C7.45143 35.7135 7.39071 35.1095 7.67786 34.6131C12.1614 26.8629 153.299 1.51694 157.653 7.59853C157.998 8.08081 157.921 8.90246 157.482 10.0073C158.425 10.1381 159.031 10.3467 159.261 10.6402C163.75 16.3478 177.157 95.5607 173.317 102.092C169.477 108.622 35.7093 135.89 27.1057 127.873C18.5021 119.855 4.13154 43.931 6.20137 37.6287C6.31572 37.2806 6.87093 36.8711 7.81868 36.409Z"/>
</mask>
<path fill-rule="evenodd" clip-rule="evenodd" d="M7.81868 36.409C7.45143 35.7135 7.39071 35.1095 7.67786 34.6131C12.1614 26.8629 153.299 1.51694 157.653 7.59853C157.998 8.08081 157.921 8.90246 157.482 10.0073C158.425 10.1381 159.031 10.3467 159.261 10.6402C163.75 16.3478 177.157 95.5607 173.317 102.092C169.477 108.622 35.7093 135.89 27.1057 127.873C18.5021 119.855 4.13154 43.931 6.20137 37.6287C6.31572 37.2806 6.87093 36.8711 7.81868 36.409Z" fill="white"/>
<path d="M7.67786 34.6131L2.48432 31.6086L2.48432 31.6086L7.67786 34.6131ZM7.81868 36.409L10.4479 41.8023C11.9084 41.0903 13.0177 39.8164 13.5222 38.2719C14.0266 36.7273 13.8831 35.0443 13.1245 33.6075L7.81868 36.409ZM157.653 7.59853L162.531 4.10583V4.10583L157.653 7.59853ZM157.482 10.0073L151.906 7.79231C151.226 9.50473 151.37 11.4347 152.297 13.027C153.224 14.6192 154.832 15.697 156.657 15.9503L157.482 10.0073ZM159.261 10.6402L154.545 14.3488L154.545 14.3489L159.261 10.6402ZM173.317 102.092L168.145 99.0501V99.0501L173.317 102.092ZM27.1057 127.873L23.0153 132.262H23.0153L27.1057 127.873ZM6.20137 37.6287L11.9018 39.5009L6.20137 37.6287ZM2.48432 31.6086C0.7361 34.6305 1.66193 37.5989 2.51291 39.2106L13.1245 33.6075C13.1939 33.7389 13.4204 34.2028 13.4818 34.9343C13.5503 35.7492 13.3933 36.7155 12.8714 37.6176L2.48432 31.6086ZM162.531 4.10583C161.255 2.32294 159.458 1.66041 158.731 1.42057C157.791 1.1107 156.821 0.949944 155.986 0.853854C154.288 0.658553 152.213 0.631791 149.966 0.697948C145.418 0.831872 139.325 1.37745 132.31 2.20536C118.234 3.86649 99.9157 6.72865 81.6518 10.0137C63.3867 13.2989 45.0635 17.0273 30.9794 20.4356C23.9551 22.1354 17.8724 23.7825 13.3446 25.2819C11.0973 26.0261 9.08122 26.7832 7.4741 27.5483C6.67472 27.9289 5.84074 28.3749 5.0828 28.8979C4.43955 29.3417 3.29231 30.2119 2.48432 31.6086L12.8714 37.6176C12.3436 38.5299 11.7435 38.8814 11.8976 38.775C11.937 38.7479 12.1506 38.6124 12.6323 38.3831C13.5873 37.9284 15.0675 37.3522 17.117 36.6735C21.1828 35.3271 26.8961 33.7701 33.8019 32.0989C47.5782 28.7651 65.6521 25.084 83.7761 21.8241C101.901 18.5641 119.964 15.7456 133.716 14.1227C140.615 13.3085 146.298 12.8112 150.319 12.6927C152.357 12.6327 153.765 12.6775 154.615 12.7752C155.053 12.8257 155.124 12.8669 154.974 12.8173C154.89 12.7897 154.624 12.6971 154.274 12.488C153.935 12.2858 153.324 11.8598 152.774 11.0912L162.531 4.10583ZM163.058 12.2223C163.396 11.3707 163.749 10.2634 163.844 9.02895C163.938 7.79893 163.81 5.89136 162.531 4.10583L152.774 11.0912C151.841 9.78798 151.847 8.53238 151.879 8.10996C151.912 7.68316 152.006 7.53903 151.906 7.79231L163.058 12.2223ZM156.657 15.9503C156.919 15.9867 156.87 16.0013 156.643 15.9211C156.52 15.8776 156.251 15.7742 155.915 15.5707C155.586 15.3719 155.052 14.9934 154.545 14.3488L163.978 6.93152C162.811 5.44784 161.311 4.84302 160.634 4.6044C159.811 4.31379 158.987 4.15867 158.307 4.06426L156.657 15.9503ZM154.545 14.3489C154.221 13.9375 154.273 13.8351 154.6 14.687C154.859 15.362 155.178 16.3303 155.548 17.6086C156.285 20.1538 157.129 23.5986 158.031 27.705C159.828 35.8983 161.785 46.4239 163.489 57.0104C165.193 67.6038 166.628 78.1538 167.398 86.4072C167.785 90.5489 167.993 93.9973 168 96.5378C168.003 97.8162 167.955 98.7384 167.883 99.3434C167.784 100.179 167.709 99.7914 168.145 99.0501L178.489 105.133C179.405 103.575 179.675 101.804 179.8 100.758C179.951 99.4828 180.004 98.028 180 96.5042C179.991 93.4405 179.747 89.5843 179.346 85.2922C178.542 76.6781 177.064 65.8436 175.336 55.1039C173.607 44.3574 171.61 33.6014 169.752 25.1329C168.825 20.9084 167.916 17.1772 167.075 14.2725C166.656 12.8258 166.231 11.5007 165.802 10.3851C165.442 9.4464 164.862 8.05629 163.978 6.93145L154.545 14.3489ZM168.145 99.0501C168.486 98.4694 168.846 98.1203 168.995 97.9841C169.084 97.9025 169.154 97.8464 169.196 97.8145C169.239 97.7821 169.264 97.7653 169.266 97.7635C169.268 97.7624 169.217 97.7959 169.095 97.8618C168.976 97.9261 168.813 98.0085 168.6 98.108C167.705 98.5254 166.311 99.0662 164.378 99.7143C160.544 100.999 155.137 102.526 148.587 104.186C135.518 107.499 118.292 111.243 100.881 114.542C83.4584 117.843 65.9772 120.674 52.3798 122.181C45.559 122.938 39.8703 123.343 35.7129 123.334C33.6192 123.33 32.0992 123.22 31.0974 123.056C29.7555 122.835 30.3247 122.671 31.1962 123.483L23.0153 132.262C24.9622 134.076 27.5848 134.639 29.1494 134.896C31.0542 135.21 33.294 135.33 35.689 135.334C40.5087 135.344 46.7122 134.883 53.7019 134.108C67.7256 132.554 85.5394 129.663 103.115 126.333C120.7 123.001 138.174 119.205 151.535 115.818C158.2 114.129 163.941 112.517 168.192 111.092C170.301 110.385 172.182 109.678 173.673 108.983C174.413 108.638 175.192 108.233 175.902 107.762C176.458 107.393 177.655 106.551 178.489 105.133L168.145 99.0501ZM31.1962 123.483C31.2852 123.566 31.0735 123.38 30.624 122.603C30.2096 121.886 29.7224 120.896 29.1754 119.607C28.0812 117.03 26.8933 113.609 25.6616 109.538C23.2041 101.417 20.7059 91.1576 18.5202 80.8615C16.337 70.577 14.4902 60.3725 13.3213 52.3912C12.7354 48.3909 12.3309 45.0238 12.134 42.5172C12.0351 41.2574 11.9957 40.3016 12.0004 39.6348C12.0065 38.7584 12.091 38.9248 11.9018 39.5009L0.500935 35.7566C0.052978 37.1205 0.00720263 38.6186 0.000662327 39.5506C-0.00734901 40.6923 0.0581632 42.0218 0.170875 43.4568C0.397319 46.3399 0.843175 50.001 1.44792 54.1301C2.66021 62.4077 4.55568 72.867 6.78181 83.3534C9.00549 93.8284 11.5837 104.447 14.1759 113.014C15.469 117.287 16.7991 121.162 18.1295 124.296C19.3379 127.142 20.9121 130.302 23.0153 132.262L31.1962 123.483ZM11.9018 39.5009C11.6002 40.4194 11.1354 41.0212 10.8801 41.3123C10.6103 41.62 10.3816 41.7985 10.2973 41.8617C10.1406 41.9792 10.1398 41.9525 10.4479 41.8023L5.18944 31.0158C4.54977 31.3276 3.79754 31.7366 3.09771 32.2614C2.5979 32.6362 1.15726 33.7582 0.500934 35.7566L11.9018 39.5009Z" fill="white" mask="url(#path-1-outside-1_950_9024)"/>
<path d="M27.1057 127.873C18.5021 119.855 4.13154 43.931 6.20137 37.6288C8.2712 31.3266 154.773 4.93257 159.261 10.6402C163.75 16.3479 177.157 95.5608 173.317 102.092C169.477 108.622 35.7093 135.89 27.1057 127.873Z" fill="#FFF6CC"/>
<g style="mix-blend-mode:multiply">
<path d="M7.67786 34.6131C3.1943 42.3633 83.5194 76.3635 91.3459 75.0442C99.1723 73.7248 162.007 13.6801 157.653 7.59853C153.299 1.51694 12.1614 26.8629 7.67786 34.6131Z" fill="#FFD6E5"/>
</g>
<path d="M49.0576 102.669L42.0455 102.279C41.0049 102.22 40.6398 100.854 41.5125 100.284L47.3947 96.4472C47.7882 96.1913 47.8999 95.6603 47.6428 95.263L46.7248 93.839C46.4691 93.4413 45.9417 93.3263 45.5486 93.5837L39.6664 97.4206C38.7937 97.9904 37.7021 97.0972 38.0728 96.1177L40.5782 89.5188C40.7457 89.078 40.5253 88.581 40.0872 88.4102L38.5151 87.7977C38.077 87.6269 37.5848 87.8468 37.4173 88.2876L34.9119 94.8865C34.5397 95.8663 33.1392 95.7883 32.8679 94.7733L31.0401 87.9342C30.9178 87.4764 30.4509 87.2037 29.9973 87.3249L28.3742 87.7587C27.9205 87.8799 27.652 88.3492 27.7743 88.807L35.8653 119.082C35.9876 119.54 36.4545 119.812 36.9082 119.691L38.5326 119.257C38.9863 119.136 39.2549 118.666 39.1325 118.209L37.3048 111.37C37.0335 110.355 38.2084 109.588 39.0198 110.252L44.4831 114.721C44.8482 115.019 45.3831 114.965 45.679 114.598L46.7359 113.283C47.0304 112.916 46.9735 112.376 46.6084 112.077L41.145 107.608C40.3337 106.944 40.8342 105.626 41.8762 105.684L48.8883 106.075C49.357 106.1 49.7571 105.739 49.7803 105.267L49.8651 103.573C49.8884 103.101 49.5281 102.696 49.0593 102.67L49.0576 102.669Z" fill="#00DA93"/>
</svg>
