<svg width="328" height="260" viewBox="0 0 328 260" fill="none" xmlns="http://www.w3.org/2000/svg">
<path d="M125.239 252.997L151.254 173.776C155.12 162.021 171.932 162.021 175.799 173.776L201.813 252.997C203.545 258.295 209.301 261.203 214.654 259.472L233.829 253.309C239.182 251.595 242.121 245.899 240.372 240.601L214.357 161.38C210.491 149.625 224.101 139.844 234.213 147.115L302.32 196.074C306.869 199.346 313.254 198.342 316.561 193.841L328.422 177.688C331.729 173.187 330.714 166.868 326.165 163.596L258.059 114.637C248.087 107.47 253.02 92.027 265.109 91.5769L349.801 91.5769C355.434 91.5769 360 87.0584 360 81.4839L360 61.4881C360 55.9136 355.434 51.395 349.801 51.395L265.109 51.395C253.003 50.9449 248.087 35.5023 258.059 28.335L326.148 -20.6242C330.696 -23.8962 331.711 -30.1979 328.405 -34.7164L316.543 -50.8688C313.237 -55.37 306.869 -56.3741 302.303 -53.1021L234.196 -4.14287C224.084 3.12831 210.473 -6.65316 214.339 -18.4082L240.354 -97.6294C242.086 -102.927 239.164 -108.623 233.811 -110.337L214.637 -116.5C209.284 -118.214 203.528 -115.323 201.796 -110.025L175.781 -30.8038C171.915 -19.0488 155.103 -19.0488 151.236 -30.8038L125.222 -110.025C123.49 -115.323 117.734 -118.231 112.381 -116.5L93.189 -110.337C87.8356 -108.623 84.8965 -102.927 86.646 -97.6294L112.661 -18.4082C116.527 -6.65316 102.916 3.12828 92.8041 -4.12558L24.6974 -53.0848C20.1488 -56.3568 13.7632 -55.3527 10.4568 -50.8515L-1.40464 -34.6991C-4.71112 -30.1979 -3.69642 -23.8789 0.852199 -20.6069L68.9589 28.3523C78.9308 35.5196 73.9973 50.9622 61.891 51.4123L-22.8006 51.4123C-28.4339 51.4123 -33 55.9309 -33 61.5054L-33 81.5012C-33 87.0757 -28.4339 91.5942 -22.8006 91.5942L61.891 91.5942C73.9973 92.0443 78.9133 107.487 68.9589 114.654L0.852191 163.613C-3.69642 166.885 -4.71113 173.187 -1.40465 177.706L10.4567 193.858C13.7632 198.359 20.1488 199.363 24.6974 196.091L92.8041 147.132C102.916 139.861 116.527 149.642 112.661 161.415L86.646 240.636C84.914 245.934 87.8356 251.629 93.189 253.343L112.381 259.506C117.734 261.22 123.49 258.329 125.222 253.032L125.239 252.997Z" fill="#9AD0F9"/>
</svg>
