<svg width="230" height="216" viewBox="0 0 230 216" fill="none" xmlns="http://www.w3.org/2000/svg">
<path d="M158.642 288.997L184.723 209.776C188.599 198.021 205.454 198.021 209.33 209.776L235.411 288.997C237.147 294.295 242.918 297.203 248.285 295.472L267.507 289.309C272.874 287.595 275.821 281.899 274.067 276.601L247.986 197.38C244.11 185.625 257.756 175.844 267.893 183.115L336.173 232.074C340.734 235.346 347.135 234.342 350.45 229.841L362.342 213.688C365.657 209.187 364.639 202.868 360.079 199.596L291.799 150.637C281.802 143.47 286.748 128.027 298.868 127.577L383.775 127.577C389.422 127.577 394 123.058 394 117.484L394 97.4881C394 91.9136 389.422 87.395 383.775 87.395L298.868 87.395C286.73 86.9449 281.802 71.5023 291.799 64.335L360.062 15.3758C364.622 12.1038 365.639 5.80209 362.324 1.28358L350.433 -14.8688C347.118 -19.37 340.734 -20.3741 336.156 -17.1021L267.876 31.8571C257.738 39.1283 244.093 29.3468 247.969 17.5918L274.05 -61.6294C275.786 -66.927 272.857 -72.6227 267.49 -74.3366L248.267 -80.4998C242.9 -82.2137 237.13 -79.3226 235.393 -74.025L209.313 5.19616C205.436 16.9512 188.581 16.9512 184.705 5.19616L158.624 -74.025C156.888 -79.3226 151.118 -82.231 145.751 -80.4998L126.51 -74.3366C121.143 -72.6227 118.197 -66.927 119.95 -61.6294L146.031 17.5918C149.907 29.3468 136.262 39.1283 126.124 31.8744L57.8442 -17.0848C53.284 -20.3568 46.8822 -19.3527 43.5673 -14.8515L31.6758 1.30088C28.3609 5.80208 29.3782 12.1211 33.9384 15.3931L102.218 64.3523C112.216 71.5196 107.27 86.9622 95.1325 87.4123L10.2254 87.4123C4.57775 87.4123 2.29585e-05 91.9309 2.27149e-05 97.5054L2.18408e-05 117.501C2.15971e-05 123.076 4.57775 127.594 10.2254 127.594L95.1325 127.594C107.27 128.044 112.198 143.487 102.218 150.654L33.9383 199.613C29.3782 202.885 28.3609 209.187 31.6758 213.706L43.5673 229.858C46.8822 234.359 53.284 235.363 57.8442 232.091L126.124 183.132C136.262 175.861 149.907 185.642 146.031 197.415L119.95 276.636C118.214 281.934 121.143 287.629 126.51 289.343L145.751 295.506C151.118 297.22 156.888 294.329 158.624 289.032L158.642 288.997Z" fill="#9AD0F9"/>
</svg>
