<svg width="112" height="80" viewBox="0 0 112 80" fill="none" xmlns="http://www.w3.org/2000/svg">
<g clip-path="url(#clip0_3261_5197)">
<path d="M47.988 13.5591C47.988 13.5591 55.643 8.56207 63.0538 8.584C70.1599 8.52137 72.9278 9.78179 77.9847 12.7276C79.1627 12.2669 89.7751 8.32033 97.8864 14.2142C102.149 17.3007 103.672 21.6286 104.87 25.4725C107.816 34.1335 107.719 45.9539 102.743 48.5111C102.448 48.6262 102.059 48.8464 97.5697 49.1759C93.7798 49.4696 90.584 49.6329 88.3868 49.7451L77.243 47.2104C77.243 47.2104 70.263 57.58 64.9917 64.1575C62.6378 67.0814 60.3072 68.5022 59.5389 69.1422C57.0545 71.472 52.6216 72.9 49.3493 71.5652C46.7913 70.4943 46.2052 68.8221 46.2052 68.8221C46.2052 68.8221 42.3788 72.3218 37.7775 70.4542C34.0955 68.9401 35.1999 65.0787 35.1999 65.0787C35.1999 65.0787 31.4274 67.6745 27.5456 66.1706C24.688 65.115 24.4096 61.6247 24.4687 60.8206C24.7311 54.1986 34.676 33.264 34.676 33.264L47.988 13.5591Z" fill="#FFA86D"/>
<path d="M26.9795 23.7443C26.365 23.4753 14.8195 18.9585 9.1028 24.6576C6.61843 26.9874 6.38732 30.3035 6.02496 36.9306C5.7399 41.1506 4.70461 58.1256 10.8243 60.3162C11.4389 60.5852 11.7283 60.3701 15.8178 60.0611C19.7025 59.6624 22.8984 59.4991 24.8958 59.3971C24.8958 59.3971 26.1468 52.5243 29.8813 47.2268C33.511 41.8346 35.1679 40.9489 37.4343 40.2324C39.7007 39.5158 48.9303 35.9403 51.2063 25.6107C51.2063 25.6107 59.9634 28.4676 63.2154 29.4029C66.4673 30.3382 69.5378 29.6807 70.729 27.5171C71.646 25.8682 71.5236 23.4713 69.3447 21.9805C67.1658 20.4898 56.2224 14.0397 50.1588 12.9476C45.099 11.9044 33.8443 13.0802 26.9795 23.7443Z" fill="#00DA93"/>
<path d="M59.6395 69.137C59.6395 69.137 64.7014 72.1827 70.6579 71.1775C76.4146 70.1825 77.1531 65.0382 76.8208 62.4517C76.8208 62.4517 83.0535 62.9344 83.4261 56.507C83.4261 56.507 86.7473 56.838 87.972 53.371C89.2018 50.0038 87.6484 45.0767 83.7695 41.6702C80.8303 39.0167 76.3034 36.6445 72.649 37.6323C68.9998 38.7199 70.4074 42.7533 70.4074 42.7533C70.4074 42.7533 67.0913 42.5222 65.5648 44.002C64.0434 45.5817 64.5245 47.1592 66.3856 50.2683C66.3856 50.2683 62.834 49.3483 60.4393 51.4732C58.0446 53.5982 59.1985 58.5457 64.5674 63.6785C64.6775 63.8731 62.3185 66.6972 59.6395 69.137Z" fill="#00DA93"/>
<path d="M64.4178 64.6875C65.0528 65.356 65.7825 65.9195 66.6018 66.2781C67.0166 66.5573 67.3804 65.8378 66.9656 65.5586C66.2461 65.1949 65.5164 64.6314 64.9864 64.0577C64.6664 63.6735 64.0978 64.3033 64.4178 64.6875Z" fill="#086E43"/>
<path d="M69.794 44.4869C75.0302 47.0231 79.4441 51.1032 82.306 56.1638C82.9716 57.4315 84.9129 56.2308 84.1474 54.9683C81.1652 49.5133 76.4364 45.1489 70.7956 42.5333C69.4565 41.8006 68.46 43.8542 69.794 44.4869Z" fill="#086E43"/>
<path d="M78.0039 62.091C75.8309 56.795 71.7013 52.4 66.4753 50.0636C65.1412 49.4308 64.1447 51.4843 65.4736 52.0172C70.1901 54.1794 73.9895 57.9905 75.9373 62.7974C76.1676 63.3864 76.7872 63.7553 77.3763 63.5249C77.7655 63.3048 78.2292 62.5802 78.0039 62.091Z" fill="#086E43"/>
<path d="M70.7625 39.9314C71.9121 40.874 73.1564 41.7116 74.4904 42.3443C75.4148 42.7978 76.544 43.3409 77.558 43.5895C79.586 44.0866 81.5068 42.4866 82.5289 40.9324C82.9028 40.4126 82.5624 39.629 82.0529 39.4547C81.5331 39.0808 80.9492 39.411 80.5752 39.9308C80.7597 39.6209 80.4805 40.0357 80.3857 40.1407C80.2909 40.2457 80.1014 40.4556 80.0066 40.5606C79.7223 40.8755 79.4329 41.0905 78.9438 41.3158C78.7491 41.4259 78.4495 41.4412 78.1499 41.4565C77.9502 41.4667 78.3496 41.4463 78.3496 41.4463L78.2498 41.4514C78.1499 41.4565 78.0449 41.3617 77.8452 41.3719C77.7453 41.377 77.6404 41.2822 77.6404 41.2822C77.6404 41.2822 77.3356 41.1977 77.5354 41.1875C77.6353 41.1824 77.3305 41.0978 77.3305 41.0978C77.2307 41.1029 77.1257 41.0082 77.0258 41.0133C76.4113 40.7443 75.8967 40.4702 75.382 40.1961C74.2528 39.653 73.3183 38.9998 72.2737 38.152C71.1292 37.3093 69.6129 38.9888 70.7625 39.9314Z" fill="#086E43"/>
<path d="M64.3719 46.1656C66.1615 47.8765 68.1559 49.6771 70.5936 50.3536C72.8316 51.0403 75.4129 50.6081 77.1289 48.9183C77.6079 48.4933 77.4672 47.6995 77.0473 47.3204C76.5224 46.8466 75.9283 46.977 75.4494 47.402C74.2072 48.5669 72.3046 48.564 70.8758 48.0362C68.9374 47.3342 67.4576 45.8077 65.988 44.4809C64.8384 43.5384 63.3221 45.2179 64.3719 46.1656Z" fill="#086E43"/>
<path d="M59.3991 54.6305C61.0786 56.1468 62.8682 57.8577 65.2804 58.0349C67.6977 58.3119 69.6339 57.0114 71.1451 55.232C72.0876 54.0824 70.4132 52.666 69.4655 53.7157C68.4282 54.9703 67.081 56.0404 65.3628 55.7277C63.5448 55.42 62.175 54.0882 60.9103 52.8511C59.7658 52.0084 58.3494 53.6828 59.3991 54.6305Z" fill="#086E43"/>
<path d="M50.3903 13.5366C53.8092 11.86 57.5584 10.7673 61.3381 10.2738C62.7312 10.1025 62.619 7.9054 61.2259 8.0767C57.0416 8.49073 52.9979 9.69861 49.1948 11.6952C48.6058 11.9256 48.5519 12.8295 48.8719 13.2137C49.2021 13.7976 49.8064 13.8669 50.3903 13.5366Z" fill="#E86107"/>
<path d="M45.2919 23.5097C46.1469 24.5675 47.0917 25.4204 48.3258 26.0582C49.4601 26.7012 50.7737 26.9345 52.0822 27.0679C52.6866 27.1372 53.2501 26.4075 53.1247 25.9132C53.089 25.2141 52.5692 24.8402 51.97 24.8708C51.6704 24.8861 52.2696 24.8555 51.97 24.8708C51.8701 24.8759 51.7703 24.881 51.6653 24.7862C51.4655 24.7964 51.1608 24.7118 50.956 24.6222C50.6513 24.5376 50.4464 24.4479 50.1417 24.3634C50.0419 24.3685 49.9369 24.2737 49.9369 24.2737C49.732 24.1841 49.6271 24.0893 49.4222 23.9996C49.3173 23.9048 49.1124 23.8152 49.0074 23.7204C48.9076 23.7255 48.9025 23.6256 48.8026 23.6307C48.5978 23.5411 48.9025 23.6256 48.8026 23.6307C48.5927 23.4412 48.3827 23.2517 48.1728 23.0621C47.9628 22.8726 47.7529 22.6831 47.6428 22.4884L47.5378 22.3937C47.6428 22.4884 47.7427 22.4833 47.5378 22.3937C47.4329 22.2989 47.4278 22.199 47.3228 22.1043C46.9977 21.6202 46.2833 21.3563 45.8043 21.7813C45.2255 22.2114 44.9667 23.0257 45.2919 23.5097Z" fill="#086E43"/>
<path d="M70.1282 25.5452C69.9335 25.6552 69.8337 25.6603 69.6339 25.6705C69.4342 25.6807 69.534 25.6756 69.6339 25.6705C69.534 25.6756 69.4342 25.6807 69.4342 25.6807C69.1346 25.6961 68.9348 25.7063 68.6352 25.7216C68.5353 25.7267 68.3356 25.7369 68.2357 25.742C68.4355 25.7318 68.036 25.7522 68.036 25.7522C67.8312 25.6625 67.5315 25.6778 67.3267 25.5881C67.3267 25.5881 66.917 25.4088 67.1219 25.4985C67.022 25.5036 66.917 25.4088 66.8172 25.4139C66.6123 25.3243 66.3025 25.1398 66.0977 25.0502C66.3025 25.1398 66.0977 25.0502 65.9927 24.9554C65.7878 24.8657 65.7827 24.7658 65.6778 24.6711C65.5728 24.5763 65.4678 24.4815 65.3629 24.3868C65.5728 24.5763 65.3577 24.2869 65.2579 24.292C65.1478 24.0974 65.0377 23.9027 64.9277 23.7081C65.0428 24.0026 64.9175 23.5084 64.8176 23.5135C64.8125 23.4136 64.7024 23.219 64.6973 23.1191C64.7024 23.219 64.7024 23.219 64.6922 23.0192C64.6871 22.9193 64.682 22.8195 64.682 22.8195C64.6718 22.6197 64.6667 22.5199 64.6565 22.3201C64.6565 22.3201 64.736 21.9155 64.6514 22.2203C64.6463 22.1204 64.736 21.9155 64.7308 21.8157C64.8205 21.6108 64.8103 21.4111 64.8949 21.1064C64.8898 21.0065 64.8898 21.0065 64.9845 20.9015C64.8898 21.0065 64.8898 21.0065 64.9845 20.9015C64.9794 20.8017 65.0742 20.6967 65.0691 20.5968C65.1588 20.392 65.2484 20.1871 65.3381 19.9823C65.6122 19.4677 65.3768 18.7788 64.8621 18.5047C64.2476 18.2357 63.6586 18.466 63.3845 18.9807C62.4572 20.4299 62.1546 22.3478 62.6409 24.0252C63.2422 25.9971 65.1164 27.4033 67.0395 27.8057C68.2532 28.0441 69.5515 27.9778 70.8345 27.6118C71.4286 27.4813 71.6925 26.7669 71.562 26.1728C71.3368 25.6837 70.7223 25.4147 70.1282 25.5452Z" fill="#086E43"/>
<path d="M56.3776 50.3792C50.51 55.0846 46.6522 61.8903 45.7315 69.347C45.6032 70.7554 47.7311 71.2475 47.9592 69.834C48.8107 62.9816 52.2895 56.5958 57.6781 52.3153C58.7307 51.3604 57.5352 49.519 56.3776 50.3792Z" fill="#E86107"/>
<path d="M36.487 64.8125C36.8392 57.9857 40.113 51.5102 45.1918 47.0452C46.2445 46.0903 44.565 44.574 43.5123 45.529C37.8547 50.424 34.5115 57.5038 34.19 64.9299C34.1667 66.433 36.4637 66.3157 36.487 64.8125Z" fill="#E86107"/>
</g>
<defs>
<clipPath id="clip0_3261_5197">
<rect width="101.4" height="63.6" fill="white" transform="translate(4 11) rotate(-2.9245)"/>
</clipPath>
</defs>
</svg>
