<svg width="312" height="272" viewBox="0 0 312 272" fill="none" xmlns="http://www.w3.org/2000/svg">
<g style="mix-blend-mode:multiply">
<circle cx="156" cy="116" r="156" fill="#E5FBED"/>
</g>
<g style="mix-blend-mode:multiply">
<circle cx="156" cy="116" r="156" fill="#E5FBED"/>
</g>
<g style="mix-blend-mode:multiply">
<circle cx="156" cy="116" r="156" fill="#E5FBED"/>
</g>
<path fill-rule="evenodd" clip-rule="evenodd" d="M105.167 169.167C104.284 166.59 101.46 165.2 98.8472 166.061C96.2259 166.926 94.8093 169.728 95.683 172.321L100.429 170.756C95.683 172.321 95.6837 172.324 95.6845 172.326L95.686 172.33L95.6896 172.341L95.6981 172.366L95.7212 172.432C95.7393 172.483 95.7628 172.548 95.7919 172.627C95.8502 172.784 95.9311 172.995 96.036 173.251C96.2456 173.763 96.5532 174.464 96.9707 175.29C97.8001 176.931 99.0941 179.129 100.963 181.348C104.733 185.823 111.03 190.553 120.441 190.553C129.852 190.553 136.149 185.823 139.919 181.348C141.788 179.129 143.082 176.931 143.911 175.29C144.329 174.464 144.636 173.763 144.846 173.251C144.951 172.995 145.032 172.784 145.09 172.627C145.119 172.548 145.143 172.483 145.161 172.432L145.184 172.366L145.192 172.341L145.196 172.33L145.198 172.326C145.198 172.324 145.199 172.321 140.453 170.756L145.199 172.321C146.073 169.728 144.656 166.926 142.035 166.061C139.422 165.2 136.598 166.59 135.715 169.167L135.696 169.219C135.673 169.28 135.632 169.388 135.571 169.537C135.448 169.837 135.248 170.297 134.962 170.863C134.384 172.006 133.489 173.519 132.232 175.012C129.748 177.961 126.039 180.655 120.441 180.655C114.843 180.655 111.134 177.961 108.65 175.012C107.393 173.519 106.498 172.006 105.92 170.863C105.634 170.297 105.434 169.837 105.311 169.537C105.25 169.388 105.209 169.28 105.186 169.219L105.167 169.167Z" fill="#0EA472"/>
<path fill-rule="evenodd" clip-rule="evenodd" d="M175.944 169.167C175.061 166.59 172.237 165.2 169.624 166.061C167.003 166.926 165.586 169.728 166.46 172.321L171.206 170.756C166.46 172.321 166.461 172.324 166.462 172.326L166.463 172.33L166.467 172.341L166.475 172.366L166.498 172.432C166.516 172.483 166.54 172.548 166.569 172.627C166.627 172.784 166.708 172.995 166.813 173.251C167.023 173.763 167.33 174.464 167.748 175.29C168.577 176.931 169.871 179.129 171.741 181.348C175.51 185.823 181.807 190.553 191.218 190.553C200.629 190.553 206.926 185.823 210.696 181.348C212.565 179.129 213.859 176.931 214.688 175.29C215.106 174.464 215.413 173.763 215.623 173.251C215.728 172.995 215.809 172.784 215.867 172.627C215.896 172.548 215.92 172.483 215.938 172.432L215.961 172.366L215.97 172.341L215.973 172.33L215.975 172.326C215.975 172.324 215.976 172.321 211.23 170.756L215.976 172.321C216.85 169.728 215.433 166.926 212.812 166.061C210.199 165.2 207.375 166.59 206.492 169.167L206.473 169.219C206.451 169.28 206.409 169.388 206.348 169.537C206.225 169.837 206.025 170.297 205.739 170.863C205.161 172.006 204.266 173.519 203.009 175.012C200.525 177.961 196.816 180.655 191.218 180.655C185.62 180.655 181.911 177.961 179.427 175.012C178.17 173.519 177.275 172.006 176.697 170.863C176.411 170.297 176.211 169.837 176.088 169.537C176.027 169.388 175.986 169.28 175.963 169.219L175.944 169.167Z" fill="#0EA472"/>
<path fill-rule="evenodd" clip-rule="evenodd" d="M100.14 110.059C102.584 107.887 106.361 105.74 111.968 104.785C117.575 103.83 121.885 104.601 124.95 105.834C126.458 106.441 127.61 107.137 128.429 107.73C128.839 108.026 129.165 108.297 129.412 108.518C129.536 108.628 129.64 108.727 129.725 108.81C129.767 108.852 129.805 108.89 129.838 108.924L129.884 108.972L129.905 108.993L129.914 109.003L129.919 109.008C129.921 109.011 129.923 109.013 126.167 112.28L129.923 109.013C131.791 111.016 131.624 114.103 129.55 115.907C127.518 117.674 124.41 117.555 122.528 115.667C122.503 115.645 122.45 115.602 122.367 115.542C122.147 115.383 121.718 115.109 121.062 114.845C119.8 114.337 117.45 113.764 113.723 114.399C109.997 115.033 107.991 116.348 106.985 117.242C106.462 117.707 106.156 118.106 106.006 118.328C105.949 118.411 105.915 118.47 105.899 118.498C104.799 120.894 101.921 122.032 99.3854 121.043C96.7972 120.033 95.5471 117.188 96.593 114.689L101.279 116.517C96.593 114.689 96.5943 114.686 96.5955 114.683L96.5981 114.676L96.6035 114.664L96.6151 114.637L96.6414 114.577C96.6604 114.534 96.6824 114.486 96.7076 114.432C96.7578 114.326 96.8207 114.199 96.8978 114.054C97.0517 113.765 97.2627 113.403 97.5423 112.99C98.1022 112.162 98.9381 111.127 100.14 110.059ZM122.421 115.556C122.42 115.555 122.419 115.554 122.418 115.553C122.417 115.552 122.417 115.551 122.416 115.551C122.416 115.551 122.416 115.551 122.416 115.551L122.418 115.553L122.42 115.555L122.421 115.556Z" fill="#00DA93"/>
<path fill-rule="evenodd" clip-rule="evenodd" d="M211.86 110.059C209.416 107.887 205.639 105.74 200.032 104.785C194.425 103.83 190.115 104.601 187.05 105.834C185.542 106.441 184.39 107.137 183.571 107.73C183.161 108.026 182.835 108.297 182.588 108.518C182.464 108.628 182.36 108.727 182.275 108.81C182.233 108.852 182.195 108.89 182.162 108.924L182.116 108.972L182.095 108.993L182.086 109.003L182.081 109.008C182.079 109.011 182.077 109.013 185.833 112.28L182.077 109.013C180.209 111.016 180.376 114.103 182.45 115.907C184.482 117.674 187.59 117.555 189.472 115.667C189.497 115.645 189.55 115.602 189.633 115.542C189.853 115.383 190.282 115.109 190.938 114.845C192.2 114.337 194.55 113.764 198.277 114.399C202.003 115.033 204.009 116.348 205.015 117.242C205.538 117.707 205.844 118.106 205.994 118.328C206.051 118.411 206.085 118.47 206.101 118.498C207.201 120.894 210.079 122.032 212.615 121.043C215.203 120.033 216.453 117.188 215.407 114.689L210.721 116.517C215.407 114.689 215.406 114.686 215.404 114.683L215.402 114.676L215.396 114.664L215.385 114.637L215.359 114.577C215.34 114.534 215.318 114.486 215.292 114.432C215.242 114.326 215.179 114.199 215.102 114.054C214.948 113.765 214.737 113.403 214.458 112.99C213.898 112.162 213.062 111.127 211.86 110.059ZM189.579 115.556C189.58 115.555 189.581 115.554 189.582 115.553C189.583 115.552 189.583 115.551 189.584 115.551C189.584 115.551 189.584 115.551 189.584 115.551L189.582 115.553L189.58 115.555L189.579 115.556Z" fill="#00DA93"/>
<ellipse cx="156" cy="217.636" rx="10.6364" ry="11.8182" fill="#0EA472"/>
</svg>
