<svg width="360" height="232" viewBox="0 0 360 232" fill="none" xmlns="http://www.w3.org/2000/svg">
<path d="M394.73 277.173L301.006 246.459C287.099 241.894 287.099 222.044 301.006 217.479L394.73 186.765C400.997 184.72 404.438 177.924 402.39 171.604L395.099 148.966C393.071 142.645 386.333 139.175 380.065 141.241L286.342 171.955C272.435 176.52 260.863 160.45 269.465 148.511L327.387 68.1004C331.258 62.7301 330.07 55.1909 324.745 51.287L305.635 37.2828C300.31 33.3789 292.834 34.5769 288.963 39.9473L231.041 120.358C222.562 132.132 204.292 126.307 203.76 112.034V12.042C203.76 5.39103 198.414 0 191.819 0H168.163C161.568 0 156.222 5.39103 156.222 12.042V112.034C155.69 126.328 137.42 132.132 128.941 120.358L71.0188 39.9679C67.1477 34.5976 59.6924 33.3996 54.3467 37.3034L35.2374 51.3077C29.9122 55.2115 28.7243 62.7301 32.5953 68.1211L90.5172 148.532C99.1195 160.471 87.5474 176.541 73.6404 171.976L-20.0833 141.261C-26.3507 139.217 -33.0891 142.666 -35.1168 148.986L-42.4082 171.625C-44.4359 177.945 -41.0155 184.741 -34.7481 186.786L58.9756 217.5C72.8826 222.065 72.8826 241.915 58.9756 246.479L-34.7481 277.194C-41.0155 279.239 -44.4564 286.034 -42.4082 292.355L-35.1168 315.014C-33.0891 321.334 -26.3507 324.804 -20.0833 322.739L73.6404 292.024C87.5474 287.459 99.1195 303.529 90.5377 315.468L32.6158 395.879C28.7448 401.249 29.9327 408.788 35.2579 412.692L54.3672 426.697C59.6925 430.6 67.1682 429.402 71.0392 424.032L128.961 343.621C137.441 331.848 155.71 337.672 156.243 351.966V451.958C156.243 458.609 161.588 464 168.183 464H191.84C198.435 464 203.78 458.609 203.78 451.958V351.966C204.313 337.672 222.582 331.868 231.062 343.621L288.984 424.032C292.855 429.402 300.31 430.6 305.656 426.697L324.765 412.692C330.09 408.788 331.278 401.249 327.407 395.879L269.485 315.468C260.883 303.529 272.455 287.459 286.383 292.024L380.106 322.739C386.374 324.783 393.112 321.334 395.14 315.014L402.431 292.355C404.459 286.034 401.038 279.239 394.771 277.194L394.73 277.173Z" fill="#F6FEF9"/>
</svg>
