<svg  xmlns="http://www.w3.org/2000/svg" xmlns:xlink="http://www.w3.org/1999/xlink" height="128" width="128" viewBox="0 0 29 29"><path fill="#FFFFFF" d="M0,0 h29v29H0z" shape-rendering="crispEdges"></path><path fill="#000000" d="M0 0h7v1H0zM9 0h2v1H9zM12 0h4v1H12zM17 0h4v1H17zM22,0 h7v1H22zM0 1h1v1H0zM6 1h1v1H6zM13 1h4v1H13zM18 1h1v1H18zM22 1h1v1H22zM28,1 h1v1H28zM0 2h1v1H0zM2 2h3v1H2zM6 2h1v1H6zM8 2h3v1H8zM12 2h2v1H12zM15 2h1v1H15zM20 2h1v1H20zM22 2h1v1H22zM24 2h3v1H24zM28,2 h1v1H28zM0 3h1v1H0zM2 3h3v1H2zM6 3h1v1H6zM8 3h4v1H8zM14 3h2v1H14zM17 3h1v1H17zM19 3h1v1H19zM22 3h1v1H22zM24 3h3v1H24zM28,3 h1v1H28zM0 4h1v1H0zM2 4h3v1H2zM6 4h1v1H6zM8 4h3v1H8zM15 4h6v1H15zM22 4h1v1H22zM24 4h3v1H24zM28,4 h1v1H28zM0 5h1v1H0zM6 5h1v1H6zM8 5h2v1H8zM17 5h1v1H17zM22 5h1v1H22zM28,5 h1v1H28zM0 6h7v1H0zM8 6h1v1H8zM10 6h1v1H10zM12 6h1v1H12zM14 6h1v1H14zM16 6h1v1H16zM18 6h1v1H18zM20 6h1v1H20zM22,6 h7v1H22zM8 7h1v1H8zM10 7h3v1H10zM14 7h1v1H14zM16 7h1v1H16zM18 7h3v1H18zM0 8h1v1H0zM2 8h5v1H2zM9 8h1v1H9zM11 8h1v1H11zM17 8h1v1H17zM19 8h1v1H19zM22 8h5v1H22zM1 9h2v1H1zM4 9h1v1H4zM8 9h1v1H8zM10 9h2v1H10zM13 9h3v1H13zM17 9h3v1H17zM22 9h3v1H22zM28,9 h1v1H28zM3 10h7v1H3zM12 10h4v1H12zM17 10h2v1H17zM23 10h2v1H23zM2 11h1v1H2zM4 11h2v1H4zM10 11h1v1H10zM12 11h2v1H12zM15 11h1v1H15zM21 11h1v1H21zM24 11h2v1H24zM27 11h1v1H27zM1 12h6v1H1zM8 12h3v1H8zM14 12h5v1H14zM20 12h1v1H20zM25 12h2v1H25zM0 13h2v1H0zM3 13h2v1H3zM7 13h2v1H7zM10 13h1v1H10zM12 13h1v1H12zM16 13h9v1H16zM28,13 h1v1H28zM0 14h2v1H0zM3 14h1v1H3zM5 14h2v1H5zM11 14h2v1H11zM15 14h1v1H15zM17 14h1v1H17zM21 14h2v1H21zM25 14h2v1H25zM2 15h4v1H2zM7 15h1v1H7zM10 15h1v1H10zM14 15h2v1H14zM23 15h1v1H23zM27 15h1v1H27zM2 16h1v1H2zM6 16h2v1H6zM9 16h2v1H9zM12 16h1v1H12zM15 16h2v1H15zM20 16h1v1H20zM25 16h2v1H25zM0 17h2v1H0zM3 17h2v1H3zM7 17h1v1H7zM9 17h2v1H9zM13 17h2v1H13zM16 17h1v1H16zM19 17h6v1H19zM26 17h1v1H26zM28,17 h1v1H28zM0 18h1v1H0zM4 18h6v1H4zM12 18h7v1H12zM20 18h1v1H20zM22 18h2v1H22zM26 18h1v1H26zM0 19h1v1H0zM2 19h2v1H2zM5 19h1v1H5zM7 19h4v1H7zM13 19h1v1H13zM15 19h1v1H15zM18 19h1v1H18zM22 19h2v1H22zM27 19h1v1H27zM0 20h1v1H0zM3 20h4v1H3zM8 20h2v1H8zM14 20h2v1H14zM17 20h1v1H17zM20 20h5v1H20zM26,20 h3v1H26zM8 21h2v1H8zM15 21h4v1H15zM20 21h1v1H20zM24,21 h5v1H24zM0 22h7v1H0zM15 22h1v1H15zM18 22h3v1H18zM22 22h1v1H22zM24 22h3v1H24zM0 23h1v1H0zM6 23h1v1H6zM8 23h4v1H8zM14 23h1v1H14zM16 23h1v1H16zM19 23h2v1H19zM24 23h1v1H24zM27,23 h2v1H27zM0 24h1v1H0zM2 24h3v1H2zM6 24h1v1H6zM8 24h1v1H8zM10 24h1v1H10zM17 24h1v1H17zM20 24h5v1H20zM26 24h2v1H26zM0 25h1v1H0zM2 25h3v1H2zM6 25h1v1H6zM8 25h1v1H8zM11 25h4v1H11zM16 25h1v1H16zM18 25h1v1H18zM20 25h1v1H20zM25,25 h4v1H25zM0 26h1v1H0zM2 26h3v1H2zM6 26h1v1H6zM8 26h1v1H8zM10 26h4v1H10zM15 26h13v1H15zM0 27h1v1H0zM6 27h1v1H6zM11 27h2v1H11zM14 27h1v1H14zM16 27h1v1H16zM18 27h1v1H18zM20 27h1v1H20zM22 27h1v1H22zM24 27h2v1H24zM27 27h1v1H27zM0 28h7v1H0zM8 28h2v1H8zM13 28h1v1H13zM17 28h1v1H17zM21 28h4v1H21zM26 28h1v1H26z" shape-rendering="crispEdges"></path></svg>