<svg width="11" height="20" viewBox="0 0 11 20" fill="none" xmlns="http://www.w3.org/2000/svg">
<path d="M10.5722 11.9476L6.49637 10.6237C5.89158 10.4269 5.89158 9.57129 6.49637 9.37453L10.5722 8.05057C10.8448 7.96243 10.9944 7.6695 10.9054 7.39705L10.5883 6.42123C10.5001 6.14878 10.2071 5.9992 9.9345 6.08823L5.85862 7.41219C5.25383 7.60896 4.75058 6.91626 5.12379 6.40164L7.64271 2.93549C7.81105 2.704 7.75939 2.37902 7.52781 2.21075L6.69678 1.60709C6.46519 1.43881 6.14008 1.49045 5.97174 1.72194L3.45282 5.18809C3.07872 5.70271 2.26461 5.43828 2.26461 4.80256V0.519076C2.26461 0.232382 2.03214 0 1.74533 0H0.719234C0.432426 0 0.199951 0.232382 0.199951 0.519076V19.4809C0.199951 19.7676 0.432426 20 0.719234 20H1.74622C2.03303 20 2.2655 19.7676 2.2655 19.4809V15.1974C2.2655 14.5617 3.07961 14.2973 3.45371 14.8119L5.97263 18.2781C6.14097 18.5095 6.46519 18.5612 6.69767 18.3929L7.5287 17.7893C7.76028 17.621 7.81194 17.296 7.6436 17.0645L5.12468 13.5984C4.75058 13.0837 5.25383 12.391 5.85951 12.5878L9.93539 13.9118C10.2079 13.9999 10.501 13.8512 10.5892 13.5788L10.9063 12.6021C10.9944 12.3296 10.8457 12.0367 10.5731 11.9485L10.5722 11.9476Z" fill="#00DA93"/>
</svg>
