<svg width="24" height="24" viewBox="0 0 24 24" fill="none" xmlns="http://www.w3.org/2000/svg">
<mask id="mask0_4350_17914" style="mask-type:alpha" maskUnits="userSpaceOnUse" x="0" y="0" width="24" height="24">
<rect width="24" height="24" fill="#D9D9D9"/>
</mask>
<path style="fill: rgb(0, 218, 147);" d="M 6.587 5.27 C 5.925 5.27 5.267 5.243 4.611 5.184 C 4.528 5.176 3.946 5.047 3.866 5.126 C 3.213 5.78 3.322 6.834 3.322 7.876 C 3.322 8.134 3.234 8.79 3.379 8.936 C 3.666 9.222 4.202 9.653 4.582 9.938 C 4.772 10.08 5.124 10.387 5.184 10.625 C 5.244 10.865 5.301 11.15 5.384 11.399 C 5.488 11.711 5.319 12.134 5.384 12.458 C 5.427 12.673 5.512 13.263 5.413 13.461 C 5.155 13.977 4.526 14.491 4.095 14.921 C 3.911 15.106 3.522 15.238 3.437 15.494 C 3.287 15.943 3.411 16.337 3.523 16.783 C 3.563 16.943 3.499 17.112 3.551 17.27 C 3.661 17.598 3.375 18.354 3.609 18.587 C 3.814 18.792 4.372 18.788 4.64 18.788 C 5.504 18.788 6.24 18.492 7.103 18.558 C 7.734 18.607 8.494 18.764 9.079 18.959 C 9.332 19.044 9.702 18.959 9.967 18.988 C 10.771 19.077 11.589 19.045 12.401 19.045 C 13.664 19.045 14.918 18.988 16.181 18.988 C 16.776 18.988 17.375 19.113 17.986 19.045 C 18.255 19.015 18.529 18.938 18.788 18.874 C 18.95 18.833 19.156 18.918 19.303 18.845 C 19.481 18.756 19.574 18.566 19.761 18.473 C 20.059 18.324 20.28 18.556 20.563 18.272 C 21.146 17.69 20.902 16.65 20.735 15.981 C 20.672 15.728 20.157 15.429 19.99 15.208 C 19.864 15.04 19.94 14.67 19.79 14.52 C 19.099 13.829 18.51 12.564 18.788 11.456 C 19.107 10.179 20.227 9.522 20.792 8.391 C 21.011 7.955 21.035 7.17 20.936 6.673 C 20.864 6.318 20.916 5.475 20.506 5.27 C 20.191 5.112 19.964 5.3 19.618 5.327 C 18.684 5.399 17.719 5.327 16.783 5.327 C 14.769 5.327 12.797 5.384 10.797 5.384 C 10.215 5.384 9.632 5.384 9.05 5.384 C 8.862 5.384 8.544 5.445 8.363 5.384 C 7.959 5.25 7.111 5.212 6.702 5.212"></path>
<g mask="url(#mask0_4350_17914)">
<path d="M4 19.5C3.58333 19.5 3.22933 19.354 2.938 19.062C2.646 18.7707 2.5 18.4167 2.5 18V14.4C3.06667 14.3 3.54167 14.025 3.925 13.575C4.30833 13.125 4.5 12.6 4.5 12C4.5 11.4 4.30833 10.875 3.925 10.425C3.54167 9.975 3.06667 9.7 2.5 9.6V6C2.5 5.58333 2.646 5.22933 2.938 4.938C3.22933 4.646 3.58333 4.5 4 4.5H20C20.4167 4.5 20.7707 4.646 21.062 4.938C21.354 5.22933 21.5 5.58333 21.5 6V9.6C20.9333 9.7 20.4583 9.975 20.075 10.425C19.6917 10.875 19.5 11.4 19.5 12C19.5 12.6 19.6917 13.125 20.075 13.575C20.4583 14.025 20.9333 14.3 21.5 14.4V18C21.5 18.4167 21.354 18.7707 21.062 19.062C20.7707 19.354 20.4167 19.5 20 19.5H4ZM4 18H20V15.45C19.3833 15.0833 18.896 14.596 18.538 13.988C18.1793 13.3793 18 12.7167 18 12C18 11.2833 18.1793 10.6207 18.538 10.012C18.896 9.404 19.3833 8.91667 20 8.55V6H4V8.55C4.61667 8.91667 5.10433 9.404 5.463 10.012C5.821 10.6207 6 11.2833 6 12C6 12.7167 5.821 13.3793 5.463 13.988C5.10433 14.596 4.61667 15.0833 4 15.45V18ZM12 16.65C12.2167 16.65 12.396 16.5793 12.538 16.438C12.6793 16.296 12.75 16.1167 12.75 15.9C12.75 15.6833 12.6793 15.5043 12.538 15.363C12.396 15.221 12.2167 15.15 12 15.15C11.7833 15.15 11.6043 15.221 11.463 15.363C11.321 15.5043 11.25 15.6833 11.25 15.9C11.25 16.1167 11.321 16.296 11.463 16.438C11.6043 16.5793 11.7833 16.65 12 16.65ZM12 12.75C12.2167 12.75 12.396 12.679 12.538 12.537C12.6793 12.3957 12.75 12.2167 12.75 12C12.75 11.7833 12.6793 11.604 12.538 11.462C12.396 11.3207 12.2167 11.25 12 11.25C11.7833 11.25 11.6043 11.3207 11.463 11.462C11.321 11.604 11.25 11.7833 11.25 12C11.25 12.2167 11.321 12.3957 11.463 12.537C11.6043 12.679 11.7833 12.75 12 12.75ZM12 8.85C12.2167 8.85 12.396 8.779 12.538 8.637C12.6793 8.49567 12.75 8.31667 12.75 8.1C12.75 7.88333 12.6793 7.704 12.538 7.562C12.396 7.42067 12.2167 7.35 12 7.35C11.7833 7.35 11.6043 7.42067 11.463 7.562C11.321 7.704 11.25 7.88333 11.25 8.1C11.25 8.31667 11.321 8.49567 11.463 8.637C11.6043 8.779 11.7833 8.85 12 8.85Z" fill="#28241c"/>
</g>
</svg>
