<svg width="25" height="24" viewBox="0 0 25 24" fill="none" xmlns="http://www.w3.org/2000/svg">
<mask id="mask0_432_18146" style="mask-type:alpha" maskUnits="userSpaceOnUse" x="0" y="0" width="25" height="24">
<rect x="0.5" width="24" height="24" fill="#D9D9D9"/>
</mask>
<g mask="url(#mask0_432_18146)">
<path d="M4.55768 20.7502C4.06056 20.7502 3.635 20.5732 3.281 20.2192C2.927 19.8652 2.75 19.4396 2.75 18.9425V4.49061C2.75 4.24359 2.81025 4.09466 2.93075 4.04381C3.05127 3.99296 3.19871 4.05471 3.37308 4.22906L4.17498 5.03098L5.1923 4.00406C5.28588 3.91046 5.38503 3.84187 5.48973 3.79828C5.59443 3.7547 5.7066 3.73291 5.82625 3.73291C5.94592 3.73291 6.05959 3.75229 6.16728 3.79104C6.27498 3.82979 6.37498 3.89566 6.46728 3.98866L7.49998 5.03098L8.53268 3.98866C8.62413 3.89566 8.7232 3.82979 8.8299 3.79104C8.93658 3.75229 9.0509 3.73291 9.17285 3.73291C9.29478 3.73291 9.40767 3.7547 9.5115 3.79828C9.61535 3.84187 9.71407 3.91046 9.80765 4.00406L10.825 5.03098L11.8673 3.98866C11.9609 3.89508 12.06 3.82905 12.1647 3.79058C12.2694 3.75213 12.3816 3.73291 12.5013 3.73291C12.6209 3.73291 12.7327 3.75213 12.8365 3.79058C12.9404 3.82905 13.0391 3.89508 13.1327 3.98866L14.175 5.03098L15.1923 4.00406C15.2859 3.91046 15.385 3.84187 15.4897 3.79828C15.5944 3.7547 15.7066 3.73291 15.8263 3.73291C15.9459 3.73291 16.0596 3.75229 16.1673 3.79104C16.275 3.82979 16.375 3.89566 16.4673 3.98866L17.5 5.03098L18.5327 3.98866C18.6241 3.89566 18.7232 3.82979 18.8299 3.79104C18.9366 3.75229 19.0509 3.73291 19.1729 3.73291C19.2948 3.73291 19.4077 3.7547 19.5115 3.79828C19.6154 3.84187 19.7141 3.91046 19.8077 4.00406L20.825 5.03098L21.6269 4.22906C21.8012 4.05471 21.9487 3.99296 22.0692 4.04381C22.1897 4.09466 22.25 4.24359 22.25 4.49061V18.9425C22.25 19.4396 22.073 19.8652 21.719 20.2192C21.365 20.5732 20.9394 20.7502 20.4423 20.7502H4.55768ZM4.55768 19.2502H11.75V12.7502H4.24995V18.9425C4.24995 19.0322 4.2788 19.106 4.3365 19.1637C4.3942 19.2214 4.46793 19.2502 4.55768 19.2502ZM13.25 19.2502H20.4423C20.532 19.2502 20.6058 19.2214 20.6635 19.1637C20.7212 19.106 20.75 19.0322 20.75 18.9425V16.7502H13.25V19.2502ZM13.25 15.2502H20.75V12.7502H13.25V15.2502ZM4.24995 11.2502H20.75V7.65401H4.24995V11.2502Z" fill="#00DA93"/>
</g>
</svg>
