<?xml version="1.0" encoding="UTF-8" standalone="no"?>
<!DOCTYPE svg PUBLIC "-//W3C//DTD SVG 1.1//EN" "http://www.w3.org/Graphics/SVG/1.1/DTD/svg11.dtd">
<svg xmlns="http://www.w3.org/2000/svg" version="1.1" viewBox="0.00 0.00 720.00 720.00">
<path fill="#d9d9d9" d="
  M 8.94 214.65
  L 193.43 399.12
  Q 193.70 399.39 193.96 399.12
  L 234.59 358.46
  Q 234.91 358.14 234.59 357.82
  L 31.82 154.94
  A 1.40 1.40 0.0 0 1 31.65 153.16
  Q 48.00 128.92 72.24 112.59
  A 0.64 0.62 50.1 0 1 73.03 112.67
  L 276.28 315.92
  A 0.60 0.59 -44.7 0 0 277.13 315.92
  L 317.91 275.17
  Q 318.19 274.88 317.97 274.66
  L 137.91 94.57
  Q 137.62 94.28 137.22 94.22
  Q 136.71 94.14 136.76 93.53
  A 0.85 0.84 17.8 0 0 136.35 92.74
  Q 134.71 91.75 133.49 90.22
  Q 132.93 89.52 133.81 89.40
  C 174.81 83.88 214.73 94.95 246.64 120.75
  Q 252.06 125.14 261.28 134.36
  Q 310.50 183.59 359.72 232.80
  Q 360.07 233.15 360.42 232.81
  Q 410.07 183.37 459.67 133.78
  Q 468.86 124.59 474.33 120.22
  C 505.97 94.88 546.20 83.69 586.54 89.47
  Q 587.63 89.62 586.85 90.40
  L 402.60 274.38
  Q 401.95 275.03 402.60 275.68
  L 442.72 315.78
  Q 443.40 316.46 444.07 315.78
  L 647.18 112.65
  Q 647.56 112.27 648.01 112.57
  Q 672.20 128.85 688.56 153.01
  Q 689.33 154.15 688.36 155.12
  L 485.67 357.82
  Q 485.21 358.27 485.67 358.73
  L 526.08 399.17
  A 0.43 0.42 44.5 0 0 526.69 399.17
  L 711.49 214.54
  A 0.43 0.43 0.0 0 1 712.22 214.79
  C 714.63 232.18 714.37 250.95 710.08 268.10
  C 709.21 271.58 708.66 275.09 707.53 278.39
  C 705.88 283.19 704.27 287.97 702.13 292.58
  C 701.23 294.51 700.71 296.54 699.67 298.36
  Q 698.17 300.97 696.81 303.66
  Q 687.07 322.76 671.89 337.89
  C 617.90 391.70 563.86 445.45 510.04 499.43
  C 462.35 547.26 414.16 594.64 366.63 642.63
  Q 363.52 645.77 360.57 648.45
  A 0.86 0.85 45.8 0 1 359.40 648.43
  Q 352.34 641.52 345.55 634.70
  C 313.74 602.72 281.59 571.07 249.72 539.15
  Q 151.23 440.52 52.62 342.01
  Q 43.26 332.66 38.99 327.40
  C 13.35 295.80 2.36 255.38 8.12 214.92
  A 0.48 0.48 0.0 0 1 8.94 214.65
  Z
  M 401.4857 358.5728
  A 0.27 0.27 0.0 0 0 401.4857 358.1910
  L 360.2190 316.9243
  A 0.27 0.27 0.0 0 0 359.8372 316.9243
  L 318.7543 358.0072
  A 0.27 0.27 0.0 0 0 318.7543 358.3890
  L 360.0210 399.6557
  A 0.27 0.27 0.0 0 0 360.4028 399.6557
  L 401.4857 358.5728
  Z
  M 276.9624 400.1840
  A 0.27 0.27 0.0 0 0 276.5806 400.1840
  L 235.7240 441.0406
  A 0.27 0.27 0.0 0 0 235.7240 441.4224
  L 276.8776 482.5760
  A 0.27 0.27 0.0 0 0 277.2594 482.5760
  L 318.1160 441.7194
  A 0.27 0.27 0.0 0 0 318.1160 441.3376
  L 276.9624 400.1840
  Z
  M 484.3134 441.3764
  A 0.26 0.26 0.0 0 0 484.3134 441.0087
  L 443.7113 400.4066
  A 0.26 0.26 0.0 0 0 443.3436 400.4066
  L 402.2466 441.5036
  A 0.26 0.26 0.0 0 0 402.2466 441.8713
  L 442.8487 482.4734
  A 0.26 0.26 0.0 0 0 443.2164 482.4734
  L 484.3134 441.3764
  Z
  M 401.0479 524.5806
  A 0.27 0.27 0.0 0 0 401.0473 524.1987
  L 360.3886 483.6817
  A 0.27 0.27 0.0 0 0 360.0067 483.6824
  L 319.2921 524.5394
  A 0.27 0.27 0.0 0 0 319.2927 524.9213
  L 359.9514 565.4383
  A 0.27 0.27 0.0 0 0 360.3333 565.4376
  L 401.0479 524.5806
  Z"
/>
</svg>
