<svg width="24" height="24" viewBox="0 0 24 24" fill="none" xmlns="http://www.w3.org/2000/svg">
<mask id="mask0_756_3799" style="mask-type:alpha" maskUnits="userSpaceOnUse" x="0" y="0" width="24" height="24">
<rect width="24" height="24" fill="#D9D9D9"/>
</mask>
<g mask="url(#mask0_756_3799)">
<path d="M15.825 12.2501C15.725 12.2501 15.6294 12.2374 15.538 12.2121C15.446 12.1874 15.3584 12.1418 15.275 12.0751C13.875 10.8251 12.675 9.6291 11.675 8.4871C10.675 7.34576 10.175 6.29176 10.175 5.3251C10.175 4.49176 10.4627 3.78743 11.038 3.2121C11.6127 2.63743 12.3167 2.3501 13.15 2.3501C13.65 2.3501 14.1334 2.46676 14.6 2.7001C15.0667 2.93343 15.475 3.2751 15.825 3.7251C16.1917 3.2751 16.604 2.93343 17.062 2.7001C17.5207 2.46676 18 2.3501 18.5 2.3501C19.35 2.3501 20.0584 2.63743 20.625 3.2121C21.1917 3.78743 21.475 4.49176 21.475 5.3251C21.475 6.29176 20.975 7.34576 19.975 8.4871C18.975 9.6291 17.775 10.8251 16.375 12.0751C16.3084 12.1418 16.225 12.1874 16.125 12.2121C16.025 12.2374 15.925 12.2501 15.825 12.2501ZM15.825 10.5001C16.8917 9.5501 17.85 8.6041 18.7 7.6621C19.55 6.72076 19.975 5.94176 19.975 5.3251C19.975 4.89176 19.8374 4.53743 19.562 4.2621C19.2874 3.98743 18.9334 3.8501 18.5 3.8501C18.25 3.8501 17.9917 3.91243 17.725 4.0371C17.4584 4.16243 17.2 4.39176 16.95 4.7251L15.825 6.0751L14.7 4.7251C14.45 4.39176 14.1917 4.16243 13.925 4.0371C13.6584 3.91243 13.4 3.8501 13.15 3.8501C12.7167 3.8501 12.3627 3.98743 12.088 4.2621C11.8127 4.53743 11.675 4.89176 11.675 5.3251C11.675 5.94176 12.1 6.72076 12.95 7.6621C13.8 8.6041 14.7584 9.5501 15.825 10.5001ZM13.7 20.3751C13.7334 20.3918 13.7627 20.4001 13.788 20.4001C13.8127 20.4001 13.8417 20.3918 13.875 20.3751L19.75 18.5501C19.7 18.3168 19.5917 18.1418 19.425 18.0251C19.2584 17.9084 19.075 17.8501 18.875 17.8501H14C13.55 17.8501 13.175 17.8294 12.875 17.7881C12.575 17.7461 12.2584 17.6751 11.925 17.5751L10.375 17.0751C10.1584 17.0084 10.0084 16.8794 9.92502 16.6881C9.84169 16.4961 9.83336 16.2918 9.90002 16.0751C9.96669 15.8918 10.0917 15.7541 10.275 15.6621C10.4584 15.5708 10.65 15.5501 10.85 15.6001L12.15 16.0751C12.45 16.1584 12.7877 16.2208 13.163 16.2621C13.5377 16.3041 14.025 16.3334 14.625 16.3501H14.875C14.875 16.1001 14.821 15.8834 14.713 15.7001C14.6044 15.5168 14.4584 15.4001 14.275 15.3501L8.47502 13.2001H6.52502V18.3501L13.7 20.3751ZM13.3 21.8501L6.52502 19.9001C6.40836 20.3168 6.17502 20.6501 5.82502 20.9001C5.47502 21.1501 5.10002 21.2751 4.70002 21.2751H3.32502C2.82502 21.2751 2.40002 21.0958 2.05002 20.7371C1.70002 20.3791 1.52502 19.9501 1.52502 19.4501V13.5001C1.52502 13.0001 1.70002 12.5751 2.05002 12.2251C2.40002 11.8751 2.82502 11.7001 3.32502 11.7001H8.35002C8.46669 11.7001 8.57502 11.7084 8.67502 11.7251C8.77502 11.7418 8.87502 11.7668 8.97502 11.8001L14.8 13.9501C15.25 14.1168 15.625 14.4124 15.925 14.8371C16.225 15.2624 16.375 15.7668 16.375 16.3501H18.875C19.5917 16.3501 20.1794 16.5794 20.638 17.0381C21.096 17.4961 21.325 18.1001 21.325 18.8501C21.325 19.1334 21.25 19.3628 21.1 19.5381C20.95 19.7128 20.7167 19.8501 20.4 19.9501L14.35 21.8251C14.1834 21.8751 14.0084 21.9044 13.825 21.9131C13.6417 21.9211 13.4667 21.9001 13.3 21.8501ZM3.02502 19.4501C3.02502 19.5501 3.05436 19.6294 3.11302 19.6881C3.17102 19.7461 3.24169 19.7751 3.32502 19.7751H4.70002C4.80002 19.7751 4.87936 19.7501 4.93802 19.7001C4.99602 19.6501 5.02502 19.5668 5.02502 19.4501V13.2001H3.32502C3.24169 13.2001 3.17102 13.2291 3.11302 13.2871C3.05436 13.3458 3.02502 13.4168 3.02502 13.5001V19.4501Z" fill="#BFBCB5"/>
</g>
</svg>
