<svg width="24" height="24" viewBox="0 0 24 24" fill="none" xmlns="http://www.w3.org/2000/svg">
<mask id="mask0_4350_19949" style="mask-type:alpha" maskUnits="userSpaceOnUse" x="0" y="0" width="24" height="24">
<rect width="24" height="24" fill="#D9D9D9"/>
</mask>
<g mask="url(#mask0_4350_19949)">
<path d="M15.8249 12.25C15.7249 12.25 15.6292 12.2373 15.5379 12.212C15.4459 12.1873 15.3582 12.1416 15.2749 12.075C13.8749 10.825 12.6749 9.62898 11.6749 8.48698C10.6749 7.34564 10.1749 6.29164 10.1749 5.32498C10.1749 4.49164 10.4626 3.78731 11.0379 3.21198C11.6126 2.63731 12.3166 2.34998 13.1499 2.34998C13.6499 2.34998 14.1332 2.46664 14.5999 2.69998C15.0666 2.93331 15.4749 3.27498 15.8249 3.72498C16.1916 3.27498 16.6039 2.93331 17.0619 2.69998C17.5206 2.46664 17.9999 2.34998 18.4999 2.34998C19.3499 2.34998 20.0582 2.63731 20.6249 3.21198C21.1916 3.78731 21.4749 4.49164 21.4749 5.32498C21.4749 6.29164 20.9749 7.34564 19.9749 8.48698C18.9749 9.62898 17.7749 10.825 16.3749 12.075C16.3082 12.1416 16.2249 12.1873 16.1249 12.212C16.0249 12.2373 15.9249 12.25 15.8249 12.25ZM15.8249 10.5C16.8916 9.54998 17.8499 8.60398 18.6999 7.66198C19.5499 6.72064 19.9749 5.94164 19.9749 5.32498C19.9749 4.89164 19.8372 4.53731 19.5619 4.26198C19.2872 3.98731 18.9332 3.84998 18.4999 3.84998C18.2499 3.84998 17.9916 3.91231 17.7249 4.03698C17.4582 4.16231 17.1999 4.39164 16.9499 4.72498L15.8249 6.07498L14.6999 4.72498C14.4499 4.39164 14.1916 4.16231 13.9249 4.03698C13.6582 3.91231 13.3999 3.84998 13.1499 3.84998C12.7166 3.84998 12.3626 3.98731 12.0879 4.26198C11.8126 4.53731 11.6749 4.89164 11.6749 5.32498C11.6749 5.94164 12.0999 6.72064 12.9499 7.66198C13.7999 8.60398 14.7582 9.54998 15.8249 10.5ZM13.6999 20.375C13.7332 20.3916 13.7626 20.4 13.7879 20.4C13.8126 20.4 13.8416 20.3916 13.8749 20.375L19.7499 18.55C19.6999 18.3166 19.5916 18.1416 19.4249 18.025C19.2582 17.9083 19.0749 17.85 18.8749 17.85H13.9999C13.5499 17.85 13.1749 17.8293 12.8749 17.788C12.5749 17.746 12.2582 17.675 11.9249 17.575L10.3749 17.075C10.1582 17.0083 10.0082 16.8793 9.9249 16.688C9.84157 16.496 9.83324 16.2916 9.8999 16.075C9.96657 15.8916 10.0916 15.754 10.2749 15.662C10.4582 15.5706 10.6499 15.55 10.8499 15.6L12.1499 16.075C12.4499 16.1583 12.7876 16.2206 13.1629 16.262C13.5376 16.304 14.0249 16.3333 14.6249 16.35H14.8749C14.8749 16.1 14.8209 15.8833 14.7129 15.7C14.6042 15.5166 14.4582 15.4 14.2749 15.35L8.4749 13.2H6.5249V18.35L13.6999 20.375ZM13.2999 21.85L6.5249 19.9C6.40824 20.3166 6.1749 20.65 5.8249 20.9C5.4749 21.15 5.0999 21.275 4.6999 21.275H3.3249C2.8249 21.275 2.3999 21.0956 2.0499 20.737C1.6999 20.379 1.5249 19.95 1.5249 19.45V13.5C1.5249 13 1.6999 12.575 2.0499 12.225C2.3999 11.875 2.8249 11.7 3.3249 11.7H8.3499C8.46657 11.7 8.5749 11.7083 8.6749 11.725C8.7749 11.7416 8.8749 11.7666 8.9749 11.8L14.7999 13.95C15.2499 14.1166 15.6249 14.4123 15.9249 14.837C16.2249 15.2623 16.3749 15.7666 16.3749 16.35H18.8749C19.5916 16.35 20.1792 16.5793 20.6379 17.038C21.0959 17.496 21.3249 18.1 21.3249 18.85C21.3249 19.1333 21.2499 19.3626 21.0999 19.538C20.9499 19.7126 20.7166 19.85 20.3999 19.95L14.3499 21.825C14.1832 21.875 14.0082 21.9043 13.8249 21.913C13.6416 21.921 13.4666 21.9 13.2999 21.85ZM3.0249 19.45C3.0249 19.55 3.05424 19.6293 3.1129 19.688C3.1709 19.746 3.24157 19.775 3.3249 19.775H4.6999C4.7999 19.775 4.87924 19.75 4.9379 19.7C4.9959 19.65 5.0249 19.5666 5.0249 19.45V13.2H3.3249C3.24157 13.2 3.1709 13.229 3.1129 13.287C3.05424 13.3456 3.0249 13.4166 3.0249 13.5V19.45Z" fill="#D4CEC3"/>
</g>
</svg>
